<svg xmlns="http://www.w3.org/2000/svg" xmlns:xlink="http://www.w3.org/1999/xlink" version="1.1" class="marks" width="231" height="180" viewBox="0 0 231 180"><rect width="231" height="180" fill="white"/><g fill="none" stroke-miterlimit="10" transform="translate(45,10)"><g class="mark-group role-frame root" role="graphics-object" aria-roledescription="group mark container"><g transform="translate(0,0)"><path class="background" aria-hidden="true" d="M0.5,0.5h180v135h-180Z" stroke="black"/><g><g class="mark-group role-axis" role="graphics-symbol" aria-roledescription="axis" aria-label="X-axis titled 'Energy (molecules)' for a linear scale with values from 0 to 6,000"><g transform="translate(0.5,135.5)"><path class="background" aria-hidden="true" d="M0,0h0v0h0Z" pointer-events="none"/><g><g class="mark-rule role-axis-tick" pointer-events="none"><line transform="translate(0,0)" x2="0" y2="3" stroke="black" stroke-width="1" opacity="1"/><line transform="translate(30,0)" x2="0" y2="3" stroke="black" stroke-width="1" opacity="1"/><line transform="translate(60,0)" x2="0" y2="3" stroke="black" stroke-width="1" opacity="1"/><line transform="translate(90,0)" x2="0" y2="3" stroke="black" stroke-width="1" opacity="1"/><line transform="translate(120,0)" x2="0" y2="3" stroke="black" stroke-width="1" opacity="1"/><line transform="translate(150,0)" x2="0" y2="3" stroke="black" stroke-width="1" opacity="1"/><line transform="translate(180,0)" x2="0" y2="3" stroke="black" stroke-width="1" opacity="1"/></g><g class="mark-text role-axis-label" pointer-events="none"><text text-anchor="start" transform="translate(0,13)" font-family="Arial" font-size="10px" fill="#000" opacity="1">0</text><text text-anchor="middle" transform="translate(30,13)" font-family="Arial" font-size="10px" fill="#000" opacity="0">1,000</text><text text-anchor="middle" transform="translate(60,13)" font-family="Arial" font-size="10px" fill="#000" opacity="1">2,000</text><text text-anchor="middle" transform="translate(90,13)" font-family="Arial" font-size="10px" fill="#000" opacity="0">3,000</text><text text-anchor="middle" transform="translate(120,13)" font-family="Arial" font-size="10px" fill="#000" opacity="1">4,000</text><text text-anchor="middle" transform="translate(150,13)" font-family="Arial" font-size="10px" fill="#000" opacity="0">5,000</text><text text-anchor="end" transform="translate(180,13)" font-family="Arial" font-size="10px" fill="#000" opacity="1">6,000</text></g><g class="mark-rule role-axis-domain" pointer-events="none"><line transform="translate(0,0)" x2="180" y2="0" stroke="black" stroke-width="1" opacity="1"/></g><g class="mark-text role-axis-title" pointer-events="none"><text text-anchor="middle" transform="translate(90,28)" font-family="Arial" font-size="11px" font-weight="normal" fill="#000" opacity="1">Energy (molecules)</text></g></g><path class="foreground" aria-hidden="true" d="" pointer-events="none" display="none"/></g></g><g class="mark-group role-axis" role="graphics-symbol" aria-roledescription="axis" aria-label="Y-axis titled 'Efficiency' for a linear scale with values from 0.00 to 0.08"><g transform="translate(0.5,0.5)"><path class="background" aria-hidden="true" d="M0,0h0v0h0Z" pointer-events="none"/><g><g class="mark-rule role-axis-tick" pointer-events="none"><line transform="translate(0,135)" x2="-3" y2="0" stroke="black" stroke-width="1" opacity="1"/><line transform="translate(0,101)" x2="-3" y2="0" stroke="black" stroke-width="1" opacity="1"/><line transform="translate(0,68)" x2="-3" y2="0" stroke="black" stroke-width="1" opacity="1"/><line transform="translate(0,34)" x2="-3" y2="0" stroke="black" stroke-width="1" opacity="1"/><line transform="translate(0,0)" x2="-3" y2="0" stroke="black" stroke-width="1" opacity="1"/></g><g class="mark-text role-axis-label" pointer-events="none"><text text-anchor="end" transform="translate(-5,138)" font-family="Arial" font-size="10px" fill="#000" opacity="1">0.00</text><text text-anchor="end" transform="translate(-5,104.25)" font-family="Arial" font-size="10px" fill="#000" opacity="1">0.02</text><text text-anchor="end" transform="translate(-5,70.5)" font-family="Arial" font-size="10px" fill="#000" opacity="1">0.04</text><text text-anchor="end" transform="translate(-5,36.75)" font-family="Arial" font-size="10px" fill="#000" opacity="1">0.06</text><text text-anchor="end" transform="translate(-5,3)" font-family="Arial" font-size="10px" fill="#000" opacity="1">0.08</text></g><g class="mark-rule role-axis-domain" pointer-events="none"><line transform="translate(0,135)" x2="0" y2="-135" stroke="black" stroke-width="1" opacity="1"/></g><g class="mark-text role-axis-title" pointer-events="none"><text text-anchor="middle" transform="translate(-28.462890625,67.5) rotate(-90) translate(0,-2)" font-family="Arial" font-size="11px" font-weight="normal" fill="#000" opacity="1">Efficiency</text></g></g><path class="foreground" aria-hidden="true" d="" pointer-events="none" display="none"/></g></g><g class="mark-line role-mark marks" role="graphics-object" aria-roledescription="line mark container"><path aria-label="A: 100; efficiency: 0.0774223244477" role="graphics-symbol" aria-roledescription="line mark" d="M3,4.35L4.71,7.945L6.42,10.302L8.13,12.04L9.84,13.411L11.55,14.538L13.26,15.492L14.97,16.318L16.68,17.045L18.39,17.694L20.1,18.278L21.81,18.81L23.52,19.297L25.23,19.747L26.94,20.164L28.65,20.552L30.36,20.916L32.07,21.257L33.78,21.579L35.49,21.883L37.2,22.171L38.91,22.445L40.62,22.707L42.33,22.956L44.04,23.194L45.75,23.422L47.46,23.641L49.17,23.851L50.88,24.054L52.59,24.249L54.3,24.437L56.01,24.619L57.72,24.794L59.43,24.964L61.14,25.129L62.85,25.289L64.56,25.444L66.27,25.594L67.98,25.74L69.69,25.883L71.4,26.021L73.11,26.156L74.82,26.287L76.53,26.415L78.24,26.54L79.95,26.662L81.66,26.781L83.37,26.898L85.08,27.012L86.79,27.123L88.5,27.232L90.21,27.338L91.92,27.443L93.63,27.545L95.34,27.645L97.05,27.744L98.76,27.84L100.47,27.935L102.18,28.028L103.89,28.119L105.6,28.208L107.31,28.296L109.02,28.382L110.73,28.467L112.44,28.551L114.15,28.633L115.86,28.714L117.57,28.793L119.28,28.871L120.99,28.948L122.7,29.024L124.41,29.098L126.12,29.172L127.83,29.244L129.54,29.316L131.25,29.386L132.96,29.455L134.67,29.523L136.38,29.591L138.09,29.657L139.8,29.723L141.51,29.787L143.22,29.851L144.93,29.914L146.64,29.976L148.35,30.038L150.06,30.098L151.77,30.158L153.48,30.217L155.19,30.276L156.9,30.333L158.61,30.39L160.32,30.447L162.03,30.502L163.74,30.557L165.45,30.612L167.16,30.665L168.87,30.719L170.58,30.771L172.29,30.823L174,30.875" stroke="#1657a8" stroke-width="2"/></g></g><path class="foreground" aria-hidden="true" d="" display="none"/></g></g></g></svg>