<svg xmlns="http://www.w3.org/2000/svg" xmlns:xlink="http://www.w3.org/1999/xlink" version="1.1" class="marks" width="329" height="180" viewBox="0 0 329 180"><rect width="329" height="180" fill="white"/><g fill="none" stroke-miterlimit="10" transform="translate(51,10)"><g class="mark-group role-frame root" role="graphics-object" aria-roledescription="group mark container"><g transform="translate(0,0)"><path class="background" aria-hidden="true" d="M0.5,0.5h180v135h-180Z" stroke="black"/><g><g class="mark-group role-axis" aria-hidden="true"><g transform="translate(0.5,0.5)"><path class="background" aria-hidden="true" d="M0,0h0v0h0Z" pointer-events="none"/><g><g class="mark-rule role-axis-grid" pointer-events="none"><line transform="translate(0,135)" x2="180" y2="0" stroke="#ddd" stroke-width="1" opacity="1"/><line transform="translate(0,121)" x2="180" y2="0" stroke="#ddd" stroke-width="1" opacity="1"/><line transform="translate(0,114)" x2="180" y2="0" stroke="#ddd" stroke-width="1" opacity="1"/><line transform="translate(0,108)" x2="180" y2="0" stroke="#ddd" stroke-width="1" opacity="1"/><line transform="translate(0,104)" x2="180" y2="0" stroke="#ddd" stroke-width="1" opacity="1"/><line transform="translate(0,100)" x2="180" y2="0" stroke="#ddd" stroke-width="1" opacity="1"/><line transform="translate(0,97)" x2="180" y2="0" stroke="#ddd" stroke-width="1" opacity="1"/><line transform="translate(0,94)" x2="180" y2="0" stroke="#ddd" stroke-width="1" opacity="1"/><line transform="translate(0,92)" x2="180" y2="0" stroke="#ddd" stroke-width="1" opacity="1"/><line transform="translate(0,90)" x2="180" y2="0" stroke="#ddd" stroke-width="1" opacity="1"/><line transform="translate(0,76)" x2="180" y2="0" stroke="#ddd" stroke-width="1" opacity="1"/><line transform="translate(0,69)" x2="180" y2="0" stroke="#ddd" stroke-width="1" opacity="1"/><line transform="translate(0,63)" x2="180" y2="0" stroke="#ddd" stroke-width="1" opacity="1"/><line transform="translate(0,59)" x2="180" y2="0" stroke="#ddd" stroke-width="1" opacity="1"/><line transform="translate(0,55)" x2="180" y2="0" stroke="#ddd" stroke-width="1" opacity="1"/><line transform="translate(0,52)" x2="180" y2="0" stroke="#ddd" stroke-width="1" opacity="1"/><line transform="translate(0,49)" x2="180" y2="0" stroke="#ddd" stroke-width="1" opacity="1"/><line transform="translate(0,47)" x2="180" y2="0" stroke="#ddd" stroke-width="1" opacity="1"/><line transform="translate(0,45)" x2="180" y2="0" stroke="#ddd" stroke-width="1" opacity="1"/><line transform="translate(0,31)" x2="180" y2="0" stroke="#ddd" stroke-width="1" opacity="1"/><line transform="translate(0,24)" x2="180" y2="0" stroke="#ddd" stroke-width="1" opacity="1"/><line transform="translate(0,18)" x2="180" y2="0" stroke="#ddd" stroke-width="1" opacity="1"/><line transform="translate(0,14)" x2="180" y2="0" stroke="#ddd" stroke-width="1" opacity="1"/><line transform="translate(0,10)" x2="180" y2="0" stroke="#ddd" stroke-width="1" opacity="1"/><line transform="translate(0,7)" x2="180" y2="0" stroke="#ddd" stroke-width="1" opacity="1"/><line transform="translate(0,4)" x2="180" y2="0" stroke="#ddd" stroke-width="1" opacity="1"/><line transform="translate(0,2)" x2="180" y2="0" stroke="#ddd" stroke-width="1" opacity="1"/><line transform="translate(0,0)" x2="180" y2="0" stroke="#ddd" stroke-width="1" opacity="1"/></g></g><path class="foreground" aria-hidden="true" d="" pointer-events="none" display="none"/></g></g><g class="mark-group role-axis" role="graphics-symbol" aria-roledescription="axis" aria-label="X-axis titled 'n' for a linear scale with values from 0 to 400"><g transform="translate(0.5,135.5)"><path class="background" aria-hidden="true" d="M0,0h0v0h0Z" pointer-events="none"/><g><g class="mark-rule role-axis-tick" pointer-events="none"><line transform="translate(0,0)" x2="0" y2="3" stroke="black" stroke-width="1" opacity="1"/><line transform="translate(45,0)" x2="0" y2="3" stroke="black" stroke-width="1" opacity="1"/><line transform="translate(90,0)" x2="0" y2="3" stroke="black" stroke-width="1" opacity="1"/><line transform="translate(135,0)" x2="0" y2="3" stroke="black" stroke-width="1" opacity="1"/><line transform="translate(180,0)" x2="0" y2="3" stroke="black" stroke-width="1" opacity="1"/></g><g class="mark-text role-axis-label" pointer-events="none"><text text-anchor="start" transform="translate(0,13)" font-family="Arial" font-size="10px" fill="#000" opacity="1">0</text><text text-anchor="middle" transform="translate(45,13)" font-family="Arial" font-size="10px" fill="#000" opacity="1">100</text><text text-anchor="middle" transform="translate(90,13)" font-family="Arial" font-size="10px" fill="#000" opacity="1">200</text><text text-anchor="middle" transform="translate(135,13)" font-family="Arial" font-size="10px" fill="#000" opacity="1">300</text><text text-anchor="end" transform="translate(180,13)" font-family="Arial" font-size="10px" fill="#000" opacity="1">400</text></g><g class="mark-rule role-axis-domain" pointer-events="none"><line transform="translate(0,0)" x2="180" y2="0" stroke="black" stroke-width="1" opacity="1"/></g><g class="mark-text role-axis-title" pointer-events="none"><text text-anchor="middle" transform="translate(90,28)" font-family="Arial" font-size="11px" font-weight="normal" fill="#000" opacity="1">n</text></g></g><path class="foreground" aria-hidden="true" d="" pointer-events="none" display="none"/></g></g><g class="mark-group role-axis" role="graphics-symbol" aria-roledescription="axis" aria-label="Y-axis titled 'Mean execution time (ms)' for a log scale with values from 1 to 1,000"><g transform="translate(0.5,0.5)"><path class="background" aria-hidden="true" d="M0,0h0v0h0Z" pointer-events="none"/><g><g class="mark-rule role-axis-tick" pointer-events="none"><line transform="translate(0,135)" x2="-3" y2="0" stroke="black" stroke-width="1" opacity="1"/><line transform="translate(0,121)" x2="-3" y2="0" stroke="black" stroke-width="1" opacity="1"/><line transform="translate(0,114)" x2="-3" y2="0" stroke="black" stroke-width="1" opacity="1"/><line transform="translate(0,108)" x2="-3" y2="0" stroke="black" stroke-width="1" opacity="1"/><line transform="translate(0,104)" x2="-3" y2="0" stroke="black" stroke-width="1" opacity="1"/><line transform="translate(0,100)" x2="-3" y2="0" stroke="black" stroke-width="1" opacity="1"/><line transform="translate(0,97)" x2="-3" y2="0" stroke="black" stroke-width="1" opacity="1"/><line transform="translate(0,94)" x2="-3" y2="0" stroke="black" stroke-width="1" opacity="1"/><line transform="translate(0,92)" x2="-3" y2="0" stroke="black" stroke-width="1" opacity="1"/><line transform="translate(0,90)" x2="-3" y2="0" stroke="black" stroke-width="1" opacity="1"/><line transform="translate(0,76)" x2="-3" y2="0" stroke="black" stroke-width="1" opacity="1"/><line transform="translate(0,69)" x2="-3" y2="0" stroke="black" stroke-width="1" opacity="1"/><line transform="translate(0,63)" x2="-3" y2="0" stroke="black" stroke-width="1" opacity="1"/><line transform="translate(0,59)" x2="-3" y2="0" stroke="black" stroke-width="1" opacity="1"/><line transform="translate(0,55)" x2="-3" y2="0" stroke="black" stroke-width="1" opacity="1"/><line transform="translate(0,52)" x2="-3" y2="0" stroke="black" stroke-width="1" opacity="1"/><line transform="translate(0,49)" x2="-3" y2="0" stroke="black" stroke-width="1" opacity="1"/><line transform="translate(0,47)" x2="-3" y2="0" stroke="black" stroke-width="1" opacity="1"/><line transform="translate(0,45)" x2="-3" y2="0" stroke="black" stroke-width="1" opacity="1"/><line transform="translate(0,31)" x2="-3" y2="0" stroke="black" stroke-width="1" opacity="1"/><line transform="translate(0,24)" x2="-3" y2="0" stroke="black" stroke-width="1" opacity="1"/><line transform="translate(0,18)" x2="-3" y2="0" stroke="black" stroke-width="1" opacity="1"/><line transform="translate(0,14)" x2="-3" y2="0" stroke="black" stroke-width="1" opacity="1"/><line transform="translate(0,10)" x2="-3" y2="0" stroke="black" stroke-width="1" opacity="1"/><line transform="translate(0,7)" x2="-3" y2="0" stroke="black" stroke-width="1" opacity="1"/><line transform="translate(0,4)" x2="-3" y2="0" stroke="black" stroke-width="1" opacity="1"/><line transform="translate(0,2)" x2="-3" y2="0" stroke="black" stroke-width="1" opacity="1"/><line transform="translate(0,0)" x2="-3" y2="0" stroke="black" stroke-width="1" opacity="1"/></g><g class="mark-text role-axis-label" pointer-events="none"><text text-anchor="end" transform="translate(-5,138)" font-family="Arial" font-size="10px" fill="#000" opacity="1">1</text><text text-anchor="end" transform="translate(-5,124.45365019512084)" font-family="Arial" font-size="10px" fill="#000" opacity="1">2</text><text text-anchor="end" transform="translate(-5,116.5295435376152)" font-family="Arial" font-size="10px" fill="#000" opacity="0">3</text><text text-anchor="end" transform="translate(-5,110.9073003902417)" font-family="Arial" font-size="10px" fill="#000" opacity="1"/><text text-anchor="end" transform="translate(-5,106.54634980487914)" font-family="Arial" font-size="10px" fill="#000" opacity="1"/><text text-anchor="end" transform="translate(-5,102.98319373273603)" font-family="Arial" font-size="10px" fill="#000" opacity="1"/><text text-anchor="end" transform="translate(-5,99.97058819935845)" font-family="Arial" font-size="10px" fill="#000" opacity="1"/><text text-anchor="end" transform="translate(-5,97.36095058536253)" font-family="Arial" font-size="10px" fill="#000" opacity="1"/><text text-anchor="end" transform="translate(-5,95.05908707523038)" font-family="Arial" font-size="10px" fill="#000" opacity="1"/><text text-anchor="end" transform="translate(-5,93)" font-family="Arial" font-size="10px" fill="#000" opacity="1">10</text><text text-anchor="end" transform="translate(-5,79.45365019512084)" font-family="Arial" font-size="10px" fill="#000" opacity="1">20</text><text text-anchor="end" transform="translate(-5,71.52954353761518)" font-family="Arial" font-size="10px" fill="#000" opacity="0">30</text><text text-anchor="end" transform="translate(-5,65.90730039024169)" font-family="Arial" font-size="10px" fill="#000" opacity="1"/><text text-anchor="end" transform="translate(-5,61.546349804879156)" font-family="Arial" font-size="10px" fill="#000" opacity="1"/><text text-anchor="end" transform="translate(-5,57.983193732736034)" font-family="Arial" font-size="10px" fill="#000" opacity="1"/><text text-anchor="end" transform="translate(-5,54.97058819935844)" font-family="Arial" font-size="10px" fill="#000" opacity="1"/><text text-anchor="end" transform="translate(-5,52.36095058536254)" font-family="Arial" font-size="10px" fill="#000" opacity="1"/><text text-anchor="end" transform="translate(-5,50.05908707523038)" font-family="Arial" font-size="10px" fill="#000" opacity="1"/><text text-anchor="end" transform="translate(-5,47.99999999999999)" font-family="Arial" font-size="10px" fill="#000" opacity="1">100</text><text text-anchor="end" transform="translate(-5,34.45365019512086)" font-family="Arial" font-size="10px" fill="#000" opacity="1">200</text><text text-anchor="end" transform="translate(-5,26.529543537615183)" font-family="Arial" font-size="10px" fill="#000" opacity="0">300</text><text text-anchor="end" transform="translate(-5,20.907300390241687)" font-family="Arial" font-size="10px" fill="#000" opacity="1"/><text text-anchor="end" transform="translate(-5,16.54634980487915)" font-family="Arial" font-size="10px" fill="#000" opacity="1"/><text text-anchor="end" transform="translate(-5,12.983193732736032)" font-family="Arial" font-size="10px" fill="#000" opacity="1"/><text text-anchor="end" transform="translate(-5,9.970588199358449)" font-family="Arial" font-size="10px" fill="#000" opacity="1"/><text text-anchor="end" transform="translate(-5,7.360950585362536)" font-family="Arial" font-size="10px" fill="#000" opacity="1"/><text text-anchor="end" transform="translate(-5,5.059087075230376)" font-family="Arial" font-size="10px" fill="#000" opacity="1"/><text text-anchor="end" transform="translate(-5,3)" font-family="Arial" font-size="10px" fill="#000" opacity="1">1,000</text></g><g class="mark-rule role-axis-domain" pointer-events="none"><line transform="translate(0,135)" x2="0" y2="-135" stroke="black" stroke-width="1" opacity="1"/></g><g class="mark-text role-axis-title" pointer-events="none"><text text-anchor="middle" transform="translate(-34.0244140625,67.5) rotate(-90) translate(0,-2)" font-family="Arial" font-size="11px" font-weight="normal" fill="#000" opacity="1">Mean execution time (ms)</text></g></g><path class="foreground" aria-hidden="true" d="" pointer-events="none" display="none"/></g></g><g class="mark-group role-scope layer_0_pathgroup" role="graphics-object" aria-roledescription="group mark container"><g transform="translate(0,0)"><path class="background" aria-hidden="true" d="M0,0h180v135h-180Z"/><g><g class="mark-line role-mark layer_0_marks" role="graphics-object" aria-roledescription="line mark container"><path aria-label="n: 20; μ: 4.660793198; model: Full model" role="graphics-symbol" aria-roledescription="line mark" d="M9,104.919L18,89.27L27,78.182L36,62.002L45,57.655L54,45.945L63,45.904L72,41.232L81,35.13L90,29.321L99,27.544L108,25.106L117,21.358L126,16.652L135,15.653L144,12.936L153,10.826L162,8.166L171,6.941L180,3.98" stroke="#1657a8" stroke-width="2"/></g></g><path class="foreground" aria-hidden="true" d="" display="none"/></g><g transform="translate(0,0)"><path class="background" aria-hidden="true" d="M0,0h180v135h-180Z"/><g><g class="mark-line role-mark layer_0_marks" role="graphics-object" aria-roledescription="line mark container"><path aria-label="n: 20; μ: 2.058680918; model: 1 complex" role="graphics-symbol" aria-roledescription="line mark" d="M9,120.888L18,119.484L27,120.4L36,120.642L45,121.239L54,121.02L63,119.77L72,120.109L81,120.209L90,119.246L99,118.688L108,119.736L117,119.584L126,119.345L135,119.301L144,119.667L153,118.64L162,119.314L171,118.934L180,118.083" stroke="#f462a3" stroke-width="2"/></g></g><path class="foreground" aria-hidden="true" d="" display="none"/></g><g transform="translate(0,0)"><path class="background" aria-hidden="true" d="M0,0h180v135h-180Z"/><g><g class="mark-line role-mark layer_0_marks" role="graphics-object" aria-roledescription="line mark container"><path aria-label="n: 20; μ: 2.422061751; model: 2 complexes" role="graphics-symbol" aria-roledescription="line mark" d="M9,117.712L18,114.18L27,114.03L36,113.375L45,115.692L54,115.243L63,115.266L72,115.206L81,114.927L90,114.862L99,114.269L108,115.04L117,115.237L126,114.044L135,114.184L144,113.377L153,113.495L162,113.567L171,113.37L180,112.721" stroke="#bb61a5" stroke-width="2"/></g></g><path class="foreground" aria-hidden="true" d="" display="none"/></g><g transform="translate(0,0)"><path class="background" aria-hidden="true" d="M0,0h180v135h-180Z"/><g><g class="mark-line role-mark layer_0_marks" role="graphics-object" aria-roledescription="line mark container"><path aria-label="n: 20; μ: 4.012022201; model: 5 complexes" role="graphics-symbol" aria-roledescription="line mark" d="M9,107.849L18,106.441L27,104.939L36,104.887L45,104.846L54,104.38L63,103.269L72,103.366L81,101.623L90,100.929L99,101.994L108,101.839L117,103.416L126,103.774L135,101.996L144,102.438L153,103.569L162,103.485L171,102.916L180,103.519" stroke="#7d5da7" stroke-width="2"/></g></g><path class="foreground" aria-hidden="true" d="" display="none"/></g></g><g class="mark-group role-legend" role="graphics-symbol" aria-roledescription="legend" aria-label="Symbol legend for stroke color with 4 values: 1 complex, 2 complexes, 5 complexes, Full model"><g transform="translate(200,0)"><path class="background" aria-hidden="true" d="M0,0h73v50h-73Z" pointer-events="none"/><g><g class="mark-group role-legend-entry"><g transform="translate(0,0)"><path class="background" aria-hidden="true" d="M0,0h0v0h0Z" pointer-events="none"/><g><g class="mark-group role-scope" role="graphics-object" aria-roledescription="group mark container"><g transform="translate(0,0)"><path class="background" aria-hidden="true" d="M0,0h72.1376953125v11h-72.1376953125Z" pointer-events="none" opacity="1"/><g><g class="mark-symbol role-legend-symbol" pointer-events="none"><path transform="translate(6,6)" d="M-5,0L5,0" stroke="#f462a3" stroke-width="1.5" opacity="1"/></g><g class="mark-text role-legend-label" pointer-events="none"><text text-anchor="start" transform="translate(16,9)" font-family="Arial" font-size="10px" fill="#000" opacity="1">1 complex</text></g></g><path class="foreground" aria-hidden="true" d="" pointer-events="none" display="none"/></g><g transform="translate(0,13)"><path class="background" aria-hidden="true" d="M0,0h72.1376953125v11h-72.1376953125Z" pointer-events="none" opacity="1"/><g><g class="mark-symbol role-legend-symbol" pointer-events="none"><path transform="translate(6,6)" d="M-5,0L5,0" stroke="#bb61a5" stroke-width="1.5" opacity="1"/></g><g class="mark-text role-legend-label" pointer-events="none"><text text-anchor="start" transform="translate(16,9)" font-family="Arial" font-size="10px" fill="#000" opacity="1">2 complexes</text></g></g><path class="foreground" aria-hidden="true" d="" pointer-events="none" display="none"/></g><g transform="translate(0,26)"><path class="background" aria-hidden="true" d="M0,0h72.1376953125v11h-72.1376953125Z" pointer-events="none" opacity="1"/><g><g class="mark-symbol role-legend-symbol" pointer-events="none"><path transform="translate(6,6)" d="M-5,0L5,0" stroke="#7d5da7" stroke-width="1.5" opacity="1"/></g><g class="mark-text role-legend-label" pointer-events="none"><text text-anchor="start" transform="translate(16,9)" font-family="Arial" font-size="10px" fill="#000" opacity="1">5 complexes</text></g></g><path class="foreground" aria-hidden="true" d="" pointer-events="none" display="none"/></g><g transform="translate(0,39)"><path class="background" aria-hidden="true" d="M0,0h72.1376953125v11h-72.1376953125Z" pointer-events="none" opacity="1"/><g><g class="mark-symbol role-legend-symbol" pointer-events="none"><path transform="translate(6,6)" d="M-5,0L5,0" stroke="#1657a8" stroke-width="1.5" opacity="1"/></g><g class="mark-text role-legend-label" pointer-events="none"><text text-anchor="start" transform="translate(16,9)" font-family="Arial" font-size="10px" fill="#000" opacity="1">Full model</text></g></g><path class="foreground" aria-hidden="true" d="" pointer-events="none" display="none"/></g></g></g><path class="foreground" aria-hidden="true" d="" pointer-events="none" display="none"/></g></g></g><path class="foreground" aria-hidden="true" d="" pointer-events="none" display="none"/></g></g></g><path class="foreground" aria-hidden="true" d="" display="none"/></g></g></g></svg>