<svg xmlns="http://www.w3.org/2000/svg" xmlns:xlink="http://www.w3.org/1999/xlink" version="1.1" class="marks" width="301" height="180" viewBox="0 0 301 180"><rect width="301" height="180" fill="white"/><g fill="none" stroke-miterlimit="10" transform="translate(39,10)"><g class="mark-group role-frame root" role="graphics-object" aria-roledescription="group mark container"><g transform="translate(0,0)"><path class="background" aria-hidden="true" d="M0.5,0.5h180v135h-180Z" stroke="black"/><g><g class="mark-group role-axis" role="graphics-symbol" aria-roledescription="axis" aria-label="X-axis titled 'Â' for a linear scale with values from 0.0 to 2.0"><g transform="translate(0.5,135.5)"><path class="background" aria-hidden="true" d="M0,0h0v0h0Z" pointer-events="none"/><g><g class="mark-rule role-axis-tick" pointer-events="none"><line transform="translate(0,0)" x2="0" y2="3" stroke="black" stroke-width="1" opacity="1"/><line transform="translate(45,0)" x2="0" y2="3" stroke="black" stroke-width="1" opacity="1"/><line transform="translate(90,0)" x2="0" y2="3" stroke="black" stroke-width="1" opacity="1"/><line transform="translate(135,0)" x2="0" y2="3" stroke="black" stroke-width="1" opacity="1"/><line transform="translate(180,0)" x2="0" y2="3" stroke="black" stroke-width="1" opacity="1"/></g><g class="mark-text role-axis-label" pointer-events="none"><text text-anchor="start" transform="translate(0,13)" font-family="Arial" font-size="10px" fill="#000" opacity="1">0.0</text><text text-anchor="middle" transform="translate(45,13)" font-family="Arial" font-size="10px" fill="#000" opacity="1">0.5</text><text text-anchor="middle" transform="translate(90,13)" font-family="Arial" font-size="10px" fill="#000" opacity="1">1.0</text><text text-anchor="middle" transform="translate(135,13)" font-family="Arial" font-size="10px" fill="#000" opacity="1">1.5</text><text text-anchor="end" transform="translate(180,13)" font-family="Arial" font-size="10px" fill="#000" opacity="1">2.0</text></g><g class="mark-rule role-axis-domain" pointer-events="none"><line transform="translate(0,0)" x2="180" y2="0" stroke="black" stroke-width="1" opacity="1"/></g><g class="mark-text role-axis-title" pointer-events="none"><text text-anchor="middle" transform="translate(90,28)" font-family="Arial" font-size="11px" font-weight="normal" fill="#000" opacity="1">Â</text></g></g><path class="foreground" aria-hidden="true" d="" pointer-events="none" display="none"/></g></g><g class="mark-group role-axis" role="graphics-symbol" aria-roledescription="axis" aria-label="Y-axis titled 'Amount' for a linear scale with values from 0.0 to 1.0"><g transform="translate(0.5,0.5)"><path class="background" aria-hidden="true" d="M0,0h0v0h0Z" pointer-events="none"/><g><g class="mark-rule role-axis-tick" pointer-events="none"><line transform="translate(0,135)" x2="-3" y2="0" stroke="black" stroke-width="1" opacity="1"/><line transform="translate(0,108)" x2="-3" y2="0" stroke="black" stroke-width="1" opacity="1"/><line transform="translate(0,81)" x2="-3" y2="0" stroke="black" stroke-width="1" opacity="1"/><line transform="translate(0,54)" x2="-3" y2="0" stroke="black" stroke-width="1" opacity="1"/><line transform="translate(0,27)" x2="-3" y2="0" stroke="black" stroke-width="1" opacity="1"/><line transform="translate(0,0)" x2="-3" y2="0" stroke="black" stroke-width="1" opacity="1"/></g><g class="mark-text role-axis-label" pointer-events="none"><text text-anchor="end" transform="translate(-5,138)" font-family="Arial" font-size="10px" fill="#000" opacity="1">0.0</text><text text-anchor="end" transform="translate(-5,111)" font-family="Arial" font-size="10px" fill="#000" opacity="1">0.2</text><text text-anchor="end" transform="translate(-5,84)" font-family="Arial" font-size="10px" fill="#000" opacity="1">0.4</text><text text-anchor="end" transform="translate(-5,57)" font-family="Arial" font-size="10px" fill="#000" opacity="1">0.6</text><text text-anchor="end" transform="translate(-5,29.999999999999993)" font-family="Arial" font-size="10px" fill="#000" opacity="1">0.8</text><text text-anchor="end" transform="translate(-5,3)" font-family="Arial" font-size="10px" fill="#000" opacity="1">1.0</text></g><g class="mark-rule role-axis-domain" pointer-events="none"><line transform="translate(0,135)" x2="0" y2="-135" stroke="black" stroke-width="1" opacity="1"/></g><g class="mark-text role-axis-title" pointer-events="none"><text text-anchor="middle" transform="translate(-22.9013671875,67.5) rotate(-90) translate(0,-2)" font-family="Arial" font-size="11px" font-weight="normal" fill="#000" opacity="1">Amount</text></g></g><path class="foreground" aria-hidden="true" d="" pointer-events="none" display="none"/></g></g><g class="mark-group role-scope layer_0_pathgroup" role="graphics-object" aria-roledescription="group mark container"><g transform="translate(0,0)"><path class="background" aria-hidden="true" d="M0,0h180v135h-180Z"/><g><g class="mark-line role-mark layer_0_marks" role="graphics-object" aria-roledescription="line mark container"><path aria-label="A: 0.01; c: 0.108999999913; model: Full; index: 1" role="graphics-symbol" aria-roledescription="line mark" d="M0.9,120.285L1.8,119.07L2.7,117.855L3.6,116.64L4.5,115.425L5.4,114.21L6.3,112.995L7.2,111.78L8.1,110.566L9,109.351L9.9,108.137L10.8,106.923L11.7,105.709L12.6,104.496L13.5,103.283L14.4,102.071L15.3,100.859L16.2,99.649L17.1,98.439L18,97.231L18.9,96.024L19.8,94.819L20.7,93.615L21.6,92.414L22.5,91.214L23.4,90.017L24.3,88.822L25.2,87.631L26.1,86.442L27,85.257L27.9,84.076L28.8,82.898L29.7,81.725L30.6,80.556L31.5,79.392L32.4,78.233L33.3,77.079L34.2,75.932L35.1,74.79L36,73.654L36.9,72.525L37.8,71.403L38.7,70.288L39.6,69.181L40.5,68.081L41.4,66.99L42.3,65.907L43.2,64.832L44.1,63.766L45,62.71L45.9,61.663L46.8,60.625L47.7,59.597L48.6,58.58L49.5,57.573L50.4,56.576L51.3,55.59L52.2,54.615L53.1,53.651L54,52.698L54.9,51.756L55.8,50.826L56.7,49.908L57.6,49.001L58.5,48.107L59.4,47.224L60.3,46.353L61.2,45.495L62.1,44.648L63,43.814L63.9,42.992L64.8,42.182L65.7,41.384L66.6,40.599L67.5,39.826L68.4,39.065L69.3,38.316L70.2,37.58L71.1,36.856L72,36.144L72.9,35.443L73.8,34.755L74.7,34.079L75.6,33.414L76.5,32.761L77.4,32.12L78.3,31.491L79.2,30.872L80.1,30.265L81,29.67L81.9,29.085L82.8,28.511L83.7,27.948L84.6,27.396L85.5,26.855L86.4,26.323L87.3,25.802L88.2,25.292L89.1,24.791L90,24.3L90.9,23.819L91.8,23.347L92.7,22.885L93.6,22.432L94.5,21.988L95.4,21.554L96.3,21.128L97.2,20.71L98.1,20.302L99,19.901L99.9,19.509L100.8,19.125L101.7,18.749L102.6,18.381L103.5,18.02L104.4,17.667L105.3,17.322L106.2,16.983L107.1,16.652L108,16.327L108.9,16.009L109.8,15.699L110.7,15.394L111.6,15.096L112.5,14.804L113.4,14.519L114.3,14.239L115.2,13.966L116.1,13.698L117,13.436L117.9,13.179L118.8,12.928L119.7,12.682L120.6,12.441L121.5,12.206L122.4,11.975L123.3,11.749L124.2,11.528L125.1,11.312L126,11.1L126.9,10.893L127.8,10.69L128.7,10.492L129.6,10.297L130.5,10.107L131.4,9.92L132.3,9.738L133.2,9.559L134.1,9.384L135,9.213L135.9,9.046L136.8,8.881L137.7,8.721L138.6,8.563L139.5,8.409L140.4,8.258L141.3,8.111L142.2,7.966L143.1,7.824L144,7.685L144.9,7.549L145.8,7.416L146.7,7.286L147.6,7.158L148.5,7.033L149.4,6.91L150.3,6.79L151.2,6.672L152.1,6.557L153,6.444L153.9,6.333L154.8,6.225L155.7,6.118L156.6,6.014L157.5,5.912L158.4,5.812L159.3,5.714L160.2,5.618L161.1,5.524L162,5.431L162.9,5.341L163.8,5.252L164.7,5.165L165.6,5.08L166.5,4.996L167.4,4.914L168.3,4.834L169.2,4.755L170.1,4.678L171,4.602L171.9,4.528L172.8,4.455L173.7,4.383L174.6,4.313L175.5,4.244L176.4,4.177L177.3,4.111L178.2,4.046L179.1,3.982L180,3.919" stroke="#1657a8" stroke-width="2" stroke-dasharray="4,0"/></g></g><path class="foreground" aria-hidden="true" d="" display="none"/></g><g transform="translate(0,0)"><path class="background" aria-hidden="true" d="M0,0h180v135h-180Z"/><g><g class="mark-line role-mark layer_0_marks" role="graphics-object" aria-roledescription="line mark container"><path aria-label="A: 0.01; c: 0.10008999991; model: Full; index: 2" role="graphics-symbol" aria-roledescription="line mark" d="M0.9,121.488L1.8,121.451L2.7,121.391L3.6,121.306L4.5,121.196L5.4,121.063L6.3,120.905L7.2,120.723L8.1,120.517L9,120.286L9.9,120.032L10.8,119.753L11.7,119.451L12.6,119.125L13.5,118.775L14.4,118.402L15.3,118.005L16.2,117.586L17.1,117.143L18,116.677L18.9,116.189L19.8,115.679L20.7,115.147L21.6,114.593L22.5,114.018L23.4,113.421L24.3,112.805L25.2,112.167L26.1,111.511L27,110.834L27.9,110.139L28.8,109.426L29.7,108.694L30.6,107.945L31.5,107.179L32.4,106.397L33.3,105.599L34.2,104.786L35.1,103.958L36,103.116L36.9,102.261L37.8,101.393L38.7,100.512L39.6,99.621L40.5,98.718L41.4,97.805L42.3,96.883L43.2,95.951L44.1,95.012L45,94.065L45.9,93.11L46.8,92.15L47.7,91.184L48.6,90.213L49.5,89.237L50.4,88.258L51.3,87.276L52.2,86.291L53.1,85.304L54,84.316L54.9,83.328L55.8,82.339L56.7,81.35L57.6,80.362L58.5,79.376L59.4,78.392L60.3,77.41L61.2,76.431L62.1,75.455L63,74.483L63.9,73.516L64.8,72.553L65.7,71.595L66.6,70.642L67.5,69.695L68.4,68.754L69.3,67.82L70.2,66.892L71.1,65.972L72,65.058L72.9,64.152L73.8,63.254L74.7,62.364L75.6,61.482L76.5,60.609L77.4,59.744L78.3,58.887L79.2,58.04L80.1,57.202L81,56.372L81.9,55.552L82.8,54.742L83.7,53.94L84.6,53.148L85.5,52.366L86.4,51.594L87.3,50.831L88.2,50.077L89.1,49.334L90,48.6L90.9,47.876L91.8,47.161L92.7,46.457L93.6,45.762L94.5,45.076L95.4,44.401L96.3,43.734L97.2,43.078L98.1,42.431L99,41.793L99.9,41.165L100.8,40.546L101.7,39.936L102.6,39.335L103.5,38.744L104.4,38.161L105.3,37.588L106.2,37.023L107.1,36.467L108,35.92L108.9,35.381L109.8,34.851L110.7,34.329L111.6,33.815L112.5,33.31L113.4,32.813L114.3,32.323L115.2,31.842L116.1,31.368L117,30.902L117.9,30.444L118.8,29.993L119.7,29.549L120.6,29.113L121.5,28.683L122.4,28.261L123.3,27.846L124.2,27.438L125.1,27.036L126,26.641L126.9,26.252L127.8,25.87L128.7,25.495L129.6,25.125L130.5,24.762L131.4,24.404L132.3,24.053L133.2,23.707L134.1,23.367L135,23.033L135.9,22.705L136.8,22.381L137.7,22.063L138.6,21.751L139.5,21.444L140.4,21.141L141.3,20.844L142.2,20.552L143.1,20.264L144,19.982L144.9,19.703L145.8,19.43L146.7,19.161L147.6,18.897L148.5,18.636L149.4,18.381L150.3,18.129L151.2,17.881L152.1,17.638L153,17.398L153.9,17.163L154.8,16.931L155.7,16.703L156.6,16.479L157.5,16.259L158.4,16.042L159.3,15.828L160.2,15.618L161.1,15.411L162,15.208L162.9,15.008L163.8,14.811L164.7,14.618L165.6,14.427L166.5,14.24L167.4,14.055L168.3,13.874L169.2,13.695L170.1,13.519L171,13.346L171.9,13.176L172.8,13.008L173.7,12.843L174.6,12.681L175.5,12.521L176.4,12.363L177.3,12.209L178.2,12.056L179.1,11.906L180,11.758" stroke="#1657a8" stroke-width="2" stroke-dasharray="4,0"/></g></g><path class="foreground" aria-hidden="true" d="" display="none"/></g><g transform="translate(0,0)"><path class="background" aria-hidden="true" d="M0,0h180v135h-180Z"/><g><g class="mark-line role-mark layer_0_marks" role="graphics-object" aria-roledescription="line mark container"><path aria-label="A: 0.01; c: 0.10000089991; model: Full; index: 3" role="graphics-symbol" aria-roledescription="line mark" d="M0.9,121.5L1.8,121.499L2.7,121.497L3.6,121.492L4.5,121.485L5.4,121.474L6.3,121.459L7.2,121.438L8.1,121.412L9,121.38L9.9,121.34L10.8,121.293L11.7,121.238L12.6,121.173L13.5,121.099L14.4,121.015L15.3,120.92L16.2,120.814L17.1,120.697L18,120.567L18.9,120.424L19.8,120.268L20.7,120.099L21.6,119.916L22.5,119.718L23.4,119.507L24.3,119.28L25.2,119.038L26.1,118.78L27,118.507L27.9,118.219L28.8,117.914L29.7,117.594L30.6,117.257L31.5,116.905L32.4,116.536L33.3,116.151L34.2,115.75L35.1,115.333L36,114.901L36.9,114.452L37.8,113.988L38.7,113.509L39.6,113.014L40.5,112.504L41.4,111.98L42.3,111.441L43.2,110.889L44.1,110.322L45,109.742L45.9,109.149L46.8,108.543L47.7,107.925L48.6,107.295L49.5,106.653L50.4,106L51.3,105.337L52.2,104.664L53.1,103.98L54,103.288L54.9,102.586L55.8,101.876L56.7,101.159L57.6,100.433L58.5,99.701L59.4,98.963L60.3,98.218L61.2,97.468L62.1,96.712L63,95.952L63.9,95.188L64.8,94.42L65.7,93.648L66.6,92.874L67.5,92.097L68.4,91.318L69.3,90.538L70.2,89.756L71.1,88.973L72,88.19L72.9,87.407L73.8,86.624L74.7,85.841L75.6,85.059L76.5,84.279L77.4,83.5L78.3,82.723L79.2,81.947L80.1,81.175L81,80.405L81.9,79.637L82.8,78.873L83.7,78.113L84.6,77.356L85.5,76.602L86.4,75.853L87.3,75.108L88.2,74.368L89.1,73.631L90,72.9L90.9,72.173L91.8,71.452L92.7,70.735L93.6,70.024L94.5,69.319L95.4,68.618L96.3,67.924L97.2,67.234L98.1,66.551L99,65.874L99.9,65.202L100.8,64.536L101.7,63.877L102.6,63.223L103.5,62.576L104.4,61.934L105.3,61.299L106.2,60.67L107.1,60.047L108,59.431L108.9,58.82L109.8,58.216L110.7,57.619L111.6,57.027L112.5,56.442L113.4,55.863L114.3,55.29L115.2,54.723L116.1,54.163L117,53.608L117.9,53.06L118.8,52.518L119.7,51.982L120.6,51.452L121.5,50.928L122.4,50.41L123.3,49.898L124.2,49.392L125.1,48.892L126,48.398L126.9,47.909L127.8,47.426L128.7,46.949L129.6,46.477L130.5,46.011L131.4,45.551L132.3,45.096L133.2,44.646L134.1,44.202L135,43.763L135.9,43.329L136.8,42.901L137.7,42.478L138.6,42.06L139.5,41.647L140.4,41.239L141.3,40.836L142.2,40.438L143.1,40.044L144,39.656L144.9,39.272L145.8,38.893L146.7,38.518L147.6,38.148L148.5,37.783L149.4,37.422L150.3,37.065L151.2,36.713L152.1,36.365L153,36.021L153.9,35.682L154.8,35.346L155.7,35.015L156.6,34.688L157.5,34.365L158.4,34.045L159.3,33.73L160.2,33.418L161.1,33.11L162,32.806L162.9,32.506L163.8,32.209L164.7,31.916L165.6,31.626L166.5,31.34L167.4,31.057L168.3,30.778L169.2,30.502L170.1,30.229L171,29.96L171.9,29.693L172.8,29.43L173.7,29.17L174.6,28.914L175.5,28.66L176.4,28.409L177.3,28.161L178.2,27.917L179.1,27.675L180,27.435" stroke="#1657a8" stroke-width="2" stroke-dasharray="4,0"/></g></g><path class="foreground" aria-hidden="true" d="" display="none"/></g><g transform="translate(0,0)"><path class="background" aria-hidden="true" d="M0,0h180v135h-180Z"/><g><g class="mark-line role-mark layer_0_marks" role="graphics-object" aria-roledescription="line mark container"><path aria-label="A: 0.01; c: 0.10000000891; model: Full; index: 4" role="graphics-symbol" aria-roledescription="line mark" d="M0.9,121.5L1.8,121.5L2.7,121.5L3.6,121.5L4.5,121.499L5.4,121.499L6.3,121.497L7.2,121.495L8.1,121.493L9,121.489L9.9,121.484L10.8,121.478L11.7,121.47L12.6,121.46L13.5,121.448L14.4,121.433L15.3,121.416L16.2,121.395L17.1,121.372L18,121.344L18.9,121.313L19.8,121.278L20.7,121.238L21.6,121.193L22.5,121.144L23.4,121.089L24.3,121.028L25.2,120.961L26.1,120.889L27,120.809L27.9,120.724L28.8,120.631L29.7,120.531L30.6,120.424L31.5,120.309L32.4,120.186L33.3,120.055L34.2,119.917L35.1,119.77L36,119.614L36.9,119.451L37.8,119.278L38.7,119.097L39.6,118.907L40.5,118.708L41.4,118.501L42.3,118.284L43.2,118.058L44.1,117.824L45,117.581L45.9,117.328L46.8,117.067L47.7,116.797L48.6,116.519L49.5,116.232L50.4,115.936L51.3,115.632L52.2,115.32L53.1,114.999L54,114.67L54.9,114.334L55.8,113.99L56.7,113.638L57.6,113.279L58.5,112.913L59.4,112.539L60.3,112.159L61.2,111.773L62.1,111.38L63,110.98L63.9,110.575L64.8,110.164L65.7,109.748L66.6,109.326L67.5,108.899L68.4,108.467L69.3,108.031L70.2,107.59L71.1,107.145L72,106.696L72.9,106.243L73.8,105.786L74.7,105.327L75.6,104.864L76.5,104.398L77.4,103.93L78.3,103.459L79.2,102.986L80.1,102.511L81,102.034L81.9,101.555L82.8,101.075L83.7,100.593L84.6,100.111L85.5,99.627L86.4,99.142L87.3,98.657L88.2,98.172L89.1,97.686L90,97.2L90.9,96.714L91.8,96.228L92.7,95.743L93.6,95.258L94.5,94.773L95.4,94.289L96.3,93.806L97.2,93.324L98.1,92.842L99,92.362L99.9,91.884L100.8,91.406L101.7,90.93L102.6,90.455L103.5,89.982L104.4,89.511L105.3,89.041L106.2,88.574L107.1,88.108L108,87.644L108.9,87.182L109.8,86.723L110.7,86.265L111.6,85.81L112.5,85.356L113.4,84.906L114.3,84.457L115.2,84.011L116.1,83.568L117,83.126L117.9,82.688L118.8,82.252L119.7,81.818L120.6,81.387L121.5,80.959L122.4,80.533L123.3,80.11L124.2,79.69L125.1,79.272L126,78.857L126.9,78.445L127.8,78.035L128.7,77.628L129.6,77.224L130.5,76.823L131.4,76.424L132.3,76.029L133.2,75.636L134.1,75.245L135,74.858L135.9,74.473L136.8,74.091L137.7,73.712L138.6,73.335L139.5,72.962L140.4,72.591L141.3,72.223L142.2,71.857L143.1,71.494L144,71.134L144.9,70.777L145.8,70.422L146.7,70.07L147.6,69.721L148.5,69.374L149.4,69.03L150.3,68.689L151.2,68.35L152.1,68.014L153,67.68L153.9,67.349L154.8,67.021L155.7,66.695L156.6,66.371L157.5,66.05L158.4,65.732L159.3,65.416L160.2,65.102L161.1,64.791L162,64.483L162.9,64.176L163.8,63.872L164.7,63.571L165.6,63.272L166.5,62.975L167.4,62.68L168.3,62.388L169.2,62.098L170.1,61.811L171,61.525L171.9,61.242L172.8,60.961L173.7,60.682L174.6,60.406L175.5,60.131L176.4,59.859L177.3,59.589L178.2,59.32L179.1,59.054L180,58.79" stroke="#1657a8" stroke-width="2" stroke-dasharray="4,0"/></g></g><path class="foreground" aria-hidden="true" d="" display="none"/></g><g transform="translate(0,0)"><path class="background" aria-hidden="true" d="M0,0h180v135h-180Z"/><g><g class="mark-line role-mark layer_0_marks" role="graphics-object" aria-roledescription="line mark container"><path aria-label="A: 0.01; c: 0.108999999911; model: Reduced; index: 1" role="graphics-symbol" aria-roledescription="line mark" d="M0.9,120.285L1.8,119.07L2.7,117.855L3.6,116.64L4.5,115.425L5.4,114.21L6.3,112.995L7.2,111.78L8.1,110.566L9,109.351L9.9,108.137L10.8,106.923L11.7,105.709L12.6,104.496L13.5,103.283L14.4,102.071L15.3,100.859L16.2,99.649L17.1,98.439L18,97.231L18.9,96.024L19.8,94.819L20.7,93.615L21.6,92.414L22.5,91.214L23.4,90.017L24.3,88.822L25.2,87.631L26.1,86.442L27,85.257L27.9,84.076L28.8,82.898L29.7,81.725L30.6,80.556L31.5,79.392L32.4,78.233L33.3,77.079L34.2,75.932L35.1,74.79L36,73.654L36.9,72.525L37.8,71.403L38.7,70.288L39.6,69.181L40.5,68.081L41.4,66.99L42.3,65.907L43.2,64.832L44.1,63.766L45,62.71L45.9,61.663L46.8,60.625L47.7,59.597L48.6,58.58L49.5,57.573L50.4,56.576L51.3,55.59L52.2,54.615L53.1,53.651L54,52.698L54.9,51.756L55.8,50.826L56.7,49.908L57.6,49.001L58.5,48.107L59.4,47.224L60.3,46.353L61.2,45.495L62.1,44.648L63,43.814L63.9,42.992L64.8,42.182L65.7,41.384L66.6,40.599L67.5,39.826L68.4,39.065L69.3,38.316L70.2,37.58L71.1,36.856L72,36.144L72.9,35.443L73.8,34.755L74.7,34.079L75.6,33.414L76.5,32.761L77.4,32.12L78.3,31.491L79.2,30.872L80.1,30.265L81,29.67L81.9,29.085L82.8,28.511L83.7,27.948L84.6,27.396L85.5,26.855L86.4,26.323L87.3,25.802L88.2,25.292L89.1,24.791M90.9,23.819L91.8,23.347L92.7,22.885L93.6,22.432L94.5,21.988L95.4,21.554L96.3,21.128L97.2,20.71L98.1,20.302L99,19.901L99.9,19.509L100.8,19.125L101.7,18.749L102.6,18.381L103.5,18.02L104.4,17.667L105.3,17.322L106.2,16.983L107.1,16.652L108,16.327L108.9,16.009L109.8,15.699L110.7,15.394L111.6,15.096L112.5,14.804L113.4,14.519L114.3,14.239L115.2,13.966L116.1,13.698L117,13.436L117.9,13.179L118.8,12.928L119.7,12.682L120.6,12.441L121.5,12.206L122.4,11.975L123.3,11.749L124.2,11.528L125.1,11.312L126,11.1L126.9,10.893L127.8,10.69L128.7,10.492L129.6,10.297L130.5,10.107L131.4,9.92L132.3,9.738L133.2,9.559L134.1,9.384L135,9.213L135.9,9.046L136.8,8.881L137.7,8.721L138.6,8.563L139.5,8.409L140.4,8.258L141.3,8.111L142.2,7.966L143.1,7.824L144,7.685L144.9,7.549L145.8,7.416L146.7,7.286L147.6,7.158L148.5,7.033L149.4,6.91L150.3,6.79L151.2,6.672L152.1,6.557L153,6.444L153.9,6.333L154.8,6.225L155.7,6.118L156.6,6.014L157.5,5.912L158.4,5.812L159.3,5.714L160.2,5.618L161.1,5.524L162,5.431L162.9,5.341L163.8,5.252L164.7,5.165L165.6,5.08L166.5,4.996L167.4,4.914L168.3,4.834L169.2,4.755L170.1,4.678L171,4.602L171.9,4.528L172.8,4.455L173.7,4.383L174.6,4.313L175.5,4.244L176.4,4.177L177.3,4.111L178.2,4.046L179.1,3.982L180,3.919" stroke="#f462a3" stroke-width="2" stroke-dasharray="4,4"/></g></g><path class="foreground" aria-hidden="true" d="" display="none"/></g><g transform="translate(0,0)"><path class="background" aria-hidden="true" d="M0,0h180v135h-180Z"/><g><g class="mark-line role-mark layer_0_marks" role="graphics-object" aria-roledescription="line mark container"><path aria-label="A: 0.01; c: 0.10008999991; model: Reduced; index: 2" role="graphics-symbol" aria-roledescription="line mark" d="M0.9,121.488L1.8,121.451L2.7,121.391L3.6,121.306L4.5,121.196L5.4,121.063L6.3,120.905L7.2,120.723L8.1,120.517L9,120.286L9.9,120.032L10.8,119.753L11.7,119.451L12.6,119.125L13.5,118.775L14.4,118.402L15.3,118.005L16.2,117.586L17.1,117.143L18,116.677L18.9,116.189L19.8,115.679L20.7,115.147L21.6,114.593L22.5,114.018L23.4,113.421L24.3,112.805L25.2,112.167L26.1,111.511L27,110.834L27.9,110.139L28.8,109.426L29.7,108.694L30.6,107.945L31.5,107.179L32.4,106.397L33.3,105.599L34.2,104.786L35.1,103.958L36,103.116L36.9,102.261L37.8,101.393L38.7,100.512L39.6,99.621L40.5,98.718L41.4,97.805L42.3,96.883L43.2,95.951L44.1,95.012L45,94.065L45.9,93.11L46.8,92.15L47.7,91.184L48.6,90.213L49.5,89.237L50.4,88.258L51.3,87.276L52.2,86.291L53.1,85.304L54,84.316L54.9,83.328L55.8,82.339L56.7,81.35L57.6,80.362L58.5,79.376L59.4,78.392L60.3,77.41L61.2,76.431L62.1,75.455L63,74.483L63.9,73.516L64.8,72.553L65.7,71.595L66.6,70.642L67.5,69.695L68.4,68.754L69.3,67.82L70.2,66.892L71.1,65.972L72,65.058L72.9,64.152L73.8,63.254L74.7,62.364L75.6,61.482L76.5,60.609L77.4,59.744L78.3,58.887L79.2,58.04L80.1,57.202L81,56.372L81.9,55.552L82.8,54.742L83.7,53.94L84.6,53.148L85.5,52.366L86.4,51.594L87.3,50.831L88.2,50.077L89.1,49.334M90.9,47.876L91.8,47.161L92.7,46.457L93.6,45.762L94.5,45.076L95.4,44.401L96.3,43.734L97.2,43.078L98.1,42.431L99,41.793L99.9,41.165L100.8,40.546L101.7,39.936L102.6,39.335L103.5,38.744L104.4,38.161L105.3,37.588L106.2,37.023L107.1,36.467L108,35.92L108.9,35.381L109.8,34.851L110.7,34.329L111.6,33.815L112.5,33.31L113.4,32.813L114.3,32.323L115.2,31.842L116.1,31.368L117,30.902L117.9,30.444L118.8,29.993L119.7,29.549L120.6,29.113L121.5,28.683L122.4,28.261L123.3,27.846L124.2,27.438L125.1,27.036L126,26.641L126.9,26.252L127.8,25.87L128.7,25.495L129.6,25.125L130.5,24.762L131.4,24.404L132.3,24.053L133.2,23.707L134.1,23.367L135,23.033L135.9,22.705L136.8,22.381L137.7,22.063L138.6,21.751L139.5,21.444L140.4,21.141L141.3,20.844L142.2,20.552L143.1,20.264L144,19.982L144.9,19.703L145.8,19.43L146.7,19.161L147.6,18.897L148.5,18.636L149.4,18.381L150.3,18.129L151.2,17.881L152.1,17.638L153,17.398L153.9,17.163L154.8,16.931L155.7,16.703L156.6,16.479L157.5,16.259L158.4,16.042L159.3,15.828L160.2,15.618L161.1,15.411L162,15.208L162.9,15.008L163.8,14.811L164.7,14.618L165.6,14.427L166.5,14.24L167.4,14.055L168.3,13.874L169.2,13.695L170.1,13.519L171,13.346L171.9,13.176L172.8,13.008L173.7,12.843L174.6,12.681L175.5,12.521L176.4,12.363L177.3,12.209L178.2,12.056L179.1,11.906L180,11.758" stroke="#f462a3" stroke-width="2" stroke-dasharray="4,4"/></g></g><path class="foreground" aria-hidden="true" d="" display="none"/></g><g transform="translate(0,0)"><path class="background" aria-hidden="true" d="M0,0h180v135h-180Z"/><g><g class="mark-line role-mark layer_0_marks" role="graphics-object" aria-roledescription="line mark container"><path aria-label="A: 0.01; c: 0.10000089991; model: Reduced; index: 3" role="graphics-symbol" aria-roledescription="line mark" d="M0.9,121.5L1.8,121.499L2.7,121.497L3.6,121.492L4.5,121.485L5.4,121.474L6.3,121.459L7.2,121.438L8.1,121.412L9,121.38L9.9,121.34L10.8,121.293L11.7,121.238L12.6,121.173L13.5,121.099L14.4,121.015L15.3,120.92L16.2,120.814L17.1,120.697L18,120.567L18.9,120.424L19.8,120.268L20.7,120.099L21.6,119.916L22.5,119.718L23.4,119.507L24.3,119.28L25.2,119.038L26.1,118.78L27,118.507L27.9,118.219L28.8,117.914L29.7,117.594L30.6,117.257L31.5,116.905L32.4,116.536L33.3,116.151L34.2,115.75L35.1,115.333L36,114.901L36.9,114.452L37.8,113.988L38.7,113.509L39.6,113.014L40.5,112.504L41.4,111.98L42.3,111.441L43.2,110.889L44.1,110.322L45,109.742L45.9,109.149L46.8,108.543L47.7,107.925L48.6,107.295L49.5,106.653L50.4,106L51.3,105.337L52.2,104.664L53.1,103.98L54,103.288L54.9,102.586L55.8,101.876L56.7,101.159L57.6,100.433L58.5,99.701L59.4,98.963L60.3,98.218L61.2,97.468L62.1,96.712L63,95.952L63.9,95.188L64.8,94.42L65.7,93.648L66.6,92.874L67.5,92.097L68.4,91.318L69.3,90.538L70.2,89.756L71.1,88.973L72,88.19L72.9,87.407L73.8,86.624L74.7,85.841L75.6,85.059L76.5,84.279L77.4,83.5L78.3,82.723L79.2,81.947L80.1,81.175L81,80.405L81.9,79.637L82.8,78.873L83.7,78.113L84.6,77.356L85.5,76.602L86.4,75.853L87.3,75.108L88.2,74.368L89.1,73.631M90.9,72.173L91.8,71.452L92.7,70.735L93.6,70.024L94.5,69.319L95.4,68.618L96.3,67.924L97.2,67.234L98.1,66.551L99,65.874L99.9,65.202L100.8,64.536L101.7,63.877L102.6,63.223L103.5,62.576L104.4,61.934L105.3,61.299L106.2,60.67L107.1,60.047L108,59.431L108.9,58.82L109.8,58.216L110.7,57.619L111.6,57.027L112.5,56.442L113.4,55.863L114.3,55.29L115.2,54.723L116.1,54.163L117,53.608L117.9,53.06L118.8,52.518L119.7,51.982L120.6,51.452L121.5,50.928L122.4,50.41L123.3,49.898L124.2,49.392L125.1,48.892L126,48.398L126.9,47.909L127.8,47.426L128.7,46.949L129.6,46.477L130.5,46.011L131.4,45.551L132.3,45.096L133.2,44.646L134.1,44.202L135,43.763L135.9,43.329L136.8,42.901L137.7,42.478L138.6,42.06L139.5,41.647L140.4,41.239L141.3,40.836L142.2,40.438L143.1,40.044L144,39.656L144.9,39.272L145.8,38.893L146.7,38.518L147.6,38.148L148.5,37.783L149.4,37.422L150.3,37.065L151.2,36.713L152.1,36.365L153,36.021L153.9,35.682L154.8,35.346L155.7,35.015L156.6,34.688L157.5,34.365L158.4,34.045L159.3,33.73L160.2,33.418L161.1,33.11L162,32.806L162.9,32.506L163.8,32.209L164.7,31.916L165.6,31.626L166.5,31.34L167.4,31.057L168.3,30.778L169.2,30.502L170.1,30.229L171,29.96L171.9,29.693L172.8,29.43L173.7,29.17L174.6,28.914L175.5,28.66L176.4,28.409L177.3,28.161L178.2,27.917L179.1,27.675L180,27.435" stroke="#f462a3" stroke-width="2" stroke-dasharray="4,4"/></g></g><path class="foreground" aria-hidden="true" d="" display="none"/></g><g transform="translate(0,0)"><path class="background" aria-hidden="true" d="M0,0h180v135h-180Z"/><g><g class="mark-line role-mark layer_0_marks" role="graphics-object" aria-roledescription="line mark container"><path aria-label="A: 0.01; c: 0.10000000891; model: Reduced; index: 4" role="graphics-symbol" aria-roledescription="line mark" d="M0.9,121.5L1.8,121.5L2.7,121.5L3.6,121.5L4.5,121.499L5.4,121.499L6.3,121.497L7.2,121.495L8.1,121.493L9,121.489L9.9,121.484L10.8,121.478L11.7,121.47L12.6,121.46L13.5,121.448L14.4,121.433L15.3,121.416L16.2,121.395L17.1,121.372L18,121.344L18.9,121.313L19.8,121.278L20.7,121.238L21.6,121.193L22.5,121.144L23.4,121.089L24.3,121.028L25.2,120.961L26.1,120.889L27,120.809L27.9,120.724L28.8,120.631L29.7,120.531L30.6,120.424L31.5,120.309L32.4,120.186L33.3,120.055L34.2,119.917L35.1,119.77L36,119.614L36.9,119.451L37.8,119.278L38.7,119.097L39.6,118.907L40.5,118.708L41.4,118.501L42.3,118.284L43.2,118.058L44.1,117.824L45,117.581L45.9,117.328L46.8,117.067L47.7,116.797L48.6,116.519L49.5,116.232L50.4,115.936L51.3,115.632L52.2,115.32L53.1,114.999L54,114.67L54.9,114.334L55.8,113.99L56.7,113.638L57.6,113.279L58.5,112.913L59.4,112.539L60.3,112.159L61.2,111.773L62.1,111.38L63,110.98L63.9,110.575L64.8,110.164L65.7,109.748L66.6,109.326L67.5,108.899L68.4,108.467L69.3,108.031L70.2,107.59L71.1,107.145L72,106.696L72.9,106.243L73.8,105.786L74.7,105.327L75.6,104.864L76.5,104.398L77.4,103.93L78.3,103.459L79.2,102.986L80.1,102.511L81,102.034L81.9,101.555L82.8,101.075L83.7,100.593L84.6,100.11L85.5,99.627L86.4,99.142L87.3,98.657L88.2,98.172L89.1,97.686M90.9,96.714L91.8,96.228L92.7,95.743L93.6,95.258L94.5,94.773L95.4,94.289L96.3,93.806L97.2,93.324L98.1,92.842L99,92.362L99.9,91.884L100.8,91.406L101.7,90.93L102.6,90.455L103.5,89.982L104.4,89.511L105.3,89.041L106.2,88.574L107.1,88.108L108,87.644L108.9,87.182L109.8,86.723L110.7,86.265L111.6,85.81L112.5,85.356L113.4,84.906L114.3,84.457L115.2,84.011L116.1,83.568L117,83.126L117.9,82.688L118.8,82.252L119.7,81.818L120.6,81.387L121.5,80.959L122.4,80.533L123.3,80.11L124.2,79.69L125.1,79.272L126,78.857L126.9,78.445L127.8,78.035L128.7,77.628L129.6,77.224L130.5,76.823L131.4,76.424L132.3,76.029L133.2,75.636L134.1,75.245L135,74.858L135.9,74.473L136.8,74.091L137.7,73.712L138.6,73.335L139.5,72.962L140.4,72.591L141.3,72.223L142.2,71.857L143.1,71.494L144,71.134L144.9,70.777L145.8,70.422L146.7,70.07L147.6,69.721L148.5,69.374L149.4,69.03L150.3,68.689L151.2,68.35L152.1,68.014L153,67.68L153.9,67.349L154.8,67.021L155.7,66.695L156.6,66.371L157.5,66.05L158.4,65.732L159.3,65.416L160.2,65.102L161.1,64.791L162,64.483L162.9,64.176L163.8,63.872L164.7,63.571L165.6,63.272L166.5,62.975L167.4,62.68L168.3,62.388L169.2,62.098L170.1,61.811L171,61.525L171.9,61.242L172.8,60.961L173.7,60.682L174.6,60.406L175.5,60.131L176.4,59.859L177.3,59.589L178.2,59.32L179.1,59.054L180,58.79" stroke="#f462a3" stroke-width="2" stroke-dasharray="4,4"/></g></g><path class="foreground" aria-hidden="true" d="" display="none"/></g></g><g class="mark-group role-legend" role="graphics-symbol" aria-roledescription="legend" aria-label="Symbol legend for stroke color and strokeDash with 2 values: Full, Reduced"><g transform="translate(200,0)"><path class="background" aria-hidden="true" d="M0,0h57v24h-57Z" pointer-events="none"/><g><g class="mark-group role-legend-entry"><g transform="translate(0,0)"><path class="background" aria-hidden="true" d="M0,0h0v0h0Z" pointer-events="none"/><g><g class="mark-group role-scope" role="graphics-object" aria-roledescription="group mark container"><g transform="translate(0,0)"><path class="background" aria-hidden="true" d="M0,0h56.029296875v11h-56.029296875Z" pointer-events="none" opacity="1"/><g><g class="mark-symbol role-legend-symbol" pointer-events="none"><path transform="translate(6,6)" d="M-5,0L5,0" stroke="#1657a8" stroke-width="1.5" stroke-dasharray="4,0" opacity="1"/></g><g class="mark-text role-legend-label" pointer-events="none"><text text-anchor="start" transform="translate(16,9)" font-family="Arial" font-size="10px" fill="#000" opacity="1">Full</text></g></g><path class="foreground" aria-hidden="true" d="" pointer-events="none" display="none"/></g><g transform="translate(0,13)"><path class="background" aria-hidden="true" d="M0,0h56.029296875v11h-56.029296875Z" pointer-events="none" opacity="1"/><g><g class="mark-symbol role-legend-symbol" pointer-events="none"><path transform="translate(6,6)" d="M-5,0L5,0" stroke="#f462a3" stroke-width="1.5" stroke-dasharray="4,4" opacity="1"/></g><g class="mark-text role-legend-label" pointer-events="none"><text text-anchor="start" transform="translate(16,9)" font-family="Arial" font-size="10px" fill="#000" opacity="1">Reduced</text></g></g><path class="foreground" aria-hidden="true" d="" pointer-events="none" display="none"/></g></g></g><path class="foreground" aria-hidden="true" d="" pointer-events="none" display="none"/></g></g></g><path class="foreground" aria-hidden="true" d="" pointer-events="none" display="none"/></g></g></g><path class="foreground" aria-hidden="true" d="" display="none"/></g></g></g></svg>