<?xml version="1.0" encoding="utf-8"?>
<!DOCTYPE svg PUBLIC "-//W3C//DTD SVG 1.1//EN" "http://www.w3.org/Graphics/SVG/1.1/DTD/svg11.dtd">
<svg xmlns="http://www.w3.org/2000/svg" xmlns:xlink="http://www.w3.org/1999/xlink" version="1.1" class="marks" width="227" height="175" viewBox="0 0 227 175"><rect width="227" height="175" fill="white"/><g fill="none" stroke-miterlimit="10" transform="translate(40,5)"><g class="mark-group role-frame root" role="graphics-object" aria-roledescription="group mark container"><g transform="translate(0,0)"><path class="background" aria-hidden="true" d="M0.5,0.5h180v135h-180Z" stroke="black"/><g><g class="mark-group role-axis" role="graphics-symbol" aria-roledescription="axis" aria-label="X-axis titled 'Time' for a linear scale with values from 0 to 30"><g transform="translate(0.5,135.5)"><path class="background" aria-hidden="true" d="M0,0h0v0h0Z" pointer-events="none"/><g><g class="mark-rule role-axis-tick" pointer-events="none"><line transform="translate(0,0)" x2="0" y2="3" stroke="black" stroke-width="1" opacity="1"/><line transform="translate(30,0)" x2="0" y2="3" stroke="black" stroke-width="1" opacity="1"/><line transform="translate(60,0)" x2="0" y2="3" stroke="black" stroke-width="1" opacity="1"/><line transform="translate(90,0)" x2="0" y2="3" stroke="black" stroke-width="1" opacity="1"/><line transform="translate(120,0)" x2="0" y2="3" stroke="black" stroke-width="1" opacity="1"/><line transform="translate(150,0)" x2="0" y2="3" stroke="black" stroke-width="1" opacity="1"/><line transform="translate(180,0)" x2="0" y2="3" stroke="black" stroke-width="1" opacity="1"/></g><g class="mark-text role-axis-label" pointer-events="none"><text text-anchor="start" transform="translate(0,13)" font-family="Arial" font-size="10px" fill="#000" opacity="1">0</text><text text-anchor="middle" transform="translate(30,13)" font-family="Arial" font-size="10px" fill="#000" opacity="1">5</text><text text-anchor="middle" transform="translate(60,13)" font-family="Arial" font-size="10px" fill="#000" opacity="1">10</text><text text-anchor="middle" transform="translate(90,13)" font-family="Arial" font-size="10px" fill="#000" opacity="1">15</text><text text-anchor="middle" transform="translate(120,13)" font-family="Arial" font-size="10px" fill="#000" opacity="1">20</text><text text-anchor="middle" transform="translate(150,13)" font-family="Arial" font-size="10px" fill="#000" opacity="1">25</text><text text-anchor="end" transform="translate(180,13)" font-family="Arial" font-size="10px" fill="#000" opacity="1">30</text></g><g class="mark-rule role-axis-domain" pointer-events="none"><line transform="translate(0,0)" x2="180" y2="0" stroke="black" stroke-width="1" opacity="1"/></g><g class="mark-text role-axis-title" pointer-events="none"><text text-anchor="middle" transform="translate(90,28)" font-family="Arial" font-size="11px" font-weight="normal" fill="#000" opacity="1">Time</text></g></g><path class="foreground" aria-hidden="true" d="" pointer-events="none" display="none"/></g></g><g class="mark-group role-axis" role="graphics-symbol" aria-roledescription="axis" aria-label="Y-axis titled 'C(n-1)' for a linear scale with values from 0.0 to 0.9"><g transform="translate(0.5,0.5)"><path class="background" aria-hidden="true" d="M0,0h0v0h0Z" pointer-events="none"/><g><g class="mark-rule role-axis-tick" pointer-events="none"><line transform="translate(0,135)" x2="-3" y2="0" stroke="black" stroke-width="1" opacity="1"/><line transform="translate(0,105)" x2="-3" y2="0" stroke="black" stroke-width="1" opacity="1"/><line transform="translate(0,75)" x2="-3" y2="0" stroke="black" stroke-width="1" opacity="1"/><line transform="translate(0,45)" x2="-3" y2="0" stroke="black" stroke-width="1" opacity="1"/><line transform="translate(0,15)" x2="-3" y2="0" stroke="black" stroke-width="1" opacity="1"/></g><g class="mark-text role-axis-label" pointer-events="none"><text text-anchor="end" transform="translate(-5,138)" font-family="Arial" font-size="10px" fill="#000" opacity="1">0.0</text><text text-anchor="end" transform="translate(-5,108)" font-family="Arial" font-size="10px" fill="#000" opacity="1">0.2</text><text text-anchor="end" transform="translate(-5,78)" font-family="Arial" font-size="10px" fill="#000" opacity="1">0.4</text><text text-anchor="end" transform="translate(-5,48.00000000000001)" font-family="Arial" font-size="10px" fill="#000" opacity="1">0.6</text><text text-anchor="end" transform="translate(-5,17.999999999999993)" font-family="Arial" font-size="10px" fill="#000" opacity="1">0.8</text></g><g class="mark-rule role-axis-domain" pointer-events="none"><line transform="translate(0,135)" x2="0" y2="-135" stroke="black" stroke-width="1" opacity="1"/></g><g class="mark-text role-axis-title" pointer-events="none"><text text-anchor="middle" transform="translate(-24,67.5) rotate(-90) translate(0,-2)" font-family="Arial" font-size="11px" font-weight="normal" fill="#000" opacity="1">C(n-1)</text></g></g><path class="foreground" aria-hidden="true" d="" pointer-events="none" display="none"/></g></g><g class="mark-line role-mark layer_0_marks" role="graphics-object" aria-roledescription="line mark container"><path aria-label="Time: 0; C: 0" role="graphics-symbol" aria-roledescription="line mark" d="M0,135L6.323291172146855e-8,134.99999997628765L0.0006323923501264069,134.99976289784473L0.006955683522273261,134.99739510726218L0.013278974694420116,134.99503130261894L0.01960226586656697,134.9926718085931L0.03228699812141106,134.9879519786298L0.05593088306523689,134.97920194813204L0.10953999007123655,134.95958920050614L0.1631490970772362,134.94028741623598L0.21675820408323587,134.9212913512766L0.2703673110892355,134.9025956162568L0.33476957689357373,134.8805262048216L0.39917184269791195,134.85887415031712L0.46357410850225,134.83763001885058L0.5773151187314188,134.80107991742946L0.6910561289605877,134.7657271275849L0.8047971391897564,134.73152663891625L0.9185381494189252,134.69843556161177L1.0322791596480938,134.66641280503433L1.1460201698772625,134.6354189295805L1.2597611801064312,134.60541607246677L1.4659928359752592,134.55342723275194L1.6722244918440872,134.50437358516552L1.878456147712915,134.45806398334838L2.084687803581743,134.4143218848179L2.2909194594505706,134.37298378529908L2.4971511153193986,134.33389741364195L2.7033827711882266,134.29692061478562L2.9096144270570545,134.26192067045525L3.1158460829258825,134.22877365073268L3.504462064422784,134.17094506384197L3.8930780459196854,134.11857954436815L4.281694027416587,134.07104454044253L4.670310008913489,134.02776487917504L5.058925990410391,133.98820548420997L5.447541971907293,133.9518592326913L5.836157953404195,133.9182355125139L6.224773934901096,133.88684680794978L6.613389916397998,133.85719525458373L7.3722989087726605,133.80230397451945L7.906153247942111,133.76419098327744L8.440007587111563,133.7246090341789L8.973861926281016,133.68170818148963L9.507716265450467,133.63343477244595L10.04157060461992,133.5775191227671L10.575424943789372,133.5114800832356L11.109279282958822,133.4326411553786L11.643133622128273,133.3381510364624L12.176987961297725,133.22500858055326L12.710842300467176,133.09009499868787L13.244696639636626,132.93021256178855L13.778550978806077,132.74212616581255L14.61207797384513,132.3844092396341L15.445604968884183,131.93806088510385L16.279131963923238,131.3917269629665L17.11265895896229,130.73506913045713L17.94618595400134,129.95906983231944L18.779712949040395,129.056272773084L19.613239944079446,128.02095806812625L20.4467669391185,126.84925450669081L21.28029393415755,125.5391896067871L22.113820929196606,124.09067926228465L22.947347924235658,122.50546345983108L23.780874919274712,120.78699810903571L24.614401914313767,118.94031302928585L25.8704567097019,115.92987243091368L27.12651150509004,112.67021686027614L28.382566300478175,109.19319208668199L29.638621095866313,105.53386887342347L30.89467589125445,101.72907267673685L32.15073068664259,97.81611292168688L33.40678548203072,93.83170201383128L34.66284027741885,89.81104159445525L35.91889507280699,85.78709045997462L37.17494986819513,81.79003426506499L38.431004663583266,77.84694607773545L39.687059458971405,73.98160191819642L40.943114254359536,70.21441750850751L42.199169049747674,66.56248565698796L43.45522384513581,63.03969845803107L45.345979939560486,58.00353731183678L47.23673603398516,53.30951907736124L49.12749212840982,48.97077577119745L51.018248222834494,44.99027153967545L52.90900431725915,41.36289597225939L54.79976041168383,38.07728541693044L56.69051650610849,35.11742575235737L58.58127260053316,32.464095435090655L60.47202869495782,30.0961096643917L62.362784789382495,27.991310831709963L64.25354088380715,26.127317796228873L66.14429697823182,24.482093756019072L68.03505307265648,23.034378608332677L69.92580916708116,21.76400021188097L71.81656526150583,20.65207272985651L74.69259668249535,19.22554166439073L77.56862810348487,18.07025969536262L80.44465952447439,17.138703124618264L83.32069094546391,16.390450134712815L86.19672236645343,15.79142825118136L89.07275378744295,15.313233434515077L91.94878520843247,14.932461088061842L94.82481662942199,14.629978122943225L97.70084805041152,14.390201436910504L100.57687947140103,14.200480652631732L103.45291089239055,14.050602026365043L106.32894231338008,13.932368776381946L110.78551800680967,13.79681870397047L115.24209370023922,13.70350389125456L119.69866939366881,13.639406437838163L124.1552450870984,13.59539276012237L128.61182078052795,13.565175495554048L133.06839647395753,13.544471573128707L137.52497216738712,13.530329897924627L141.9815478608167,13.520684285297678L146.43812355424626,13.514097131552505L150.89469924767585,13.509593457260834L157.96091057079008,13.50521493266498L169.05177798950052,13.502360632253156L180,13.501904919288112" stroke="#4c78a8" stroke-width="2"/></g><g class="mark-rule role-mark layer_1_marks" role="graphics-symbol" aria-roledescription="rule mark container"><line transform="translate(180,13.499988326398807)" x2="-180" y2="0" stroke="grey"/><line transform="translate(180,13.499988326398807)" x2="-180" y2="0" stroke="grey"/><line transform="translate(180,13.499988326398807)" x2="-180" y2="0" stroke="grey"/><line transform="translate(180,13.499988326398807)" x2="-180" y2="0" stroke="grey"/><line transform="translate(180,13.499988326398807)" x2="-180" y2="0" stroke="grey"/><line transform="translate(180,13.499988326398807)" x2="-180" y2="0" stroke="grey"/><line transform="translate(180,13.499988326398807)" x2="-180" y2="0" stroke="grey"/><line transform="translate(180,13.499988326398807)" x2="-180" y2="0" stroke="grey"/><line transform="translate(180,13.499988326398807)" x2="-180" y2="0" stroke="grey"/><line transform="translate(180,13.499988326398807)" x2="-180" y2="0" stroke="grey"/><line transform="translate(180,13.499988326398807)" x2="-180" y2="0" stroke="grey"/><line transform="translate(180,13.499988326398807)" x2="-180" y2="0" stroke="grey"/><line transform="translate(180,13.499988326398807)" x2="-180" y2="0" stroke="grey"/><line transform="translate(180,13.499988326398807)" x2="-180" y2="0" stroke="grey"/><line transform="translate(180,13.499988326398807)" x2="-180" y2="0" stroke="grey"/><line transform="translate(180,13.499988326398807)" x2="-180" y2="0" stroke="grey"/><line transform="translate(180,13.499988326398807)" x2="-180" y2="0" stroke="grey"/><line transform="translate(180,13.499988326398807)" x2="-180" y2="0" stroke="grey"/><line transform="translate(180,13.499988326398807)" x2="-180" y2="0" stroke="grey"/><line transform="translate(180,13.499988326398807)" x2="-180" y2="0" stroke="grey"/><line transform="translate(180,13.499988326398807)" x2="-180" y2="0" stroke="grey"/><line transform="translate(180,13.499988326398807)" x2="-180" y2="0" stroke="grey"/><line transform="translate(180,13.499988326398807)" x2="-180" y2="0" stroke="grey"/><line transform="translate(180,13.499988326398807)" x2="-180" y2="0" stroke="grey"/><line transform="translate(180,13.499988326398807)" x2="-180" y2="0" stroke="grey"/><line transform="translate(180,13.499988326398807)" x2="-180" y2="0" stroke="grey"/><line transform="translate(180,13.499988326398807)" x2="-180" y2="0" stroke="grey"/><line transform="translate(180,13.499988326398807)" x2="-180" y2="0" stroke="grey"/><line transform="translate(180,13.499988326398807)" x2="-180" y2="0" stroke="grey"/><line transform="translate(180,13.499988326398807)" x2="-180" y2="0" stroke="grey"/><line transform="translate(180,13.499988326398807)" x2="-180" y2="0" stroke="grey"/><line transform="translate(180,13.499988326398807)" x2="-180" y2="0" stroke="grey"/><line transform="translate(180,13.499988326398807)" x2="-180" y2="0" stroke="grey"/><line transform="translate(180,13.499988326398807)" x2="-180" y2="0" stroke="grey"/><line transform="translate(180,13.499988326398807)" x2="-180" y2="0" stroke="grey"/><line transform="translate(180,13.499988326398807)" x2="-180" y2="0" stroke="grey"/><line transform="translate(180,13.499988326398807)" x2="-180" y2="0" stroke="grey"/><line transform="translate(180,13.499988326398807)" x2="-180" y2="0" stroke="grey"/><line transform="translate(180,13.499988326398807)" x2="-180" y2="0" stroke="grey"/><line transform="translate(180,13.499988326398807)" x2="-180" y2="0" stroke="grey"/><line transform="translate(180,13.499988326398807)" x2="-180" y2="0" stroke="grey"/><line transform="translate(180,13.499988326398807)" x2="-180" y2="0" stroke="grey"/><line transform="translate(180,13.499988326398807)" x2="-180" y2="0" stroke="grey"/><line transform="translate(180,13.499988326398807)" x2="-180" y2="0" stroke="grey"/><line transform="translate(180,13.499988326398807)" x2="-180" y2="0" stroke="grey"/><line transform="translate(180,13.499988326398807)" x2="-180" y2="0" stroke="grey"/><line transform="translate(180,13.499988326398807)" x2="-180" y2="0" stroke="grey"/><line transform="translate(180,13.499988326398807)" x2="-180" y2="0" stroke="grey"/><line transform="translate(180,13.499988326398807)" x2="-180" y2="0" stroke="grey"/><line transform="translate(180,13.499988326398807)" x2="-180" y2="0" stroke="grey"/><line transform="translate(180,13.499988326398807)" x2="-180" y2="0" stroke="grey"/><line transform="translate(180,13.499988326398807)" x2="-180" y2="0" stroke="grey"/><line transform="translate(180,13.499988326398807)" x2="-180" y2="0" stroke="grey"/><line transform="translate(180,13.499988326398807)" x2="-180" y2="0" stroke="grey"/><line transform="translate(180,13.499988326398807)" x2="-180" y2="0" stroke="grey"/><line transform="translate(180,13.499988326398807)" x2="-180" y2="0" stroke="grey"/><line transform="translate(180,13.499988326398807)" x2="-180" y2="0" stroke="grey"/><line transform="translate(180,13.499988326398807)" x2="-180" y2="0" stroke="grey"/><line transform="translate(180,13.499988326398807)" x2="-180" y2="0" stroke="grey"/><line transform="translate(180,13.499988326398807)" x2="-180" y2="0" stroke="grey"/><line transform="translate(180,13.499988326398807)" x2="-180" y2="0" stroke="grey"/><line transform="translate(180,13.499988326398807)" x2="-180" y2="0" stroke="grey"/><line transform="translate(180,13.499988326398807)" x2="-180" y2="0" stroke="grey"/><line transform="translate(180,13.499988326398807)" x2="-180" y2="0" stroke="grey"/><line transform="translate(180,13.499988326398807)" x2="-180" y2="0" stroke="grey"/><line transform="translate(180,13.499988326398807)" x2="-180" y2="0" stroke="grey"/><line transform="translate(180,13.499988326398807)" x2="-180" y2="0" stroke="grey"/><line transform="translate(180,13.499988326398807)" x2="-180" y2="0" stroke="grey"/><line transform="translate(180,13.499988326398807)" x2="-180" y2="0" stroke="grey"/><line transform="translate(180,13.499988326398807)" x2="-180" y2="0" stroke="grey"/><line transform="translate(180,13.499988326398807)" x2="-180" y2="0" stroke="grey"/><line transform="translate(180,13.499988326398807)" x2="-180" y2="0" stroke="grey"/><line transform="translate(180,13.499988326398807)" x2="-180" y2="0" stroke="grey"/><line transform="translate(180,13.499988326398807)" x2="-180" y2="0" stroke="grey"/><line transform="translate(180,13.499988326398807)" x2="-180" y2="0" stroke="grey"/><line transform="translate(180,13.499988326398807)" x2="-180" y2="0" stroke="grey"/><line transform="translate(180,13.499988326398807)" x2="-180" y2="0" stroke="grey"/><line transform="translate(180,13.499988326398807)" x2="-180" y2="0" stroke="grey"/><line transform="translate(180,13.499988326398807)" x2="-180" y2="0" stroke="grey"/><line transform="translate(180,13.499988326398807)" x2="-180" y2="0" stroke="grey"/><line transform="translate(180,13.499988326398807)" x2="-180" y2="0" stroke="grey"/><line transform="translate(180,13.499988326398807)" x2="-180" y2="0" stroke="grey"/><line transform="translate(180,13.499988326398807)" x2="-180" y2="0" stroke="grey"/><line transform="translate(180,13.499988326398807)" x2="-180" y2="0" stroke="grey"/><line transform="translate(180,13.499988326398807)" x2="-180" y2="0" stroke="grey"/><line transform="translate(180,13.499988326398807)" x2="-180" y2="0" stroke="grey"/><line transform="translate(180,13.499988326398807)" x2="-180" y2="0" stroke="grey"/><line transform="translate(180,13.499988326398807)" x2="-180" y2="0" stroke="grey"/><line transform="translate(180,13.499988326398807)" x2="-180" y2="0" stroke="grey"/><line transform="translate(180,13.499988326398807)" x2="-180" y2="0" stroke="grey"/><line transform="translate(180,13.499988326398807)" x2="-180" y2="0" stroke="grey"/><line transform="translate(180,13.499988326398807)" x2="-180" y2="0" stroke="grey"/><line transform="translate(180,13.499988326398807)" x2="-180" y2="0" stroke="grey"/><line transform="translate(180,13.499988326398807)" x2="-180" y2="0" stroke="grey"/><line transform="translate(180,13.499988326398807)" x2="-180" y2="0" stroke="grey"/><line transform="translate(180,13.499988326398807)" x2="-180" y2="0" stroke="grey"/><line transform="translate(180,13.499988326398807)" x2="-180" y2="0" stroke="grey"/><line transform="translate(180,13.499988326398807)" x2="-180" y2="0" stroke="grey"/><line transform="translate(180,13.499988326398807)" x2="-180" y2="0" stroke="grey"/><line transform="translate(180,13.499988326398807)" x2="-180" y2="0" stroke="grey"/><line transform="translate(180,13.499988326398807)" x2="-180" y2="0" stroke="grey"/><line transform="translate(180,13.499988326398807)" x2="-180" y2="0" stroke="grey"/><line transform="translate(180,13.499988326398807)" x2="-180" y2="0" stroke="grey"/><line transform="translate(180,13.499988326398807)" x2="-180" y2="0" stroke="grey"/><line transform="translate(180,13.499988326398807)" x2="-180" y2="0" stroke="grey"/><line transform="translate(180,13.499988326398807)" x2="-180" y2="0" stroke="grey"/><line transform="translate(180,13.499988326398807)" x2="-180" y2="0" stroke="grey"/><line transform="translate(180,13.499988326398807)" x2="-180" y2="0" stroke="grey"/><line transform="translate(180,13.499988326398807)" x2="-180" y2="0" stroke="grey"/><line transform="translate(180,13.499988326398807)" x2="-180" y2="0" stroke="grey"/><line transform="translate(180,13.499988326398807)" x2="-180" y2="0" stroke="grey"/><line transform="translate(180,13.499988326398807)" x2="-180" y2="0" stroke="grey"/><line transform="translate(180,13.499988326398807)" x2="-180" y2="0" stroke="grey"/><line transform="translate(180,13.499988326398807)" x2="-180" y2="0" stroke="grey"/><line transform="translate(180,13.499988326398807)" x2="-180" y2="0" stroke="grey"/><line transform="translate(180,13.499988326398807)" x2="-180" y2="0" stroke="grey"/><line transform="translate(180,13.499988326398807)" x2="-180" y2="0" stroke="grey"/><line transform="translate(180,13.499988326398807)" x2="-180" y2="0" stroke="grey"/><line transform="translate(180,13.499988326398807)" x2="-180" y2="0" stroke="grey"/><line transform="translate(180,13.499988326398807)" x2="-180" y2="0" stroke="grey"/><line transform="translate(180,13.499988326398807)" x2="-180" y2="0" stroke="grey"/></g></g><path class="foreground" aria-hidden="true" d="" display="none"/></g></g></g></svg>
