<?xml version="1.0" encoding="utf-8"?>
<!DOCTYPE svg PUBLIC "-//W3C//DTD SVG 1.1//EN" "http://www.w3.org/Graphics/SVG/1.1/DTD/svg11.dtd">
<svg xmlns="http://www.w3.org/2000/svg" xmlns:xlink="http://www.w3.org/1999/xlink" version="1.1" class="marks" width="227" height="175" viewBox="0 0 227 175"><rect width="227" height="175" fill="white"/><g fill="none" stroke-miterlimit="10" transform="translate(40,5)"><g class="mark-group role-frame root" role="graphics-object" aria-roledescription="group mark container"><g transform="translate(0,0)"><path class="background" aria-hidden="true" d="M0.5,0.5h180v135h-180Z" stroke="black"/><g><g class="mark-group role-axis" role="graphics-symbol" aria-roledescription="axis" aria-label="X-axis titled 'Time' for a linear scale with values from 0 to 30"><g transform="translate(0.5,135.5)"><path class="background" aria-hidden="true" d="M0,0h0v0h0Z" pointer-events="none"/><g><g class="mark-rule role-axis-tick" pointer-events="none"><line transform="translate(0,0)" x2="0" y2="3" stroke="black" stroke-width="1" opacity="1"/><line transform="translate(30,0)" x2="0" y2="3" stroke="black" stroke-width="1" opacity="1"/><line transform="translate(60,0)" x2="0" y2="3" stroke="black" stroke-width="1" opacity="1"/><line transform="translate(90,0)" x2="0" y2="3" stroke="black" stroke-width="1" opacity="1"/><line transform="translate(120,0)" x2="0" y2="3" stroke="black" stroke-width="1" opacity="1"/><line transform="translate(150,0)" x2="0" y2="3" stroke="black" stroke-width="1" opacity="1"/><line transform="translate(180,0)" x2="0" y2="3" stroke="black" stroke-width="1" opacity="1"/></g><g class="mark-text role-axis-label" pointer-events="none"><text text-anchor="start" transform="translate(0,13)" font-family="Arial" font-size="10px" fill="#000" opacity="1">0</text><text text-anchor="middle" transform="translate(30,13)" font-family="Arial" font-size="10px" fill="#000" opacity="1">5</text><text text-anchor="middle" transform="translate(60,13)" font-family="Arial" font-size="10px" fill="#000" opacity="1">10</text><text text-anchor="middle" transform="translate(90,13)" font-family="Arial" font-size="10px" fill="#000" opacity="1">15</text><text text-anchor="middle" transform="translate(120,13)" font-family="Arial" font-size="10px" fill="#000" opacity="1">20</text><text text-anchor="middle" transform="translate(150,13)" font-family="Arial" font-size="10px" fill="#000" opacity="1">25</text><text text-anchor="end" transform="translate(180,13)" font-family="Arial" font-size="10px" fill="#000" opacity="1">30</text></g><g class="mark-rule role-axis-domain" pointer-events="none"><line transform="translate(0,0)" x2="180" y2="0" stroke="black" stroke-width="1" opacity="1"/></g><g class="mark-text role-axis-title" pointer-events="none"><text text-anchor="middle" transform="translate(90,28)" font-family="Arial" font-size="11px" font-weight="normal" fill="#000" opacity="1">Time</text></g></g><path class="foreground" aria-hidden="true" d="" pointer-events="none" display="none"/></g></g><g class="mark-group role-axis" role="graphics-symbol" aria-roledescription="axis" aria-label="Y-axis titled 'Translation rate' for a linear scale with values from −0.1 to 1.3"><g transform="translate(0.5,0.5)"><path class="background" aria-hidden="true" d="M0,0h0v0h0Z" pointer-events="none"/><g><g class="mark-rule role-axis-tick" pointer-events="none"><line transform="translate(0,125)" x2="-3" y2="0" stroke="black" stroke-width="1" opacity="1"/><line transform="translate(0,77)" x2="-3" y2="0" stroke="black" stroke-width="1" opacity="1"/><line transform="translate(0,29)" x2="-3" y2="0" stroke="black" stroke-width="1" opacity="1"/></g><g class="mark-text role-axis-label" pointer-events="none"><text text-anchor="end" transform="translate(-5,128.35714285714286)" font-family="Arial" font-size="10px" fill="#000" opacity="1">0.0</text><text text-anchor="end" transform="translate(-5,80.14285714285715)" font-family="Arial" font-size="10px" fill="#000" opacity="1">0.5</text><text text-anchor="end" transform="translate(-5,31.92857142857143)" font-family="Arial" font-size="10px" fill="#000" opacity="1">1.0</text></g><g class="mark-rule role-axis-domain" pointer-events="none"><line transform="translate(0,135)" x2="0" y2="-135" stroke="black" stroke-width="1" opacity="1"/></g><g class="mark-text role-axis-title" pointer-events="none"><text text-anchor="middle" transform="translate(-24,67.5) rotate(-90) translate(0,-2)" font-family="Arial" font-size="11px" font-weight="normal" fill="#000" opacity="1">Translation rate</text></g></g><path class="foreground" aria-hidden="true" d="" pointer-events="none" display="none"/></g></g><g class="mark-line role-mark layer_0_marks" role="graphics-object" aria-roledescription="line mark container"><path aria-label="Time: 0; v: −0.015" role="graphics-symbol" aria-roledescription="line mark" d="M0,126.80357142857143L6.323291172146855e-8,126.80357140570595L0.0006323923501264069,126.80334279435029L0.006955683522273261,126.8010595677171L0.013278974694420116,126.79878018466826L0.01960226586656697,126.7965049582862L0.03228699812141106,126.79195369367876L0.05593088306523689,126.7835161642702L0.10953999007123655,126.76460387191665L0.1631490970772362,126.74599143708468L0.21675820408323587,126.72767380301674L0.2703673110892355,126.70964577281904L0.33476957689357373,126.6883645546494L0.39917184269791195,126.66748578780579L0.46357410850225,126.64700037532019L0.5773151187314188,126.61175563466414L0.6910561289605877,126.57766544445687L0.8047971391897564,126.5446864018121L0.9185381494189252,126.51277714869707L1.0322791596480938,126.4818980619974L1.1460201698772625,126.4520111106669L1.2597611801064312,126.42307978416437L1.4659928359752592,126.37294768872509L1.6722244918440872,126.32564595712391L1.878456147712915,126.28099026965738L2.084687803581743,126.23881038893155L2.2909194594505706,126.19894865010984L2.4971511153193986,126.1612582202976L2.7033827711882266,126.12560202140043L2.9096144270570545,126.09185207508186L3.1158460829258825,126.05988887749221L3.504462064422784,126.00412559727619L3.8930780459196854,125.95363027492643L4.281694027416587,125.90779294971246L4.670310008913489,125.86605899063308L5.058925990410391,125.82791243120248L5.447541971907293,125.79286426009517L5.836157953404195,125.76044138706695L6.224773934901096,125.73017370766586L6.613389916397998,125.7015811383486L7.3722989087726605,125.64865026114374L7.906153247942111,125.61189844816039L8.440007587111563,125.57373014010108L8.973861926281016,125.53236146072214L9.507716265450467,125.48581210200146L10.04157060461992,125.43189343981112L10.575424943789372,125.36821293740576L11.109279282958822,125.29218968554365L11.643133622128273,125.20107421373159L12.176987961297725,125.09197255981923L12.710842300467176,124.9618773201633L13.244696639636626,124.8077049702961L13.778550978806077,124.62633594560495L14.61207797384513,124.28139462393288L15.445604968884183,123.85098728206444L16.279131963923238,123.32416528571767L17.11265895896229,122.69095951865509L17.94618595400134,121.9426744811652L18.779712949040395,121.07212017404528L19.613239944079446,120.07378099426458L20.4467669391185,118.94392398859472L21.28029393415755,117.68064712083041L22.113820929196606,116.28386928863164L22.947347924235658,114.75526833626569L23.780874919274712,113.09817674799872L24.614401914313767,111.31744470681134L25.8704567097019,108.41451984409534L27.12651150509004,105.2712805438377L28.382566300478175,101.91843522644334L29.638621095866313,98.38980212794405L30.89467589125445,94.72089150971054L32.15073068664259,90.94768031734093L33.40678548203072,87.10556979905158L34.66284027741885,83.22850439465329L35.91889507280699,79.34826580068983L37.17494986819513,75.49396161274124L38.431004663583266,71.69169800353062L39.687059458971405,67.96440184968941L40.943114254359536,64.33175974034654L42.199169049747674,60.81025402638125L43.45522384513581,57.41328065595853L45.345979939560486,52.55698240784262L47.23673603398516,48.03060768174121L49.12749212840982,43.846819493654706L51.018248222834494,40.0084761275442L52.90900431725915,36.51064968753585L54.79976041168383,33.3423823663258L56.69051650610849,30.488231975487484L58.58127260053316,27.929663455265995L60.47202869495782,25.646248604949132L62.362784789382495,23.61662115914887L64.25354088380715,21.819199303506405L66.14429697823182,20.232733264732676L68.03505307265648,18.836722229463643L69.92580916708116,17.611714490028074L71.81656526150583,16.5394987037902L74.69259668249535,15.16391517637675L77.56862810348487,14.049893277671089L80.44465952447439,13.15160658445331L83.32069094546391,12.430076915615928L86.19672236645343,11.852448670782035L89.07275378744295,11.391332240425257L91.94878520843247,11.02415890634535L94.82481662942199,10.732478904266662L97.70084805041152,10.501265671306543L100.57687947140103,10.318320629323441L103.45291089239055,10.173794811137714L106.32894231338008,10.059784177225445L110.78551800680967,9.929075178828656L115.24209370023922,9.839093037995461L119.69866939366881,9.777284779343924L124.1552450870984,9.734843018689427L128.61182078052795,9.705704942141391L133.06839647395753,9.685740445516965L137.52497216738712,9.67210383014159L141.9815478608167,9.662802703679908L146.43812355424626,9.656450805425633L150.89469924767585,9.652107976644363L157.96091057079008,9.647885827926945L169.05177798950052,9.645133466815537L180,9.644694029313515" stroke="#4c78a8" stroke-width="2"/></g><g class="mark-rule role-mark layer_1_marks" role="graphics-symbol" aria-roledescription="rule mark container"><line transform="translate(180,9.642845886170281)" x2="-180" y2="0" stroke="grey"/><line transform="translate(180,9.642845886170281)" x2="-180" y2="0" stroke="grey"/><line transform="translate(180,9.642845886170281)" x2="-180" y2="0" stroke="grey"/><line transform="translate(180,9.642845886170281)" x2="-180" y2="0" stroke="grey"/><line transform="translate(180,9.642845886170281)" x2="-180" y2="0" stroke="grey"/><line transform="translate(180,9.642845886170281)" x2="-180" y2="0" stroke="grey"/><line transform="translate(180,9.642845886170281)" x2="-180" y2="0" stroke="grey"/><line transform="translate(180,9.642845886170281)" x2="-180" y2="0" stroke="grey"/><line transform="translate(180,9.642845886170281)" x2="-180" y2="0" stroke="grey"/><line transform="translate(180,9.642845886170281)" x2="-180" y2="0" stroke="grey"/><line transform="translate(180,9.642845886170281)" x2="-180" y2="0" stroke="grey"/><line transform="translate(180,9.642845886170281)" x2="-180" y2="0" stroke="grey"/><line transform="translate(180,9.642845886170281)" x2="-180" y2="0" stroke="grey"/><line transform="translate(180,9.642845886170281)" x2="-180" y2="0" stroke="grey"/><line transform="translate(180,9.642845886170281)" x2="-180" y2="0" stroke="grey"/><line transform="translate(180,9.642845886170281)" x2="-180" y2="0" stroke="grey"/><line transform="translate(180,9.642845886170281)" x2="-180" y2="0" stroke="grey"/><line transform="translate(180,9.642845886170281)" x2="-180" y2="0" stroke="grey"/><line transform="translate(180,9.642845886170281)" x2="-180" y2="0" stroke="grey"/><line transform="translate(180,9.642845886170281)" x2="-180" y2="0" stroke="grey"/><line transform="translate(180,9.642845886170281)" x2="-180" y2="0" stroke="grey"/><line transform="translate(180,9.642845886170281)" x2="-180" y2="0" stroke="grey"/><line transform="translate(180,9.642845886170281)" x2="-180" y2="0" stroke="grey"/><line transform="translate(180,9.642845886170281)" x2="-180" y2="0" stroke="grey"/><line transform="translate(180,9.642845886170281)" x2="-180" y2="0" stroke="grey"/><line transform="translate(180,9.642845886170281)" x2="-180" y2="0" stroke="grey"/><line transform="translate(180,9.642845886170281)" x2="-180" y2="0" stroke="grey"/><line transform="translate(180,9.642845886170281)" x2="-180" y2="0" stroke="grey"/><line transform="translate(180,9.642845886170281)" x2="-180" y2="0" stroke="grey"/><line transform="translate(180,9.642845886170281)" x2="-180" y2="0" stroke="grey"/><line transform="translate(180,9.642845886170281)" x2="-180" y2="0" stroke="grey"/><line transform="translate(180,9.642845886170281)" x2="-180" y2="0" stroke="grey"/><line transform="translate(180,9.642845886170281)" x2="-180" y2="0" stroke="grey"/><line transform="translate(180,9.642845886170281)" x2="-180" y2="0" stroke="grey"/><line transform="translate(180,9.642845886170281)" x2="-180" y2="0" stroke="grey"/><line transform="translate(180,9.642845886170281)" x2="-180" y2="0" stroke="grey"/><line transform="translate(180,9.642845886170281)" x2="-180" y2="0" stroke="grey"/><line transform="translate(180,9.642845886170281)" x2="-180" y2="0" stroke="grey"/><line transform="translate(180,9.642845886170281)" x2="-180" y2="0" stroke="grey"/><line transform="translate(180,9.642845886170281)" x2="-180" y2="0" stroke="grey"/><line transform="translate(180,9.642845886170281)" x2="-180" y2="0" stroke="grey"/><line transform="translate(180,9.642845886170281)" x2="-180" y2="0" stroke="grey"/><line transform="translate(180,9.642845886170281)" x2="-180" y2="0" stroke="grey"/><line transform="translate(180,9.642845886170281)" x2="-180" y2="0" stroke="grey"/><line transform="translate(180,9.642845886170281)" x2="-180" y2="0" stroke="grey"/><line transform="translate(180,9.642845886170281)" x2="-180" y2="0" stroke="grey"/><line transform="translate(180,9.642845886170281)" x2="-180" y2="0" stroke="grey"/><line transform="translate(180,9.642845886170281)" x2="-180" y2="0" stroke="grey"/><line transform="translate(180,9.642845886170281)" x2="-180" y2="0" stroke="grey"/><line transform="translate(180,9.642845886170281)" x2="-180" y2="0" stroke="grey"/><line transform="translate(180,9.642845886170281)" x2="-180" y2="0" stroke="grey"/><line transform="translate(180,9.642845886170281)" x2="-180" y2="0" stroke="grey"/><line transform="translate(180,9.642845886170281)" x2="-180" y2="0" stroke="grey"/><line transform="translate(180,9.642845886170281)" x2="-180" y2="0" stroke="grey"/><line transform="translate(180,9.642845886170281)" x2="-180" y2="0" stroke="grey"/><line transform="translate(180,9.642845886170281)" x2="-180" y2="0" stroke="grey"/><line transform="translate(180,9.642845886170281)" x2="-180" y2="0" stroke="grey"/><line transform="translate(180,9.642845886170281)" x2="-180" y2="0" stroke="grey"/><line transform="translate(180,9.642845886170281)" x2="-180" y2="0" stroke="grey"/><line transform="translate(180,9.642845886170281)" x2="-180" y2="0" stroke="grey"/><line transform="translate(180,9.642845886170281)" x2="-180" y2="0" stroke="grey"/><line transform="translate(180,9.642845886170281)" x2="-180" y2="0" stroke="grey"/><line transform="translate(180,9.642845886170281)" x2="-180" y2="0" stroke="grey"/><line transform="translate(180,9.642845886170281)" x2="-180" y2="0" stroke="grey"/><line transform="translate(180,9.642845886170281)" x2="-180" y2="0" stroke="grey"/><line transform="translate(180,9.642845886170281)" x2="-180" y2="0" stroke="grey"/><line transform="translate(180,9.642845886170281)" x2="-180" y2="0" stroke="grey"/><line transform="translate(180,9.642845886170281)" x2="-180" y2="0" stroke="grey"/><line transform="translate(180,9.642845886170281)" x2="-180" y2="0" stroke="grey"/><line transform="translate(180,9.642845886170281)" x2="-180" y2="0" stroke="grey"/><line transform="translate(180,9.642845886170281)" x2="-180" y2="0" stroke="grey"/><line transform="translate(180,9.642845886170281)" x2="-180" y2="0" stroke="grey"/><line transform="translate(180,9.642845886170281)" x2="-180" y2="0" stroke="grey"/><line transform="translate(180,9.642845886170281)" x2="-180" y2="0" stroke="grey"/><line transform="translate(180,9.642845886170281)" x2="-180" y2="0" stroke="grey"/><line transform="translate(180,9.642845886170281)" x2="-180" y2="0" stroke="grey"/><line transform="translate(180,9.642845886170281)" x2="-180" y2="0" stroke="grey"/><line transform="translate(180,9.642845886170281)" x2="-180" y2="0" stroke="grey"/><line transform="translate(180,9.642845886170281)" x2="-180" y2="0" stroke="grey"/><line transform="translate(180,9.642845886170281)" x2="-180" y2="0" stroke="grey"/><line transform="translate(180,9.642845886170281)" x2="-180" y2="0" stroke="grey"/><line transform="translate(180,9.642845886170281)" x2="-180" y2="0" stroke="grey"/><line transform="translate(180,9.642845886170281)" x2="-180" y2="0" stroke="grey"/><line transform="translate(180,9.642845886170281)" x2="-180" y2="0" stroke="grey"/><line transform="translate(180,9.642845886170281)" x2="-180" y2="0" stroke="grey"/><line transform="translate(180,9.642845886170281)" x2="-180" y2="0" stroke="grey"/><line transform="translate(180,9.642845886170281)" x2="-180" y2="0" stroke="grey"/><line transform="translate(180,9.642845886170281)" x2="-180" y2="0" stroke="grey"/><line transform="translate(180,9.642845886170281)" x2="-180" y2="0" stroke="grey"/><line transform="translate(180,9.642845886170281)" x2="-180" y2="0" stroke="grey"/><line transform="translate(180,9.642845886170281)" x2="-180" y2="0" stroke="grey"/><line transform="translate(180,9.642845886170281)" x2="-180" y2="0" stroke="grey"/><line transform="translate(180,9.642845886170281)" x2="-180" y2="0" stroke="grey"/><line transform="translate(180,9.642845886170281)" x2="-180" y2="0" stroke="grey"/><line transform="translate(180,9.642845886170281)" x2="-180" y2="0" stroke="grey"/><line transform="translate(180,9.642845886170281)" x2="-180" y2="0" stroke="grey"/><line transform="translate(180,9.642845886170281)" x2="-180" y2="0" stroke="grey"/><line transform="translate(180,9.642845886170281)" x2="-180" y2="0" stroke="grey"/><line transform="translate(180,9.642845886170281)" x2="-180" y2="0" stroke="grey"/><line transform="translate(180,9.642845886170281)" x2="-180" y2="0" stroke="grey"/><line transform="translate(180,9.642845886170281)" x2="-180" y2="0" stroke="grey"/><line transform="translate(180,9.642845886170281)" x2="-180" y2="0" stroke="grey"/><line transform="translate(180,9.642845886170281)" x2="-180" y2="0" stroke="grey"/><line transform="translate(180,9.642845886170281)" x2="-180" y2="0" stroke="grey"/><line transform="translate(180,9.642845886170281)" x2="-180" y2="0" stroke="grey"/><line transform="translate(180,9.642845886170281)" x2="-180" y2="0" stroke="grey"/><line transform="translate(180,9.642845886170281)" x2="-180" y2="0" stroke="grey"/><line transform="translate(180,9.642845886170281)" x2="-180" y2="0" stroke="grey"/><line transform="translate(180,9.642845886170281)" x2="-180" y2="0" stroke="grey"/><line transform="translate(180,9.642845886170281)" x2="-180" y2="0" stroke="grey"/><line transform="translate(180,9.642845886170281)" x2="-180" y2="0" stroke="grey"/><line transform="translate(180,9.642845886170281)" x2="-180" y2="0" stroke="grey"/><line transform="translate(180,9.642845886170281)" x2="-180" y2="0" stroke="grey"/><line transform="translate(180,9.642845886170281)" x2="-180" y2="0" stroke="grey"/><line transform="translate(180,9.642845886170281)" x2="-180" y2="0" stroke="grey"/><line transform="translate(180,9.642845886170281)" x2="-180" y2="0" stroke="grey"/><line transform="translate(180,9.642845886170281)" x2="-180" y2="0" stroke="grey"/><line transform="translate(180,9.642845886170281)" x2="-180" y2="0" stroke="grey"/><line transform="translate(180,9.642845886170281)" x2="-180" y2="0" stroke="grey"/><line transform="translate(180,9.642845886170281)" x2="-180" y2="0" stroke="grey"/><line transform="translate(180,9.642845886170281)" x2="-180" y2="0" stroke="grey"/></g></g><path class="foreground" aria-hidden="true" d="" display="none"/></g></g></g></svg>
