<svg xmlns="http://www.w3.org/2000/svg" xmlns:xlink="http://www.w3.org/1999/xlink" version="1.1" class="marks" width="169" height="131" viewBox="0 0 169 131"><rect width="169" height="131" fill="white"/><g fill="none" stroke-miterlimit="10" transform="translate(42,6)"><g class="mark-group role-frame root" role="graphics-object" aria-roledescription="group mark container"><g transform="translate(0,0)"><path class="background" aria-hidden="true" d="M0.5,0.5h120v90h-120Z" stroke="black"/><g><g class="mark-group role-axis" role="graphics-symbol" aria-roledescription="axis" aria-label="X-axis titled 'A (10³ molecules)' for a linear scale with values from 0 to 200"><g transform="translate(0.5,90.5)"><path class="background" aria-hidden="true" d="M0,0h0v0h0Z" pointer-events="none"/><g><g class="mark-rule role-axis-tick" pointer-events="none"><line transform="translate(0,0)" x2="0" y2="3" stroke="black" stroke-width="1" opacity="1"/><line transform="translate(30,0)" x2="0" y2="3" stroke="black" stroke-width="1" opacity="1"/><line transform="translate(60,0)" x2="0" y2="3" stroke="black" stroke-width="1" opacity="1"/><line transform="translate(90,0)" x2="0" y2="3" stroke="black" stroke-width="1" opacity="1"/><line transform="translate(120,0)" x2="0" y2="3" stroke="black" stroke-width="1" opacity="1"/></g><g class="mark-text role-axis-label" pointer-events="none"><text text-anchor="start" transform="translate(0,13)" font-family="Arial" font-size="10px" fill="#000" opacity="1">0</text><text text-anchor="middle" transform="translate(30,13)" font-family="Arial" font-size="10px" fill="#000" opacity="1">50</text><text text-anchor="middle" transform="translate(60,13)" font-family="Arial" font-size="10px" fill="#000" opacity="1">100</text><text text-anchor="middle" transform="translate(90,13)" font-family="Arial" font-size="10px" fill="#000" opacity="1">150</text><text text-anchor="end" transform="translate(120,13)" font-family="Arial" font-size="10px" fill="#000" opacity="1">200</text></g><g class="mark-rule role-axis-domain" pointer-events="none"><line transform="translate(0,0)" x2="120" y2="0" stroke="black" stroke-width="1" opacity="1"/></g><g class="mark-text role-axis-title" pointer-events="none"><text text-anchor="middle" transform="translate(60,28)" font-family="Arial" font-size="11px" font-weight="normal" fill="#000" opacity="1">A (10³ molecules)</text></g></g><path class="foreground" aria-hidden="true" d="" pointer-events="none" display="none"/></g></g><g class="mark-group role-axis" role="graphics-symbol" aria-roledescription="axis" aria-label="Y-axis titled 'Translation rate' for a linear scale with values from 0 to 180"><g transform="translate(0.5,0.5)"><path class="background" aria-hidden="true" d="M0,0h0v0h0Z" pointer-events="none"/><g><g class="mark-rule role-axis-tick" pointer-events="none"><line transform="translate(0,90)" x2="-3" y2="0" stroke="black" stroke-width="1" opacity="1"/><line transform="translate(0,65)" x2="-3" y2="0" stroke="black" stroke-width="1" opacity="1"/><line transform="translate(0,40)" x2="-3" y2="0" stroke="black" stroke-width="1" opacity="1"/><line transform="translate(0,15)" x2="-3" y2="0" stroke="black" stroke-width="1" opacity="1"/></g><g class="mark-text role-axis-label" pointer-events="none"><text text-anchor="end" transform="translate(-5,93)" font-family="Arial" font-size="10px" fill="#000" opacity="1">0</text><text text-anchor="end" transform="translate(-5,68)" font-family="Arial" font-size="10px" fill="#000" opacity="1">50</text><text text-anchor="end" transform="translate(-5,43)" font-family="Arial" font-size="10px" fill="#000" opacity="1">100</text><text text-anchor="end" transform="translate(-5,17.999999999999996)" font-family="Arial" font-size="10px" fill="#000" opacity="1">150</text></g><g class="mark-rule role-axis-domain" pointer-events="none"><line transform="translate(0,90)" x2="0" y2="-90" stroke="black" stroke-width="1" opacity="1"/></g><g class="mark-text role-axis-title" pointer-events="none"><text text-anchor="middle" transform="translate(-25.6845703125,45) rotate(-90) translate(0,-2)" font-family="Arial" font-size="11px" font-weight="normal" fill="#000" opacity="1">Translation rate</text></g></g><path class="foreground" aria-hidden="true" d="" pointer-events="none" display="none"/></g></g><g class="mark-line role-mark layer_0_marks" role="graphics-object" aria-roledescription="line mark container"><path aria-label="A (10³ molecules): 10; Translation rate: 30.813635591" role="graphics-symbol" aria-roledescription="line mark" d="M6,74.593L12,63.179L18,54.384L24,47.398L30,41.717L36,37.005L42,33.034L48,29.642L54,26.711L60,24.153L66,21.901L72,19.903L78,18.119L84,16.515L90,15.067L96,13.752L102,12.552L108,11.454L114,10.445L120,9.514" stroke="#1657a8" stroke-width="2"/></g><g class="mark-symbol role-mark layer_1_marks" role="graphics-symbol" aria-roledescription="symbol mark container"><path transform="translate(33.767443008813714,38.75793460175551)" d="M2.739,0A2.739,2.739,0,1,1,-2.739,0A2.739,2.739,0,1,1,2.739,0" fill="#1657a8" stroke-width="2" opacity="0.7"/><path transform="translate(33.767443008813714,38.75793460175551)" d="M2.739,0A2.739,2.739,0,1,1,-2.739,0A2.739,2.739,0,1,1,2.739,0" fill="#1657a8" stroke-width="2" opacity="0.7"/><path transform="translate(33.767443008813714,38.75793460175551)" d="M2.739,0A2.739,2.739,0,1,1,-2.739,0A2.739,2.739,0,1,1,2.739,0" fill="#1657a8" stroke-width="2" opacity="0.7"/><path transform="translate(33.767443008813714,38.75793460175551)" d="M2.739,0A2.739,2.739,0,1,1,-2.739,0A2.739,2.739,0,1,1,2.739,0" fill="#1657a8" stroke-width="2" opacity="0.7"/><path transform="translate(33.767443008813714,38.75793460175551)" d="M2.739,0A2.739,2.739,0,1,1,-2.739,0A2.739,2.739,0,1,1,2.739,0" fill="#1657a8" stroke-width="2" opacity="0.7"/><path transform="translate(33.767443008813714,38.75793460175551)" d="M2.739,0A2.739,2.739,0,1,1,-2.739,0A2.739,2.739,0,1,1,2.739,0" fill="#1657a8" stroke-width="2" opacity="0.7"/><path transform="translate(33.767443008813714,38.75793460175551)" d="M2.739,0A2.739,2.739,0,1,1,-2.739,0A2.739,2.739,0,1,1,2.739,0" fill="#1657a8" stroke-width="2" opacity="0.7"/><path transform="translate(33.767443008813714,38.75793460175551)" d="M2.739,0A2.739,2.739,0,1,1,-2.739,0A2.739,2.739,0,1,1,2.739,0" fill="#1657a8" stroke-width="2" opacity="0.7"/><path transform="translate(33.767443008813714,38.75793460175551)" d="M2.739,0A2.739,2.739,0,1,1,-2.739,0A2.739,2.739,0,1,1,2.739,0" fill="#1657a8" stroke-width="2" opacity="0.7"/><path transform="translate(33.767443008813714,38.75793460175551)" d="M2.739,0A2.739,2.739,0,1,1,-2.739,0A2.739,2.739,0,1,1,2.739,0" fill="#1657a8" stroke-width="2" opacity="0.7"/><path transform="translate(33.767443008813714,38.75793460175551)" d="M2.739,0A2.739,2.739,0,1,1,-2.739,0A2.739,2.739,0,1,1,2.739,0" fill="#1657a8" stroke-width="2" opacity="0.7"/><path transform="translate(33.767443008813714,38.75793460175551)" d="M2.739,0A2.739,2.739,0,1,1,-2.739,0A2.739,2.739,0,1,1,2.739,0" fill="#1657a8" stroke-width="2" opacity="0.7"/><path transform="translate(33.767443008813714,38.75793460175551)" d="M2.739,0A2.739,2.739,0,1,1,-2.739,0A2.739,2.739,0,1,1,2.739,0" fill="#1657a8" stroke-width="2" opacity="0.7"/><path transform="translate(33.767443008813714,38.75793460175551)" d="M2.739,0A2.739,2.739,0,1,1,-2.739,0A2.739,2.739,0,1,1,2.739,0" fill="#1657a8" stroke-width="2" opacity="0.7"/><path transform="translate(33.767443008813714,38.75793460175551)" d="M2.739,0A2.739,2.739,0,1,1,-2.739,0A2.739,2.739,0,1,1,2.739,0" fill="#1657a8" stroke-width="2" opacity="0.7"/><path transform="translate(33.767443008813714,38.75793460175551)" d="M2.739,0A2.739,2.739,0,1,1,-2.739,0A2.739,2.739,0,1,1,2.739,0" fill="#1657a8" stroke-width="2" opacity="0.7"/><path transform="translate(33.767443008813714,38.75793460175551)" d="M2.739,0A2.739,2.739,0,1,1,-2.739,0A2.739,2.739,0,1,1,2.739,0" fill="#1657a8" stroke-width="2" opacity="0.7"/><path transform="translate(33.767443008813714,38.75793460175551)" d="M2.739,0A2.739,2.739,0,1,1,-2.739,0A2.739,2.739,0,1,1,2.739,0" fill="#1657a8" stroke-width="2" opacity="0.7"/><path transform="translate(33.767443008813714,38.75793460175551)" d="M2.739,0A2.739,2.739,0,1,1,-2.739,0A2.739,2.739,0,1,1,2.739,0" fill="#1657a8" stroke-width="2" opacity="0.7"/><path transform="translate(33.767443008813714,38.75793460175551)" d="M2.739,0A2.739,2.739,0,1,1,-2.739,0A2.739,2.739,0,1,1,2.739,0" fill="#1657a8" stroke-width="2" opacity="0.7"/></g><g class="mark-rule role-mark layer_2_marks" role="graphics-symbol" aria-roledescription="rule mark container"><line transform="translate(33.767443008813714,0)" x2="0" y2="90" stroke="grey" stroke-dasharray="4,4"/><line transform="translate(33.767443008813714,0)" x2="0" y2="90" stroke="grey" stroke-dasharray="4,4"/><line transform="translate(33.767443008813714,0)" x2="0" y2="90" stroke="grey" stroke-dasharray="4,4"/><line transform="translate(33.767443008813714,0)" x2="0" y2="90" stroke="grey" stroke-dasharray="4,4"/><line transform="translate(33.767443008813714,0)" x2="0" y2="90" stroke="grey" stroke-dasharray="4,4"/><line transform="translate(33.767443008813714,0)" x2="0" y2="90" stroke="grey" stroke-dasharray="4,4"/><line transform="translate(33.767443008813714,0)" x2="0" y2="90" stroke="grey" stroke-dasharray="4,4"/><line transform="translate(33.767443008813714,0)" x2="0" y2="90" stroke="grey" stroke-dasharray="4,4"/><line transform="translate(33.767443008813714,0)" x2="0" y2="90" stroke="grey" stroke-dasharray="4,4"/><line transform="translate(33.767443008813714,0)" x2="0" y2="90" stroke="grey" stroke-dasharray="4,4"/><line transform="translate(33.767443008813714,0)" x2="0" y2="90" stroke="grey" stroke-dasharray="4,4"/><line transform="translate(33.767443008813714,0)" x2="0" y2="90" stroke="grey" stroke-dasharray="4,4"/><line transform="translate(33.767443008813714,0)" x2="0" y2="90" stroke="grey" stroke-dasharray="4,4"/><line transform="translate(33.767443008813714,0)" x2="0" y2="90" stroke="grey" stroke-dasharray="4,4"/><line transform="translate(33.767443008813714,0)" x2="0" y2="90" stroke="grey" stroke-dasharray="4,4"/><line transform="translate(33.767443008813714,0)" x2="0" y2="90" stroke="grey" stroke-dasharray="4,4"/><line transform="translate(33.767443008813714,0)" x2="0" y2="90" stroke="grey" stroke-dasharray="4,4"/><line transform="translate(33.767443008813714,0)" x2="0" y2="90" stroke="grey" stroke-dasharray="4,4"/><line transform="translate(33.767443008813714,0)" x2="0" y2="90" stroke="grey" stroke-dasharray="4,4"/><line transform="translate(33.767443008813714,0)" x2="0" y2="90" stroke="grey" stroke-dasharray="4,4"/></g><g class="mark-text role-mark layer_3_marks" role="graphics-object" aria-roledescription="text mark container"><text text-anchor="start" transform="translate(43.767443008813714,41.75793460175551)" font-family="Arial" font-size="11px" fill="black">Kₘ = 56.3</text><text text-anchor="start" transform="translate(43.767443008813714,41.75793460175551)" font-family="Arial" font-size="11px" fill="black">Kₘ = 56.3</text><text text-anchor="start" transform="translate(43.767443008813714,41.75793460175551)" font-family="Arial" font-size="11px" fill="black">Kₘ = 56.3</text><text text-anchor="start" transform="translate(43.767443008813714,41.75793460175551)" font-family="Arial" font-size="11px" fill="black">Kₘ = 56.3</text><text text-anchor="start" transform="translate(43.767443008813714,41.75793460175551)" font-family="Arial" font-size="11px" fill="black">Kₘ = 56.3</text><text text-anchor="start" transform="translate(43.767443008813714,41.75793460175551)" font-family="Arial" font-size="11px" fill="black">Kₘ = 56.3</text><text text-anchor="start" transform="translate(43.767443008813714,41.75793460175551)" font-family="Arial" font-size="11px" fill="black">Kₘ = 56.3</text><text text-anchor="start" transform="translate(43.767443008813714,41.75793460175551)" font-family="Arial" font-size="11px" fill="black">Kₘ = 56.3</text><text text-anchor="start" transform="translate(43.767443008813714,41.75793460175551)" font-family="Arial" font-size="11px" fill="black">Kₘ = 56.3</text><text text-anchor="start" transform="translate(43.767443008813714,41.75793460175551)" font-family="Arial" font-size="11px" fill="black">Kₘ = 56.3</text><text text-anchor="start" transform="translate(43.767443008813714,41.75793460175551)" font-family="Arial" font-size="11px" fill="black">Kₘ = 56.3</text><text text-anchor="start" transform="translate(43.767443008813714,41.75793460175551)" font-family="Arial" font-size="11px" fill="black">Kₘ = 56.3</text><text text-anchor="start" transform="translate(43.767443008813714,41.75793460175551)" font-family="Arial" font-size="11px" fill="black">Kₘ = 56.3</text><text text-anchor="start" transform="translate(43.767443008813714,41.75793460175551)" font-family="Arial" font-size="11px" fill="black">Kₘ = 56.3</text><text text-anchor="start" transform="translate(43.767443008813714,41.75793460175551)" font-family="Arial" font-size="11px" fill="black">Kₘ = 56.3</text><text text-anchor="start" transform="translate(43.767443008813714,41.75793460175551)" font-family="Arial" font-size="11px" fill="black">Kₘ = 56.3</text><text text-anchor="start" transform="translate(43.767443008813714,41.75793460175551)" font-family="Arial" font-size="11px" fill="black">Kₘ = 56.3</text><text text-anchor="start" transform="translate(43.767443008813714,41.75793460175551)" font-family="Arial" font-size="11px" fill="black">Kₘ = 56.3</text><text text-anchor="start" transform="translate(43.767443008813714,41.75793460175551)" font-family="Arial" font-size="11px" fill="black">Kₘ = 56.3</text><text text-anchor="start" transform="translate(43.767443008813714,41.75793460175551)" font-family="Arial" font-size="11px" fill="black">Kₘ = 56.3</text></g></g><path class="foreground" aria-hidden="true" d="" display="none"/></g></g></g></svg>