<svg xmlns="http://www.w3.org/2000/svg" xmlns:xlink="http://www.w3.org/1999/xlink" version="1.1" class="marks" width="168" height="130" viewBox="0 0 168 130"><rect width="168" height="130" fill="white"/><g fill="none" stroke-miterlimit="10" transform="translate(42,5)"><g class="mark-group role-frame root" role="graphics-object" aria-roledescription="group mark container"><g transform="translate(0,0)"><path class="background" aria-hidden="true" d="M0.5,0.5h120v90h-120Z" stroke="black"/><g><g class="mark-group role-axis" role="graphics-symbol" aria-roledescription="axis" aria-label="X-axis titled 'A (10³ molecules)' for a linear scale with values from 0 to 6,000"><g transform="translate(0.5,90.5)"><path class="background" aria-hidden="true" d="M0,0h0v0h0Z" pointer-events="none"/><g><g class="mark-rule role-axis-tick" pointer-events="none"><line transform="translate(0,0)" x2="0" y2="3" stroke="black" stroke-width="1" opacity="1"/><line transform="translate(40,0)" x2="0" y2="3" stroke="black" stroke-width="1" opacity="1"/><line transform="translate(80,0)" x2="0" y2="3" stroke="black" stroke-width="1" opacity="1"/><line transform="translate(120,0)" x2="0" y2="3" stroke="black" stroke-width="1" opacity="1"/></g><g class="mark-text role-axis-label" pointer-events="none"><text text-anchor="start" transform="translate(0,13)" font-family="Arial" font-size="10px" fill="#000" opacity="1">0</text><text text-anchor="middle" transform="translate(40,13)" font-family="Arial" font-size="10px" fill="#000" opacity="1">2,000</text><text text-anchor="middle" transform="translate(80,13)" font-family="Arial" font-size="10px" fill="#000" opacity="1">4,000</text><text text-anchor="end" transform="translate(120,13)" font-family="Arial" font-size="10px" fill="#000" opacity="1">6,000</text></g><g class="mark-rule role-axis-domain" pointer-events="none"><line transform="translate(0,0)" x2="120" y2="0" stroke="black" stroke-width="1" opacity="1"/></g><g class="mark-text role-axis-title" pointer-events="none"><text text-anchor="middle" transform="translate(60,28)" font-family="Arial" font-size="11px" font-weight="normal" fill="#000" opacity="1">A (10³ molecules)</text></g></g><path class="foreground" aria-hidden="true" d="" pointer-events="none" display="none"/></g></g><g class="mark-group role-axis" role="graphics-symbol" aria-roledescription="axis" aria-label="Y-axis titled 'Translation rate' for a linear scale with values from 0 to 220"><g transform="translate(0.5,0.5)"><path class="background" aria-hidden="true" d="M0,0h0v0h0Z" pointer-events="none"/><g><g class="mark-rule role-axis-tick" pointer-events="none"><line transform="translate(0,90)" x2="-3" y2="0" stroke="black" stroke-width="1" opacity="1"/><line transform="translate(0,49)" x2="-3" y2="0" stroke="black" stroke-width="1" opacity="1"/><line transform="translate(0,8)" x2="-3" y2="0" stroke="black" stroke-width="1" opacity="1"/></g><g class="mark-text role-axis-label" pointer-events="none"><text text-anchor="end" transform="translate(-5,93)" font-family="Arial" font-size="10px" fill="#000" opacity="1">0</text><text text-anchor="end" transform="translate(-5,52.090909090909086)" font-family="Arial" font-size="10px" fill="#000" opacity="1">100</text><text text-anchor="end" transform="translate(-5,11.181818181818185)" font-family="Arial" font-size="10px" fill="#000" opacity="1">200</text></g><g class="mark-rule role-axis-domain" pointer-events="none"><line transform="translate(0,90)" x2="0" y2="-90" stroke="black" stroke-width="1" opacity="1"/></g><g class="mark-text role-axis-title" pointer-events="none"><text text-anchor="middle" transform="translate(-25.6845703125,45) rotate(-90) translate(0,-2)" font-family="Arial" font-size="11px" font-weight="normal" fill="#000" opacity="1">Translation rate</text></g></g><path class="foreground" aria-hidden="true" d="" pointer-events="none" display="none"/></g></g><g class="mark-line role-mark layer_0_marks" role="graphics-object" aria-roledescription="line mark container"><path aria-label="A (10³ molecules): 10; Translation rate: 30.813635591" role="graphics-symbol" aria-roledescription="line mark" d="M0.2,77.394L0.4,68.056L0.6,60.859L0.8,55.144L1,50.495L1.2,46.64L1.4,43.391L1.6,40.616L1.8,38.218L2,36.125L2.2,34.282L2.4,32.648L2.6,31.188L2.8,29.876L3,28.691L3.2,27.615L3.4,26.634L3.6,25.735L3.8,24.909L4,24.148L4.2,23.443L4.4,22.789L4.6,22.181L4.8,21.614L5,21.084L5.2,20.587L5.4,20.12L5.6,19.681L5.8,19.268L6,18.877L6.2,18.508L6.4,18.158L6.6,17.827L6.8,17.512L7,17.213L7.2,16.928L7.4,16.656L7.6,16.397L7.8,16.149L8,15.912L8.2,15.686L8.4,15.469L8.6,15.26L8.8,15.06L9,14.868L9.2,14.684L9.4,14.506L9.6,14.335L9.8,14.171L10,14.012L10.2,13.859L10.4,13.711L10.6,13.568L10.8,13.43L11,13.296L11.2,13.167L11.4,13.042L11.6,12.921L11.8,12.803L12,12.69L12.2,12.579L12.4,12.472L12.6,12.368L12.8,12.267L13,12.169L13.2,12.073L13.4,11.98L13.6,11.89L13.8,11.802L14,11.717L14.2,11.633L14.4,11.552L14.6,11.473L14.8,11.396L15,11.321L15.2,11.247L15.4,11.176L15.6,11.106L15.8,11.037L16,10.971L16.2,10.906L16.4,10.842L16.6,10.78L16.8,10.719L17,10.659L17.2,10.601L17.4,10.544L17.6,10.489L17.8,10.434L18,10.381L18.2,10.328L18.4,10.277L18.6,10.227L18.8,10.178L19,10.13L19.2,10.082L19.4,10.036L19.6,9.991L19.8,9.946L20,9.902L20.2,9.859L20.4,9.817L20.6,9.776L20.8,9.735L21,9.695L21.2,9.656L21.4,9.618L21.6,9.58L21.8,9.543L22,9.506L22.2,9.471L22.4,9.435L22.6,9.401L22.8,9.367L23,9.333L23.2,9.3L23.4,9.268L23.6,9.236L23.8,9.205L24,9.174L24.2,9.143L24.4,9.113L24.6,9.084L24.8,9.055L25,9.026L25.2,8.998L25.4,8.971L25.6,8.943L25.8,8.916L26,8.89L26.2,8.864L26.4,8.838L26.6,8.813L26.8,8.788L27,8.763L27.2,8.739L27.4,8.715L27.6,8.691L27.8,8.668L28,8.645L28.2,8.623L28.4,8.6L28.6,8.578L28.8,8.556L29,8.535L29.2,8.514L29.4,8.493L29.6,8.472L29.8,8.452L30,8.432L30.2,8.412L30.4,8.392L30.6,8.373L30.8,8.354L31,8.335L31.2,8.316L31.4,8.298L31.6,8.28L31.8,8.262L32,8.244L32.2,8.227L32.4,8.209L32.6,8.192L32.8,8.175L33,8.159L33.2,8.142L33.4,8.126L33.6,8.11L33.8,8.094L34,8.078L34.2,8.062L34.4,8.047L34.6,8.032L34.8,8.017L35,8.002L35.2,7.987L35.4,7.972L35.6,7.958L35.8,7.944L36,7.93L36.2,7.916L36.4,7.902L36.6,7.888L36.8,7.875L37,7.861L37.2,7.848L37.4,7.835L37.6,7.822L37.8,7.809L38,7.796L38.2,7.784L38.4,7.771L38.6,7.759L38.8,7.747L39,7.735L39.2,7.723L39.4,7.711L39.6,7.699L39.8,7.688L40,7.676L40.2,7.665L40.4,7.653L40.6,7.642L40.8,7.631L41,7.62L41.2,7.609L41.4,7.599L41.6,7.588L41.8,7.578L42,7.567L42.2,7.557L42.4,7.546L42.6,7.536L42.8,7.526L43,7.516L43.2,7.506L43.4,7.497L43.6,7.487L43.8,7.477L44,7.468L44.2,7.458L44.4,7.449L44.6,7.439L44.8,7.43L45,7.421L45.2,7.412L45.4,7.403L45.6,7.394L45.8,7.385L46,7.377L46.2,7.368L46.4,7.359L46.6,7.351L46.8,7.342L47,7.334L47.2,7.326L47.4,7.317L47.6,7.309L47.8,7.301L48,7.293L48.2,7.285L48.4,7.277L48.6,7.269L48.8,7.261L49,7.254L49.2,7.246L49.4,7.238L49.6,7.231L49.8,7.223L50,7.216L50.2,7.209L50.4,7.201L50.6,7.194L50.8,7.187L51,7.18L51.2,7.173L51.4,7.166L51.6,7.159L51.8,7.152L52,7.145L52.2,7.138L52.4,7.131L52.6,7.124L52.8,7.118L53,7.111L53.2,7.105L53.4,7.098L53.6,7.092L53.8,7.085L54,7.079L54.2,7.072L54.4,7.066L54.6,7.06L54.8,7.054L55,7.047L55.2,7.041L55.4,7.035L55.6,7.029L55.8,7.023L56,7.017L56.2,7.011L56.4,7.005L56.6,7L56.8,6.994L57,6.988L57.2,6.982L57.4,6.977L57.6,6.971L57.8,6.965L58,6.96L58.2,6.954L58.4,6.949L58.6,6.943L58.8,6.938L59,6.933L59.2,6.927L59.4,6.922L59.6,6.917L59.8,6.912L60,6.906L60.2,6.901L60.4,6.896L60.6,6.891L60.8,6.886L61,6.881L61.2,6.876L61.4,6.871L61.6,6.866L61.8,6.861L62,6.856L62.2,6.851L62.4,6.847L62.6,6.842L62.8,6.837L63,6.832L63.2,6.828L63.4,6.823L63.6,6.818L63.8,6.814L64,6.809L64.2,6.805L64.4,6.8L64.6,6.796L64.8,6.791L65,6.787L65.2,6.782L65.4,6.778L65.6,6.774L65.8,6.769L66,6.765L66.2,6.761L66.4,6.756L66.6,6.752L66.8,6.748L67,6.744L67.2,6.74L67.4,6.735L67.6,6.731L67.8,6.727L68,6.723L68.2,6.719L68.4,6.715L68.6,6.711L68.8,6.707L69,6.703L69.2,6.699L69.4,6.695L69.6,6.691L69.8,6.688L70,6.684L70.2,6.68L70.4,6.676L70.6,6.672L70.8,6.669L71,6.665L71.2,6.661L71.4,6.658L71.6,6.654L71.8,6.65L72,6.647L72.2,6.643L72.4,6.639L72.6,6.636L72.8,6.632L73,6.629L73.2,6.625L73.4,6.622L73.6,6.618L73.8,6.615L74,6.611L74.2,6.608L74.4,6.605L74.6,6.601L74.8,6.598L75,6.594L75.2,6.591L75.4,6.588L75.6,6.584L75.8,6.581L76,6.578L76.2,6.575L76.4,6.571L76.6,6.568L76.8,6.565L77,6.562L77.2,6.559L77.4,6.556L77.6,6.552L77.8,6.549L78,6.546L78.2,6.543L78.4,6.54L78.6,6.537L78.8,6.534L79,6.531L79.2,6.528L79.4,6.525L79.6,6.522L79.8,6.519L80,6.516L80.2,6.513L80.4,6.51L80.6,6.507L80.8,6.504L81,6.502L81.2,6.499L81.4,6.496L81.6,6.493L81.8,6.49L82,6.487L82.2,6.485L82.4,6.482L82.6,6.479L82.8,6.476L83,6.474L83.2,6.471L83.4,6.468L83.6,6.465L83.8,6.463L84,6.46L84.2,6.457L84.4,6.455L84.6,6.452L84.8,6.449L85,6.447L85.2,6.444L85.4,6.442L85.6,6.439L85.8,6.436L86,6.434L86.2,6.431L86.4,6.429L86.6,6.426L86.8,6.424L87,6.421L87.2,6.419L87.4,6.416L87.6,6.414L87.8,6.411L88,6.409L88.2,6.407L88.4,6.404L88.6,6.402L88.8,6.399L89,6.397L89.2,6.395L89.4,6.392L89.6,6.39L89.8,6.387L90,6.385L90.2,6.383L90.4,6.38L90.6,6.378L90.8,6.376L91,6.374L91.2,6.371L91.4,6.369L91.6,6.367L91.8,6.365L92,6.362L92.2,6.36L92.4,6.358L92.6,6.356L92.8,6.353L93,6.351L93.2,6.349L93.4,6.347L93.6,6.345L93.8,6.343L94,6.34L94.2,6.338L94.4,6.336L94.6,6.334L94.8,6.332L95,6.33L95.2,6.328L95.4,6.326L95.6,6.324L95.8,6.322L96,6.32L96.2,6.317L96.4,6.315L96.6,6.313L96.8,6.311L97,6.309L97.2,6.307L97.4,6.305L97.6,6.303L97.8,6.301L98,6.299L98.2,6.297L98.4,6.295L98.6,6.294L98.8,6.292L99,6.29L99.2,6.288L99.4,6.286L99.6,6.284L99.8,6.282L100,6.28L100.2,6.278L100.4,6.276L100.6,6.274L100.8,6.273L101,6.271L101.2,6.269L101.4,6.267L101.6,6.265L101.8,6.263L102,6.262L102.2,6.26L102.4,6.258L102.6,6.256L102.8,6.254L103,6.253L103.2,6.251L103.4,6.249L103.6,6.247L103.8,6.245L104,6.244L104.2,6.242L104.4,6.24L104.6,6.238L104.8,6.237L105,6.235L105.2,6.233L105.4,6.232L105.6,6.23L105.8,6.228L106,6.226L106.2,6.225L106.4,6.223L106.6,6.221L106.8,6.22L107,6.218L107.2,6.216L107.4,6.215L107.6,6.213L107.8,6.212L108,6.21L108.2,6.208L108.4,6.207L108.6,6.205L108.8,6.203L109,6.202L109.2,6.2L109.4,6.199L109.6,6.197L109.8,6.196L110,6.194L110.2,6.192L110.4,6.191L110.6,6.189L110.8,6.188L111,6.186L111.2,6.185L111.4,6.183L111.6,6.182L111.8,6.18L112,6.179L112.2,6.177L112.4,6.176L112.6,6.174L112.8,6.173L113,6.171L113.2,6.17L113.4,6.168L113.6,6.167L113.8,6.165L114,6.164L114.2,6.162L114.4,6.161L114.6,6.159L114.8,6.158L115,6.156L115.2,6.155L115.4,6.154L115.6,6.152L115.8,6.151L116,6.149" stroke="#1657a8" stroke-width="2"/></g></g><path class="foreground" aria-hidden="true" d="" display="none"/></g></g></g></svg>