<svg xmlns="http://www.w3.org/2000/svg" xmlns:xlink="http://www.w3.org/1999/xlink" version="1.1" class="marks" width="169" height="130" viewBox="0 0 169 130"><rect width="169" height="130" fill="white"/><g fill="none" stroke-miterlimit="10" transform="translate(42,5)"><g class="mark-group role-frame root" role="graphics-object" aria-roledescription="group mark container"><g transform="translate(0,0)"><path class="background" aria-hidden="true" d="M0.5,0.5h120v90h-120Z" stroke="black"/><g><g class="mark-group role-axis" role="graphics-symbol" aria-roledescription="axis" aria-label="X-axis titled 'Ribosomes' for a linear scale with values from 0 to 5,000"><g transform="translate(0.5,90.5)"><path class="background" aria-hidden="true" d="M0,0h0v0h0Z" pointer-events="none"/><g><g class="mark-rule role-axis-tick" pointer-events="none"><line transform="translate(0,0)" x2="0" y2="3" stroke="black" stroke-width="1" opacity="1"/><line transform="translate(48,0)" x2="0" y2="3" stroke="black" stroke-width="1" opacity="1"/><line transform="translate(96,0)" x2="0" y2="3" stroke="black" stroke-width="1" opacity="1"/></g><g class="mark-text role-axis-label" pointer-events="none"><text text-anchor="start" transform="translate(0,13)" font-family="Arial" font-size="10px" fill="#000" opacity="1">0</text><text text-anchor="middle" transform="translate(48,13)" font-family="Arial" font-size="10px" fill="#000" opacity="1">2,000</text><text text-anchor="middle" transform="translate(96,13)" font-family="Arial" font-size="10px" fill="#000" opacity="1">4,000</text></g><g class="mark-rule role-axis-domain" pointer-events="none"><line transform="translate(0,0)" x2="120" y2="0" stroke="black" stroke-width="1" opacity="1"/></g><g class="mark-text role-axis-title" pointer-events="none"><text text-anchor="middle" transform="translate(60,28)" font-family="Arial" font-size="11px" font-weight="normal" fill="#000" opacity="1">Ribosomes</text></g></g><path class="foreground" aria-hidden="true" d="" pointer-events="none" display="none"/></g></g><g class="mark-group role-axis" role="graphics-symbol" aria-roledescription="axis" aria-label="Y-axis titled 'Translation rate' for a linear scale with values from 0 to 220"><g transform="translate(0.5,0.5)"><path class="background" aria-hidden="true" d="M0,0h0v0h0Z" pointer-events="none"/><g><g class="mark-rule role-axis-tick" pointer-events="none"><line transform="translate(0,90)" x2="-3" y2="0" stroke="black" stroke-width="1" opacity="1"/><line transform="translate(0,49)" x2="-3" y2="0" stroke="black" stroke-width="1" opacity="1"/><line transform="translate(0,8)" x2="-3" y2="0" stroke="black" stroke-width="1" opacity="1"/></g><g class="mark-text role-axis-label" pointer-events="none"><text text-anchor="end" transform="translate(-5,93)" font-family="Arial" font-size="10px" fill="#000" opacity="1">0</text><text text-anchor="end" transform="translate(-5,52.090909090909086)" font-family="Arial" font-size="10px" fill="#000" opacity="1">100</text><text text-anchor="end" transform="translate(-5,11.181818181818185)" font-family="Arial" font-size="10px" fill="#000" opacity="1">200</text></g><g class="mark-rule role-axis-domain" pointer-events="none"><line transform="translate(0,90)" x2="0" y2="-90" stroke="black" stroke-width="1" opacity="1"/></g><g class="mark-text role-axis-title" pointer-events="none"><text text-anchor="middle" transform="translate(-25.6845703125,45) rotate(-90) translate(0,-2)" font-family="Arial" font-size="11px" font-weight="normal" fill="#000" opacity="1">Translation rate</text></g></g><path class="foreground" aria-hidden="true" d="" pointer-events="none" display="none"/></g></g><g class="mark-line role-mark layer_0_marks" role="graphics-object" aria-roledescription="line mark container"><path aria-label="Ribosomes: 100; Translation rate: 4.09949750964" role="graphics-symbol" aria-roledescription="line mark" d="M2.4,88.323L4.8,86.646L7.2,84.969L9.6,83.292L12,81.615L14.4,79.938L16.8,78.261L19.2,76.584L21.6,74.907L24,73.23L26.4,71.553L28.8,69.876L31.2,68.198L33.6,66.521L36,64.844L38.4,63.167L40.8,61.49L43.2,59.813L45.6,58.136L48,56.459L50.4,54.782L52.8,53.105L55.2,51.428L57.6,49.751L60,48.074L62.4,46.397L64.8,44.72L67.2,43.043L69.6,41.366L72,39.689L74.4,38.012L76.8,36.335L79.2,34.658L81.6,32.981L84,31.304L86.4,29.627L88.8,27.95L91.2,26.273L93.6,24.596L96,22.919L98.4,21.242L100.8,19.565L103.2,17.888L105.6,16.211L108,14.534L110.4,12.857L112.8,11.18L115.2,9.503L117.6,7.826L120,6.149" stroke="#1657a8" stroke-width="2"/></g></g><path class="foreground" aria-hidden="true" d="" display="none"/></g></g></g></svg>