<svg xmlns="http://www.w3.org/2000/svg" xmlns:xlink="http://www.w3.org/1999/xlink" version="1.1" class="marks" width="459" height="225" viewBox="0 0 459 225"><rect width="459" height="225" fill="white"/><g fill="none" stroke-miterlimit="10" transform="translate(76,10)"><g class="mark-group role-frame root" role="graphics-object" aria-roledescription="group mark container"><g transform="translate(0,0)"><path class="background" aria-hidden="true" d="M0.5,0.5h240v180h-240Z" stroke="black"/><g><g class="mark-group role-axis" aria-hidden="true"><g transform="translate(0.5,0.5)"><path class="background" aria-hidden="true" d="M0,0h0v0h0Z" pointer-events="none"/><g><g class="mark-rule role-axis-grid" pointer-events="none"><line transform="translate(0,180)" x2="240" y2="0" stroke="#ddd" stroke-width="1" opacity="1"/><line transform="translate(0,162)" x2="240" y2="0" stroke="#ddd" stroke-width="1" opacity="1"/><line transform="translate(0,144)" x2="240" y2="0" stroke="#ddd" stroke-width="1" opacity="1"/><line transform="translate(0,126)" x2="240" y2="0" stroke="#ddd" stroke-width="1" opacity="1"/><line transform="translate(0,108)" x2="240" y2="0" stroke="#ddd" stroke-width="1" opacity="1"/><line transform="translate(0,90)" x2="240" y2="0" stroke="#ddd" stroke-width="1" opacity="1"/><line transform="translate(0,72)" x2="240" y2="0" stroke="#ddd" stroke-width="1" opacity="1"/><line transform="translate(0,54)" x2="240" y2="0" stroke="#ddd" stroke-width="1" opacity="1"/><line transform="translate(0,36)" x2="240" y2="0" stroke="#ddd" stroke-width="1" opacity="1"/><line transform="translate(0,18)" x2="240" y2="0" stroke="#ddd" stroke-width="1" opacity="1"/><line transform="translate(0,0)" x2="240" y2="0" stroke="#ddd" stroke-width="1" opacity="1"/></g></g><path class="foreground" aria-hidden="true" d="" pointer-events="none" display="none"/></g></g><g class="mark-group role-axis" role="graphics-symbol" aria-roledescription="axis" aria-label="X-axis titled 'Time (mins)' for a linear scale with values from −100 to 400"><g transform="translate(0.5,180.5)"><path class="background" aria-hidden="true" d="M0,0h0v0h0Z" pointer-events="none"/><g><g class="mark-rule role-axis-tick" pointer-events="none"><line transform="translate(0,0)" x2="0" y2="3" stroke="black" stroke-width="1" opacity="1"/><line transform="translate(48,0)" x2="0" y2="3" stroke="black" stroke-width="1" opacity="1"/><line transform="translate(96,0)" x2="0" y2="3" stroke="black" stroke-width="1" opacity="1"/><line transform="translate(144,0)" x2="0" y2="3" stroke="black" stroke-width="1" opacity="1"/><line transform="translate(192,0)" x2="0" y2="3" stroke="black" stroke-width="1" opacity="1"/><line transform="translate(240,0)" x2="0" y2="3" stroke="black" stroke-width="1" opacity="1"/></g><g class="mark-text role-axis-label" pointer-events="none"><text text-anchor="start" transform="translate(0,13)" font-family="Arial" font-size="10px" fill="#000" opacity="1">−100</text><text text-anchor="middle" transform="translate(48,13)" font-family="Arial" font-size="10px" fill="#000" opacity="1">0</text><text text-anchor="middle" transform="translate(96,13)" font-family="Arial" font-size="10px" fill="#000" opacity="1">100</text><text text-anchor="middle" transform="translate(144,13)" font-family="Arial" font-size="10px" fill="#000" opacity="1">200</text><text text-anchor="middle" transform="translate(192,13)" font-family="Arial" font-size="10px" fill="#000" opacity="1">300</text><text text-anchor="end" transform="translate(240,13)" font-family="Arial" font-size="10px" fill="#000" opacity="1">400</text></g><g class="mark-rule role-axis-domain" pointer-events="none"><line transform="translate(0,0)" x2="240" y2="0" stroke="black" stroke-width="1" opacity="1"/></g><g class="mark-text role-axis-title" pointer-events="none"><text text-anchor="middle" transform="translate(120,28)" font-family="Arial" font-size="11px" font-weight="normal" fill="#000" opacity="1">Time (mins)</text></g></g><path class="foreground" aria-hidden="true" d="" pointer-events="none" display="none"/></g></g><g class="mark-group role-axis" role="graphics-symbol" aria-roledescription="axis" aria-label="Y-axis titled 'Power (kT/min)' for a log scale with values from 0.001 to 10,000,000"><g transform="translate(0.5,0.5)"><path class="background" aria-hidden="true" d="M0,0h0v0h0Z" pointer-events="none"/><g><g class="mark-rule role-axis-tick" pointer-events="none"><line transform="translate(0,180)" x2="-3" y2="0" stroke="black" stroke-width="1" opacity="1"/><line transform="translate(0,162)" x2="-3" y2="0" stroke="black" stroke-width="1" opacity="1"/><line transform="translate(0,144)" x2="-3" y2="0" stroke="black" stroke-width="1" opacity="1"/><line transform="translate(0,126)" x2="-3" y2="0" stroke="black" stroke-width="1" opacity="1"/><line transform="translate(0,108)" x2="-3" y2="0" stroke="black" stroke-width="1" opacity="1"/><line transform="translate(0,90)" x2="-3" y2="0" stroke="black" stroke-width="1" opacity="1"/><line transform="translate(0,72)" x2="-3" y2="0" stroke="black" stroke-width="1" opacity="1"/><line transform="translate(0,54)" x2="-3" y2="0" stroke="black" stroke-width="1" opacity="1"/><line transform="translate(0,36)" x2="-3" y2="0" stroke="black" stroke-width="1" opacity="1"/><line transform="translate(0,18)" x2="-3" y2="0" stroke="black" stroke-width="1" opacity="1"/><line transform="translate(0,0)" x2="-3" y2="0" stroke="black" stroke-width="1" opacity="1"/></g><g class="mark-text role-axis-label" pointer-events="none"><text text-anchor="end" transform="translate(-5,183)" font-family="Arial" font-size="10px" fill="#000" opacity="1">0.001</text><text text-anchor="end" transform="translate(-5,165)" font-family="Arial" font-size="10px" fill="#000" opacity="1">0.01</text><text text-anchor="end" transform="translate(-5,147)" font-family="Arial" font-size="10px" fill="#000" opacity="1">0.1</text><text text-anchor="end" transform="translate(-5,129)" font-family="Arial" font-size="10px" fill="#000" opacity="1">1</text><text text-anchor="end" transform="translate(-5,111)" font-family="Arial" font-size="10px" fill="#000" opacity="1">10</text><text text-anchor="end" transform="translate(-5,93)" font-family="Arial" font-size="10px" fill="#000" opacity="1">100</text><text text-anchor="end" transform="translate(-5,75)" font-family="Arial" font-size="10px" fill="#000" opacity="1">1,000</text><text text-anchor="end" transform="translate(-5,56.999999999999986)" font-family="Arial" font-size="10px" fill="#000" opacity="1">10,000</text><text text-anchor="end" transform="translate(-5,38.99999999999999)" font-family="Arial" font-size="10px" fill="#000" opacity="1">100,000</text><text text-anchor="end" transform="translate(-5,21.000000000000014)" font-family="Arial" font-size="10px" fill="#000" opacity="1">1,000,000</text><text text-anchor="end" transform="translate(-5,3)" font-family="Arial" font-size="10px" fill="#000" opacity="1">10,000,000</text></g><g class="mark-rule role-axis-domain" pointer-events="none"><line transform="translate(0,180)" x2="0" y2="-180" stroke="black" stroke-width="1" opacity="1"/></g><g class="mark-text role-axis-title" pointer-events="none"><text text-anchor="middle" transform="translate(-59.048828125,90) rotate(-90) translate(0,-2)" font-family="Arial" font-size="11px" font-weight="normal" fill="#000" opacity="1">Power (kT/min)</text></g></g><path class="foreground" aria-hidden="true" d="" pointer-events="none" display="none"/></g></g><g class="mark-group role-scope layer_0_pathgroup" role="graphics-object" aria-roledescription="group mark container"><g transform="translate(0,0)"><path class="background" aria-hidden="true" d="M0,0h240v180h-240Z"/><g><g class="mark-line role-mark layer_0_marks" role="graphics-object" aria-roledescription="line mark container"><path aria-label="t: −100; P: 0.528372920185; process: Transcription" role="graphics-symbol" aria-roledescription="line mark" d="M0,130.987L0.48,130.987L0.96,130.987L1.44,130.987L1.92,130.987L2.4,130.987L2.88,130.987L3.36,130.987L3.84,130.987L4.32,130.987L4.8,130.987L5.28,130.987L5.76,130.987L6.24,130.987L6.72,130.987L7.2,130.987L7.68,130.987L8.16,130.987L8.64,130.987L9.12,130.987L9.6,130.987L10.08,130.987L10.56,130.987L11.04,130.987L11.52,130.987L12,130.987L12.48,130.987L12.96,130.987L13.44,130.987L13.92,130.987L14.4,130.987L14.88,130.987L15.36,130.987L15.84,130.987L16.32,130.987L16.8,130.987L17.28,130.987L17.76,130.987L18.24,130.987L18.72,130.987L19.2,130.987L19.68,130.987L20.16,130.987L20.64,130.987L21.12,130.987L21.6,130.987L22.08,130.987L22.56,130.987L23.04,130.987L23.52,130.987L24,130.987L24.48,130.987L24.96,130.987L25.44,130.987L25.92,130.987L26.4,130.987L26.88,130.987L27.36,130.987L27.84,130.987L28.32,130.987L28.8,130.987L29.28,130.987L29.76,130.987L30.24,130.987L30.72,130.987L31.2,130.987L31.68,130.987L32.16,130.987L32.64,130.987L33.12,130.987L33.6,130.987L34.08,130.987L34.56,130.987L35.04,130.987L35.52,130.987L36,130.987L36.48,130.987L36.96,130.987L37.44,130.987L37.92,130.987L38.4,130.987L38.88,130.987L39.36,130.987L39.84,130.987L40.32,130.987L40.8,130.987L41.28,130.987L41.76,130.987L42.24,130.987L42.72,130.987L43.2,130.987L43.68,130.987L44.16,130.987L44.64,130.987L45.12,130.987L45.6,130.987L46.08,130.987L46.56,130.987L47.04,130.987L47.52,130.987L48,90.947L48.48,92.054L48.96,92.317L49.44,92.47L49.92,92.576L50.4,92.654L50.88,92.716L51.36,92.766L51.84,92.807L52.32,92.841L52.8,92.87L53.28,92.895L53.76,92.917L54.24,92.936L54.72,92.952L55.2,92.966L55.68,92.979L56.16,92.99L56.64,93L57.12,93.009L57.6,93.017L58.08,93.024L58.56,93.03L59.04,93.036L59.52,93.041L60,93.045L60.48,93.049L60.96,93.053L61.44,93.056L61.92,93.059L62.4,93.062L62.88,93.064L63.36,93.066L63.84,93.068L64.32,93.07L64.8,93.071L65.28,93.073L65.76,93.074L66.24,93.075L66.72,93.076L67.2,93.077L67.68,93.078L68.16,93.079L68.64,93.079L69.12,93.08L69.6,93.081L70.08,93.081L70.56,93.082L71.04,93.082L71.52,93.082L72,93.083L72.48,93.083L72.96,93.083L73.44,93.084L73.92,93.084L74.4,93.084L74.88,93.084L75.36,93.084L75.84,93.085L76.32,93.085L76.8,93.085L77.28,93.085L77.76,93.085L78.24,93.085L78.72,93.085L79.2,93.085L79.68,93.085L80.16,93.085L80.64,93.086L81.12,93.086L81.6,93.086L82.08,93.086L82.56,93.086L83.04,93.086L83.52,93.086L84,93.086L84.48,93.086L84.96,93.086L85.44,93.086L85.92,93.086L86.4,93.086L86.88,93.086L87.36,93.086L87.84,93.086L88.32,93.086L88.8,93.086L89.28,93.086L89.76,93.086L90.24,93.086L90.72,93.086L91.2,93.086L91.68,93.086L92.16,93.086L92.64,93.086L93.12,93.086L93.6,93.086L94.08,93.086L94.56,93.086L95.04,93.086L95.52,93.086L96,93.086L96.48,93.086L96.96,93.086L97.44,93.086L97.92,93.086L98.4,93.086L98.88,93.086L99.36,93.086L99.84,93.086L100.32,93.086L100.8,93.086L101.28,93.086L101.76,93.086L102.24,93.086L102.72,93.086L103.2,93.086L103.68,93.086L104.16,93.086L104.64,93.086L105.12,93.086L105.6,93.086L106.08,93.086L106.56,93.086L107.04,93.086L107.52,93.086L108,93.086L108.48,93.086L108.96,93.086L109.44,93.086L109.92,93.086L110.4,93.086L110.88,93.086L111.36,93.086L111.84,93.086L112.32,93.086L112.8,93.086L113.28,93.086L113.76,93.086L114.24,93.086L114.72,93.086L115.2,93.086L115.68,93.086L116.16,93.086L116.64,93.086L117.12,93.086L117.6,93.086L118.08,93.086L118.56,93.086L119.04,93.086L119.52,93.086L120,93.086L120.48,93.086L120.96,93.086L121.44,93.086L121.92,93.086L122.4,93.086L122.88,93.086L123.36,93.086L123.84,93.086L124.32,93.086L124.8,93.086L125.28,93.086L125.76,93.086L126.24,93.086L126.72,93.086L127.2,93.086L127.68,93.086L128.16,93.086L128.64,93.086L129.12,93.086L129.6,93.086L130.08,93.086L130.56,93.086L131.04,93.086L131.52,93.086L132,93.086L132.48,93.086L132.96,93.086L133.44,93.086L133.92,93.086L134.4,93.086L134.88,93.086L135.36,93.086L135.84,93.086L136.32,93.086L136.8,93.086L137.28,93.086L137.76,93.086L138.24,93.086L138.72,93.086L139.2,93.086L139.68,93.086L140.16,93.086L140.64,93.086L141.12,93.086L141.6,93.086L142.08,93.086L142.56,93.086L143.04,93.086L143.52,93.086L144,93.086L144.48,93.086L144.96,93.086L145.44,93.086L145.92,93.086L146.4,93.086L146.88,93.086L147.36,93.086L147.84,93.086L148.32,93.086L148.8,93.086L149.28,93.086L149.76,93.086L150.24,93.086L150.72,93.086L151.2,93.086L151.68,93.086L152.16,93.086L152.64,93.086L153.12,93.086L153.6,93.086L154.08,93.086L154.56,93.086L155.04,93.086L155.52,93.086L156,93.086L156.48,93.086L156.96,93.086L157.44,93.086L157.92,93.086L158.4,93.086L158.88,93.086L159.36,93.086L159.84,93.086L160.32,93.086L160.8,93.086L161.28,93.086L161.76,93.086L162.24,93.086L162.72,93.086L163.2,93.086L163.68,93.086L164.16,93.086L164.64,93.086L165.12,93.086L165.6,93.086L166.08,93.086L166.56,93.086L167.04,93.086L167.52,93.086L168,93.086L168.48,93.086L168.96,93.086L169.44,93.086L169.92,93.086L170.4,93.086L170.88,93.086L171.36,93.086L171.84,93.086L172.32,93.086L172.8,93.086L173.28,93.086L173.76,93.086L174.24,93.086L174.72,93.086L175.2,93.086L175.68,93.086L176.16,93.086L176.64,93.086L177.12,93.086L177.6,93.086L178.08,93.086L178.56,93.086L179.04,93.086L179.52,93.086L180,93.086L180.48,93.086L180.96,93.086L181.44,93.086L181.92,93.086L182.4,93.086L182.88,93.086L183.36,93.086L183.84,93.086L184.32,93.086L184.8,93.086L185.28,93.086L185.76,93.086L186.24,93.086L186.72,93.086L187.2,93.086L187.68,93.086L188.16,93.086L188.64,93.086L189.12,93.086L189.6,93.086L190.08,93.086L190.56,93.086L191.04,93.086L191.52,93.086L192,93.086L192.48,93.086L192.96,93.086L193.44,93.086L193.92,93.086L194.4,93.086L194.88,93.086L195.36,93.086L195.84,93.086L196.32,93.086L196.8,93.086L197.28,93.086L197.76,93.086L198.24,93.086L198.72,93.086L199.2,93.086L199.68,93.086L200.16,93.086L200.64,93.086L201.12,93.086L201.6,93.086L202.08,93.086L202.56,93.086L203.04,93.086L203.52,93.086L204,93.086L204.48,93.086L204.96,93.086L205.44,93.086L205.92,93.086L206.4,93.086L206.88,93.086L207.36,93.086L207.84,93.086L208.32,93.086L208.8,93.086L209.28,93.086L209.76,93.086L210.24,93.086L210.72,93.086L211.2,93.086L211.68,93.086L212.16,93.086L212.64,93.086L213.12,93.086L213.6,93.086L214.08,93.086L214.56,93.086L215.04,93.086L215.52,93.086L216,93.086L216.48,93.086L216.96,93.086L217.44,93.086L217.92,93.086L218.4,93.086L218.88,93.086L219.36,93.086L219.84,93.086L220.32,93.086L220.8,93.086L221.28,93.086L221.76,93.086L222.24,93.086L222.72,93.086L223.2,93.086L223.68,93.086L224.16,93.086L224.64,93.086L225.12,93.086L225.6,93.086L226.08,93.086L226.56,93.086L227.04,93.086L227.52,93.086L228,93.086L228.48,93.086L228.96,93.086L229.44,93.086L229.92,93.086L230.4,93.086L230.88,93.086L231.36,93.086L231.84,93.086L232.32,93.086L232.8,93.086L233.28,93.086L233.76,93.086L234.24,93.086L234.72,93.086L235.2,93.086L235.68,93.086L236.16,93.086L236.64,93.086L237.12,93.086L237.6,93.086L238.08,93.086L238.56,93.086L239.04,93.086L239.52,93.086L240,93.086" stroke="#1f77b4" stroke-width="2"/></g></g><path class="foreground" aria-hidden="true" d="" display="none"/></g><g transform="translate(0,0)"><path class="background" aria-hidden="true" d="M0,0h240v180h-240Z"/><g><g class="mark-line role-mark layer_0_marks" role="graphics-object" aria-roledescription="line mark container"><path aria-label="t: −100; P: 19.0522978069; process: Complex binding" role="graphics-symbol" aria-roledescription="line mark" d="M0,102.961L0.48,102.961L0.96,102.961L1.44,102.961L1.92,102.961L2.4,102.961L2.88,102.961L3.36,102.961L3.84,102.961L4.32,102.961L4.8,102.961L5.28,102.961L5.76,102.961L6.24,102.961L6.72,102.961L7.2,102.961L7.68,102.961L8.16,102.961L8.64,102.961L9.12,102.961L9.6,102.961L10.08,102.961L10.56,102.961L11.04,102.961L11.52,102.961L12,102.961L12.48,102.961L12.96,102.961L13.44,102.961L13.92,102.961L14.4,102.961L14.88,102.961L15.36,102.961L15.84,102.961L16.32,102.961L16.8,102.961L17.28,102.961L17.76,102.961L18.24,102.961L18.72,102.961L19.2,102.961L19.68,102.961L20.16,102.961L20.64,102.961L21.12,102.961L21.6,102.961L22.08,102.961L22.56,102.961L23.04,102.961L23.52,102.961L24,102.961L24.48,102.961L24.96,102.961L25.44,102.961L25.92,102.961L26.4,102.961L26.88,102.961L27.36,102.961L27.84,102.961L28.32,102.961L28.8,102.961L29.28,102.961L29.76,102.961L30.24,102.961L30.72,102.961L31.2,102.961L31.68,102.961L32.16,102.961L32.64,102.961L33.12,102.961L33.6,102.961L34.08,102.961L34.56,102.961L35.04,102.961L35.52,102.961L36,102.961L36.48,102.961L36.96,102.961L37.44,102.961L37.92,102.961L38.4,102.961L38.88,102.961L39.36,102.961L39.84,102.961L40.32,102.961L40.8,102.961L41.28,102.961L41.76,102.961L42.24,102.961L42.72,102.961L43.2,102.961L43.68,102.961L44.16,102.961L44.64,102.961L45.12,102.961L45.6,102.961L46.08,102.961L46.56,102.961L47.04,102.961L47.52,102.961L48,102.961L48.48,80.89L48.96,76.083L49.44,73.369L49.92,71.531L50.4,70.176L50.88,69.125L51.36,68.283L51.84,67.593L52.32,67.018L52.8,66.532L53.28,66.117L53.76,65.759L54.24,65.45L54.72,65.18L55.2,64.944L55.68,64.736L56.16,64.553L56.64,64.39L57.12,64.247L57.6,64.119L58.08,64.005L58.56,63.903L59.04,63.812L59.52,63.731L60,63.658L60.48,63.593L60.96,63.534L61.44,63.482L61.92,63.434L62.4,63.392L62.88,63.353L63.36,63.319L63.84,63.288L64.32,63.259L64.8,63.234L65.28,63.211L65.76,63.191L66.24,63.172L66.72,63.155L67.2,63.14L67.68,63.127L68.16,63.114L68.64,63.103L69.12,63.093L69.6,63.084L70.08,63.076L70.56,63.068L71.04,63.061L71.52,63.055L72,63.05L72.48,63.045L72.96,63.04L73.44,63.036L73.92,63.033L74.4,63.029L74.88,63.026L75.36,63.023L75.84,63.021L76.32,63.019L76.8,63.017L77.28,63.015L77.76,63.013L78.24,63.012L78.72,63.01L79.2,63.009L79.68,63.008L80.16,63.007L80.64,63.006L81.12,63.005L81.6,63.005L82.08,63.004L82.56,63.003L83.04,63.003L83.52,63.002L84,63.002L84.48,63.001L84.96,63.001L85.44,63.001L85.92,63L86.4,63L86.88,63L87.36,63L87.84,62.999L88.32,62.999L88.8,62.999L89.28,62.999L89.76,62.999L90.24,62.999L90.72,62.999L91.2,62.999L91.68,62.998L92.16,62.998L92.64,62.998L93.12,62.998L93.6,62.998L94.08,62.998L94.56,62.998L95.04,62.998L95.52,62.998L96,62.998L96.48,62.998L96.96,62.998L97.44,62.998L97.92,62.998L98.4,62.998L98.88,62.998L99.36,62.998L99.84,62.998L100.32,62.998L100.8,62.998L101.28,62.998L101.76,62.998L102.24,62.998L102.72,62.998L103.2,62.998L103.68,62.998L104.16,62.998L104.64,62.998L105.12,62.998L105.6,62.998L106.08,62.998L106.56,62.998L107.04,62.998L107.52,62.998L108,62.998L108.48,62.998L108.96,62.998L109.44,62.998L109.92,62.998L110.4,62.998L110.88,62.998L111.36,62.998L111.84,62.998L112.32,62.998L112.8,62.998L113.28,62.998L113.76,62.998L114.24,62.998L114.72,62.998L115.2,62.998L115.68,62.998L116.16,62.998L116.64,62.998L117.12,62.998L117.6,62.998L118.08,62.998L118.56,62.998L119.04,62.998L119.52,62.998L120,62.998L120.48,62.998L120.96,62.998L121.44,62.998L121.92,62.998L122.4,62.998L122.88,62.998L123.36,62.998L123.84,62.998L124.32,62.998L124.8,62.998L125.28,62.998L125.76,62.998L126.24,62.998L126.72,62.998L127.2,62.998L127.68,62.998L128.16,62.998L128.64,62.998L129.12,62.998L129.6,62.998L130.08,62.998L130.56,62.998L131.04,62.998L131.52,62.998L132,62.998L132.48,62.998L132.96,62.998L133.44,62.998L133.92,62.998L134.4,62.998L134.88,62.998L135.36,62.998L135.84,62.998L136.32,62.998L136.8,62.998L137.28,62.998L137.76,62.998L138.24,62.998L138.72,62.998L139.2,62.998L139.68,62.998L140.16,62.998L140.64,62.998L141.12,62.998L141.6,62.998L142.08,62.998L142.56,62.998L143.04,62.998L143.52,62.998L144,62.998L144.48,62.998L144.96,62.998L145.44,62.998L145.92,62.998L146.4,62.998L146.88,62.998L147.36,62.998L147.84,62.998L148.32,62.998L148.8,62.998L149.28,62.998L149.76,62.998L150.24,62.998L150.72,62.998L151.2,62.998L151.68,62.998L152.16,62.998L152.64,62.998L153.12,62.998L153.6,62.998L154.08,62.998L154.56,62.998L155.04,62.998L155.52,62.998L156,62.998L156.48,62.998L156.96,62.998L157.44,62.998L157.92,62.998L158.4,62.998L158.88,62.998L159.36,62.998L159.84,62.998L160.32,62.998L160.8,62.998L161.28,62.998L161.76,62.998L162.24,62.998L162.72,62.998L163.2,62.998L163.68,62.998L164.16,62.998L164.64,62.998L165.12,62.998L165.6,62.998L166.08,62.998L166.56,62.998L167.04,62.998L167.52,62.998L168,62.998L168.48,62.998L168.96,62.998L169.44,62.998L169.92,62.998L170.4,62.998L170.88,62.998L171.36,62.998L171.84,62.998L172.32,62.998L172.8,62.998L173.28,62.998L173.76,62.998L174.24,62.998L174.72,62.998L175.2,62.998L175.68,62.998L176.16,62.998L176.64,62.998L177.12,62.998L177.6,62.998L178.08,62.998L178.56,62.998L179.04,62.998L179.52,62.998L180,62.998L180.48,62.998L180.96,62.998L181.44,62.998L181.92,62.998L182.4,62.998L182.88,62.998L183.36,62.998L183.84,62.998L184.32,62.998L184.8,62.998L185.28,62.998L185.76,62.998L186.24,62.998L186.72,62.998L187.2,62.998L187.68,62.998L188.16,62.998L188.64,62.998L189.12,62.998L189.6,62.998L190.08,62.998L190.56,62.998L191.04,62.998L191.52,62.998L192,62.998L192.48,62.998L192.96,62.998L193.44,62.998L193.92,62.998L194.4,62.998L194.88,62.998L195.36,62.998L195.84,62.998L196.32,62.998L196.8,62.998L197.28,62.998L197.76,62.998L198.24,62.998L198.72,62.998L199.2,62.998L199.68,62.998L200.16,62.998L200.64,62.998L201.12,62.998L201.6,62.998L202.08,62.998L202.56,62.998L203.04,62.998L203.52,62.998L204,62.998L204.48,62.998L204.96,62.998L205.44,62.998L205.92,62.998L206.4,62.998L206.88,62.998L207.36,62.998L207.84,62.998L208.32,62.998L208.8,62.998L209.28,62.998L209.76,62.998L210.24,62.998L210.72,62.998L211.2,62.998L211.68,62.998L212.16,62.998L212.64,62.998L213.12,62.998L213.6,62.998L214.08,62.998L214.56,62.998L215.04,62.998L215.52,62.998L216,62.998L216.48,62.998L216.96,62.998L217.44,62.998L217.92,62.998L218.4,62.998L218.88,62.998L219.36,62.998L219.84,62.998L220.32,62.998L220.8,62.998L221.28,62.998L221.76,62.998L222.24,62.998L222.72,62.998L223.2,62.998L223.68,62.998L224.16,62.998L224.64,62.998L225.12,62.998L225.6,62.998L226.08,62.998L226.56,62.998L227.04,62.998L227.52,62.998L228,62.998L228.48,62.998L228.96,62.998L229.44,62.998L229.92,62.998L230.4,62.998L230.88,62.998L231.36,62.998L231.84,62.998L232.32,62.998L232.8,62.998L233.28,62.998L233.76,62.998L234.24,62.998L234.72,62.998L235.2,62.998L235.68,62.998L236.16,62.998L236.64,62.998L237.12,62.998L237.6,62.998L238.08,62.998L238.56,62.998L239.04,62.998L239.52,62.998L240,62.998" stroke="#ff7f0e" stroke-width="2"/></g></g><path class="foreground" aria-hidden="true" d="" display="none"/></g><g transform="translate(0,0)"><path class="background" aria-hidden="true" d="M0,0h240v180h-240Z"/><g><g class="mark-line role-mark layer_0_marks" role="graphics-object" aria-roledescription="line mark container"><path aria-label="t: −100; P: 27777.4007853; process: Translation elongation" role="graphics-symbol" aria-roledescription="line mark" d="M0,46.014L0.48,46.014L0.96,46.014L1.44,46.014L1.92,46.014L2.4,46.014L2.88,46.014L3.36,46.014L3.84,46.014L4.32,46.014L4.8,46.014L5.28,46.014L5.76,46.014L6.24,46.014L6.72,46.014L7.2,46.014L7.68,46.014L8.16,46.014L8.64,46.014L9.12,46.014L9.6,46.014L10.08,46.014L10.56,46.014L11.04,46.014L11.52,46.014L12,46.014L12.48,46.014L12.96,46.014L13.44,46.014L13.92,46.014L14.4,46.014L14.88,46.014L15.36,46.014L15.84,46.014L16.32,46.014L16.8,46.014L17.28,46.014L17.76,46.014L18.24,46.014L18.72,46.014L19.2,46.014L19.68,46.014L20.16,46.014L20.64,46.014L21.12,46.014L21.6,46.014L22.08,46.014L22.56,46.014L23.04,46.014L23.52,46.014L24,46.014L24.48,46.014L24.96,46.014L25.44,46.014L25.92,46.014L26.4,46.014L26.88,46.014L27.36,46.014L27.84,46.014L28.32,46.014L28.8,46.014L29.28,46.014L29.76,46.014L30.24,46.014L30.72,46.014L31.2,46.014L31.68,46.014L32.16,46.014L32.64,46.014L33.12,46.014L33.6,46.014L34.08,46.014L34.56,46.014L35.04,46.014L35.52,46.014L36,46.014L36.48,46.014L36.96,46.014L37.44,46.014L37.92,46.014L38.4,46.014L38.88,46.014L39.36,46.014L39.84,46.014L40.32,46.014L40.8,46.014L41.28,46.014L41.76,46.014L42.24,46.014L42.72,46.014L43.2,46.014L43.68,46.014L44.16,46.014L44.64,46.014L45.12,46.014L45.6,46.014L46.08,46.014L46.56,46.014L47.04,46.014L47.52,46.014L48,46.014L48.48,25.828L48.96,20.015L49.44,16.972L49.92,14.973L50.4,13.523L50.88,12.41L51.36,11.524L51.84,10.801L52.32,10.201L52.8,9.695L53.28,9.264L53.76,8.894L54.24,8.574L54.72,8.295L55.2,8.052L55.68,7.837L56.16,7.649L56.64,7.482L57.12,7.334L57.6,7.202L58.08,7.085L58.56,6.98L59.04,6.887L59.52,6.804L60,6.729L60.48,6.662L60.96,6.602L61.44,6.548L61.92,6.499L62.4,6.455L62.88,6.416L63.36,6.381L63.84,6.349L64.32,6.32L64.8,6.294L65.28,6.271L65.76,6.25L66.24,6.231L66.72,6.213L67.2,6.198L67.68,6.184L68.16,6.171L68.64,6.16L69.12,6.149L69.6,6.14L70.08,6.132L70.56,6.124L71.04,6.117L71.52,6.111L72,6.105L72.48,6.1L72.96,6.096L73.44,6.091L73.92,6.088L74.4,6.084L74.88,6.081L75.36,6.078L75.84,6.076L76.32,6.073L76.8,6.071L77.28,6.07L77.76,6.068L78.24,6.066L78.72,6.065L79.2,6.064L79.68,6.063L80.16,6.062L80.64,6.061L81.12,6.06L81.6,6.059L82.08,6.058L82.56,6.058L83.04,6.057L83.52,6.057L84,6.056L84.48,6.056L84.96,6.055L85.44,6.055L85.92,6.055L86.4,6.055L86.88,6.054L87.36,6.054L87.84,6.054L88.32,6.054L88.8,6.053L89.28,6.053L89.76,6.053L90.24,6.053L90.72,6.053L91.2,6.053L91.68,6.053L92.16,6.053L92.64,6.053L93.12,6.053L93.6,6.052L94.08,6.052L94.56,6.052L95.04,6.052L95.52,6.052L96,6.052L96.48,6.052L96.96,6.052L97.44,6.052L97.92,6.052L98.4,6.052L98.88,6.052L99.36,6.052L99.84,6.052L100.32,6.052L100.8,6.052L101.28,6.052L101.76,6.052L102.24,6.052L102.72,6.052L103.2,6.052L103.68,6.052L104.16,6.052L104.64,6.052L105.12,6.052L105.6,6.052L106.08,6.052L106.56,6.052L107.04,6.052L107.52,6.052L108,6.052L108.48,6.052L108.96,6.052L109.44,6.052L109.92,6.052L110.4,6.052L110.88,6.052L111.36,6.052L111.84,6.052L112.32,6.052L112.8,6.052L113.28,6.052L113.76,6.052L114.24,6.052L114.72,6.052L115.2,6.052L115.68,6.052L116.16,6.052L116.64,6.052L117.12,6.052L117.6,6.052L118.08,6.052L118.56,6.052L119.04,6.052L119.52,6.052L120,6.052L120.48,6.052L120.96,6.052L121.44,6.052L121.92,6.052L122.4,6.052L122.88,6.052L123.36,6.052L123.84,6.052L124.32,6.052L124.8,6.052L125.28,6.052L125.76,6.052L126.24,6.052L126.72,6.052L127.2,6.052L127.68,6.052L128.16,6.052L128.64,6.052L129.12,6.052L129.6,6.052L130.08,6.052L130.56,6.052L131.04,6.052L131.52,6.052L132,6.052L132.48,6.052L132.96,6.052L133.44,6.052L133.92,6.052L134.4,6.052L134.88,6.052L135.36,6.052L135.84,6.052L136.32,6.052L136.8,6.052L137.28,6.052L137.76,6.052L138.24,6.052L138.72,6.052L139.2,6.052L139.68,6.052L140.16,6.052L140.64,6.052L141.12,6.052L141.6,6.052L142.08,6.052L142.56,6.052L143.04,6.052L143.52,6.052L144,6.052L144.48,6.052L144.96,6.052L145.44,6.052L145.92,6.052L146.4,6.052L146.88,6.052L147.36,6.052L147.84,6.052L148.32,6.052L148.8,6.052L149.28,6.052L149.76,6.052L150.24,6.052L150.72,6.052L151.2,6.052L151.68,6.052L152.16,6.052L152.64,6.052L153.12,6.052L153.6,6.052L154.08,6.052L154.56,6.052L155.04,6.052L155.52,6.052L156,6.052L156.48,6.052L156.96,6.052L157.44,6.052L157.92,6.052L158.4,6.052L158.88,6.052L159.36,6.052L159.84,6.052L160.32,6.052L160.8,6.052L161.28,6.052L161.76,6.052L162.24,6.052L162.72,6.052L163.2,6.052L163.68,6.052L164.16,6.052L164.64,6.052L165.12,6.052L165.6,6.052L166.08,6.052L166.56,6.052L167.04,6.052L167.52,6.052L168,6.052L168.48,6.052L168.96,6.052L169.44,6.052L169.92,6.052L170.4,6.052L170.88,6.052L171.36,6.052L171.84,6.052L172.32,6.052L172.8,6.052L173.28,6.052L173.76,6.052L174.24,6.052L174.72,6.052L175.2,6.052L175.68,6.052L176.16,6.052L176.64,6.052L177.12,6.052L177.6,6.052L178.08,6.052L178.56,6.052L179.04,6.052L179.52,6.052L180,6.052L180.48,6.052L180.96,6.052L181.44,6.052L181.92,6.052L182.4,6.052L182.88,6.052L183.36,6.052L183.84,6.052L184.32,6.052L184.8,6.052L185.28,6.052L185.76,6.052L186.24,6.052L186.72,6.052L187.2,6.052L187.68,6.052L188.16,6.052L188.64,6.052L189.12,6.052L189.6,6.052L190.08,6.052L190.56,6.052L191.04,6.052L191.52,6.052L192,6.052L192.48,6.052L192.96,6.052L193.44,6.052L193.92,6.052L194.4,6.052L194.88,6.052L195.36,6.052L195.84,6.052L196.32,6.052L196.8,6.052L197.28,6.052L197.76,6.052L198.24,6.052L198.72,6.052L199.2,6.052L199.68,6.052L200.16,6.052L200.64,6.052L201.12,6.052L201.6,6.052L202.08,6.052L202.56,6.052L203.04,6.052L203.52,6.052L204,6.052L204.48,6.052L204.96,6.052L205.44,6.052L205.92,6.052L206.4,6.052L206.88,6.052L207.36,6.052L207.84,6.052L208.32,6.052L208.8,6.052L209.28,6.052L209.76,6.052L210.24,6.052L210.72,6.052L211.2,6.052L211.68,6.052L212.16,6.052L212.64,6.052L213.12,6.052L213.6,6.052L214.08,6.052L214.56,6.052L215.04,6.052L215.52,6.052L216,6.052L216.48,6.052L216.96,6.052L217.44,6.052L217.92,6.052L218.4,6.052L218.88,6.052L219.36,6.052L219.84,6.052L220.32,6.052L220.8,6.052L221.28,6.052L221.76,6.052L222.24,6.052L222.72,6.052L223.2,6.052L223.68,6.052L224.16,6.052L224.64,6.052L225.12,6.052L225.6,6.052L226.08,6.052L226.56,6.052L227.04,6.052L227.52,6.052L228,6.052L228.48,6.052L228.96,6.052L229.44,6.052L229.92,6.052L230.4,6.052L230.88,6.052L231.36,6.052L231.84,6.052L232.32,6.052L232.8,6.052L233.28,6.052L233.76,6.052L234.24,6.052L234.72,6.052L235.2,6.052L235.68,6.052L236.16,6.052L236.64,6.052L237.12,6.052L237.6,6.052L238.08,6.052L238.56,6.052L239.04,6.052L239.52,6.052L240,6.052" stroke="#2ca02c" stroke-width="2"/></g></g><path class="foreground" aria-hidden="true" d="" display="none"/></g><g transform="translate(0,0)"><path class="background" aria-hidden="true" d="M0,0h240v180h-240Z"/><g><g class="mark-line role-mark layer_0_marks" role="graphics-object" aria-roledescription="line mark container"><path aria-label="t: −100; P: 0.00506061627061; process: Translation termination" role="graphics-symbol" aria-roledescription="line mark" d="M0,167.324L0.48,167.335L0.96,167.345L1.44,167.355L1.92,167.364L2.4,167.374L2.88,167.383L3.36,167.392L3.84,167.401L4.32,167.41L4.8,167.418L5.28,167.426L5.76,167.435L6.24,167.443L6.72,167.45L7.2,167.458L7.68,167.466L8.16,167.473L8.64,167.48L9.12,167.487L9.6,167.494L10.08,167.501L10.56,167.507L11.04,167.514L11.52,167.52L12,167.526L12.48,167.533L12.96,167.539L13.44,167.544L13.92,167.55L14.4,167.556L14.88,167.561L15.36,167.567L15.84,167.572L16.32,167.577L16.8,167.582L17.28,167.587L17.76,167.592L18.24,167.597L18.72,167.601L19.2,167.606L19.68,167.61L20.16,167.615L20.64,167.619L21.12,167.623L21.6,167.627L22.08,167.631L22.56,167.635L23.04,167.639L23.52,167.643L24,167.647L24.48,167.65L24.96,167.654L25.44,167.657L25.92,167.661L26.4,167.664L26.88,167.667L27.36,167.671L27.84,167.674L28.32,167.677L28.8,167.68L29.28,167.683L29.76,167.686L30.24,167.689L30.72,167.691L31.2,167.694L31.68,167.697L32.16,167.699L32.64,167.702L33.12,167.704L33.6,167.707L34.08,167.709L34.56,167.712L35.04,167.714L35.52,167.716L36,167.719L36.48,167.721L36.96,167.723L37.44,167.725L37.92,167.727L38.4,167.729L38.88,167.731L39.36,167.733L39.84,167.735L40.32,167.737L40.8,167.739L41.28,167.74L41.76,167.742L42.24,167.744L42.72,167.746L43.2,167.747L43.68,167.749L44.16,167.75L44.64,167.752L45.12,167.753L45.6,167.755L46.08,167.756L46.56,167.758L47.04,167.759L47.52,167.761L48,167.762L48.48,128.32L48.96,119.15L49.44,115.928L49.92,114.627L50.4,114.112L50.88,113.967L51.36,114.014L51.84,114.166L52.32,114.38L52.8,114.631L53.28,114.904L53.76,115.189L54.24,115.481L54.72,115.776L55.2,116.071L55.68,116.364L56.16,116.653L56.64,116.939L57.12,117.219L57.6,117.495L58.08,117.764L58.56,118.028L59.04,118.285L59.52,118.537L60,118.782L60.48,119.021L60.96,119.254L61.44,119.48L61.92,119.701L62.4,119.915L62.88,120.124L63.36,120.327L63.84,120.524L64.32,120.716L64.8,120.902L65.28,121.083L65.76,121.259L66.24,121.43L66.72,121.595L67.2,121.757L67.68,121.913L68.16,122.065L68.64,122.212L69.12,122.356L69.6,122.495L70.08,122.63L70.56,122.761L71.04,122.889L71.52,123.012L72,123.133L72.48,123.249L72.96,123.363L73.44,123.473L73.92,123.58L74.4,123.684L74.88,123.785L75.36,123.884L75.84,123.979L76.32,124.072L76.8,124.162L77.28,124.25L77.76,124.335L78.24,124.418L78.72,124.499L79.2,124.577L79.68,124.654L80.16,124.728L80.64,124.8L81.12,124.87L81.6,124.939L82.08,125.006L82.56,125.07L83.04,125.134L83.52,125.195L84,125.255L84.48,125.313L84.96,125.37L85.44,125.425L85.92,125.479L86.4,125.532L86.88,125.583L87.36,125.633L87.84,125.682L88.32,125.729L88.8,125.775L89.28,125.82L89.76,125.864L90.24,125.907L90.72,125.949L91.2,125.99L91.68,126.03L92.16,126.068L92.64,126.106L93.12,126.143L93.6,126.179L94.08,126.214L94.56,126.249L95.04,126.282L95.52,126.315L96,126.347L96.48,126.378L96.96,126.409L97.44,126.439L97.92,126.468L98.4,126.496L98.88,126.524L99.36,126.551L99.84,126.577L100.32,126.603L100.8,126.629L101.28,126.653L101.76,126.677L102.24,126.701L102.72,126.724L103.2,126.747L103.68,126.769L104.16,126.79L104.64,126.811L105.12,126.832L105.6,126.852L106.08,126.872L106.56,126.891L107.04,126.91L107.52,126.928L108,126.946L108.48,126.964L108.96,126.981L109.44,126.998L109.92,127.014L110.4,127.03L110.88,127.046L111.36,127.061L111.84,127.076L112.32,127.091L112.8,127.106L113.28,127.12L113.76,127.134L114.24,127.147L114.72,127.16L115.2,127.173L115.68,127.186L116.16,127.198L116.64,127.21L117.12,127.222L117.6,127.234L118.08,127.245L118.56,127.256L119.04,127.267L119.52,127.278L120,127.288L120.48,127.299L120.96,127.309L121.44,127.318L121.92,127.328L122.4,127.337L122.88,127.347L123.36,127.356L123.84,127.364L124.32,127.373L124.8,127.382L125.28,127.39L125.76,127.398L126.24,127.406L126.72,127.414L127.2,127.421L127.68,127.429L128.16,127.436L128.64,127.443L129.12,127.45L129.6,127.457L130.08,127.464L130.56,127.47L131.04,127.477L131.52,127.483L132,127.489L132.48,127.495L132.96,127.501L133.44,127.507L133.92,127.513L134.4,127.518L134.88,127.524L135.36,127.529L135.84,127.534L136.32,127.539L136.8,127.544L137.28,127.549L137.76,127.554L138.24,127.559L138.72,127.563L139.2,127.568L139.68,127.572L140.16,127.577L140.64,127.581L141.12,127.585L141.6,127.589L142.08,127.593L142.56,127.597L143.04,127.601L143.52,127.605L144,127.608L144.48,127.612L144.96,127.615L145.44,127.619L145.92,127.622L146.4,127.626L146.88,127.629L147.36,127.632L147.84,127.635L148.32,127.638L148.8,127.641L149.28,127.644L149.76,127.647L150.24,127.65L150.72,127.653L151.2,127.655L151.68,127.658L152.16,127.661L152.64,127.663L153.12,127.666L153.6,127.668L154.08,127.671L154.56,127.673L155.04,127.675L155.52,127.678L156,127.68L156.48,127.682L156.96,127.684L157.44,127.686L157.92,127.688L158.4,127.69L158.88,127.692L159.36,127.694L159.84,127.696L160.32,127.698L160.8,127.7L161.28,127.701L161.76,127.703L162.24,127.705L162.72,127.706L163.2,127.708L163.68,127.71L164.16,127.711L164.64,127.713L165.12,127.714L165.6,127.716L166.08,127.717L166.56,127.719L167.04,127.72L167.52,127.721L168,127.723L168.48,127.724L168.96,127.725L169.44,127.727L169.92,127.728L170.4,127.729L170.88,127.73L171.36,127.731L171.84,127.733L172.32,127.734L172.8,127.735L173.28,127.736L173.76,127.737L174.24,127.738L174.72,127.739L175.2,127.74L175.68,127.741L176.16,127.742L176.64,127.743L177.12,127.744L177.6,127.745L178.08,127.745L178.56,127.746L179.04,127.747L179.52,127.748L180,127.749L180.48,127.75L180.96,127.75L181.44,127.751L181.92,127.752L182.4,127.753L182.88,127.753L183.36,127.754L183.84,127.755L184.32,127.755L184.8,127.756L185.28,127.757L185.76,127.757L186.24,127.758L186.72,127.759L187.2,127.759L187.68,127.76L188.16,127.76L188.64,127.761L189.12,127.761L189.6,127.762L190.08,127.762L190.56,127.763L191.04,127.763L191.52,127.764L192,127.764L192.48,127.765L192.96,127.765L193.44,127.766L193.92,127.766L194.4,127.767L194.88,127.767L195.36,127.768L195.84,127.768L196.32,127.768L196.8,127.769L197.28,127.769L197.76,127.77L198.24,127.77L198.72,127.77L199.2,127.771L199.68,127.771L200.16,127.771L200.64,127.772L201.12,127.772L201.6,127.772L202.08,127.773L202.56,127.773L203.04,127.773L203.52,127.774L204,127.774L204.48,127.774L204.96,127.775L205.44,127.775L205.92,127.775L206.4,127.775L206.88,127.776L207.36,127.776L207.84,127.776L208.32,127.776L208.8,127.777L209.28,127.777L209.76,127.777L210.24,127.777L210.72,127.778L211.2,127.778L211.68,127.778L212.16,127.778L212.64,127.778L213.12,127.779L213.6,127.779L214.08,127.779L214.56,127.779L215.04,127.779L215.52,127.78L216,127.78L216.48,127.78L216.96,127.78L217.44,127.78L217.92,127.78L218.4,127.781L218.88,127.781L219.36,127.781L219.84,127.781L220.32,127.781L220.8,127.781L221.28,127.782L221.76,127.782L222.24,127.782L222.72,127.782L223.2,127.782L223.68,127.782L224.16,127.782L224.64,127.782L225.12,127.783L225.6,127.783L226.08,127.783L226.56,127.783L227.04,127.783L227.52,127.783L228,127.783L228.48,127.783L228.96,127.783L229.44,127.784L229.92,127.784L230.4,127.784L230.88,127.784L231.36,127.784L231.84,127.784L232.32,127.784L232.8,127.784L233.28,127.784L233.76,127.784L234.24,127.784L234.72,127.785L235.2,127.785L235.68,127.785L236.16,127.785L236.64,127.785L237.12,127.785L237.6,127.785L238.08,127.785L238.56,127.785L239.04,127.785L239.52,127.785L240,127.785" stroke="#d62728" stroke-width="2"/></g></g><path class="foreground" aria-hidden="true" d="" display="none"/></g><g transform="translate(0,0)"><path class="background" aria-hidden="true" d="M0,0h240v180h-240Z"/><g><g class="mark-line role-mark layer_0_marks" role="graphics-object" aria-roledescription="line mark container"><path aria-label="t: −100; P: 0.306593830981; process: mRNA degradation" role="graphics-symbol" aria-roledescription="line mark" d="M0,135.242L0.48,135.242L0.96,135.242L1.44,135.242L1.92,135.242L2.4,135.242L2.88,135.242L3.36,135.242L3.84,135.242L4.32,135.242L4.8,135.242L5.28,135.242L5.76,135.242L6.24,135.242L6.72,135.242L7.2,135.242L7.68,135.242L8.16,135.242L8.64,135.242L9.12,135.242L9.6,135.242L10.08,135.242L10.56,135.242L11.04,135.242L11.52,135.242L12,135.242L12.48,135.242L12.96,135.242L13.44,135.242L13.92,135.242L14.4,135.242L14.88,135.242L15.36,135.242L15.84,135.242L16.32,135.242L16.8,135.242L17.28,135.242L17.76,135.242L18.24,135.242L18.72,135.242L19.2,135.242L19.68,135.242L20.16,135.242L20.64,135.242L21.12,135.242L21.6,135.242L22.08,135.242L22.56,135.242L23.04,135.242L23.52,135.242L24,135.242L24.48,135.242L24.96,135.242L25.44,135.242L25.92,135.242L26.4,135.242L26.88,135.242L27.36,135.242L27.84,135.242L28.32,135.242L28.8,135.242L29.28,135.242L29.76,135.242L30.24,135.242L30.72,135.242L31.2,135.242L31.68,135.242L32.16,135.242L32.64,135.242L33.12,135.242L33.6,135.242L34.08,135.242L34.56,135.242L35.04,135.242L35.52,135.242L36,135.242L36.48,135.242L36.96,135.242L37.44,135.242L37.92,135.242L38.4,135.242L38.88,135.242L39.36,135.242L39.84,135.242L40.32,135.242L40.8,135.242L41.28,135.242L41.76,135.242L42.24,135.242L42.72,135.242L43.2,135.242L43.68,135.242L44.16,135.242L44.64,135.242L45.12,135.242L45.6,135.242L46.08,135.242L46.56,135.242L47.04,135.242L47.52,135.242L48,135.242L48.48,111.563L48.96,106.44L49.44,103.55L49.92,101.594L50.4,100.151L50.88,99.033L51.36,98.137L51.84,97.402L52.32,96.789L52.8,96.271L53.28,95.829L53.76,95.448L54.24,95.118L54.72,94.831L55.2,94.579L55.68,94.357L56.16,94.162L56.64,93.989L57.12,93.835L57.6,93.699L58.08,93.577L58.56,93.469L59.04,93.372L59.52,93.285L60,93.207L60.48,93.138L60.96,93.075L61.44,93.019L61.92,92.968L62.4,92.923L62.88,92.882L63.36,92.845L63.84,92.812L64.32,92.782L64.8,92.755L65.28,92.731L65.76,92.709L66.24,92.689L66.72,92.671L67.2,92.655L67.68,92.64L68.16,92.627L68.64,92.615L69.12,92.604L69.6,92.594L70.08,92.586L70.56,92.578L71.04,92.57L71.52,92.564L72,92.558L72.48,92.553L72.96,92.548L73.44,92.544L73.92,92.54L74.4,92.536L74.88,92.533L75.36,92.53L75.84,92.527L76.32,92.525L76.8,92.523L77.28,92.521L77.76,92.519L78.24,92.517L78.72,92.516L79.2,92.515L79.68,92.514L80.16,92.512L80.64,92.511L81.12,92.511L81.6,92.51L82.08,92.509L82.56,92.508L83.04,92.508L83.52,92.507L84,92.507L84.48,92.506L84.96,92.506L85.44,92.506L85.92,92.505L86.4,92.505L86.88,92.505L87.36,92.505L87.84,92.504L88.32,92.504L88.8,92.504L89.28,92.504L89.76,92.504L90.24,92.504L90.72,92.503L91.2,92.503L91.68,92.503L92.16,92.503L92.64,92.503L93.12,92.503L93.6,92.503L94.08,92.503L94.56,92.503L95.04,92.503L95.52,92.503L96,92.503L96.48,92.503L96.96,92.503L97.44,92.503L97.92,92.503L98.4,92.503L98.88,92.502L99.36,92.502L99.84,92.502L100.32,92.502L100.8,92.502L101.28,92.502L101.76,92.502L102.24,92.502L102.72,92.502L103.2,92.502L103.68,92.502L104.16,92.502L104.64,92.502L105.12,92.502L105.6,92.502L106.08,92.502L106.56,92.502L107.04,92.502L107.52,92.502L108,92.502L108.48,92.502L108.96,92.502L109.44,92.502L109.92,92.502L110.4,92.502L110.88,92.502L111.36,92.502L111.84,92.502L112.32,92.502L112.8,92.502L113.28,92.502L113.76,92.502L114.24,92.502L114.72,92.502L115.2,92.502L115.68,92.502L116.16,92.502L116.64,92.502L117.12,92.502L117.6,92.502L118.08,92.502L118.56,92.502L119.04,92.502L119.52,92.502L120,92.502L120.48,92.502L120.96,92.502L121.44,92.502L121.92,92.502L122.4,92.502L122.88,92.502L123.36,92.502L123.84,92.502L124.32,92.502L124.8,92.502L125.28,92.502L125.76,92.502L126.24,92.502L126.72,92.502L127.2,92.502L127.68,92.502L128.16,92.502L128.64,92.502L129.12,92.502L129.6,92.502L130.08,92.502L130.56,92.502L131.04,92.502L131.52,92.502L132,92.502L132.48,92.502L132.96,92.502L133.44,92.502L133.92,92.502L134.4,92.502L134.88,92.502L135.36,92.502L135.84,92.502L136.32,92.502L136.8,92.502L137.28,92.502L137.76,92.502L138.24,92.502L138.72,92.502L139.2,92.502L139.68,92.502L140.16,92.502L140.64,92.502L141.12,92.502L141.6,92.502L142.08,92.502L142.56,92.502L143.04,92.502L143.52,92.502L144,92.502L144.48,92.502L144.96,92.502L145.44,92.502L145.92,92.502L146.4,92.502L146.88,92.502L147.36,92.502L147.84,92.502L148.32,92.502L148.8,92.502L149.28,92.502L149.76,92.502L150.24,92.502L150.72,92.502L151.2,92.502L151.68,92.502L152.16,92.502L152.64,92.502L153.12,92.502L153.6,92.502L154.08,92.502L154.56,92.502L155.04,92.502L155.52,92.502L156,92.502L156.48,92.502L156.96,92.502L157.44,92.502L157.92,92.502L158.4,92.502L158.88,92.502L159.36,92.502L159.84,92.502L160.32,92.502L160.8,92.502L161.28,92.502L161.76,92.502L162.24,92.502L162.72,92.502L163.2,92.502L163.68,92.502L164.16,92.502L164.64,92.502L165.12,92.502L165.6,92.502L166.08,92.502L166.56,92.502L167.04,92.502L167.52,92.502L168,92.502L168.48,92.502L168.96,92.502L169.44,92.502L169.92,92.502L170.4,92.502L170.88,92.502L171.36,92.502L171.84,92.502L172.32,92.502L172.8,92.502L173.28,92.502L173.76,92.502L174.24,92.502L174.72,92.502L175.2,92.502L175.68,92.502L176.16,92.502L176.64,92.502L177.12,92.502L177.6,92.502L178.08,92.502L178.56,92.502L179.04,92.502L179.52,92.502L180,92.502L180.48,92.502L180.96,92.502L181.44,92.502L181.92,92.502L182.4,92.502L182.88,92.502L183.36,92.502L183.84,92.502L184.32,92.502L184.8,92.502L185.28,92.502L185.76,92.502L186.24,92.502L186.72,92.502L187.2,92.502L187.68,92.502L188.16,92.502L188.64,92.502L189.12,92.502L189.6,92.502L190.08,92.502L190.56,92.502L191.04,92.502L191.52,92.502L192,92.502L192.48,92.502L192.96,92.502L193.44,92.502L193.92,92.502L194.4,92.502L194.88,92.502L195.36,92.502L195.84,92.502L196.32,92.502L196.8,92.502L197.28,92.502L197.76,92.502L198.24,92.502L198.72,92.502L199.2,92.502L199.68,92.502L200.16,92.502L200.64,92.502L201.12,92.502L201.6,92.502L202.08,92.502L202.56,92.502L203.04,92.502L203.52,92.502L204,92.502L204.48,92.502L204.96,92.502L205.44,92.502L205.92,92.502L206.4,92.502L206.88,92.502L207.36,92.502L207.84,92.502L208.32,92.502L208.8,92.502L209.28,92.502L209.76,92.502L210.24,92.502L210.72,92.502L211.2,92.502L211.68,92.502L212.16,92.502L212.64,92.502L213.12,92.502L213.6,92.502L214.08,92.502L214.56,92.502L215.04,92.502L215.52,92.502L216,92.502L216.48,92.502L216.96,92.502L217.44,92.502L217.92,92.502L218.4,92.502L218.88,92.502L219.36,92.502L219.84,92.502L220.32,92.502L220.8,92.502L221.28,92.502L221.76,92.502L222.24,92.502L222.72,92.502L223.2,92.502L223.68,92.502L224.16,92.502L224.64,92.502L225.12,92.502L225.6,92.502L226.08,92.502L226.56,92.502L227.04,92.502L227.52,92.502L228,92.502L228.48,92.502L228.96,92.502L229.44,92.502L229.92,92.502L230.4,92.502L230.88,92.502L231.36,92.502L231.84,92.502L232.32,92.502L232.8,92.502L233.28,92.502L233.76,92.502L234.24,92.502L234.72,92.502L235.2,92.502L235.68,92.502L236.16,92.502L236.64,92.502L237.12,92.502L237.6,92.502L238.08,92.502L238.56,92.502L239.04,92.502L239.52,92.502L240,92.502" stroke="#9467bd" stroke-width="2"/></g></g><path class="foreground" aria-hidden="true" d="" display="none"/></g><g transform="translate(0,0)"><path class="background" aria-hidden="true" d="M0,0h240v180h-240Z"/><g><g class="mark-line role-mark layer_0_marks" role="graphics-object" aria-roledescription="line mark container"><path aria-label="t: −100; P: 1717.51189583; process: Protein degradation" role="graphics-symbol" aria-roledescription="line mark" d="M0,67.772L0.48,67.761L0.96,67.751L1.44,67.741L1.92,67.732L2.4,67.722L2.88,67.713L3.36,67.704L3.84,67.695L4.32,67.686L4.8,67.678L5.28,67.669L5.76,67.661L6.24,67.653L6.72,67.645L7.2,67.638L7.68,67.63L8.16,67.623L8.64,67.616L9.12,67.609L9.6,67.602L10.08,67.595L10.56,67.588L11.04,67.582L11.52,67.575L12,67.569L12.48,67.563L12.96,67.557L13.44,67.551L13.92,67.545L14.4,67.54L14.88,67.534L15.36,67.529L15.84,67.524L16.32,67.518L16.8,67.513L17.28,67.508L17.76,67.504L18.24,67.499L18.72,67.494L19.2,67.49L19.68,67.485L20.16,67.481L20.64,67.476L21.12,67.472L21.6,67.468L22.08,67.464L22.56,67.46L23.04,67.456L23.52,67.452L24,67.449L24.48,67.445L24.96,67.441L25.44,67.438L25.92,67.435L26.4,67.431L26.88,67.428L27.36,67.425L27.84,67.421L28.32,67.418L28.8,67.415L29.28,67.412L29.76,67.409L30.24,67.407L30.72,67.404L31.2,67.401L31.68,67.398L32.16,67.396L32.64,67.393L33.12,67.391L33.6,67.388L34.08,67.386L34.56,67.383L35.04,67.381L35.52,67.379L36,67.376L36.48,67.374L36.96,67.372L37.44,67.37L37.92,67.368L38.4,67.366L38.88,67.364L39.36,67.362L39.84,67.36L40.32,67.358L40.8,67.356L41.28,67.355L41.76,67.353L42.24,67.351L42.72,67.35L43.2,67.348L43.68,67.346L44.16,67.345L44.64,67.343L45.12,67.342L45.6,67.34L46.08,67.339L46.56,67.337L47.04,67.336L47.52,67.334L48,67.333L48.48,66.564L48.96,64.193L49.44,61.328L49.92,58.6L50.4,56.177L50.88,54.063L51.36,52.217L51.84,50.595L52.32,49.16L52.8,47.88L53.28,46.731L53.76,45.693L54.24,44.749L54.72,43.887L55.2,43.096L55.68,42.367L56.16,41.692L56.64,41.067L57.12,40.485L57.6,39.941L58.08,39.433L58.56,38.956L59.04,38.508L59.52,38.087L60,37.689L60.48,37.313L60.96,36.957L61.44,36.62L61.92,36.3L62.4,35.996L62.88,35.707L63.36,35.431L63.84,35.168L64.32,34.918L64.8,34.678L65.28,34.449L65.76,34.23L66.24,34.02L66.72,33.818L67.2,33.625L67.68,33.439L68.16,33.261L68.64,33.09L69.12,32.925L69.6,32.767L70.08,32.614L70.56,32.467L71.04,32.325L71.52,32.188L72,32.056L72.48,31.928L72.96,31.805L73.44,31.686L73.92,31.571L74.4,31.459L74.88,31.352L75.36,31.247L75.84,31.146L76.32,31.049L76.8,30.954L77.28,30.862L77.76,30.773L78.24,30.687L78.72,30.603L79.2,30.522L79.68,30.443L80.16,30.366L80.64,30.292L81.12,30.219L81.6,30.149L82.08,30.081L82.56,30.015L83.04,29.95L83.52,29.887L84,29.826L84.48,29.767L84.96,29.709L85.44,29.653L85.92,29.598L86.4,29.545L86.88,29.493L87.36,29.443L87.84,29.393L88.32,29.345L88.8,29.299L89.28,29.253L89.76,29.209L90.24,29.166L90.72,29.123L91.2,29.082L91.68,29.042L92.16,29.003L92.64,28.965L93.12,28.928L93.6,28.891L94.08,28.856L94.56,28.821L95.04,28.788L95.52,28.755L96,28.723L96.48,28.691L96.96,28.661L97.44,28.631L97.92,28.601L98.4,28.573L98.88,28.545L99.36,28.518L99.84,28.491L100.32,28.465L100.8,28.44L101.28,28.415L101.76,28.391L102.24,28.367L102.72,28.344L103.2,28.321L103.68,28.299L104.16,28.278L104.64,28.257L105.12,28.236L105.6,28.216L106.08,28.196L106.56,28.177L107.04,28.158L107.52,28.139L108,28.121L108.48,28.104L108.96,28.086L109.44,28.069L109.92,28.053L110.4,28.037L110.88,28.021L111.36,28.006L111.84,27.99L112.32,27.976L112.8,27.961L113.28,27.947L113.76,27.933L114.24,27.92L114.72,27.906L115.2,27.893L115.68,27.881L116.16,27.868L116.64,27.856L117.12,27.844L117.6,27.833L118.08,27.821L118.56,27.81L119.04,27.799L119.52,27.788L120,27.778L120.48,27.768L120.96,27.758L121.44,27.748L121.92,27.738L122.4,27.729L122.88,27.719L123.36,27.71L123.84,27.702L124.32,27.693L124.8,27.685L125.28,27.676L125.76,27.668L126.24,27.66L126.72,27.652L127.2,27.645L127.68,27.637L128.16,27.63L128.64,27.623L129.12,27.616L129.6,27.609L130.08,27.602L130.56,27.596L131.04,27.589L131.52,27.583L132,27.577L132.48,27.571L132.96,27.565L133.44,27.559L133.92,27.553L134.4,27.548L134.88,27.542L135.36,27.537L135.84,27.532L136.32,27.526L136.8,27.521L137.28,27.516L137.76,27.512L138.24,27.507L138.72,27.502L139.2,27.498L139.68,27.493L140.16,27.489L140.64,27.485L141.12,27.48L141.6,27.476L142.08,27.472L142.56,27.468L143.04,27.465L143.52,27.461L144,27.457L144.48,27.453L144.96,27.45L145.44,27.446L145.92,27.443L146.4,27.44L146.88,27.436L147.36,27.433L147.84,27.43L148.32,27.427L148.8,27.424L149.28,27.421L149.76,27.418L150.24,27.415L150.72,27.413L151.2,27.41L151.68,27.407L152.16,27.405L152.64,27.402L153.12,27.399L153.6,27.397L154.08,27.395L154.56,27.392L155.04,27.39L155.52,27.388L156,27.385L156.48,27.383L156.96,27.381L157.44,27.379L157.92,27.377L158.4,27.375L158.88,27.373L159.36,27.371L159.84,27.369L160.32,27.367L160.8,27.366L161.28,27.364L161.76,27.362L162.24,27.36L162.72,27.359L163.2,27.357L163.68,27.355L164.16,27.354L164.64,27.352L165.12,27.351L165.6,27.349L166.08,27.348L166.56,27.346L167.04,27.345L167.52,27.344L168,27.342L168.48,27.341L168.96,27.34L169.44,27.338L169.92,27.337L170.4,27.336L170.88,27.335L171.36,27.334L171.84,27.333L172.32,27.331L172.8,27.33L173.28,27.329L173.76,27.328L174.24,27.327L174.72,27.326L175.2,27.325L175.68,27.324L176.16,27.323L176.64,27.322L177.12,27.321L177.6,27.32L178.08,27.32L178.56,27.319L179.04,27.318L179.52,27.317L180,27.316L180.48,27.315L180.96,27.315L181.44,27.314L181.92,27.313L182.4,27.312L182.88,27.312L183.36,27.311L183.84,27.31L184.32,27.31L184.8,27.309L185.28,27.308L185.76,27.308L186.24,27.307L186.72,27.306L187.2,27.306L187.68,27.305L188.16,27.305L188.64,27.304L189.12,27.304L189.6,27.303L190.08,27.303L190.56,27.302L191.04,27.302L191.52,27.301L192,27.301L192.48,27.3L192.96,27.3L193.44,27.299L193.92,27.299L194.4,27.298L194.88,27.298L195.36,27.297L195.84,27.297L196.32,27.297L196.8,27.296L197.28,27.296L197.76,27.295L198.24,27.295L198.72,27.295L199.2,27.294L199.68,27.294L200.16,27.294L200.64,27.293L201.12,27.293L201.6,27.293L202.08,27.292L202.56,27.292L203.04,27.292L203.52,27.291L204,27.291L204.48,27.291L204.96,27.29L205.44,27.29L205.92,27.29L206.4,27.29L206.88,27.289L207.36,27.289L207.84,27.289L208.32,27.289L208.8,27.288L209.28,27.288L209.76,27.288L210.24,27.288L210.72,27.287L211.2,27.287L211.68,27.287L212.16,27.287L212.64,27.287L213.12,27.286L213.6,27.286L214.08,27.286L214.56,27.286L215.04,27.286L215.52,27.285L216,27.285L216.48,27.285L216.96,27.285L217.44,27.285L217.92,27.285L218.4,27.284L218.88,27.284L219.36,27.284L219.84,27.284L220.32,27.284L220.8,27.284L221.28,27.283L221.76,27.283L222.24,27.283L222.72,27.283L223.2,27.283L223.68,27.283L224.16,27.283L224.64,27.283L225.12,27.282L225.6,27.282L226.08,27.282L226.56,27.282L227.04,27.282L227.52,27.282L228,27.282L228.48,27.282L228.96,27.281L229.44,27.281L229.92,27.281L230.4,27.281L230.88,27.281L231.36,27.281L231.84,27.281L232.32,27.281L232.8,27.281L233.28,27.281L233.76,27.281L234.24,27.28L234.72,27.28L235.2,27.28L235.68,27.28L236.16,27.28L236.64,27.28L237.12,27.28L237.6,27.28L238.08,27.28L238.56,27.28L239.04,27.28L239.52,27.28L240,27.28" stroke="#8c564b" stroke-width="2"/></g></g><path class="foreground" aria-hidden="true" d="" display="none"/></g></g><g class="mark-group role-legend" role="graphics-symbol" aria-roledescription="legend" aria-label="Symbol legend for stroke color with 6 values: Transcription, Complex binding, Translation elongation, Translation termination, mRNA degradation, Protein degradation"><g transform="translate(260,0)"><path class="background" aria-hidden="true" d="M0,0h118v76h-118Z" pointer-events="none"/><g><g class="mark-group role-legend-entry"><g transform="translate(0,0)"><path class="background" aria-hidden="true" d="M0,0h0v0h0Z" pointer-events="none"/><g><g class="mark-group role-scope" role="graphics-object" aria-roledescription="group mark container"><g transform="translate(0,0)"><path class="background" aria-hidden="true" d="M0,0h117.3427734375v11h-117.3427734375Z" pointer-events="none" opacity="1"/><g><g class="mark-symbol role-legend-symbol" pointer-events="none"><path transform="translate(6,6)" d="M-5,0L5,0" stroke="#1f77b4" stroke-width="1.5" opacity="1"/></g><g class="mark-text role-legend-label" pointer-events="none"><text text-anchor="start" transform="translate(16,9)" font-family="Arial" font-size="10px" fill="#000" opacity="1">Transcription</text></g></g><path class="foreground" aria-hidden="true" d="" pointer-events="none" display="none"/></g><g transform="translate(0,13)"><path class="background" aria-hidden="true" d="M0,0h117.3427734375v11h-117.3427734375Z" pointer-events="none" opacity="1"/><g><g class="mark-symbol role-legend-symbol" pointer-events="none"><path transform="translate(6,6)" d="M-5,0L5,0" stroke="#ff7f0e" stroke-width="1.5" opacity="1"/></g><g class="mark-text role-legend-label" pointer-events="none"><text text-anchor="start" transform="translate(16,9)" font-family="Arial" font-size="10px" fill="#000" opacity="1">Complex binding</text></g></g><path class="foreground" aria-hidden="true" d="" pointer-events="none" display="none"/></g><g transform="translate(0,26)"><path class="background" aria-hidden="true" d="M0,0h117.3427734375v11h-117.3427734375Z" pointer-events="none" opacity="1"/><g><g class="mark-symbol role-legend-symbol" pointer-events="none"><path transform="translate(6,6)" d="M-5,0L5,0" stroke="#2ca02c" stroke-width="1.5" opacity="1"/></g><g class="mark-text role-legend-label" pointer-events="none"><text text-anchor="start" transform="translate(16,9)" font-family="Arial" font-size="10px" fill="#000" opacity="1">Translation elongation</text></g></g><path class="foreground" aria-hidden="true" d="" pointer-events="none" display="none"/></g><g transform="translate(0,39)"><path class="background" aria-hidden="true" d="M0,0h117.3427734375v11h-117.3427734375Z" pointer-events="none" opacity="1"/><g><g class="mark-symbol role-legend-symbol" pointer-events="none"><path transform="translate(6,6)" d="M-5,0L5,0" stroke="#d62728" stroke-width="1.5" opacity="1"/></g><g class="mark-text role-legend-label" pointer-events="none"><text text-anchor="start" transform="translate(16,9)" font-family="Arial" font-size="10px" fill="#000" opacity="1">Translation termination</text></g></g><path class="foreground" aria-hidden="true" d="" pointer-events="none" display="none"/></g><g transform="translate(0,52)"><path class="background" aria-hidden="true" d="M0,0h117.3427734375v11h-117.3427734375Z" pointer-events="none" opacity="1"/><g><g class="mark-symbol role-legend-symbol" pointer-events="none"><path transform="translate(6,6)" d="M-5,0L5,0" stroke="#9467bd" stroke-width="1.5" opacity="1"/></g><g class="mark-text role-legend-label" pointer-events="none"><text text-anchor="start" transform="translate(16,9)" font-family="Arial" font-size="10px" fill="#000" opacity="1">mRNA degradation</text></g></g><path class="foreground" aria-hidden="true" d="" pointer-events="none" display="none"/></g><g transform="translate(0,65)"><path class="background" aria-hidden="true" d="M0,0h117.3427734375v11h-117.3427734375Z" pointer-events="none" opacity="1"/><g><g class="mark-symbol role-legend-symbol" pointer-events="none"><path transform="translate(6,6)" d="M-5,0L5,0" stroke="#8c564b" stroke-width="1.5" opacity="1"/></g><g class="mark-text role-legend-label" pointer-events="none"><text text-anchor="start" transform="translate(16,9)" font-family="Arial" font-size="10px" fill="#000" opacity="1">Protein degradation</text></g></g><path class="foreground" aria-hidden="true" d="" pointer-events="none" display="none"/></g></g></g><path class="foreground" aria-hidden="true" d="" pointer-events="none" display="none"/></g></g></g><path class="foreground" aria-hidden="true" d="" pointer-events="none" display="none"/></g></g></g><path class="foreground" aria-hidden="true" d="" display="none"/></g></g></g></svg>