<svg xmlns="http://www.w3.org/2000/svg" xmlns:xlink="http://www.w3.org/1999/xlink" version="1.1" class="marks" width="185" height="386" viewBox="0 0 185 386"><rect width="185" height="386" fill="white"/><g fill="none" stroke-miterlimit="10" transform="translate(57,6)"><g class="mark-group role-frame root" role="graphics-object" aria-roledescription="group mark container"><g transform="translate(0,0)"><path class="background" aria-hidden="true" d="M0,0h120v0h-120Z"/><g><g class="mark-group role-scope concat_0_group" role="graphics-object" aria-roledescription="group mark container"><g transform="translate(0,0)"><path class="background" aria-hidden="true" d="M0.5,0.5h120v90h-120Z"/><g><g class="mark-group role-axis" role="graphics-symbol" aria-roledescription="axis" aria-label="X-axis for a linear scale with values from −100 to 400"><g transform="translate(0.5,90.5)"><path class="background" aria-hidden="true" d="M0,0h0v0h0Z" pointer-events="none"/><g><g class="mark-rule role-axis-tick" pointer-events="none"><line transform="translate(24,0)" x2="0" y2="3" stroke="black" stroke-width="1" opacity="1"/><line transform="translate(72,0)" x2="0" y2="3" stroke="black" stroke-width="1" opacity="1"/><line transform="translate(120,0)" x2="0" y2="3" stroke="black" stroke-width="1" opacity="1"/></g><g class="mark-text role-axis-label" pointer-events="none"><text text-anchor="middle" transform="translate(24,13)" font-family="Arial" font-size="10px" fill="#000" opacity="1">0</text><text text-anchor="middle" transform="translate(72,13)" font-family="Arial" font-size="10px" fill="#000" opacity="1">200</text><text text-anchor="end" transform="translate(120,13)" font-family="Arial" font-size="10px" fill="#000" opacity="1">400</text></g><g class="mark-rule role-axis-domain" pointer-events="none"><line transform="translate(0,0)" x2="120" y2="0" stroke="black" stroke-width="1" opacity="1"/></g></g><path class="foreground" aria-hidden="true" d="" pointer-events="none" display="none"/></g></g><g class="mark-group role-axis" role="graphics-symbol" aria-roledescription="axis" aria-label="Y-axis titled 'Inhibition potential' for a linear scale with values from −12 to 6"><g transform="translate(0.5,0.5)"><path class="background" aria-hidden="true" d="M0,0h0v0h0Z" pointer-events="none"/><g><g class="mark-rule role-axis-tick" pointer-events="none"><line transform="translate(0,80)" x2="-3" y2="0" stroke="black" stroke-width="1" opacity="1"/><line transform="translate(0,55)" x2="-3" y2="0" stroke="black" stroke-width="1" opacity="1"/><line transform="translate(0,30)" x2="-3" y2="0" stroke="black" stroke-width="1" opacity="1"/><line transform="translate(0,5)" x2="-3" y2="0" stroke="black" stroke-width="1" opacity="1"/></g><g class="mark-text role-axis-label" pointer-events="none"><text text-anchor="end" transform="translate(-5,83)" font-family="Arial" font-size="10px" fill="#000" opacity="1">−10</text><text text-anchor="end" transform="translate(-5,58.00000000000001)" font-family="Arial" font-size="10px" fill="#000" opacity="1">−5</text><text text-anchor="end" transform="translate(-5,33)" font-family="Arial" font-size="10px" fill="#000" opacity="1">0</text><text text-anchor="end" transform="translate(-5,8.000000000000002)" font-family="Arial" font-size="10px" fill="#000" opacity="1">5</text></g><g class="mark-rule role-axis-domain" pointer-events="none"><line transform="translate(0,90)" x2="0" y2="-90" stroke="black" stroke-width="1" opacity="1"/></g><g class="mark-text role-axis-title" pointer-events="none"><text text-anchor="middle" transform="translate(-25.962890625,45) rotate(-90) translate(0,-2)" font-family="Arial" font-size="11px" font-weight="normal" fill="#000" opacity="1">Inhibition potential</text></g></g><path class="foreground" aria-hidden="true" d="" pointer-events="none" display="none"/></g></g><g class="mark-line role-mark concat_0_layer_0_marks" role="graphics-object" aria-roledescription="line mark container"><path aria-label="t: −100; I: 5.11599580975" role="graphics-symbol" aria-roledescription="line mark" d="M0,4.42L0.24,4.42L0.48,4.42L0.72,4.42L0.96,4.42L1.2,4.42L1.44,4.42L1.68,4.42L1.92,4.42L2.16,4.42L2.4,4.42L2.64,4.42L2.88,4.42L3.12,4.42L3.36,4.42L3.6,4.42L3.84,4.42L4.08,4.42L4.32,4.42L4.56,4.42L4.8,4.42L5.04,4.42L5.28,4.42L5.52,4.42L5.76,4.42L6,4.42L6.24,4.42L6.48,4.42L6.72,4.42L6.96,4.42L7.2,4.42L7.44,4.42L7.68,4.42L7.92,4.42L8.16,4.42L8.4,4.42L8.64,4.42L8.88,4.42L9.12,4.42L9.36,4.42L9.6,4.42L9.84,4.42L10.08,4.42L10.32,4.42L10.56,4.42L10.8,4.42L11.04,4.42L11.28,4.42L11.52,4.42L11.76,4.42L12,4.42L12.24,4.42L12.48,4.42L12.72,4.42L12.96,4.42L13.2,4.42L13.44,4.42L13.68,4.42L13.92,4.42L14.16,4.42L14.4,4.42L14.64,4.42L14.88,4.42L15.12,4.42L15.36,4.42L15.6,4.42L15.84,4.42L16.08,4.42L16.32,4.42L16.56,4.42L16.8,4.42L17.04,4.42L17.28,4.42L17.52,4.42L17.76,4.42L18,4.42L18.24,4.42L18.48,4.42L18.72,4.42L18.96,4.42L19.2,4.42L19.44,4.42L19.68,4.42L19.92,4.42L20.16,4.42L20.4,4.42L20.64,4.42L20.88,4.42L21.12,4.42L21.36,4.42L21.6,4.42L21.84,4.42L22.08,4.42L22.32,4.42L22.56,4.42L22.8,4.42L23.04,4.42L23.28,4.42L23.52,4.42L23.76,4.42L24,81.545L24.24,81.545L24.48,81.545L24.72,81.545L24.96,81.545L25.2,81.545L25.44,81.545L25.68,81.545L25.92,81.545L26.16,81.545L26.4,81.545L26.64,81.545L26.88,81.545L27.12,81.545L27.36,81.545L27.6,81.545L27.84,81.545L28.08,81.545L28.32,81.545L28.56,81.545L28.8,81.545L29.04,81.545L29.28,81.545L29.52,81.545L29.76,81.545L30,81.545L30.24,81.545L30.48,81.545L30.72,81.545L30.96,81.545L31.2,81.545L31.44,81.545L31.68,81.545L31.92,81.545L32.16,81.545L32.4,81.545L32.64,81.545L32.88,81.545L33.12,81.545L33.36,81.545L33.6,81.545L33.84,81.545L34.08,81.545L34.32,81.545L34.56,81.545L34.8,81.545L35.04,81.545L35.28,81.545L35.52,81.545L35.76,81.545L36,81.545L36.24,81.545L36.48,81.545L36.72,81.545L36.96,81.545L37.2,81.545L37.44,81.545L37.68,81.545L37.92,81.545L38.16,81.545L38.4,81.545L38.64,81.545L38.88,81.545L39.12,81.545L39.36,81.545L39.6,81.545L39.84,81.545L40.08,81.545L40.32,81.545L40.56,81.545L40.8,81.545L41.04,81.545L41.28,81.545L41.52,81.545L41.76,81.545L42,81.545L42.24,81.545L42.48,81.545L42.72,81.545L42.96,81.545L43.2,81.545L43.44,81.545L43.68,81.545L43.92,81.545L44.16,81.545L44.4,81.545L44.64,81.545L44.88,81.545L45.12,81.545L45.36,81.545L45.6,81.545L45.84,81.545L46.08,81.545L46.32,81.545L46.56,81.545L46.8,81.545L47.04,81.545L47.28,81.545L47.52,81.545L47.76,81.545L48,81.545L48.24,81.545L48.48,81.545L48.72,81.545L48.96,81.545L49.2,81.545L49.44,81.545L49.68,81.545L49.92,81.545L50.16,81.545L50.4,81.545L50.64,81.545L50.88,81.545L51.12,81.545L51.36,81.545L51.6,81.545L51.84,81.545L52.08,81.545L52.32,81.545L52.56,81.545L52.8,81.545L53.04,81.545L53.28,81.545L53.52,81.545L53.76,81.545L54,81.545L54.24,81.545L54.48,81.545L54.72,81.545L54.96,81.545L55.2,81.545L55.44,81.545L55.68,81.545L55.92,81.545L56.16,81.545L56.4,81.545L56.64,81.545L56.88,81.545L57.12,81.545L57.36,81.545L57.6,81.545L57.84,81.545L58.08,81.545L58.32,81.545L58.56,81.545L58.8,81.545L59.04,81.545L59.28,81.545L59.52,81.545L59.76,81.545L60,81.545L60.24,81.545L60.48,81.545L60.72,81.545L60.96,81.545L61.2,81.545L61.44,81.545L61.68,81.545L61.92,81.545L62.16,81.545L62.4,81.545L62.64,81.545L62.88,81.545L63.12,81.545L63.36,81.545L63.6,81.545L63.84,81.545L64.08,81.545L64.32,81.545L64.56,81.545L64.8,81.545L65.04,81.545L65.28,81.545L65.52,81.545L65.76,81.545L66,81.545L66.24,81.545L66.48,81.545L66.72,81.545L66.96,81.545L67.2,81.545L67.44,81.545L67.68,81.545L67.92,81.545L68.16,81.545L68.4,81.545L68.64,81.545L68.88,81.545L69.12,81.545L69.36,81.545L69.6,81.545L69.84,81.545L70.08,81.545L70.32,81.545L70.56,81.545L70.8,81.545L71.04,81.545L71.28,81.545L71.52,81.545L71.76,81.545L72,81.545L72.24,81.545L72.48,81.545L72.72,81.545L72.96,81.545L73.2,81.545L73.44,81.545L73.68,81.545L73.92,81.545L74.16,81.545L74.4,81.545L74.64,81.545L74.88,81.545L75.12,81.545L75.36,81.545L75.6,81.545L75.84,81.545L76.08,81.545L76.32,81.545L76.56,81.545L76.8,81.545L77.04,81.545L77.28,81.545L77.52,81.545L77.76,81.545L78,81.545L78.24,81.545L78.48,81.545L78.72,81.545L78.96,81.545L79.2,81.545L79.44,81.545L79.68,81.545L79.92,81.545L80.16,81.545L80.4,81.545L80.64,81.545L80.88,81.545L81.12,81.545L81.36,81.545L81.6,81.545L81.84,81.545L82.08,81.545L82.32,81.545L82.56,81.545L82.8,81.545L83.04,81.545L83.28,81.545L83.52,81.545L83.76,81.545L84,81.545L84.24,81.545L84.48,81.545L84.72,81.545L84.96,81.545L85.2,81.545L85.44,81.545L85.68,81.545L85.92,81.545L86.16,81.545L86.4,81.545L86.64,81.545L86.88,81.545L87.12,81.545L87.36,81.545L87.6,81.545L87.84,81.545L88.08,81.545L88.32,81.545L88.56,81.545L88.8,81.545L89.04,81.545L89.28,81.545L89.52,81.545L89.76,81.545L90,81.545L90.24,81.545L90.48,81.545L90.72,81.545L90.96,81.545L91.2,81.545L91.44,81.545L91.68,81.545L91.92,81.545L92.16,81.545L92.4,81.545L92.64,81.545L92.88,81.545L93.12,81.545L93.36,81.545L93.6,81.545L93.84,81.545L94.08,81.545L94.32,81.545L94.56,81.545L94.8,81.545L95.04,81.545L95.28,81.545L95.52,81.545L95.76,81.545L96,81.545L96.24,81.545L96.48,81.545L96.72,81.545L96.96,81.545L97.2,81.545L97.44,81.545L97.68,81.545L97.92,81.545L98.16,81.545L98.4,81.545L98.64,81.545L98.88,81.545L99.12,81.545L99.36,81.545L99.6,81.545L99.84,81.545L100.08,81.545L100.32,81.545L100.56,81.545L100.8,81.545L101.04,81.545L101.28,81.545L101.52,81.545L101.76,81.545L102,81.545L102.24,81.545L102.48,81.545L102.72,81.545L102.96,81.545L103.2,81.545L103.44,81.545L103.68,81.545L103.92,81.545L104.16,81.545L104.4,81.545L104.64,81.545L104.88,81.545L105.12,81.545L105.36,81.545L105.6,81.545L105.84,81.545L106.08,81.545L106.32,81.545L106.56,81.545L106.8,81.545L107.04,81.545L107.28,81.545L107.52,81.545L107.76,81.545L108,81.545L108.24,81.545L108.48,81.545L108.72,81.545L108.96,81.545L109.2,81.545L109.44,81.545L109.68,81.545L109.92,81.545L110.16,81.545L110.4,81.545L110.64,81.545L110.88,81.545L111.12,81.545L111.36,81.545L111.6,81.545L111.84,81.545L112.08,81.545L112.32,81.545L112.56,81.545L112.8,81.545L113.04,81.545L113.28,81.545L113.52,81.545L113.76,81.545L114,81.545L114.24,81.545L114.48,81.545L114.72,81.545L114.96,81.545L115.2,81.545L115.44,81.545L115.68,81.545L115.92,81.545L116.16,81.545L116.4,81.545L116.64,81.545L116.88,81.545L117.12,81.545L117.36,81.545L117.6,81.545L117.84,81.545L118.08,81.545L118.32,81.545L118.56,81.545L118.8,81.545L119.04,81.545L119.28,81.545L119.52,81.545L119.76,81.545L120,81.545" stroke="#1657a8" stroke-width="2"/></g></g><path class="foreground" aria-hidden="true" d="" display="none"/></g></g><g class="mark-group role-scope concat_1_group" role="graphics-object" aria-roledescription="group mark container"><g transform="translate(0,127)"><path class="background" aria-hidden="true" d="M0.5,0.5h120v90h-120Z"/><g><g class="mark-group role-axis" role="graphics-symbol" aria-roledescription="axis" aria-label="X-axis for a linear scale with values from −100 to 400"><g transform="translate(0.5,90.5)"><path class="background" aria-hidden="true" d="M0,0h0v0h0Z" pointer-events="none"/><g><g class="mark-rule role-axis-tick" pointer-events="none"><line transform="translate(24,0)" x2="0" y2="3" stroke="black" stroke-width="1" opacity="1"/><line transform="translate(72,0)" x2="0" y2="3" stroke="black" stroke-width="1" opacity="1"/><line transform="translate(120,0)" x2="0" y2="3" stroke="black" stroke-width="1" opacity="1"/></g><g class="mark-text role-axis-label" pointer-events="none"><text text-anchor="middle" transform="translate(24,13)" font-family="Arial" font-size="10px" fill="#000" opacity="1">0</text><text text-anchor="middle" transform="translate(72,13)" font-family="Arial" font-size="10px" fill="#000" opacity="1">200</text><text text-anchor="end" transform="translate(120,13)" font-family="Arial" font-size="10px" fill="#000" opacity="1">400</text></g><g class="mark-rule role-axis-domain" pointer-events="none"><line transform="translate(0,0)" x2="120" y2="0" stroke="black" stroke-width="1" opacity="1"/></g></g><path class="foreground" aria-hidden="true" d="" pointer-events="none" display="none"/></g></g><g class="mark-group role-axis" role="graphics-symbol" aria-roledescription="axis" aria-label="Y-axis titled 'mRNA' for a linear scale with values from 0 to 45"><g transform="translate(0.5,0.5)"><path class="background" aria-hidden="true" d="M0,0h0v0h0Z" pointer-events="none"/><g><g class="mark-rule role-axis-tick" pointer-events="none"><line transform="translate(0,90)" x2="-3" y2="0" stroke="black" stroke-width="1" opacity="1"/><line transform="translate(0,50)" x2="-3" y2="0" stroke="black" stroke-width="1" opacity="1"/><line transform="translate(0,10)" x2="-3" y2="0" stroke="black" stroke-width="1" opacity="1"/></g><g class="mark-text role-axis-label" pointer-events="none"><text text-anchor="end" transform="translate(-5,93)" font-family="Arial" font-size="10px" fill="#000" opacity="1">0</text><text text-anchor="end" transform="translate(-5,53)" font-family="Arial" font-size="10px" fill="#000" opacity="1">20</text><text text-anchor="end" transform="translate(-5,13.000000000000004)" font-family="Arial" font-size="10px" fill="#000" opacity="1">40</text></g><g class="mark-rule role-axis-domain" pointer-events="none"><line transform="translate(0,90)" x2="0" y2="-90" stroke="black" stroke-width="1" opacity="1"/></g><g class="mark-text role-axis-title" pointer-events="none"><text text-anchor="middle" transform="translate(-20.123046875,45) rotate(-90) translate(0,-2)" font-family="Arial" font-size="11px" font-weight="normal" fill="#000" opacity="1">mRNA</text></g></g><path class="foreground" aria-hidden="true" d="" pointer-events="none" display="none"/></g></g><g class="mark-line role-mark concat_1_layer_0_marks" role="graphics-object" aria-roledescription="line mark container"><path aria-label="t: −100; M: 0.246919225756" role="graphics-symbol" aria-roledescription="line mark" d="M0,89.506L0.24,89.506L0.48,89.506L0.72,89.506L0.96,89.506L1.2,89.506L1.44,89.506L1.68,89.506L1.92,89.506L2.16,89.506L2.4,89.506L2.64,89.506L2.88,89.506L3.12,89.506L3.36,89.506L3.6,89.506L3.84,89.506L4.08,89.506L4.32,89.506L4.56,89.506L4.8,89.506L5.04,89.506L5.28,89.506L5.52,89.506L5.76,89.506L6,89.506L6.24,89.506L6.48,89.506L6.72,89.506L6.96,89.506L7.2,89.506L7.44,89.506L7.68,89.506L7.92,89.506L8.16,89.506L8.4,89.506L8.64,89.506L8.88,89.506L9.12,89.506L9.36,89.506L9.6,89.506L9.84,89.506L10.08,89.506L10.32,89.506L10.56,89.506L10.8,89.506L11.04,89.506L11.28,89.506L11.52,89.506L11.76,89.506L12,89.506L12.24,89.506L12.48,89.506L12.72,89.506L12.96,89.506L13.2,89.506L13.44,89.506L13.68,89.506L13.92,89.506L14.16,89.506L14.4,89.506L14.64,89.506L14.88,89.506L15.12,89.506L15.36,89.506L15.6,89.506L15.84,89.506L16.08,89.506L16.32,89.506L16.56,89.506L16.8,89.506L17.04,89.506L17.28,89.506L17.52,89.506L17.76,89.506L18,89.506L18.24,89.506L18.48,89.506L18.72,89.506L18.96,89.506L19.2,89.506L19.44,89.506L19.68,89.506L19.92,89.506L20.16,89.506L20.4,89.506L20.64,89.506L20.88,89.506L21.12,89.506L21.36,89.506L21.6,89.506L21.84,89.506L22.08,89.506L22.32,89.506L22.56,89.506L22.8,89.506L23.04,89.506L23.28,89.506L23.52,89.506L23.76,89.506L24,89.506L24.24,81.681L24.48,74.6L24.72,68.193L24.96,62.394L25.2,57.147L25.44,52.399L25.68,48.102L25.92,44.213L26.16,40.695L26.4,37.51L26.64,34.629L26.88,32.021L27.12,29.662L27.36,27.527L27.6,25.594L27.84,23.846L28.08,22.263L28.32,20.832L28.56,19.536L28.8,18.363L29.04,17.302L29.28,16.342L29.52,15.473L29.76,14.687L30,13.975L30.24,13.331L30.48,12.749L30.72,12.221L30.96,11.744L31.2,11.313L31.44,10.922L31.68,10.568L31.92,10.248L32.16,9.959L32.4,9.697L32.64,9.46L32.88,9.245L33.12,9.051L33.36,8.875L33.6,8.716L33.84,8.572L34.08,8.442L34.32,8.324L34.56,8.218L34.8,8.121L35.04,8.034L35.28,7.955L35.52,7.883L35.76,7.819L36,7.76L36.24,7.707L36.48,7.659L36.72,7.616L36.96,7.577L37.2,7.541L37.44,7.509L37.68,7.48L37.92,7.453L38.16,7.43L38.4,7.408L38.64,7.389L38.88,7.371L39.12,7.355L39.36,7.34L39.6,7.327L39.84,7.316L40.08,7.305L40.32,7.295L40.56,7.286L40.8,7.278L41.04,7.271L41.28,7.265L41.52,7.259L41.76,7.253L42,7.249L42.24,7.244L42.48,7.24L42.72,7.237L42.96,7.234L43.2,7.231L43.44,7.228L43.68,7.226L43.92,7.223L44.16,7.221L44.4,7.22L44.64,7.218L44.88,7.217L45.12,7.215L45.36,7.214L45.6,7.213L45.84,7.212L46.08,7.211L46.32,7.21L46.56,7.21L46.8,7.209L47.04,7.208L47.28,7.208L47.52,7.207L47.76,7.207L48,7.207L48.24,7.206L48.48,7.206L48.72,7.206L48.96,7.205L49.2,7.205L49.44,7.205L49.68,7.205L49.92,7.205L50.16,7.204L50.4,7.204L50.64,7.204L50.88,7.204L51.12,7.204L51.36,7.204L51.6,7.204L51.84,7.204L52.08,7.204L52.32,7.203L52.56,7.203L52.8,7.203L53.04,7.203L53.28,7.203L53.52,7.203L53.76,7.203L54,7.203L54.24,7.203L54.48,7.203L54.72,7.203L54.96,7.203L55.2,7.203L55.44,7.203L55.68,7.203L55.92,7.203L56.16,7.203L56.4,7.203L56.64,7.203L56.88,7.203L57.12,7.203L57.36,7.203L57.6,7.203L57.84,7.203L58.08,7.203L58.32,7.203L58.56,7.203L58.8,7.203L59.04,7.203L59.28,7.203L59.52,7.203L59.76,7.203L60,7.203L60.24,7.203L60.48,7.203L60.72,7.203L60.96,7.203L61.2,7.203L61.44,7.203L61.68,7.203L61.92,7.203L62.16,7.203L62.4,7.203L62.64,7.203L62.88,7.203L63.12,7.203L63.36,7.203L63.6,7.203L63.84,7.203L64.08,7.203L64.32,7.203L64.56,7.203L64.8,7.203L65.04,7.203L65.28,7.203L65.52,7.203L65.76,7.203L66,7.203L66.24,7.203L66.48,7.203L66.72,7.203L66.96,7.203L67.2,7.203L67.44,7.203L67.68,7.203L67.92,7.203L68.16,7.203L68.4,7.203L68.64,7.203L68.88,7.203L69.12,7.203L69.36,7.203L69.6,7.203L69.84,7.203L70.08,7.203L70.32,7.203L70.56,7.203L70.8,7.203L71.04,7.203L71.28,7.203L71.52,7.203L71.76,7.203L72,7.203L72.24,7.203L72.48,7.203L72.72,7.203L72.96,7.203L73.2,7.203L73.44,7.203L73.68,7.203L73.92,7.203L74.16,7.203L74.4,7.203L74.64,7.203L74.88,7.203L75.12,7.203L75.36,7.203L75.6,7.203L75.84,7.203L76.08,7.203L76.32,7.203L76.56,7.203L76.8,7.203L77.04,7.203L77.28,7.203L77.52,7.203L77.76,7.203L78,7.203L78.24,7.203L78.48,7.203L78.72,7.203L78.96,7.203L79.2,7.203L79.44,7.203L79.68,7.203L79.92,7.203L80.16,7.203L80.4,7.203L80.64,7.203L80.88,7.203L81.12,7.203L81.36,7.203L81.6,7.203L81.84,7.203L82.08,7.203L82.32,7.203L82.56,7.203L82.8,7.203L83.04,7.203L83.28,7.203L83.52,7.203L83.76,7.203L84,7.203L84.24,7.203L84.48,7.203L84.72,7.203L84.96,7.203L85.2,7.203L85.44,7.203L85.68,7.203L85.92,7.203L86.16,7.203L86.4,7.203L86.64,7.203L86.88,7.203L87.12,7.203L87.36,7.203L87.6,7.203L87.84,7.203L88.08,7.203L88.32,7.203L88.56,7.203L88.8,7.203L89.04,7.203L89.28,7.203L89.52,7.203L89.76,7.203L90,7.203L90.24,7.203L90.48,7.203L90.72,7.203L90.96,7.203L91.2,7.203L91.44,7.203L91.68,7.203L91.92,7.203L92.16,7.203L92.4,7.203L92.64,7.203L92.88,7.203L93.12,7.203L93.36,7.203L93.6,7.203L93.84,7.203L94.08,7.203L94.32,7.203L94.56,7.203L94.8,7.203L95.04,7.203L95.28,7.203L95.52,7.203L95.76,7.203L96,7.203L96.24,7.203L96.48,7.203L96.72,7.203L96.96,7.203L97.2,7.203L97.44,7.203L97.68,7.203L97.92,7.203L98.16,7.203L98.4,7.203L98.64,7.203L98.88,7.203L99.12,7.203L99.36,7.203L99.6,7.203L99.84,7.203L100.08,7.203L100.32,7.203L100.56,7.203L100.8,7.203L101.04,7.203L101.28,7.203L101.52,7.203L101.76,7.203L102,7.203L102.24,7.203L102.48,7.203L102.72,7.203L102.96,7.203L103.2,7.203L103.44,7.203L103.68,7.203L103.92,7.203L104.16,7.203L104.4,7.203L104.64,7.203L104.88,7.203L105.12,7.203L105.36,7.203L105.6,7.203L105.84,7.203L106.08,7.203L106.32,7.203L106.56,7.203L106.8,7.203L107.04,7.203L107.28,7.203L107.52,7.203L107.76,7.203L108,7.203L108.24,7.203L108.48,7.203L108.72,7.203L108.96,7.203L109.2,7.203L109.44,7.203L109.68,7.203L109.92,7.203L110.16,7.203L110.4,7.203L110.64,7.203L110.88,7.203L111.12,7.203L111.36,7.203L111.6,7.203L111.84,7.203L112.08,7.203L112.32,7.203L112.56,7.203L112.8,7.203L113.04,7.203L113.28,7.203L113.52,7.203L113.76,7.203L114,7.203L114.24,7.203L114.48,7.203L114.72,7.203L114.96,7.203L115.2,7.203L115.44,7.203L115.68,7.203L115.92,7.203L116.16,7.203L116.4,7.203L116.64,7.203L116.88,7.203L117.12,7.203L117.36,7.203L117.6,7.203L117.84,7.203L118.08,7.203L118.32,7.203L118.56,7.203L118.8,7.203L119.04,7.203L119.28,7.203L119.52,7.203L119.76,7.203L120,7.203" stroke="#1657a8" stroke-width="2"/></g></g><path class="foreground" aria-hidden="true" d="" display="none"/></g></g><g class="mark-group role-scope concat_2_group" role="graphics-object" aria-roledescription="group mark container"><g transform="translate(0,254)"><path class="background" aria-hidden="true" d="M0.5,0.5h120v90h-120Z"/><g><g class="mark-group role-axis" role="graphics-symbol" aria-roledescription="axis" aria-label="X-axis titled 'Time (min)' for a linear scale with values from −100 to 400"><g transform="translate(0.5,90.5)"><path class="background" aria-hidden="true" d="M0,0h0v0h0Z" pointer-events="none"/><g><g class="mark-rule role-axis-tick" pointer-events="none"><line transform="translate(24,0)" x2="0" y2="3" stroke="black" stroke-width="1" opacity="1"/><line transform="translate(72,0)" x2="0" y2="3" stroke="black" stroke-width="1" opacity="1"/><line transform="translate(120,0)" x2="0" y2="3" stroke="black" stroke-width="1" opacity="1"/></g><g class="mark-text role-axis-label" pointer-events="none"><text text-anchor="middle" transform="translate(24,13)" font-family="Arial" font-size="10px" fill="#000" opacity="1">0</text><text text-anchor="middle" transform="translate(72,13)" font-family="Arial" font-size="10px" fill="#000" opacity="1">200</text><text text-anchor="end" transform="translate(120,13)" font-family="Arial" font-size="10px" fill="#000" opacity="1">400</text></g><g class="mark-rule role-axis-domain" pointer-events="none"><line transform="translate(0,0)" x2="120" y2="0" stroke="black" stroke-width="1" opacity="1"/></g><g class="mark-text role-axis-title" pointer-events="none"><text text-anchor="middle" transform="translate(60,28)" font-family="Arial" font-size="11px" font-weight="normal" fill="#000" opacity="1">Time (min)</text></g></g><path class="foreground" aria-hidden="true" d="" pointer-events="none" display="none"/></g></g><g class="mark-group role-axis" role="graphics-symbol" aria-roledescription="axis" aria-label="Y-axis titled 'Protein' for a linear scale with values from 0 to 11,000"><g transform="translate(0.5,0.5)"><path class="background" aria-hidden="true" d="M0,0h0v0h0Z" pointer-events="none"/><g><g class="mark-rule role-axis-tick" pointer-events="none"><line transform="translate(0,90)" x2="-3" y2="0" stroke="black" stroke-width="1" opacity="1"/><line transform="translate(0,49)" x2="-3" y2="0" stroke="black" stroke-width="1" opacity="1"/><line transform="translate(0,8)" x2="-3" y2="0" stroke="black" stroke-width="1" opacity="1"/></g><g class="mark-text role-axis-label" pointer-events="none"><text text-anchor="end" transform="translate(-5,93)" font-family="Arial" font-size="10px" fill="#000" opacity="1">0</text><text text-anchor="end" transform="translate(-5,52.090909090909086)" font-family="Arial" font-size="10px" fill="#000" opacity="1">5,000</text><text text-anchor="end" transform="translate(-5,11.181818181818185)" font-family="Arial" font-size="10px" fill="#000" opacity="1">10,000</text></g><g class="mark-rule role-axis-domain" pointer-events="none"><line transform="translate(0,90)" x2="0" y2="-90" stroke="black" stroke-width="1" opacity="1"/></g><g class="mark-text role-axis-title" pointer-events="none"><text text-anchor="middle" transform="translate(-39.5859375,45) rotate(-90) translate(0,-2)" font-family="Arial" font-size="11px" font-weight="normal" fill="#000" opacity="1">Protein</text></g></g><path class="foreground" aria-hidden="true" d="" pointer-events="none" display="none"/></g></g><g class="mark-line role-mark concat_2_layer_0_marks" role="graphics-object" aria-roledescription="line mark container"><path aria-label="t: −100; P: 57.8653852369" role="graphics-symbol" aria-roledescription="line mark" d="M0,89.527L0.24,89.526L0.48,89.525L0.72,89.525L0.96,89.524L1.2,89.524L1.44,89.523L1.68,89.522L1.92,89.522L2.16,89.521L2.4,89.521L2.64,89.52L2.88,89.52L3.12,89.519L3.36,89.519L3.6,89.518L3.84,89.518L4.08,89.517L4.32,89.517L4.56,89.517L4.8,89.516L5.04,89.516L5.28,89.515L5.52,89.515L5.76,89.515L6,89.514L6.24,89.514L6.48,89.513L6.72,89.513L6.96,89.513L7.2,89.512L7.44,89.512L7.68,89.512L7.92,89.511L8.16,89.511L8.4,89.511L8.64,89.51L8.88,89.51L9.12,89.51L9.36,89.509L9.6,89.509L9.84,89.509L10.08,89.509L10.32,89.508L10.56,89.508L10.8,89.508L11.04,89.508L11.28,89.507L11.52,89.507L11.76,89.507L12,89.507L12.24,89.506L12.48,89.506L12.72,89.506L12.96,89.506L13.2,89.505L13.44,89.505L13.68,89.505L13.92,89.505L14.16,89.505L14.4,89.504L14.64,89.504L14.88,89.504L15.12,89.504L15.36,89.504L15.6,89.504L15.84,89.503L16.08,89.503L16.32,89.503L16.56,89.503L16.8,89.503L17.04,89.503L17.28,89.502L17.52,89.502L17.76,89.502L18,89.502L18.24,89.502L18.48,89.502L18.72,89.502L18.96,89.501L19.2,89.501L19.44,89.501L19.68,89.501L19.92,89.501L20.16,89.501L20.4,89.501L20.64,89.501L20.88,89.501L21.12,89.5L21.36,89.5L21.6,89.5L21.84,89.5L22.08,89.5L22.32,89.5L22.56,89.5L22.8,89.5L23.04,89.5L23.28,89.5L23.52,89.499L23.76,89.499L24,89.499L24.24,89.448L24.48,89.252L24.72,88.921L24.96,88.471L25.2,87.916L25.44,87.269L25.68,86.542L25.92,85.745L26.16,84.888L26.4,83.98L26.64,83.027L26.88,82.037L27.12,81.016L27.36,79.97L27.6,78.902L27.84,77.818L28.08,76.722L28.32,75.616L28.56,74.505L28.8,73.39L29.04,72.275L29.28,71.161L29.52,70.051L29.76,68.946L30,67.847L30.24,66.757L30.48,65.675L30.72,64.604L30.96,63.544L31.2,62.495L31.44,61.459L31.68,60.436L31.92,59.426L32.16,58.43L32.4,57.448L32.64,56.48L32.88,55.527L33.12,54.589L33.36,53.666L33.6,52.757L33.84,51.864L34.08,50.985L34.32,50.121L34.56,49.272L34.8,48.438L35.04,47.618L35.28,46.813L35.52,46.023L35.76,45.246L36,44.484L36.24,43.736L36.48,43.001L36.72,42.28L36.96,41.573L37.2,40.879L37.44,40.197L37.68,39.529L37.92,38.873L38.16,38.23L38.4,37.599L38.64,36.981L38.88,36.374L39.12,35.779L39.36,35.195L39.6,34.622L39.84,34.061L40.08,33.51L40.32,32.971L40.56,32.441L40.8,31.922L41.04,31.413L41.28,30.914L41.52,30.425L41.76,29.946L42,29.475L42.24,29.014L42.48,28.562L42.72,28.119L42.96,27.685L43.2,27.259L43.44,26.842L43.68,26.432L43.92,26.031L44.16,25.638L44.4,25.252L44.64,24.874L44.88,24.504L45.12,24.141L45.36,23.785L45.6,23.436L45.84,23.094L46.08,22.758L46.32,22.43L46.56,22.107L46.8,21.791L47.04,21.482L47.28,21.178L47.52,20.881L47.76,20.589L48,20.303L48.24,20.023L48.48,19.749L48.72,19.479L48.96,19.215L49.2,18.957L49.44,18.703L49.68,18.455L49.92,18.211L50.16,17.972L50.4,17.738L50.64,17.509L50.88,17.284L51.12,17.063L51.36,16.847L51.6,16.635L51.84,16.428L52.08,16.224L52.32,16.025L52.56,15.829L52.8,15.638L53.04,15.45L53.28,15.266L53.52,15.085L53.76,14.908L54,14.735L54.24,14.565L54.48,14.398L54.72,14.235L54.96,14.075L55.2,13.918L55.44,13.764L55.68,13.613L55.92,13.465L56.16,13.32L56.4,13.178L56.64,13.039L56.88,12.903L57.12,12.769L57.36,12.638L57.6,12.51L57.84,12.384L58.08,12.26L58.32,12.139L58.56,12.021L58.8,11.904L59.04,11.79L59.28,11.679L59.52,11.569L59.76,11.462L60,11.357L60.24,11.254L60.48,11.152L60.72,11.053L60.96,10.956L61.2,10.861L61.44,10.768L61.68,10.676L61.92,10.587L62.16,10.499L62.4,10.413L62.64,10.328L62.88,10.246L63.12,10.164L63.36,10.085L63.6,10.007L63.84,9.931L64.08,9.856L64.32,9.782L64.56,9.71L64.8,9.64L65.04,9.571L65.28,9.503L65.52,9.437L65.76,9.372L66,9.308L66.24,9.245L66.48,9.184L66.72,9.124L66.96,9.065L67.2,9.007L67.44,8.951L67.68,8.895L67.92,8.841L68.16,8.787L68.4,8.735L68.64,8.684L68.88,8.634L69.12,8.585L69.36,8.536L69.6,8.489L69.84,8.443L70.08,8.397L70.32,8.353L70.56,8.309L70.8,8.266L71.04,8.225L71.28,8.183L71.52,8.143L71.76,8.104L72,8.065L72.24,8.027L72.48,7.99L72.72,7.953L72.96,7.918L73.2,7.883L73.44,7.848L73.68,7.815L73.92,7.782L74.16,7.749L74.4,7.718L74.64,7.687L74.88,7.656L75.12,7.626L75.36,7.597L75.6,7.568L75.84,7.54L76.08,7.513L76.32,7.486L76.56,7.459L76.8,7.433L77.04,7.408L77.28,7.383L77.52,7.359L77.76,7.335L78,7.311L78.24,7.288L78.48,7.266L78.72,7.244L78.96,7.222L79.2,7.201L79.44,7.18L79.68,7.159L79.92,7.139L80.16,7.12L80.4,7.101L80.64,7.082L80.88,7.063L81.12,7.045L81.36,7.027L81.6,7.01L81.84,6.993L82.08,6.976L82.32,6.96L82.56,6.944L82.8,6.928L83.04,6.913L83.28,6.898L83.52,6.883L83.76,6.868L84,6.854L84.24,6.84L84.48,6.826L84.72,6.813L84.96,6.8L85.2,6.787L85.44,6.774L85.68,6.762L85.92,6.75L86.16,6.738L86.4,6.726L86.64,6.715L86.88,6.704L87.12,6.693L87.36,6.682L87.6,6.671L87.84,6.661L88.08,6.651L88.32,6.641L88.56,6.631L88.8,6.622L89.04,6.612L89.28,6.603L89.52,6.594L89.76,6.585L90,6.577L90.24,6.568L90.48,6.56L90.72,6.552L90.96,6.544L91.2,6.536L91.44,6.528L91.68,6.521L91.92,6.514L92.16,6.506L92.4,6.499L92.64,6.492L92.88,6.486L93.12,6.479L93.36,6.472L93.6,6.466L93.84,6.46L94.08,6.454L94.32,6.448L94.56,6.442L94.8,6.436L95.04,6.43L95.28,6.425L95.52,6.419L95.76,6.414L96,6.409L96.24,6.403L96.48,6.398L96.72,6.393L96.96,6.389L97.2,6.384L97.44,6.379L97.68,6.375L97.92,6.37L98.16,6.366L98.4,6.362L98.64,6.357L98.88,6.353L99.12,6.349L99.36,6.345L99.6,6.341L99.84,6.338L100.08,6.334L100.32,6.33L100.56,6.327L100.8,6.323L101.04,6.32L101.28,6.316L101.52,6.313L101.76,6.31L102,6.307L102.24,6.303L102.48,6.3L102.72,6.297L102.96,6.294L103.2,6.292L103.44,6.289L103.68,6.286L103.92,6.283L104.16,6.281L104.4,6.278L104.64,6.276L104.88,6.273L105.12,6.271L105.36,6.268L105.6,6.266L105.84,6.264L106.08,6.261L106.32,6.259L106.56,6.257L106.8,6.255L107.04,6.253L107.28,6.251L107.52,6.249L107.76,6.247L108,6.245L108.24,6.243L108.48,6.241L108.72,6.239L108.96,6.237L109.2,6.236L109.44,6.234L109.68,6.232L109.92,6.231L110.16,6.229L110.4,6.227L110.64,6.226L110.88,6.224L111.12,6.223L111.36,6.221L111.6,6.22L111.84,6.219L112.08,6.217L112.32,6.216L112.56,6.215L112.8,6.213L113.04,6.212L113.28,6.211L113.52,6.21L113.76,6.208L114,6.207L114.24,6.206L114.48,6.205L114.72,6.204L114.96,6.203L115.2,6.202L115.44,6.201L115.68,6.2L115.92,6.199L116.16,6.198L116.4,6.197L116.64,6.196L116.88,6.195L117.12,6.194L117.36,6.193L117.6,6.192L117.84,6.191L118.08,6.191L118.32,6.19L118.56,6.189L118.8,6.188L119.04,6.187L119.28,6.187L119.52,6.186L119.76,6.185L120,6.184" stroke="#1657a8" stroke-width="2"/></g></g><path class="foreground" aria-hidden="true" d="" display="none"/></g></g></g><path class="foreground" aria-hidden="true" d="" display="none"/></g></g></g></svg>