<svg xmlns="http://www.w3.org/2000/svg" xmlns:xlink="http://www.w3.org/1999/xlink" version="1.1" class="marks" width="301" height="175" viewBox="0 0 301 175"><rect width="301" height="175" fill="white"/><g fill="none" stroke-miterlimit="10" transform="translate(39,5)"><g class="mark-group role-frame root" role="graphics-object" aria-roledescription="group mark container"><g transform="translate(0,0)"><path class="background" aria-hidden="true" d="M0.5,0.5h180v135h-180Z" stroke="black"/><g><g class="mark-group role-axis" role="graphics-symbol" aria-roledescription="axis" aria-label="X-axis titled 'm' for a linear scale with values from 0 to 40"><g transform="translate(0.5,135.5)"><path class="background" aria-hidden="true" d="M0,0h0v0h0Z" pointer-events="none"/><g><g class="mark-rule role-axis-tick" pointer-events="none"><line transform="translate(0,0)" x2="0" y2="3" stroke="black" stroke-width="1" opacity="1"/><line transform="translate(45,0)" x2="0" y2="3" stroke="black" stroke-width="1" opacity="1"/><line transform="translate(90,0)" x2="0" y2="3" stroke="black" stroke-width="1" opacity="1"/><line transform="translate(135,0)" x2="0" y2="3" stroke="black" stroke-width="1" opacity="1"/><line transform="translate(180,0)" x2="0" y2="3" stroke="black" stroke-width="1" opacity="1"/></g><g class="mark-text role-axis-label" pointer-events="none"><text text-anchor="start" transform="translate(0,13)" font-family="Arial" font-size="10px" fill="#000" opacity="1">0</text><text text-anchor="middle" transform="translate(45,13)" font-family="Arial" font-size="10px" fill="#000" opacity="1">10</text><text text-anchor="middle" transform="translate(90,13)" font-family="Arial" font-size="10px" fill="#000" opacity="1">20</text><text text-anchor="middle" transform="translate(135,13)" font-family="Arial" font-size="10px" fill="#000" opacity="1">30</text><text text-anchor="end" transform="translate(180,13)" font-family="Arial" font-size="10px" fill="#000" opacity="1">40</text></g><g class="mark-rule role-axis-domain" pointer-events="none"><line transform="translate(0,0)" x2="180" y2="0" stroke="black" stroke-width="1" opacity="1"/></g><g class="mark-text role-axis-title" pointer-events="none"><text text-anchor="middle" transform="translate(90,28)" font-family="Arial" font-size="11px" font-weight="normal" fill="#000" opacity="1">m</text></g></g><path class="foreground" aria-hidden="true" d="" pointer-events="none" display="none"/></g></g><g class="mark-group role-axis" role="graphics-symbol" aria-roledescription="axis" aria-label="Y-axis titled 'Elongation rate' for a linear scale with values from 0.0 to 0.7"><g transform="translate(0.5,0.5)"><path class="background" aria-hidden="true" d="M0,0h0v0h0Z" pointer-events="none"/><g><g class="mark-rule role-axis-tick" pointer-events="none"><line transform="translate(0,135)" x2="-3" y2="0" stroke="black" stroke-width="1" opacity="1"/><line transform="translate(0,93)" x2="-3" y2="0" stroke="black" stroke-width="1" opacity="1"/><line transform="translate(0,52)" x2="-3" y2="0" stroke="black" stroke-width="1" opacity="1"/><line transform="translate(0,10)" x2="-3" y2="0" stroke="black" stroke-width="1" opacity="1"/></g><g class="mark-text role-axis-label" pointer-events="none"><text text-anchor="end" transform="translate(-5,138)" font-family="Arial" font-size="10px" fill="#000" opacity="1">0.0</text><text text-anchor="end" transform="translate(-5,96.46153846153845)" font-family="Arial" font-size="10px" fill="#000" opacity="1">0.2</text><text text-anchor="end" transform="translate(-5,54.92307692307692)" font-family="Arial" font-size="10px" fill="#000" opacity="1">0.4</text><text text-anchor="end" transform="translate(-5,13.384615384615392)" font-family="Arial" font-size="10px" fill="#000" opacity="1">0.6</text></g><g class="mark-rule role-axis-domain" pointer-events="none"><line transform="translate(0,135)" x2="0" y2="-135" stroke="black" stroke-width="1" opacity="1"/></g><g class="mark-text role-axis-title" pointer-events="none"><text text-anchor="middle" transform="translate(-22.9013671875,67.5) rotate(-90) translate(0,-2)" font-family="Arial" font-size="11px" font-weight="normal" fill="#000" opacity="1">Elongation rate</text></g></g><path class="foreground" aria-hidden="true" d="" pointer-events="none" display="none"/></g></g><g class="mark-group role-scope layer_0_pathgroup" role="graphics-object" aria-roledescription="group mark container"><g transform="translate(0,0)"><path class="background" aria-hidden="true" d="M0,0h180v135h-180Z"/><g><g class="mark-line role-mark layer_0_marks" role="graphics-object" aria-roledescription="line mark container"><path aria-label="m: 2; v: 0.609090909091; model: Full" role="graphics-symbol" aria-roledescription="line mark" d="M9,8.497L13.5,42.109L18,58.64L22.5,68.343L27,74.637L31.5,78.989L36,82.132L40.5,84.474L45,86.261L49.5,87.648L54,88.739L58.5,89.607L63,90.304L67.5,90.867L72,91.324L76.5,91.697L81,92.003L85.5,92.254L90,92.46L94.5,92.631L99,92.772L103.5,92.889L108,92.985L112.5,93.065L117,93.132L121.5,93.187L126,93.233L130.5,93.272L135,93.303L139.5,93.33L144,93.352L148.5,93.37L153,93.385L157.5,93.398L162,93.409L166.5,93.418L171,93.425L175.5,93.431L180,93.436" stroke="#1657a8" stroke-width="2" stroke-dasharray="4,0"/></g></g><path class="foreground" aria-hidden="true" d="" display="none"/></g><g transform="translate(0,0)"><path class="background" aria-hidden="true" d="M0,0h180v135h-180Z"/><g><g class="mark-line role-mark layer_0_marks" role="graphics-object" aria-roledescription="line mark container"><path aria-label="m: 2; v: 0.609090909091; model: Reduced" role="graphics-symbol" aria-roledescription="line mark" d="M9,8.497L13.5,42.109L18,58.64L22.5,68.343L27,74.637L31.5,78.989L36,82.132L40.5,84.474L45,86.261L49.5,87.648L54,88.739L58.5,89.607L63,90.304L67.5,90.867L72,91.324L76.5,91.697L81,92.003L85.5,92.254L90,92.46L94.5,92.631L99,92.772L103.5,92.889L108,92.985L112.5,93.065L117,93.132L121.5,93.187L126,93.233L130.5,93.272L135,93.303L139.5,93.33L144,93.352L148.5,93.37L153,93.385L157.5,93.398L162,93.409L166.5,93.418L171,93.425L175.5,93.431L180,93.436" stroke="#f462a3" stroke-width="2" stroke-dasharray="4,4"/></g></g><path class="foreground" aria-hidden="true" d="" display="none"/></g></g><g class="mark-group role-legend" role="graphics-symbol" aria-roledescription="legend" aria-label="Symbol legend for stroke color and strokeDash with 2 values: Full, Reduced"><g transform="translate(200,0)"><path class="background" aria-hidden="true" d="M0,0h57v24h-57Z" pointer-events="none"/><g><g class="mark-group role-legend-entry"><g transform="translate(0,0)"><path class="background" aria-hidden="true" d="M0,0h0v0h0Z" pointer-events="none"/><g><g class="mark-group role-scope" role="graphics-object" aria-roledescription="group mark container"><g transform="translate(0,0)"><path class="background" aria-hidden="true" d="M0,0h56.029296875v11h-56.029296875Z" pointer-events="none" opacity="1"/><g><g class="mark-symbol role-legend-symbol" pointer-events="none"><path transform="translate(6,6)" d="M-5,0L5,0" stroke="#1657a8" stroke-width="1.5" stroke-dasharray="4,0" opacity="1"/></g><g class="mark-text role-legend-label" pointer-events="none"><text text-anchor="start" transform="translate(16,9)" font-family="Arial" font-size="10px" fill="#000" opacity="1">Full</text></g></g><path class="foreground" aria-hidden="true" d="" pointer-events="none" display="none"/></g><g transform="translate(0,13)"><path class="background" aria-hidden="true" d="M0,0h56.029296875v11h-56.029296875Z" pointer-events="none" opacity="1"/><g><g class="mark-symbol role-legend-symbol" pointer-events="none"><path transform="translate(6,6)" d="M-5,0L5,0" stroke="#f462a3" stroke-width="1.5" stroke-dasharray="4,4" opacity="1"/></g><g class="mark-text role-legend-label" pointer-events="none"><text text-anchor="start" transform="translate(16,9)" font-family="Arial" font-size="10px" fill="#000" opacity="1">Reduced</text></g></g><path class="foreground" aria-hidden="true" d="" pointer-events="none" display="none"/></g></g></g><path class="foreground" aria-hidden="true" d="" pointer-events="none" display="none"/></g></g></g><path class="foreground" aria-hidden="true" d="" pointer-events="none" display="none"/></g></g></g><path class="foreground" aria-hidden="true" d="" display="none"/></g></g></g></svg>