<svg xmlns="http://www.w3.org/2000/svg" xmlns:xlink="http://www.w3.org/1999/xlink" version="1.1" class="marks" width="177" height="130" viewBox="0 0 177 130"><rect width="177" height="130" fill="white"/><g fill="none" stroke-miterlimit="10" transform="translate(51,5)"><g class="mark-group role-frame root" role="graphics-object" aria-roledescription="group mark container"><g transform="translate(0,0)"><path class="background" aria-hidden="true" d="M0.5,0.5h120v90h-120Z"/><g><g class="mark-group role-axis" role="graphics-symbol" aria-roledescription="axis" aria-label="X-axis titled 'Time (min)' for a linear scale with values from 0 to 160"><g transform="translate(0.5,90.5)"><path class="background" aria-hidden="true" d="M0,0h0v0h0Z" pointer-events="none"/><g><g class="mark-rule role-axis-tick" pointer-events="none"><line transform="translate(0,0)" x2="0" y2="3" stroke="black" stroke-width="1" opacity="1"/><line transform="translate(38,0)" x2="0" y2="3" stroke="black" stroke-width="1" opacity="1"/><line transform="translate(75,0)" x2="0" y2="3" stroke="black" stroke-width="1" opacity="1"/><line transform="translate(113,0)" x2="0" y2="3" stroke="black" stroke-width="1" opacity="1"/></g><g class="mark-text role-axis-label" pointer-events="none"><text text-anchor="start" transform="translate(0,13)" font-family="Arial" font-size="10px" fill="#000" opacity="1">0</text><text text-anchor="middle" transform="translate(37.5,13)" font-family="Arial" font-size="10px" fill="#000" opacity="1">50</text><text text-anchor="middle" transform="translate(75,13)" font-family="Arial" font-size="10px" fill="#000" opacity="1">100</text><text text-anchor="middle" transform="translate(112.5,13)" font-family="Arial" font-size="10px" fill="#000" opacity="1">150</text></g><g class="mark-rule role-axis-domain" pointer-events="none"><line transform="translate(0,0)" x2="120" y2="0" stroke="black" stroke-width="1" opacity="1"/></g><g class="mark-text role-axis-title" pointer-events="none"><text text-anchor="middle" transform="translate(60,28)" font-family="Arial" font-size="11px" font-weight="normal" fill="#000" opacity="1">Time (min)</text></g></g><path class="foreground" aria-hidden="true" d="" pointer-events="none" display="none"/></g></g><g class="mark-group role-axis" role="graphics-symbol" aria-roledescription="axis" aria-label="Y-axis titled 'Protein' for a linear scale with values from 0 to 3,500"><g transform="translate(0.5,0.5)"><path class="background" aria-hidden="true" d="M0,0h0v0h0Z" pointer-events="none"/><g><g class="mark-rule role-axis-tick" pointer-events="none"><line transform="translate(0,90)" x2="-3" y2="0" stroke="black" stroke-width="1" opacity="1"/><line transform="translate(0,64)" x2="-3" y2="0" stroke="black" stroke-width="1" opacity="1"/><line transform="translate(0,39)" x2="-3" y2="0" stroke="black" stroke-width="1" opacity="1"/><line transform="translate(0,13)" x2="-3" y2="0" stroke="black" stroke-width="1" opacity="1"/></g><g class="mark-text role-axis-label" pointer-events="none"><text text-anchor="end" transform="translate(-5,93)" font-family="Arial" font-size="10px" fill="#000" opacity="1">0</text><text text-anchor="end" transform="translate(-5,67.28571428571429)" font-family="Arial" font-size="10px" fill="#000" opacity="1">1,000</text><text text-anchor="end" transform="translate(-5,41.57142857142858)" font-family="Arial" font-size="10px" fill="#000" opacity="1">2,000</text><text text-anchor="end" transform="translate(-5,15.857142857142861)" font-family="Arial" font-size="10px" fill="#000" opacity="1">3,000</text></g><g class="mark-rule role-axis-domain" pointer-events="none"><line transform="translate(0,90)" x2="0" y2="-90" stroke="black" stroke-width="1" opacity="1"/></g><g class="mark-text role-axis-title" pointer-events="none"><text text-anchor="middle" transform="translate(-34.0244140625,45) rotate(-90) translate(0,-2)" font-family="Arial" font-size="11px" font-weight="normal" fill="#000" opacity="1">Protein</text></g></g><path class="foreground" aria-hidden="true" d="" pointer-events="none" display="none"/></g></g><g class="mark-group role-scope layer_0_pathgroup" role="graphics-object" aria-roledescription="group mark container"><g transform="translate(0,0)"><path class="background" aria-hidden="true" d="M0,0h120v90h-120Z"/><g><g class="mark-line role-mark layer_0_marks" role="graphics-object" aria-roledescription="line mark container"><path aria-label="t: 0; P: 100; gene: Gene 1" role="graphics-symbol" aria-roledescription="line mark" d="M0,87.429L0.75,87.043L1.5,84.474L2.25,80.087L3,74.436L3.75,68.062L4.5,61.426L5.25,54.875L6,48.642L6.75,42.872L7.5,37.636L8.25,32.958L9,28.827L9.75,25.218L10.5,22.1L11.25,19.484L12,17.647L12.75,17.607L13.5,20.149L14.25,24.735L15,30.46L15.75,36.623L16.5,42.767L17.25,48.617L18,54.021L18.75,58.908L19.5,63.262L20.25,67.095L21,70.44L21.75,73.341L22.5,75.841L23.25,77.987L24,79.823L24.75,81.388L25.5,82.72L26.25,83.852L27,84.811L27.75,85.623L28.5,86.309L29.25,86.89L30,87.38L30.75,87.793L31.5,88.142L32.25,88.436L33,88.683L33.75,88.892L34.5,89.068L35.25,89.215L36,89.34L36.75,89.444L37.5,89.532L38.25,89.606L39,89.668L39.75,89.718L40.5,89.759L41.25,89.79L42,89.808L42.75,89.81L43.5,89.784L44.25,89.709L45,89.543L45.75,89.209L46.5,88.572L47.25,87.423L48,85.492L48.75,82.532L49.5,78.444L50.25,73.351L51,67.542L51.75,61.367L52.5,55.144L53.25,49.121L54,43.464L54.75,38.273L55.5,33.591L56.25,29.425L57,25.759L57.75,22.558L58.5,19.783L59.25,17.39L60,15.336L60.75,13.579L61.5,12.08L62.25,10.807L63,9.73L63.75,8.829L64.5,8.15L65.25,8.166L66,10.176L66.75,14.606L67.5,20.653L68.25,27.453L69,34.399L69.75,41.114L70.5,47.38L71.25,53.089L72,58.202L72.75,62.722L73.5,66.68L74.25,70.119L75,73.089L75.75,75.643L76.5,77.831L77.25,79.698L78,81.289L78.75,82.64L79.5,83.786L80.25,84.758L81,85.579L81.75,86.274L82.5,86.861L83.25,87.356L84,87.773L84.75,88.125L85.5,88.422L86.25,88.672L87,88.882L87.75,89.06L88.5,89.209L89.25,89.334L90,89.44L90.75,89.528L91.5,89.603L92.25,89.665L93,89.716L93.75,89.757L94.5,89.789L95.25,89.808L96,89.811L96.75,89.788L97.5,89.718L98.25,89.561L99,89.244L99.75,88.636L100.5,87.536L101.25,85.675L102,82.8L102.75,78.797L103.5,73.772L104.25,68.006L105,61.847L105.75,55.617L106.5,49.572L107.25,43.883L108,38.653L108.75,33.931L109.5,29.727L110.25,26.023L111,22.788L111.75,19.982L112.5,17.561" stroke="#1657a8" stroke-width="2"/></g></g><path class="foreground" aria-hidden="true" d="" display="none"/></g><g transform="translate(0,0)"><path class="background" aria-hidden="true" d="M0,0h120v90h-120Z"/><g><g class="mark-line role-mark layer_0_marks" role="graphics-object" aria-roledescription="line mark container"><path aria-label="t: 0; P: 100; gene: Gene 3" role="graphics-symbol" aria-roledescription="line mark" d="M0,87.429L0.75,87.838L1.5,88.181L2.25,88.469L3,88.71L3.75,88.912L4.5,89.08L5.25,89.219L6,89.331L6.75,89.416L7.5,89.472L8.25,89.491L9,89.452L9.75,89.32L10.5,89.026L11.25,88.45L12,87.405L12.75,85.64L13.5,82.907L14.25,79.074L15,74.214L15.75,68.58L16.5,62.506L17.25,56.317L18,50.273L18.75,44.558L19.5,39.285L20.25,34.509L21,30.246L21.75,26.484L22.5,23.193L23.25,20.335L24,17.868L24.75,15.747L25.5,13.931L26.25,12.382L27,11.065L27.75,9.952L28.5,9.033L29.25,8.436L30,8.974L30.75,11.874L31.5,16.968L32.25,23.341L33,30.217L33.75,37.083L34.5,43.626L35.25,49.673L36,55.146L36.75,60.022L37.5,64.317L38.25,68.067L39,71.318L39.75,74.121L40.5,76.527L41.25,78.585L42,80.341L42.75,81.835L43.5,83.103L44.25,84.179L45,85.09L45.75,85.86L46.5,86.511L47.25,87.061L48,87.524L48.75,87.916L49.5,88.245L50.25,88.523L51,88.757L51.75,88.954L52.5,89.12L53.25,89.259L54,89.377L54.75,89.476L55.5,89.559L56.25,89.628L57,89.686L57.75,89.733L58.5,89.771L59.25,89.798L60,89.812L60.75,89.806L61.5,89.768L62.25,89.671L63,89.463L63.75,89.053L64.5,88.284L65.25,86.924L66,84.699L66.75,81.391L67.5,76.97L68.25,71.621L69,65.662L69.75,59.441L70.5,53.257L71.25,47.332L72,41.811L72.75,36.774L73.5,32.252L74.25,28.243L75,24.724L75.75,21.659L76.5,19.007L77.25,16.723L78,14.764L78.75,13.091L79.5,11.665L80.25,10.455L81,9.433L81.75,8.589L82.5,8.031L83.25,8.514L84,11.307L84.75,16.338L85.5,22.697L86.25,29.594L87,36.5L87.75,43.095L88.5,49.198L89.25,54.725L90,59.654L90.75,63.997L91.5,67.79L92.25,71.079L93,73.917L93.75,76.353L94.5,78.437L95.25,80.215L96,81.728L96.75,83.013L97.5,84.102L98.25,85.025L99,85.805L99.75,86.465L100.5,87.022L101.25,87.492L102,87.888L102.75,88.222L103.5,88.503L104.25,88.74L105,88.94L105.75,89.108L106.5,89.25L107.25,89.369L108,89.469L108.75,89.553L109.5,89.623L110.25,89.682L111,89.73L111.75,89.768L112.5,89.796" stroke="#6626bb" stroke-width="2"/></g></g><path class="foreground" aria-hidden="true" d="" display="none"/></g><g transform="translate(0,0)"><path class="background" aria-hidden="true" d="M0,0h120v90h-120Z"/><g><g class="mark-line role-mark layer_0_marks" role="graphics-object" aria-roledescription="line mark container"><path aria-label="t: 0; P: 1000; gene: Gene 2" role="graphics-symbol" aria-roledescription="line mark" d="M0,64.286L0.75,67.627L1.5,69.147L2.25,70.576L3,72.277L3.75,74.108L4.5,75.934L5.25,77.675L6,79.283L6.75,80.738L7.5,82.035L8.25,83.176L9,84.173L9.75,85.037L10.5,85.781L11.25,86.421L12,86.968L12.75,87.434L13.5,87.831L14.25,88.168L15,88.454L15.75,88.696L16.5,88.9L17.25,89.073L18,89.219L18.75,89.342L19.5,89.446L20.25,89.533L21,89.606L21.75,89.667L22.5,89.716L23.25,89.755L24,89.781L24.75,89.793L25.5,89.78L26.25,89.726L27,89.598L27.75,89.332L28.5,88.814L29.25,87.862L30,86.22L30.75,83.621L31.5,79.905L32.25,75.12L33,69.512L33.75,63.423L34.5,57.186L35.25,51.076L36,45.285L36.75,39.934L37.5,35.081L38.25,30.746L39,26.918L39.75,23.568L40.5,20.657L41.25,18.143L42,15.981L42.75,14.13L43.5,12.55L44.25,11.206L45,10.066L45.75,9.108L46.5,8.341L47.25,8.031L48,9.295L48.75,13.035L49.5,18.684L50.25,25.327L51,32.277L51.75,39.091L52.5,45.511L53.25,51.398L54,56.694L54.75,61.394L55.5,65.52L56.25,69.114L57,72.223L57.75,74.9L58.5,77.194L59.25,79.155L60,80.827L60.75,82.248L61.5,83.454L62.25,84.476L63,85.341L63.75,86.073L64.5,86.691L65.25,87.212L66,87.652L66.75,88.023L67.5,88.336L68.25,88.6L69,88.821L69.75,89.008L70.5,89.166L71.25,89.298L72,89.409L72.75,89.503L73.5,89.581L74.25,89.647L75,89.701L75.75,89.746L76.5,89.78L77.25,89.804L78,89.812L78.75,89.799L79.5,89.746L80.25,89.622L81,89.365L81.75,88.865L82.5,87.942L83.25,86.345L84,83.803L84.75,80.145L85.5,75.411L86.25,69.837L87,63.762L87.75,57.523L88.5,51.399L89.25,45.586L90,40.208L90.75,35.328L91.5,30.965L92.25,27.11L93,23.735L93.75,20.802L94.5,18.267L95.25,16.088L96,14.221L96.75,12.628L97.5,11.272L98.25,10.122L99,9.154L99.75,8.373L100.5,8.003L101.25,9.097L102,12.655L102.75,18.193L103.5,24.789L104.25,31.735L105,38.572L105.75,45.029L106.5,50.96L107.25,56.304L108,61.05L108.75,65.219L109.5,68.853L110.25,71.998L111,74.706L111.75,77.029L112.5,79.014" stroke="#048059" stroke-width="2"/></g></g><path class="foreground" aria-hidden="true" d="" display="none"/></g></g><g class="mark-group role-scope layer_1_pathgroup" role="graphics-object" aria-roledescription="group mark container"><g transform="translate(0,0)"><path class="background" aria-hidden="true" d="M0,0h120v90h-120Z"/><g><g class="mark-line role-mark layer_1_marks" role="graphics-object" aria-roledescription="line mark container"><path aria-label="t: 0; P: 100; gene: Gene 1" role="graphics-symbol" aria-roledescription="line mark" d="M0,87.429L0.75,87.043L1.5,84.474L2.25,80.087L3,74.436L3.75,68.062L4.5,61.426L5.25,54.875L6,48.642L6.75,42.872L7.5,37.636L8.25,32.958L9,28.827L9.75,25.218L10.5,22.1L11.25,19.484L12,17.647L12.75,17.607L13.5,20.149L14.25,24.735L15,30.46L15.75,36.623L16.5,42.767L17.25,48.617L18,54.021L18.75,58.908L19.5,63.262L20.25,67.095L21,70.44L21.75,73.341L22.5,75.841L23.25,77.987L24,79.823L24.75,81.388L25.5,82.72L26.25,83.852L27,84.811L27.75,85.623L28.5,86.309L29.25,86.89L30,87.38L30.75,87.793L31.5,88.142L32.25,88.436L33,88.683L33.75,88.892L34.5,89.068L35.25,89.215L36,89.34L36.75,89.444L37.5,89.532L38.25,89.606L39,89.668L39.75,89.718L40.5,89.759L41.25,89.79L42,89.808L42.75,89.81L43.5,89.784L44.25,89.709L45,89.543L45.75,89.209L46.5,88.572L47.25,87.423L48,85.492L48.75,82.532L49.5,78.444L50.25,73.351L51,67.542L51.75,61.367L52.5,55.144L53.25,49.121L54,43.464L54.75,38.273L55.5,33.591L56.25,29.425L57,25.759L57.75,22.558L58.5,19.783L59.25,17.39L60,15.336L60.75,13.579L61.5,12.08L62.25,10.807L63,9.73L63.75,8.829L64.5,8.15L65.25,8.166L66,10.176L66.75,14.606L67.5,20.653L68.25,27.453L69,34.399L69.75,41.114L70.5,47.38L71.25,53.089L72,58.202L72.75,62.722L73.5,66.68L74.25,70.119L75,73.089L75.75,75.643L76.5,77.831L77.25,79.698L78,81.289L78.75,82.64L79.5,83.786L80.25,84.758L81,85.579L81.75,86.274L82.5,86.861L83.25,87.356L84,87.773L84.75,88.125L85.5,88.422L86.25,88.672L87,88.882L87.75,89.06L88.5,89.209L89.25,89.334L90,89.44L90.75,89.528L91.5,89.603L92.25,89.665L93,89.716L93.75,89.757L94.5,89.789L95.25,89.808L96,89.811L96.75,89.788L97.5,89.718L98.25,89.561L99,89.244L99.75,88.636L100.5,87.536L101.25,85.675L102,82.8L102.75,78.797L103.5,73.772L104.25,68.006L105,61.847L105.75,55.617L106.5,49.572L107.25,43.883L108,38.653L108.75,33.931L109.5,29.727L110.25,26.023L111,22.788L111.75,19.982L112.5,17.561" stroke="#f462a3" stroke-width="2" stroke-dasharray="4,4"/></g></g><path class="foreground" aria-hidden="true" d="" display="none"/></g><g transform="translate(0,0)"><path class="background" aria-hidden="true" d="M0,0h120v90h-120Z"/><g><g class="mark-line role-mark layer_1_marks" role="graphics-object" aria-roledescription="line mark container"><path aria-label="t: 0; P: 100; gene: Gene 3" role="graphics-symbol" aria-roledescription="line mark" d="M0,87.429L0.75,87.838L1.5,88.181L2.25,88.469L3,88.71L3.75,88.912L4.5,89.08L5.25,89.219L6,89.331L6.75,89.416L7.5,89.472L8.25,89.491L9,89.452L9.75,89.32L10.5,89.026L11.25,88.45L12,87.405L12.75,85.64L13.5,82.907L14.25,79.074L15,74.214L15.75,68.58L16.5,62.506L17.25,56.317L18,50.273L18.75,44.558L19.5,39.285L20.25,34.509L21,30.246L21.75,26.484L22.5,23.193L23.25,20.335L24,17.868L24.75,15.747L25.5,13.931L26.25,12.382L27,11.065L27.75,9.952L28.5,9.033L29.25,8.436L30,8.974L30.75,11.874L31.5,16.968L32.25,23.341L33,30.217L33.75,37.083L34.5,43.626L35.25,49.673L36,55.146L36.75,60.022L37.5,64.317L38.25,68.067L39,71.318L39.75,74.121L40.5,76.527L41.25,78.585L42,80.341L42.75,81.835L43.5,83.103L44.25,84.179L45,85.09L45.75,85.86L46.5,86.511L47.25,87.061L48,87.524L48.75,87.916L49.5,88.245L50.25,88.523L51,88.757L51.75,88.954L52.5,89.12L53.25,89.259L54,89.377L54.75,89.476L55.5,89.559L56.25,89.628L57,89.686L57.75,89.733L58.5,89.771L59.25,89.798L60,89.812L60.75,89.806L61.5,89.768L62.25,89.671L63,89.463L63.75,89.053L64.5,88.284L65.25,86.924L66,84.699L66.75,81.391L67.5,76.97L68.25,71.621L69,65.662L69.75,59.441L70.5,53.257L71.25,47.332L72,41.811L72.75,36.774L73.5,32.252L74.25,28.243L75,24.724L75.75,21.659L76.5,19.007L77.25,16.723L78,14.764L78.75,13.091L79.5,11.665L80.25,10.455L81,9.433L81.75,8.589L82.5,8.031L83.25,8.514L84,11.307L84.75,16.338L85.5,22.697L86.25,29.594L87,36.5L87.75,43.095L88.5,49.198L89.25,54.725L90,59.654L90.75,63.997L91.5,67.79L92.25,71.079L93,73.917L93.75,76.353L94.5,78.437L95.25,80.215L96,81.728L96.75,83.013L97.5,84.102L98.25,85.025L99,85.805L99.75,86.465L100.5,87.022L101.25,87.492L102,87.888L102.75,88.222L103.5,88.503L104.25,88.74L105,88.94L105.75,89.108L106.5,89.25L107.25,89.369L108,89.469L108.75,89.553L109.5,89.623L110.25,89.682L111,89.73L111.75,89.768L112.5,89.796" stroke="#f462a3" stroke-width="2" stroke-dasharray="4,4"/></g></g><path class="foreground" aria-hidden="true" d="" display="none"/></g><g transform="translate(0,0)"><path class="background" aria-hidden="true" d="M0,0h120v90h-120Z"/><g><g class="mark-line role-mark layer_1_marks" role="graphics-object" aria-roledescription="line mark container"><path aria-label="t: 0; P: 1000; gene: Gene 2" role="graphics-symbol" aria-roledescription="line mark" d="M0,64.286L0.75,67.627L1.5,69.147L2.25,70.576L3,72.277L3.75,74.108L4.5,75.934L5.25,77.675L6,79.283L6.75,80.738L7.5,82.035L8.25,83.176L9,84.173L9.75,85.037L10.5,85.781L11.25,86.421L12,86.968L12.75,87.434L13.5,87.831L14.25,88.168L15,88.454L15.75,88.696L16.5,88.9L17.25,89.073L18,89.219L18.75,89.342L19.5,89.446L20.25,89.533L21,89.606L21.75,89.667L22.5,89.716L23.25,89.755L24,89.781L24.75,89.793L25.5,89.78L26.25,89.726L27,89.598L27.75,89.332L28.5,88.814L29.25,87.862L30,86.22L30.75,83.621L31.5,79.905L32.25,75.12L33,69.512L33.75,63.423L34.5,57.186L35.25,51.076L36,45.285L36.75,39.934L37.5,35.081L38.25,30.746L39,26.918L39.75,23.568L40.5,20.657L41.25,18.143L42,15.981L42.75,14.13L43.5,12.55L44.25,11.206L45,10.066L45.75,9.108L46.5,8.341L47.25,8.031L48,9.295L48.75,13.035L49.5,18.684L50.25,25.327L51,32.277L51.75,39.091L52.5,45.511L53.25,51.398L54,56.694L54.75,61.394L55.5,65.52L56.25,69.114L57,72.223L57.75,74.9L58.5,77.194L59.25,79.155L60,80.827L60.75,82.248L61.5,83.454L62.25,84.476L63,85.341L63.75,86.073L64.5,86.691L65.25,87.212L66,87.652L66.75,88.023L67.5,88.336L68.25,88.6L69,88.821L69.75,89.008L70.5,89.166L71.25,89.298L72,89.409L72.75,89.503L73.5,89.581L74.25,89.647L75,89.701L75.75,89.746L76.5,89.78L77.25,89.804L78,89.812L78.75,89.799L79.5,89.746L80.25,89.622L81,89.365L81.75,88.865L82.5,87.942L83.25,86.345L84,83.803L84.75,80.145L85.5,75.411L86.25,69.837L87,63.762L87.75,57.523L88.5,51.399L89.25,45.586L90,40.208L90.75,35.328L91.5,30.965L92.25,27.11L93,23.735L93.75,20.802L94.5,18.267L95.25,16.088L96,14.221L96.75,12.628L97.5,11.272L98.25,10.122L99,9.154L99.75,8.373L100.5,8.003L101.25,9.097L102,12.655L102.75,18.193L103.5,24.789L104.25,31.735L105,38.572L105.75,45.029L106.5,50.96L107.25,56.304L108,61.05L108.75,65.219L109.5,68.853L110.25,71.998L111,74.706L111.75,77.029L112.5,79.014" stroke="#f462a3" stroke-width="2" stroke-dasharray="4,4"/></g></g><path class="foreground" aria-hidden="true" d="" display="none"/></g></g></g><path class="foreground" aria-hidden="true" d="" display="none"/></g></g></g></svg>