<svg xmlns="http://www.w3.org/2000/svg" xmlns:xlink="http://www.w3.org/1999/xlink" version="1.1" class="marks" width="247" height="132" viewBox="0 0 247 132"><rect width="247" height="132" fill="white"/><g fill="none" stroke-miterlimit="10" transform="translate(51,7)"><g class="mark-group role-frame root" role="graphics-object" aria-roledescription="group mark container"><g transform="translate(0,0)"><path class="background" aria-hidden="true" d="M0.5,0.5h120v90h-120Z"/><g><g class="mark-group role-axis" role="graphics-symbol" aria-roledescription="axis" aria-label="X-axis titled 'Time (mins)' for a linear scale with values from 0 to 260"><g transform="translate(0.5,90.5)"><path class="background" aria-hidden="true" d="M0,0h0v0h0Z" pointer-events="none"/><g><g class="mark-rule role-axis-tick" pointer-events="none"><line transform="translate(0,0)" x2="0" y2="3" stroke="black" stroke-width="1" opacity="1"/><line transform="translate(46,0)" x2="0" y2="3" stroke="black" stroke-width="1" opacity="1"/><line transform="translate(92,0)" x2="0" y2="3" stroke="black" stroke-width="1" opacity="1"/></g><g class="mark-text role-axis-label" pointer-events="none"><text text-anchor="start" transform="translate(0,13)" font-family="Arial" font-size="10px" fill="#000" opacity="1">0</text><text text-anchor="middle" transform="translate(46.15384615384615,13)" font-family="Arial" font-size="10px" fill="#000" opacity="1">100</text><text text-anchor="middle" transform="translate(92.3076923076923,13)" font-family="Arial" font-size="10px" fill="#000" opacity="1">200</text></g><g class="mark-rule role-axis-domain" pointer-events="none"><line transform="translate(0,0)" x2="120" y2="0" stroke="black" stroke-width="1" opacity="1"/></g><g class="mark-text role-axis-title" pointer-events="none"><text text-anchor="middle" transform="translate(60,28)" font-family="Arial" font-size="11px" font-weight="normal" fill="#000" opacity="1">Time (mins)</text></g></g><path class="foreground" aria-hidden="true" d="" pointer-events="none" display="none"/></g></g><g class="mark-group role-axis" role="graphics-symbol" aria-roledescription="axis" aria-label="Y-axis titled 'Protein 1' for a linear scale with values from 0 to 2,800"><g transform="translate(0.5,0.5)"><path class="background" aria-hidden="true" d="M0,0h0v0h0Z" pointer-events="none"/><g><g class="mark-rule role-axis-tick" pointer-events="none"><line transform="translate(0,90)" x2="-3" y2="0" stroke="black" stroke-width="1" opacity="1"/><line transform="translate(0,58)" x2="-3" y2="0" stroke="black" stroke-width="1" opacity="1"/><line transform="translate(0,26)" x2="-3" y2="0" stroke="black" stroke-width="1" opacity="1"/></g><g class="mark-text role-axis-label" pointer-events="none"><text text-anchor="end" transform="translate(-5,93)" font-family="Arial" font-size="10px" fill="#000" opacity="1">0</text><text text-anchor="end" transform="translate(-5,60.857142857142854)" font-family="Arial" font-size="10px" fill="#000" opacity="1">1,000</text><text text-anchor="end" transform="translate(-5,28.71428571428571)" font-family="Arial" font-size="10px" fill="#000" opacity="1">2,000</text></g><g class="mark-rule role-axis-domain" pointer-events="none"><line transform="translate(0,90)" x2="0" y2="-90" stroke="black" stroke-width="1" opacity="1"/></g><g class="mark-text role-axis-title" pointer-events="none"><text text-anchor="middle" transform="translate(-34.0244140625,45) rotate(-90) translate(0,-2)" font-family="Arial" font-size="11px" font-weight="normal" fill="#000" opacity="1">Protein 1</text></g></g><path class="foreground" aria-hidden="true" d="" pointer-events="none" display="none"/></g></g><g class="mark-group role-scope layer_0_pathgroup" role="graphics-object" aria-roledescription="group mark container"><g transform="translate(0,0)"><path class="background" aria-hidden="true" d="M0,0h120v90h-120Z"/><g><g class="mark-line role-mark layer_0_marks" role="graphics-object" aria-roledescription="line mark container"><path aria-label="Time (mins): 0; Protein 1: 100; Percentile: 5" role="graphics-symbol" aria-roledescription="line mark" d="M0,86.786L0.462,86.504L0.923,83.768L1.385,79.281L1.846,73.769L2.308,67.817L2.769,61.881L3.231,56.296L3.692,51.308L4.154,47.108L4.615,43.865L5.077,41.738L5.538,40.876L6,41.359L6.462,43.14L6.923,46.023L7.385,49.699L7.846,53.827L8.308,58.101L8.769,62.282L9.231,66.209L9.692,69.784L10.154,72.964L10.615,75.743L11.077,78.134L11.538,80.17L12,81.886L12.462,83.32L12.923,84.511L13.385,85.494L13.846,86.3L14.308,86.956L14.769,87.485L15.231,87.907L15.692,88.235L16.154,88.481L16.615,88.65L17.077,88.744L17.538,88.758L18,88.679L18.462,88.486L18.923,88.143L19.385,87.598L19.846,86.783L20.308,85.607L20.769,83.967L21.231,81.761L21.692,78.911L22.154,75.393L22.615,71.256L23.077,66.619L23.538,61.658L24,56.575L24.462,51.569L24.923,46.819L25.385,42.479L25.846,38.691L26.308,35.599L26.769,33.386L27.231,32.283L27.692,32.523L28.154,34.231L28.615,37.313L29.077,41.466L29.538,46.28L30,51.359L30.462,56.383L30.923,61.132L31.385,65.474L31.846,69.344L32.308,72.728L32.769,75.643L33.231,78.124L33.692,80.214L34.154,81.961L34.615,83.412L35.077,84.609L35.538,85.591L36,86.393L36.462,87.044L36.923,87.567L37.385,87.983L37.846,88.307L38.308,88.549L38.769,88.718L39.231,88.813L39.692,88.833L40.154,88.764L40.615,88.586L41.077,88.266L41.538,87.754L42,86.984L42.462,85.866L42.923,84.297L43.385,82.173L43.846,79.409L44.308,75.971L44.769,71.898L45.231,67.3L45.692,62.349L46.154,57.245L46.615,52.19L47.077,47.368L47.538,42.934L48,39.026L48.462,35.784L48.923,33.375L49.385,32.022L49.846,31.965L50.308,33.369L50.769,36.193L51.231,40.173L51.692,44.912L52.154,49.997L52.615,55.089L53.077,59.944L53.538,64.411L54,68.412L54.462,71.924L54.923,74.958L55.385,77.546L55.846,79.731L56.308,81.56L56.769,83.08L57.231,84.336L57.692,85.369L58.154,86.212L58.615,86.898L59.077,87.45L59.538,87.891L60,88.236L60.462,88.498L60.923,88.685L61.385,88.799L61.846,88.838L62.308,88.792L62.769,88.644L63.231,88.364L63.692,87.906L64.154,87.209L64.615,86.187L65.077,84.743L65.538,82.767L66,80.17L66.462,76.902L66.923,72.98L67.385,68.5L67.846,63.619L68.308,58.533L68.769,53.447L69.231,48.55L69.692,44.004L70.154,39.95L70.615,36.524L71.077,33.886L71.538,32.241L72,31.834L72.462,32.861L72.923,35.342L73.385,39.064L73.846,43.651L74.308,48.685L74.769,53.803L75.231,58.737L75.692,63.313L76.154,67.438L76.615,71.075L77.077,74.228L77.538,76.926L78,79.209L78.462,81.124L78.923,82.719L79.385,84.039L79.846,85.125L80.308,86.013L80.769,86.737L81.231,87.321L81.692,87.788L82.154,88.157L82.615,88.439L83.077,88.644L83.538,88.776L84,88.835L84.462,88.813L84.923,88.693L85.385,88.45L85.846,88.043L86.308,87.414L86.769,86.484L87.231,85.158L87.692,83.328L88.154,80.896L88.615,77.8L89.077,74.039L89.538,69.689L90,64.892L90.462,59.839L90.923,54.735L91.385,49.773L91.846,45.123L92.308,40.931L92.769,37.331L93.231,34.474L93.692,32.553L94.154,31.807L94.615,32.457L95.077,34.578L95.538,38.015L96,42.421L96.462,47.378L96.923,52.505L97.385,57.506L97.846,62.185L98.308,66.431L98.769,70.193L99.231,73.468L99.692,76.278L100.154,78.663L100.615,80.668L101.077,82.34L101.538,83.726L102,84.868L102.462,85.804L102.923,86.566L103.385,87.184L103.846,87.679L104.308,88.071L104.769,88.374L105.231,88.599L105.692,88.75L106.154,88.827L106.615,88.827L107.077,88.734L107.538,88.526L108,88.166L108.462,87.599L108.923,86.755L109.385,85.54L109.846,83.848L110.308,81.578L110.769,78.655L111.231,75.06L111.692,70.848L112.154,66.149L112.615,61.142L113.077,56.031L113.538,51.016L114,46.272L114.462,41.95L114.923,38.186L115.385,35.123" stroke="rgb(68, 58, 131)" stroke-width="2"/></g></g><path class="foreground" aria-hidden="true" d="" display="none"/></g><g transform="translate(0,0)"><path class="background" aria-hidden="true" d="M0,0h120v90h-120Z"/><g><g class="mark-line role-mark layer_0_marks" role="graphics-object" aria-roledescription="line mark container"><path aria-label="Time (mins): 0; Protein 1: 100; Percentile: 25" role="graphics-symbol" aria-roledescription="line mark" d="M0,86.786L0.462,86.407L0.923,83.606L1.385,79.054L1.846,73.43L2.308,67.28L2.769,61.026L3.231,54.988L3.692,49.401L4.154,44.45L4.615,40.285L5.077,37.049L5.538,34.881L6,33.91L6.462,34.209L6.923,35.758L7.385,38.412L7.846,41.928L8.308,46.012L8.769,50.379L9.231,54.787L9.692,59.054L10.154,63.057L10.615,66.723L11.077,70.02L11.538,72.94L12,75.497L12.462,77.715L12.923,79.624L13.385,81.257L13.846,82.645L14.308,83.82L14.769,84.81L15.231,85.642L15.692,86.336L16.154,86.913L16.615,87.39L17.077,87.778L17.538,88.09L18,88.332L18.462,88.51L18.923,88.625L19.385,88.674L19.846,88.651L20.308,88.543L20.769,88.329L21.231,87.979L21.692,87.452L22.154,86.692L22.615,85.628L23.077,84.179L23.538,82.256L24,79.777L24.462,76.688L24.923,72.974L25.385,68.676L25.846,63.889L26.308,58.754L26.769,53.436L27.231,48.109L27.692,42.938L28.154,38.071L28.615,33.642L29.077,29.783L29.538,26.638L30,24.384L30.462,23.232L30.923,23.386L31.385,24.956L31.846,27.884L32.308,31.931L32.769,36.75L33.231,41.98L33.692,47.305L34.154,52.483L34.615,57.353L35.077,61.818L35.538,65.833L36,69.389L36.462,72.501L36.923,75.197L37.385,77.516L37.846,79.497L38.308,81.181L38.769,82.605L39.231,83.805L39.692,84.812L40.154,85.655L40.615,86.358L41.077,86.941L41.538,87.421L42,87.814L42.462,88.129L42.923,88.376L43.385,88.56L43.846,88.683L44.308,88.744L44.769,88.736L45.231,88.65L45.692,88.466L46.154,88.158L46.615,87.687L47.077,87.001L47.538,86.033L48,84.704L48.462,82.924L48.923,80.609L49.385,77.692L49.846,74.145L50.308,69.991L50.769,65.313L51.231,60.24L51.692,54.933L52.154,49.567L52.615,44.308L53.077,39.311L53.538,34.711L54,30.636L54.462,27.219L54.923,24.622L55.385,23.043L55.846,22.698L56.308,23.749L56.769,26.206L57.231,29.896L57.692,34.501L58.154,39.653L58.615,45.011L59.077,50.304L59.538,55.339L60,59.996L60.462,64.212L60.923,67.964L61.385,71.262L61.846,74.13L62.308,76.602L62.769,78.719L63.231,80.521L63.692,82.049L64.154,83.337L64.615,84.421L65.077,85.329L65.538,86.086L66,86.716L66.462,87.237L66.923,87.664L67.385,88.01L67.846,88.284L68.308,88.493L68.769,88.641L69.231,88.728L69.692,88.75L70.154,88.699L70.615,88.558L71.077,88.306L71.538,87.908L72,87.319L72.462,86.478L72.923,85.311L73.385,83.73L73.846,81.648L74.308,78.988L74.769,75.704L75.231,71.798L75.692,67.325L76.154,62.398L76.615,57.168L77.077,51.804L77.538,46.48L78,41.356L78.462,36.574L78.923,32.263L79.385,28.552L79.846,25.589L80.308,23.556L80.769,22.668L81.231,23.121L81.692,24.998L82.154,28.203L82.615,32.468L83.077,37.435L83.538,42.745L84,48.095L84.462,53.258L84.923,58.085L85.385,62.491L85.846,66.44L86.308,69.927L86.769,72.972L87.231,75.606L87.692,77.868L88.154,79.798L88.615,81.436L89.077,82.821L89.538,83.988L90,84.966L90.462,85.784L90.923,86.465L91.385,87.03L91.846,87.495L92.308,87.873L92.769,88.177L93.231,88.413L93.692,88.586L94.154,88.699L94.615,88.749L95.077,88.73L95.538,88.63L96,88.428L96.462,88.096L96.923,87.594L97.385,86.868L97.846,85.848L98.308,84.452L98.769,82.592L99.231,80.184L99.692,77.166L100.154,73.518L100.615,69.273L101.077,64.521L101.538,59.398L102,54.069L102.462,48.708L102.923,43.481L103.385,38.539L103.846,34.014L104.308,30.034L104.769,26.736L105.231,24.286L105.692,22.889L106.154,22.757L106.615,24.035L107.077,26.704L107.538,30.563L108,35.28L108.462,40.487L108.923,45.852L109.385,51.116L109.846,56.098L110.308,60.689L110.769,64.832L111.231,68.513L111.692,71.741L112.154,74.544L112.615,76.957L113.077,79.022L113.538,80.779L114,82.266L114.462,83.521L114.923,84.575L115.385,85.457" stroke="rgb(49, 104, 142)" stroke-width="2"/></g></g><path class="foreground" aria-hidden="true" d="" display="none"/></g><g transform="translate(0,0)"><path class="background" aria-hidden="true" d="M0,0h120v90h-120Z"/><g><g class="mark-line role-mark layer_0_marks" role="graphics-object" aria-roledescription="line mark container"><path aria-label="Time (mins): 0; Protein 1: 100; Percentile: 50" role="graphics-symbol" aria-roledescription="line mark" d="M0,86.786L0.462,86.348L0.923,83.505L1.385,78.913L1.846,73.228L2.308,66.971L2.769,60.546L3.231,54.256L3.692,48.331L4.154,42.946L4.615,38.243L5.077,34.351L5.538,31.396L6,29.501L6.462,28.771L6.923,29.257L7.385,30.924L7.846,33.633L8.308,37.163L8.769,41.254L9.231,45.648L9.692,50.123L10.154,54.504L10.615,58.668L11.077,62.537L11.538,66.067L12,69.244L12.462,72.07L12.923,74.562L13.385,76.743L13.846,78.641L14.308,80.283L14.769,81.699L15.231,82.915L15.692,83.956L16.154,84.845L16.615,85.601L17.077,86.241L17.538,86.782L18,87.235L18.462,87.612L18.923,87.921L19.385,88.169L19.846,88.359L20.308,88.493L20.769,88.57L21.231,88.587L21.692,88.535L22.154,88.4L22.615,88.165L23.077,87.802L23.538,87.275L24,86.536L24.462,85.529L24.923,84.184L25.385,82.426L25.846,80.181L26.308,77.39L26.769,74.015L27.231,70.061L27.692,65.573L28.154,60.639L28.615,55.384L29.077,49.953L29.538,44.497L30,39.165L30.462,34.095L30.923,29.414L31.385,25.247L31.846,21.727L32.308,19.01L32.769,17.278L33.231,16.726L33.692,17.5L34.154,19.631L34.615,22.997L35.077,27.344L35.538,32.35L36,37.696L36.462,43.108L36.923,48.376L37.385,53.356L37.846,57.961L38.308,62.145L38.769,65.895L39.231,69.22L39.692,72.142L40.154,74.694L40.615,76.908L41.077,78.821L41.538,80.467L42,81.878L42.462,83.085L42.923,84.114L43.385,84.99L43.846,85.733L44.308,86.361L44.769,86.891L45.231,87.334L45.692,87.702L46.154,88.004L46.615,88.246L47.077,88.432L47.538,88.564L48,88.642L48.462,88.662L48.923,88.616L49.385,88.491L49.846,88.27L50.308,87.927L50.769,87.427L51.231,86.724L51.692,85.762L52.154,84.473L52.615,82.781L53.077,80.612L53.538,77.901L54,74.608L54.462,70.729L54.923,66.302L55.385,61.411L55.846,56.175L56.308,50.738L56.769,45.251L57.231,39.864L57.692,34.716L58.154,29.934L58.615,25.639L59.077,21.958L59.538,19.039L60,17.057L60.462,16.207L60.923,16.655L61.385,18.472L61.846,21.573L62.308,25.735L62.769,30.642L63.231,35.969L63.692,41.425L64.154,46.784L64.615,51.883L65.077,56.62L65.538,60.942L66,64.827L66.462,68.281L66.923,71.323L67.385,73.982L67.846,76.293L68.308,78.292L68.769,80.013L69.231,81.49L69.692,82.754L70.154,83.833L70.615,84.751L71.077,85.531L71.538,86.191L72,86.747L72.462,87.215L72.923,87.604L73.385,87.924L73.846,88.183L74.308,88.385L74.769,88.533L75.231,88.627L75.692,88.665L76.154,88.639L76.615,88.539L77.077,88.349L77.538,88.046L78,87.597L78.462,86.96L78.923,86.082L79.385,84.898L79.846,83.335L80.308,81.316L80.769,78.773L81.231,75.656L81.692,71.949L82.154,67.679L82.615,62.915L83.077,57.767L83.538,52.374L84,46.885L84.462,41.453L84.923,36.219L85.385,31.313L85.846,26.859L86.308,22.979L86.769,19.814L87.231,17.529L87.692,16.318L88.154,16.362L88.615,17.768L89.077,20.501L89.538,24.373L90,29.092L90.462,34.326L90.923,39.772L91.385,45.181L91.846,50.372L92.308,55.227L92.769,59.679L93.231,63.697L93.692,67.28L94.154,70.444L94.615,73.215L95.077,75.628L95.538,77.718L96,79.519L96.462,81.067L96.923,82.392L97.385,83.524L97.846,84.489L98.308,85.308L98.769,86.003L99.231,86.589L99.692,87.082L100.154,87.494L100.615,87.834L101.077,88.111L101.538,88.33L102,88.494L102.462,88.604L102.923,88.66L103.385,88.654L103.846,88.578L104.308,88.418L104.769,88.152L105.231,87.751L105.692,87.176L106.154,86.377L106.615,85.293L107.077,83.853L107.538,81.98L108,79.602L108.462,76.662L108.923,73.134L109.385,69.028L109.846,64.404L110.308,59.359L110.769,54.024L111.231,48.549L111.692,43.084L112.154,37.775L112.615,32.757L113.077,28.153L113.538,24.086L114,20.688L114.462,18.117L114.923,16.559L115.385,16.207" stroke="rgb(33, 145, 141)" stroke-width="2"/></g></g><path class="foreground" aria-hidden="true" d="" display="none"/></g><g transform="translate(0,0)"><path class="background" aria-hidden="true" d="M0,0h120v90h-120Z"/><g><g class="mark-line role-mark layer_0_marks" role="graphics-object" aria-roledescription="line mark container"><path aria-label="Time (mins): 0; Protein 1: 100; Percentile: 75" role="graphics-symbol" aria-roledescription="line mark" d="M0,86.786L0.462,86.296L0.923,83.415L1.385,78.786L1.846,73.05L2.308,66.708L2.769,60.145L3.231,53.652L3.692,47.448L4.154,41.702L4.615,36.546L5.077,32.099L5.538,28.47L6,25.771L6.462,24.11L6.923,23.569L7.385,24.182L7.846,25.903L8.308,28.606L8.769,32.095L9.231,36.142L9.692,40.516L10.154,45.013L10.615,49.468L11.077,53.756L11.538,57.796L12,61.536L12.462,64.952L12.923,68.038L13.385,70.801L13.846,73.258L14.308,75.43L14.769,77.341L15.231,79.015L15.692,80.477L16.154,81.751L16.615,82.857L17.077,83.816L17.538,84.645L18,85.361L18.462,85.976L18.923,86.504L19.385,86.955L19.846,87.337L20.308,87.657L20.769,87.922L21.231,88.134L21.692,88.297L22.154,88.411L22.615,88.473L23.077,88.48L23.538,88.425L24,88.296L24.462,88.078L24.923,87.749L25.385,87.281L25.846,86.639L26.308,85.778L26.769,84.645L27.231,83.18L27.692,81.319L28.154,79.001L28.615,76.176L29.077,72.813L29.538,68.91L30,64.498L30.462,59.643L30.923,54.44L31.385,49.007L31.846,43.475L32.308,37.975L32.769,32.639L33.231,27.587L33.692,22.94L34.154,18.815L34.615,15.344L35.077,12.676L35.538,10.981L36,10.424L36.462,11.13L36.923,13.125L37.385,16.309L37.846,20.472L38.308,25.339L38.769,30.623L39.231,36.064L39.692,41.455L40.154,46.642L40.615,51.522L41.077,56.033L41.538,60.146L42,63.855L42.462,67.172L42.923,70.116L43.385,72.715L43.846,74.999L44.308,76.998L44.769,78.742L45.231,80.26L45.692,81.578L46.154,82.72L46.615,83.707L47.077,84.56L47.538,85.295L48,85.926L48.462,86.468L48.923,86.93L49.385,87.323L49.846,87.654L50.308,87.928L50.769,88.151L51.231,88.326L51.692,88.453L52.154,88.532L52.615,88.559L53.077,88.529L53.538,88.432L54,88.255L54.462,87.98L54.923,87.58L55.385,87.025L55.846,86.274L56.308,85.277L56.769,83.976L57.231,82.31L57.692,80.213L58.154,77.63L58.615,74.519L59.077,70.861L59.538,66.673L60,62.003L60.462,56.934L60.923,51.574L61.385,46.05L61.846,40.493L62.308,35.035L62.769,29.801L63.231,24.909L63.692,20.474L64.154,16.618L64.615,13.477L65.077,11.207L65.538,9.98L66,9.953L66.462,11.218L66.923,13.75L67.385,17.401L67.846,21.928L68.308,27.04L68.769,32.459L69.231,37.943L69.692,43.305L70.154,48.412L70.615,53.179L71.077,57.559L71.538,61.533L72,65.103L72.462,68.286L72.923,71.104L73.385,73.586L73.846,75.763L74.308,77.667L74.769,79.325L75.231,80.767L75.692,82.018L76.154,83.101L76.615,84.037L77.077,84.844L77.538,85.54L78,86.137L78.462,86.648L78.923,87.084L79.385,87.453L79.846,87.762L80.308,88.017L80.769,88.223L81.231,88.38L81.692,88.489L82.154,88.55L82.615,88.557L83.077,88.505L83.538,88.381L84,88.171L84.462,87.854L84.923,87.403L85.385,86.783L85.846,85.949L86.308,84.85L86.769,83.426L87.231,81.613L87.692,79.348L88.154,76.579L88.615,73.272L89.077,69.42L89.538,65.052L90,60.227L90.462,55.04L90.923,49.606L91.385,44.053L91.846,38.516L92.308,33.124L92.769,27.998L93.231,23.255L93.692,19.012L94.154,15.394L94.615,12.543L95.077,10.623L95.538,9.807L96,10.234L96.462,11.959L96.923,14.912L97.385,18.907L97.846,23.676L98.308,28.929L98.769,34.397L99.231,39.858L99.692,45.143L100.154,50.138L100.615,54.773L101.077,59.01L101.538,62.841L102,66.272L102.462,69.322L102.923,72.018L103.385,74.389L103.846,76.466L104.308,78.279L104.769,79.858L105.231,81.23L105.692,82.419L106.154,83.448L106.615,84.336L107.077,85.102L107.538,85.761L108,86.327L108.462,86.81L108.923,87.222L109.385,87.569L109.846,87.858L110.308,88.096L110.769,88.284L111.231,88.424L111.692,88.517L112.154,88.559L112.615,88.546L113.077,88.47L113.538,88.317L114,88.072L114.462,87.712L114.923,87.205L115.385,86.515" stroke="rgb(53, 183, 121)" stroke-width="2"/></g></g><path class="foreground" aria-hidden="true" d="" display="none"/></g><g transform="translate(0,0)"><path class="background" aria-hidden="true" d="M0,0h120v90h-120Z"/><g><g class="mark-line role-mark layer_0_marks" role="graphics-object" aria-roledescription="line mark container"><path aria-label="Time (mins): 0; Protein 1: 100; Percentile: 95" role="graphics-symbol" aria-roledescription="line mark" d="M0,86.786L0.462,86.229L0.923,83.297L1.385,78.62L1.846,72.821L2.308,66.379L2.769,59.658L3.231,52.931L3.692,46.403L4.154,40.229L4.615,34.532L5.077,29.413L5.538,24.966L6,21.281L6.462,18.451L6.923,16.563L7.385,15.688L7.846,15.862L8.308,17.071L8.769,19.237L9.231,22.227L9.692,25.865L10.154,29.962L10.615,34.331L11.077,38.809L11.538,43.258L12,47.578L12.462,51.692L12.923,55.554L13.385,59.136L13.846,62.427L14.308,65.427L14.769,68.144L15.231,70.593L15.692,72.79L16.154,74.756L16.615,76.508L17.077,78.068L17.538,79.452L18,80.679L18.462,81.765L18.923,82.725L19.385,83.572L19.846,84.319L20.308,84.976L20.769,85.553L21.231,86.058L21.692,86.5L22.154,86.883L22.615,87.215L23.077,87.498L23.538,87.737L24,87.933L24.462,88.088L24.923,88.202L25.385,88.274L25.846,88.301L26.308,88.278L26.769,88.198L27.231,88.053L27.692,87.829L28.154,87.51L28.615,87.077L29.077,86.502L29.538,85.756L30,84.802L30.462,83.598L30.923,82.097L31.385,80.253L31.846,78.017L32.308,75.35L32.769,72.221L33.231,68.617L33.692,64.545L34.154,60.034L34.615,55.138L35.077,49.931L35.538,44.504L36,38.96L36.462,33.405L36.923,27.95L37.385,22.702L37.846,17.768L38.308,13.255L38.769,9.275L39.231,5.953L39.692,3.422L40.154,1.824L40.615,1.287L41.077,1.901L41.538,3.682L42,6.557L42.462,10.371L42.923,14.913L43.385,19.951L43.846,25.26L44.308,30.649L44.769,35.96L45.231,41.08L45.692,45.927L46.154,50.452L46.615,54.631L47.077,58.455L47.538,61.929L48,65.067L48.462,67.888L48.923,70.415L49.385,72.67L49.846,74.677L50.308,76.461L50.769,78.043L51.231,79.444L51.692,80.683L52.154,81.778L52.615,82.743L53.077,83.594L53.538,84.344L54,85.003L54.462,85.581L54.923,86.088L55.385,86.531L55.846,86.916L56.308,87.249L56.769,87.534L57.231,87.776L57.692,87.976L58.154,88.136L58.615,88.256L59.077,88.337L59.538,88.374L60,88.365L60.462,88.303L60.923,88.181L61.385,87.985L61.846,87.703L62.308,87.314L62.769,86.796L63.231,86.119L63.692,85.249L64.154,84.145L64.615,82.764L65.077,81.056L65.538,78.974L66,76.475L66.462,73.522L66.923,70.095L67.385,66.192L67.846,61.834L68.308,57.064L68.769,51.95L69.231,46.577L69.692,41.042L70.154,35.451L70.615,29.914L71.077,24.538L71.538,19.427L72,14.689L72.462,10.428L72.923,6.763L73.385,3.819L73.846,1.736L74.308,0.652L74.769,0.682L75.231,1.884L75.692,4.234L76.154,7.619L76.615,11.85L77.077,16.702L77.538,21.942L78,27.357L78.462,32.77L78.923,38.044L79.385,43.081L79.846,47.817L80.308,52.213L80.769,56.254L81.231,59.937L81.692,63.274L82.154,66.281L82.615,68.978L83.077,71.39L83.538,73.54L84,75.452L84.462,77.149L84.923,78.653L85.385,79.984L85.846,81.161L86.308,82.199L86.769,83.115L87.231,83.922L87.692,84.633L88.154,85.257L88.615,85.804L89.077,86.283L89.538,86.701L90,87.063L90.462,87.376L90.923,87.642L91.385,87.866L91.846,88.049L92.308,88.193L92.769,88.297L93.231,88.36L93.692,88.379L94.154,88.349L94.615,88.264L95.077,88.113L95.538,87.884L96,87.56L96.462,87.122L96.923,86.543L97.385,85.792L97.846,84.832L98.308,83.621L98.769,82.113L99.231,80.258L99.692,78.011L100.154,75.33L100.615,72.186L101.077,68.564L101.538,64.472L102,59.939L102.462,55.02L102.923,49.788L103.385,44.336L103.846,38.764L104.308,33.182L104.769,27.696L105.231,22.414L105.692,17.44L106.154,12.881L106.615,8.846L107.077,5.456L107.538,2.842L108,1.145L108.462,0.499L108.923,0.998L109.385,2.671L109.846,5.457L110.308,9.209L110.769,13.72L111.231,18.757L111.692,24.092L112.154,29.527L112.615,34.9L113.077,40.09L113.538,45.014L114,49.617L114.462,53.872L114.923,57.77L115.385,61.313" stroke="rgb(143, 215, 68)" stroke-width="2"/></g></g><path class="foreground" aria-hidden="true" d="" display="none"/></g></g><g class="mark-group role-legend" role="graphics-symbol" aria-roledescription="legend" aria-label="Symbol legend titled 'Percentile' for stroke color with 5 values: 5, 25, 50, 75, 95"><g transform="translate(138,0)"><path class="background" aria-hidden="true" d="M0,0h53v79h-53Z" pointer-events="none"/><g><g class="mark-group role-legend-entry"><g transform="translate(0,16)"><path class="background" aria-hidden="true" d="M0,0h0v0h0Z" pointer-events="none"/><g><g class="mark-group role-scope" role="graphics-object" aria-roledescription="group mark container"><g transform="translate(0,0)"><path class="background" aria-hidden="true" d="M0,0h27.123046875v11h-27.123046875Z" pointer-events="none" opacity="1"/><g><g class="mark-symbol role-legend-symbol" pointer-events="none"><path transform="translate(6,6)" d="M-5,0L5,0" stroke="rgb(68, 58, 131)" stroke-width="1.5" opacity="1"/></g><g class="mark-text role-legend-label" pointer-events="none"><text text-anchor="start" transform="translate(16,9)" font-family="Arial" font-size="10px" fill="#000" opacity="1">5</text></g></g><path class="foreground" aria-hidden="true" d="" pointer-events="none" display="none"/></g><g transform="translate(0,13)"><path class="background" aria-hidden="true" d="M0,0h27.123046875v11h-27.123046875Z" pointer-events="none" opacity="1"/><g><g class="mark-symbol role-legend-symbol" pointer-events="none"><path transform="translate(6,6)" d="M-5,0L5,0" stroke="rgb(49, 104, 142)" stroke-width="1.5" opacity="1"/></g><g class="mark-text role-legend-label" pointer-events="none"><text text-anchor="start" transform="translate(16,9)" font-family="Arial" font-size="10px" fill="#000" opacity="1">25</text></g></g><path class="foreground" aria-hidden="true" d="" pointer-events="none" display="none"/></g><g transform="translate(0,26)"><path class="background" aria-hidden="true" d="M0,0h27.123046875v11h-27.123046875Z" pointer-events="none" opacity="1"/><g><g class="mark-symbol role-legend-symbol" pointer-events="none"><path transform="translate(6,6)" d="M-5,0L5,0" stroke="rgb(33, 145, 141)" stroke-width="1.5" opacity="1"/></g><g class="mark-text role-legend-label" pointer-events="none"><text text-anchor="start" transform="translate(16,9)" font-family="Arial" font-size="10px" fill="#000" opacity="1">50</text></g></g><path class="foreground" aria-hidden="true" d="" pointer-events="none" display="none"/></g><g transform="translate(0,39)"><path class="background" aria-hidden="true" d="M0,0h27.123046875v11h-27.123046875Z" pointer-events="none" opacity="1"/><g><g class="mark-symbol role-legend-symbol" pointer-events="none"><path transform="translate(6,6)" d="M-5,0L5,0" stroke="rgb(53, 183, 121)" stroke-width="1.5" opacity="1"/></g><g class="mark-text role-legend-label" pointer-events="none"><text text-anchor="start" transform="translate(16,9)" font-family="Arial" font-size="10px" fill="#000" opacity="1">75</text></g></g><path class="foreground" aria-hidden="true" d="" pointer-events="none" display="none"/></g><g transform="translate(0,52)"><path class="background" aria-hidden="true" d="M0,0h27.123046875v11h-27.123046875Z" pointer-events="none" opacity="1"/><g><g class="mark-symbol role-legend-symbol" pointer-events="none"><path transform="translate(6,6)" d="M-5,0L5,0" stroke="rgb(143, 215, 68)" stroke-width="1.5" opacity="1"/></g><g class="mark-text role-legend-label" pointer-events="none"><text text-anchor="start" transform="translate(16,9)" font-family="Arial" font-size="10px" fill="#000" opacity="1">95</text></g></g><path class="foreground" aria-hidden="true" d="" pointer-events="none" display="none"/></g></g></g><path class="foreground" aria-hidden="true" d="" pointer-events="none" display="none"/></g></g><g class="mark-text role-legend-title" pointer-events="none"><text text-anchor="start" transform="translate(0,9)" font-family="Arial" font-size="11px" font-weight="bold" fill="#000" opacity="1">Percentile</text></g></g><path class="foreground" aria-hidden="true" d="" pointer-events="none" display="none"/></g></g></g><path class="foreground" aria-hidden="true" d="" display="none"/></g></g></g></svg>