<svg xmlns="http://www.w3.org/2000/svg" xmlns:xlink="http://www.w3.org/1999/xlink" version="1.1" class="marks" width="247" height="132" viewBox="0 0 247 132"><rect width="247" height="132" fill="white"/><g fill="none" stroke-miterlimit="10" transform="translate(51,7)"><g class="mark-group role-frame root" role="graphics-object" aria-roledescription="group mark container"><g transform="translate(0,0)"><path class="background" aria-hidden="true" d="M0.5,0.5h120v90h-120Z"/><g><g class="mark-group role-axis" role="graphics-symbol" aria-roledescription="axis" aria-label="X-axis titled 'Time (mins)' for a linear scale with values from 0 to 260"><g transform="translate(0.5,90.5)"><path class="background" aria-hidden="true" d="M0,0h0v0h0Z" pointer-events="none"/><g><g class="mark-rule role-axis-tick" pointer-events="none"><line transform="translate(0,0)" x2="0" y2="3" stroke="black" stroke-width="1" opacity="1"/><line transform="translate(46,0)" x2="0" y2="3" stroke="black" stroke-width="1" opacity="1"/><line transform="translate(92,0)" x2="0" y2="3" stroke="black" stroke-width="1" opacity="1"/></g><g class="mark-text role-axis-label" pointer-events="none"><text text-anchor="start" transform="translate(0,13)" font-family="Arial" font-size="10px" fill="#000" opacity="1">0</text><text text-anchor="middle" transform="translate(46.15384615384615,13)" font-family="Arial" font-size="10px" fill="#000" opacity="1">100</text><text text-anchor="middle" transform="translate(92.3076923076923,13)" font-family="Arial" font-size="10px" fill="#000" opacity="1">200</text></g><g class="mark-rule role-axis-domain" pointer-events="none"><line transform="translate(0,0)" x2="120" y2="0" stroke="black" stroke-width="1" opacity="1"/></g><g class="mark-text role-axis-title" pointer-events="none"><text text-anchor="middle" transform="translate(60,28)" font-family="Arial" font-size="11px" font-weight="normal" fill="#000" opacity="1">Time (mins)</text></g></g><path class="foreground" aria-hidden="true" d="" pointer-events="none" display="none"/></g></g><g class="mark-group role-axis" role="graphics-symbol" aria-roledescription="axis" aria-label="Y-axis titled 'Protein 1' for a linear scale with values from 0 to 2,800"><g transform="translate(0.5,0.5)"><path class="background" aria-hidden="true" d="M0,0h0v0h0Z" pointer-events="none"/><g><g class="mark-rule role-axis-tick" pointer-events="none"><line transform="translate(0,90)" x2="-3" y2="0" stroke="black" stroke-width="1" opacity="1"/><line transform="translate(0,58)" x2="-3" y2="0" stroke="black" stroke-width="1" opacity="1"/><line transform="translate(0,26)" x2="-3" y2="0" stroke="black" stroke-width="1" opacity="1"/></g><g class="mark-text role-axis-label" pointer-events="none"><text text-anchor="end" transform="translate(-5,93)" font-family="Arial" font-size="10px" fill="#000" opacity="1">0</text><text text-anchor="end" transform="translate(-5,60.857142857142854)" font-family="Arial" font-size="10px" fill="#000" opacity="1">1,000</text><text text-anchor="end" transform="translate(-5,28.71428571428571)" font-family="Arial" font-size="10px" fill="#000" opacity="1">2,000</text></g><g class="mark-rule role-axis-domain" pointer-events="none"><line transform="translate(0,90)" x2="0" y2="-90" stroke="black" stroke-width="1" opacity="1"/></g><g class="mark-text role-axis-title" pointer-events="none"><text text-anchor="middle" transform="translate(-34.0244140625,45) rotate(-90) translate(0,-2)" font-family="Arial" font-size="11px" font-weight="normal" fill="#000" opacity="1">Protein 1</text></g></g><path class="foreground" aria-hidden="true" d="" pointer-events="none" display="none"/></g></g><g class="mark-group role-scope layer_0_pathgroup" role="graphics-object" aria-roledescription="group mark container"><g transform="translate(0,0)"><path class="background" aria-hidden="true" d="M0,0h120v90h-120Z"/><g><g class="mark-line role-mark layer_0_marks" role="graphics-object" aria-roledescription="line mark container"><path aria-label="Time (mins): 0; Protein 1: 100; Percentile: 5" role="graphics-symbol" aria-roledescription="line mark" d="M0,86.786L0.462,86.5L0.923,83.761L1.385,79.272L1.846,73.754L2.308,67.794L2.769,61.843L3.231,56.238L3.692,51.224L4.154,46.993L4.615,43.709L5.077,41.536L5.538,40.619L6,41.044L6.462,42.771L6.923,45.61L7.385,49.258L7.846,53.376L8.308,57.656L8.769,61.855L9.231,65.809L9.692,69.417L10.154,72.633L10.615,75.447L11.077,77.874L11.538,79.942L12,81.688L12.462,83.15L12.923,84.366L13.385,85.37L13.846,86.195L14.308,86.868L14.769,87.413L15.231,87.847L15.692,88.188L16.154,88.445L16.615,88.626L17.077,88.732L17.538,88.759L18,88.697L18.462,88.526L18.923,88.213L19.385,87.711L19.846,86.953L20.308,85.854L20.769,84.313L21.231,82.227L21.692,79.511L22.154,76.128L22.615,72.11L23.077,67.561L23.538,62.645L24,57.56L24.462,52.506L24.923,47.668L25.385,43.205L25.846,39.258L26.308,35.97L26.769,33.51L27.231,32.097L27.692,31.973L28.154,33.301L28.615,36.05L29.077,39.964L29.538,44.651L30,49.705L30.462,54.782L30.923,59.636L31.385,64.112L31.846,68.131L32.308,71.664L32.769,74.722L33.231,77.334L33.692,79.543L34.154,81.395L34.615,82.937L35.077,84.212L35.538,85.262L36,86.122L36.462,86.821L36.923,87.386L37.385,87.838L37.846,88.193L38.308,88.464L38.769,88.66L39.231,88.783L39.692,88.832L40.154,88.8L40.615,88.668L41.077,88.41L41.538,87.983L42,87.328L42.462,86.366L42.923,84.999L43.385,83.121L43.846,80.636L44.308,77.486L44.769,73.675L45.231,69.282L45.692,64.455L46.154,59.383L46.615,54.27L47.077,49.307L47.538,44.664L48,40.483L48.462,36.899L48.923,34.064L49.385,32.173L49.846,31.464L50.308,32.155L50.769,34.314L51.231,37.782L51.692,42.21L52.154,47.183L52.615,52.321L53.077,57.33L53.538,62.018L54,66.272L54.462,70.045L54.923,73.33L55.385,76.152L55.846,78.548L56.308,80.564L56.769,82.247L57.231,83.644L57.692,84.796L58.154,85.741L58.615,86.512L59.077,87.137L59.538,87.64L60,88.039L60.462,88.348L60.923,88.578L61.385,88.736L61.846,88.821L62.308,88.828L62.769,88.746L63.231,88.553L63.692,88.212L64.154,87.675L64.615,86.87L65.077,85.709L65.538,84.087L66,81.901L66.462,79.071L66.923,75.569L67.385,71.438L67.846,66.795L68.308,61.814L68.769,56.694L69.231,51.637L69.692,46.822L70.154,42.403L70.615,38.517L71.077,35.303L71.538,32.933L72,31.629L72.462,31.63L72.923,33.093L73.385,35.97L73.846,39.991L74.308,44.756L74.769,49.858L75.231,54.96L75.692,59.821L76.154,64.293L76.615,68.299L77.077,71.816L77.538,74.856L78,77.451L78.462,79.643L78.923,81.48L79.385,83.008L79.846,84.272L80.308,85.312L80.769,86.163L81.231,86.855L81.692,87.413L82.154,87.86L82.615,88.21L83.077,88.478L83.538,88.669L84,88.789L84.462,88.835L84.923,88.798L85.385,88.661L85.846,88.397L86.308,87.961L86.769,87.294L87.231,86.316L87.692,84.928L88.154,83.024L88.615,80.51L89.077,77.329L89.538,73.489L90,69.073L90.462,64.229L90.923,59.15L91.385,54.039L91.846,49.087L92.308,44.46L92.769,40.302L93.231,36.748L93.692,33.95L94.154,32.104L94.615,31.452L95.077,32.206L95.538,34.427L96,37.945L96.462,42.406L96.923,47.395L97.385,52.533L97.846,57.533L98.308,62.205L98.769,66.44L99.231,70.192L99.692,73.458L100.154,76.261L100.615,78.64L101.077,80.641L101.538,82.312L102,83.697L102.462,84.84L102.923,85.777L103.385,86.541L103.846,87.161L104.308,87.659L104.769,88.053L105.231,88.359L105.692,88.587L106.154,88.741L106.615,88.823L107.077,88.827L107.538,88.741L108,88.542L108.462,88.194L108.923,87.647L109.385,86.829L109.846,85.651L110.308,84.007L110.769,81.796L111.231,78.938L111.692,75.408L112.154,71.253L112.615,66.592L113.077,61.601L113.538,56.48L114,51.429L114.462,46.628L114.923,42.228L115.385,38.368" stroke="rgb(68, 58, 131)" stroke-width="2"/></g></g><path class="foreground" aria-hidden="true" d="" display="none"/></g><g transform="translate(0,0)"><path class="background" aria-hidden="true" d="M0,0h120v90h-120Z"/><g><g class="mark-line role-mark layer_0_marks" role="graphics-object" aria-roledescription="line mark container"><path aria-label="Time (mins): 0; Protein 1: 100; Percentile: 25" role="graphics-symbol" aria-roledescription="line mark" d="M0,86.786L0.462,86.406L0.923,83.605L1.385,79.052L1.846,73.428L2.308,67.277L2.769,61.021L3.231,54.979L3.692,49.389L4.154,44.432L4.615,40.261L5.077,37.017L5.538,34.84L6,33.858L6.462,34.146L6.923,35.684L7.385,38.328L7.846,41.836L8.308,45.916L8.769,50.282L9.231,54.691L9.692,58.962L10.154,62.97L10.615,66.643L11.077,69.946L11.538,72.874L12,75.438L12.462,77.662L12.923,79.577L13.385,81.215L13.846,82.608L14.308,83.788L14.769,84.783L15.231,85.618L15.692,86.316L16.154,86.896L16.615,87.375L17.077,87.766L17.538,88.079L18,88.324L18.462,88.504L18.923,88.621L19.385,88.673L19.846,88.653L20.308,88.548L20.769,88.339L21.231,87.995L21.692,87.476L22.154,86.727L22.615,85.678L23.077,84.248L23.538,82.348L24,79.896L24.462,76.836L24.923,73.151L25.385,68.879L25.846,64.112L26.308,58.989L26.769,53.674L27.231,48.342L27.692,43.157L28.154,38.268L28.615,33.811L29.077,29.916L29.538,26.726L30,24.416L30.462,23.194L30.923,23.269L31.385,24.757L31.846,27.611L32.308,31.602L32.769,36.387L33.231,41.603L33.692,46.931L34.154,52.125L34.615,57.019L35.077,61.513L35.538,65.559L36,69.145L36.462,72.286L36.923,75.01L37.385,77.353L37.846,79.357L38.308,81.06L38.769,82.502L39.231,83.717L39.692,84.738L40.154,85.593L40.615,86.305L41.077,86.897L41.538,87.384L42,87.783L42.462,88.104L42.923,88.357L43.385,88.546L43.846,88.674L44.308,88.74L44.769,88.739L45.231,88.66L45.692,88.486L46.154,88.191L46.615,87.736L47.077,87.072L47.538,86.134L48,84.843L48.462,83.11L48.923,80.849L49.385,77.992L49.846,74.506L50.308,70.409L50.769,65.777L51.231,60.736L51.692,55.443L52.154,50.073L52.615,44.795L53.077,39.762L53.538,35.113L54,30.975L54.462,27.481L54.923,24.786L55.385,23.088L55.846,22.601L56.308,23.496L56.769,25.807L57.231,29.376L57.692,33.899L58.154,39.009L58.615,44.361L59.077,49.674L59.538,54.746L60,59.451L60.462,63.72L60.923,67.527L61.385,70.878L61.846,73.795L62.308,76.312L62.769,78.47L63.231,80.308L63.692,81.867L64.154,83.183L64.615,84.29L65.077,85.219L65.538,85.994L66,86.639L66.462,87.173L66.923,87.611L67.385,87.967L67.846,88.25L68.308,88.468L68.769,88.624L69.231,88.719L69.692,88.75L70.154,88.71L70.615,88.583L71.077,88.348L71.538,87.973L72,87.415L72.462,86.614L72.923,85.499L73.385,83.984L73.846,81.98L74.308,79.409L74.769,76.218L75.231,72.401L75.692,68.007L76.154,63.138L76.615,57.942L77.077,52.586L77.538,47.243L78,42.077L78.462,37.231L78.923,32.837L79.385,29.023L79.846,25.93L80.308,23.737L80.769,22.654L81.231,22.884L81.692,24.537L82.154,27.545L82.615,31.664L83.077,36.545L83.538,41.823L84,47.185L84.462,52.392L84.923,57.283L85.385,61.763L85.846,65.789L86.308,69.353L86.769,72.471L87.231,75.172L87.692,77.494L88.154,79.478L88.615,81.164L89.077,82.59L89.538,83.792L90,84.801L90.462,85.646L90.923,86.35L91.385,86.934L91.846,87.415L92.308,87.809L92.769,88.125L93.231,88.373L93.692,88.558L94.154,88.682L94.615,88.744L95.077,88.739L95.538,88.655L96,88.474L96.462,88.17L96.923,87.705L97.385,87.026L97.846,86.069L98.308,84.754L98.769,82.992L99.231,80.697L99.692,77.802L100.154,74.278L100.615,70.146L101.077,65.485L101.538,60.423L102,55.121L102.462,49.751L102.923,44.482L103.385,39.468L103.846,34.846L104.308,30.741L104.769,27.288L105.231,24.646L105.692,23.012L106.154,22.601L106.615,23.579L107.077,25.968L107.538,29.602L108,34.17L108.462,39.305L108.923,44.662L109.385,49.966L109.846,55.022L110.308,59.704L110.769,63.947L111.231,67.728L111.692,71.054L112.154,73.947L112.615,76.443L113.077,78.582L113.538,80.403L114,81.948L114.462,83.251L114.923,84.348L115.385,85.266" stroke="rgb(49, 104, 142)" stroke-width="2"/></g></g><path class="foreground" aria-hidden="true" d="" display="none"/></g><g transform="translate(0,0)"><path class="background" aria-hidden="true" d="M0,0h120v90h-120Z"/><g><g class="mark-line role-mark layer_0_marks" role="graphics-object" aria-roledescription="line mark container"><path aria-label="Time (mins): 0; Protein 1: 100; Percentile: 50" role="graphics-symbol" aria-roledescription="line mark" d="M0,86.786L0.462,86.35L0.923,83.509L1.385,78.918L1.846,73.236L2.308,66.983L2.769,60.563L3.231,54.283L3.692,48.37L4.154,43.001L4.615,38.318L5.077,34.451L5.538,31.525L6,29.665L6.462,28.975L6.923,29.504L7.385,31.212L7.846,33.958L8.308,37.516L8.769,41.625L9.231,46.026L9.692,50.499L10.154,54.869L10.615,59.017L11.077,62.864L11.538,66.371L12,69.524L12.462,72.325L12.923,74.794L13.385,76.952L13.846,78.828L14.308,80.45L14.769,81.847L15.231,83.047L15.692,84.072L16.154,84.946L16.615,85.69L17.077,86.319L17.538,86.849L18,87.294L18.462,87.662L18.923,87.963L19.385,88.203L19.846,88.385L20.308,88.511L20.769,88.581L21.231,88.588L21.692,88.524L22.154,88.375L22.615,88.121L23.077,87.734L23.538,87.174L24,86.394L24.462,85.333L24.923,83.919L25.385,82.077L25.846,79.735L26.308,76.835L26.769,73.347L27.231,69.284L27.692,64.699L28.154,59.692L28.615,54.391L29.077,48.946L29.538,43.508L30,38.226L30.462,33.235L30.923,28.661L31.385,24.63L31.846,21.28L32.308,18.772L32.769,17.295L33.231,17.04L33.692,18.134L34.154,20.572L34.615,24.198L35.077,28.733L35.538,33.848L36,39.23L36.462,44.621L36.923,49.825L37.385,54.714L37.846,59.211L38.308,63.279L38.769,66.914L39.231,70.127L39.692,72.945L40.154,75.399L40.615,77.525L41.077,79.359L41.538,80.934L42,82.283L42.462,83.434L42.923,84.415L43.385,85.249L43.846,85.955L44.308,86.551L44.769,87.052L45.231,87.47L45.692,87.816L46.154,88.097L46.615,88.32L47.077,88.488L47.538,88.602L48,88.66L48.462,88.657L48.923,88.585L49.385,88.428L49.846,88.166L50.308,87.769L50.769,87.199L51.231,86.406L51.692,85.328L52.154,83.893L52.615,82.025L53.077,79.651L53.538,76.714L54,73.186L54.462,69.081L54.923,64.455L55.385,59.409L55.846,54.076L56.308,48.603L56.769,43.145L57.231,37.847L57.692,32.843L58.154,28.257L58.615,24.213L59.077,20.843L59.538,18.308L60,16.795L60.462,16.495L60.923,17.542L61.385,19.944L61.846,23.549L62.308,28.082L62.769,33.215L63.231,38.63L63.692,44.064L64.154,49.317L64.615,54.257L65.077,58.805L65.538,62.922L66,66.601L66.462,69.856L66.923,72.71L67.385,75.197L67.846,77.352L68.308,79.211L68.769,80.808L69.231,82.175L69.692,83.344L70.154,84.338L70.615,85.184L71.077,85.9L71.538,86.505L72,87.013L72.462,87.438L72.923,87.79L73.385,88.077L73.846,88.305L74.308,88.477L74.769,88.596L75.231,88.659L75.692,88.662L76.154,88.597L76.615,88.449L77.077,88.197L77.538,87.815L78,87.263L78.462,86.493L78.923,85.445L79.385,84.047L79.846,82.223L80.308,79.899L80.769,77.016L81.231,73.543L81.692,69.49L82.154,64.909L82.615,59.897L83.077,54.583L83.538,49.117L84,43.65L84.462,38.33L84.923,33.292L85.385,28.662L85.846,24.56L86.308,21.119L86.769,18.496L87.231,16.876L87.692,16.452L88.154,17.367L88.615,19.643L89.077,23.143L89.538,27.602L90,32.692L90.462,38.094L90.923,43.536L91.385,48.815L91.846,53.79L92.308,58.379L92.769,62.539L93.231,66.261L93.692,69.556L94.154,72.448L94.615,74.97L95.077,77.156L95.538,79.042L96,80.663L96.462,82.051L96.923,83.238L97.385,84.248L97.846,85.107L98.308,85.835L98.769,86.45L99.231,86.968L99.692,87.4L100.154,87.759L100.615,88.052L101.077,88.285L101.538,88.463L102,88.587L102.462,88.655L102.923,88.665L103.385,88.607L103.846,88.467L104.308,88.227L104.769,87.859L105.231,87.326L105.692,86.58L106.154,85.561L106.615,84.201L107.077,82.422L107.538,80.15L108,77.323L108.462,73.909L108.923,69.91L109.385,65.377L109.846,60.402L110.308,55.112L110.769,49.653L111.231,44.18L111.692,38.839L112.154,33.769L112.615,29.093L113.077,24.934L113.538,21.422L114,18.711L114.462,16.984L114.923,16.436L115.385,17.217" stroke="rgb(33, 145, 141)" stroke-width="2"/></g></g><path class="foreground" aria-hidden="true" d="" display="none"/></g><g transform="translate(0,0)"><path class="background" aria-hidden="true" d="M0,0h120v90h-120Z"/><g><g class="mark-line role-mark layer_0_marks" role="graphics-object" aria-roledescription="line mark container"><path aria-label="Time (mins): 0; Protein 1: 100; Percentile: 75" role="graphics-symbol" aria-roledescription="line mark" d="M0,86.786L0.462,86.298L0.923,83.417L1.385,78.79L1.846,73.055L2.308,66.715L2.769,60.155L3.231,53.667L3.692,47.471L4.154,41.734L4.615,36.59L5.077,32.157L5.538,28.546L6,25.868L6.462,24.232L6.923,23.719L7.385,24.361L7.846,26.112L8.308,28.841L8.769,32.351L9.231,36.412L9.692,40.794L10.154,45.292L10.615,49.741L11.077,54.021L11.538,58.048L12,61.774L12.462,65.174L12.923,68.243L13.385,70.99L13.846,73.431L14.308,75.587L14.769,77.483L15.231,79.143L15.692,80.593L16.154,81.854L16.615,82.95L17.077,83.899L17.538,84.719L18,85.426L18.462,86.034L18.923,86.555L19.385,87L19.846,87.376L20.308,87.691L20.769,87.95L21.231,88.157L21.692,88.315L22.154,88.423L22.615,88.48L23.077,88.48L23.538,88.417L24,88.278L24.462,88.048L24.923,87.703L25.385,87.215L25.846,86.547L26.308,85.653L26.769,84.478L27.231,82.961L27.692,81.039L28.154,78.651L28.615,75.748L29.077,72.304L29.538,68.321L30,63.835L30.462,58.919L30.923,53.672L31.385,48.215L31.846,42.681L32.308,37.201L32.769,31.906L33.231,26.916L33.692,22.35L34.154,18.33L34.615,14.987L35.077,12.478L35.538,10.971L36,10.632L36.462,11.569L36.923,13.79L37.385,17.171L37.846,21.486L38.308,26.452L38.769,31.784L39.231,37.23L39.692,42.592L40.154,47.726L40.615,52.537L41.077,56.97L41.538,61.002L42,64.63L42.462,67.869L42.923,70.739L43.385,73.269L43.846,75.49L44.308,77.432L44.769,79.124L45.231,80.596L45.692,81.872L46.154,82.977L46.615,83.932L47.077,84.756L47.538,85.466L48,86.075L48.462,86.596L48.923,87.041L49.385,87.418L49.846,87.734L50.308,87.995L50.769,88.205L51.231,88.368L51.692,88.482L52.154,88.547L52.615,88.56L53.077,88.513L53.538,88.395L54,88.193L54.462,87.885L54.923,87.445L55.385,86.838L55.846,86.021L56.308,84.941L56.769,83.539L57.231,81.75L57.692,79.513L58.154,76.772L58.615,73.494L59.077,69.67L59.538,65.325L60,60.52L60.462,55.347L60.923,49.922L61.385,44.374L61.846,38.836L62.308,33.439L62.769,28.305L63.231,23.552L63.692,19.296L64.154,15.661L64.615,12.791L65.077,10.85L65.538,10.009L66,10.411L66.462,12.113L66.923,15.048L67.385,19.029L67.846,23.789L68.308,29.038L68.769,34.504L69.231,39.964L69.692,45.249L70.154,50.243L70.615,54.876L71.077,59.111L71.538,62.939L72,66.366L72.462,69.413L72.923,72.104L73.385,74.47L73.846,76.542L74.308,78.35L74.769,79.924L75.231,81.29L75.692,82.474L76.154,83.498L76.615,84.382L77.077,85.144L77.538,85.799L78,86.361L78.462,86.841L78.923,87.248L79.385,87.592L79.846,87.879L80.308,88.113L80.769,88.298L81.231,88.435L81.692,88.525L82.154,88.563L82.615,88.546L83.077,88.464L83.538,88.304L84,88.051L84.462,87.678L84.923,87.157L85.385,86.447L85.846,85.501L86.308,84.263L86.769,82.669L87.231,80.656L87.692,78.165L88.154,75.149L88.615,71.588L89.077,67.489L89.538,62.896L90,57.888L90.462,52.568L90.923,47.063L91.385,41.503L91.846,36.021L92.308,30.744L92.769,25.792L93.231,21.279L93.692,17.325L94.154,14.064L94.615,11.649L95.077,10.253L95.538,10.037L96,11.106L96.462,13.458L96.923,16.96L97.385,21.378L97.846,26.426L98.308,31.819L98.769,37.307L99.231,42.696L99.692,47.844L100.154,52.661L100.615,57.093L101.077,61.12L101.538,64.741L102,67.971L102.462,70.832L102.923,73.353L103.385,75.565L103.846,77.498L104.308,79.183L104.769,80.647L105.231,81.917L105.692,83.017L106.154,83.967L106.615,84.786L107.077,85.492L107.538,86.097L108,86.616L108.462,87.058L108.923,87.432L109.385,87.746L109.846,88.005L110.308,88.214L110.769,88.374L111.231,88.487L111.692,88.551L112.154,88.562L112.615,88.513L113.077,88.393L113.538,88.188L114,87.877L114.462,87.433L114.923,86.82L115.385,85.996" stroke="rgb(53, 183, 121)" stroke-width="2"/></g></g><path class="foreground" aria-hidden="true" d="" display="none"/></g><g transform="translate(0,0)"><path class="background" aria-hidden="true" d="M0,0h120v90h-120Z"/><g><g class="mark-line role-mark layer_0_marks" role="graphics-object" aria-roledescription="line mark container"><path aria-label="Time (mins): 0; Protein 1: 100; Percentile: 95" role="graphics-symbol" aria-roledescription="line mark" d="M0,86.786L0.462,86.23L0.923,83.299L1.385,78.623L1.846,72.825L2.308,66.385L2.769,59.666L3.231,52.942L3.692,46.42L4.154,40.253L4.615,34.564L5.077,29.456L5.538,25.023L6,21.354L6.462,18.544L6.923,16.678L7.385,15.828L7.846,16.031L8.308,17.268L8.769,19.462L9.231,22.476L9.692,26.134L10.154,30.244L10.615,34.621L11.077,39.1L11.538,43.547L12,47.86L12.462,51.965L12.923,55.815L13.385,59.383L13.846,62.659L14.308,65.644L14.769,68.346L15.231,70.78L15.692,72.963L16.154,74.915L16.615,76.654L17.077,78.201L17.538,79.574L18,80.79L18.462,81.866L18.923,82.817L19.385,83.655L19.846,84.394L20.308,85.044L20.769,85.614L21.231,86.113L21.692,86.549L22.154,86.927L22.615,87.253L23.077,87.532L23.538,87.766L24,87.957L24.462,88.108L24.923,88.217L25.385,88.284L25.846,88.304L26.308,88.275L26.769,88.187L27.231,88.032L27.692,87.796L28.154,87.462L28.615,87.01L29.077,86.412L29.538,85.638L30,84.648L30.462,83.401L30.923,81.849L31.385,79.945L31.846,77.641L32.308,74.899L32.769,71.691L33.231,68.005L33.692,63.854L34.154,59.27L34.615,54.313L35.077,49.059L35.538,43.602L36,38.047L36.462,32.503L36.923,27.078L37.385,21.881L37.846,17.019L38.308,12.598L38.769,8.736L39.231,5.556L39.692,3.195L40.154,1.796L40.615,1.482L41.077,2.331L41.538,4.341L42,7.423L42.462,11.407L42.923,16.073L43.385,21.187L43.846,26.53L44.308,31.916L44.769,37.197L45.231,42.264L45.692,47.046L46.154,51.498L46.615,55.599L47.077,59.345L47.538,62.742L48,65.806L48.462,68.557L48.923,71.018L49.385,73.213L49.846,75.166L50.308,76.899L50.769,78.435L51.231,79.794L51.692,80.996L52.154,82.056L52.615,82.992L53.077,83.816L53.538,84.54L54,85.177L54.462,85.736L54.923,86.225L55.385,86.651L55.846,87.021L56.308,87.341L56.769,87.613L57.231,87.843L57.692,88.031L58.154,88.18L58.615,88.289L59.077,88.356L59.538,88.38L60,88.356L60.462,88.276L60.923,88.132L61.385,87.911L61.846,87.597L62.308,87.17L62.769,86.604L63.231,85.868L63.692,84.926L64.154,83.735L64.615,82.25L65.077,80.422L65.538,78.202L66,75.551L66.462,72.436L66.923,68.842L67.385,64.776L67.846,60.266L68.308,55.366L68.769,50.148L69.231,44.705L69.692,39.137L70.154,33.553L70.615,28.062L71.077,22.771L71.538,17.784L72,13.209L72.462,9.155L72.923,5.741L73.385,3.101L73.846,1.375L74.308,0.697L74.769,1.166L75.231,2.811L75.692,5.573L76.154,9.308L76.615,13.807L77.077,18.838L77.538,24.171L78,29.606L78.462,34.981L78.923,40.173L79.385,45.099L79.846,49.704L80.308,53.96L80.769,57.858L81.231,61.401L81.692,64.602L82.154,67.48L82.615,70.057L83.077,72.358L83.538,74.407L84,76.227L84.462,77.84L84.923,79.269L85.385,80.532L85.846,81.647L86.308,82.631L86.769,83.498L87.231,84.262L87.692,84.933L88.154,85.522L88.615,86.038L89.077,86.488L89.538,86.88L90,87.219L90.462,87.51L90.923,87.757L91.385,87.962L91.846,88.126L92.308,88.252L92.769,88.336L93.231,88.379L93.692,88.375L94.154,88.319L94.615,88.203L95.077,88.015L95.538,87.742L96,87.364L96.462,86.859L96.923,86.198L97.385,85.346L97.846,84.264L98.308,82.907L98.769,81.227L99.231,79.176L99.692,76.708L100.154,73.788L100.615,70.393L101.077,66.521L101.538,62.19L102,57.443L102.462,52.347L102.923,46.984L103.385,41.454L103.846,35.863L104.308,30.319L104.769,24.931L105.231,19.804L105.692,15.043L106.154,10.757L106.615,7.059L107.077,4.078L107.538,1.952L108,0.82L108.462,0.8L108.923,1.954L109.385,4.261L109.846,7.612L110.308,11.819L110.769,16.657L111.231,21.891L111.692,27.307L112.154,32.725L112.615,38.008L113.077,43.056L113.538,47.801L114,52.207L114.462,56.256L114.923,59.948L115.385,63.291" stroke="rgb(143, 215, 68)" stroke-width="2"/></g></g><path class="foreground" aria-hidden="true" d="" display="none"/></g></g><g class="mark-group role-legend" role="graphics-symbol" aria-roledescription="legend" aria-label="Symbol legend titled 'Percentile' for stroke color with 5 values: 5, 25, 50, 75, 95"><g transform="translate(138,0)"><path class="background" aria-hidden="true" d="M0,0h53v79h-53Z" pointer-events="none"/><g><g class="mark-group role-legend-entry"><g transform="translate(0,16)"><path class="background" aria-hidden="true" d="M0,0h0v0h0Z" pointer-events="none"/><g><g class="mark-group role-scope" role="graphics-object" aria-roledescription="group mark container"><g transform="translate(0,0)"><path class="background" aria-hidden="true" d="M0,0h27.123046875v11h-27.123046875Z" pointer-events="none" opacity="1"/><g><g class="mark-symbol role-legend-symbol" pointer-events="none"><path transform="translate(6,6)" d="M-5,0L5,0" stroke="rgb(68, 58, 131)" stroke-width="1.5" opacity="1"/></g><g class="mark-text role-legend-label" pointer-events="none"><text text-anchor="start" transform="translate(16,9)" font-family="Arial" font-size="10px" fill="#000" opacity="1">5</text></g></g><path class="foreground" aria-hidden="true" d="" pointer-events="none" display="none"/></g><g transform="translate(0,13)"><path class="background" aria-hidden="true" d="M0,0h27.123046875v11h-27.123046875Z" pointer-events="none" opacity="1"/><g><g class="mark-symbol role-legend-symbol" pointer-events="none"><path transform="translate(6,6)" d="M-5,0L5,0" stroke="rgb(49, 104, 142)" stroke-width="1.5" opacity="1"/></g><g class="mark-text role-legend-label" pointer-events="none"><text text-anchor="start" transform="translate(16,9)" font-family="Arial" font-size="10px" fill="#000" opacity="1">25</text></g></g><path class="foreground" aria-hidden="true" d="" pointer-events="none" display="none"/></g><g transform="translate(0,26)"><path class="background" aria-hidden="true" d="M0,0h27.123046875v11h-27.123046875Z" pointer-events="none" opacity="1"/><g><g class="mark-symbol role-legend-symbol" pointer-events="none"><path transform="translate(6,6)" d="M-5,0L5,0" stroke="rgb(33, 145, 141)" stroke-width="1.5" opacity="1"/></g><g class="mark-text role-legend-label" pointer-events="none"><text text-anchor="start" transform="translate(16,9)" font-family="Arial" font-size="10px" fill="#000" opacity="1">50</text></g></g><path class="foreground" aria-hidden="true" d="" pointer-events="none" display="none"/></g><g transform="translate(0,39)"><path class="background" aria-hidden="true" d="M0,0h27.123046875v11h-27.123046875Z" pointer-events="none" opacity="1"/><g><g class="mark-symbol role-legend-symbol" pointer-events="none"><path transform="translate(6,6)" d="M-5,0L5,0" stroke="rgb(53, 183, 121)" stroke-width="1.5" opacity="1"/></g><g class="mark-text role-legend-label" pointer-events="none"><text text-anchor="start" transform="translate(16,9)" font-family="Arial" font-size="10px" fill="#000" opacity="1">75</text></g></g><path class="foreground" aria-hidden="true" d="" pointer-events="none" display="none"/></g><g transform="translate(0,52)"><path class="background" aria-hidden="true" d="M0,0h27.123046875v11h-27.123046875Z" pointer-events="none" opacity="1"/><g><g class="mark-symbol role-legend-symbol" pointer-events="none"><path transform="translate(6,6)" d="M-5,0L5,0" stroke="rgb(143, 215, 68)" stroke-width="1.5" opacity="1"/></g><g class="mark-text role-legend-label" pointer-events="none"><text text-anchor="start" transform="translate(16,9)" font-family="Arial" font-size="10px" fill="#000" opacity="1">95</text></g></g><path class="foreground" aria-hidden="true" d="" pointer-events="none" display="none"/></g></g></g><path class="foreground" aria-hidden="true" d="" pointer-events="none" display="none"/></g></g><g class="mark-text role-legend-title" pointer-events="none"><text text-anchor="start" transform="translate(0,9)" font-family="Arial" font-size="11px" font-weight="bold" fill="#000" opacity="1">Percentile</text></g></g><path class="foreground" aria-hidden="true" d="" pointer-events="none" display="none"/></g></g></g><path class="foreground" aria-hidden="true" d="" display="none"/></g></g></g></svg>