<svg xmlns="http://www.w3.org/2000/svg" xmlns:xlink="http://www.w3.org/1999/xlink" version="1.1" class="marks" width="177" height="130" viewBox="0 0 177 130"><rect width="177" height="130" fill="white"/><g fill="none" stroke-miterlimit="10" transform="translate(51,5)"><g class="mark-group role-frame root" role="graphics-object" aria-roledescription="group mark container"><g transform="translate(0,0)"><path class="background" aria-hidden="true" d="M0.5,0.5h120v90h-120Z"/><g><g class="mark-group role-axis" role="graphics-symbol" aria-roledescription="axis" aria-label="X-axis titled 'Time (min)' for a linear scale with values from 0 to 160"><g transform="translate(0.5,90.5)"><path class="background" aria-hidden="true" d="M0,0h0v0h0Z" pointer-events="none"/><g><g class="mark-rule role-axis-tick" pointer-events="none"><line transform="translate(0,0)" x2="0" y2="3" stroke="black" stroke-width="1" opacity="1"/><line transform="translate(38,0)" x2="0" y2="3" stroke="black" stroke-width="1" opacity="1"/><line transform="translate(75,0)" x2="0" y2="3" stroke="black" stroke-width="1" opacity="1"/><line transform="translate(113,0)" x2="0" y2="3" stroke="black" stroke-width="1" opacity="1"/></g><g class="mark-text role-axis-label" pointer-events="none"><text text-anchor="start" transform="translate(0,13)" font-family="Arial" font-size="10px" fill="#000" opacity="1">0</text><text text-anchor="middle" transform="translate(37.5,13)" font-family="Arial" font-size="10px" fill="#000" opacity="1">50</text><text text-anchor="middle" transform="translate(75,13)" font-family="Arial" font-size="10px" fill="#000" opacity="1">100</text><text text-anchor="middle" transform="translate(112.5,13)" font-family="Arial" font-size="10px" fill="#000" opacity="1">150</text></g><g class="mark-rule role-axis-domain" pointer-events="none"><line transform="translate(0,0)" x2="120" y2="0" stroke="black" stroke-width="1" opacity="1"/></g><g class="mark-text role-axis-title" pointer-events="none"><text text-anchor="middle" transform="translate(60,28)" font-family="Arial" font-size="11px" font-weight="normal" fill="#000" opacity="1">Time (min)</text></g></g><path class="foreground" aria-hidden="true" d="" pointer-events="none" display="none"/></g></g><g class="mark-group role-axis" role="graphics-symbol" aria-roledescription="axis" aria-label="Y-axis titled 'Protein' for a linear scale with values from 0 to 2,400"><g transform="translate(0.5,0.5)"><path class="background" aria-hidden="true" d="M0,0h0v0h0Z" pointer-events="none"/><g><g class="mark-rule role-axis-tick" pointer-events="none"><line transform="translate(0,90)" x2="-3" y2="0" stroke="black" stroke-width="1" opacity="1"/><line transform="translate(0,52)" x2="-3" y2="0" stroke="black" stroke-width="1" opacity="1"/><line transform="translate(0,15)" x2="-3" y2="0" stroke="black" stroke-width="1" opacity="1"/></g><g class="mark-text role-axis-label" pointer-events="none"><text text-anchor="end" transform="translate(-5,93)" font-family="Arial" font-size="10px" fill="#000" opacity="1">0</text><text text-anchor="end" transform="translate(-5,55.49999999999999)" font-family="Arial" font-size="10px" fill="#000" opacity="1">1,000</text><text text-anchor="end" transform="translate(-5,17.999999999999996)" font-family="Arial" font-size="10px" fill="#000" opacity="1">2,000</text></g><g class="mark-rule role-axis-domain" pointer-events="none"><line transform="translate(0,90)" x2="0" y2="-90" stroke="black" stroke-width="1" opacity="1"/></g><g class="mark-text role-axis-title" pointer-events="none"><text text-anchor="middle" transform="translate(-34.0244140625,45) rotate(-90) translate(0,-2)" font-family="Arial" font-size="11px" font-weight="normal" fill="#000" opacity="1">Protein</text></g></g><path class="foreground" aria-hidden="true" d="" pointer-events="none" display="none"/></g></g><g class="mark-group role-scope layer_0_pathgroup" role="graphics-object" aria-roledescription="group mark container"><g transform="translate(0,0)"><path class="background" aria-hidden="true" d="M0,0h120v90h-120Z"/><g><g class="mark-line role-mark layer_0_marks" role="graphics-object" aria-roledescription="line mark container"><path aria-label="t: 0; P: 100; gene: Gene 1" role="graphics-symbol" aria-roledescription="line mark" d="M0,86.25L0.75,85.742L1.5,82.427L2.25,77.07L3,70.44L3.75,63.145L4.5,55.654L5.25,48.326L6,41.426L6.75,35.159L7.5,29.693L8.25,25.177L9,21.759L9.75,19.584L10.5,18.773L11.25,19.384L12,21.37L12.75,24.568L13.5,28.715L14.25,33.506L15,38.64L15.75,43.858L16.5,48.959L17.25,53.8L18,58.292L18.75,62.387L19.5,66.068L20.25,69.341L21,72.224L21.75,74.745L22.5,76.937L23.25,78.833L24,80.466L24.75,81.868L25.5,83.067L26.25,84.089L27,84.958L27.75,85.694L28.5,86.314L29.25,86.834L30,87.265L30.75,87.617L31.5,87.898L32.25,88.112L33,88.261L33.75,88.342L34.5,88.352L35.25,88.28L36,88.108L36.75,87.815L37.5,87.367L38.25,86.719L39,85.816L39.75,84.585L40.5,82.947L41.25,80.811L42,78.093L42.75,74.726L43.5,70.675L44.25,65.951L45,60.616L45.75,54.785L46.5,48.608L47.25,42.256L48,35.909L48.75,29.739L49.5,23.903L50.25,18.551L51,13.827L51.75,9.891L52.5,6.933L53.25,5.171L54,4.828L54.75,6.055L55.5,8.854L56.25,13.045L57,18.308L57.75,24.261L58.5,30.536L59.25,36.829L60,42.911L60.75,48.629L61.5,53.891L62.25,58.656L63,62.913L63.75,66.679L64.5,69.982L65.25,72.86L66,75.354L66.75,77.505L67.5,79.353L68.25,80.936L69,82.288L69.75,83.44L70.5,84.418L71.25,85.248L72,85.948L72.75,86.536L73.5,87.028L74.25,87.435L75,87.766L75.75,88.029L76.5,88.228L77.25,88.363L78,88.434L78.75,88.435L79.5,88.354L80.25,88.176L81,87.877L81.75,87.423L82.5,86.769L83.25,85.858L84,84.619L84.75,82.968L85.5,80.816L86.25,78.078L87,74.686L87.75,70.606L88.5,65.85L89.25,60.482L90,54.618L90.75,48.408L91.5,42.027L92.25,35.653L93,29.457L93.75,23.596L94.5,18.215L95.25,13.457L96,9.476L96.75,6.458L97.5,4.619L98.25,4.183L99,5.314L99.75,8.029L100.5,12.161L101.25,17.398L102,23.356L102.75,29.665L103.5,36.01L104.25,42.157L105,47.946L105.75,53.28L106.5,58.115L107.25,62.439L108,66.266L108.75,69.624L109.5,72.551L110.25,75.088L111,77.278L111.75,79.159L112.5,80.771" stroke="#1657a8" stroke-width="2"/></g></g><path class="foreground" aria-hidden="true" d="" display="none"/></g><g transform="translate(0,0)"><path class="background" aria-hidden="true" d="M0,0h120v90h-120Z"/><g><g class="mark-line role-mark layer_0_marks" role="graphics-object" aria-roledescription="line mark container"><path aria-label="t: 0; P: 100; gene: Gene 2" role="graphics-symbol" aria-roledescription="line mark" d="M0,86.25L0.75,86.824L1.5,87.242L2.25,87.535L3,87.732L3.75,87.854L4.5,87.911L5.25,87.907L6,87.837L6.75,87.69L7.5,87.45L8.25,87.092L9,86.583L9.75,85.879L10.5,84.926L11.25,83.656L12,81.994L12.75,79.858L13.5,77.172L14.25,73.874L15,69.936L15.75,65.371L16.5,60.239L17.25,54.648L18,48.744L18.75,42.695L19.5,36.679L20.25,30.873L21,25.45L21.75,20.584L22.5,16.457L23.25,13.275L24,11.26L24.75,10.628L25.5,11.519L26.25,13.931L27,17.693L27.75,22.5L28.5,27.993L29.25,33.823L30,39.698L30.75,45.397L31.5,50.77L32.25,55.727L33,60.223L33.75,64.248L34.5,67.813L35.25,70.943L36,73.673L36.75,76.04L37.5,78.084L38.25,79.841L39,81.347L39.75,82.633L40.5,83.729L41.25,84.66L42,85.449L42.75,86.115L43.5,86.674L44.25,87.14L45,87.523L45.75,87.834L46.5,88.077L47.25,88.255L48,88.37L48.75,88.418L49.5,88.392L50.25,88.279L51,88.06L51.75,87.707L52.5,87.185L53.25,86.442L54,85.418L54.75,84.035L55.5,82.207L56.25,79.847L57,76.872L57.75,73.228L58.5,68.894L59.25,63.904L60,58.341L60.75,52.334L61.5,46.047L62.25,39.656L63,33.338L63.75,27.258L64.5,21.571L65.25,16.418L66,11.948L66.75,8.324L67.5,5.747L68.25,4.441L69,4.617L69.75,6.386L70.5,9.692L71.25,14.301L72,19.863L72.75,25.992L73.5,32.335L74.25,38.612L75,44.619L75.75,50.222L76.5,55.349L77.25,59.969L78,64.083L78.75,67.71L79.5,70.885L80.25,73.645L81,76.033L81.75,78.09L82.5,79.855L83.25,81.366L84,82.655L84.75,83.752L85.5,84.683L86.25,85.472L87,86.137L87.75,86.695L88.5,87.16L89.25,87.543L90,87.854L90.75,88.097L91.5,88.276L92.25,88.393L93,88.444L93.75,88.422L94.5,88.314L95.25,88.104L96,87.762L96.75,87.255L97.5,86.532L98.25,85.532L99,84.18L99.75,82.391L100.5,80.075L101.25,77.15L102,73.556L102.75,69.273L103.5,64.327L104.25,58.799L105,52.815L105.75,46.536L106.5,40.138L107.25,33.799L108,27.685L108.75,21.95L109.5,16.736L110.25,12.189L111,8.471L111.75,5.774L112.5,4.324" stroke="#048059" stroke-width="2"/></g></g><path class="foreground" aria-hidden="true" d="" display="none"/></g><g transform="translate(0,0)"><path class="background" aria-hidden="true" d="M0,0h120v90h-120Z"/><g><g class="mark-line role-mark layer_0_marks" role="graphics-object" aria-roledescription="line mark container"><path aria-label="t: 0; P: 1000; gene: Gene 3" role="graphics-symbol" aria-roledescription="line mark" d="M0,52.5L0.75,57.393L1.5,59.317L2.25,60.431L3,61.866L3.75,63.766L4.5,65.982L5.25,68.337L6,70.693L6.75,72.954L7.5,75.062L8.25,76.987L9,78.716L9.75,80.252L10.5,81.601L11.25,82.778L12,83.797L12.75,84.675L13.5,85.425L14.25,86.063L15,86.6L15.75,87.048L16.5,87.414L17.25,87.705L18,87.926L18.75,88.075L19.5,88.153L20.25,88.15L21,88.056L21.75,87.853L22.5,87.513L23.25,87.002L24,86.269L24.75,85.256L25.5,83.888L26.25,82.08L27,79.748L27.75,76.812L28.5,73.217L29.25,68.945L30,64.026L30.75,58.541L31.5,52.618L32.25,46.417L33,40.113L33.75,33.883L34.5,27.897L35.25,22.312L36,17.282L36.75,12.964L37.5,9.539L38.25,7.218L39,6.227L39.75,6.751L40.5,8.858L41.25,12.436L42,17.216L42.75,22.832L43.5,28.911L44.25,35.124L45,41.213L45.75,47L46.5,52.369L47.25,57.262L48,61.657L48.75,65.56L49.5,68.995L50.25,71.996L51,74.602L51.75,76.854L52.5,78.792L53.25,80.454L54,81.876L54.75,83.088L55.5,84.119L56.25,84.993L57,85.732L57.75,86.355L58.5,86.877L59.25,87.309L60,87.664L60.75,87.948L61.5,88.167L62.25,88.322L63,88.414L63.75,88.437L64.5,88.383L65.25,88.237L66,87.977L66.75,87.574L67.5,86.986L68.25,86.159L69,85.027L69.75,83.51L70.5,81.519L71.25,78.966L72,75.777L72.75,71.907L73.5,67.351L74.25,62.159L75,56.431L75.75,50.31L76.5,43.964L77.25,37.571L78,31.306L78.75,25.33L79.5,19.792L80.25,14.833L81,10.605L81.75,7.28L82.5,5.067L83.25,4.195L84,4.852L84.75,7.107L85.5,10.846L86.25,15.793L87,21.576L87.75,27.814L88.5,34.173L89.25,40.396L90,46.3L90.75,51.773L91.5,56.755L92.25,61.227L93,65.197L93.75,68.688L94.5,71.737L95.25,74.384L96,76.671L96.75,78.638L97.5,80.325L98.25,81.767L99,82.997L99.75,84.043L100.5,84.93L101.25,85.68L102,86.312L102.75,86.841L103.5,87.281L104.25,87.642L105,87.932L105.75,88.157L106.5,88.318L107.25,88.416L108,88.446L108.75,88.4L109.5,88.265L110.25,88.019L111,87.633L111.75,87.068L112.5,86.271" stroke="#6626bb" stroke-width="2"/></g></g><path class="foreground" aria-hidden="true" d="" display="none"/></g></g><g class="mark-group role-scope layer_1_pathgroup" role="graphics-object" aria-roledescription="group mark container"><g transform="translate(0,0)"><path class="background" aria-hidden="true" d="M0,0h120v90h-120Z"/><g><g class="mark-line role-mark layer_1_marks" role="graphics-object" aria-roledescription="line mark container"><path aria-label="t: 0; P: 100; gene: Gene 1" role="graphics-symbol" aria-roledescription="line mark" d="M0,86.25L0.75,85.742L1.5,82.427L2.25,77.07L3,70.44L3.75,63.145L4.5,55.654L5.25,48.326L6,41.426L6.75,35.159L7.5,29.693L8.25,25.177L9,21.759L9.75,19.584L10.5,18.773L11.25,19.384L12,21.37L12.75,24.568L13.5,28.715L14.25,33.506L15,38.64L15.75,43.858L16.5,48.959L17.25,53.8L18,58.292L18.75,62.387L19.5,66.068L20.25,69.341L21,72.224L21.75,74.745L22.5,76.937L23.25,78.833L24,80.466L24.75,81.868L25.5,83.067L26.25,84.089L27,84.958L27.75,85.694L28.5,86.314L29.25,86.834L30,87.265L30.75,87.617L31.5,87.898L32.25,88.112L33,88.261L33.75,88.342L34.5,88.352L35.25,88.28L36,88.108L36.75,87.815L37.5,87.367L38.25,86.719L39,85.816L39.75,84.585L40.5,82.947L41.25,80.811L42,78.093L42.75,74.726L43.5,70.675L44.25,65.951L45,60.616L45.75,54.785L46.5,48.608L47.25,42.256L48,35.909L48.75,29.739L49.5,23.903L50.25,18.551L51,13.827L51.75,9.891L52.5,6.933L53.25,5.171L54,4.828L54.75,6.055L55.5,8.854L56.25,13.045L57,18.308L57.75,24.261L58.5,30.536L59.25,36.829L60,42.911L60.75,48.629L61.5,53.891L62.25,58.656L63,62.913L63.75,66.679L64.5,69.982L65.25,72.86L66,75.354L66.75,77.505L67.5,79.353L68.25,80.936L69,82.288L69.75,83.44L70.5,84.418L71.25,85.248L72,85.948L72.75,86.536L73.5,87.028L74.25,87.435L75,87.766L75.75,88.029L76.5,88.228L77.25,88.363L78,88.434L78.75,88.435L79.5,88.354L80.25,88.176L81,87.877L81.75,87.423L82.5,86.769L83.25,85.858L84,84.619L84.75,82.968L85.5,80.816L86.25,78.078L87,74.686L87.75,70.606L88.5,65.85L89.25,60.482L90,54.618L90.75,48.408L91.5,42.027L92.25,35.653L93,29.457L93.75,23.596L94.5,18.215L95.25,13.457L96,9.476L96.75,6.458L97.5,4.619L98.25,4.183L99,5.314L99.75,8.029L100.5,12.161L101.25,17.398L102,23.356L102.75,29.665L103.5,36.01L104.25,42.157L105,47.946L105.75,53.28L106.5,58.115L107.25,62.439L108,66.266L108.75,69.624L109.5,72.551L110.25,75.088L111,77.278L111.75,79.159L112.5,80.771" stroke="#f462a3" stroke-width="2" stroke-dasharray="4,4"/></g></g><path class="foreground" aria-hidden="true" d="" display="none"/></g><g transform="translate(0,0)"><path class="background" aria-hidden="true" d="M0,0h120v90h-120Z"/><g><g class="mark-line role-mark layer_1_marks" role="graphics-object" aria-roledescription="line mark container"><path aria-label="t: 0; P: 100; gene: Gene 2" role="graphics-symbol" aria-roledescription="line mark" d="M0,86.25L0.75,86.824L1.5,87.242L2.25,87.535L3,87.732L3.75,87.854L4.5,87.911L5.25,87.907L6,87.837L6.75,87.69L7.5,87.45L8.25,87.092L9,86.583L9.75,85.879L10.5,84.926L11.25,83.656L12,81.994L12.75,79.858L13.5,77.172L14.25,73.874L15,69.936L15.75,65.371L16.5,60.239L17.25,54.648L18,48.744L18.75,42.695L19.5,36.679L20.25,30.873L21,25.45L21.75,20.584L22.5,16.457L23.25,13.275L24,11.26L24.75,10.628L25.5,11.519L26.25,13.931L27,17.693L27.75,22.5L28.5,27.993L29.25,33.823L30,39.698L30.75,45.397L31.5,50.77L32.25,55.727L33,60.223L33.75,64.248L34.5,67.813L35.25,70.943L36,73.673L36.75,76.04L37.5,78.084L38.25,79.841L39,81.347L39.75,82.633L40.5,83.729L41.25,84.66L42,85.449L42.75,86.115L43.5,86.674L44.25,87.14L45,87.523L45.75,87.834L46.5,88.077L47.25,88.255L48,88.37L48.75,88.418L49.5,88.392L50.25,88.279L51,88.06L51.75,87.707L52.5,87.185L53.25,86.442L54,85.418L54.75,84.035L55.5,82.207L56.25,79.847L57,76.872L57.75,73.228L58.5,68.894L59.25,63.904L60,58.341L60.75,52.334L61.5,46.047L62.25,39.656L63,33.338L63.75,27.258L64.5,21.571L65.25,16.418L66,11.948L66.75,8.324L67.5,5.747L68.25,4.441L69,4.617L69.75,6.386L70.5,9.692L71.25,14.301L72,19.863L72.75,25.992L73.5,32.335L74.25,38.612L75,44.619L75.75,50.222L76.5,55.349L77.25,59.969L78,64.083L78.75,67.71L79.5,70.885L80.25,73.645L81,76.033L81.75,78.09L82.5,79.855L83.25,81.366L84,82.655L84.75,83.752L85.5,84.683L86.25,85.472L87,86.137L87.75,86.695L88.5,87.16L89.25,87.543L90,87.854L90.75,88.097L91.5,88.276L92.25,88.393L93,88.444L93.75,88.422L94.5,88.314L95.25,88.104L96,87.762L96.75,87.255L97.5,86.532L98.25,85.532L99,84.18L99.75,82.391L100.5,80.075L101.25,77.15L102,73.556L102.75,69.273L103.5,64.327L104.25,58.799L105,52.815L105.75,46.536L106.5,40.138L107.25,33.799L108,27.685L108.75,21.95L109.5,16.736L110.25,12.189L111,8.471L111.75,5.774L112.5,4.324" stroke="#f462a3" stroke-width="2" stroke-dasharray="4,4"/></g></g><path class="foreground" aria-hidden="true" d="" display="none"/></g><g transform="translate(0,0)"><path class="background" aria-hidden="true" d="M0,0h120v90h-120Z"/><g><g class="mark-line role-mark layer_1_marks" role="graphics-object" aria-roledescription="line mark container"><path aria-label="t: 0; P: 1000; gene: Gene 3" role="graphics-symbol" aria-roledescription="line mark" d="M0,52.5L0.75,57.393L1.5,59.317L2.25,60.431L3,61.866L3.75,63.766L4.5,65.982L5.25,68.337L6,70.693L6.75,72.954L7.5,75.062L8.25,76.987L9,78.716L9.75,80.252L10.5,81.601L11.25,82.778L12,83.797L12.75,84.675L13.5,85.425L14.25,86.063L15,86.6L15.75,87.048L16.5,87.414L17.25,87.705L18,87.926L18.75,88.075L19.5,88.153L20.25,88.15L21,88.056L21.75,87.853L22.5,87.513L23.25,87.002L24,86.269L24.75,85.256L25.5,83.888L26.25,82.08L27,79.748L27.75,76.812L28.5,73.217L29.25,68.945L30,64.026L30.75,58.541L31.5,52.618L32.25,46.417L33,40.113L33.75,33.883L34.5,27.897L35.25,22.312L36,17.282L36.75,12.964L37.5,9.539L38.25,7.218L39,6.227L39.75,6.751L40.5,8.858L41.25,12.436L42,17.216L42.75,22.832L43.5,28.911L44.25,35.124L45,41.213L45.75,47L46.5,52.369L47.25,57.262L48,61.657L48.75,65.56L49.5,68.995L50.25,71.996L51,74.602L51.75,76.854L52.5,78.792L53.25,80.454L54,81.876L54.75,83.088L55.5,84.119L56.25,84.993L57,85.732L57.75,86.355L58.5,86.877L59.25,87.309L60,87.664L60.75,87.948L61.5,88.167L62.25,88.322L63,88.414L63.75,88.437L64.5,88.383L65.25,88.237L66,87.977L66.75,87.574L67.5,86.986L68.25,86.159L69,85.027L69.75,83.51L70.5,81.519L71.25,78.966L72,75.777L72.75,71.907L73.5,67.351L74.25,62.159L75,56.431L75.75,50.31L76.5,43.964L77.25,37.571L78,31.306L78.75,25.33L79.5,19.792L80.25,14.833L81,10.605L81.75,7.28L82.5,5.067L83.25,4.195L84,4.852L84.75,7.107L85.5,10.846L86.25,15.793L87,21.576L87.75,27.814L88.5,34.173L89.25,40.396L90,46.3L90.75,51.773L91.5,56.755L92.25,61.227L93,65.197L93.75,68.688L94.5,71.737L95.25,74.384L96,76.671L96.75,78.638L97.5,80.325L98.25,81.767L99,82.997L99.75,84.043L100.5,84.93L101.25,85.68L102,86.312L102.75,86.841L103.5,87.281L104.25,87.642L105,87.932L105.75,88.157L106.5,88.318L107.25,88.416L108,88.446L108.75,88.4L109.5,88.265L110.25,88.019L111,87.633L111.75,87.068L112.5,86.271" stroke="#f462a3" stroke-width="2" stroke-dasharray="4,4"/></g></g><path class="foreground" aria-hidden="true" d="" display="none"/></g></g></g><path class="foreground" aria-hidden="true" d="" display="none"/></g></g></g></svg>