<svg xmlns="http://www.w3.org/2000/svg" xmlns:xlink="http://www.w3.org/1999/xlink" version="1.1" class="marks" width="542" height="137" viewBox="0 0 542 137"><rect width="542" height="137" fill="white"/><g fill="none" stroke-miterlimit="10" transform="translate(40,11)"><g class="mark-group role-frame root" role="graphics-object" aria-roledescription="group mark container"><g transform="translate(0,0)"><path class="background" aria-hidden="true" d="M0,0h0v90h0Z"/><g><g class="mark-group role-scope concat_0_group" role="graphics-object" aria-roledescription="group mark container"><g transform="translate(0,0)"><path class="background" aria-hidden="true" d="M0.5,0.5h120v90h-120Z"/><g><g class="mark-group role-axis" role="graphics-symbol" aria-roledescription="axis" aria-label="X-axis titled 'Protein half-life (mins)' for a linear scale with values from 2 to 8"><g transform="translate(0.5,90.5)"><path class="background" aria-hidden="true" d="M0,0h0v0h0Z" pointer-events="none"/><g><g class="mark-rule role-axis-tick" pointer-events="none"><line transform="translate(0,0)" x2="0" y2="3" stroke="black" stroke-width="1" opacity="1"/><line transform="translate(40,0)" x2="0" y2="3" stroke="black" stroke-width="1" opacity="1"/><line transform="translate(80,0)" x2="0" y2="3" stroke="black" stroke-width="1" opacity="1"/><line transform="translate(120,0)" x2="0" y2="3" stroke="black" stroke-width="1" opacity="1"/></g><g class="mark-text role-axis-label" pointer-events="none"><text text-anchor="start" transform="translate(0,13)" font-family="Arial" font-size="10px" fill="#000" opacity="1">2</text><text text-anchor="middle" transform="translate(40,13)" font-family="Arial" font-size="10px" fill="#000" opacity="1">4</text><text text-anchor="middle" transform="translate(80,13)" font-family="Arial" font-size="10px" fill="#000" opacity="1">6</text><text text-anchor="end" transform="translate(120,13)" font-family="Arial" font-size="10px" fill="#000" opacity="1">8</text></g><g class="mark-rule role-axis-domain" pointer-events="none"><line transform="translate(0,0)" x2="120" y2="0" stroke="black" stroke-width="1" opacity="1"/></g><g class="mark-text role-axis-title" pointer-events="none"><text text-anchor="middle" transform="translate(60,28)" font-family="Arial" font-size="11px" font-weight="normal" fill="#000" opacity="1">Protein half-life (mins)</text></g></g><path class="foreground" aria-hidden="true" d="" pointer-events="none" display="none"/></g></g><g class="mark-group role-axis" role="graphics-symbol" aria-roledescription="axis" aria-label="Y-axis titled 'Density' for a linear scale with values from 0.0 to 0.6"><g transform="translate(0.5,0.5)"><path class="background" aria-hidden="true" d="M0,0h0v0h0Z" pointer-events="none"/><g><g class="mark-rule role-axis-tick" pointer-events="none"><line transform="translate(0,90)" x2="-3" y2="0" stroke="black" stroke-width="1" opacity="1"/><line transform="translate(0,60)" x2="-3" y2="0" stroke="black" stroke-width="1" opacity="1"/><line transform="translate(0,30)" x2="-3" y2="0" stroke="black" stroke-width="1" opacity="1"/><line transform="translate(0,0)" x2="-3" y2="0" stroke="black" stroke-width="1" opacity="1"/></g><g class="mark-text role-axis-label" pointer-events="none"><text text-anchor="end" transform="translate(-5,93)" font-family="Arial" font-size="10px" fill="#000" opacity="1">0.0</text><text text-anchor="end" transform="translate(-5,63)" font-family="Arial" font-size="10px" fill="#000" opacity="1">0.2</text><text text-anchor="end" transform="translate(-5,32.99999999999999)" font-family="Arial" font-size="10px" fill="#000" opacity="1">0.4</text><text text-anchor="end" transform="translate(-5,3)" font-family="Arial" font-size="10px" fill="#000" opacity="1">0.6</text></g><g class="mark-rule role-axis-domain" pointer-events="none"><line transform="translate(0,90)" x2="0" y2="-90" stroke="black" stroke-width="1" opacity="1"/></g><g class="mark-text role-axis-title" pointer-events="none"><text text-anchor="middle" transform="translate(-22.9013671875,45) rotate(-90) translate(0,-2)" font-family="Arial" font-size="11px" font-weight="normal" fill="#000" opacity="1">Density</text></g></g><path class="foreground" aria-hidden="true" d="" pointer-events="none" display="none"/></g></g><g class="mark-area role-mark concat_0_layer_0_marks" role="graphics-object" aria-roledescription="area mark container"><path aria-label="value: 2.0498017816; density: 0.00277955558867" role="graphics-symbol" aria-roledescription="area mark" d="M0.996,89.583L1.591,89.493L2.185,89.385L3.375,89.109L4.564,88.729L5.159,88.49L5.754,88.212L6.943,87.524L8.132,86.627L8.727,86.087L9.322,85.48L10.511,84.043L11.7,82.276L12.89,80.147L13.484,78.939L14.079,77.632L15.269,74.723L16.458,71.427L17.647,67.773L20.026,59.562L24.783,40.83L29.541,21.613L30.73,17.422L31.92,13.705L33.109,10.544L33.704,9.195L34.298,8.01L35.488,6.162L36.677,5.054L37.272,4.788L37.867,4.718L39.056,5.147L40.245,6.288L41.435,8.039L42.624,10.279L43.219,11.544L43.813,12.889L45.003,15.776L46.192,18.874L48.571,25.531L53.328,39.791L58.086,53.809L60.465,59.958L61.654,62.706L62.843,65.236L64.033,67.568L65.222,69.725L66.412,71.73L67.601,73.595L68.79,75.322L69.98,76.911L71.169,78.362L72.358,79.683L73.548,80.888L74.142,81.452L74.737,81.993L75.927,83.009L77.116,83.945L78.305,84.803L78.9,85.202L79.495,85.579L80.684,86.267L81.873,86.86L83.063,87.354L84.252,87.753L85.442,88.072L86.631,88.33L87.82,88.546L89.01,88.738L91.388,89.078L92.578,89.228L93.767,89.36L94.956,89.472L96.146,89.562L97.335,89.632L98.525,89.685L100.903,89.758L105.661,89.844L110.418,89.927L115.176,89.973L119.933,89.969L119.933,90L115.176,90L110.418,90L105.661,90L100.903,90L98.525,90L97.335,90L96.146,90L94.956,90L93.767,90L92.578,90L91.388,90L89.01,90L87.82,90L86.631,90L85.442,90L84.252,90L83.063,90L81.873,90L80.684,90L79.495,90L78.9,90L78.305,90L77.116,90L75.927,90L74.737,90L74.142,90L73.548,90L72.358,90L71.169,90L69.98,90L68.79,90L67.601,90L66.412,90L65.222,90L64.033,90L62.843,90L61.654,90L60.465,90L58.086,90L53.328,90L48.571,90L46.192,90L45.003,90L43.813,90L43.219,90L42.624,90L41.435,90L40.245,90L39.056,90L37.867,90L37.272,90L36.677,90L35.488,90L34.298,90L33.704,90L33.109,90L31.92,90L30.73,90L29.541,90L24.783,90L20.026,90L17.647,90L16.458,90L15.269,90L14.079,90L13.484,90L12.89,90L11.7,90L10.511,90L9.322,90L8.727,90L8.132,90L6.943,90L5.754,90L5.159,90L4.564,90L3.375,90L2.185,90L1.591,90L0.996,90Z" fill="#a373e3"/></g><g class="mark-symbol role-mark concat_0_layer_1_marks" role="graphics-object" aria-roledescription="symbol mark container"><path aria-label="x: 3.01054192559" role="graphics-symbol" aria-roledescription="point" transform="translate(20.210838511744587,90)" d="M2.739,0A2.739,2.739,0,1,1,-2.739,0A2.739,2.739,0,1,1,2.739,0" stroke="rgb(68, 58, 131)" stroke-width="2" opacity="1"/><path aria-label="x: 3.56723692949" role="graphics-symbol" aria-roledescription="point" transform="translate(31.34473858975468,90)" d="M2.739,0A2.739,2.739,0,1,1,-2.739,0A2.739,2.739,0,1,1,2.739,0" stroke="rgb(49, 104, 142)" stroke-width="2" opacity="1"/><path aria-label="x: 3.99751636034" role="graphics-symbol" aria-roledescription="point" transform="translate(39.95032720676188,90)" d="M2.739,0A2.739,2.739,0,1,1,-2.739,0A2.739,2.739,0,1,1,2.739,0" stroke="rgb(33, 145, 141)" stroke-width="2" opacity="1"/><path aria-label="x: 4.49940096232" role="graphics-symbol" aria-roledescription="point" transform="translate(49.98801924642233,90)" d="M2.739,0A2.739,2.739,0,1,1,-2.739,0A2.739,2.739,0,1,1,2.739,0" stroke="rgb(53, 183, 121)" stroke-width="2" opacity="1"/><path aria-label="x: 5.33254342184" role="graphics-symbol" aria-roledescription="point" transform="translate(66.65086843680126,90)" d="M2.739,0A2.739,2.739,0,1,1,-2.739,0A2.739,2.739,0,1,1,2.739,0" stroke="rgb(143, 215, 68)" stroke-width="2" opacity="1"/></g></g><path class="foreground" aria-hidden="true" d="" display="none"/></g></g><g class="mark-group role-scope concat_1_group" role="graphics-object" aria-roledescription="group mark container"><g transform="translate(194,0)"><path class="background" aria-hidden="true" d="M0.5,0.5h120v90h-120Z"/><g><g class="mark-group role-axis" role="graphics-symbol" aria-roledescription="axis" aria-label="X-axis titled 'Amplitude' for a linear scale with values from 1,200 to 3,400"><g transform="translate(0.5,90.5)"><path class="background" aria-hidden="true" d="M0,0h0v0h0Z" pointer-events="none"/><g><g class="mark-rule role-axis-tick" pointer-events="none"><line transform="translate(44,0)" x2="0" y2="3" stroke="black" stroke-width="1" opacity="1"/><line transform="translate(98,0)" x2="0" y2="3" stroke="black" stroke-width="1" opacity="1"/></g><g class="mark-text role-axis-label" pointer-events="none"><text text-anchor="middle" transform="translate(43.63636363636364,13)" font-family="Arial" font-size="10px" fill="#000" opacity="1">2,000</text><text text-anchor="middle" transform="translate(98.18181818181819,13)" font-family="Arial" font-size="10px" fill="#000" opacity="1">3,000</text></g><g class="mark-rule role-axis-domain" pointer-events="none"><line transform="translate(0,0)" x2="120" y2="0" stroke="black" stroke-width="1" opacity="1"/></g><g class="mark-text role-axis-title" pointer-events="none"><text text-anchor="middle" transform="translate(60,28)" font-family="Arial" font-size="11px" font-weight="normal" fill="#000" opacity="1">Amplitude</text></g></g><path class="foreground" aria-hidden="true" d="" pointer-events="none" display="none"/></g></g><g class="mark-group role-axis" role="graphics-symbol" aria-roledescription="axis" aria-label="Y-axis titled 'Density' for a linear scale with values from 0.0000 to 0.0014"><g transform="translate(0.5,0.5)"><path class="background" aria-hidden="true" d="M0,0h0v0h0Z" pointer-events="none"/><g><g class="mark-rule role-axis-tick" pointer-events="none"><line transform="translate(0,90)" x2="-3" y2="0" stroke="black" stroke-width="1" opacity="1"/><line transform="translate(0,58)" x2="-3" y2="0" stroke="black" stroke-width="1" opacity="1"/><line transform="translate(0,26)" x2="-3" y2="0" stroke="black" stroke-width="1" opacity="1"/></g><g class="mark-text role-axis-label" pointer-events="none"><text text-anchor="end" transform="translate(-5,93)" font-family="Arial" font-size="10px" fill="#000" opacity="1">0.0000</text><text text-anchor="end" transform="translate(-5,60.857142857142854)" font-family="Arial" font-size="10px" fill="#000" opacity="1">0.0005</text><text text-anchor="end" transform="translate(-5,28.71428571428571)" font-family="Arial" font-size="10px" fill="#000" opacity="1">0.0010</text></g><g class="mark-rule role-axis-domain" pointer-events="none"><line transform="translate(0,90)" x2="0" y2="-90" stroke="black" stroke-width="1" opacity="1"/></g><g class="mark-text role-axis-title" pointer-events="none"><text text-anchor="middle" transform="translate(-39.5859375,45) rotate(-90) translate(0,-2)" font-family="Arial" font-size="11px" font-weight="normal" fill="#000" opacity="1">Density</text></g></g><path class="foreground" aria-hidden="true" d="" pointer-events="none" display="none"/></g></g><g class="mark-area role-mark concat_1_layer_0_marks" role="graphics-object" aria-roledescription="area mark container"><path aria-label="value: 1224.3451837; density: 0.00000271374161622" role="graphics-symbol" aria-roledescription="area mark" d="M1.328,89.826L3.679,89.719L4.854,89.651L6.029,89.566L7.205,89.458L7.792,89.392L8.38,89.317L8.968,89.231L9.555,89.134L10.731,88.9L11.318,88.762L11.906,88.609L12.494,88.438L13.081,88.251L14.257,87.821L14.844,87.577L15.432,87.311L16.02,87.024L16.607,86.712L17.195,86.375L17.783,86.01L18.958,85.188L19.546,84.725L20.133,84.224L20.721,83.682L21.309,83.098L21.896,82.469L22.484,81.794L23.66,80.303L24.247,79.486L24.835,78.621L25.423,77.708L26.01,76.748L27.186,74.683L28.361,72.426L29.536,69.977L30.712,67.346L31.887,64.55L34.238,58.569L36.588,52.141L38.939,45.115L43.64,29.275L45.991,21.548L47.166,18.004L48.342,14.723L49.517,11.733L50.105,10.358L50.693,9.069L51.28,7.876L51.868,6.786L53.043,4.958L53.631,4.238L54.219,3.659L54.806,3.226L55.394,2.944L55.982,2.812L56.569,2.828L57.157,2.985L57.745,3.276L58.332,3.689L58.92,4.215L59.508,4.842L60.095,5.559L60.683,6.358L61.271,7.231L62.446,9.181L63.034,10.251L63.621,11.382L64.797,13.827L65.972,16.508L67.147,19.409L69.498,25.797L71.849,32.813L76.55,47.544L78.901,54.405L81.252,60.585L83.602,66.103L84.778,68.633L85.953,71.01L87.128,73.234L88.304,75.305L89.479,77.226L90.654,78.998L91.242,79.828L91.83,80.621L92.417,81.375L93.005,82.089L93.593,82.763L94.18,83.396L94.768,83.986L95.356,84.533L95.943,85.039L96.531,85.502L97.706,86.311L98.294,86.662L98.882,86.98L99.469,87.268L100.057,87.531L100.645,87.769L101.232,87.987L101.82,88.186L102.408,88.368L102.995,88.534L103.583,88.685L104.758,88.947L105.346,89.06L105.934,89.16L106.522,89.25L107.109,89.33L107.697,89.401L108.285,89.463L109.46,89.569L110.635,89.653L111.811,89.722L114.161,89.827L118.863,89.937L118.863,90L114.161,90L111.811,90L110.635,90L109.46,90L108.285,90L107.697,90L107.109,90L106.522,90L105.934,90L105.346,90L104.758,90L103.583,90L102.995,90L102.408,90L101.82,90L101.232,90L100.645,90L100.057,90L99.469,90L98.882,90L98.294,90L97.706,90L96.531,90L95.943,90L95.356,90L94.768,90L94.18,90L93.593,90L93.005,90L92.417,90L91.83,90L91.242,90L90.654,90L89.479,90L88.304,90L87.128,90L85.953,90L84.778,90L83.602,90L81.252,90L78.901,90L76.55,90L71.849,90L69.498,90L67.147,90L65.972,90L64.797,90L63.621,90L63.034,90L62.446,90L61.271,90L60.683,90L60.095,90L59.508,90L58.92,90L58.332,90L57.745,90L57.157,90L56.569,90L55.982,90L55.394,90L54.806,90L54.219,90L53.631,90L53.043,90L51.868,90L51.28,90L50.693,90L50.105,90L49.517,90L48.342,90L47.166,90L45.991,90L43.64,90L38.939,90L36.588,90L34.238,90L31.887,90L30.712,90L29.536,90L28.361,90L27.186,90L26.01,90L25.423,90L24.835,90L24.247,90L23.66,90L22.484,90L21.896,90L21.309,90L20.721,90L20.133,90L19.546,90L18.958,90L17.783,90L17.195,90L16.607,90L16.02,90L15.432,90L14.844,90L14.257,90L13.081,90L12.494,90L11.906,90L11.318,90L10.731,90L9.555,90L8.968,90L8.38,90L7.792,90L7.205,90L6.029,90L4.854,90L3.679,90L1.328,90Z" fill="#a373e3"/></g><g class="mark-symbol role-mark concat_1_layer_1_marks" role="graphics-object" aria-roledescription="symbol mark container"><path aria-label="x: 1785.19963027" role="graphics-symbol" aria-roledescription="point" transform="translate(31.91997983304509,90)" d="M2.739,0A2.739,2.739,0,1,1,-2.739,0A2.739,2.739,0,1,1,2.739,0" stroke="rgb(68, 58, 131)" stroke-width="2" opacity="1"/><path aria-label="x: 2058.65139758" role="graphics-symbol" aria-roledescription="point" transform="translate(46.835530777244024,90)" d="M2.739,0A2.739,2.739,0,1,1,-2.739,0A2.739,2.739,0,1,1,2.739,0" stroke="rgb(49, 104, 142)" stroke-width="2" opacity="1"/><path aria-label="x: 2247.12236439" role="graphics-symbol" aria-roledescription="point" transform="translate(57.1157653301769,90)" d="M2.739,0A2.739,2.739,0,1,1,-2.739,0A2.739,2.739,0,1,1,2.739,0" stroke="rgb(33, 145, 141)" stroke-width="2" opacity="1"/><path aria-label="x: 2444.73370977" role="graphics-symbol" aria-roledescription="point" transform="translate(67.89456598753301,90)" d="M2.739,0A2.739,2.739,0,1,1,-2.739,0A2.739,2.739,0,1,1,2.739,0" stroke="rgb(53, 183, 121)" stroke-width="2" opacity="1"/><path aria-label="x: 2728.8763805" role="graphics-symbol" aria-roledescription="point" transform="translate(83.39325711836216,90)" d="M2.739,0A2.739,2.739,0,1,1,-2.739,0A2.739,2.739,0,1,1,2.739,0" stroke="rgb(143, 215, 68)" stroke-width="2" opacity="1"/></g></g><path class="foreground" aria-hidden="true" d="" display="none"/></g></g><g class="mark-group role-scope concat_2_group" role="graphics-object" aria-roledescription="group mark container"><g transform="translate(376,0)"><path class="background" aria-hidden="true" d="M0.5,0.5h120v90h-120Z"/><g><g class="mark-group role-axis" role="graphics-symbol" aria-roledescription="axis" aria-label="X-axis titled 'Period (mins)' for a linear scale with values from 35 to 105"><g transform="translate(0.5,90.5)"><path class="background" aria-hidden="true" d="M0,0h0v0h0Z" pointer-events="none"/><g><g class="mark-rule role-axis-tick" pointer-events="none"><line transform="translate(9,0)" x2="0" y2="3" stroke="black" stroke-width="1" opacity="1"/><line transform="translate(43,0)" x2="0" y2="3" stroke="black" stroke-width="1" opacity="1"/><line transform="translate(77,0)" x2="0" y2="3" stroke="black" stroke-width="1" opacity="1"/><line transform="translate(111,0)" x2="0" y2="3" stroke="black" stroke-width="1" opacity="1"/></g><g class="mark-text role-axis-label" pointer-events="none"><text text-anchor="middle" transform="translate(8.571428571428571,13)" font-family="Arial" font-size="10px" fill="#000" opacity="1">40</text><text text-anchor="middle" transform="translate(42.85714285714286,13)" font-family="Arial" font-size="10px" fill="#000" opacity="1">60</text><text text-anchor="middle" transform="translate(77.14285714285715,13)" font-family="Arial" font-size="10px" fill="#000" opacity="1">80</text><text text-anchor="middle" transform="translate(111.42857142857143,13)" font-family="Arial" font-size="10px" fill="#000" opacity="1">100</text></g><g class="mark-rule role-axis-domain" pointer-events="none"><line transform="translate(0,0)" x2="120" y2="0" stroke="black" stroke-width="1" opacity="1"/></g><g class="mark-text role-axis-title" pointer-events="none"><text text-anchor="middle" transform="translate(60,28)" font-family="Arial" font-size="11px" font-weight="normal" fill="#000" opacity="1">Period (mins)</text></g></g><path class="foreground" aria-hidden="true" d="" pointer-events="none" display="none"/></g></g><g class="mark-group role-axis" role="graphics-symbol" aria-roledescription="axis" aria-label="Y-axis titled 'Density' for a linear scale with values from 0.00 to 0.04"><g transform="translate(0.5,0.5)"><path class="background" aria-hidden="true" d="M0,0h0v0h0Z" pointer-events="none"/><g><g class="mark-rule role-axis-tick" pointer-events="none"><line transform="translate(0,90)" x2="-3" y2="0" stroke="black" stroke-width="1" opacity="1"/><line transform="translate(0,50)" x2="-3" y2="0" stroke="black" stroke-width="1" opacity="1"/><line transform="translate(0,10)" x2="-3" y2="0" stroke="black" stroke-width="1" opacity="1"/></g><g class="mark-text role-axis-label" pointer-events="none"><text text-anchor="end" transform="translate(-5,93)" font-family="Arial" font-size="10px" fill="#000" opacity="1">0.00</text><text text-anchor="end" transform="translate(-5,53)" font-family="Arial" font-size="10px" fill="#000" opacity="1">0.02</text><text text-anchor="end" transform="translate(-5,12.999999999999995)" font-family="Arial" font-size="10px" fill="#000" opacity="1">0.04</text></g><g class="mark-rule role-axis-domain" pointer-events="none"><line transform="translate(0,90)" x2="0" y2="-90" stroke="black" stroke-width="1" opacity="1"/></g><g class="mark-text role-axis-title" pointer-events="none"><text text-anchor="middle" transform="translate(-28.462890625,45) rotate(-90) translate(0,-2)" font-family="Arial" font-size="11px" font-weight="normal" fill="#000" opacity="1">Density</text></g></g><path class="foreground" aria-hidden="true" d="" pointer-events="none" display="none"/></g></g><g class="mark-area role-mark concat_2_layer_0_marks" role="graphics-object" aria-roledescription="area mark container"><path aria-label="value: 38.1442965132; density: 0.00171138997644" role="graphics-symbol" aria-roledescription="area mark" d="M5.39,86.577L5.936,86.181L6.481,85.749L7.026,85.277L7.572,84.764L8.117,84.207L8.663,83.604L9.208,82.953L9.754,82.252L10.299,81.498L10.844,80.689L11.39,79.825L11.935,78.902L12.481,77.919L13.026,76.876L13.571,75.77L14.117,74.601L15.208,72.07L16.299,69.282L17.389,66.239L18.48,62.949L20.662,55.692L22.844,47.696L27.207,30.702L29.389,22.493L31.57,15.062L32.661,11.773L33.752,8.833L34.297,7.508L34.843,6.285L35.388,5.168L35.934,4.163L36.479,3.271L37.024,2.495L37.57,1.838L38.115,1.302L38.661,0.886L39.206,0.592L39.751,0.42L40.297,0.369L40.842,0.438L41.388,0.625L41.933,0.929L42.479,1.346L43.024,1.874L43.569,2.509L44.115,3.247L44.66,4.085L45.206,5.018L45.751,6.041L46.297,7.15L46.842,8.339L47.933,10.937L49.024,13.793L51.205,20.104L53.387,26.93L57.75,40.927L62.114,53.868L64.295,59.581L65.386,62.216L66.477,64.698L67.568,67.027L68.659,69.202L69.749,71.227L70.84,73.104L71.931,74.839L72.477,75.655L73.022,76.437L73.567,77.186L74.113,77.902L74.658,78.588L75.204,79.242L75.749,79.867L76.294,80.463L76.84,81.03L77.385,81.571L77.931,82.084L78.476,82.572L79.022,83.035L79.567,83.474L80.112,83.89L80.658,84.284L81.203,84.656L81.749,85.007L82.294,85.338L82.839,85.65L83.385,85.944L83.93,86.221L84.476,86.481L85.021,86.725L85.567,86.953L86.112,87.168L86.657,87.368L87.203,87.556L87.748,87.731L88.294,87.895L88.839,88.047L89.384,88.19L89.93,88.322L90.475,88.445L91.566,88.667L92.657,88.858L93.748,89.022L94.839,89.163L95.929,89.285L97.02,89.388L99.202,89.553L101.384,89.673L105.747,89.825L110.11,89.906L114.474,89.95L114.474,90L110.11,90L105.747,90L101.384,90L99.202,90L97.02,90L95.929,90L94.839,90L93.748,90L92.657,90L91.566,90L90.475,90L89.93,90L89.384,90L88.839,90L88.294,90L87.748,90L87.203,90L86.657,90L86.112,90L85.567,90L85.021,90L84.476,90L83.93,90L83.385,90L82.839,90L82.294,90L81.749,90L81.203,90L80.658,90L80.112,90L79.567,90L79.022,90L78.476,90L77.931,90L77.385,90L76.84,90L76.294,90L75.749,90L75.204,90L74.658,90L74.113,90L73.567,90L73.022,90L72.477,90L71.931,90L70.84,90L69.749,90L68.659,90L67.568,90L66.477,90L65.386,90L64.295,90L62.114,90L57.75,90L53.387,90L51.205,90L49.024,90L47.933,90L46.842,90L46.297,90L45.751,90L45.206,90L44.66,90L44.115,90L43.569,90L43.024,90L42.479,90L41.933,90L41.388,90L40.842,90L40.297,90L39.751,90L39.206,90L38.661,90L38.115,90L37.57,90L37.024,90L36.479,90L35.934,90L35.388,90L34.843,90L34.297,90L33.752,90L32.661,90L31.57,90L29.389,90L27.207,90L22.844,90L20.662,90L18.48,90L17.389,90L16.299,90L15.208,90L14.117,90L13.571,90L13.026,90L12.481,90L11.935,90L11.39,90L10.844,90L10.299,90L9.754,90L9.208,90L8.663,90L8.117,90L7.572,90L7.026,90L6.481,90L5.936,90L5.39,90Z" fill="#a373e3"/></g><g class="mark-symbol role-mark concat_2_layer_1_marks" role="graphics-object" aria-roledescription="symbol mark container"><path aria-label="x: 48.4321924122" role="graphics-symbol" aria-roledescription="point" transform="translate(23.02661556368847,90)" d="M2.739,0A2.739,2.739,0,1,1,-2.739,0A2.739,2.739,0,1,1,2.739,0" stroke="rgb(68, 58, 131)" stroke-width="2" opacity="1"/><path aria-label="x: 54.4100056865" role="graphics-symbol" aria-roledescription="point" transform="translate(33.27429546250375,90)" d="M2.739,0A2.739,2.739,0,1,1,-2.739,0A2.739,2.739,0,1,1,2.739,0" stroke="rgb(49, 104, 142)" stroke-width="2" opacity="1"/><path aria-label="x: 59.2781603073" role="graphics-symbol" aria-roledescription="point" transform="translate(41.619703383913865,90)" d="M2.739,0A2.739,2.739,0,1,1,-2.739,0A2.739,2.739,0,1,1,2.739,0" stroke="rgb(33, 145, 141)" stroke-width="2" opacity="1"/><path aria-label="x: 64.729749789" role="graphics-symbol" aria-roledescription="point" transform="translate(50.96528535257159,90)" d="M2.739,0A2.739,2.739,0,1,1,-2.739,0A2.739,2.739,0,1,1,2.739,0" stroke="rgb(53, 183, 121)" stroke-width="2" opacity="1"/><path aria-label="x: 73.3627089558" role="graphics-symbol" aria-roledescription="point" transform="translate(65.7646439242945,90)" d="M2.739,0A2.739,2.739,0,1,1,-2.739,0A2.739,2.739,0,1,1,2.739,0" stroke="rgb(143, 215, 68)" stroke-width="2" opacity="1"/></g></g><path class="foreground" aria-hidden="true" d="" display="none"/></g></g></g><path class="foreground" aria-hidden="true" d="" display="none"/></g></g></g></svg>