<svg xmlns="http://www.w3.org/2000/svg" xmlns:xlink="http://www.w3.org/1999/xlink" version="1.1" class="marks" width="532" height="132" viewBox="0 0 532 132"><rect width="532" height="132" fill="white"/><g fill="none" stroke-miterlimit="10" transform="translate(40,6)"><g class="mark-group role-frame root" role="graphics-object" aria-roledescription="group mark container"><g transform="translate(0,0)"><path class="background" aria-hidden="true" d="M0,0h0v90h0Z"/><g><g class="mark-group role-scope concat_0_group" role="graphics-object" aria-roledescription="group mark container"><g transform="translate(0,0)"><path class="background" aria-hidden="true" d="M0.5,0.5h120v90h-120Z"/><g><g class="mark-group role-axis" role="graphics-symbol" aria-roledescription="axis" aria-label="X-axis titled '[ATP] (mM)' for a linear scale with values from 0 to 11"><g transform="translate(0.5,90.5)"><path class="background" aria-hidden="true" d="M0,0h0v0h0Z" pointer-events="none"/><g><g class="mark-rule role-axis-tick" pointer-events="none"><line transform="translate(0,0)" x2="0" y2="3" stroke="black" stroke-width="1" opacity="1"/><line transform="translate(55,0)" x2="0" y2="3" stroke="black" stroke-width="1" opacity="1"/><line transform="translate(109,0)" x2="0" y2="3" stroke="black" stroke-width="1" opacity="1"/></g><g class="mark-text role-axis-label" pointer-events="none"><text text-anchor="start" transform="translate(0,13)" font-family="Arial" font-size="10px" fill="#000" opacity="1">0</text><text text-anchor="middle" transform="translate(54.54545454545455,13)" font-family="Arial" font-size="10px" fill="#000" opacity="1">5</text><text text-anchor="middle" transform="translate(109.0909090909091,13)" font-family="Arial" font-size="10px" fill="#000" opacity="1">10</text></g><g class="mark-rule role-axis-domain" pointer-events="none"><line transform="translate(0,0)" x2="120" y2="0" stroke="black" stroke-width="1" opacity="1"/></g><g class="mark-text role-axis-title" pointer-events="none"><text text-anchor="middle" transform="translate(60,28)" font-family="Arial" font-size="11px" font-weight="normal" fill="#000" opacity="1">[ATP] (mM)</text></g></g><path class="foreground" aria-hidden="true" d="" pointer-events="none" display="none"/></g></g><g class="mark-group role-axis" role="graphics-symbol" aria-roledescription="axis" aria-label="Y-axis titled 'Density' for a linear scale with values from 0.00 to 0.26"><g transform="translate(0.5,0.5)"><path class="background" aria-hidden="true" d="M0,0h0v0h0Z" pointer-events="none"/><g><g class="mark-rule role-axis-tick" pointer-events="none"><line transform="translate(0,90)" x2="-3" y2="0" stroke="black" stroke-width="1" opacity="1"/><line transform="translate(0,55)" x2="-3" y2="0" stroke="black" stroke-width="1" opacity="1"/><line transform="translate(0,21)" x2="-3" y2="0" stroke="black" stroke-width="1" opacity="1"/></g><g class="mark-text role-axis-label" pointer-events="none"><text text-anchor="end" transform="translate(-5,93)" font-family="Arial" font-size="10px" fill="#000" opacity="1">0.0</text><text text-anchor="end" transform="translate(-5,58.38461538461539)" font-family="Arial" font-size="10px" fill="#000" opacity="1">0.1</text><text text-anchor="end" transform="translate(-5,23.769230769230766)" font-family="Arial" font-size="10px" fill="#000" opacity="1">0.2</text></g><g class="mark-rule role-axis-domain" pointer-events="none"><line transform="translate(0,90)" x2="0" y2="-90" stroke="black" stroke-width="1" opacity="1"/></g><g class="mark-text role-axis-title" pointer-events="none"><text text-anchor="middle" transform="translate(-22.9013671875,45) rotate(-90) translate(0,-2)" font-family="Arial" font-size="11px" font-weight="normal" fill="#000" opacity="1">Density</text></g></g><path class="foreground" aria-hidden="true" d="" pointer-events="none" display="none"/></g></g><g class="mark-area role-mark concat_0_layer_0_marks" role="graphics-object" aria-roledescription="area mark container"><path aria-label="value: 0.0157191003991; density: 0.0141335550578" role="graphics-symbol" aria-roledescription="area mark" d="M0.171,85.108L4.705,78.362L6.972,74.907L9.239,71.221L11.506,67.271L12.639,65.166L13.773,62.929L14.906,60.531L16.039,57.967L18.306,52.45L20.573,46.592L22.84,40.221L27.374,26.056L28.507,22.708L29.641,19.629L30.207,18.213L30.774,16.891L31.341,15.67L31.907,14.552L33.041,12.629L33.608,11.814L34.174,11.083L34.741,10.424L35.308,9.821L35.874,9.26L36.441,8.726L37.575,7.702L38.708,6.725L39.275,6.272L39.841,5.864L40.408,5.519L40.975,5.26L42.108,5.077L42.675,5.185L43.242,5.439L43.808,5.841L44.375,6.388L44.942,7.075L45.509,7.889L46.075,8.819L46.642,9.849L47.209,10.964L47.775,12.145L50.042,17.16L54.576,26.702L55.709,29.391L56.843,32.411L59.11,39.206L63.643,52.615L65.91,58.672L67.044,61.493L68.177,64.091L68.744,65.291L69.311,66.42L69.877,67.481L70.444,68.478L71.011,69.416L71.577,70.303L72.711,71.954L73.844,73.49L74.978,74.958L77.245,77.812L79.511,80.58L80.645,81.878L81.212,82.492L81.778,83.078L82.345,83.634L82.912,84.156L83.478,84.643L84.045,85.091L84.612,85.5L85.179,85.869L85.745,86.198L86.312,86.489L86.879,86.744L87.445,86.968L88.012,87.166L88.579,87.341L89.712,87.648L90.846,87.922L93.113,88.438L94.246,88.682L95.379,88.908L96.513,89.111L97.646,89.287L98.78,89.431L99.913,89.545L101.047,89.632L102.18,89.695L104.447,89.774L108.981,89.883L113.514,89.942L113.514,90L108.981,90L104.447,90L102.18,90L101.047,90L99.913,90L98.78,90L97.646,90L96.513,90L95.379,90L94.246,90L93.113,90L90.846,90L89.712,90L88.579,90L88.012,90L87.445,90L86.879,90L86.312,90L85.745,90L85.179,90L84.612,90L84.045,90L83.478,90L82.912,90L82.345,90L81.778,90L81.212,90L80.645,90L79.511,90L77.245,90L74.978,90L73.844,90L72.711,90L71.577,90L71.011,90L70.444,90L69.877,90L69.311,90L68.744,90L68.177,90L67.044,90L65.91,90L63.643,90L59.11,90L56.843,90L55.709,90L54.576,90L50.042,90L47.775,90L47.209,90L46.642,90L46.075,90L45.509,90L44.942,90L44.375,90L43.808,90L43.242,90L42.675,90L42.108,90L40.975,90L40.408,90L39.841,90L39.275,90L38.708,90L37.575,90L36.441,90L35.874,90L35.308,90L34.741,90L34.174,90L33.608,90L33.041,90L31.907,90L31.341,90L30.774,90L30.207,90L29.641,90L28.507,90L27.374,90L22.84,90L20.573,90L18.306,90L16.039,90L14.906,90L13.773,90L12.639,90L11.506,90L9.239,90L6.972,90L4.705,90L0.171,90Z" fill="#f462a3"/></g><g class="mark-symbol role-mark concat_0_layer_1_marks" role="graphics-object" aria-roledescription="symbol mark container"><path aria-label="x: 1.19185070665" role="graphics-symbol" aria-roledescription="point" transform="translate(13.002007708872542,90)" d="M2.739,0A2.739,2.739,0,1,1,-2.739,0A2.739,2.739,0,1,1,2.739,0" stroke="rgb(68, 58, 131)" stroke-width="2" opacity="1"/><path aria-label="x: 2.6934155917" role="graphics-symbol" aria-roledescription="point" transform="translate(29.382715545840924,90)" d="M2.739,0A2.739,2.739,0,1,1,-2.739,0A2.739,2.739,0,1,1,2.739,0" stroke="rgb(49, 104, 142)" stroke-width="2" opacity="1"/><path aria-label="x: 3.77924345458" role="graphics-symbol" aria-roledescription="point" transform="translate(41.228110413587366,90)" d="M2.739,0A2.739,2.739,0,1,1,-2.739,0A2.739,2.739,0,1,1,2.739,0" stroke="rgb(33, 145, 141)" stroke-width="2" opacity="1"/><path aria-label="x: 4.87202332626" role="graphics-symbol" aria-roledescription="point" transform="translate(53.14934537740993,90)" d="M2.739,0A2.739,2.739,0,1,1,-2.739,0A2.739,2.739,0,1,1,2.739,0" stroke="rgb(53, 183, 121)" stroke-width="2" opacity="1"/><path aria-label="x: 6.47968209144" role="graphics-symbol" aria-roledescription="point" transform="translate(70.68744099751929,90)" d="M2.739,0A2.739,2.739,0,1,1,-2.739,0A2.739,2.739,0,1,1,2.739,0" stroke="rgb(143, 215, 68)" stroke-width="2" opacity="1"/></g></g><path class="foreground" aria-hidden="true" d="" display="none"/></g></g><g class="mark-group role-scope concat_1_group" role="graphics-object" aria-roledescription="group mark container"><g transform="translate(188,0)"><path class="background" aria-hidden="true" d="M0.5,0.5h120v90h-120Z"/><g><g class="mark-group role-axis" role="graphics-symbol" aria-roledescription="axis" aria-label="X-axis titled 'Amplitude' for a linear scale with values from 2,100 to 2,400"><g transform="translate(0.5,90.5)"><path class="background" aria-hidden="true" d="M0,0h0v0h0Z" pointer-events="none"/><g><g class="mark-rule role-axis-tick" pointer-events="none"><line transform="translate(0,0)" x2="0" y2="3" stroke="black" stroke-width="1" opacity="1"/><line transform="translate(40,0)" x2="0" y2="3" stroke="black" stroke-width="1" opacity="1"/><line transform="translate(80,0)" x2="0" y2="3" stroke="black" stroke-width="1" opacity="1"/><line transform="translate(120,0)" x2="0" y2="3" stroke="black" stroke-width="1" opacity="1"/></g><g class="mark-text role-axis-label" pointer-events="none"><text text-anchor="start" transform="translate(0,13)" font-family="Arial" font-size="10px" fill="#000" opacity="1">2,100</text><text text-anchor="middle" transform="translate(40,13)" font-family="Arial" font-size="10px" fill="#000" opacity="1">2,200</text><text text-anchor="middle" transform="translate(80,13)" font-family="Arial" font-size="10px" fill="#000" opacity="1">2,300</text><text text-anchor="end" transform="translate(120,13)" font-family="Arial" font-size="10px" fill="#000" opacity="1">2,400</text></g><g class="mark-rule role-axis-domain" pointer-events="none"><line transform="translate(0,0)" x2="120" y2="0" stroke="black" stroke-width="1" opacity="1"/></g><g class="mark-text role-axis-title" pointer-events="none"><text text-anchor="middle" transform="translate(60,28)" font-family="Arial" font-size="11px" font-weight="normal" fill="#000" opacity="1">Amplitude</text></g></g><path class="foreground" aria-hidden="true" d="" pointer-events="none" display="none"/></g></g><g class="mark-group role-axis" role="graphics-symbol" aria-roledescription="axis" aria-label="Y-axis titled 'Density' for a linear scale with values from 0.000 to 0.018"><g transform="translate(0.5,0.5)"><path class="background" aria-hidden="true" d="M0,0h0v0h0Z" pointer-events="none"/><g><g class="mark-rule role-axis-tick" pointer-events="none"><line transform="translate(0,90)" x2="-3" y2="0" stroke="black" stroke-width="1" opacity="1"/><line transform="translate(0,65)" x2="-3" y2="0" stroke="black" stroke-width="1" opacity="1"/><line transform="translate(0,40)" x2="-3" y2="0" stroke="black" stroke-width="1" opacity="1"/><line transform="translate(0,15)" x2="-3" y2="0" stroke="black" stroke-width="1" opacity="1"/></g><g class="mark-text role-axis-label" pointer-events="none"><text text-anchor="end" transform="translate(-5,93)" font-family="Arial" font-size="10px" fill="#000" opacity="1">0.000</text><text text-anchor="end" transform="translate(-5,68)" font-family="Arial" font-size="10px" fill="#000" opacity="1">0.005</text><text text-anchor="end" transform="translate(-5,43)" font-family="Arial" font-size="10px" fill="#000" opacity="1">0.010</text><text text-anchor="end" transform="translate(-5,17.999999999999996)" font-family="Arial" font-size="10px" fill="#000" opacity="1">0.015</text></g><g class="mark-rule role-axis-domain" pointer-events="none"><line transform="translate(0,90)" x2="0" y2="-90" stroke="black" stroke-width="1" opacity="1"/></g><g class="mark-text role-axis-title" pointer-events="none"><text text-anchor="middle" transform="translate(-34.0244140625,45) rotate(-90) translate(0,-2)" font-family="Arial" font-size="11px" font-weight="normal" fill="#000" opacity="1">Density</text></g></g><path class="foreground" aria-hidden="true" d="" pointer-events="none" display="none"/></g></g><g class="mark-area role-mark concat_1_layer_0_marks" clip-path="url(#clip1)" role="graphics-object" aria-roledescription="area mark container"><path aria-label="value: 397.906851586; density: 0.00000797884560803" role="graphics-symbol" aria-roledescription="area mark" d="M-680.837,89.96L-678.899,89.975L-676.96,89.994L-675.021,89.999L-673.083,90L-669.205,90L-665.328,90L-661.451,90L-657.574,90L-655.635,89.998L-653.696,89.986L-651.758,89.953L-649.819,89.928L-645.942,89.956L-644.003,89.958L-642.065,89.976L-640.126,89.991L-638.187,89.979L-636.249,89.961L-634.31,89.97L-632.372,89.991L-630.433,89.999L-626.556,90L-622.678,90L-618.801,90L-614.924,90L-611.047,90L-607.169,90L-603.292,90L-601.354,89.996L-599.415,89.98L-597.476,89.961L-595.538,89.969L-593.599,89.975L-591.66,89.942L-589.722,89.922L-587.783,89.957L-585.844,89.985L-583.906,89.976L-581.967,89.959L-580.029,89.964L-576.151,89.96L-574.213,89.98L-572.274,89.996L-568.397,90L-564.52,90L-560.642,90L-556.765,89.997L-554.826,89.982L-552.888,89.946L-550.949,89.927L-549.011,89.955L-547.072,89.988L-545.133,89.995L-543.195,89.978L-541.256,89.94L-539.317,89.928L-537.379,89.962L-535.44,89.991L-533.502,89.999L-529.624,89.999L-527.686,89.994L-525.747,89.972L-523.808,89.942L-521.87,89.936L-517.993,89.989L-516.054,89.99L-514.115,89.971L-512.177,89.958L-510.238,89.964L-508.299,89.959L-506.361,89.961L-504.422,89.967L-502.483,89.959L-500.545,89.97L-498.606,89.991L-496.668,89.999L-494.729,89.998L-492.79,89.987L-490.852,89.965L-486.974,89.952L-485.036,89.923L-483.097,89.934L-481.159,89.977L-479.22,89.997L-477.281,89.999L-475.343,89.994L-473.404,89.974L-471.465,89.96L-467.588,89.994L-465.65,89.999L-463.711,90L-459.834,90L-455.956,90L-452.079,90L-448.202,90L-444.325,90L-440.447,90L-436.57,89.997L-434.632,89.983L-432.693,89.962L-430.754,89.967L-428.816,89.989L-426.877,89.999L-424.938,90L-421.061,90L-419.123,89.996L-417.184,89.972L-415.245,89.931L-413.307,89.927L-411.368,89.953L-409.429,89.944L-407.491,89.914L-405.552,89.909L-403.613,89.951L-401.675,89.989L-399.736,89.999L-397.798,90L-393.92,90L-390.043,90L-386.166,90L-382.289,90L-378.411,90L-374.534,90L-370.657,90L-366.78,89.999L-364.841,89.99L-362.902,89.959L-360.964,89.926L-359.025,89.942L-357.086,89.981L-355.148,89.997L-351.271,90L-347.393,90L-343.516,90L-341.577,89.998L-339.639,89.984L-337.7,89.957L-335.762,89.938L-333.823,89.941L-331.884,89.949L-329.946,89.955L-328.007,89.975L-326.068,89.994L-324.13,89.999L-320.252,90L-316.375,90L-312.498,90L-310.559,89.995L-308.621,89.979L-306.682,89.959L-304.743,89.961L-302.805,89.95L-300.866,89.926L-298.928,89.943L-296.989,89.978L-295.05,89.981L-293.112,89.956L-291.173,89.938L-289.234,89.942L-287.296,89.94L-285.357,89.902L-283.419,89.885L-281.48,89.916L-279.541,89.929L-277.603,89.934L-275.664,89.952L-273.725,89.956L-271.787,89.961L-269.848,89.979L-267.91,89.975L-265.971,89.949L-264.032,89.936L-262.094,89.935L-258.216,89.939L-256.278,89.95L-254.339,89.974L-252.401,89.985L-250.462,89.956L-248.523,89.911L-246.585,89.901L-242.707,89.943L-240.769,89.967L-238.83,89.97L-236.891,89.949L-234.953,89.939L-233.014,89.954L-231.076,89.976L-229.137,89.971L-227.198,89.959L-225.26,89.966L-223.321,89.962L-221.382,89.956L-219.444,89.96L-217.505,89.956L-215.567,89.962L-213.628,89.959L-211.689,89.947L-209.751,89.921L-207.812,89.881L-205.873,89.888L-203.935,89.883L-201.996,89.843L-200.058,89.847L-198.119,89.87L-196.18,89.873L-194.242,89.862L-192.303,89.878L-190.364,89.91L-188.426,89.927L-184.549,89.95L-182.61,89.966L-180.671,89.962L-178.733,89.953L-176.794,89.95L-174.855,89.937L-172.917,89.914L-170.978,89.901L-169.04,89.903L-167.101,89.913L-165.162,89.941L-163.224,89.93L-161.285,89.894L-159.346,89.887L-157.408,89.891L-155.469,89.89L-153.53,89.9L-151.592,89.905L-149.653,89.916L-145.776,89.956L-143.837,89.975L-141.899,89.971L-139.96,89.955L-138.021,89.952L-134.144,89.953L-132.206,89.932L-130.267,89.905L-126.39,89.87L-124.451,89.891L-122.512,89.937L-120.574,89.976L-118.635,89.986L-116.697,89.958L-114.758,89.923L-112.819,89.918L-110.881,89.893L-108.942,89.852L-107.003,89.85L-105.065,89.878L-103.126,89.925L-101.188,89.929L-99.249,89.867L-97.31,89.829L-95.372,89.832L-93.433,89.852L-91.494,89.888L-89.556,89.915L-87.617,89.897L-85.679,89.85L-83.74,89.856L-81.801,89.892L-79.863,89.865L-77.924,89.85L-75.985,89.897L-74.047,89.928L-72.108,89.901L-70.169,89.841L-68.231,89.854L-66.292,89.919L-64.354,89.963L-62.415,89.976L-60.476,89.94L-58.538,89.888L-56.599,89.875L-54.66,89.899L-52.722,89.907L-50.783,89.902L-48.845,89.915L-46.906,89.912L-44.967,89.863L-43.029,89.749L-41.09,89.629L-39.151,89.699L-37.213,89.844L-35.274,89.812L-33.336,89.726L-29.458,89.784L-27.52,89.756L-25.581,89.732L-23.642,89.774L-21.704,89.85L-19.765,89.85L-17.827,89.78L-15.888,89.744L-13.949,89.699L-12.011,89.669L-10.072,89.666L-8.133,89.74L-6.195,89.862L-4.256,89.869L-2.318,89.823L-0.379,89.814L1.56,89.774L3.498,89.763L5.437,89.843L7.376,89.847L9.314,89.705L11.253,89.563L13.192,89.535L17.069,89.587L19.007,89.592L20.946,89.575L22.885,89.533L24.823,89.447L26.762,89.333L28.701,89.307L30.639,89.349L32.578,89.376L36.455,89.609L38.394,89.618L40.332,89.539L42.271,89.398L44.21,89.266L46.148,89.087L48.087,88.893L50.025,88.806L51.964,88.81L53.903,88.906L55.841,88.983L57.78,88.802L59.719,87.957L61.657,86.041L63.596,82.595L67.473,69.024L71.35,50.676L75.228,31.32L79.105,20.383L81.043,17.029L82.982,15.275L84.921,15.734L86.859,16.89L88.798,15.201L90.737,8.445L92.675,4.143L94.614,25.322L94.614,90L92.675,90L90.737,90L88.798,90L86.859,90L84.921,90L82.982,90L81.043,90L79.105,90L75.228,90L71.35,90L67.473,90L63.596,90L61.657,90L59.719,90L57.78,90L55.841,90L53.903,90L51.964,90L50.025,90L48.087,90L46.148,90L44.21,90L42.271,90L40.332,90L38.394,90L36.455,90L32.578,90L30.639,90L28.701,90L26.762,90L24.823,90L22.885,90L20.946,90L19.007,90L17.069,90L13.192,90L11.253,90L9.314,90L7.376,90L5.437,90L3.498,90L1.56,90L-0.379,90L-2.318,90L-4.256,90L-6.195,90L-8.133,90L-10.072,90L-12.011,90L-13.949,90L-15.888,90L-17.827,90L-19.765,90L-21.704,90L-23.642,90L-25.581,90L-27.52,90L-29.458,90L-33.336,90L-35.274,90L-37.213,90L-39.151,90L-41.09,90L-43.029,90L-44.967,90L-46.906,90L-48.845,90L-50.783,90L-52.722,90L-54.66,90L-56.599,90L-58.538,90L-60.476,90L-62.415,90L-64.354,90L-66.292,90L-68.231,90L-70.169,90L-72.108,90L-74.047,90L-75.985,90L-77.924,90L-79.863,90L-81.801,90L-83.74,90L-85.679,90L-87.617,90L-89.556,90L-91.494,90L-93.433,90L-95.372,90L-97.31,90L-99.249,90L-101.188,90L-103.126,90L-105.065,90L-107.003,90L-108.942,90L-110.881,90L-112.819,90L-114.758,90L-116.697,90L-118.635,90L-120.574,90L-122.512,90L-124.451,90L-126.39,90L-130.267,90L-132.206,90L-134.144,90L-138.021,90L-139.96,90L-141.899,90L-143.837,90L-145.776,90L-149.653,90L-151.592,90L-153.53,90L-155.469,90L-157.408,90L-159.346,90L-161.285,90L-163.224,90L-165.162,90L-167.101,90L-169.04,90L-170.978,90L-172.917,90L-174.855,90L-176.794,90L-178.733,90L-180.671,90L-182.61,90L-184.549,90L-188.426,90L-190.364,90L-192.303,90L-194.242,90L-196.18,90L-198.119,90L-200.058,90L-201.996,90L-203.935,90L-205.873,90L-207.812,90L-209.751,90L-211.689,90L-213.628,90L-215.567,90L-217.505,90L-219.444,90L-221.382,90L-223.321,90L-225.26,90L-227.198,90L-229.137,90L-231.076,90L-233.014,90L-234.953,90L-236.891,90L-238.83,90L-240.769,90L-242.707,90L-246.585,90L-248.523,90L-250.462,90L-252.401,90L-254.339,90L-256.278,90L-258.216,90L-262.094,90L-264.032,90L-265.971,90L-267.91,90L-269.848,90L-271.787,90L-273.725,90L-275.664,90L-277.603,90L-279.541,90L-281.48,90L-283.419,90L-285.357,90L-287.296,90L-289.234,90L-291.173,90L-293.112,90L-295.05,90L-296.989,90L-298.928,90L-300.866,90L-302.805,90L-304.743,90L-306.682,90L-308.621,90L-310.559,90L-312.498,90L-316.375,90L-320.252,90L-324.13,90L-326.068,90L-328.007,90L-329.946,90L-331.884,90L-333.823,90L-335.762,90L-337.7,90L-339.639,90L-341.577,90L-343.516,90L-347.393,90L-351.271,90L-355.148,90L-357.086,90L-359.025,90L-360.964,90L-362.902,90L-364.841,90L-366.78,90L-370.657,90L-374.534,90L-378.411,90L-382.289,90L-386.166,90L-390.043,90L-393.92,90L-397.798,90L-399.736,90L-401.675,90L-403.613,90L-405.552,90L-407.491,90L-409.429,90L-411.368,90L-413.307,90L-415.245,90L-417.184,90L-419.123,90L-421.061,90L-424.938,90L-426.877,90L-428.816,90L-430.754,90L-432.693,90L-434.632,90L-436.57,90L-440.447,90L-444.325,90L-448.202,90L-452.079,90L-455.956,90L-459.834,90L-463.711,90L-465.65,90L-467.588,90L-471.465,90L-473.404,90L-475.343,90L-477.281,90L-479.22,90L-481.159,90L-483.097,90L-485.036,90L-486.974,90L-490.852,90L-492.79,90L-494.729,90L-496.668,90L-498.606,90L-500.545,90L-502.483,90L-504.422,90L-506.361,90L-508.299,90L-510.238,90L-512.177,90L-514.115,90L-516.054,90L-517.993,90L-521.87,90L-523.808,90L-525.747,90L-527.686,90L-529.624,90L-533.502,90L-535.44,90L-537.379,90L-539.317,90L-541.256,90L-543.195,90L-545.133,90L-547.072,90L-549.011,90L-550.949,90L-552.888,90L-554.826,90L-556.765,90L-560.642,90L-564.52,90L-568.397,90L-572.274,90L-574.213,90L-576.151,90L-580.029,90L-581.967,90L-583.906,90L-585.844,90L-587.783,90L-589.722,90L-591.66,90L-593.599,90L-595.538,90L-597.476,90L-599.415,90L-601.354,90L-603.292,90L-607.169,90L-611.047,90L-614.924,90L-618.801,90L-622.678,90L-626.556,90L-630.433,90L-632.372,90L-634.31,90L-636.249,90L-638.187,90L-640.126,90L-642.065,90L-644.003,90L-645.942,90L-649.819,90L-651.758,90L-653.696,90L-655.635,90L-657.574,90L-661.451,90L-665.328,90L-669.205,90L-673.083,90L-675.021,90L-676.96,90L-678.899,90L-680.837,90Z" fill="#f462a3"/></g><g class="mark-symbol role-mark concat_1_layer_1_marks" role="graphics-object" aria-roledescription="symbol mark container"><path aria-label="x: 2290.46822287" role="graphics-symbol" aria-roledescription="point" transform="translate(76.18728914725834,90)" d="M2.739,0A2.739,2.739,0,1,1,-2.739,0A2.739,2.739,0,1,1,2.739,0" stroke="rgb(49, 104, 142)" stroke-width="2" opacity="1"/><path aria-label="x: 2331.16545609" role="graphics-symbol" aria-roledescription="point" transform="translate(92.46618243780776,90)" d="M2.739,0A2.739,2.739,0,1,1,-2.739,0A2.739,2.739,0,1,1,2.739,0" stroke="rgb(143, 215, 68)" stroke-width="2" opacity="1"/><path aria-label="x: 2312.13295153" role="graphics-symbol" aria-roledescription="point" transform="translate(84.85318061003872,90)" d="M2.739,0A2.739,2.739,0,1,1,-2.739,0A2.739,2.739,0,1,1,2.739,0" stroke="rgb(53, 183, 121)" stroke-width="2" opacity="1"/><path aria-label="x: 2294.34979098" role="graphics-symbol" aria-roledescription="point" transform="translate(77.73991639257146,90)" d="M2.739,0A2.739,2.739,0,1,1,-2.739,0A2.739,2.739,0,1,1,2.739,0" stroke="rgb(33, 145, 141)" stroke-width="2" opacity="1"/><path aria-label="x: 2273.90703766" role="graphics-symbol" aria-roledescription="point" transform="translate(69.56281506383529,90)" d="M2.739,0A2.739,2.739,0,1,1,-2.739,0A2.739,2.739,0,1,1,2.739,0" stroke="rgb(68, 58, 131)" stroke-width="2" opacity="1"/></g></g><path class="foreground" aria-hidden="true" d="" display="none"/></g></g><g class="mark-group role-scope concat_2_group" role="graphics-object" aria-roledescription="group mark container"><g transform="translate(365,0)"><path class="background" aria-hidden="true" d="M0.5,0.5h120v90h-120Z"/><g><g class="mark-group role-axis" role="graphics-symbol" aria-roledescription="axis" aria-label="X-axis titled 'Period (mins)' for a linear scale with values from 50 to 100"><g transform="translate(0.5,90.5)"><path class="background" aria-hidden="true" d="M0,0h0v0h0Z" pointer-events="none"/><g><g class="mark-rule role-axis-tick" pointer-events="none"><line transform="translate(24,0)" x2="0" y2="3" stroke="black" stroke-width="1" opacity="1"/><line transform="translate(72,0)" x2="0" y2="3" stroke="black" stroke-width="1" opacity="1"/><line transform="translate(120,0)" x2="0" y2="3" stroke="black" stroke-width="1" opacity="1"/></g><g class="mark-text role-axis-label" pointer-events="none"><text text-anchor="middle" transform="translate(24,13)" font-family="Arial" font-size="10px" fill="#000" opacity="1">60</text><text text-anchor="middle" transform="translate(72,13)" font-family="Arial" font-size="10px" fill="#000" opacity="1">80</text><text text-anchor="end" transform="translate(120,13)" font-family="Arial" font-size="10px" fill="#000" opacity="1">100</text></g><g class="mark-rule role-axis-domain" pointer-events="none"><line transform="translate(0,0)" x2="120" y2="0" stroke="black" stroke-width="1" opacity="1"/></g><g class="mark-text role-axis-title" pointer-events="none"><text text-anchor="middle" transform="translate(60,28)" font-family="Arial" font-size="11px" font-weight="normal" fill="#000" opacity="1">Period (mins)</text></g></g><path class="foreground" aria-hidden="true" d="" pointer-events="none" display="none"/></g></g><g class="mark-group role-axis" role="graphics-symbol" aria-roledescription="axis" aria-label="Y-axis titled 'Density' for a linear scale with values from 0.00 to 0.24"><g transform="translate(0.5,0.5)"><path class="background" aria-hidden="true" d="M0,0h0v0h0Z" pointer-events="none"/><g><g class="mark-rule role-axis-tick" pointer-events="none"><line transform="translate(0,90)" x2="-3" y2="0" stroke="black" stroke-width="1" opacity="1"/><line transform="translate(0,52)" x2="-3" y2="0" stroke="black" stroke-width="1" opacity="1"/><line transform="translate(0,15)" x2="-3" y2="0" stroke="black" stroke-width="1" opacity="1"/></g><g class="mark-text role-axis-label" pointer-events="none"><text text-anchor="end" transform="translate(-5,93)" font-family="Arial" font-size="10px" fill="#000" opacity="1">0.0</text><text text-anchor="end" transform="translate(-5,55.49999999999999)" font-family="Arial" font-size="10px" fill="#000" opacity="1">0.1</text><text text-anchor="end" transform="translate(-5,17.999999999999996)" font-family="Arial" font-size="10px" fill="#000" opacity="1">0.2</text></g><g class="mark-rule role-axis-domain" pointer-events="none"><line transform="translate(0,90)" x2="0" y2="-90" stroke="black" stroke-width="1" opacity="1"/></g><g class="mark-text role-axis-title" pointer-events="none"><text text-anchor="middle" transform="translate(-22.9013671875,45) rotate(-90) translate(0,-2)" font-family="Arial" font-size="11px" font-weight="normal" fill="#000" opacity="1">Density</text></g></g><path class="foreground" aria-hidden="true" d="" pointer-events="none" display="none"/></g></g><g class="mark-area role-mark concat_2_layer_0_marks" clip-path="url(#clip2)" role="graphics-object" aria-roledescription="area mark container"><path aria-label="value: 58.9867895419; density: 0.0153138818023" role="graphics-symbol" aria-roledescription="area mark" d="M21.568,84.257L23.397,56.114L25.227,14.847L26.141,3.423L27.056,1.006L27.97,5.617L28.885,14.564L30.714,34.77L32.543,50.9L34.372,63.228L36.201,71.876L37.116,74.952L38.031,77.107L38.945,78.63L39.86,79.861L41.689,82.377L42.603,83.485L43.518,84.359L44.433,85.036L45.347,85.547L46.262,86.008L47.176,86.377L48.091,86.566L49.005,86.789L49.92,87.193L50.835,87.574L51.749,87.758L52.664,87.861L53.578,88.032L54.493,88.26L55.407,88.481L56.322,88.616L57.237,88.595L58.151,88.465L59.066,88.379L59.98,88.481L61.809,89.06L62.724,89.206L63.639,89.187L64.553,89.077L65.468,88.993L66.382,89.022L67.297,89.13L68.211,89.228L69.126,89.31L70.041,89.42L70.955,89.539L71.87,89.621L72.784,89.664L73.699,89.669L74.613,89.625L75.528,89.564L76.443,89.553L77.357,89.591L78.272,89.624L79.186,89.62L80.101,89.589L81.015,89.565L81.93,89.564L82.845,89.563L83.759,89.591L85.588,89.778L86.503,89.815L87.417,89.827L88.332,89.841L89.247,89.84L90.161,89.828L91.076,89.834L91.99,89.838L92.905,89.808L93.819,89.768L94.734,89.758L95.649,89.773L96.563,89.779L97.478,89.778L98.392,89.793L99.307,89.807L100.221,89.8L101.136,89.799L102.051,89.835L102.965,89.884L103.88,89.902L105.709,89.856L106.623,89.87L107.538,89.907L108.453,89.924L109.367,89.919L110.282,89.909L111.196,89.889L112.111,89.858L113.026,89.835L113.94,89.837L114.855,89.855L115.769,89.867L116.684,89.864L117.598,89.865L118.513,89.886L119.428,89.91L120.342,89.924L121.257,89.922L122.171,89.897L123.086,89.859L124,89.83L125.83,89.811L126.744,89.797L127.659,89.799L128.573,89.833L129.488,89.879L130.402,89.92L131.317,89.953L132.232,89.967L133.146,89.963L134.975,89.949L136.804,89.934L138.634,89.928L140.463,89.888L141.377,89.903L142.292,89.935L143.206,89.945L144.121,89.932L145.036,89.92L145.95,89.92L147.779,89.953L148.694,89.952L149.608,89.933L151.438,89.901L152.352,89.886L153.267,89.879L154.181,89.888L155.096,89.917L156.01,89.952L156.925,89.962L158.754,89.926L159.669,89.935L160.583,89.958L161.498,89.981L162.412,89.995L164.242,90L166.071,89.999L166.985,89.996L167.9,89.985L169.729,89.941L170.644,89.927L171.558,89.938L172.473,89.967L173.387,89.99L174.302,89.998L175.216,90L177.046,90L177.96,89.997L178.875,89.986L180.704,89.95L181.618,89.951L182.533,89.969L183.448,89.988L184.362,89.997L186.191,90L188.02,90L189.85,90L191.679,90L193.508,90L195.337,90L197.166,89.999L198.081,89.991L198.995,89.965L199.91,89.927L200.824,89.908L201.739,89.923L202.654,89.943L204.483,89.956L205.397,89.967L206.312,89.984L207.226,89.995L208.141,89.999L209.97,90L210.885,89.998L211.799,89.992L213.628,89.97L214.543,89.976L215.458,89.989L216.372,89.997L217.287,90L219.116,90L220.945,90L222.774,90L224.603,90L226.432,90L228.262,90L230.091,89.999L231.005,89.997L231.92,89.987L232.834,89.974L233.749,89.971L235.578,89.989L236.493,89.985L237.407,89.97L238.322,89.96L239.236,89.958L240.151,89.963L241.066,89.972L241.98,89.973L242.895,89.969L243.809,89.974L244.724,89.988L245.638,89.997L246.553,89.999L248.382,89.995L249.297,89.984L250.211,89.969L251.126,89.959L252.04,89.958L253.87,89.974L254.784,89.975L255.699,89.97L256.613,89.974L257.528,89.986L258.442,89.992L259.357,89.982L260.272,89.957L261.186,89.941L262.101,89.954L263.015,89.98L263.93,89.995L264.844,89.999L266.674,90L268.503,89.998L269.417,89.989L270.332,89.972L271.246,89.954L272.161,89.95L273.076,89.964L273.99,89.983L274.905,89.994L275.819,89.992L277.648,89.97L278.563,89.975L279.478,89.985L280.392,89.986L281.307,89.975L282.221,89.97L283.136,89.98L284.05,89.992L284.965,89.998L286.794,90L288.623,90L290.452,90L292.282,90L293.196,89.997L294.111,89.988L295.025,89.975L295.94,89.97L297.769,89.989L298.684,89.985L299.598,89.974L300.513,89.971L301.427,89.982L302.342,89.993L303.256,89.993L304.171,89.981L305.086,89.963L306,89.951L306.915,89.955L308.744,89.989L309.659,89.992L310.573,89.983L311.488,89.972L312.402,89.973L314.231,89.996L316.061,90L317.89,90L319.719,90L321.548,90L323.377,90L325.206,90L327.035,90L328.865,90L330.694,90L332.523,90L334.352,90L336.181,90L338.01,89.998L338.925,89.991L339.839,89.979L340.754,89.97L341.669,89.977L342.583,89.99L343.498,89.997L345.327,90L347.156,90L348.985,89.997L349.9,89.989L350.814,89.976L351.729,89.97L352.643,89.979L353.558,89.989L354.473,89.985L356.302,89.944L357.216,89.948L358.131,89.972L359.045,89.991L359.96,89.998L361.789,90L363.618,90L365.447,90L367.277,90L369.106,90L370.935,90L372.764,90L374.593,90L376.422,90L378.251,90L380.081,90L381.91,90L383.739,90L384.653,89.998L385.568,89.991L386.483,89.978L387.397,89.97L387.397,90L386.483,90L385.568,90L384.653,90L383.739,90L381.91,90L380.081,90L378.251,90L376.422,90L374.593,90L372.764,90L370.935,90L369.106,90L367.277,90L365.447,90L363.618,90L361.789,90L359.96,90L359.045,90L358.131,90L357.216,90L356.302,90L354.473,90L353.558,90L352.643,90L351.729,90L350.814,90L349.9,90L348.985,90L347.156,90L345.327,90L343.498,90L342.583,90L341.669,90L340.754,90L339.839,90L338.925,90L338.01,90L336.181,90L334.352,90L332.523,90L330.694,90L328.865,90L327.035,90L325.206,90L323.377,90L321.548,90L319.719,90L317.89,90L316.061,90L314.231,90L312.402,90L311.488,90L310.573,90L309.659,90L308.744,90L306.915,90L306,90L305.086,90L304.171,90L303.256,90L302.342,90L301.427,90L300.513,90L299.598,90L298.684,90L297.769,90L295.94,90L295.025,90L294.111,90L293.196,90L292.282,90L290.452,90L288.623,90L286.794,90L284.965,90L284.05,90L283.136,90L282.221,90L281.307,90L280.392,90L279.478,90L278.563,90L277.648,90L275.819,90L274.905,90L273.99,90L273.076,90L272.161,90L271.246,90L270.332,90L269.417,90L268.503,90L266.674,90L264.844,90L263.93,90L263.015,90L262.101,90L261.186,90L260.272,90L259.357,90L258.442,90L257.528,90L256.613,90L255.699,90L254.784,90L253.87,90L252.04,90L251.126,90L250.211,90L249.297,90L248.382,90L246.553,90L245.638,90L244.724,90L243.809,90L242.895,90L241.98,90L241.066,90L240.151,90L239.236,90L238.322,90L237.407,90L236.493,90L235.578,90L233.749,90L232.834,90L231.92,90L231.005,90L230.091,90L228.262,90L226.432,90L224.603,90L222.774,90L220.945,90L219.116,90L217.287,90L216.372,90L215.458,90L214.543,90L213.628,90L211.799,90L210.885,90L209.97,90L208.141,90L207.226,90L206.312,90L205.397,90L204.483,90L202.654,90L201.739,90L200.824,90L199.91,90L198.995,90L198.081,90L197.166,90L195.337,90L193.508,90L191.679,90L189.85,90L188.02,90L186.191,90L184.362,90L183.448,90L182.533,90L181.618,90L180.704,90L178.875,90L177.96,90L177.046,90L175.216,90L174.302,90L173.387,90L172.473,90L171.558,90L170.644,90L169.729,90L167.9,90L166.985,90L166.071,90L164.242,90L162.412,90L161.498,90L160.583,90L159.669,90L158.754,90L156.925,90L156.01,90L155.096,90L154.181,90L153.267,90L152.352,90L151.438,90L149.608,90L148.694,90L147.779,90L145.95,90L145.036,90L144.121,90L143.206,90L142.292,90L141.377,90L140.463,90L138.634,90L136.804,90L134.975,90L133.146,90L132.232,90L131.317,90L130.402,90L129.488,90L128.573,90L127.659,90L126.744,90L125.83,90L124,90L123.086,90L122.171,90L121.257,90L120.342,90L119.428,90L118.513,90L117.598,90L116.684,90L115.769,90L114.855,90L113.94,90L113.026,90L112.111,90L111.196,90L110.282,90L109.367,90L108.453,90L107.538,90L106.623,90L105.709,90L103.88,90L102.965,90L102.051,90L101.136,90L100.221,90L99.307,90L98.392,90L97.478,90L96.563,90L95.649,90L94.734,90L93.819,90L92.905,90L91.99,90L91.076,90L90.161,90L89.247,90L88.332,90L87.417,90L86.503,90L85.588,90L83.759,90L82.845,90L81.93,90L81.015,90L80.101,90L79.186,90L78.272,90L77.357,90L76.443,90L75.528,90L74.613,90L73.699,90L72.784,90L71.87,90L70.955,90L70.041,90L69.126,90L68.211,90L67.297,90L66.382,90L65.468,90L64.553,90L63.639,90L62.724,90L61.809,90L59.98,90L59.066,90L58.151,90L57.237,90L56.322,90L55.407,90L54.493,90L53.578,90L52.664,90L51.749,90L50.835,90L49.92,90L49.005,90L48.091,90L47.176,90L46.262,90L45.347,90L44.433,90L43.518,90L42.603,90L41.689,90L39.86,90L38.945,90L38.031,90L37.116,90L36.201,90L34.372,90L32.543,90L30.714,90L28.885,90L27.97,90L27.056,90L26.141,90L25.227,90L23.397,90L21.568,90Z" fill="#f462a3"/></g><g class="mark-symbol role-mark concat_2_layer_1_marks" role="graphics-object" aria-roledescription="symbol mark container"><path aria-label="x: 71.0188652664" role="graphics-symbol" aria-roledescription="point" transform="translate(50.44527663928179,90)" d="M2.739,0A2.739,2.739,0,1,1,-2.739,0A2.739,2.739,0,1,1,2.739,0" stroke="rgb(143, 215, 68)" stroke-width="2" opacity="1"/><path aria-label="x: 63.8761714213" role="graphics-symbol" aria-roledescription="point" transform="translate(33.30281141104142,90)" d="M2.739,0A2.739,2.739,0,1,1,-2.739,0A2.739,2.739,0,1,1,2.739,0" stroke="rgb(53, 183, 121)" stroke-width="2" opacity="1"/><path aria-label="x: 62.1144881699" role="graphics-symbol" aria-roledescription="point" transform="translate(29.074771607700313,90)" d="M2.739,0A2.739,2.739,0,1,1,-2.739,0A2.739,2.739,0,1,1,2.739,0" stroke="rgb(33, 145, 141)" stroke-width="2" opacity="1"/><path aria-label="x: 61.066441739" role="graphics-symbol" aria-roledescription="point" transform="translate(26.55946017355982,90)" d="M2.739,0A2.739,2.739,0,1,1,-2.739,0A2.739,2.739,0,1,1,2.739,0" stroke="rgb(49, 104, 142)" stroke-width="2" opacity="1"/><path aria-label="x: 60.2241290306" role="graphics-symbol" aria-roledescription="point" transform="translate(24.537909673334163,90)" d="M2.739,0A2.739,2.739,0,1,1,-2.739,0A2.739,2.739,0,1,1,2.739,0" stroke="rgb(68, 58, 131)" stroke-width="2" opacity="1"/></g></g><path class="foreground" aria-hidden="true" d="" display="none"/></g></g></g><path class="foreground" aria-hidden="true" d="" display="none"/></g></g></g><defs><clipPath id="clip1"><rect x="0" y="0" width="120" height="90"/></clipPath><clipPath id="clip2"><rect x="0" y="0" width="120" height="90"/></clipPath></defs></svg>