<svg xmlns="http://www.w3.org/2000/svg" xmlns:xlink="http://www.w3.org/1999/xlink" version="1.1" class="marks" width="247" height="131" viewBox="0 0 247 131"><rect width="247" height="131" fill="white"/><g fill="none" stroke-miterlimit="10" transform="translate(51,6)"><g class="mark-group role-frame root" role="graphics-object" aria-roledescription="group mark container"><g transform="translate(0,0)"><path class="background" aria-hidden="true" d="M0.5,0.5h120v90h-120Z"/><g><g class="mark-group role-axis" role="graphics-symbol" aria-roledescription="axis" aria-label="X-axis titled 'Time (mins)' for a linear scale with values from 0 to 260"><g transform="translate(0.5,90.5)"><path class="background" aria-hidden="true" d="M0,0h0v0h0Z" pointer-events="none"/><g><g class="mark-rule role-axis-tick" pointer-events="none"><line transform="translate(0,0)" x2="0" y2="3" stroke="black" stroke-width="1" opacity="1"/><line transform="translate(46,0)" x2="0" y2="3" stroke="black" stroke-width="1" opacity="1"/><line transform="translate(92,0)" x2="0" y2="3" stroke="black" stroke-width="1" opacity="1"/></g><g class="mark-text role-axis-label" pointer-events="none"><text text-anchor="start" transform="translate(0,13)" font-family="Arial" font-size="10px" fill="#000" opacity="1">0</text><text text-anchor="middle" transform="translate(46.15384615384615,13)" font-family="Arial" font-size="10px" fill="#000" opacity="1">100</text><text text-anchor="middle" transform="translate(92.3076923076923,13)" font-family="Arial" font-size="10px" fill="#000" opacity="1">200</text></g><g class="mark-rule role-axis-domain" pointer-events="none"><line transform="translate(0,0)" x2="120" y2="0" stroke="black" stroke-width="1" opacity="1"/></g><g class="mark-text role-axis-title" pointer-events="none"><text text-anchor="middle" transform="translate(60,28)" font-family="Arial" font-size="11px" font-weight="normal" fill="#000" opacity="1">Time (mins)</text></g></g><path class="foreground" aria-hidden="true" d="" pointer-events="none" display="none"/></g></g><g class="mark-group role-axis" role="graphics-symbol" aria-roledescription="axis" aria-label="Y-axis titled 'Protein 1' for a linear scale with values from 0 to 2,400"><g transform="translate(0.5,0.5)"><path class="background" aria-hidden="true" d="M0,0h0v0h0Z" pointer-events="none"/><g><g class="mark-rule role-axis-tick" pointer-events="none"><line transform="translate(0,90)" x2="-3" y2="0" stroke="black" stroke-width="1" opacity="1"/><line transform="translate(0,52)" x2="-3" y2="0" stroke="black" stroke-width="1" opacity="1"/><line transform="translate(0,15)" x2="-3" y2="0" stroke="black" stroke-width="1" opacity="1"/></g><g class="mark-text role-axis-label" pointer-events="none"><text text-anchor="end" transform="translate(-5,93)" font-family="Arial" font-size="10px" fill="#000" opacity="1">0</text><text text-anchor="end" transform="translate(-5,55.49999999999999)" font-family="Arial" font-size="10px" fill="#000" opacity="1">1,000</text><text text-anchor="end" transform="translate(-5,17.999999999999996)" font-family="Arial" font-size="10px" fill="#000" opacity="1">2,000</text></g><g class="mark-rule role-axis-domain" pointer-events="none"><line transform="translate(0,90)" x2="0" y2="-90" stroke="black" stroke-width="1" opacity="1"/></g><g class="mark-text role-axis-title" pointer-events="none"><text text-anchor="middle" transform="translate(-34.0244140625,45) rotate(-90) translate(0,-2)" font-family="Arial" font-size="11px" font-weight="normal" fill="#000" opacity="1">Protein 1</text></g></g><path class="foreground" aria-hidden="true" d="" pointer-events="none" display="none"/></g></g><g class="mark-group role-scope layer_0_pathgroup" role="graphics-object" aria-roledescription="group mark container"><g transform="translate(0,0)"><path class="background" aria-hidden="true" d="M0,0h120v90h-120Z"/><g><g class="mark-line role-mark layer_0_marks" role="graphics-object" aria-roledescription="line mark container"><path aria-label="Time (mins): 0; Protein 1: 100; Percentile: 5" role="graphics-symbol" aria-roledescription="line mark" d="M0,86.25L0.462,86.595L0.923,85.714L1.385,83.285L1.846,79.449L2.308,74.53L2.769,68.885L3.231,62.849L3.692,56.704L4.154,50.676L4.615,44.937L5.077,39.61L5.538,34.778L6,30.497L6.462,26.802L6.923,23.723L7.385,21.286L7.846,19.529L8.308,18.496L8.769,18.239L9.231,18.804L9.692,20.213L10.154,22.449L10.615,25.444L11.077,29.082L11.538,33.212L12,37.667L12.462,42.28L12.923,46.903L13.385,51.412L13.846,55.711L14.308,59.734L14.769,63.441L15.231,66.81L15.692,69.84L16.154,72.539L16.615,74.924L17.077,77.018L17.538,78.846L18,80.434L18.462,81.807L18.923,82.991L19.385,84.008L19.846,84.88L20.308,85.625L20.769,86.26L21.231,86.8L21.692,87.257L22.154,87.644L22.615,87.969L23.077,88.24L23.538,88.465L24,88.647L24.462,88.791L24.923,88.898L25.385,88.971L25.846,89.007L26.308,89.004L26.769,88.957L27.231,88.856L27.692,88.69L28.154,88.439L28.615,88.082L29.077,87.584L29.538,86.907L30,85.998L30.462,84.797L30.923,83.234L31.385,81.238L31.846,78.741L32.308,75.697L32.769,72.088L33.231,67.933L33.692,63.293L34.154,58.263L34.615,52.961L35.077,47.518L35.538,42.064L36,36.718L36.462,31.579L36.923,26.727L37.385,22.224L37.846,18.112L38.308,14.423L38.769,11.182L39.231,8.418L39.692,6.175L40.154,4.519L40.615,3.548L41.077,3.387L41.538,4.164L42,5.968L42.462,8.814L42.923,12.626L43.385,17.244L43.846,22.458L44.308,28.039L44.769,33.769L45.231,39.458L45.692,44.957L46.154,50.155L46.615,54.98L47.077,59.392L47.538,63.376L48,66.936L48.462,70.089L48.923,72.862L49.385,75.285L49.846,77.391L50.308,79.214L50.769,80.786L51.231,82.137L51.692,83.294L52.154,84.284L52.615,85.128L53.077,85.847L53.538,86.457L54,86.975L54.462,87.412L54.923,87.78L55.385,88.089L55.846,88.347L56.308,88.558L56.769,88.73L57.231,88.865L57.692,88.965L58.154,89.031L58.615,89.061L59.077,89.054L59.538,89.003L60,88.9L60.462,88.731L60.923,88.478L61.385,88.119L61.846,87.62L62.308,86.94L62.769,86.029L63.231,84.823L63.692,83.255L64.154,81.25L64.615,78.744L65.077,75.688L65.538,72.065L66,67.895L66.462,63.239L66.923,58.193L67.385,52.878L67.846,47.424L68.308,41.962L68.769,36.609L69.231,31.466L69.692,26.612L70.154,22.108L70.615,17.996L71.077,14.306L71.538,11.064L72,8.298L72.462,6.048L72.923,4.381L73.385,3.392L73.846,3.207L74.308,3.955L74.769,5.727L75.231,8.543L75.692,12.329L76.154,16.929L76.615,22.135L77.077,27.716L77.538,33.455L78,39.159L78.462,44.677L78.923,49.898L79.385,54.746L79.846,59.182L80.308,63.189L80.769,66.771L81.231,69.945L81.692,72.736L82.154,75.176L82.615,77.297L83.077,79.133L83.538,80.716L84,82.077L84.462,83.244L84.923,84.241L85.385,85.091L85.846,85.816L86.308,86.431L86.769,86.952L87.231,87.393L87.692,87.765L88.154,88.076L88.615,88.336L89.077,88.55L89.538,88.723L90,88.859L90.462,88.961L90.923,89.028L91.385,89.061L91.846,89.056L92.308,89.007L92.769,88.906L93.231,88.741L93.692,88.493L94.154,88.14L94.615,87.649L95.077,86.979L95.538,86.08L96,84.891L96.462,83.342L96.923,81.36L97.385,78.88L97.846,75.852L98.308,72.256L98.769,68.112L99.231,63.478L99.692,58.449L100.154,53.144L100.615,47.694L101.077,42.229L101.538,36.868L102,31.712L102.462,26.843L102.923,22.32L103.385,18.188L103.846,14.477L104.308,11.212L104.769,8.421L105.231,6.145L105.692,4.447L106.154,3.422L106.615,3.195L107.077,3.893L107.538,5.614L108,8.379L108.462,12.12L108.923,16.685L109.385,21.866L109.846,27.434L110.308,33.17L110.769,38.88L111.231,44.41L111.692,49.647L112.154,54.516L112.615,58.972L113.077,63.001L113.538,66.603L114,69.797L114.462,72.606L114.923,75.063L115.385,77.199" stroke="rgb(68, 58, 131)" stroke-width="2"/></g></g><path class="foreground" aria-hidden="true" d="" display="none"/></g><g transform="translate(0,0)"><path class="background" aria-hidden="true" d="M0,0h120v90h-120Z"/><g><g class="mark-line role-mark layer_0_marks" role="graphics-object" aria-roledescription="line mark container"><path aria-label="Time (mins): 0; Protein 1: 100; Percentile: 25" role="graphics-symbol" aria-roledescription="line mark" d="M0,86.25L0.462,86.336L0.923,84.403L1.385,80.406L1.846,74.875L2.308,68.38L2.769,61.406L3.231,54.342L3.692,47.48L4.154,41.03L4.615,35.141L5.077,29.919L5.538,25.448L6,21.805L6.462,19.075L6.923,17.351L7.385,16.726L7.846,17.27L8.308,18.993L8.769,21.82L9.231,25.588L9.692,30.07L10.154,35.01L10.615,40.163L11.077,45.317L11.538,50.307L12,55.014L12.462,59.367L12.923,63.326L13.385,66.881L13.846,70.039L14.308,72.82L14.769,75.252L15.231,77.367L15.692,79.197L16.154,80.774L16.615,82.128L17.077,83.288L17.538,84.278L18,85.121L18.462,85.837L18.923,86.443L19.385,86.954L19.846,87.383L20.308,87.739L20.769,88.032L21.231,88.268L21.692,88.45L22.154,88.582L22.615,88.662L23.077,88.688L23.538,88.653L24,88.546L24.462,88.351L24.923,88.045L25.385,87.596L25.846,86.962L26.308,86.087L26.769,84.904L27.231,83.335L27.692,81.293L28.154,78.696L28.615,75.479L29.077,71.607L29.538,67.093L30,61.998L30.462,56.427L30.923,50.52L31.385,44.434L31.846,38.327L32.308,32.348L32.769,26.624L33.231,21.264L33.692,16.359L34.154,11.987L34.615,8.231L35.077,5.193L35.538,3.004L36,1.838L36.462,1.879L36.923,3.276L37.385,6.066L37.846,10.141L38.308,15.261L38.769,21.109L39.231,27.354L39.692,33.7L40.154,39.909L40.615,45.809L41.077,51.29L41.538,56.292L42,60.791L42.462,64.792L42.923,68.319L43.385,71.404L43.846,74.086L44.308,76.406L44.769,78.405L45.231,80.122L45.692,81.591L46.154,82.845L46.615,83.914L47.077,84.823L47.538,85.593L48,86.245L48.462,86.795L48.923,87.257L49.385,87.643L49.846,87.962L50.308,88.221L50.769,88.427L51.231,88.583L51.692,88.69L52.154,88.747L52.615,88.749L53.077,88.689L53.538,88.554L54,88.325L54.462,87.977L54.923,87.475L55.385,86.773L55.846,85.811L56.308,84.517L56.769,82.81L57.231,80.602L57.692,77.814L58.154,74.388L58.615,70.304L59.077,65.589L59.538,60.318L60,54.611L60.462,48.615L60.923,42.49L61.385,36.391L61.846,30.463L62.308,24.826L62.769,19.582L63.231,14.815L63.692,10.603L64.154,7.028L64.615,4.198L65.077,2.254L65.538,1.374L66,1.742L66.462,3.486L66.923,6.614L67.385,10.983L67.846,16.328L68.308,22.324L68.769,28.642L69.231,34.999L69.692,41.171L70.154,47.001L70.615,52.392L71.077,57.293L71.538,61.688L72,65.588L72.462,69.019L72.923,72.015L73.385,74.617L73.846,76.865L74.308,78.8L74.769,80.46L75.231,81.881L75.692,83.093L76.154,84.125L76.615,85.001L77.077,85.745L77.538,86.373L78,86.903L78.462,87.347L78.923,87.718L79.385,88.023L79.846,88.271L80.308,88.466L80.769,88.611L81.231,88.708L81.692,88.753L82.154,88.743L82.615,88.668L83.077,88.514L83.538,88.263L84,87.885L84.462,87.345L84.923,86.592L85.385,85.566L85.846,84.191L86.308,82.384L86.769,80.059L87.231,77.138L87.692,73.572L88.154,69.349L88.615,64.507L89.077,59.132L89.538,53.35L90,47.313L90.462,41.18L90.923,35.106L91.385,29.23L91.846,23.669L92.308,18.52L92.769,13.865L93.231,9.781L93.692,6.355L94.154,3.7L94.615,1.967L95.077,1.337L95.538,1.99L96,4.033L96.462,7.442L96.923,12.044L97.385,17.556L97.846,23.647L98.308,29.995L98.769,36.329L99.231,42.44L99.692,48.184L100.154,53.474L100.615,58.267L101.077,62.556L101.538,66.354L102,69.69L102.462,72.599L102.923,75.122L103.385,77.3L103.846,79.174L104.308,80.781L104.769,82.154L105.231,83.326L105.692,84.323L106.154,85.17L106.615,85.887L107.077,86.493L107.538,87.004L108,87.432L108.462,87.788L108.923,88.081L109.385,88.317L109.846,88.501L110.308,88.636L110.769,88.722L111.231,88.756L111.692,88.733L112.154,88.642L112.615,88.47L113.077,88.194L113.538,87.786L114,87.205L114.462,86.4L114.923,85.306L115.385,83.847" stroke="rgb(49, 104, 142)" stroke-width="2"/></g></g><path class="foreground" aria-hidden="true" d="" display="none"/></g><g transform="translate(0,0)"><path class="background" aria-hidden="true" d="M0,0h120v90h-120Z"/><g><g class="mark-line role-mark layer_0_marks" role="graphics-object" aria-roledescription="line mark container"><path aria-label="Time (mins): 0; Protein 1: 100; Percentile: 50" role="graphics-symbol" aria-roledescription="line mark" d="M0,86.25L0.462,86.19L0.923,83.803L1.385,79.281L1.846,73.287L2.308,66.432L2.769,59.209L3.231,51.994L3.692,45.068L4.154,38.633L4.615,32.834L5.077,27.788L5.538,23.593L6,20.354L6.462,18.18L6.923,17.181L7.385,17.44L7.846,18.971L8.308,21.695L8.769,25.433L9.231,29.936L9.692,34.924L10.154,40.134L10.615,45.342L11.077,50.375L11.538,55.114L12,59.487L12.462,63.457L12.923,67.015L13.385,70.171L13.846,72.946L14.308,75.37L14.769,77.475L15.231,79.295L15.692,80.861L16.154,82.205L16.615,83.355L17.077,84.336L17.538,85.17L18,85.877L18.462,86.475L18.923,86.978L19.385,87.398L19.846,87.744L20.308,88.025L20.769,88.247L21.231,88.412L21.692,88.52L22.154,88.571L22.615,88.558L23.077,88.47L23.538,88.292L24,88.002L24.462,87.568L24.923,86.947L25.385,86.085L25.846,84.914L26.308,83.355L26.769,81.319L27.231,78.723L27.692,75.496L28.154,71.603L28.615,67.051L29.077,61.896L29.538,56.245L30,50.238L30.462,44.038L30.923,37.81L31.385,31.711L31.846,25.88L32.308,20.437L32.769,15.489L33.231,11.138L33.692,7.495L34.154,4.701L34.615,2.932L35.077,2.393L35.538,3.258L36,5.604L36.462,9.352L36.923,14.267L37.385,20.018L37.846,26.249L38.308,32.638L38.769,38.923L39.231,44.916L39.692,50.496L40.154,55.594L40.615,60.184L41.077,64.269L41.538,67.87L42,71.02L42.462,73.759L42.923,76.129L43.385,78.17L43.846,79.923L44.308,81.423L44.769,82.704L45.231,83.794L45.692,84.721L46.154,85.506L46.615,86.17L47.077,86.73L47.538,87.199L48,87.589L48.462,87.91L48.923,88.169L49.385,88.37L49.846,88.518L50.308,88.611L50.769,88.648L51.231,88.621L51.692,88.519L52.154,88.327L52.615,88.02L53.077,87.565L53.538,86.919L54,86.025L54.462,84.813L54.923,83.202L55.385,81.103L55.846,78.432L56.308,75.122L56.769,71.141L57.231,66.501L57.692,61.267L58.154,55.549L58.615,49.492L59.077,43.261L59.538,37.021L60,30.926L60.462,25.113L60.923,19.701L61.385,14.791L61.846,10.483L62.308,6.889L62.769,4.148L63.231,2.438L63.692,1.961L64.154,2.896L64.615,5.313L65.077,9.129L65.538,14.106L66,19.909L66.462,26.182L66.923,32.602L67.385,38.91L67.846,44.919L68.308,50.509L68.769,55.613L69.231,60.206L69.692,64.292L70.154,67.892L70.615,71.041L71.077,73.779L71.538,76.147L72,78.187L72.462,79.938L72.923,81.436L73.385,82.715L73.846,83.804L74.308,84.729L74.769,85.514L75.231,86.177L75.692,86.735L76.154,87.204L76.615,87.593L77.077,87.913L77.538,88.172L78,88.373L78.462,88.52L78.923,88.613L79.385,88.649L79.846,88.622L80.308,88.52L80.769,88.327L81.231,88.019L81.692,87.564L82.154,86.917L82.615,86.021L83.077,84.808L83.538,83.195L84,81.094L84.462,78.42L84.923,75.108L85.385,71.123L85.846,66.481L86.308,61.244L86.769,55.524L87.231,49.466L87.692,43.234L88.154,36.993L88.615,30.899L89.077,25.088L89.538,19.676L90,14.769L90.462,10.463L90.923,6.872L91.385,4.134L91.846,2.427L92.308,1.955L92.769,2.894L93.231,5.316L93.692,9.136L94.154,14.116L94.615,19.921L95.077,26.196L95.538,32.616L96,38.924L96.462,44.932L96.923,50.521L97.385,55.624L97.846,60.216L98.308,64.301L98.769,67.9L99.231,71.048L99.692,73.785L100.154,76.152L100.615,78.191L101.077,79.942L101.538,81.439L102,82.718L102.462,83.806L102.923,84.731L103.385,85.515L103.846,86.178L104.308,86.737L104.769,87.205L105.231,87.594L105.692,87.914L106.154,88.172L106.615,88.373L107.077,88.52L107.538,88.613L108,88.649L108.462,88.621L108.923,88.519L109.385,88.326L109.846,88.018L110.308,87.562L110.769,86.915L111.231,86.019L111.692,84.805L112.154,83.191L112.615,81.089L113.077,78.414L113.538,75.1L114,71.114L114.462,66.47L114.923,61.232L115.385,55.511" stroke="rgb(33, 145, 141)" stroke-width="2"/></g></g><path class="foreground" aria-hidden="true" d="" display="none"/></g><g transform="translate(0,0)"><path class="background" aria-hidden="true" d="M0,0h120v90h-120Z"/><g><g class="mark-line role-mark layer_0_marks" role="graphics-object" aria-roledescription="line mark container"><path aria-label="Time (mins): 0; Protein 1: 100; Percentile: 75" role="graphics-symbol" aria-roledescription="line mark" d="M0,86.25L0.462,86.07L0.923,83.373L1.385,78.539L1.846,72.296L2.308,65.261L2.769,57.922L3.231,50.648L3.692,43.712L4.154,37.313L4.615,31.602L5.077,26.703L5.538,22.73L6,19.805L6.462,18.05L6.923,17.571L7.385,18.422L7.846,20.564L8.308,23.852L8.769,28.047L9.231,32.866L9.692,38.022L10.154,43.266L10.615,48.398L11.077,53.277L11.538,57.811L12,61.95L12.462,65.675L12.923,68.99L13.385,71.914L13.846,74.474L14.308,76.7L14.769,78.627L15.231,80.289L15.692,81.715L16.154,82.937L16.615,83.979L17.077,84.867L17.538,85.62L18,86.256L18.462,86.791L18.923,87.239L19.385,87.608L19.846,87.909L20.308,88.146L20.769,88.323L21.231,88.441L21.692,88.497L22.154,88.486L22.615,88.397L23.077,88.214L23.538,87.913L24,87.461L24.462,86.815L24.923,85.917L25.385,84.698L25.846,83.077L26.308,80.965L26.769,78.277L27.231,74.948L27.692,70.943L28.154,66.276L28.615,61.01L29.077,55.256L29.538,49.16L30,42.889L30.462,36.613L30.923,30.492L31.385,24.669L31.846,19.271L32.308,14.416L32.769,10.224L33.231,6.831L33.692,4.412L34.154,3.17L34.615,3.31L35.077,4.962L35.538,8.109L36,12.566L36.462,18.018L36.923,24.098L37.385,30.456L37.846,36.8L38.308,42.913L38.769,48.648L39.231,53.919L39.692,58.687L40.154,62.944L40.615,66.708L41.077,70.008L41.538,72.883L42,75.374L42.462,77.522L42.923,79.368L43.385,80.949L43.846,82.299L44.308,83.45L44.769,84.428L45.231,85.258L45.692,85.96L46.154,86.551L46.615,87.047L47.077,87.459L47.538,87.798L48,88.072L48.462,88.285L48.923,88.442L49.385,88.54L49.846,88.579L50.308,88.55L50.769,88.443L51.231,88.24L51.692,87.915L52.154,87.434L52.615,86.751L53.077,85.807L53.538,84.53L54,82.835L54.462,80.634L54.923,77.842L55.385,74.398L55.846,70.275L56.308,65.492L56.769,60.121L57.231,54.282L57.692,48.126L58.154,41.821L58.615,35.537L59.077,29.43L59.538,23.642L60,18.295L60.462,13.504L60.923,9.386L61.385,6.079L61.846,3.757L62.308,2.628L62.769,2.893L63.231,4.677L63.692,7.952L64.154,12.522L64.615,18.065L65.077,24.211L65.538,30.613L66,36.982L66.462,43.105L66.923,48.84L67.385,54.103L67.846,58.858L68.308,63.101L68.769,66.849L69.231,70.134L69.692,72.994L70.154,75.471L70.615,77.606L71.077,79.441L71.538,81.012L72,82.354L72.462,83.497L72.923,84.468L73.385,85.292L73.846,85.988L74.308,86.575L74.769,87.067L75.231,87.476L75.692,87.813L76.154,88.084L76.615,88.295L77.077,88.448L77.538,88.545L78,88.581L78.462,88.549L78.923,88.439L79.385,88.232L79.846,87.902L80.308,87.414L80.769,86.723L81.231,85.768L81.692,84.476L82.154,82.764L82.615,80.542L83.077,77.727L83.538,74.258L84,70.108L84.462,65.302L84.923,59.911L85.385,54.057L85.846,47.892L86.308,41.584L86.769,35.303L87.231,29.206L87.692,23.431L88.154,18.102L88.615,13.333L89.077,9.242L89.538,5.967L90,3.685L90.462,2.603L90.923,2.921L91.385,4.759L91.846,8.085L92.308,12.696L92.769,18.267L93.231,24.429L93.692,30.835L94.154,37.2L94.615,43.311L95.077,49.031L95.538,54.277L96,59.014L96.462,63.24L96.923,66.971L97.385,70.241L97.846,73.087L98.308,75.551L98.769,77.675L99.231,79.5L99.692,81.062L100.154,82.397L100.615,83.533L101.077,84.499L101.538,85.318L102,86.011L102.462,86.594L102.923,87.083L103.385,87.489L103.846,87.823L104.308,88.092L104.769,88.301L105.231,88.453L105.692,88.547L106.154,88.581L106.615,88.547L107.077,88.434L107.538,88.222L108,87.887L108.462,87.394L108.923,86.694L109.385,85.729L109.846,84.424L110.308,82.696L110.769,80.454L111.231,77.617L111.692,74.125L112.154,69.952L112.615,65.123L113.077,59.715L113.538,53.847L114,47.674L114.462,41.364L114.923,35.087L115.385,28.998" stroke="rgb(53, 183, 121)" stroke-width="2"/></g></g><path class="foreground" aria-hidden="true" d="" display="none"/></g><g transform="translate(0,0)"><path class="background" aria-hidden="true" d="M0,0h120v90h-120Z"/><g><g class="mark-line role-mark layer_0_marks" role="graphics-object" aria-roledescription="line mark container"><path aria-label="Time (mins): 0; Protein 1: 100; Percentile: 95" role="graphics-symbol" aria-roledescription="line mark" d="M0,86.25L0.462,85.931L0.923,82.934L1.385,77.833L1.846,71.388L2.308,64.214L2.769,56.791L3.231,49.482L3.692,42.554L4.154,36.209L4.615,30.602L5.077,25.87L5.538,22.144L6,19.557L6.462,18.237L6.923,18.275L7.385,19.683L7.846,22.362L8.308,26.106L8.769,30.636L9.231,35.652L9.692,40.875L10.154,46.078L10.615,51.089L11.077,55.791L11.538,60.117L12,64.034L12.462,67.536L12.923,70.637L13.385,73.359L13.846,75.733L14.308,77.793L14.769,79.571L15.231,81.1L15.692,82.41L16.154,83.53L16.615,84.484L17.077,85.294L17.538,85.98L18,86.557L18.462,87.04L18.923,87.44L19.385,87.766L19.846,88.025L20.308,88.221L20.769,88.354L21.231,88.423L21.692,88.423L22.154,88.343L22.615,88.167L23.077,87.871L23.538,87.423L24,86.779L24.462,85.882L24.923,84.661L25.385,83.036L25.846,80.918L26.308,78.222L26.769,74.88L27.231,70.859L27.692,66.169L28.154,60.873L28.615,55.083L29.077,48.946L29.538,42.632L30,36.315L30.462,30.16L30.923,24.318L31.385,18.926L31.846,14.113L32.308,10.018L32.769,6.803L33.231,4.663L33.692,3.818L34.154,4.458L34.615,6.659L35.077,10.328L35.538,15.209L36,20.943L36.462,27.158L36.923,33.518L37.385,39.762L37.846,45.702L38.308,51.22L38.769,56.253L39.231,60.776L39.692,64.795L40.154,68.335L40.615,71.428L41.077,74.115L41.538,76.437L42,78.437L42.462,80.152L42.923,81.619L43.385,82.871L43.846,83.936L44.308,84.84L44.769,85.605L45.231,86.251L45.692,86.793L46.154,87.245L46.615,87.619L47.077,87.921L47.538,88.16L48,88.337L48.462,88.455L48.923,88.511L49.385,88.498L49.846,88.406L50.308,88.217L50.769,87.908L51.231,87.444L51.692,86.781L52.154,85.86L52.615,84.609L53.077,82.946L53.538,80.781L54,78.029L54.462,74.625L54.923,70.536L55.385,65.778L55.846,60.418L56.308,54.572L56.769,48.391L57.231,42.046L57.692,35.711L58.154,29.548L58.615,23.709L59.077,18.325L59.538,13.525L60,9.442L60.462,6.236L60.923,4.103L61.385,3.263L61.846,3.906L62.308,6.114L62.769,9.798L63.231,14.701L63.692,20.467L64.154,26.718L64.615,33.119L65.077,39.404L65.538,45.384L66,50.941L66.462,56.009L66.923,60.565L67.385,64.613L67.846,68.178L68.308,71.294L68.769,74L69.231,76.34L69.692,78.354L70.154,80.082L70.615,81.56L71.077,82.821L71.538,83.894L72,84.805L72.462,85.576L72.923,86.226L73.385,86.773L73.846,87.228L74.308,87.605L74.769,87.911L75.231,88.152L75.692,88.332L76.154,88.453L76.615,88.511L77.077,88.502L77.538,88.414L78,88.231L78.462,87.928L78.923,87.474L79.385,86.822L79.846,85.915L80.308,84.684L80.769,83.044L81.231,80.906L81.692,78.186L82.154,74.816L82.615,70.762L83.077,66.036L83.538,60.704L84,54.879L84.462,48.711L84.923,42.369L85.385,36.028L85.846,29.853L86.308,23.993L86.769,18.582L87.231,13.748L87.692,9.624L88.154,6.367L88.615,4.173L89.077,3.258L89.538,3.82L90,5.946L90.462,9.557L90.923,14.405L91.385,20.135L91.846,26.37L92.308,32.771L92.769,39.069L93.231,45.07L93.692,50.652L94.154,55.748L94.615,60.331L95.077,64.407L95.538,67.997L96,71.136L96.462,73.864L96.923,76.222L97.385,78.253L97.846,79.996L98.308,81.486L98.769,82.758L99.231,83.84L99.692,84.759L100.154,85.537L100.615,86.194L101.077,86.746L101.538,87.206L102,87.587L102.462,87.896L102.923,88.14L103.385,88.324L103.846,88.448L104.308,88.51L104.769,88.505L105.231,88.421L105.692,88.244L106.154,87.948L106.615,87.503L107.077,86.863L107.538,85.972L108,84.76L108.462,83.144L108.923,81.036L109.385,78.349L109.846,75.015L110.308,70.998L110.769,66.308L111.231,61.007L111.692,55.205L112.154,49.051L112.615,42.714L113.077,36.368L113.538,30.18L114,24.299L114.462,18.861L114.923,13.992L115.385,9.826" stroke="rgb(143, 215, 68)" stroke-width="2"/></g></g><path class="foreground" aria-hidden="true" d="" display="none"/></g></g><g class="mark-group role-legend" role="graphics-symbol" aria-roledescription="legend" aria-label="Symbol legend titled 'Percentile' for stroke color with 5 values: 5, 25, 50, 75, 95"><g transform="translate(138,0)"><path class="background" aria-hidden="true" d="M0,0h53v79h-53Z" pointer-events="none"/><g><g class="mark-group role-legend-entry"><g transform="translate(0,16)"><path class="background" aria-hidden="true" d="M0,0h0v0h0Z" pointer-events="none"/><g><g class="mark-group role-scope" role="graphics-object" aria-roledescription="group mark container"><g transform="translate(0,0)"><path class="background" aria-hidden="true" d="M0,0h27.123046875v11h-27.123046875Z" pointer-events="none" opacity="1"/><g><g class="mark-symbol role-legend-symbol" pointer-events="none"><path transform="translate(6,6)" d="M-5,0L5,0" stroke="rgb(68, 58, 131)" stroke-width="1.5" opacity="1"/></g><g class="mark-text role-legend-label" pointer-events="none"><text text-anchor="start" transform="translate(16,9)" font-family="Arial" font-size="10px" fill="#000" opacity="1">5</text></g></g><path class="foreground" aria-hidden="true" d="" pointer-events="none" display="none"/></g><g transform="translate(0,13)"><path class="background" aria-hidden="true" d="M0,0h27.123046875v11h-27.123046875Z" pointer-events="none" opacity="1"/><g><g class="mark-symbol role-legend-symbol" pointer-events="none"><path transform="translate(6,6)" d="M-5,0L5,0" stroke="rgb(49, 104, 142)" stroke-width="1.5" opacity="1"/></g><g class="mark-text role-legend-label" pointer-events="none"><text text-anchor="start" transform="translate(16,9)" font-family="Arial" font-size="10px" fill="#000" opacity="1">25</text></g></g><path class="foreground" aria-hidden="true" d="" pointer-events="none" display="none"/></g><g transform="translate(0,26)"><path class="background" aria-hidden="true" d="M0,0h27.123046875v11h-27.123046875Z" pointer-events="none" opacity="1"/><g><g class="mark-symbol role-legend-symbol" pointer-events="none"><path transform="translate(6,6)" d="M-5,0L5,0" stroke="rgb(33, 145, 141)" stroke-width="1.5" opacity="1"/></g><g class="mark-text role-legend-label" pointer-events="none"><text text-anchor="start" transform="translate(16,9)" font-family="Arial" font-size="10px" fill="#000" opacity="1">50</text></g></g><path class="foreground" aria-hidden="true" d="" pointer-events="none" display="none"/></g><g transform="translate(0,39)"><path class="background" aria-hidden="true" d="M0,0h27.123046875v11h-27.123046875Z" pointer-events="none" opacity="1"/><g><g class="mark-symbol role-legend-symbol" pointer-events="none"><path transform="translate(6,6)" d="M-5,0L5,0" stroke="rgb(53, 183, 121)" stroke-width="1.5" opacity="1"/></g><g class="mark-text role-legend-label" pointer-events="none"><text text-anchor="start" transform="translate(16,9)" font-family="Arial" font-size="10px" fill="#000" opacity="1">75</text></g></g><path class="foreground" aria-hidden="true" d="" pointer-events="none" display="none"/></g><g transform="translate(0,52)"><path class="background" aria-hidden="true" d="M0,0h27.123046875v11h-27.123046875Z" pointer-events="none" opacity="1"/><g><g class="mark-symbol role-legend-symbol" pointer-events="none"><path transform="translate(6,6)" d="M-5,0L5,0" stroke="rgb(143, 215, 68)" stroke-width="1.5" opacity="1"/></g><g class="mark-text role-legend-label" pointer-events="none"><text text-anchor="start" transform="translate(16,9)" font-family="Arial" font-size="10px" fill="#000" opacity="1">95</text></g></g><path class="foreground" aria-hidden="true" d="" pointer-events="none" display="none"/></g></g></g><path class="foreground" aria-hidden="true" d="" pointer-events="none" display="none"/></g></g><g class="mark-text role-legend-title" pointer-events="none"><text text-anchor="start" transform="translate(0,9)" font-family="Arial" font-size="11px" font-weight="bold" fill="#000" opacity="1">Percentile</text></g></g><path class="foreground" aria-hidden="true" d="" pointer-events="none" display="none"/></g></g></g><path class="foreground" aria-hidden="true" d="" display="none"/></g></g></g></svg>