<svg xmlns="http://www.w3.org/2000/svg" xmlns:xlink="http://www.w3.org/1999/xlink" version="1.1" class="marks" width="163" height="117" viewBox="0 0 163 117"><rect width="163" height="117" fill="white"/><g fill="none" stroke-miterlimit="10" transform="translate(37,7)"><g class="mark-group role-frame root" role="graphics-object" aria-roledescription="group mark container"><g transform="translate(0,0)"><path class="background" aria-hidden="true" d="M0.5,0.5h120v90h-120Z"/><g><g class="mark-group role-axis" role="graphics-symbol" aria-roledescription="axis" aria-label="X-axis for a linear scale with values from 0 to 160"><g transform="translate(0.5,90.5)"><path class="background" aria-hidden="true" d="M0,0h0v0h0Z" pointer-events="none"/><g><g class="mark-rule role-axis-tick" pointer-events="none"><line transform="translate(0,0)" x2="0" y2="3" stroke="black" stroke-width="1" opacity="1"/><line transform="translate(38,0)" x2="0" y2="3" stroke="black" stroke-width="1" opacity="1"/><line transform="translate(75,0)" x2="0" y2="3" stroke="black" stroke-width="1" opacity="1"/><line transform="translate(113,0)" x2="0" y2="3" stroke="black" stroke-width="1" opacity="1"/></g><g class="mark-text role-axis-label" pointer-events="none"><text text-anchor="start" transform="translate(0,13)" font-family="Arial" font-size="10px" fill="#000" opacity="1">0</text><text text-anchor="middle" transform="translate(37.5,13)" font-family="Arial" font-size="10px" fill="#000" opacity="1">50</text><text text-anchor="middle" transform="translate(75,13)" font-family="Arial" font-size="10px" fill="#000" opacity="1">100</text><text text-anchor="middle" transform="translate(112.5,13)" font-family="Arial" font-size="10px" fill="#000" opacity="1">150</text></g><g class="mark-rule role-axis-domain" pointer-events="none"><line transform="translate(0,0)" x2="120" y2="0" stroke="black" stroke-width="1" opacity="1"/></g></g><path class="foreground" aria-hidden="true" d="" pointer-events="none" display="none"/></g></g><g class="mark-group role-axis" role="graphics-symbol" aria-roledescription="axis" aria-label="Y-axis titled 'mRNA' for a linear scale with values from 0 to 12"><g transform="translate(0.5,0.5)"><path class="background" aria-hidden="true" d="M0,0h0v0h0Z" pointer-events="none"/><g><g class="mark-rule role-axis-tick" pointer-events="none"><line transform="translate(0,90)" x2="-3" y2="0" stroke="black" stroke-width="1" opacity="1"/><line transform="translate(0,52)" x2="-3" y2="0" stroke="black" stroke-width="1" opacity="1"/><line transform="translate(0,15)" x2="-3" y2="0" stroke="black" stroke-width="1" opacity="1"/></g><g class="mark-text role-axis-label" pointer-events="none"><text text-anchor="end" transform="translate(-5,93)" font-family="Arial" font-size="10px" fill="#000" opacity="1">0</text><text text-anchor="end" transform="translate(-5,55.49999999999999)" font-family="Arial" font-size="10px" fill="#000" opacity="1">5</text><text text-anchor="end" transform="translate(-5,17.999999999999996)" font-family="Arial" font-size="10px" fill="#000" opacity="1">10</text></g><g class="mark-rule role-axis-domain" pointer-events="none"><line transform="translate(0,90)" x2="0" y2="-90" stroke="black" stroke-width="1" opacity="1"/></g><g class="mark-text role-axis-title" pointer-events="none"><text text-anchor="middle" transform="translate(-20.123046875,45) rotate(-90) translate(0,-2)" font-family="Arial" font-size="11px" font-weight="normal" fill="#000" opacity="1">mRNA</text></g></g><path class="foreground" aria-hidden="true" d="" pointer-events="none" display="none"/></g></g><g class="mark-group role-scope layer_0_pathgroup" role="graphics-object" aria-roledescription="group mark container"><g transform="translate(0,0)"><path class="background" aria-hidden="true" d="M0,0h120v90h-120Z"/><g><g class="mark-line role-mark layer_0_marks" role="graphics-object" aria-roledescription="line mark container"><path aria-label="t: 0; M: 0.000001; gene: Gene 1" role="graphics-symbol" aria-roledescription="line mark" d="M0,90L0.75,74.652L1.5,59.835L2.25,46.472L3,35.213L3.75,26.219L4.5,19.301L5.25,14.113L6,10.292L6.75,7.509L7.5,5.501L8.25,4.063L9,3.046L9.75,2.362L10.5,2.075L11.25,3.079L12,9.983L12.75,26.512L13.5,43.741L14.25,56.984L15,66.537L15.75,73.344L16.5,78.18L17.25,81.613L18,84.049L18.75,85.777L19.5,87.004L20.25,87.874L21,88.492L21.75,88.93L22.5,89.241L23.25,89.461L24,89.618L24.75,89.729L25.5,89.808L26.25,89.863L27,89.903L27.75,89.931L28.5,89.951L29.25,89.965L30,89.975L30.75,89.982L31.5,89.988L32.25,89.991L33,89.994L33.75,89.995L34.5,89.997L35.25,89.997L36,89.997L36.75,89.997L37.5,89.996L38.25,89.993L39,89.988L39.75,89.978L40.5,89.959L41.25,89.921L42,89.847L42.75,89.703L43.5,89.422L44.25,88.877L45,87.835L45.75,85.894L46.5,82.456L47.25,76.856L48,68.764L48.75,58.667L49.5,47.797L50.25,37.48L51,28.567L51.75,21.353L52.5,15.762L53.25,11.551L54,8.44L54.75,6.17L55.5,4.527L56.25,3.347L57,2.501L57.75,1.897L58.5,1.467L59.25,1.161L60,0.943L60.75,0.788L61.5,0.679L62.25,0.604L63,0.569L63.75,0.717L64.5,2.509L65.25,12.747L66,31.336L66.75,47.807L67.5,59.972L68.25,68.676L69,74.866L69.75,79.261L70.5,82.38L71.25,84.593L72,86.164L72.75,87.278L73.5,88.069L74.25,88.63L75,89.028L75.75,89.31L76.5,89.511L77.25,89.653L78,89.754L78.75,89.825L79.5,89.876L80.25,89.912L81,89.938L81.75,89.956L82.5,89.968L83.25,89.978L84,89.984L84.75,89.989L85.5,89.992L86.25,89.994L87,89.996L87.75,89.997L88.5,89.997L89.25,89.998L90,89.997L90.75,89.996L91.5,89.994L92.25,89.989L93,89.979L93.75,89.961L94.5,89.925L95.25,89.855L96,89.718L96.75,89.451L97.5,88.933L98.25,87.941L99,86.088L99.75,82.79L100.5,77.374L101.25,69.468L102,59.487L102.75,48.626L103.5,38.229L104.25,29.192L105,21.847L105.75,16.139L106.5,11.832L107.25,8.646L108,6.319L108.75,4.635L109.5,3.424L110.25,2.556L111,1.937L111.75,1.495L112.5,1.181" stroke="#1657a8" stroke-width="2"/></g></g><path class="foreground" aria-hidden="true" d="" display="none"/></g><g transform="translate(0,0)"><path class="background" aria-hidden="true" d="M0,0h120v90h-120Z"/><g><g class="mark-line role-mark layer_0_marks" role="graphics-object" aria-roledescription="line mark container"><path aria-label="t: 0; M: 0.000001; gene: Gene 3" role="graphics-symbol" aria-roledescription="line mark" d="M0,90L0.75,89.996L1.5,89.992L2.25,89.987L3,89.981L3.75,89.972L4.5,89.957L5.25,89.931L6,89.884L6.75,89.799L7.5,89.644L8.25,89.356L9,88.82L9.75,87.829L10.5,86.029L11.25,82.887L12,77.769L12.75,70.27L13.5,60.668L14.25,50.016L15,39.62L15.75,30.437L16.5,22.88L17.25,16.955L18,12.455L18.75,9.111L19.5,6.661L20.25,4.884L21,3.604L21.75,2.686L22.5,2.029L23.25,1.561L24,1.228L24.75,0.991L25.5,0.823L26.25,0.705L27,0.626L27.75,0.615L28.5,1.027L29.25,4.884L30,19.392L30.75,37.958L31.5,52.79L32.25,63.549L33,71.222L33.75,76.674L34.5,80.544L35.25,83.291L36,85.24L36.75,86.622L37.5,87.604L38.25,88.3L39,88.794L39.75,89.144L40.5,89.393L41.25,89.569L42,89.694L42.75,89.783L43.5,89.846L44.25,89.891L45,89.922L45.75,89.945L46.5,89.961L47.25,89.972L48,89.98L48.75,89.986L49.5,89.99L50.25,89.993L51,89.995L51.75,89.996L52.5,89.997L53.25,89.998L54,89.998L54.75,89.997L55.5,89.995L56.25,89.992L57,89.986L57.75,89.974L58.5,89.95L59.25,89.903L60,89.813L60.75,89.636L61.5,89.291L62.25,88.624L63,87.357L63.75,85.026L64.5,80.988L65.25,74.623L66,65.818L66.75,55.331L67.5,44.505L68.25,34.558L69,26.16L69.75,19.466L70.5,14.33L71.25,10.487L72,7.661L72.75,5.605L73.5,4.121L74.25,3.055L75,2.293L75.75,1.749L76.5,1.361L77.25,1.085L78,0.89L78.75,0.751L79.5,0.653L80.25,0.588L81,0.577L81.75,0.923L82.5,4.319L83.25,18.175L84,36.86L84.75,51.979L85.5,62.969L86.25,70.809L87,76.381L87.75,80.336L88.5,83.143L89.25,85.135L90,86.548L90.75,87.551L91.5,88.262L92.25,88.767L93,89.125L93.75,89.379L94.5,89.56L95.25,89.688L96,89.778L96.75,89.843L97.5,89.888L98.25,89.921L99,89.944L99.75,89.96L100.5,89.972L101.25,89.98L102,89.986L102.75,89.99L103.5,89.993L104.25,89.995L105,89.996L105.75,89.997L106.5,89.998L107.25,89.998L108,89.997L108.75,89.996L109.5,89.993L110.25,89.987L111,89.975L111.75,89.952L112.5,89.908" stroke="#6626bb" stroke-width="2"/></g></g><path class="foreground" aria-hidden="true" d="" display="none"/></g><g transform="translate(0,0)"><path class="background" aria-hidden="true" d="M0,0h120v90h-120Z"/><g><g class="mark-line role-mark layer_0_marks" role="graphics-object" aria-roledescription="line mark container"><path aria-label="t: 0; M: 0.000001; gene: Gene 2" role="graphics-symbol" aria-roledescription="line mark" d="M0,90L0.75,77.253L1.5,76.808L2.25,80.225L3,83.015L3.75,85.034L4.5,86.474L5.25,87.497L6,88.224L6.75,88.74L7.5,89.106L8.25,89.365L9,89.55L9.75,89.68L10.5,89.773L11.25,89.839L12,89.886L12.75,89.919L13.5,89.942L14.25,89.959L15,89.971L15.75,89.979L16.5,89.985L17.25,89.989L18,89.992L18.75,89.993L19.5,89.993L20.25,89.992L21,89.989L21.75,89.981L22.5,89.965L23.25,89.935L24,89.875L24.75,89.758L25.5,89.532L26.25,89.091L27,88.245L27.75,86.655L28.5,83.785L29.25,78.963L30,71.691L30.75,62.153L31.5,51.388L32.25,40.77L33,31.338L33.75,23.558L34.5,17.452L35.25,12.814L36,9.368L36.75,6.845L37.5,5.015L38.25,3.697L39,2.751L39.75,2.076L40.5,1.594L41.25,1.251L42,1.007L42.75,0.834L43.5,0.711L44.25,0.626L45,0.575L45.75,0.624L46.5,1.514L47.25,8.225L48,25.509L48.75,43.208L49.5,56.643L50.25,66.303L51,73.18L51.75,78.064L52.5,81.531L53.25,83.991L54,85.736L54.75,86.975L55.5,87.854L56.25,88.477L57,88.92L57.75,89.233L58.5,89.456L59.25,89.614L60,89.726L60.75,89.806L61.5,89.862L62.25,89.902L63,89.931L63.75,89.951L64.5,89.965L65.25,89.975L66,89.982L66.75,89.987L67.5,89.991L68.25,89.994L69,89.995L69.75,89.997L70.5,89.997L71.25,89.998L72,89.997L72.75,89.997L73.5,89.995L74.25,89.991L75,89.983L75.75,89.968L76.5,89.939L77.25,89.882L78,89.77L78.75,89.553L79.5,89.13L80.25,88.316L81,86.78L81.75,83.999L82.5,79.299L83.25,72.158L84,62.715L84.75,51.973L85.5,41.31L86.25,31.796L87,23.923L87.75,17.732L88.5,13.024L89.25,9.522L90,6.957L90.75,5.096L91.5,3.754L92.25,2.793L93,2.105L93.75,1.615L94.5,1.266L95.25,1.018L96,0.842L96.75,0.717L97.5,0.629L98.25,0.575L99,0.609L99.75,1.35L100.5,7.279L101.25,24.027L102,41.989L102.75,55.755L103.5,65.669L104.25,72.729L105,77.744L105.75,81.304L106.5,83.83L107.25,85.622L108,86.894L108.75,87.796L109.5,88.436L110.25,88.891L111,89.213L111.75,89.442L112.5,89.604" stroke="#048059" stroke-width="2"/></g></g><path class="foreground" aria-hidden="true" d="" display="none"/></g></g><g class="mark-group role-scope layer_1_pathgroup" role="graphics-object" aria-roledescription="group mark container"><g transform="translate(0,0)"><path class="background" aria-hidden="true" d="M0,0h120v90h-120Z"/><g><g class="mark-line role-mark layer_1_marks" role="graphics-object" aria-roledescription="line mark container"><path aria-label="t: 0; M: 0.000001; gene: Gene 1" role="graphics-symbol" aria-roledescription="line mark" d="M0,90L0.75,74.652L1.5,59.835L2.25,46.472L3,35.213L3.75,26.219L4.5,19.301L5.25,14.113L6,10.292L6.75,7.509L7.5,5.501L8.25,4.063L9,3.046L9.75,2.362L10.5,2.075L11.25,3.079L12,9.983L12.75,26.512L13.5,43.741L14.25,56.984L15,66.537L15.75,73.344L16.5,78.18L17.25,81.613L18,84.049L18.75,85.777L19.5,87.004L20.25,87.874L21,88.492L21.75,88.93L22.5,89.241L23.25,89.461L24,89.618L24.75,89.729L25.5,89.808L26.25,89.863L27,89.903L27.75,89.931L28.5,89.951L29.25,89.965L30,89.975L30.75,89.982L31.5,89.988L32.25,89.991L33,89.994L33.75,89.995L34.5,89.997L35.25,89.997L36,89.997L36.75,89.997L37.5,89.996L38.25,89.993L39,89.988L39.75,89.978L40.5,89.959L41.25,89.921L42,89.847L42.75,89.703L43.5,89.422L44.25,88.877L45,87.835L45.75,85.894L46.5,82.456L47.25,76.856L48,68.764L48.75,58.667L49.5,47.797L50.25,37.48L51,28.567L51.75,21.353L52.5,15.762L53.25,11.551L54,8.44L54.75,6.17L55.5,4.527L56.25,3.347L57,2.501L57.75,1.897L58.5,1.467L59.25,1.161L60,0.943L60.75,0.788L61.5,0.679L62.25,0.604L63,0.569L63.75,0.717L64.5,2.509L65.25,12.747L66,31.336L66.75,47.807L67.5,59.972L68.25,68.676L69,74.866L69.75,79.261L70.5,82.38L71.25,84.593L72,86.164L72.75,87.278L73.5,88.069L74.25,88.63L75,89.028L75.75,89.31L76.5,89.511L77.25,89.653L78,89.754L78.75,89.825L79.5,89.876L80.25,89.912L81,89.938L81.75,89.956L82.5,89.968L83.25,89.978L84,89.984L84.75,89.989L85.5,89.992L86.25,89.994L87,89.996L87.75,89.997L88.5,89.997L89.25,89.998L90,89.997L90.75,89.996L91.5,89.994L92.25,89.989L93,89.979L93.75,89.961L94.5,89.925L95.25,89.855L96,89.718L96.75,89.451L97.5,88.933L98.25,87.941L99,86.088L99.75,82.79L100.5,77.374L101.25,69.468L102,59.487L102.75,48.626L103.5,38.229L104.25,29.192L105,21.847L105.75,16.139L106.5,11.832L107.25,8.646L108,6.319L108.75,4.635L109.5,3.424L110.25,2.556L111,1.937L111.75,1.495L112.5,1.181" stroke="#f462a3" stroke-width="2" stroke-dasharray="4,4"/></g></g><path class="foreground" aria-hidden="true" d="" display="none"/></g><g transform="translate(0,0)"><path class="background" aria-hidden="true" d="M0,0h120v90h-120Z"/><g><g class="mark-line role-mark layer_1_marks" role="graphics-object" aria-roledescription="line mark container"><path aria-label="t: 0; M: 0.000001; gene: Gene 3" role="graphics-symbol" aria-roledescription="line mark" d="M0,90L0.75,89.996L1.5,89.992L2.25,89.987L3,89.981L3.75,89.972L4.5,89.957L5.25,89.931L6,89.884L6.75,89.799L7.5,89.644L8.25,89.356L9,88.82L9.75,87.829L10.5,86.029L11.25,82.887L12,77.769L12.75,70.27L13.5,60.668L14.25,50.016L15,39.62L15.75,30.437L16.5,22.88L17.25,16.955L18,12.455L18.75,9.111L19.5,6.661L20.25,4.884L21,3.604L21.75,2.686L22.5,2.029L23.25,1.561L24,1.228L24.75,0.991L25.5,0.823L26.25,0.705L27,0.626L27.75,0.615L28.5,1.027L29.25,4.884L30,19.392L30.75,37.958L31.5,52.79L32.25,63.549L33,71.222L33.75,76.674L34.5,80.544L35.25,83.291L36,85.24L36.75,86.622L37.5,87.604L38.25,88.3L39,88.794L39.75,89.144L40.5,89.393L41.25,89.569L42,89.694L42.75,89.783L43.5,89.846L44.25,89.891L45,89.922L45.75,89.945L46.5,89.961L47.25,89.972L48,89.98L48.75,89.986L49.5,89.99L50.25,89.993L51,89.995L51.75,89.996L52.5,89.997L53.25,89.998L54,89.998L54.75,89.997L55.5,89.995L56.25,89.992L57,89.986L57.75,89.974L58.5,89.95L59.25,89.903L60,89.813L60.75,89.636L61.5,89.291L62.25,88.624L63,87.357L63.75,85.026L64.5,80.988L65.25,74.623L66,65.818L66.75,55.331L67.5,44.505L68.25,34.558L69,26.16L69.75,19.466L70.5,14.33L71.25,10.487L72,7.661L72.75,5.605L73.5,4.121L74.25,3.055L75,2.293L75.75,1.749L76.5,1.361L77.25,1.085L78,0.89L78.75,0.751L79.5,0.653L80.25,0.588L81,0.577L81.75,0.923L82.5,4.319L83.25,18.175L84,36.86L84.75,51.979L85.5,62.969L86.25,70.809L87,76.381L87.75,80.336L88.5,83.143L89.25,85.135L90,86.548L90.75,87.551L91.5,88.262L92.25,88.767L93,89.125L93.75,89.379L94.5,89.56L95.25,89.688L96,89.778L96.75,89.843L97.5,89.888L98.25,89.921L99,89.944L99.75,89.96L100.5,89.972L101.25,89.98L102,89.986L102.75,89.99L103.5,89.993L104.25,89.995L105,89.996L105.75,89.997L106.5,89.998L107.25,89.998L108,89.997L108.75,89.996L109.5,89.993L110.25,89.987L111,89.975L111.75,89.952L112.5,89.908" stroke="#f462a3" stroke-width="2" stroke-dasharray="4,4"/></g></g><path class="foreground" aria-hidden="true" d="" display="none"/></g><g transform="translate(0,0)"><path class="background" aria-hidden="true" d="M0,0h120v90h-120Z"/><g><g class="mark-line role-mark layer_1_marks" role="graphics-object" aria-roledescription="line mark container"><path aria-label="t: 0; M: 0.000001; gene: Gene 2" role="graphics-symbol" aria-roledescription="line mark" d="M0,90L0.75,77.253L1.5,76.808L2.25,80.225L3,83.015L3.75,85.034L4.5,86.474L5.25,87.497L6,88.224L6.75,88.74L7.5,89.106L8.25,89.365L9,89.55L9.75,89.68L10.5,89.773L11.25,89.839L12,89.886L12.75,89.919L13.5,89.942L14.25,89.959L15,89.971L15.75,89.979L16.5,89.985L17.25,89.989L18,89.992L18.75,89.993L19.5,89.993L20.25,89.992L21,89.989L21.75,89.981L22.5,89.965L23.25,89.935L24,89.875L24.75,89.758L25.5,89.532L26.25,89.091L27,88.245L27.75,86.655L28.5,83.785L29.25,78.963L30,71.691L30.75,62.153L31.5,51.388L32.25,40.77L33,31.338L33.75,23.558L34.5,17.452L35.25,12.814L36,9.368L36.75,6.845L37.5,5.015L38.25,3.697L39,2.751L39.75,2.076L40.5,1.594L41.25,1.251L42,1.007L42.75,0.834L43.5,0.711L44.25,0.626L45,0.575L45.75,0.624L46.5,1.514L47.25,8.225L48,25.509L48.75,43.208L49.5,56.643L50.25,66.303L51,73.18L51.75,78.064L52.5,81.531L53.25,83.991L54,85.736L54.75,86.975L55.5,87.854L56.25,88.477L57,88.92L57.75,89.233L58.5,89.456L59.25,89.614L60,89.726L60.75,89.806L61.5,89.862L62.25,89.902L63,89.931L63.75,89.951L64.5,89.965L65.25,89.975L66,89.982L66.75,89.987L67.5,89.991L68.25,89.994L69,89.995L69.75,89.997L70.5,89.997L71.25,89.998L72,89.997L72.75,89.997L73.5,89.995L74.25,89.991L75,89.983L75.75,89.968L76.5,89.939L77.25,89.882L78,89.77L78.75,89.553L79.5,89.13L80.25,88.316L81,86.78L81.75,83.999L82.5,79.299L83.25,72.158L84,62.715L84.75,51.973L85.5,41.31L86.25,31.796L87,23.923L87.75,17.732L88.5,13.024L89.25,9.522L90,6.957L90.75,5.096L91.5,3.754L92.25,2.793L93,2.105L93.75,1.615L94.5,1.266L95.25,1.018L96,0.842L96.75,0.717L97.5,0.629L98.25,0.575L99,0.609L99.75,1.35L100.5,7.279L101.25,24.027L102,41.989L102.75,55.755L103.5,65.669L104.25,72.729L105,77.744L105.75,81.304L106.5,83.83L107.25,85.622L108,86.894L108.75,87.796L109.5,88.436L110.25,88.891L111,89.213L111.75,89.442L112.5,89.604" stroke="#f462a3" stroke-width="2" stroke-dasharray="4,4"/></g></g><path class="foreground" aria-hidden="true" d="" display="none"/></g></g></g><path class="foreground" aria-hidden="true" d="" display="none"/></g></g></g></svg>