<svg xmlns="http://www.w3.org/2000/svg" xmlns:xlink="http://www.w3.org/1999/xlink" version="1.1" class="marks" width="163" height="120" viewBox="0 0 163 120"><rect width="163" height="120" fill="white"/><g fill="none" stroke-miterlimit="10" transform="translate(37,10)"><g class="mark-group role-frame root" role="graphics-object" aria-roledescription="group mark container"><g transform="translate(0,0)"><path class="background" aria-hidden="true" d="M0.5,0.5h120v90h-120Z"/><g><g class="mark-group role-axis" role="graphics-symbol" aria-roledescription="axis" aria-label="X-axis for a linear scale with values from 0 to 160"><g transform="translate(0.5,90.5)"><path class="background" aria-hidden="true" d="M0,0h0v0h0Z" pointer-events="none"/><g><g class="mark-rule role-axis-tick" pointer-events="none"><line transform="translate(0,0)" x2="0" y2="3" stroke="black" stroke-width="1" opacity="1"/><line transform="translate(38,0)" x2="0" y2="3" stroke="black" stroke-width="1" opacity="1"/><line transform="translate(75,0)" x2="0" y2="3" stroke="black" stroke-width="1" opacity="1"/><line transform="translate(113,0)" x2="0" y2="3" stroke="black" stroke-width="1" opacity="1"/></g><g class="mark-text role-axis-label" pointer-events="none"><text text-anchor="start" transform="translate(0,13)" font-family="Arial" font-size="10px" fill="#000" opacity="1">0</text><text text-anchor="middle" transform="translate(37.5,13)" font-family="Arial" font-size="10px" fill="#000" opacity="1">50</text><text text-anchor="middle" transform="translate(75,13)" font-family="Arial" font-size="10px" fill="#000" opacity="1">100</text><text text-anchor="middle" transform="translate(112.5,13)" font-family="Arial" font-size="10px" fill="#000" opacity="1">150</text></g><g class="mark-rule role-axis-domain" pointer-events="none"><line transform="translate(0,0)" x2="120" y2="0" stroke="black" stroke-width="1" opacity="1"/></g></g><path class="foreground" aria-hidden="true" d="" pointer-events="none" display="none"/></g></g><g class="mark-group role-axis" role="graphics-symbol" aria-roledescription="axis" aria-label="Y-axis titled 'mRNA' for a linear scale with values from 0 to 10"><g transform="translate(0.5,0.5)"><path class="background" aria-hidden="true" d="M0,0h0v0h0Z" pointer-events="none"/><g><g class="mark-rule role-axis-tick" pointer-events="none"><line transform="translate(0,90)" x2="-3" y2="0" stroke="black" stroke-width="1" opacity="1"/><line transform="translate(0,45)" x2="-3" y2="0" stroke="black" stroke-width="1" opacity="1"/><line transform="translate(0,0)" x2="-3" y2="0" stroke="black" stroke-width="1" opacity="1"/></g><g class="mark-text role-axis-label" pointer-events="none"><text text-anchor="end" transform="translate(-5,93)" font-family="Arial" font-size="10px" fill="#000" opacity="1">0</text><text text-anchor="end" transform="translate(-5,48)" font-family="Arial" font-size="10px" fill="#000" opacity="1">5</text><text text-anchor="end" transform="translate(-5,3)" font-family="Arial" font-size="10px" fill="#000" opacity="1">10</text></g><g class="mark-rule role-axis-domain" pointer-events="none"><line transform="translate(0,90)" x2="0" y2="-90" stroke="black" stroke-width="1" opacity="1"/></g><g class="mark-text role-axis-title" pointer-events="none"><text text-anchor="middle" transform="translate(-20.123046875,45) rotate(-90) translate(0,-2)" font-family="Arial" font-size="11px" font-weight="normal" fill="#000" opacity="1">mRNA</text></g></g><path class="foreground" aria-hidden="true" d="" pointer-events="none" display="none"/></g></g><g class="mark-group role-scope layer_0_pathgroup" role="graphics-object" aria-roledescription="group mark container"><g transform="translate(0,0)"><path class="background" aria-hidden="true" d="M0,0h120v90h-120Z"/><g><g class="mark-line role-mark layer_0_marks" role="graphics-object" aria-roledescription="line mark container"><path aria-label="t: 0; M: 0.000001; gene: Gene 1" role="graphics-symbol" aria-roledescription="line mark" d="M0,90L0.75,72.996L1.5,58.602L2.25,46.596L3,36.8L3.75,29.009L4.5,23.009L5.25,18.617L6,15.71L6.75,14.24L7.5,14.242L8.25,15.824L9,19.112L9.75,24.153L10.5,30.78L11.25,38.537L12,46.753L12.75,54.733L13.5,61.951L14.25,68.124L15,73.187L15.75,77.214L16.5,80.345L17.25,82.741L18,84.554L18.75,85.914L19.5,86.929L20.25,87.684L21,88.243L21.75,88.656L22.5,88.961L23.25,89.186L24,89.35L24.75,89.469L25.5,89.553L26.25,89.61L27,89.643L27.75,89.657L28.5,89.652L29.25,89.627L30,89.579L30.75,89.506L31.5,89.398L32.25,89.247L33,89.036L33.75,88.748L34.5,88.353L35.25,87.815L36,87.083L36.75,86.094L37.5,84.767L38.25,83.001L39,80.682L39.75,77.689L40.5,73.913L41.25,69.278L42,63.773L42.75,57.48L43.5,50.579L44.25,43.336L45,36.063L45.75,29.072L46.5,22.631L47.25,16.943L48,12.148L48.75,8.334L49.5,5.581L50.25,3.991L51,3.739L51.75,5.099L52.5,8.415L53.25,13.959L54,21.673L54.75,30.986L55.5,40.927L56.25,50.502L57,59.016L57.75,66.156L58.5,71.899L59.25,76.386L60,79.822L60.75,82.418L61.5,84.36L62.25,85.803L63,86.87L63.75,87.657L64.5,88.236L65.25,88.662L66,88.975L66.75,89.204L67.5,89.372L68.25,89.494L69,89.581L69.75,89.642L70.5,89.68L71.25,89.701L72,89.705L72.75,89.693L73.5,89.663L74.25,89.612L75,89.536L75.75,89.427L76.5,89.275L77.25,89.065L78,88.776L78.75,88.381L79.5,87.842L80.25,87.108L81,86.116L81.75,84.782L82.5,83.005L83.25,80.671L84,77.657L84.75,73.852L85.5,69.182L86.25,63.637L87,57.301L87.75,50.358L88.5,43.078L89.25,35.775L90,28.76L90.75,22.302L91.5,16.601L92.25,11.791L93,7.958L93.75,5.173L94.5,3.532L95.25,3.203L96,4.451L96.75,7.625L97.5,13.018L98.25,20.614L99,29.886L99.75,39.875L100.5,49.568L101.25,58.234L102,65.527L102.75,71.409L103.5,76.012L104.25,79.541L105,82.209L105.75,84.205L106.5,85.689L107.25,86.786L108,87.596L108.75,88.192L109.5,88.63L110.25,88.951L111,89.187L111.75,89.36L112.5,89.485" stroke="#1657a8" stroke-width="2"/></g></g><path class="foreground" aria-hidden="true" d="" display="none"/></g><g transform="translate(0,0)"><path class="background" aria-hidden="true" d="M0,0h120v90h-120Z"/><g><g class="mark-line role-mark layer_0_marks" role="graphics-object" aria-roledescription="line mark container"><path aria-label="t: 0; M: 0.000001; gene: Gene 3" role="graphics-symbol" aria-roledescription="line mark" d="M0,90L0.75,89.636L1.5,89.303L2.25,89.028L3,88.791L3.75,88.557L4.5,88.292L5.25,87.962L6,87.531L6.75,86.959L7.5,86.194L8.25,85.173L9,83.82L9.75,82.042L10.5,79.734L11.25,76.787L12,73.103L12.75,68.618L13.5,63.327L14.25,57.309L15,50.733L15.75,43.849L16.5,36.952L17.25,30.343L18,24.288L18.75,19.004L19.5,14.656L20.25,11.38L21,9.32L21.75,8.664L22.5,9.671L23.25,12.643L24,17.79L24.75,25.015L25.5,33.759L26.25,43.113L27,52.153L27.75,60.226L28.5,67.023L29.25,72.511L30,76.815L30.75,80.121L31.5,82.625L32.25,84.502L33,85.9L33.75,86.936L34.5,87.702L35.25,88.266L36,88.681L36.75,88.987L37.5,89.211L38.25,89.374L39,89.493L39.75,89.578L40.5,89.636L41.25,89.672L42,89.69L42.75,89.69L43.5,89.673L44.25,89.637L45,89.578L45.75,89.491L46.5,89.367L47.25,89.195L48,88.957L48.75,88.632L49.5,88.187L50.25,87.581L51,86.758L51.75,85.648L52.5,84.16L53.25,82.189L54,79.615L54.75,76.318L55.5,72.198L56.25,67.201L57,61.352L57.75,54.77L58.5,47.675L59.25,40.357L60,33.137L60.75,26.312L61.5,20.126L62.25,14.756L63,10.314L63.75,6.878L64.5,4.525L65.25,3.376L66,3.636L66.75,5.611L67.5,9.648L68.25,15.949L69,24.303L69.75,33.976L70.5,43.94L71.25,53.269L72,61.389L72.75,68.094L73.5,73.43L74.25,77.568L75,80.72L75.75,83.093L76.5,84.863L77.25,86.176L78,87.146L78.75,87.86L79.5,88.386L80.25,88.772L81,89.056L81.75,89.264L82.5,89.416L83.25,89.525L84,89.603L84.75,89.657L85.5,89.69L86.25,89.705L87,89.704L87.75,89.687L88.5,89.651L89.25,89.593L90,89.508L90.75,89.388L91.5,89.221L92.25,88.99L93,88.673L93.75,88.24L94.5,87.649L95.25,86.847L96,85.763L96.75,84.31L97.5,82.382L98.25,79.86L99,76.623L99.75,72.568L100.5,67.637L101.25,61.845L102,55.306L102.75,48.233L103.5,40.911L104.25,33.661L105,26.785L105.75,20.532L106.5,15.081L107.25,10.551L108,7.018L108.75,4.557L109.5,3.28L110.25,3.38L111,5.156L111.75,8.958L112.5,15.018" stroke="#6626bb" stroke-width="2"/></g></g><path class="foreground" aria-hidden="true" d="" display="none"/></g><g transform="translate(0,0)"><path class="background" aria-hidden="true" d="M0,0h120v90h-120Z"/><g><g class="mark-line role-mark layer_0_marks" role="graphics-object" aria-roledescription="line mark container"><path aria-label="t: 0; M: 0.000001; gene: Gene 2" role="graphics-symbol" aria-roledescription="line mark" d="M0,90L0.75,74.495L1.5,69.472L2.25,71.565L3,75.301L3.75,78.77L4.5,81.57L5.25,83.719L6,85.331L6.75,86.525L7.5,87.403L8.25,88.046L9,88.516L9.75,88.856L10.5,89.102L11.25,89.276L12,89.396L12.75,89.474L13.5,89.517L14.25,89.531L15,89.516L15.75,89.471L16.5,89.393L17.25,89.274L18,89.103L18.75,88.865L19.5,88.537L20.25,88.089L21,87.479L21.75,86.654L22.5,85.544L23.25,84.062L24,82.104L24.75,79.554L25.5,76.296L26.25,72.232L27,67.309L27.75,61.548L28.5,55.067L29.25,48.077L30,40.863L30.75,33.738L31.5,27.001L32.25,20.897L33,15.609L33.75,11.262L34.5,7.948L35.25,5.766L36,4.863L36.75,5.471L37.5,7.907L38.25,12.482L39,19.284L39.75,27.945L40.5,37.625L41.25,47.31L42,56.179L42.75,63.778L43.5,69.986L44.25,74.89L45,78.675L45.75,81.55L46.5,83.709L47.25,85.318L48,86.51L48.75,87.391L49.5,88.04L50.25,88.517L51,88.868L51.75,89.125L52.5,89.314L53.25,89.451L54,89.55L54.75,89.62L55.5,89.666L56.25,89.693L57,89.702L57.75,89.696L58.5,89.671L59.25,89.628L60,89.56L60.75,89.462L61.5,89.324L62.25,89.133L63,88.871L63.75,88.511L64.5,88.019L65.25,87.351L66,86.444L66.75,85.222L67.5,83.591L68.25,81.438L69,78.641L69.75,75.086L70.5,70.682L71.25,65.397L72,59.287L72.75,52.504L73.5,45.296L74.25,37.967L75,30.837L75.75,24.189L76.5,18.245L77.25,13.157L78,9.025L78.75,5.919L79.5,3.925L80.25,3.183L81,3.931L81.75,6.498L82.5,11.217L83.25,18.192L84,27.052L84.75,36.937L85.5,46.807L86.25,55.824L87,63.535L87.75,69.822L88.5,74.78L89.25,78.603L90,81.502L90.75,83.678L91.5,85.298L92.25,86.497L93,87.383L93.75,88.035L94.5,88.515L95.25,88.867L96,89.125L96.75,89.315L97.5,89.452L98.25,89.552L99,89.622L99.75,89.669L100.5,89.696L101.25,89.707L102,89.701L102.75,89.679L103.5,89.637L104.25,89.572L105,89.478L105.75,89.345L106.5,89.161L107.25,88.907L108,88.56L108.75,88.085L109.5,87.439L110.25,86.563L111,85.381L111.75,83.8L112.5,81.711" stroke="#048059" stroke-width="2"/></g></g><path class="foreground" aria-hidden="true" d="" display="none"/></g></g><g class="mark-group role-scope layer_1_pathgroup" role="graphics-object" aria-roledescription="group mark container"><g transform="translate(0,0)"><path class="background" aria-hidden="true" d="M0,0h120v90h-120Z"/><g><g class="mark-line role-mark layer_1_marks" role="graphics-object" aria-roledescription="line mark container"><path aria-label="t: 0; M: 0.000001; gene: Gene 1" role="graphics-symbol" aria-roledescription="line mark" d="M0,90L0.75,72.996L1.5,58.602L2.25,46.596L3,36.8L3.75,29.009L4.5,23.009L5.25,18.617L6,15.71L6.75,14.24L7.5,14.242L8.25,15.824L9,19.112L9.75,24.153L10.5,30.78L11.25,38.537L12,46.753L12.75,54.733L13.5,61.951L14.25,68.124L15,73.187L15.75,77.214L16.5,80.345L17.25,82.741L18,84.554L18.75,85.914L19.5,86.929L20.25,87.684L21,88.243L21.75,88.656L22.5,88.961L23.25,89.186L24,89.35L24.75,89.469L25.5,89.553L26.25,89.61L27,89.643L27.75,89.657L28.5,89.652L29.25,89.627L30,89.579L30.75,89.506L31.5,89.398L32.25,89.247L33,89.036L33.75,88.748L34.5,88.353L35.25,87.815L36,87.083L36.75,86.094L37.5,84.767L38.25,83.001L39,80.682L39.75,77.689L40.5,73.913L41.25,69.278L42,63.773L42.75,57.48L43.5,50.579L44.25,43.336L45,36.063L45.75,29.072L46.5,22.631L47.25,16.943L48,12.148L48.75,8.334L49.5,5.581L50.25,3.991L51,3.739L51.75,5.099L52.5,8.415L53.25,13.959L54,21.673L54.75,30.986L55.5,40.927L56.25,50.502L57,59.016L57.75,66.156L58.5,71.899L59.25,76.386L60,79.822L60.75,82.418L61.5,84.36L62.25,85.803L63,86.87L63.75,87.657L64.5,88.236L65.25,88.662L66,88.975L66.75,89.204L67.5,89.372L68.25,89.494L69,89.581L69.75,89.642L70.5,89.68L71.25,89.701L72,89.705L72.75,89.693L73.5,89.663L74.25,89.612L75,89.536L75.75,89.427L76.5,89.275L77.25,89.065L78,88.776L78.75,88.381L79.5,87.842L80.25,87.108L81,86.116L81.75,84.782L82.5,83.005L83.25,80.671L84,77.657L84.75,73.852L85.5,69.182L86.25,63.637L87,57.301L87.75,50.358L88.5,43.078L89.25,35.775L90,28.76L90.75,22.302L91.5,16.601L92.25,11.791L93,7.958L93.75,5.173L94.5,3.532L95.25,3.203L96,4.451L96.75,7.625L97.5,13.018L98.25,20.614L99,29.886L99.75,39.875L100.5,49.568L101.25,58.234L102,65.527L102.75,71.409L103.5,76.012L104.25,79.541L105,82.209L105.75,84.205L106.5,85.689L107.25,86.786L108,87.596L108.75,88.192L109.5,88.63L110.25,88.951L111,89.187L111.75,89.36L112.5,89.485" stroke="#f462a3" stroke-width="2" stroke-dasharray="4,4"/></g></g><path class="foreground" aria-hidden="true" d="" display="none"/></g><g transform="translate(0,0)"><path class="background" aria-hidden="true" d="M0,0h120v90h-120Z"/><g><g class="mark-line role-mark layer_1_marks" role="graphics-object" aria-roledescription="line mark container"><path aria-label="t: 0; M: 0.000001; gene: Gene 3" role="graphics-symbol" aria-roledescription="line mark" d="M0,90L0.75,89.636L1.5,89.303L2.25,89.028L3,88.791L3.75,88.557L4.5,88.292L5.25,87.962L6,87.531L6.75,86.959L7.5,86.194L8.25,85.173L9,83.82L9.75,82.042L10.5,79.734L11.25,76.787L12,73.103L12.75,68.618L13.5,63.327L14.25,57.309L15,50.733L15.75,43.849L16.5,36.952L17.25,30.343L18,24.288L18.75,19.004L19.5,14.656L20.25,11.38L21,9.32L21.75,8.664L22.5,9.671L23.25,12.643L24,17.79L24.75,25.015L25.5,33.759L26.25,43.113L27,52.153L27.75,60.226L28.5,67.023L29.25,72.511L30,76.815L30.75,80.121L31.5,82.625L32.25,84.502L33,85.9L33.75,86.936L34.5,87.702L35.25,88.266L36,88.681L36.75,88.987L37.5,89.211L38.25,89.374L39,89.493L39.75,89.578L40.5,89.636L41.25,89.672L42,89.69L42.75,89.69L43.5,89.673L44.25,89.637L45,89.578L45.75,89.491L46.5,89.367L47.25,89.195L48,88.957L48.75,88.632L49.5,88.187L50.25,87.581L51,86.758L51.75,85.648L52.5,84.16L53.25,82.189L54,79.615L54.75,76.318L55.5,72.198L56.25,67.201L57,61.352L57.75,54.77L58.5,47.675L59.25,40.357L60,33.137L60.75,26.312L61.5,20.126L62.25,14.756L63,10.314L63.75,6.878L64.5,4.525L65.25,3.376L66,3.636L66.75,5.611L67.5,9.648L68.25,15.949L69,24.303L69.75,33.976L70.5,43.94L71.25,53.269L72,61.389L72.75,68.094L73.5,73.43L74.25,77.568L75,80.72L75.75,83.093L76.5,84.863L77.25,86.176L78,87.146L78.75,87.86L79.5,88.386L80.25,88.772L81,89.056L81.75,89.264L82.5,89.416L83.25,89.525L84,89.603L84.75,89.657L85.5,89.69L86.25,89.705L87,89.704L87.75,89.687L88.5,89.651L89.25,89.593L90,89.508L90.75,89.388L91.5,89.221L92.25,88.99L93,88.673L93.75,88.24L94.5,87.649L95.25,86.847L96,85.763L96.75,84.31L97.5,82.382L98.25,79.86L99,76.623L99.75,72.568L100.5,67.637L101.25,61.845L102,55.306L102.75,48.233L103.5,40.911L104.25,33.661L105,26.785L105.75,20.532L106.5,15.081L107.25,10.551L108,7.018L108.75,4.557L109.5,3.28L110.25,3.38L111,5.156L111.75,8.958L112.5,15.018" stroke="#f462a3" stroke-width="2" stroke-dasharray="4,4"/></g></g><path class="foreground" aria-hidden="true" d="" display="none"/></g><g transform="translate(0,0)"><path class="background" aria-hidden="true" d="M0,0h120v90h-120Z"/><g><g class="mark-line role-mark layer_1_marks" role="graphics-object" aria-roledescription="line mark container"><path aria-label="t: 0; M: 0.000001; gene: Gene 2" role="graphics-symbol" aria-roledescription="line mark" d="M0,90L0.75,74.495L1.5,69.472L2.25,71.565L3,75.301L3.75,78.77L4.5,81.57L5.25,83.719L6,85.331L6.75,86.525L7.5,87.403L8.25,88.046L9,88.516L9.75,88.856L10.5,89.102L11.25,89.276L12,89.396L12.75,89.474L13.5,89.517L14.25,89.531L15,89.516L15.75,89.471L16.5,89.393L17.25,89.274L18,89.103L18.75,88.865L19.5,88.537L20.25,88.089L21,87.479L21.75,86.654L22.5,85.544L23.25,84.062L24,82.104L24.75,79.554L25.5,76.296L26.25,72.232L27,67.309L27.75,61.548L28.5,55.067L29.25,48.077L30,40.863L30.75,33.738L31.5,27.001L32.25,20.897L33,15.609L33.75,11.262L34.5,7.948L35.25,5.766L36,4.863L36.75,5.471L37.5,7.907L38.25,12.482L39,19.284L39.75,27.945L40.5,37.625L41.25,47.31L42,56.179L42.75,63.778L43.5,69.986L44.25,74.89L45,78.675L45.75,81.55L46.5,83.709L47.25,85.318L48,86.51L48.75,87.391L49.5,88.04L50.25,88.517L51,88.868L51.75,89.125L52.5,89.314L53.25,89.451L54,89.55L54.75,89.62L55.5,89.666L56.25,89.693L57,89.702L57.75,89.696L58.5,89.671L59.25,89.628L60,89.56L60.75,89.462L61.5,89.324L62.25,89.133L63,88.871L63.75,88.511L64.5,88.019L65.25,87.351L66,86.444L66.75,85.222L67.5,83.591L68.25,81.438L69,78.641L69.75,75.086L70.5,70.682L71.25,65.397L72,59.287L72.75,52.504L73.5,45.296L74.25,37.967L75,30.837L75.75,24.189L76.5,18.245L77.25,13.157L78,9.025L78.75,5.919L79.5,3.925L80.25,3.183L81,3.931L81.75,6.498L82.5,11.217L83.25,18.192L84,27.052L84.75,36.937L85.5,46.807L86.25,55.824L87,63.535L87.75,69.822L88.5,74.78L89.25,78.603L90,81.502L90.75,83.678L91.5,85.298L92.25,86.497L93,87.383L93.75,88.035L94.5,88.515L95.25,88.867L96,89.125L96.75,89.315L97.5,89.452L98.25,89.552L99,89.622L99.75,89.669L100.5,89.696L101.25,89.707L102,89.701L102.75,89.679L103.5,89.637L104.25,89.572L105,89.478L105.75,89.345L106.5,89.161L107.25,88.907L108,88.56L108.75,88.085L109.5,87.439L110.25,86.563L111,85.381L111.75,83.8L112.5,81.711" stroke="#f462a3" stroke-width="2" stroke-dasharray="4,4"/></g></g><path class="foreground" aria-hidden="true" d="" display="none"/></g></g></g><path class="foreground" aria-hidden="true" d="" display="none"/></g></g></g></svg>