<svg xmlns="http://www.w3.org/2000/svg" xmlns:xlink="http://www.w3.org/1999/xlink" version="1.1" class="marks" width="247" height="130" viewBox="0 0 247 130"><rect width="247" height="130" fill="white"/><g fill="none" stroke-miterlimit="10" transform="translate(51,5)"><g class="mark-group role-frame root" role="graphics-object" aria-roledescription="group mark container"><g transform="translate(0,0)"><path class="background" aria-hidden="true" d="M0.5,0.5h120v90h-120Z"/><g><g class="mark-group role-axis" role="graphics-symbol" aria-roledescription="axis" aria-label="X-axis titled 'Time (mins)' for a linear scale with values from 0 to 260"><g transform="translate(0.5,90.5)"><path class="background" aria-hidden="true" d="M0,0h0v0h0Z" pointer-events="none"/><g><g class="mark-rule role-axis-tick" pointer-events="none"><line transform="translate(0,0)" x2="0" y2="3" stroke="black" stroke-width="1" opacity="1"/><line transform="translate(46,0)" x2="0" y2="3" stroke="black" stroke-width="1" opacity="1"/><line transform="translate(92,0)" x2="0" y2="3" stroke="black" stroke-width="1" opacity="1"/></g><g class="mark-text role-axis-label" pointer-events="none"><text text-anchor="start" transform="translate(0,13)" font-family="Arial" font-size="10px" fill="#000" opacity="1">0</text><text text-anchor="middle" transform="translate(46.15384615384615,13)" font-family="Arial" font-size="10px" fill="#000" opacity="1">100</text><text text-anchor="middle" transform="translate(92.3076923076923,13)" font-family="Arial" font-size="10px" fill="#000" opacity="1">200</text></g><g class="mark-rule role-axis-domain" pointer-events="none"><line transform="translate(0,0)" x2="120" y2="0" stroke="black" stroke-width="1" opacity="1"/></g><g class="mark-text role-axis-title" pointer-events="none"><text text-anchor="middle" transform="translate(60,28)" font-family="Arial" font-size="11px" font-weight="normal" fill="#000" opacity="1">Time (mins)</text></g></g><path class="foreground" aria-hidden="true" d="" pointer-events="none" display="none"/></g></g><g class="mark-group role-axis" role="graphics-symbol" aria-roledescription="axis" aria-label="Y-axis titled 'Protein 1' for a linear scale with values from 0 to 4,500"><g transform="translate(0.5,0.5)"><path class="background" aria-hidden="true" d="M0,0h0v0h0Z" pointer-events="none"/><g><g class="mark-rule role-axis-tick" pointer-events="none"><line transform="translate(0,90)" x2="-3" y2="0" stroke="black" stroke-width="1" opacity="1"/><line transform="translate(0,50)" x2="-3" y2="0" stroke="black" stroke-width="1" opacity="1"/><line transform="translate(0,10)" x2="-3" y2="0" stroke="black" stroke-width="1" opacity="1"/></g><g class="mark-text role-axis-label" pointer-events="none"><text text-anchor="end" transform="translate(-5,93)" font-family="Arial" font-size="10px" fill="#000" opacity="1">0</text><text text-anchor="end" transform="translate(-5,53)" font-family="Arial" font-size="10px" fill="#000" opacity="1">2,000</text><text text-anchor="end" transform="translate(-5,13.000000000000004)" font-family="Arial" font-size="10px" fill="#000" opacity="1">4,000</text></g><g class="mark-rule role-axis-domain" pointer-events="none"><line transform="translate(0,90)" x2="0" y2="-90" stroke="black" stroke-width="1" opacity="1"/></g><g class="mark-text role-axis-title" pointer-events="none"><text text-anchor="middle" transform="translate(-34.0244140625,45) rotate(-90) translate(0,-2)" font-family="Arial" font-size="11px" font-weight="normal" fill="#000" opacity="1">Protein 1</text></g></g><path class="foreground" aria-hidden="true" d="" pointer-events="none" display="none"/></g></g><g class="mark-group role-scope layer_0_pathgroup" role="graphics-object" aria-roledescription="group mark container"><g transform="translate(0,0)"><path class="background" aria-hidden="true" d="M0,0h120v90h-120Z"/><g><g class="mark-line role-mark layer_0_marks" role="graphics-object" aria-roledescription="line mark container"><path aria-label="Time (mins): 0; Protein 1: 100; Percentile: 5" role="graphics-symbol" aria-roledescription="line mark" d="M0,88L0.462,88.007L0.923,87.196L1.385,85.783L1.846,83.977L2.308,81.944L2.769,79.813L3.231,77.686L3.692,75.639L4.154,73.732L4.615,72.007L5.077,70.501L5.538,69.249L6,68.285L6.462,67.647L6.923,67.373L7.385,67.487L7.846,67.993L8.308,68.86L8.769,70.029L9.231,71.421L9.692,72.951L10.154,74.54L10.615,76.123L11.077,77.65L11.538,79.089L12,80.418L12.462,81.626L12.923,82.712L13.385,83.678L13.846,84.53L14.308,85.276L14.769,85.926L15.231,86.49L15.692,86.975L16.154,87.393L16.615,87.749L17.077,88.052L17.538,88.307L18,88.519L18.462,88.693L18.923,88.832L19.385,88.938L19.846,89.01L20.308,89.05L20.769,89.053L21.231,89.016L21.692,88.932L22.154,88.791L22.615,88.581L23.077,88.287L23.538,87.89L24,87.369L24.462,86.705L24.923,85.877L25.385,84.876L25.846,83.699L26.308,82.356L26.769,80.869L27.231,79.271L27.692,77.605L28.154,75.915L28.615,74.246L29.077,72.644L29.538,71.148L30,69.8L30.462,68.638L30.923,67.706L31.385,67.054L31.846,66.731L32.308,66.783L32.769,67.228L33.231,68.053L33.692,69.206L34.154,70.608L34.615,72.171L35.077,73.809L35.538,75.451L36,77.044L36.462,78.548L36.923,79.94L37.385,81.208L37.846,82.349L38.308,83.364L38.769,84.26L39.231,85.045L39.692,85.73L40.154,86.323L40.615,86.834L41.077,87.274L41.538,87.65L42,87.97L42.462,88.24L42.923,88.465L43.385,88.652L43.846,88.802L44.308,88.918L44.769,89.002L45.231,89.053L45.692,89.07L46.154,89.048L46.615,88.982L47.077,88.864L47.538,88.682L48,88.422L48.462,88.066L48.923,87.594L49.385,86.985L49.846,86.221L50.308,85.285L50.769,84.172L51.231,82.888L51.692,81.449L52.154,79.886L52.615,78.237L53.077,76.547L53.538,74.861L54,73.225L54.462,71.68L54.923,70.266L55.385,69.023L55.846,67.993L56.308,67.221L56.769,66.759L57.231,66.656L57.692,66.942L58.154,67.619L58.615,68.65L59.077,69.965L59.538,71.477L60,73.098L60.462,74.751L60.923,76.374L61.385,77.921L61.846,79.365L62.308,80.687L62.769,81.883L63.231,82.951L63.692,83.897L64.154,84.728L64.615,85.454L65.077,86.084L65.538,86.629L66,87.098L66.462,87.5L66.923,87.842L67.385,88.132L67.846,88.376L68.308,88.579L68.769,88.744L69.231,88.874L69.692,88.972L70.154,89.036L70.615,89.068L71.077,89.063L71.538,89.016L72,88.921L72.462,88.768L72.923,88.543L73.385,88.23L73.846,87.81L74.308,87.262L74.769,86.565L75.231,85.703L75.692,84.666L76.154,83.452L76.615,82.076L77.077,80.561L77.538,78.943L78,77.264L78.462,75.571L78.923,73.908L79.385,72.319L79.846,70.845L80.308,69.525L80.769,68.399L81.231,67.511L81.692,66.911L82.154,66.65L82.615,66.768L83.077,67.282L83.538,68.169L84,69.374L84.462,70.813L84.923,72.399L85.385,74.047L85.846,75.689L86.308,77.273L86.769,78.764L87.231,80.139L87.692,81.389L88.154,82.511L88.615,83.508L89.077,84.387L89.538,85.157L90,85.827L90.462,86.407L90.923,86.907L91.385,87.336L91.846,87.703L92.308,88.015L92.769,88.278L93.231,88.497L93.692,88.678L94.154,88.823L94.615,88.934L95.077,89.013L95.538,89.059L96,89.07L96.462,89.042L96.923,88.968L97.385,88.841L97.846,88.649L98.308,88.375L98.769,88.003L99.231,87.512L99.692,86.882L100.154,86.092L100.615,85.13L101.077,83.99L101.538,82.681L102,81.221L102.462,79.642L102.923,77.984L103.385,76.292L103.846,74.61L104.308,72.985L104.769,71.457L105.231,70.066L105.692,68.852L106.154,67.857L106.615,67.128L107.077,66.717L107.538,66.67L108,67.015L108.462,67.748L108.923,68.826L109.385,70.176L109.846,71.711L110.308,73.341L110.769,74.993L111.231,76.608L111.692,78.141L112.154,79.568L112.615,80.872L113.077,82.048L113.538,83.098L114,84.027L114.462,84.842L114.923,85.553L115.385,86.17" stroke="rgb(68, 58, 131)" stroke-width="2"/></g></g><path class="foreground" aria-hidden="true" d="" display="none"/></g><g transform="translate(0,0)"><path class="background" aria-hidden="true" d="M0,0h120v90h-120Z"/><g><g class="mark-line role-mark layer_0_marks" role="graphics-object" aria-roledescription="line mark container"><path aria-label="Time (mins): 0; Protein 1: 100; Percentile: 25" role="graphics-symbol" aria-roledescription="line mark" d="M0,88L0.462,87.863L0.923,86.556L1.385,84.393L1.846,81.685L2.308,78.678L2.769,75.565L3.231,72.493L3.692,69.572L4.154,66.889L4.615,64.509L5.077,62.492L5.538,60.896L6,59.779L6.462,59.199L6.923,59.197L7.385,59.78L7.846,60.908L8.308,62.493L8.769,64.416L9.231,66.55L9.692,68.775L10.154,70.996L10.615,73.137L11.077,75.151L11.538,77.006L12,78.689L12.462,80.196L12.923,81.533L13.385,82.708L13.846,83.735L14.308,84.626L14.769,85.397L15.231,86.061L15.692,86.63L16.154,87.116L16.615,87.53L17.077,87.881L17.538,88.177L18,88.424L18.462,88.628L18.923,88.793L19.385,88.922L19.846,89.017L20.308,89.077L20.769,89.101L21.231,89.086L21.692,89.024L22.154,88.907L22.615,88.721L23.077,88.447L23.538,88.063L24,87.541L24.462,86.848L24.923,85.949L25.385,84.811L25.846,83.411L26.308,81.736L26.769,79.793L27.231,77.611L27.692,75.235L28.154,72.728L28.615,70.158L29.077,67.596L29.538,65.112L30,62.77L30.462,60.63L30.923,58.751L31.385,57.199L31.846,56.049L32.308,55.387L32.769,55.296L33.231,55.829L33.692,56.98L34.154,58.676L34.615,60.792L35.077,63.181L35.538,65.701L36,68.231L36.462,70.682L36.923,72.991L37.385,75.123L37.846,77.057L38.308,78.79L38.769,80.326L39.231,81.677L39.692,82.856L40.154,83.88L40.615,84.765L41.077,85.526L41.538,86.179L42,86.738L42.462,87.213L42.923,87.617L43.385,87.959L43.846,88.246L44.308,88.486L44.769,88.683L45.231,88.842L45.692,88.967L46.154,89.057L46.615,89.115L47.077,89.137L47.538,89.12L48,89.058L48.462,88.94L48.923,88.755L49.385,88.483L49.846,88.101L50.308,87.581L50.769,86.891L51.231,85.996L51.692,84.861L52.154,83.463L52.615,81.789L53.077,79.845L53.538,77.659L54,75.278L54.462,72.763L54.923,70.183L55.385,67.609L55.846,65.112L56.308,62.753L56.769,60.593L57.231,58.691L57.692,57.109L58.154,55.923L58.615,55.216L59.077,55.074L59.538,55.553L60,56.656L60.462,58.317L60.923,60.413L61.385,62.797L61.846,65.325L62.308,67.873L62.769,70.349L63.231,72.688L63.692,74.849L64.154,76.813L64.615,78.575L65.077,80.138L65.538,81.513L66,82.715L66.462,83.758L66.923,84.66L67.385,85.437L67.846,86.103L68.308,86.673L68.769,87.158L69.231,87.571L69.692,87.92L70.154,88.213L70.615,88.459L71.077,88.661L71.538,88.825L72,88.954L72.462,89.049L72.923,89.111L73.385,89.137L73.846,89.126L74.308,89.07L74.769,88.961L75.231,88.785L75.692,88.526L76.154,88.16L76.615,87.661L77.077,86.995L77.538,86.129L78,85.028L78.462,83.666L78.923,82.028L79.385,80.119L79.846,77.963L80.308,75.604L80.769,73.103L81.231,70.527L81.692,67.948L82.154,65.436L82.615,63.055L83.077,60.865L83.538,58.924L84,57.295L84.462,56.05L84.923,55.273L85.385,55.05L85.846,55.443L86.308,56.465L86.769,58.056L87.231,60.102L87.692,62.456L88.154,64.973L88.615,67.525L89.077,70.016L89.538,72.376L90,74.564L90.462,76.556L90.923,78.345L91.385,79.935L91.846,81.335L92.308,82.56L92.769,83.624L93.231,84.544L93.692,85.337L94.154,86.018L94.615,86.6L95.077,87.096L95.538,87.518L96,87.875L96.462,88.176L96.923,88.428L97.385,88.636L97.846,88.805L98.308,88.938L98.769,89.038L99.231,89.104L99.692,89.136L100.154,89.13L100.615,89.081L101.077,88.979L101.538,88.814L102,88.567L102.462,88.218L102.923,87.738L103.385,87.098L103.846,86.261L104.308,85.194L104.769,83.869L105.231,82.269L105.692,80.396L106.154,78.272L106.615,75.938L107.077,73.452L107.538,70.881L108,68.299L108.462,65.774L108.923,63.371L109.385,61.151L109.846,59.173L110.308,57.497L110.769,56.195L111.231,55.348L111.692,55.045L112.154,55.352L112.615,56.289L113.077,57.808L113.538,59.799L114,62.12L114.462,64.623L114.923,67.177L115.385,69.681" stroke="rgb(49, 104, 142)" stroke-width="2"/></g></g><path class="foreground" aria-hidden="true" d="" display="none"/></g><g transform="translate(0,0)"><path class="background" aria-hidden="true" d="M0,0h120v90h-120Z"/><g><g class="mark-line role-mark layer_0_marks" role="graphics-object" aria-roledescription="line mark container"><path aria-label="Time (mins): 0; Protein 1: 100; Percentile: 50" role="graphics-symbol" aria-roledescription="line mark" d="M0,88L0.462,87.73L0.923,85.965L1.385,83.113L1.846,79.582L2.308,75.697L2.769,71.708L3.231,67.804L3.692,64.129L4.154,60.791L4.615,57.879L5.077,55.473L5.538,53.651L6,52.491L6.462,52.057L6.923,52.381L7.385,53.437L7.846,55.139L8.308,57.347L8.769,59.898L9.231,62.633L9.692,65.412L10.154,68.129L10.615,70.709L11.077,73.102L11.538,75.284L12,77.246L12.462,78.99L12.923,80.526L13.385,81.87L13.846,83.038L14.308,84.048L14.769,84.918L15.231,85.665L15.692,86.304L16.154,86.849L16.615,87.312L17.077,87.704L17.538,88.035L18,88.312L18.462,88.542L18.923,88.73L19.385,88.879L19.846,88.993L20.308,89.072L20.769,89.116L21.231,89.121L21.692,89.082L22.154,88.991L22.615,88.834L23.077,88.595L23.538,88.249L24,87.767L24.462,87.11L24.923,86.236L25.385,85.097L25.846,83.647L26.308,81.852L26.769,79.692L27.231,77.174L27.692,74.332L28.154,71.225L28.615,67.935L29.077,64.553L29.538,61.173L30,57.889L30.462,54.783L30.923,51.934L31.385,49.422L31.846,47.329L32.308,45.758L32.769,44.824L33.231,44.647L33.692,45.305L34.154,46.801L34.615,49.037L35.077,51.842L35.538,55.013L36,58.355L36.462,61.706L36.923,64.943L37.385,67.987L37.846,70.787L38.308,73.323L38.769,75.588L39.231,77.592L39.692,79.349L40.154,80.881L40.615,82.207L41.077,83.352L41.538,84.335L42,85.177L42.462,85.897L42.923,86.509L43.385,87.03L43.846,87.471L44.308,87.844L44.769,88.157L45.231,88.418L45.692,88.635L46.154,88.811L46.615,88.951L47.077,89.056L47.538,89.128L48,89.165L48.462,89.165L48.923,89.121L49.385,89.025L49.846,88.865L50.308,88.621L50.769,88.271L51.231,87.783L51.692,87.119L52.154,86.236L52.615,85.085L53.077,83.621L53.538,81.808L54,79.629L54.462,77.09L54.923,74.226L55.385,71.099L55.846,67.79L56.308,64.392L56.769,60.998L57.231,57.701L57.692,54.584L58.154,51.724L58.615,49.198L59.077,47.087L59.538,45.49L60,44.523L60.462,44.306L60.923,44.923L61.385,46.383L61.846,48.596L62.308,51.393L62.769,54.571L63.231,57.931L63.692,61.309L64.154,64.579L64.615,67.658L65.077,70.494L65.538,73.063L66,75.361L66.462,77.394L66.923,79.178L67.385,80.733L67.846,82.081L68.308,83.244L68.769,84.243L69.231,85.099L69.692,85.83L70.154,86.453L70.615,86.982L71.077,87.431L71.538,87.81L72,88.129L72.462,88.395L72.923,88.616L73.385,88.796L73.846,88.939L74.308,89.048L74.769,89.123L75.231,89.164L75.692,89.168L76.154,89.129L76.615,89.04L77.077,88.887L77.538,88.653L78,88.316L78.462,87.845L78.923,87.202L79.385,86.345L79.846,85.225L80.308,83.797L80.769,82.023L81.231,79.883L81.692,77.382L82.154,74.551L82.615,71.449L83.077,68.155L83.538,64.761L84,61.362L84.462,58.05L84.923,54.909L85.385,52.017L85.846,49.45L86.308,47.288L86.769,45.629L87.231,44.586L87.692,44.28L88.154,44.803L88.615,46.173L89.077,48.309L89.538,51.052L90,54.198L90.462,57.547L90.923,60.931L91.385,64.219L91.846,67.322L92.308,70.187L92.769,72.788L93.231,75.116L93.692,77.178L94.154,78.989L94.615,80.569L95.077,81.939L95.538,83.121L96,84.138L96.462,85.009L96.923,85.753L97.385,86.388L97.846,86.927L98.308,87.384L98.769,87.77L99.231,88.095L99.692,88.367L100.154,88.593L100.615,88.777L101.077,88.925L101.538,89.037L102,89.116L102.462,89.161L102.923,89.17L103.385,89.136L103.846,89.053L104.308,88.908L104.769,88.684L105.231,88.36L105.692,87.906L106.154,87.284L106.615,86.454L107.077,85.366L107.538,83.974L108,82.241L108.462,80.143L108.923,77.681L109.385,74.885L109.846,71.81L110.308,68.533L110.769,65.145L111.231,61.743L111.692,58.416L112.154,55.252L112.615,52.328L113.077,49.72L113.538,47.508L114,45.787L114.462,44.669L114.923,44.274L115.385,44.701" stroke="rgb(33, 145, 141)" stroke-width="2"/></g></g><path class="foreground" aria-hidden="true" d="" display="none"/></g><g transform="translate(0,0)"><path class="background" aria-hidden="true" d="M0,0h120v90h-120Z"/><g><g class="mark-line role-mark layer_0_marks" role="graphics-object" aria-roledescription="line mark container"><path aria-label="Time (mins): 0; Protein 1: 100; Percentile: 75" role="graphics-symbol" aria-roledescription="line mark" d="M0,88L0.462,87.557L0.923,85.198L1.385,81.457L1.846,76.873L2.308,71.875L2.769,66.79L3.231,61.861L3.692,57.27L4.154,53.158L4.615,49.639L5.077,46.819L5.538,44.799L6,43.671L6.462,43.498L6.923,44.284L7.385,45.958L7.846,48.37L8.308,51.325L8.769,54.614L9.231,58.044L9.692,61.462L10.154,64.75L10.615,67.832L11.077,70.664L11.538,73.224L12,75.509L12.462,77.529L12.923,79.3L13.385,80.842L13.846,82.177L14.308,83.329L14.769,84.319L15.231,85.166L15.692,85.889L16.154,86.504L16.615,87.027L17.077,87.47L17.538,87.843L18,88.157L18.462,88.418L18.923,88.634L19.385,88.808L19.846,88.945L20.308,89.046L20.769,89.112L21.231,89.14L21.692,89.128L22.154,89.067L22.615,88.946L23.077,88.751L23.538,88.459L24,88.04L24.462,87.456L24.923,86.659L25.385,85.593L25.846,84.193L26.308,82.398L26.769,80.157L27.231,77.437L27.692,74.238L28.154,70.597L28.615,66.587L29.077,62.308L29.538,57.881L30,53.431L30.462,49.079L30.923,44.94L31.385,41.115L31.846,37.705L32.308,34.819L32.769,32.584L33.231,31.154L33.692,30.696L34.154,31.338L34.615,33.11L35.077,35.906L35.538,39.507L36,43.64L36.462,48.036L36.923,52.468L37.385,56.765L37.846,60.812L38.308,64.541L38.769,67.917L39.231,70.935L39.692,73.603L40.154,75.941L40.615,77.978L41.077,79.741L41.538,81.261L42,82.566L42.462,83.683L42.923,84.637L43.385,85.449L43.846,86.14L44.308,86.725L44.769,87.22L45.231,87.639L45.692,87.99L46.154,88.285L46.615,88.53L47.077,88.731L47.538,88.894L48,89.02L48.462,89.113L48.923,89.172L49.385,89.196L49.846,89.18L50.308,89.116L50.769,88.995L51.231,88.8L51.692,88.51L52.154,88.094L52.615,87.515L53.077,86.724L53.538,85.664L54,84.272L54.462,82.486L54.923,80.251L55.385,77.535L55.846,74.338L56.308,70.694L56.769,66.676L57.231,62.386L57.692,57.942L58.154,53.47L58.615,49.093L59.077,44.921L59.538,41.057L60,37.599L60.462,34.649L60.923,32.331L61.385,30.794L61.846,30.205L62.308,30.703L62.769,32.339L63.231,35.026L63.692,38.559L64.154,42.667L64.615,47.076L65.077,51.55L65.538,55.909L66,60.029L66.462,63.835L66.923,67.29L67.385,70.381L67.846,73.119L68.308,75.521L68.769,77.615L69.231,79.429L69.692,80.993L70.154,82.337L70.615,83.488L71.077,84.471L71.538,85.308L72,86.02L72.462,86.624L72.923,87.135L73.385,87.567L73.846,87.93L74.308,88.235L74.769,88.488L75.231,88.697L75.692,88.867L76.154,89L76.615,89.099L77.077,89.165L77.538,89.196L78,89.187L78.462,89.134L78.923,89.025L79.385,88.846L79.846,88.576L80.308,88.188L80.769,87.644L81.231,86.899L81.692,85.896L82.154,84.574L82.615,82.869L83.077,80.724L83.538,78.103L84,74.998L84.462,71.437L84.923,67.484L85.385,63.238L85.846,58.813L86.308,54.337L86.769,49.932L87.231,45.711L87.692,41.779L88.154,38.233L88.615,35.174L89.077,32.721L89.538,31.017L90,30.228L90.462,30.504L90.923,31.918L91.385,34.411L91.846,37.798L92.308,41.816L92.769,46.186L93.231,50.664L93.692,55.058L94.154,59.233L94.615,63.106L95.077,66.632L95.538,69.796L96,72.603L96.462,75.07L96.923,77.222L97.385,79.089L97.846,80.701L98.308,82.087L98.769,83.274L99.231,84.288L99.692,85.153L100.154,85.888L100.615,86.512L101.077,87.04L101.538,87.487L102,87.863L102.462,88.179L102.923,88.442L103.385,88.659L103.846,88.836L104.308,88.977L104.769,89.082L105.231,89.155L105.692,89.193L106.154,89.192L106.615,89.149L107.077,89.052L107.538,88.888L108,88.638L108.462,88.276L108.923,87.767L109.385,87.065L109.846,86.119L110.308,84.865L110.769,83.241L111.231,81.187L111.692,78.663L112.154,75.653L112.615,72.178L113.077,68.296L113.538,64.099L114,59.7L114.462,55.224L114.923,50.795L115.385,46.529" stroke="rgb(53, 183, 121)" stroke-width="2"/></g></g><path class="foreground" aria-hidden="true" d="" display="none"/></g><g transform="translate(0,0)"><path class="background" aria-hidden="true" d="M0,0h120v90h-120Z"/><g><g class="mark-line role-mark layer_0_marks" role="graphics-object" aria-roledescription="line mark container"><path aria-label="Time (mins): 0; Protein 1: 100; Percentile: 95" role="graphics-symbol" aria-roledescription="line mark" d="M0,88L0.462,87.216L0.923,83.684L1.385,78.201L1.846,71.582L2.308,64.466L2.769,57.332L3.231,50.527L3.692,44.305L4.154,38.859L4.615,34.351L5.077,30.923L5.538,28.708L6,27.802L6.462,28.241L6.923,29.961L7.385,32.793L7.846,36.486L8.308,40.754L8.769,45.321L9.231,49.952L9.692,54.467L10.154,58.739L10.615,62.691L11.077,66.283L11.538,69.503L12,72.356L12.462,74.863L12.923,77.05L13.385,78.946L13.846,80.582L14.308,81.988L14.769,83.193L15.231,84.222L15.692,85.099L16.154,85.844L16.615,86.477L17.077,87.012L17.538,87.464L18,87.844L18.462,88.163L18.923,88.428L19.385,88.647L19.846,88.823L20.308,88.962L20.769,89.064L21.231,89.13L21.692,89.158L22.154,89.144L22.615,89.081L23.077,88.955L23.538,88.75L24,88.442L24.462,87.996L24.923,87.368L25.385,86.499L25.846,85.316L26.308,83.733L26.769,81.655L27.231,78.99L27.692,75.66L28.154,71.62L28.615,66.87L29.077,61.469L29.538,55.527L30,49.198L30.462,42.661L30.923,36.101L31.385,29.698L31.846,23.614L32.308,17.999L32.769,12.999L33.231,8.772L33.692,5.508L34.154,3.445L34.615,2.839L35.077,3.888L35.538,6.632L36,10.898L36.462,16.339L36.923,22.535L37.385,29.082L37.846,35.644L38.308,41.976L38.769,47.915L39.231,53.365L39.692,58.284L40.154,62.667L40.615,66.533L41.077,69.914L41.538,72.852L42,75.391L42.462,77.576L42.923,79.449L43.385,81.051L43.846,82.416L44.308,83.578L44.769,84.565L45.231,85.402L45.692,86.11L46.154,86.709L46.615,87.215L47.077,87.64L47.538,87.998L48,88.296L48.462,88.545L48.923,88.749L49.385,88.914L49.846,89.043L50.308,89.138L50.769,89.2L51.231,89.226L51.692,89.212L52.154,89.152L52.615,89.033L53.077,88.84L53.538,88.549L54,88.127L54.462,87.531L54.923,86.706L55.385,85.578L55.846,84.064L56.308,82.07L56.769,79.501L57.231,76.274L57.692,72.338L58.154,67.685L58.615,62.364L59.077,56.478L59.538,50.175L60,43.632L60.462,37.034L60.923,30.561L61.385,24.378L61.846,18.633L62.308,13.466L62.769,9.024L63.231,5.484L63.692,3.066L64.154,2.026L64.615,2.594L65.077,4.87L65.538,8.749L66,13.928L66.462,19.997L66.923,26.536L67.385,33.183L67.846,39.663L68.308,45.787L68.769,51.441L69.231,56.568L69.692,61.152L70.154,65.206L70.615,68.76L71.077,71.854L71.538,74.532L72,76.839L72.462,78.819L72.923,80.514L73.385,81.959L73.846,83.19L74.308,84.236L74.769,85.123L75.231,85.874L75.692,86.51L76.154,87.047L76.615,87.499L77.077,87.879L77.538,88.198L78,88.463L78.462,88.682L78.923,88.86L79.385,89.002L79.846,89.109L80.308,89.183L80.769,89.222L81.231,89.223L81.692,89.181L82.154,89.085L82.615,88.921L83.077,88.668L83.538,88.298L84,87.771L84.462,87.036L84.923,86.026L85.385,84.663L85.846,82.854L86.308,80.502L86.769,77.521L87.231,73.845L87.692,69.448L88.154,64.359L88.615,58.662L89.077,52.491L89.538,46.013L90,39.413L90.462,32.874L90.923,26.568L91.385,20.647L91.846,15.254L92.308,10.531L92.769,6.64L93.231,3.786L93.692,2.214L94.154,2.177L94.615,3.833L95.077,7.155L95.538,11.906L96,17.702L96.462,24.117L96.923,30.762L97.385,37.33L97.846,43.602L98.308,49.436L98.769,54.759L99.231,59.541L99.692,63.786L100.154,67.519L100.615,70.775L101.077,73.6L101.538,76.037L102,78.132L102.462,79.926L102.923,81.458L103.385,82.764L103.846,83.874L104.308,84.816L104.769,85.615L105.231,86.29L105.692,86.861L106.154,87.343L106.615,87.748L107.077,88.088L107.538,88.372L108,88.607L108.462,88.8L108.923,88.954L109.385,89.074L109.846,89.16L110.308,89.212L110.769,89.227L111.231,89.202L111.692,89.127L112.154,88.99L112.615,88.772L113.077,88.449L113.538,87.984L114,87.332L114.462,86.432L114.923,85.208L115.385,83.572" stroke="rgb(143, 215, 68)" stroke-width="2"/></g></g><path class="foreground" aria-hidden="true" d="" display="none"/></g></g><g class="mark-group role-legend" role="graphics-symbol" aria-roledescription="legend" aria-label="Symbol legend titled 'Percentile' for stroke color with 5 values: 5, 25, 50, 75, 95"><g transform="translate(138,0)"><path class="background" aria-hidden="true" d="M0,0h53v79h-53Z" pointer-events="none"/><g><g class="mark-group role-legend-entry"><g transform="translate(0,16)"><path class="background" aria-hidden="true" d="M0,0h0v0h0Z" pointer-events="none"/><g><g class="mark-group role-scope" role="graphics-object" aria-roledescription="group mark container"><g transform="translate(0,0)"><path class="background" aria-hidden="true" d="M0,0h27.123046875v11h-27.123046875Z" pointer-events="none" opacity="1"/><g><g class="mark-symbol role-legend-symbol" pointer-events="none"><path transform="translate(6,6)" d="M-5,0L5,0" stroke="rgb(68, 58, 131)" stroke-width="1.5" opacity="1"/></g><g class="mark-text role-legend-label" pointer-events="none"><text text-anchor="start" transform="translate(16,9)" font-family="Arial" font-size="10px" fill="#000" opacity="1">5</text></g></g><path class="foreground" aria-hidden="true" d="" pointer-events="none" display="none"/></g><g transform="translate(0,13)"><path class="background" aria-hidden="true" d="M0,0h27.123046875v11h-27.123046875Z" pointer-events="none" opacity="1"/><g><g class="mark-symbol role-legend-symbol" pointer-events="none"><path transform="translate(6,6)" d="M-5,0L5,0" stroke="rgb(49, 104, 142)" stroke-width="1.5" opacity="1"/></g><g class="mark-text role-legend-label" pointer-events="none"><text text-anchor="start" transform="translate(16,9)" font-family="Arial" font-size="10px" fill="#000" opacity="1">25</text></g></g><path class="foreground" aria-hidden="true" d="" pointer-events="none" display="none"/></g><g transform="translate(0,26)"><path class="background" aria-hidden="true" d="M0,0h27.123046875v11h-27.123046875Z" pointer-events="none" opacity="1"/><g><g class="mark-symbol role-legend-symbol" pointer-events="none"><path transform="translate(6,6)" d="M-5,0L5,0" stroke="rgb(33, 145, 141)" stroke-width="1.5" opacity="1"/></g><g class="mark-text role-legend-label" pointer-events="none"><text text-anchor="start" transform="translate(16,9)" font-family="Arial" font-size="10px" fill="#000" opacity="1">50</text></g></g><path class="foreground" aria-hidden="true" d="" pointer-events="none" display="none"/></g><g transform="translate(0,39)"><path class="background" aria-hidden="true" d="M0,0h27.123046875v11h-27.123046875Z" pointer-events="none" opacity="1"/><g><g class="mark-symbol role-legend-symbol" pointer-events="none"><path transform="translate(6,6)" d="M-5,0L5,0" stroke="rgb(53, 183, 121)" stroke-width="1.5" opacity="1"/></g><g class="mark-text role-legend-label" pointer-events="none"><text text-anchor="start" transform="translate(16,9)" font-family="Arial" font-size="10px" fill="#000" opacity="1">75</text></g></g><path class="foreground" aria-hidden="true" d="" pointer-events="none" display="none"/></g><g transform="translate(0,52)"><path class="background" aria-hidden="true" d="M0,0h27.123046875v11h-27.123046875Z" pointer-events="none" opacity="1"/><g><g class="mark-symbol role-legend-symbol" pointer-events="none"><path transform="translate(6,6)" d="M-5,0L5,0" stroke="rgb(143, 215, 68)" stroke-width="1.5" opacity="1"/></g><g class="mark-text role-legend-label" pointer-events="none"><text text-anchor="start" transform="translate(16,9)" font-family="Arial" font-size="10px" fill="#000" opacity="1">95</text></g></g><path class="foreground" aria-hidden="true" d="" pointer-events="none" display="none"/></g></g></g><path class="foreground" aria-hidden="true" d="" pointer-events="none" display="none"/></g></g><g class="mark-text role-legend-title" pointer-events="none"><text text-anchor="start" transform="translate(0,9)" font-family="Arial" font-size="11px" font-weight="bold" fill="#000" opacity="1">Percentile</text></g></g><path class="foreground" aria-hidden="true" d="" pointer-events="none" display="none"/></g></g></g><path class="foreground" aria-hidden="true" d="" display="none"/></g></g></g></svg>