<svg xmlns="http://www.w3.org/2000/svg" xmlns:xlink="http://www.w3.org/1999/xlink" version="1.1" class="marks" width="532" height="132" viewBox="0 0 532 132"><rect width="532" height="132" fill="white"/><g fill="none" stroke-miterlimit="10" transform="translate(40,6)"><g class="mark-group role-frame root" role="graphics-object" aria-roledescription="group mark container"><g transform="translate(0,0)"><path class="background" aria-hidden="true" d="M0,0h0v90h0Z"/><g><g class="mark-group role-scope concat_0_group" role="graphics-object" aria-roledescription="group mark container"><g transform="translate(0,0)"><path class="background" aria-hidden="true" d="M0.5,0.5h120v90h-120Z"/><g><g class="mark-group role-axis" role="graphics-symbol" aria-roledescription="axis" aria-label="X-axis titled '[ATP] (mM)' for a linear scale with values from 0 to 11"><g transform="translate(0.5,90.5)"><path class="background" aria-hidden="true" d="M0,0h0v0h0Z" pointer-events="none"/><g><g class="mark-rule role-axis-tick" pointer-events="none"><line transform="translate(0,0)" x2="0" y2="3" stroke="black" stroke-width="1" opacity="1"/><line transform="translate(55,0)" x2="0" y2="3" stroke="black" stroke-width="1" opacity="1"/><line transform="translate(109,0)" x2="0" y2="3" stroke="black" stroke-width="1" opacity="1"/></g><g class="mark-text role-axis-label" pointer-events="none"><text text-anchor="start" transform="translate(0,13)" font-family="Arial" font-size="10px" fill="#000" opacity="1">0</text><text text-anchor="middle" transform="translate(54.54545454545455,13)" font-family="Arial" font-size="10px" fill="#000" opacity="1">5</text><text text-anchor="middle" transform="translate(109.0909090909091,13)" font-family="Arial" font-size="10px" fill="#000" opacity="1">10</text></g><g class="mark-rule role-axis-domain" pointer-events="none"><line transform="translate(0,0)" x2="120" y2="0" stroke="black" stroke-width="1" opacity="1"/></g><g class="mark-text role-axis-title" pointer-events="none"><text text-anchor="middle" transform="translate(60,28)" font-family="Arial" font-size="11px" font-weight="normal" fill="#000" opacity="1">[ATP] (mM)</text></g></g><path class="foreground" aria-hidden="true" d="" pointer-events="none" display="none"/></g></g><g class="mark-group role-axis" role="graphics-symbol" aria-roledescription="axis" aria-label="Y-axis titled 'Density' for a linear scale with values from 0.00 to 0.26"><g transform="translate(0.5,0.5)"><path class="background" aria-hidden="true" d="M0,0h0v0h0Z" pointer-events="none"/><g><g class="mark-rule role-axis-tick" pointer-events="none"><line transform="translate(0,90)" x2="-3" y2="0" stroke="black" stroke-width="1" opacity="1"/><line transform="translate(0,55)" x2="-3" y2="0" stroke="black" stroke-width="1" opacity="1"/><line transform="translate(0,21)" x2="-3" y2="0" stroke="black" stroke-width="1" opacity="1"/></g><g class="mark-text role-axis-label" pointer-events="none"><text text-anchor="end" transform="translate(-5,93)" font-family="Arial" font-size="10px" fill="#000" opacity="1">0.0</text><text text-anchor="end" transform="translate(-5,58.38461538461539)" font-family="Arial" font-size="10px" fill="#000" opacity="1">0.1</text><text text-anchor="end" transform="translate(-5,23.769230769230766)" font-family="Arial" font-size="10px" fill="#000" opacity="1">0.2</text></g><g class="mark-rule role-axis-domain" pointer-events="none"><line transform="translate(0,90)" x2="0" y2="-90" stroke="black" stroke-width="1" opacity="1"/></g><g class="mark-text role-axis-title" pointer-events="none"><text text-anchor="middle" transform="translate(-22.9013671875,45) rotate(-90) translate(0,-2)" font-family="Arial" font-size="11px" font-weight="normal" fill="#000" opacity="1">Density</text></g></g><path class="foreground" aria-hidden="true" d="" pointer-events="none" display="none"/></g></g><g class="mark-area role-mark concat_0_layer_0_marks" role="graphics-object" aria-roledescription="area mark container"><path aria-label="value: 0.0157191003991; density: 0.0141335550578" role="graphics-symbol" aria-roledescription="area mark" d="M0.171,85.108L4.705,78.362L6.972,74.907L9.239,71.221L11.506,67.271L12.639,65.166L13.773,62.929L14.906,60.531L16.039,57.967L18.306,52.45L20.573,46.592L22.84,40.221L27.374,26.056L28.507,22.708L29.641,19.629L30.207,18.213L30.774,16.891L31.341,15.67L31.907,14.552L33.041,12.629L33.608,11.814L34.174,11.083L34.741,10.424L35.308,9.821L35.874,9.26L36.441,8.726L37.575,7.702L38.708,6.725L39.275,6.272L39.841,5.864L40.408,5.519L40.975,5.26L42.108,5.077L42.675,5.185L43.242,5.439L43.808,5.841L44.375,6.388L44.942,7.075L45.509,7.889L46.075,8.819L46.642,9.849L47.209,10.964L47.775,12.145L50.042,17.16L54.576,26.702L55.709,29.391L56.843,32.411L59.11,39.206L63.643,52.615L65.91,58.672L67.044,61.493L68.177,64.091L68.744,65.291L69.311,66.42L69.877,67.481L70.444,68.478L71.011,69.416L71.577,70.303L72.711,71.954L73.844,73.49L74.978,74.958L77.245,77.812L79.511,80.58L80.645,81.878L81.212,82.492L81.778,83.078L82.345,83.634L82.912,84.156L83.478,84.643L84.045,85.091L84.612,85.5L85.179,85.869L85.745,86.198L86.312,86.489L86.879,86.744L87.445,86.968L88.012,87.166L88.579,87.341L89.712,87.648L90.846,87.922L93.113,88.438L94.246,88.682L95.379,88.908L96.513,89.111L97.646,89.287L98.78,89.431L99.913,89.545L101.047,89.632L102.18,89.695L104.447,89.774L108.981,89.883L113.514,89.942L113.514,90L108.981,90L104.447,90L102.18,90L101.047,90L99.913,90L98.78,90L97.646,90L96.513,90L95.379,90L94.246,90L93.113,90L90.846,90L89.712,90L88.579,90L88.012,90L87.445,90L86.879,90L86.312,90L85.745,90L85.179,90L84.612,90L84.045,90L83.478,90L82.912,90L82.345,90L81.778,90L81.212,90L80.645,90L79.511,90L77.245,90L74.978,90L73.844,90L72.711,90L71.577,90L71.011,90L70.444,90L69.877,90L69.311,90L68.744,90L68.177,90L67.044,90L65.91,90L63.643,90L59.11,90L56.843,90L55.709,90L54.576,90L50.042,90L47.775,90L47.209,90L46.642,90L46.075,90L45.509,90L44.942,90L44.375,90L43.808,90L43.242,90L42.675,90L42.108,90L40.975,90L40.408,90L39.841,90L39.275,90L38.708,90L37.575,90L36.441,90L35.874,90L35.308,90L34.741,90L34.174,90L33.608,90L33.041,90L31.907,90L31.341,90L30.774,90L30.207,90L29.641,90L28.507,90L27.374,90L22.84,90L20.573,90L18.306,90L16.039,90L14.906,90L13.773,90L12.639,90L11.506,90L9.239,90L6.972,90L4.705,90L0.171,90Z" fill="#f462a3"/></g><g class="mark-symbol role-mark concat_0_layer_1_marks" role="graphics-object" aria-roledescription="symbol mark container"><path aria-label="x: 1.19185070665" role="graphics-symbol" aria-roledescription="point" transform="translate(13.002007708872542,90)" d="M2.739,0A2.739,2.739,0,1,1,-2.739,0A2.739,2.739,0,1,1,2.739,0" stroke="rgb(68, 58, 131)" stroke-width="2" opacity="1"/><path aria-label="x: 2.6934155917" role="graphics-symbol" aria-roledescription="point" transform="translate(29.382715545840924,90)" d="M2.739,0A2.739,2.739,0,1,1,-2.739,0A2.739,2.739,0,1,1,2.739,0" stroke="rgb(49, 104, 142)" stroke-width="2" opacity="1"/><path aria-label="x: 3.77924345458" role="graphics-symbol" aria-roledescription="point" transform="translate(41.228110413587366,90)" d="M2.739,0A2.739,2.739,0,1,1,-2.739,0A2.739,2.739,0,1,1,2.739,0" stroke="rgb(33, 145, 141)" stroke-width="2" opacity="1"/><path aria-label="x: 4.87202332626" role="graphics-symbol" aria-roledescription="point" transform="translate(53.14934537740993,90)" d="M2.739,0A2.739,2.739,0,1,1,-2.739,0A2.739,2.739,0,1,1,2.739,0" stroke="rgb(53, 183, 121)" stroke-width="2" opacity="1"/><path aria-label="x: 6.47968209144" role="graphics-symbol" aria-roledescription="point" transform="translate(70.68744099751929,90)" d="M2.739,0A2.739,2.739,0,1,1,-2.739,0A2.739,2.739,0,1,1,2.739,0" stroke="rgb(143, 215, 68)" stroke-width="2" opacity="1"/></g></g><path class="foreground" aria-hidden="true" d="" display="none"/></g></g><g class="mark-group role-scope concat_1_group" role="graphics-object" aria-roledescription="group mark container"><g transform="translate(188,0)"><path class="background" aria-hidden="true" d="M0.5,0.5h120v90h-120Z"/><g><g class="mark-group role-axis" role="graphics-symbol" aria-roledescription="axis" aria-label="X-axis titled 'Amplitude' for a linear scale with values from 2,100 to 2,400"><g transform="translate(0.5,90.5)"><path class="background" aria-hidden="true" d="M0,0h0v0h0Z" pointer-events="none"/><g><g class="mark-rule role-axis-tick" pointer-events="none"><line transform="translate(0,0)" x2="0" y2="3" stroke="black" stroke-width="1" opacity="1"/><line transform="translate(40,0)" x2="0" y2="3" stroke="black" stroke-width="1" opacity="1"/><line transform="translate(80,0)" x2="0" y2="3" stroke="black" stroke-width="1" opacity="1"/><line transform="translate(120,0)" x2="0" y2="3" stroke="black" stroke-width="1" opacity="1"/></g><g class="mark-text role-axis-label" pointer-events="none"><text text-anchor="start" transform="translate(0,13)" font-family="Arial" font-size="10px" fill="#000" opacity="1">2,100</text><text text-anchor="middle" transform="translate(40,13)" font-family="Arial" font-size="10px" fill="#000" opacity="1">2,200</text><text text-anchor="middle" transform="translate(80,13)" font-family="Arial" font-size="10px" fill="#000" opacity="1">2,300</text><text text-anchor="end" transform="translate(120,13)" font-family="Arial" font-size="10px" fill="#000" opacity="1">2,400</text></g><g class="mark-rule role-axis-domain" pointer-events="none"><line transform="translate(0,0)" x2="120" y2="0" stroke="black" stroke-width="1" opacity="1"/></g><g class="mark-text role-axis-title" pointer-events="none"><text text-anchor="middle" transform="translate(60,28)" font-family="Arial" font-size="11px" font-weight="normal" fill="#000" opacity="1">Amplitude</text></g></g><path class="foreground" aria-hidden="true" d="" pointer-events="none" display="none"/></g></g><g class="mark-group role-axis" role="graphics-symbol" aria-roledescription="axis" aria-label="Y-axis titled 'Density' for a linear scale with values from 0.000 to 0.018"><g transform="translate(0.5,0.5)"><path class="background" aria-hidden="true" d="M0,0h0v0h0Z" pointer-events="none"/><g><g class="mark-rule role-axis-tick" pointer-events="none"><line transform="translate(0,90)" x2="-3" y2="0" stroke="black" stroke-width="1" opacity="1"/><line transform="translate(0,65)" x2="-3" y2="0" stroke="black" stroke-width="1" opacity="1"/><line transform="translate(0,40)" x2="-3" y2="0" stroke="black" stroke-width="1" opacity="1"/><line transform="translate(0,15)" x2="-3" y2="0" stroke="black" stroke-width="1" opacity="1"/></g><g class="mark-text role-axis-label" pointer-events="none"><text text-anchor="end" transform="translate(-5,93)" font-family="Arial" font-size="10px" fill="#000" opacity="1">0.000</text><text text-anchor="end" transform="translate(-5,68)" font-family="Arial" font-size="10px" fill="#000" opacity="1">0.005</text><text text-anchor="end" transform="translate(-5,43)" font-family="Arial" font-size="10px" fill="#000" opacity="1">0.010</text><text text-anchor="end" transform="translate(-5,17.999999999999996)" font-family="Arial" font-size="10px" fill="#000" opacity="1">0.015</text></g><g class="mark-rule role-axis-domain" pointer-events="none"><line transform="translate(0,90)" x2="0" y2="-90" stroke="black" stroke-width="1" opacity="1"/></g><g class="mark-text role-axis-title" pointer-events="none"><text text-anchor="middle" transform="translate(-34.0244140625,45) rotate(-90) translate(0,-2)" font-family="Arial" font-size="11px" font-weight="normal" fill="#000" opacity="1">Density</text></g></g><path class="foreground" aria-hidden="true" d="" pointer-events="none" display="none"/></g></g><g class="mark-area role-mark concat_1_layer_0_marks" clip-path="url(#clip1)" role="graphics-object" aria-roledescription="area mark container"><path aria-label="value: 397.939712932; density: 0.00000797884560803" role="graphics-symbol" aria-roledescription="area mark" d="M-680.824,89.96L-678.886,89.975L-676.947,89.994L-675.008,89.999L-673.07,90L-669.193,90L-665.315,90L-661.438,90L-657.561,90L-655.622,89.998L-653.684,89.986L-651.745,89.953L-649.806,89.928L-645.929,89.957L-643.991,89.958L-642.052,89.976L-640.113,89.991L-638.175,89.98L-636.236,89.961L-634.298,89.97L-632.359,89.991L-630.42,89.999L-626.543,90L-622.666,90L-618.789,90L-614.912,90L-611.034,90L-607.157,90L-603.28,90L-601.341,89.996L-599.403,89.979L-597.464,89.961L-595.526,89.969L-593.587,89.974L-591.648,89.942L-589.71,89.922L-587.771,89.957L-585.833,89.985L-583.894,89.976L-581.955,89.959L-580.017,89.964L-576.14,89.96L-574.201,89.98L-572.262,89.996L-568.385,90L-564.508,90L-560.631,90L-556.754,89.997L-554.815,89.982L-552.876,89.946L-550.938,89.927L-548.999,89.955L-547.061,89.988L-545.122,89.995L-543.183,89.978L-541.245,89.94L-539.306,89.928L-537.368,89.962L-535.429,89.991L-533.49,89.999L-529.613,89.999L-527.675,89.993L-525.736,89.971L-523.797,89.942L-521.859,89.937L-517.982,89.989L-516.043,89.99L-514.104,89.97L-512.166,89.958L-510.227,89.965L-508.289,89.959L-506.35,89.961L-504.411,89.967L-502.473,89.959L-500.534,89.97L-498.596,89.991L-496.657,89.999L-494.718,89.998L-492.78,89.987L-490.841,89.965L-486.964,89.951L-485.025,89.922L-483.087,89.934L-481.148,89.978L-479.21,89.997L-477.271,89.999L-475.332,89.993L-473.394,89.974L-471.455,89.96L-467.578,89.994L-465.639,89.999L-463.701,90L-459.824,90L-455.946,90L-452.069,90L-448.192,90L-444.315,90L-440.438,90L-436.56,89.997L-434.622,89.983L-432.683,89.962L-430.745,89.968L-428.806,89.989L-426.867,89.999L-424.929,90L-421.052,90L-419.113,89.996L-417.174,89.972L-415.236,89.931L-413.297,89.927L-411.359,89.953L-409.42,89.944L-407.481,89.912L-405.543,89.909L-403.604,89.953L-401.666,89.99L-399.727,89.999L-397.788,90L-393.911,90L-390.034,90L-386.157,90L-382.28,90L-378.402,90L-374.525,90L-370.648,90L-366.771,89.999L-364.832,89.99L-362.894,89.959L-360.955,89.926L-359.016,89.942L-357.078,89.981L-355.139,89.997L-351.262,90L-347.385,90L-343.508,90L-341.569,89.998L-339.63,89.984L-337.692,89.957L-335.753,89.938L-333.815,89.941L-331.876,89.948L-329.937,89.955L-327.999,89.976L-326.06,89.995L-324.122,90L-320.244,90L-316.367,90L-312.49,90L-310.551,89.995L-308.613,89.979L-306.674,89.959L-304.735,89.961L-302.797,89.95L-300.858,89.925L-298.92,89.943L-296.981,89.978L-295.042,89.981L-293.104,89.956L-291.165,89.938L-289.227,89.942L-287.288,89.941L-285.349,89.903L-283.411,89.885L-281.472,89.915L-279.534,89.929L-277.595,89.934L-275.656,89.951L-273.718,89.956L-271.779,89.961L-269.841,89.98L-267.902,89.976L-265.963,89.95L-264.025,89.936L-262.086,89.934L-258.209,89.939L-256.27,89.95L-254.332,89.975L-252.393,89.985L-250.455,89.956L-248.516,89.911L-246.577,89.901L-242.7,89.943L-240.762,89.967L-238.823,89.97L-236.884,89.948L-234.946,89.938L-233.007,89.955L-231.069,89.977L-229.13,89.972L-227.191,89.959L-225.253,89.965L-223.314,89.962L-221.376,89.956L-219.437,89.96L-217.498,89.956L-215.56,89.962L-213.621,89.959L-211.683,89.947L-209.744,89.92L-207.805,89.881L-205.867,89.889L-203.928,89.884L-201.99,89.843L-200.051,89.847L-198.112,89.871L-196.174,89.873L-194.235,89.862L-192.297,89.879L-190.358,89.91L-188.419,89.927L-184.542,89.951L-182.604,89.967L-180.665,89.962L-178.726,89.952L-176.788,89.949L-174.849,89.936L-172.911,89.913L-170.972,89.902L-169.033,89.905L-167.095,89.914L-165.156,89.941L-163.218,89.929L-161.279,89.894L-159.34,89.889L-157.402,89.892L-155.463,89.89L-153.525,89.9L-151.586,89.904L-149.647,89.915L-145.77,89.956L-143.832,89.976L-141.893,89.971L-139.954,89.955L-138.016,89.952L-134.139,89.953L-132.2,89.931L-130.261,89.905L-126.384,89.871L-124.446,89.892L-122.507,89.937L-120.568,89.975L-118.63,89.985L-116.691,89.957L-114.753,89.922L-112.814,89.919L-110.875,89.894L-108.937,89.851L-106.998,89.851L-105.06,89.879L-103.121,89.925L-101.182,89.928L-99.244,89.866L-97.305,89.829L-95.367,89.833L-93.428,89.853L-91.489,89.888L-89.551,89.914L-87.612,89.895L-85.674,89.85L-83.735,89.858L-81.796,89.894L-79.858,89.866L-77.919,89.85L-75.981,89.896L-74.042,89.926L-72.103,89.898L-70.165,89.839L-68.226,89.856L-66.288,89.92L-64.349,89.964L-62.41,89.975L-60.472,89.939L-58.533,89.889L-56.595,89.877L-54.656,89.898L-52.717,89.906L-50.779,89.902L-48.84,89.915L-46.902,89.911L-44.963,89.861L-41.086,89.63L-39.147,89.702L-37.209,89.845L-35.27,89.812L-33.331,89.726L-29.454,89.784L-27.516,89.756L-25.577,89.733L-23.638,89.775L-21.7,89.849L-19.761,89.849L-17.823,89.78L-15.884,89.746L-13.945,89.7L-12.007,89.669L-10.068,89.663L-8.13,89.739L-6.191,89.864L-4.252,89.872L-2.314,89.823L-0.375,89.811L1.563,89.77L3.502,89.764L5.441,89.847L7.379,89.849L9.318,89.705L11.256,89.563L13.195,89.535L17.072,89.583L19.011,89.591L20.949,89.579L22.888,89.537L24.827,89.449L26.765,89.329L28.704,89.303L30.643,89.351L32.581,89.38L34.52,89.49L36.458,89.606L38.397,89.618L40.336,89.54L42.274,89.399L44.213,89.266L46.151,89.085L48.09,88.888L50.029,88.801L51.967,88.808L53.906,88.907L55.844,88.988L57.783,88.806L59.722,87.942L61.66,86.023L63.599,82.592L67.476,68.986L71.353,50.661L75.23,31.339L79.108,20.369L81.046,16.949L82.985,15.225L84.923,15.762L86.862,16.916L88.801,15.157L90.739,8.411L92.678,4.197L94.616,25.425L94.616,90L92.678,90L90.739,90L88.801,90L86.862,90L84.923,90L82.985,90L81.046,90L79.108,90L75.23,90L71.353,90L67.476,90L63.599,90L61.66,90L59.722,90L57.783,90L55.844,90L53.906,90L51.967,90L50.029,90L48.09,90L46.151,90L44.213,90L42.274,90L40.336,90L38.397,90L36.458,90L34.52,90L32.581,90L30.643,90L28.704,90L26.765,90L24.827,90L22.888,90L20.949,90L19.011,90L17.072,90L13.195,90L11.256,90L9.318,90L7.379,90L5.441,90L3.502,90L1.563,90L-0.375,90L-2.314,90L-4.252,90L-6.191,90L-8.13,90L-10.068,90L-12.007,90L-13.945,90L-15.884,90L-17.823,90L-19.761,90L-21.7,90L-23.638,90L-25.577,90L-27.516,90L-29.454,90L-33.331,90L-35.27,90L-37.209,90L-39.147,90L-41.086,90L-44.963,90L-46.902,90L-48.84,90L-50.779,90L-52.717,90L-54.656,90L-56.595,90L-58.533,90L-60.472,90L-62.41,90L-64.349,90L-66.288,90L-68.226,90L-70.165,90L-72.103,90L-74.042,90L-75.981,90L-77.919,90L-79.858,90L-81.796,90L-83.735,90L-85.674,90L-87.612,90L-89.551,90L-91.489,90L-93.428,90L-95.367,90L-97.305,90L-99.244,90L-101.182,90L-103.121,90L-105.06,90L-106.998,90L-108.937,90L-110.875,90L-112.814,90L-114.753,90L-116.691,90L-118.63,90L-120.568,90L-122.507,90L-124.446,90L-126.384,90L-130.261,90L-132.2,90L-134.139,90L-138.016,90L-139.954,90L-141.893,90L-143.832,90L-145.77,90L-149.647,90L-151.586,90L-153.525,90L-155.463,90L-157.402,90L-159.34,90L-161.279,90L-163.218,90L-165.156,90L-167.095,90L-169.033,90L-170.972,90L-172.911,90L-174.849,90L-176.788,90L-178.726,90L-180.665,90L-182.604,90L-184.542,90L-188.419,90L-190.358,90L-192.297,90L-194.235,90L-196.174,90L-198.112,90L-200.051,90L-201.99,90L-203.928,90L-205.867,90L-207.805,90L-209.744,90L-211.683,90L-213.621,90L-215.56,90L-217.498,90L-219.437,90L-221.376,90L-223.314,90L-225.253,90L-227.191,90L-229.13,90L-231.069,90L-233.007,90L-234.946,90L-236.884,90L-238.823,90L-240.762,90L-242.7,90L-246.577,90L-248.516,90L-250.455,90L-252.393,90L-254.332,90L-256.27,90L-258.209,90L-262.086,90L-264.025,90L-265.963,90L-267.902,90L-269.841,90L-271.779,90L-273.718,90L-275.656,90L-277.595,90L-279.534,90L-281.472,90L-283.411,90L-285.349,90L-287.288,90L-289.227,90L-291.165,90L-293.104,90L-295.042,90L-296.981,90L-298.92,90L-300.858,90L-302.797,90L-304.735,90L-306.674,90L-308.613,90L-310.551,90L-312.49,90L-316.367,90L-320.244,90L-324.122,90L-326.06,90L-327.999,90L-329.937,90L-331.876,90L-333.815,90L-335.753,90L-337.692,90L-339.63,90L-341.569,90L-343.508,90L-347.385,90L-351.262,90L-355.139,90L-357.078,90L-359.016,90L-360.955,90L-362.894,90L-364.832,90L-366.771,90L-370.648,90L-374.525,90L-378.402,90L-382.28,90L-386.157,90L-390.034,90L-393.911,90L-397.788,90L-399.727,90L-401.666,90L-403.604,90L-405.543,90L-407.481,90L-409.42,90L-411.359,90L-413.297,90L-415.236,90L-417.174,90L-419.113,90L-421.052,90L-424.929,90L-426.867,90L-428.806,90L-430.745,90L-432.683,90L-434.622,90L-436.56,90L-440.438,90L-444.315,90L-448.192,90L-452.069,90L-455.946,90L-459.824,90L-463.701,90L-465.639,90L-467.578,90L-471.455,90L-473.394,90L-475.332,90L-477.271,90L-479.21,90L-481.148,90L-483.087,90L-485.025,90L-486.964,90L-490.841,90L-492.78,90L-494.718,90L-496.657,90L-498.596,90L-500.534,90L-502.473,90L-504.411,90L-506.35,90L-508.289,90L-510.227,90L-512.166,90L-514.104,90L-516.043,90L-517.982,90L-521.859,90L-523.797,90L-525.736,90L-527.675,90L-529.613,90L-533.49,90L-535.429,90L-537.368,90L-539.306,90L-541.245,90L-543.183,90L-545.122,90L-547.061,90L-548.999,90L-550.938,90L-552.876,90L-554.815,90L-556.754,90L-560.631,90L-564.508,90L-568.385,90L-572.262,90L-574.201,90L-576.14,90L-580.017,90L-581.955,90L-583.894,90L-585.833,90L-587.771,90L-589.71,90L-591.648,90L-593.587,90L-595.526,90L-597.464,90L-599.403,90L-601.341,90L-603.28,90L-607.157,90L-611.034,90L-614.912,90L-618.789,90L-622.666,90L-626.543,90L-630.42,90L-632.359,90L-634.298,90L-636.236,90L-638.175,90L-640.113,90L-642.052,90L-643.991,90L-645.929,90L-649.806,90L-651.745,90L-653.684,90L-655.622,90L-657.561,90L-661.438,90L-665.315,90L-669.193,90L-673.07,90L-675.008,90L-676.947,90L-678.886,90L-680.824,90Z" fill="#f462a3"/></g><g class="mark-symbol role-mark concat_1_layer_1_marks" role="graphics-object" aria-roledescription="symbol mark container"><path aria-label="x: 2290.01264546" role="graphics-symbol" aria-roledescription="point" transform="translate(76.00505818373185,90)" d="M2.739,0A2.739,2.739,0,1,1,-2.739,0A2.739,2.739,0,1,1,2.739,0" stroke="rgb(49, 104, 142)" stroke-width="2" opacity="1"/><path aria-label="x: 2331.17871752" role="graphics-symbol" aria-roledescription="point" transform="translate(92.47148700682355,90)" d="M2.739,0A2.739,2.739,0,1,1,-2.739,0A2.739,2.739,0,1,1,2.739,0" stroke="rgb(143, 215, 68)" stroke-width="2" opacity="1"/><path aria-label="x: 2312.25638957" role="graphics-symbol" aria-roledescription="point" transform="translate(84.90255582746231,90)" d="M2.739,0A2.739,2.739,0,1,1,-2.739,0A2.739,2.739,0,1,1,2.739,0" stroke="rgb(53, 183, 121)" stroke-width="2" opacity="1"/><path aria-label="x: 2293.97314715" role="graphics-symbol" aria-roledescription="point" transform="translate(77.58925886171419,90)" d="M2.739,0A2.739,2.739,0,1,1,-2.739,0A2.739,2.739,0,1,1,2.739,0" stroke="rgb(33, 145, 141)" stroke-width="2" opacity="1"/><path aria-label="x: 2273.68294442" role="graphics-symbol" aria-roledescription="point" transform="translate(69.47317776696036,90)" d="M2.739,0A2.739,2.739,0,1,1,-2.739,0A2.739,2.739,0,1,1,2.739,0" stroke="rgb(68, 58, 131)" stroke-width="2" opacity="1"/></g></g><path class="foreground" aria-hidden="true" d="" display="none"/></g></g><g class="mark-group role-scope concat_2_group" role="graphics-object" aria-roledescription="group mark container"><g transform="translate(365,0)"><path class="background" aria-hidden="true" d="M0.5,0.5h120v90h-120Z"/><g><g class="mark-group role-axis" role="graphics-symbol" aria-roledescription="axis" aria-label="X-axis titled 'Period (mins)' for a linear scale with values from 50 to 100"><g transform="translate(0.5,90.5)"><path class="background" aria-hidden="true" d="M0,0h0v0h0Z" pointer-events="none"/><g><g class="mark-rule role-axis-tick" pointer-events="none"><line transform="translate(24,0)" x2="0" y2="3" stroke="black" stroke-width="1" opacity="1"/><line transform="translate(72,0)" x2="0" y2="3" stroke="black" stroke-width="1" opacity="1"/><line transform="translate(120,0)" x2="0" y2="3" stroke="black" stroke-width="1" opacity="1"/></g><g class="mark-text role-axis-label" pointer-events="none"><text text-anchor="middle" transform="translate(24,13)" font-family="Arial" font-size="10px" fill="#000" opacity="1">60</text><text text-anchor="middle" transform="translate(72,13)" font-family="Arial" font-size="10px" fill="#000" opacity="1">80</text><text text-anchor="end" transform="translate(120,13)" font-family="Arial" font-size="10px" fill="#000" opacity="1">100</text></g><g class="mark-rule role-axis-domain" pointer-events="none"><line transform="translate(0,0)" x2="120" y2="0" stroke="black" stroke-width="1" opacity="1"/></g><g class="mark-text role-axis-title" pointer-events="none"><text text-anchor="middle" transform="translate(60,28)" font-family="Arial" font-size="11px" font-weight="normal" fill="#000" opacity="1">Period (mins)</text></g></g><path class="foreground" aria-hidden="true" d="" pointer-events="none" display="none"/></g></g><g class="mark-group role-axis" role="graphics-symbol" aria-roledescription="axis" aria-label="Y-axis titled 'Density' for a linear scale with values from 0.00 to 0.24"><g transform="translate(0.5,0.5)"><path class="background" aria-hidden="true" d="M0,0h0v0h0Z" pointer-events="none"/><g><g class="mark-rule role-axis-tick" pointer-events="none"><line transform="translate(0,90)" x2="-3" y2="0" stroke="black" stroke-width="1" opacity="1"/><line transform="translate(0,52)" x2="-3" y2="0" stroke="black" stroke-width="1" opacity="1"/><line transform="translate(0,15)" x2="-3" y2="0" stroke="black" stroke-width="1" opacity="1"/></g><g class="mark-text role-axis-label" pointer-events="none"><text text-anchor="end" transform="translate(-5,93)" font-family="Arial" font-size="10px" fill="#000" opacity="1">0.0</text><text text-anchor="end" transform="translate(-5,55.49999999999999)" font-family="Arial" font-size="10px" fill="#000" opacity="1">0.1</text><text text-anchor="end" transform="translate(-5,17.999999999999996)" font-family="Arial" font-size="10px" fill="#000" opacity="1">0.2</text></g><g class="mark-rule role-axis-domain" pointer-events="none"><line transform="translate(0,90)" x2="0" y2="-90" stroke="black" stroke-width="1" opacity="1"/></g><g class="mark-text role-axis-title" pointer-events="none"><text text-anchor="middle" transform="translate(-22.9013671875,45) rotate(-90) translate(0,-2)" font-family="Arial" font-size="11px" font-weight="normal" fill="#000" opacity="1">Density</text></g></g><path class="foreground" aria-hidden="true" d="" pointer-events="none" display="none"/></g></g><g class="mark-area role-mark concat_2_layer_0_marks" clip-path="url(#clip2)" role="graphics-object" aria-roledescription="area mark container"><path aria-label="value: 58.9500670901; density: 0.01369947751" role="graphics-symbol" aria-roledescription="area mark" d="M21.48,84.863L23.305,58.211L25.13,16.757L26.043,4.107L26.956,0.803L27.868,4.905L28.781,13.447L30.606,33.648L32.431,49.992L34.256,62.48L36.081,71.338L36.994,74.615L37.906,76.861L38.819,78.473L39.731,79.781L41.556,82.156L42.469,83.326L43.382,84.204L44.294,84.87L45.207,85.468L46.119,86.006L47.032,86.413L47.944,86.618L48.857,86.759L49.769,87.051L50.682,87.441L51.595,87.724L52.507,87.907L54.332,88.282L55.245,88.425L56.157,88.541L57.07,88.59L57.982,88.525L58.895,88.42L59.808,88.436L60.72,88.647L61.633,88.948L62.545,89.144L63.458,89.15L64.37,89.068L65.283,89.045L66.196,89.11L67.108,89.203L68.021,89.259L68.933,89.279L69.846,89.331L70.758,89.45L71.671,89.574L72.583,89.647L73.496,89.68L74.409,89.656L75.321,89.571L76.234,89.513L77.146,89.548L78.059,89.615L78.971,89.628L79.884,89.594L80.796,89.577L81.709,89.58L82.622,89.578L83.534,89.606L84.447,89.68L85.359,89.761L86.272,89.815L87.184,89.838L88.097,89.845L89.009,89.844L89.922,89.833L90.835,89.83L91.747,89.828L92.66,89.8L93.572,89.763L94.485,89.754L96.31,89.784L97.223,89.785L98.135,89.791L99.048,89.802L99.96,89.8L100.873,89.802L101.785,89.833L102.698,89.873L103.61,89.883L104.523,89.865L105.436,89.854L106.348,89.865L107.261,89.884L108.173,89.909L109.086,89.928L109.998,89.929L110.911,89.914L112.736,89.871L113.649,89.854L114.561,89.846L115.474,89.842L116.386,89.844L117.299,89.855L118.211,89.877L119.124,89.9L120.036,89.915L120.949,89.922L121.862,89.909L122.774,89.877L123.687,89.84L125.512,89.773L126.424,89.764L127.337,89.802L128.249,89.862L129.162,89.909L130.075,89.94L130.987,89.955L131.9,89.947L132.812,89.931L133.725,89.925L134.637,89.927L135.55,89.929L136.463,89.934L137.375,89.949L138.288,89.955L139.2,89.941L140.113,89.917L141.025,89.906L141.938,89.921L142.85,89.943L143.763,89.94L144.676,89.916L145.588,89.906L146.501,89.919L147.413,89.936L148.326,89.942L149.238,89.934L150.151,89.923L151.063,89.917L151.976,89.911L152.889,89.9L153.801,89.897L154.714,89.911L155.626,89.931L156.539,89.945L157.451,89.942L158.364,89.933L159.276,89.938L160.189,89.952L162.014,89.979L162.927,89.992L163.839,89.998L165.664,90L167.49,89.999L168.402,89.991L169.315,89.967L170.227,89.928L171.14,89.912L172.052,89.938L172.965,89.975L173.877,89.994L174.79,89.999L176.615,90L178.44,89.995L179.353,89.981L180.265,89.958L181.178,89.944L182.09,89.955L183.003,89.978L183.916,89.994L184.828,89.999L185.741,90L187.566,90L189.391,90L191.216,90L193.041,90L194.866,90L196.691,89.999L197.604,89.995L198.516,89.982L200.342,89.932L201.254,89.921L202.167,89.927L203.992,89.934L204.904,89.953L205.817,89.98L206.73,89.995L207.642,89.999L209.467,89.998L210.38,89.992L211.292,89.979L212.205,89.97L213.117,89.976L214.03,89.989L214.943,89.997L216.768,90L218.593,90L220.418,90L222.243,90L224.068,90L225.893,90L227.718,90L229.543,89.995L231.369,89.972L232.281,89.973L233.194,89.985L234.106,89.994L235.019,89.993L236.844,89.97L238.669,89.963L239.582,89.949L240.494,89.943L241.407,89.96L242.319,89.983L243.232,89.996L244.144,89.999L245.97,90L247.795,89.998L248.707,89.992L249.62,89.978L250.532,89.965L251.445,89.96L252.357,89.961L253.27,89.968L254.183,89.976L255.095,89.974L256.008,89.969L256.92,89.976L257.833,89.983L258.745,89.973L259.658,89.95L260.57,89.942L261.483,89.961L262.396,89.985L263.308,89.997L264.221,90L266.046,90L266.958,89.999L267.871,89.994L269.696,89.971L270.609,89.972L271.521,89.979L273.346,89.97L275.171,89.984L276.084,89.977L276.997,89.954L277.909,89.94L278.822,89.956L279.734,89.982L280.647,89.996L282.472,90L284.297,90L286.122,90L287.947,90L289.772,90L291.597,90L293.423,90L294.335,89.998L295.248,89.99L297.073,89.959L297.985,89.954L298.898,89.961L300.723,89.992L301.636,89.998L302.548,90L303.461,89.999L304.373,89.993L305.286,89.975L306.198,89.949L307.111,89.941L308.024,89.962L308.936,89.985L309.849,89.992L310.761,89.985L311.674,89.972L312.586,89.972L313.499,89.984L314.411,89.995L315.324,89.999L317.149,90L318.974,90L320.799,90L322.624,90L324.45,90L326.275,90L328.1,90L329.925,90L331.75,90L333.575,90L335.4,90L337.225,90L339.05,89.999L339.963,89.994L340.876,89.982L341.788,89.971L342.701,89.974L344.526,89.996L346.351,90L348.176,90L349.089,89.997L350.001,89.989L351.826,89.96L352.739,89.956L353.651,89.96L354.564,89.966L355.477,89.967L356.389,89.968L357.302,89.979L358.214,89.992L359.127,89.998L360.952,90L362.777,90L364.602,90L366.427,90L368.252,90L370.077,90L371.903,90L373.728,90L375.553,90L377.378,90L379.203,90L381.028,90L382.853,90L383.766,89.998L384.678,89.991L385.591,89.978L386.504,89.97L386.504,90L385.591,90L384.678,90L383.766,90L382.853,90L381.028,90L379.203,90L377.378,90L375.553,90L373.728,90L371.903,90L370.077,90L368.252,90L366.427,90L364.602,90L362.777,90L360.952,90L359.127,90L358.214,90L357.302,90L356.389,90L355.477,90L354.564,90L353.651,90L352.739,90L351.826,90L350.001,90L349.089,90L348.176,90L346.351,90L344.526,90L342.701,90L341.788,90L340.876,90L339.963,90L339.05,90L337.225,90L335.4,90L333.575,90L331.75,90L329.925,90L328.1,90L326.275,90L324.45,90L322.624,90L320.799,90L318.974,90L317.149,90L315.324,90L314.411,90L313.499,90L312.586,90L311.674,90L310.761,90L309.849,90L308.936,90L308.024,90L307.111,90L306.198,90L305.286,90L304.373,90L303.461,90L302.548,90L301.636,90L300.723,90L298.898,90L297.985,90L297.073,90L295.248,90L294.335,90L293.423,90L291.597,90L289.772,90L287.947,90L286.122,90L284.297,90L282.472,90L280.647,90L279.734,90L278.822,90L277.909,90L276.997,90L276.084,90L275.171,90L273.346,90L271.521,90L270.609,90L269.696,90L267.871,90L266.958,90L266.046,90L264.221,90L263.308,90L262.396,90L261.483,90L260.57,90L259.658,90L258.745,90L257.833,90L256.92,90L256.008,90L255.095,90L254.183,90L253.27,90L252.357,90L251.445,90L250.532,90L249.62,90L248.707,90L247.795,90L245.97,90L244.144,90L243.232,90L242.319,90L241.407,90L240.494,90L239.582,90L238.669,90L236.844,90L235.019,90L234.106,90L233.194,90L232.281,90L231.369,90L229.543,90L227.718,90L225.893,90L224.068,90L222.243,90L220.418,90L218.593,90L216.768,90L214.943,90L214.03,90L213.117,90L212.205,90L211.292,90L210.38,90L209.467,90L207.642,90L206.73,90L205.817,90L204.904,90L203.992,90L202.167,90L201.254,90L200.342,90L198.516,90L197.604,90L196.691,90L194.866,90L193.041,90L191.216,90L189.391,90L187.566,90L185.741,90L184.828,90L183.916,90L183.003,90L182.09,90L181.178,90L180.265,90L179.353,90L178.44,90L176.615,90L174.79,90L173.877,90L172.965,90L172.052,90L171.14,90L170.227,90L169.315,90L168.402,90L167.49,90L165.664,90L163.839,90L162.927,90L162.014,90L160.189,90L159.276,90L158.364,90L157.451,90L156.539,90L155.626,90L154.714,90L153.801,90L152.889,90L151.976,90L151.063,90L150.151,90L149.238,90L148.326,90L147.413,90L146.501,90L145.588,90L144.676,90L143.763,90L142.85,90L141.938,90L141.025,90L140.113,90L139.2,90L138.288,90L137.375,90L136.463,90L135.55,90L134.637,90L133.725,90L132.812,90L131.9,90L130.987,90L130.075,90L129.162,90L128.249,90L127.337,90L126.424,90L125.512,90L123.687,90L122.774,90L121.862,90L120.949,90L120.036,90L119.124,90L118.211,90L117.299,90L116.386,90L115.474,90L114.561,90L113.649,90L112.736,90L110.911,90L109.998,90L109.086,90L108.173,90L107.261,90L106.348,90L105.436,90L104.523,90L103.61,90L102.698,90L101.785,90L100.873,90L99.96,90L99.048,90L98.135,90L97.223,90L96.31,90L94.485,90L93.572,90L92.66,90L91.747,90L90.835,90L89.922,90L89.009,90L88.097,90L87.184,90L86.272,90L85.359,90L84.447,90L83.534,90L82.622,90L81.709,90L80.796,90L79.884,90L78.971,90L78.059,90L77.146,90L76.234,90L75.321,90L74.409,90L73.496,90L72.583,90L71.671,90L70.758,90L69.846,90L68.933,90L68.021,90L67.108,90L66.196,90L65.283,90L64.37,90L63.458,90L62.545,90L61.633,90L60.72,90L59.808,90L58.895,90L57.982,90L57.07,90L56.157,90L55.245,90L54.332,90L52.507,90L51.595,90L50.682,90L49.769,90L48.857,90L47.944,90L47.032,90L46.119,90L45.207,90L44.294,90L43.382,90L42.469,90L41.556,90L39.731,90L38.819,90L37.906,90L36.994,90L36.081,90L34.256,90L32.431,90L30.606,90L28.781,90L27.868,90L26.956,90L26.043,90L25.13,90L23.305,90L21.48,90Z" fill="#f462a3"/></g><g class="mark-symbol role-mark concat_2_layer_1_marks" role="graphics-object" aria-roledescription="symbol mark container"><path aria-label="x: 71.3677965172" role="graphics-symbol" aria-roledescription="point" transform="translate(51.28271164127773,90)" d="M2.739,0A2.739,2.739,0,1,1,-2.739,0A2.739,2.739,0,1,1,2.739,0" stroke="rgb(143, 215, 68)" stroke-width="2" opacity="1"/><path aria-label="x: 63.8565082937" role="graphics-symbol" aria-roledescription="point" transform="translate(33.25561990488059,90)" d="M2.739,0A2.739,2.739,0,1,1,-2.739,0A2.739,2.739,0,1,1,2.739,0" stroke="rgb(53, 183, 121)" stroke-width="2" opacity="1"/><path aria-label="x: 62.0558585795" role="graphics-symbol" aria-roledescription="point" transform="translate(28.93406059075064,90)" d="M2.739,0A2.739,2.739,0,1,1,-2.739,0A2.739,2.739,0,1,1,2.739,0" stroke="rgb(33, 145, 141)" stroke-width="2" opacity="1"/><path aria-label="x: 60.7620673501" role="graphics-symbol" aria-roledescription="point" transform="translate(25.82896164017352,90)" d="M2.739,0A2.739,2.739,0,1,1,-2.739,0A2.739,2.739,0,1,1,2.739,0" stroke="rgb(49, 104, 142)" stroke-width="2" opacity="1"/><path aria-label="x: 60.1200420783" role="graphics-symbol" aria-roledescription="point" transform="translate(24.288100987935422,90)" d="M2.739,0A2.739,2.739,0,1,1,-2.739,0A2.739,2.739,0,1,1,2.739,0" stroke="rgb(68, 58, 131)" stroke-width="2" opacity="1"/></g></g><path class="foreground" aria-hidden="true" d="" display="none"/></g></g></g><path class="foreground" aria-hidden="true" d="" display="none"/></g></g></g><defs><clipPath id="clip1"><rect x="0" y="0" width="120" height="90"/></clipPath><clipPath id="clip2"><rect x="0" y="0" width="120" height="90"/></clipPath></defs></svg>