<svg xmlns="http://www.w3.org/2000/svg" xmlns:xlink="http://www.w3.org/1999/xlink" version="1.1" class="marks" width="558" height="132" viewBox="0 0 558 132"><rect width="558" height="132" fill="white"/><g fill="none" stroke-miterlimit="10" transform="translate(57,6)"><g class="mark-group role-frame root" role="graphics-object" aria-roledescription="group mark container"><g transform="translate(0,0)"><path class="background" aria-hidden="true" d="M0,0h0v90h0Z"/><g><g class="mark-group role-scope concat_0_group" role="graphics-object" aria-roledescription="group mark container"><g transform="translate(0,0)"><path class="background" aria-hidden="true" d="M0.5,0.5h120v90h-120Z"/><g><g class="mark-group role-axis" role="graphics-symbol" aria-roledescription="axis" aria-label="X-axis titled 'Ribosome number' for a linear scale with values from 0 to 24,000"><g transform="translate(0.5,90.5)"><path class="background" aria-hidden="true" d="M0,0h0v0h0Z" pointer-events="none"/><g><g class="mark-rule role-axis-tick" pointer-events="none"><line transform="translate(0,0)" x2="0" y2="3" stroke="black" stroke-width="1" opacity="1"/><line transform="translate(50,0)" x2="0" y2="3" stroke="black" stroke-width="1" opacity="1"/><line transform="translate(100,0)" x2="0" y2="3" stroke="black" stroke-width="1" opacity="1"/></g><g class="mark-text role-axis-label" pointer-events="none"><text text-anchor="start" transform="translate(0,13)" font-family="Arial" font-size="10px" fill="#000" opacity="1">0</text><text text-anchor="middle" transform="translate(50,13)" font-family="Arial" font-size="10px" fill="#000" opacity="1">10,000</text><text text-anchor="middle" transform="translate(100,13)" font-family="Arial" font-size="10px" fill="#000" opacity="1">20,000</text></g><g class="mark-rule role-axis-domain" pointer-events="none"><line transform="translate(0,0)" x2="120" y2="0" stroke="black" stroke-width="1" opacity="1"/></g><g class="mark-text role-axis-title" pointer-events="none"><text text-anchor="middle" transform="translate(60,28)" font-family="Arial" font-size="11px" font-weight="normal" fill="#000" opacity="1">Ribosome number</text></g></g><path class="foreground" aria-hidden="true" d="" pointer-events="none" display="none"/></g></g><g class="mark-group role-axis" role="graphics-symbol" aria-roledescription="axis" aria-label="Y-axis titled 'Density' for a linear scale with values from 0.00000 to 0.00022"><g transform="translate(0.5,0.5)"><path class="background" aria-hidden="true" d="M0,0h0v0h0Z" pointer-events="none"/><g><g class="mark-rule role-axis-tick" pointer-events="none"><line transform="translate(0,90)" x2="-3" y2="0" stroke="black" stroke-width="1" opacity="1"/><line transform="translate(0,49)" x2="-3" y2="0" stroke="black" stroke-width="1" opacity="1"/><line transform="translate(0,8)" x2="-3" y2="0" stroke="black" stroke-width="1" opacity="1"/></g><g class="mark-text role-axis-label" pointer-events="none"><text text-anchor="end" transform="translate(-5,93)" font-family="Arial" font-size="10px" fill="#000" opacity="1">0.0000</text><text text-anchor="end" transform="translate(-5,52.090909090909086)" font-family="Arial" font-size="10px" fill="#000" opacity="1">0.0001</text><text text-anchor="end" transform="translate(-5,11.181818181818185)" font-family="Arial" font-size="10px" fill="#000" opacity="1">0.0002</text></g><g class="mark-rule role-axis-domain" pointer-events="none"><line transform="translate(0,90)" x2="0" y2="-90" stroke="black" stroke-width="1" opacity="1"/></g><g class="mark-text role-axis-title" pointer-events="none"><text text-anchor="middle" transform="translate(-39.5859375,45) rotate(-90) translate(0,-2)" font-family="Arial" font-size="11px" font-weight="normal" fill="#000" opacity="1">Density</text></g></g><path class="foreground" aria-hidden="true" d="" pointer-events="none" display="none"/></g></g><g class="mark-area role-mark concat_0_layer_0_marks" role="graphics-object" aria-roledescription="area mark container"><path aria-label="value: 1109.46476401; density: 0.00000298962313155" role="graphics-symbol" aria-roledescription="area mark" d="M5.547,88.777L6.113,88.134L6.679,87.236L7.244,86.024L7.81,84.436L8.376,82.421L8.942,79.938L10.073,73.527L14.598,36.817L16.861,18.74L17.993,11.039L19.124,5.085L19.69,2.964L20.255,1.468L21.387,0.238L21.953,0.351L22.518,0.816L23.084,1.539L23.65,2.464L24.781,4.892L25.347,6.457L25.912,8.306L26.478,10.452L27.044,12.88L28.175,18.389L30.438,29.989L31.569,34.929L32.701,39.155L37.226,56.507L38.358,60.443L39.489,63.733L41.752,69.267L42.883,71.954L43.449,73.237L44.015,74.427L44.58,75.494L45.146,76.426L45.712,77.232L46.278,77.934L46.843,78.563L47.409,79.147L48.54,80.245L49.106,80.764L49.672,81.255L50.237,81.71L50.803,82.121L51.369,82.488L51.935,82.817L53.066,83.422L53.632,83.738L54.197,84.082L55.329,84.857L55.894,85.259L56.46,85.64L57.026,85.982L57.592,86.274L58.157,86.52L58.723,86.731L59.854,87.12L62.117,87.974L62.683,88.17L63.249,88.344L63.814,88.497L64.38,88.63L64.946,88.748L65.511,88.85L66.077,88.935L66.643,88.998L67.208,89.039L67.774,89.058L68.34,89.059L68.905,89.05L69.471,89.042L70.037,89.042L71.168,89.083L71.734,89.125L72.3,89.177L73.431,89.294L74.562,89.403L75.694,89.492L76.825,89.558L77.957,89.603L82.482,89.781L87.008,89.911L91.533,89.888L93.796,89.96L94.928,89.978L96.059,89.976L100.585,89.925L102.847,89.919L105.11,89.965L109.636,90L114.161,89.997L118.687,89.959L118.687,90L114.161,90L109.636,90L105.11,90L102.847,90L100.585,90L96.059,90L94.928,90L93.796,90L91.533,90L87.008,90L82.482,90L77.957,90L76.825,90L75.694,90L74.562,90L73.431,90L72.3,90L71.734,90L71.168,90L70.037,90L69.471,90L68.905,90L68.34,90L67.774,90L67.208,90L66.643,90L66.077,90L65.511,90L64.946,90L64.38,90L63.814,90L63.249,90L62.683,90L62.117,90L59.854,90L58.723,90L58.157,90L57.592,90L57.026,90L56.46,90L55.894,90L55.329,90L54.197,90L53.632,90L53.066,90L51.935,90L51.369,90L50.803,90L50.237,90L49.672,90L49.106,90L48.54,90L47.409,90L46.843,90L46.278,90L45.712,90L45.146,90L44.58,90L44.015,90L43.449,90L42.883,90L41.752,90L39.489,90L38.358,90L37.226,90L32.701,90L31.569,90L30.438,90L28.175,90L27.044,90L26.478,90L25.912,90L25.347,90L24.781,90L23.65,90L23.084,90L22.518,90L21.953,90L21.387,90L20.255,90L19.69,90L19.124,90L17.993,90L16.861,90L14.598,90L10.073,90L8.942,90L8.376,90L7.81,90L7.244,90L6.679,90L6.113,90L5.547,90Z" fill="#1aa5d3"/></g><g class="mark-symbol role-mark concat_0_layer_1_marks" role="graphics-object" aria-roledescription="symbol mark container"><path aria-label="x: 2632.70531996" role="graphics-symbol" aria-roledescription="point" transform="translate(13.16352659977863,90)" d="M2.739,0A2.739,2.739,0,1,1,-2.739,0A2.739,2.739,0,1,1,2.739,0" stroke="rgb(68, 58, 131)" stroke-width="2" opacity="1"/><path aria-label="x: 3856.66152938" role="graphics-symbol" aria-roledescription="point" transform="translate(19.283307646902994,90)" d="M2.739,0A2.739,2.739,0,1,1,-2.739,0A2.739,2.739,0,1,1,2.739,0" stroke="rgb(49, 104, 142)" stroke-width="2" opacity="1"/><path aria-label="x: 4992.51451891" role="graphics-symbol" aria-roledescription="point" transform="translate(24.962572594559294,90)" d="M2.739,0A2.739,2.739,0,1,1,-2.739,0A2.739,2.739,0,1,1,2.739,0" stroke="rgb(33, 145, 141)" stroke-width="2" opacity="1"/><path aria-label="x: 6474.37833841" role="graphics-symbol" aria-roledescription="point" transform="translate(32.37189169205376,90)" d="M2.739,0A2.739,2.739,0,1,1,-2.739,0A2.739,2.739,0,1,1,2.739,0" stroke="rgb(53, 183, 121)" stroke-width="2" opacity="1"/><path aria-label="x: 9429.94973157" role="graphics-symbol" aria-roledescription="point" transform="translate(47.14974865786015,90)" d="M2.739,0A2.739,2.739,0,1,1,-2.739,0A2.739,2.739,0,1,1,2.739,0" stroke="rgb(143, 215, 68)" stroke-width="2" opacity="1"/></g></g><path class="foreground" aria-hidden="true" d="" display="none"/></g></g><g class="mark-group role-scope concat_1_group" role="graphics-object" aria-roledescription="group mark container"><g transform="translate(193,0)"><path class="background" aria-hidden="true" d="M0.5,0.5h120v90h-120Z"/><g><g class="mark-group role-axis" role="graphics-symbol" aria-roledescription="axis" aria-label="X-axis titled 'Amplitude' for a linear scale with values from 0 to 12,000"><g transform="translate(0.5,90.5)"><path class="background" aria-hidden="true" d="M0,0h0v0h0Z" pointer-events="none"/><g><g class="mark-rule role-axis-tick" pointer-events="none"><line transform="translate(0,0)" x2="0" y2="3" stroke="black" stroke-width="1" opacity="1"/><line transform="translate(50,0)" x2="0" y2="3" stroke="black" stroke-width="1" opacity="1"/><line transform="translate(100,0)" x2="0" y2="3" stroke="black" stroke-width="1" opacity="1"/></g><g class="mark-text role-axis-label" pointer-events="none"><text text-anchor="start" transform="translate(0,13)" font-family="Arial" font-size="10px" fill="#000" opacity="1">0</text><text text-anchor="middle" transform="translate(50,13)" font-family="Arial" font-size="10px" fill="#000" opacity="1">5,000</text><text text-anchor="middle" transform="translate(100,13)" font-family="Arial" font-size="10px" fill="#000" opacity="1">10,000</text></g><g class="mark-rule role-axis-domain" pointer-events="none"><line transform="translate(0,0)" x2="120" y2="0" stroke="black" stroke-width="1" opacity="1"/></g><g class="mark-text role-axis-title" pointer-events="none"><text text-anchor="middle" transform="translate(60,28)" font-family="Arial" font-size="11px" font-weight="normal" fill="#000" opacity="1">Amplitude</text></g></g><path class="foreground" aria-hidden="true" d="" pointer-events="none" display="none"/></g></g><g class="mark-group role-axis" role="graphics-symbol" aria-roledescription="axis" aria-label="Y-axis titled 'Density' for a linear scale with values from 0.0000 to 0.0005"><g transform="translate(0.5,0.5)"><path class="background" aria-hidden="true" d="M0,0h0v0h0Z" pointer-events="none"/><g><g class="mark-rule role-axis-tick" pointer-events="none"><line transform="translate(0,90)" x2="-3" y2="0" stroke="black" stroke-width="1" opacity="1"/><line transform="translate(0,54)" x2="-3" y2="0" stroke="black" stroke-width="1" opacity="1"/><line transform="translate(0,18)" x2="-3" y2="0" stroke="black" stroke-width="1" opacity="1"/></g><g class="mark-text role-axis-label" pointer-events="none"><text text-anchor="end" transform="translate(-5,93)" font-family="Arial" font-size="10px" fill="#000" opacity="1">0.0000</text><text text-anchor="end" transform="translate(-5,57)" font-family="Arial" font-size="10px" fill="#000" opacity="1">0.0002</text><text text-anchor="end" transform="translate(-5,20.999999999999996)" font-family="Arial" font-size="10px" fill="#000" opacity="1">0.0004</text></g><g class="mark-rule role-axis-domain" pointer-events="none"><line transform="translate(0,90)" x2="0" y2="-90" stroke="black" stroke-width="1" opacity="1"/></g><g class="mark-text role-axis-title" pointer-events="none"><text text-anchor="middle" transform="translate(-39.5859375,45) rotate(-90) translate(0,-2)" font-family="Arial" font-size="11px" font-weight="normal" fill="#000" opacity="1">Density</text></g></g><path class="foreground" aria-hidden="true" d="" pointer-events="none" display="none"/></g></g><g class="mark-area role-mark concat_1_layer_0_marks" role="graphics-object" aria-roledescription="area mark container"><path aria-label="value: 370.486972934; density: 0.0000033564117659" role="graphics-symbol" aria-roledescription="area mark" d="M3.705,89.396L4.796,88.414L5.342,87.561L5.888,86.379L6.979,82.759L8.071,77.105L12.437,41.974L14.62,24.557L15.711,16.713L16.257,13.312L16.803,10.446L17.894,6.747L18.44,5.987L18.985,5.879L20.077,6.98L21.168,8.709L21.714,9.624L22.26,10.665L23.351,13.665L24.443,18.201L25.534,23.705L27.717,35.403L28.263,37.863L28.809,39.95L29.9,43.369L30.992,46.831L32.083,51.028L34.266,59.959L34.812,61.913L35.358,63.657L36.449,66.463L37.54,68.769L38.632,71.244L39.723,73.965L40.815,76.417L41.906,78.124L42.998,79.244L45.181,81.288L46.272,82.259L47.364,83.05L47.909,83.352L48.455,83.595L49.547,84.018L50.638,84.625L51.73,85.493L52.821,86.322L53.913,86.834L55.004,87.096L56.095,87.397L58.278,88.318L59.37,88.615L60.461,88.827L61.553,89.038L62.644,89.179L63.736,89.179L64.827,89.108L65.919,89.086L67.01,89.151L69.193,89.401L71.376,89.569L72.468,89.63L73.559,89.65L77.925,89.817L82.291,89.941L83.382,89.934L84.474,89.887L85.565,89.857L86.657,89.889L87.748,89.949L88.84,89.985L89.931,89.993L91.023,89.981L95.388,89.932L96.48,89.91L97.571,89.913L99.754,89.98L104.12,90L108.486,89.999L112.852,89.952L112.852,90L108.486,90L104.12,90L99.754,90L97.571,90L96.48,90L95.388,90L91.023,90L89.931,90L88.84,90L87.748,90L86.657,90L85.565,90L84.474,90L83.382,90L82.291,90L77.925,90L73.559,90L72.468,90L71.376,90L69.193,90L67.01,90L65.919,90L64.827,90L63.736,90L62.644,90L61.553,90L60.461,90L59.37,90L58.278,90L56.095,90L55.004,90L53.913,90L52.821,90L51.73,90L50.638,90L49.547,90L48.455,90L47.909,90L47.364,90L46.272,90L45.181,90L42.998,90L41.906,90L40.815,90L39.723,90L38.632,90L37.54,90L36.449,90L35.358,90L34.812,90L34.266,90L32.083,90L30.992,90L29.9,90L28.809,90L28.263,90L27.717,90L25.534,90L24.443,90L23.351,90L22.26,90L21.714,90L21.168,90L20.077,90L18.985,90L18.44,90L17.894,90L16.803,90L16.257,90L15.711,90L14.62,90L12.437,90L8.071,90L6.979,90L5.888,90L5.342,90L4.796,90L3.705,90Z" fill="#1aa5d3"/></g><g class="mark-symbol role-mark concat_1_layer_1_marks" role="graphics-object" aria-roledescription="symbol mark container"><path aria-label="x: 1121.38330662" role="graphics-symbol" aria-roledescription="point" transform="translate(11.213833066210654,90)" d="M2.739,0A2.739,2.739,0,1,1,-2.739,0A2.739,2.739,0,1,1,2.739,0" stroke="rgb(68, 58, 131)" stroke-width="2" opacity="1"/><path aria-label="x: 1704.66741305" role="graphics-symbol" aria-roledescription="point" transform="translate(17.046674130511928,90)" d="M2.739,0A2.739,2.739,0,1,1,-2.739,0A2.739,2.739,0,1,1,2.739,0" stroke="rgb(49, 104, 142)" stroke-width="2" opacity="1"/><path aria-label="x: 2244.84233046" role="graphics-symbol" aria-roledescription="point" transform="translate(22.44842330460575,90)" d="M2.739,0A2.739,2.739,0,1,1,-2.739,0A2.739,2.739,0,1,1,2.739,0" stroke="rgb(33, 145, 141)" stroke-width="2" opacity="1"/><path aria-label="x: 2949.84082134" role="graphics-symbol" aria-roledescription="point" transform="translate(29.498408213377402,90)" d="M2.739,0A2.739,2.739,0,1,1,-2.739,0A2.739,2.739,0,1,1,2.739,0" stroke="rgb(53, 183, 121)" stroke-width="2" opacity="1"/><path aria-label="x: 4361.48770689" role="graphics-symbol" aria-roledescription="point" transform="translate(43.61487706888283,90)" d="M2.739,0A2.739,2.739,0,1,1,-2.739,0A2.739,2.739,0,1,1,2.739,0" stroke="rgb(143, 215, 68)" stroke-width="2" opacity="1"/></g></g><path class="foreground" aria-hidden="true" d="" display="none"/></g></g><g class="mark-group role-scope concat_2_group" role="graphics-object" aria-roledescription="group mark container"><g transform="translate(375,0)"><path class="background" aria-hidden="true" d="M0.5,0.5h120v90h-120Z"/><g><g class="mark-group role-axis" role="graphics-symbol" aria-roledescription="axis" aria-label="X-axis titled 'Period (mins)' for a linear scale with values from 48 to 74"><g transform="translate(0.5,90.5)"><path class="background" aria-hidden="true" d="M0,0h0v0h0Z" pointer-events="none"/><g><g class="mark-rule role-axis-tick" pointer-events="none"><line transform="translate(9,0)" x2="0" y2="3" stroke="black" stroke-width="1" opacity="1"/><line transform="translate(55,0)" x2="0" y2="3" stroke="black" stroke-width="1" opacity="1"/><line transform="translate(102,0)" x2="0" y2="3" stroke="black" stroke-width="1" opacity="1"/></g><g class="mark-text role-axis-label" pointer-events="none"><text text-anchor="middle" transform="translate(9.230769230769232,13)" font-family="Arial" font-size="10px" fill="#000" opacity="1">50</text><text text-anchor="middle" transform="translate(55.38461538461539,13)" font-family="Arial" font-size="10px" fill="#000" opacity="1">60</text><text text-anchor="middle" transform="translate(101.53846153846153,13)" font-family="Arial" font-size="10px" fill="#000" opacity="1">70</text></g><g class="mark-rule role-axis-domain" pointer-events="none"><line transform="translate(0,0)" x2="120" y2="0" stroke="black" stroke-width="1" opacity="1"/></g><g class="mark-text role-axis-title" pointer-events="none"><text text-anchor="middle" transform="translate(60,28)" font-family="Arial" font-size="11px" font-weight="normal" fill="#000" opacity="1">Period (mins)</text></g></g><path class="foreground" aria-hidden="true" d="" pointer-events="none" display="none"/></g></g><g class="mark-group role-axis" role="graphics-symbol" aria-roledescription="axis" aria-label="Y-axis titled 'Density' for a linear scale with values from 0.00 to 0.12"><g transform="translate(0.5,0.5)"><path class="background" aria-hidden="true" d="M0,0h0v0h0Z" pointer-events="none"/><g><g class="mark-rule role-axis-tick" pointer-events="none"><line transform="translate(0,90)" x2="-3" y2="0" stroke="black" stroke-width="1" opacity="1"/><line transform="translate(0,52)" x2="-3" y2="0" stroke="black" stroke-width="1" opacity="1"/><line transform="translate(0,15)" x2="-3" y2="0" stroke="black" stroke-width="1" opacity="1"/></g><g class="mark-text role-axis-label" pointer-events="none"><text text-anchor="end" transform="translate(-5,93)" font-family="Arial" font-size="10px" fill="#000" opacity="1">0.00</text><text text-anchor="end" transform="translate(-5,55.49999999999999)" font-family="Arial" font-size="10px" fill="#000" opacity="1">0.05</text><text text-anchor="end" transform="translate(-5,17.999999999999996)" font-family="Arial" font-size="10px" fill="#000" opacity="1">0.10</text></g><g class="mark-rule role-axis-domain" pointer-events="none"><line transform="translate(0,90)" x2="0" y2="-90" stroke="black" stroke-width="1" opacity="1"/></g><g class="mark-text role-axis-title" pointer-events="none"><text text-anchor="middle" transform="translate(-28.462890625,45) rotate(-90) translate(0,-2)" font-family="Arial" font-size="11px" font-weight="normal" fill="#000" opacity="1">Density</text></g></g><path class="foreground" aria-hidden="true" d="" pointer-events="none" display="none"/></g></g><g class="mark-area role-mark concat_2_layer_0_marks" role="graphics-object" aria-roledescription="area mark container"><path aria-label="value: 49.653398702; density: 0.00246683115165" role="graphics-symbol" aria-roledescription="area mark" d="M7.631,88.15L8.167,87.952L8.703,87.737L9.239,87.502L9.775,87.248L10.311,86.973L10.847,86.676L11.383,86.355L11.919,86.009L12.992,85.238L13.528,84.81L14.064,84.353L14.6,83.864L15.136,83.343L15.672,82.788L16.208,82.199L17.28,80.912L17.816,80.212L18.352,79.474L18.888,78.696L19.424,77.877L19.96,77.018L20.496,76.117L21.568,74.19L22.64,72.092L23.713,69.825L24.785,67.39L26.929,62.038L29.073,56.109L33.361,43.031L37.65,29.623L39.794,23.406L40.866,20.535L41.938,17.866L43.01,15.428L43.546,14.306L44.082,13.251L45.155,11.359L45.691,10.527L46.227,9.773L46.763,9.101L47.299,8.512L47.835,8.007L48.371,7.588L48.907,7.255L49.443,7.01L49.979,6.853L50.515,6.784L51.587,6.908L52.123,7.1L52.659,7.378L53.195,7.74L53.731,8.185L54.267,8.712L54.803,9.317L55.34,9.999L55.876,10.755L56.412,11.584L56.948,12.481L58.02,14.472L59.092,16.703L60.164,19.146L61.236,21.773L63.38,27.465L67.669,39.784L71.957,51.953L74.101,57.568L76.245,62.725L77.318,65.111L78.39,67.362L79.462,69.476L80.534,71.453L81.606,73.293L82.678,74.999L83.75,76.574L84.286,77.314L84.822,78.023L85.358,78.701L85.894,79.349L86.43,79.969L86.966,80.56L87.503,81.123L88.039,81.66L88.575,82.17L89.111,82.655L89.647,83.116L90.183,83.553L90.719,83.967L91.255,84.36L91.791,84.73L92.327,85.081L92.863,85.412L93.399,85.724L94.471,86.294L95.007,86.555L95.543,86.799L96.079,87.028L96.615,87.243L97.151,87.444L97.687,87.633L98.224,87.809L98.76,87.973L99.296,88.127L99.832,88.27L100.368,88.403L100.904,88.527L101.44,88.642L101.976,88.749L103.048,88.94L104.12,89.105L105.192,89.245L106.264,89.365L107.336,89.467L108.409,89.553L110.553,89.688L114.841,89.85L114.841,90L110.553,90L108.409,90L107.336,90L106.264,90L105.192,90L104.12,90L103.048,90L101.976,90L101.44,90L100.904,90L100.368,90L99.832,90L99.296,90L98.76,90L98.224,90L97.687,90L97.151,90L96.615,90L96.079,90L95.543,90L95.007,90L94.471,90L93.399,90L92.863,90L92.327,90L91.791,90L91.255,90L90.719,90L90.183,90L89.647,90L89.111,90L88.575,90L88.039,90L87.503,90L86.966,90L86.43,90L85.894,90L85.358,90L84.822,90L84.286,90L83.75,90L82.678,90L81.606,90L80.534,90L79.462,90L78.39,90L77.318,90L76.245,90L74.101,90L71.957,90L67.669,90L63.38,90L61.236,90L60.164,90L59.092,90L58.02,90L56.948,90L56.412,90L55.876,90L55.34,90L54.803,90L54.267,90L53.731,90L53.195,90L52.659,90L52.123,90L51.587,90L50.515,90L49.979,90L49.443,90L48.907,90L48.371,90L47.835,90L47.299,90L46.763,90L46.227,90L45.691,90L45.155,90L44.082,90L43.546,90L43.01,90L41.938,90L40.866,90L39.794,90L37.65,90L33.361,90L29.073,90L26.929,90L24.785,90L23.713,90L22.64,90L21.568,90L20.496,90L19.96,90L19.424,90L18.888,90L18.352,90L17.816,90L17.28,90L16.208,90L15.672,90L15.136,90L14.6,90L14.064,90L13.528,90L12.992,90L11.919,90L11.383,90L10.847,90L10.311,90L9.775,90L9.239,90L8.703,90L8.167,90L7.631,90Z" fill="#1aa5d3"/></g><g class="mark-symbol role-mark concat_2_layer_1_marks" role="graphics-object" aria-roledescription="symbol mark container"><path aria-label="x: 54.4631054228" role="graphics-symbol" aria-roledescription="point" transform="translate(29.829717335980185,90)" d="M2.739,0A2.739,2.739,0,1,1,-2.739,0A2.739,2.739,0,1,1,2.739,0" stroke="rgb(68, 58, 131)" stroke-width="2" opacity="1"/><path aria-label="x: 57.0803714008" role="graphics-symbol" aria-roledescription="point" transform="translate(41.90940646532183,90)" d="M2.739,0A2.739,2.739,0,1,1,-2.739,0A2.739,2.739,0,1,1,2.739,0" stroke="rgb(49, 104, 142)" stroke-width="2" opacity="1"/><path aria-label="x: 59.3227608836" role="graphics-symbol" aria-roledescription="point" transform="translate(52.25889638572041,90)" d="M2.739,0A2.739,2.739,0,1,1,-2.739,0A2.739,2.739,0,1,1,2.739,0" stroke="rgb(33, 145, 141)" stroke-width="2" opacity="1"/><path aria-label="x: 61.365550717" role="graphics-symbol" aria-roledescription="point" transform="translate(61.68715715521208,90)" d="M2.739,0A2.739,2.739,0,1,1,-2.739,0A2.739,2.739,0,1,1,2.739,0" stroke="rgb(53, 183, 121)" stroke-width="2" opacity="1"/><path aria-label="x: 64.4143906976" role="graphics-symbol" aria-roledescription="point" transform="translate(75.75872629657222,90)" d="M2.739,0A2.739,2.739,0,1,1,-2.739,0A2.739,2.739,0,1,1,2.739,0" stroke="rgb(143, 215, 68)" stroke-width="2" opacity="1"/></g></g><path class="foreground" aria-hidden="true" d="" display="none"/></g></g></g><path class="foreground" aria-hidden="true" d="" display="none"/></g></g></g></svg>