<svg xmlns="http://www.w3.org/2000/svg" xmlns:xlink="http://www.w3.org/1999/xlink" version="1.1" class="marks" width="541" height="137" viewBox="0 0 541 137"><rect width="541" height="137" fill="white"/><g fill="none" stroke-miterlimit="10" transform="translate(40,11)"><g class="mark-group role-frame root" role="graphics-object" aria-roledescription="group mark container"><g transform="translate(0,0)"><path class="background" aria-hidden="true" d="M0,0h0v90h0Z"/><g><g class="mark-group role-scope concat_0_group" role="graphics-object" aria-roledescription="group mark container"><g transform="translate(0,0)"><path class="background" aria-hidden="true" d="M0.5,0.5h120v90h-120Z"/><g><g class="mark-group role-axis" role="graphics-symbol" aria-roledescription="axis" aria-label="X-axis titled 'Protein half-life (mins)' for a linear scale with values from 2 to 9"><g transform="translate(0.5,90.5)"><path class="background" aria-hidden="true" d="M0,0h0v0h0Z" pointer-events="none"/><g><g class="mark-rule role-axis-tick" pointer-events="none"><line transform="translate(0,0)" x2="0" y2="3" stroke="black" stroke-width="1" opacity="1"/><line transform="translate(37,0)" x2="0" y2="3" stroke="black" stroke-width="1" opacity="1"/><line transform="translate(74,0)" x2="0" y2="3" stroke="black" stroke-width="1" opacity="1"/><line transform="translate(111,0)" x2="0" y2="3" stroke="black" stroke-width="1" opacity="1"/></g><g class="mark-text role-axis-label" pointer-events="none"><text text-anchor="start" transform="translate(0,13)" font-family="Arial" font-size="10px" fill="#000" opacity="1">2</text><text text-anchor="middle" transform="translate(36.92307692307693,13)" font-family="Arial" font-size="10px" fill="#000" opacity="1">4</text><text text-anchor="middle" transform="translate(73.84615384615385,13)" font-family="Arial" font-size="10px" fill="#000" opacity="1">6</text><text text-anchor="middle" transform="translate(110.76923076923077,13)" font-family="Arial" font-size="10px" fill="#000" opacity="1">8</text></g><g class="mark-rule role-axis-domain" pointer-events="none"><line transform="translate(0,0)" x2="120" y2="0" stroke="black" stroke-width="1" opacity="1"/></g><g class="mark-text role-axis-title" pointer-events="none"><text text-anchor="middle" transform="translate(60,28)" font-family="Arial" font-size="11px" font-weight="normal" fill="#000" opacity="1">Protein half-life (mins)</text></g></g><path class="foreground" aria-hidden="true" d="" pointer-events="none" display="none"/></g></g><g class="mark-group role-axis" role="graphics-symbol" aria-roledescription="axis" aria-label="Y-axis titled 'Density' for a linear scale with values from 0.0 to 0.6"><g transform="translate(0.5,0.5)"><path class="background" aria-hidden="true" d="M0,0h0v0h0Z" pointer-events="none"/><g><g class="mark-rule role-axis-tick" pointer-events="none"><line transform="translate(0,90)" x2="-3" y2="0" stroke="black" stroke-width="1" opacity="1"/><line transform="translate(0,60)" x2="-3" y2="0" stroke="black" stroke-width="1" opacity="1"/><line transform="translate(0,30)" x2="-3" y2="0" stroke="black" stroke-width="1" opacity="1"/><line transform="translate(0,0)" x2="-3" y2="0" stroke="black" stroke-width="1" opacity="1"/></g><g class="mark-text role-axis-label" pointer-events="none"><text text-anchor="end" transform="translate(-5,93)" font-family="Arial" font-size="10px" fill="#000" opacity="1">0.0</text><text text-anchor="end" transform="translate(-5,63)" font-family="Arial" font-size="10px" fill="#000" opacity="1">0.2</text><text text-anchor="end" transform="translate(-5,32.99999999999999)" font-family="Arial" font-size="10px" fill="#000" opacity="1">0.4</text><text text-anchor="end" transform="translate(-5,3)" font-family="Arial" font-size="10px" fill="#000" opacity="1">0.6</text></g><g class="mark-rule role-axis-domain" pointer-events="none"><line transform="translate(0,90)" x2="0" y2="-90" stroke="black" stroke-width="1" opacity="1"/></g><g class="mark-text role-axis-title" pointer-events="none"><text text-anchor="middle" transform="translate(-22.9013671875,45) rotate(-90) translate(0,-2)" font-family="Arial" font-size="11px" font-weight="normal" fill="#000" opacity="1">Density</text></g></g><path class="foreground" aria-hidden="true" d="" pointer-events="none" display="none"/></g></g><g class="mark-area role-mark concat_0_layer_0_marks" role="graphics-object" aria-roledescription="area mark container"><path aria-label="value: 2.02207040403; density: 0.00215463239772" role="graphics-symbol" aria-roledescription="area mark" d="M0.407,89.677L1.526,89.508L2.644,89.264L3.203,89.105L3.763,88.916L4.881,88.426L5.44,88.116L5.999,87.754L7.118,86.854L7.677,86.305L8.236,85.682L9.355,84.193L9.914,83.319L10.473,82.352L11.591,80.132L12.71,77.522L13.828,74.526L14.947,71.167L16.065,67.482L18.302,59.322L22.775,41.266L27.249,23.888L28.367,20.108L29.486,16.672L30.604,13.647L31.163,12.313L31.723,11.113L32.841,9.154L33.959,7.834L34.519,7.426L35.078,7.185L36.196,7.197L37.315,7.828L37.874,8.359L38.433,9.025L39.551,10.739L40.111,11.776L40.67,12.927L41.229,14.188L41.788,15.552L42.907,18.566L45.143,25.473L49.617,40.499L54.09,54.472L55.209,57.558L56.327,60.424L57.446,63.069L58.564,65.512L59.682,67.783L60.801,69.913L61.919,71.925L63.038,73.827L64.156,75.617L65.274,77.281L66.393,78.808L66.952,79.518L67.511,80.191L68.07,80.829L68.63,81.433L69.748,82.544L70.307,83.054L70.866,83.536L71.426,83.992L71.985,84.421L72.544,84.825L73.103,85.204L74.222,85.889L74.781,86.196L75.34,86.48L75.899,86.742L76.458,86.983L77.018,87.206L77.577,87.411L78.695,87.776L79.254,87.94L79.814,88.093L80.373,88.237L80.932,88.373L82.05,88.624L83.169,88.85L84.287,89.054L85.406,89.236L86.524,89.394L87.642,89.529L88.761,89.64L89.879,89.729L90.998,89.798L92.116,89.85L94.353,89.919L98.826,89.979L103.3,89.975L107.774,89.959L112.247,89.963L112.247,90L107.774,90L103.3,90L98.826,90L94.353,90L92.116,90L90.998,90L89.879,90L88.761,90L87.642,90L86.524,90L85.406,90L84.287,90L83.169,90L82.05,90L80.932,90L80.373,90L79.814,90L79.254,90L78.695,90L77.577,90L77.018,90L76.458,90L75.899,90L75.34,90L74.781,90L74.222,90L73.103,90L72.544,90L71.985,90L71.426,90L70.866,90L70.307,90L69.748,90L68.63,90L68.07,90L67.511,90L66.952,90L66.393,90L65.274,90L64.156,90L63.038,90L61.919,90L60.801,90L59.682,90L58.564,90L57.446,90L56.327,90L55.209,90L54.09,90L49.617,90L45.143,90L42.907,90L41.788,90L41.229,90L40.67,90L40.111,90L39.551,90L38.433,90L37.874,90L37.315,90L36.196,90L35.078,90L34.519,90L33.959,90L32.841,90L31.723,90L31.163,90L30.604,90L29.486,90L28.367,90L27.249,90L22.775,90L18.302,90L16.065,90L14.947,90L13.828,90L12.71,90L11.591,90L10.473,90L9.914,90L9.355,90L8.236,90L7.677,90L7.118,90L5.999,90L5.44,90L4.881,90L3.763,90L3.203,90L2.644,90L1.526,90L0.407,90Z" fill="#a373e3"/></g><g class="mark-symbol role-mark concat_0_layer_1_marks" role="graphics-object" aria-roledescription="symbol mark container"><path aria-label="x: 2.98977289461" role="graphics-symbol" aria-roledescription="point" transform="translate(18.27273036210415,90)" d="M2.739,0A2.739,2.739,0,1,1,-2.739,0A2.739,2.739,0,1,1,2.739,0" stroke="rgb(68, 58, 131)" stroke-width="2" opacity="1"/><path aria-label="x: 3.56254872583" role="graphics-symbol" aria-roledescription="point" transform="translate(28.847053400026123,90)" d="M2.739,0A2.739,2.739,0,1,1,-2.739,0A2.739,2.739,0,1,1,2.739,0" stroke="rgb(49, 104, 142)" stroke-width="2" opacity="1"/><path aria-label="x: 4.0166095645" role="graphics-symbol" aria-roledescription="point" transform="translate(37.22971503684525,90)" d="M2.739,0A2.739,2.739,0,1,1,-2.739,0A2.739,2.739,0,1,1,2.739,0" stroke="rgb(33, 145, 141)" stroke-width="2" opacity="1"/><path aria-label="x: 4.51413013465" role="graphics-symbol" aria-roledescription="point" transform="translate(46.41471017823448,90)" d="M2.739,0A2.739,2.739,0,1,1,-2.739,0A2.739,2.739,0,1,1,2.739,0" stroke="rgb(53, 183, 121)" stroke-width="2" opacity="1"/><path aria-label="x: 5.34916165492" role="graphics-symbol" aria-roledescription="point" transform="translate(61.830676706258934,90)" d="M2.739,0A2.739,2.739,0,1,1,-2.739,0A2.739,2.739,0,1,1,2.739,0" stroke="rgb(143, 215, 68)" stroke-width="2" opacity="1"/></g></g><path class="foreground" aria-hidden="true" d="" display="none"/></g></g><g class="mark-group role-scope concat_1_group" role="graphics-object" aria-roledescription="group mark container"><g transform="translate(193,0)"><path class="background" aria-hidden="true" d="M0.5,0.5h120v90h-120Z"/><g><g class="mark-group role-axis" role="graphics-symbol" aria-roledescription="axis" aria-label="X-axis titled 'Amplitude' for a linear scale with values from 1,200 to 3,400"><g transform="translate(0.5,90.5)"><path class="background" aria-hidden="true" d="M0,0h0v0h0Z" pointer-events="none"/><g><g class="mark-rule role-axis-tick" pointer-events="none"><line transform="translate(44,0)" x2="0" y2="3" stroke="black" stroke-width="1" opacity="1"/><line transform="translate(98,0)" x2="0" y2="3" stroke="black" stroke-width="1" opacity="1"/></g><g class="mark-text role-axis-label" pointer-events="none"><text text-anchor="middle" transform="translate(43.63636363636364,13)" font-family="Arial" font-size="10px" fill="#000" opacity="1">2,000</text><text text-anchor="middle" transform="translate(98.18181818181819,13)" font-family="Arial" font-size="10px" fill="#000" opacity="1">3,000</text></g><g class="mark-rule role-axis-domain" pointer-events="none"><line transform="translate(0,0)" x2="120" y2="0" stroke="black" stroke-width="1" opacity="1"/></g><g class="mark-text role-axis-title" pointer-events="none"><text text-anchor="middle" transform="translate(60,28)" font-family="Arial" font-size="11px" font-weight="normal" fill="#000" opacity="1">Amplitude</text></g></g><path class="foreground" aria-hidden="true" d="" pointer-events="none" display="none"/></g></g><g class="mark-group role-axis" role="graphics-symbol" aria-roledescription="axis" aria-label="Y-axis titled 'Density' for a linear scale with values from 0.0000 to 0.0014"><g transform="translate(0.5,0.5)"><path class="background" aria-hidden="true" d="M0,0h0v0h0Z" pointer-events="none"/><g><g class="mark-rule role-axis-tick" pointer-events="none"><line transform="translate(0,90)" x2="-3" y2="0" stroke="black" stroke-width="1" opacity="1"/><line transform="translate(0,58)" x2="-3" y2="0" stroke="black" stroke-width="1" opacity="1"/><line transform="translate(0,26)" x2="-3" y2="0" stroke="black" stroke-width="1" opacity="1"/></g><g class="mark-text role-axis-label" pointer-events="none"><text text-anchor="end" transform="translate(-5,93)" font-family="Arial" font-size="10px" fill="#000" opacity="1">0.0000</text><text text-anchor="end" transform="translate(-5,60.857142857142854)" font-family="Arial" font-size="10px" fill="#000" opacity="1">0.0005</text><text text-anchor="end" transform="translate(-5,28.71428571428571)" font-family="Arial" font-size="10px" fill="#000" opacity="1">0.0010</text></g><g class="mark-rule role-axis-domain" pointer-events="none"><line transform="translate(0,90)" x2="0" y2="-90" stroke="black" stroke-width="1" opacity="1"/></g><g class="mark-text role-axis-title" pointer-events="none"><text text-anchor="middle" transform="translate(-39.5859375,45) rotate(-90) translate(0,-2)" font-family="Arial" font-size="11px" font-weight="normal" fill="#000" opacity="1">Density</text></g></g><path class="foreground" aria-hidden="true" d="" pointer-events="none" display="none"/></g></g><g class="mark-area role-mark concat_1_layer_0_marks" role="graphics-object" aria-roledescription="area mark container"><path aria-label="value: 1206.5705702; density: 0.00000186374980728" role="graphics-symbol" aria-roledescription="area mark" d="M0.358,89.88L2.745,89.791L5.132,89.659L6.325,89.569L7.518,89.455L8.711,89.305L9.308,89.213L9.905,89.107L10.501,88.986L11.098,88.848L11.695,88.691L12.291,88.514L12.888,88.316L13.485,88.095L14.081,87.851L14.678,87.583L15.871,86.971L16.468,86.624L17.065,86.248L17.661,85.84L18.258,85.4L18.854,84.923L19.451,84.408L20.048,83.852L20.644,83.253L21.241,82.609L21.838,81.917L22.434,81.179L23.031,80.392L23.628,79.557L24.224,78.676L25.418,76.779L26.611,74.71L27.804,72.481L28.998,70.099L31.384,64.889L33.771,59.124L38.544,46.168L43.317,32.097L48.09,18.717L49.284,15.669L50.477,12.845L51.074,11.546L51.67,10.336L52.267,9.227L52.863,8.227L53.46,7.344L54.057,6.582L54.653,5.945L55.25,5.43L55.847,5.039L56.443,4.766L57.04,4.608L57.637,4.563L58.233,4.627L58.83,4.799L59.427,5.077L60.023,5.462L60.62,5.956L61.217,6.559L61.813,7.273L62.41,8.1L63.006,9.037L63.603,10.084L64.2,11.237L64.796,12.49L65.393,13.837L65.99,15.27L67.183,18.357L71.956,32.435L76.729,47.115L79.116,53.875L81.503,60.024L83.889,65.661L86.276,70.821L87.469,73.186L88.662,75.381L89.856,77.39L90.452,78.323L91.049,79.206L91.646,80.042L92.242,80.829L92.839,81.569L93.436,82.263L94.032,82.912L94.629,83.516L95.225,84.079L95.822,84.601L97.015,85.534L97.612,85.949L98.209,86.332L98.805,86.687L99.402,87.016L99.999,87.321L100.595,87.603L101.192,87.864L101.789,88.106L102.385,88.328L102.982,88.533L103.579,88.72L104.175,88.89L104.772,89.044L105.369,89.182L105.965,89.305L106.562,89.413L107.158,89.507L107.755,89.589L108.352,89.659L108.948,89.718L109.545,89.767L110.142,89.807L111.335,89.866L112.528,89.901L114.915,89.928L119.688,89.941L119.688,90L114.915,90L112.528,90L111.335,90L110.142,90L109.545,90L108.948,90L108.352,90L107.755,90L107.158,90L106.562,90L105.965,90L105.369,90L104.772,90L104.175,90L103.579,90L102.982,90L102.385,90L101.789,90L101.192,90L100.595,90L99.999,90L99.402,90L98.805,90L98.209,90L97.612,90L97.015,90L95.822,90L95.225,90L94.629,90L94.032,90L93.436,90L92.839,90L92.242,90L91.646,90L91.049,90L90.452,90L89.856,90L88.662,90L87.469,90L86.276,90L83.889,90L81.503,90L79.116,90L76.729,90L71.956,90L67.183,90L65.99,90L65.393,90L64.796,90L64.2,90L63.603,90L63.006,90L62.41,90L61.813,90L61.217,90L60.62,90L60.023,90L59.427,90L58.83,90L58.233,90L57.637,90L57.04,90L56.443,90L55.847,90L55.25,90L54.653,90L54.057,90L53.46,90L52.863,90L52.267,90L51.67,90L51.074,90L50.477,90L49.284,90L48.09,90L43.317,90L38.544,90L33.771,90L31.384,90L28.998,90L27.804,90L26.611,90L25.418,90L24.224,90L23.628,90L23.031,90L22.434,90L21.838,90L21.241,90L20.644,90L20.048,90L19.451,90L18.854,90L18.258,90L17.661,90L17.065,90L16.468,90L15.871,90L14.678,90L14.081,90L13.485,90L12.888,90L12.291,90L11.695,90L11.098,90L10.501,90L9.905,90L9.308,90L8.711,90L7.518,90L6.325,90L5.132,90L2.745,90L0.358,90Z" fill="#a373e3"/></g><g class="mark-symbol role-mark concat_1_layer_1_marks" role="graphics-object" aria-roledescription="symbol mark container"><path aria-label="x: 1774.33826806" role="graphics-symbol" aria-roledescription="point" transform="translate(31.327541894265494,90)" d="M2.739,0A2.739,2.739,0,1,1,-2.739,0A2.739,2.739,0,1,1,2.739,0" stroke="rgb(68, 58, 131)" stroke-width="2" opacity="1"/><path aria-label="x: 2056.58339892" role="graphics-symbol" aria-roledescription="point" transform="translate(46.722730850371875,90)" d="M2.739,0A2.739,2.739,0,1,1,-2.739,0A2.739,2.739,0,1,1,2.739,0" stroke="rgb(49, 104, 142)" stroke-width="2" opacity="1"/><path aria-label="x: 2255.0097241" role="graphics-symbol" aria-roledescription="point" transform="translate(57.54598495086404,90)" d="M2.739,0A2.739,2.739,0,1,1,-2.739,0A2.739,2.739,0,1,1,2.739,0" stroke="rgb(33, 145, 141)" stroke-width="2" opacity="1"/><path aria-label="x: 2450.50845938" role="graphics-symbol" aria-roledescription="point" transform="translate(68.2095523299358,90)" d="M2.739,0A2.739,2.739,0,1,1,-2.739,0A2.739,2.739,0,1,1,2.739,0" stroke="rgb(53, 183, 121)" stroke-width="2" opacity="1"/><path aria-label="x: 2733.76247471" role="graphics-symbol" aria-roledescription="point" transform="translate(83.65977134787695,90)" d="M2.739,0A2.739,2.739,0,1,1,-2.739,0A2.739,2.739,0,1,1,2.739,0" stroke="rgb(143, 215, 68)" stroke-width="2" opacity="1"/></g></g><path class="foreground" aria-hidden="true" d="" display="none"/></g></g><g class="mark-group role-scope concat_2_group" role="graphics-object" aria-roledescription="group mark container"><g transform="translate(375,0)"><path class="background" aria-hidden="true" d="M0.5,0.5h120v90h-120Z"/><g><g class="mark-group role-axis" role="graphics-symbol" aria-roledescription="axis" aria-label="X-axis titled 'Period (mins)' for a linear scale with values from 35 to 105"><g transform="translate(0.5,90.5)"><path class="background" aria-hidden="true" d="M0,0h0v0h0Z" pointer-events="none"/><g><g class="mark-rule role-axis-tick" pointer-events="none"><line transform="translate(9,0)" x2="0" y2="3" stroke="black" stroke-width="1" opacity="1"/><line transform="translate(43,0)" x2="0" y2="3" stroke="black" stroke-width="1" opacity="1"/><line transform="translate(77,0)" x2="0" y2="3" stroke="black" stroke-width="1" opacity="1"/><line transform="translate(111,0)" x2="0" y2="3" stroke="black" stroke-width="1" opacity="1"/></g><g class="mark-text role-axis-label" pointer-events="none"><text text-anchor="middle" transform="translate(8.571428571428571,13)" font-family="Arial" font-size="10px" fill="#000" opacity="1">40</text><text text-anchor="middle" transform="translate(42.85714285714286,13)" font-family="Arial" font-size="10px" fill="#000" opacity="1">60</text><text text-anchor="middle" transform="translate(77.14285714285715,13)" font-family="Arial" font-size="10px" fill="#000" opacity="1">80</text><text text-anchor="middle" transform="translate(111.42857142857143,13)" font-family="Arial" font-size="10px" fill="#000" opacity="1">100</text></g><g class="mark-rule role-axis-domain" pointer-events="none"><line transform="translate(0,0)" x2="120" y2="0" stroke="black" stroke-width="1" opacity="1"/></g><g class="mark-text role-axis-title" pointer-events="none"><text text-anchor="middle" transform="translate(60,28)" font-family="Arial" font-size="11px" font-weight="normal" fill="#000" opacity="1">Period (mins)</text></g></g><path class="foreground" aria-hidden="true" d="" pointer-events="none" display="none"/></g></g><g class="mark-group role-axis" role="graphics-symbol" aria-roledescription="axis" aria-label="Y-axis titled 'Density' for a linear scale with values from 0.00 to 0.04"><g transform="translate(0.5,0.5)"><path class="background" aria-hidden="true" d="M0,0h0v0h0Z" pointer-events="none"/><g><g class="mark-rule role-axis-tick" pointer-events="none"><line transform="translate(0,90)" x2="-3" y2="0" stroke="black" stroke-width="1" opacity="1"/><line transform="translate(0,50)" x2="-3" y2="0" stroke="black" stroke-width="1" opacity="1"/><line transform="translate(0,10)" x2="-3" y2="0" stroke="black" stroke-width="1" opacity="1"/></g><g class="mark-text role-axis-label" pointer-events="none"><text text-anchor="end" transform="translate(-5,93)" font-family="Arial" font-size="10px" fill="#000" opacity="1">0.00</text><text text-anchor="end" transform="translate(-5,53)" font-family="Arial" font-size="10px" fill="#000" opacity="1">0.02</text><text text-anchor="end" transform="translate(-5,12.999999999999995)" font-family="Arial" font-size="10px" fill="#000" opacity="1">0.04</text></g><g class="mark-rule role-axis-domain" pointer-events="none"><line transform="translate(0,90)" x2="0" y2="-90" stroke="black" stroke-width="1" opacity="1"/></g><g class="mark-text role-axis-title" pointer-events="none"><text text-anchor="middle" transform="translate(-28.462890625,45) rotate(-90) translate(0,-2)" font-family="Arial" font-size="11px" font-weight="normal" fill="#000" opacity="1">Density</text></g></g><path class="foreground" aria-hidden="true" d="" pointer-events="none" display="none"/></g></g><g class="mark-area role-mark concat_2_layer_0_marks" role="graphics-object" aria-roledescription="area mark container"><path aria-label="value: 37.5794193483; density: 0.00145435704233" role="graphics-symbol" aria-roledescription="area mark" d="M4.422,87.091L5.544,86.336L6.105,85.902L6.666,85.427L7.227,84.91L7.788,84.346L8.91,83.074L9.471,82.36L10.032,81.592L10.593,80.767L11.154,79.884L12.277,77.937L12.838,76.869L13.399,75.739L14.521,73.283L15.643,70.568L16.765,67.597L17.887,64.378L20.131,57.262L22.376,49.409L26.864,32.679L29.108,24.556L31.352,17.148L32.474,13.841L33.597,10.86L34.719,8.248L35.28,7.091L35.841,6.04L36.963,4.267L37.524,3.551L38.085,2.952L38.646,2.471L39.207,2.109L40.329,1.744L40.89,1.742L41.451,1.858L42.012,2.092L42.573,2.441L43.695,3.475L44.257,4.154L44.818,4.937L45.379,5.819L45.94,6.796L47.062,9.017L47.623,10.251L48.184,11.56L49.306,14.382L51.55,20.684L53.794,27.561L58.283,41.725L62.771,54.782L65.015,60.515L66.138,63.152L67.26,65.63L68.382,67.95L69.504,70.112L70.626,72.12L71.748,73.977L72.87,75.687L73.431,76.489L73.992,77.256L75.114,78.69L76.237,79.995L76.798,80.602L77.359,81.179L78.481,82.247L79.603,83.209L80.164,83.652L80.725,84.07L81.847,84.84L82.969,85.524L83.53,85.837L84.091,86.131L85.213,86.667L86.335,87.139L87.458,87.553L88.019,87.74L88.58,87.915L89.702,88.231L90.824,88.506L91.385,88.629L91.946,88.743L93.068,88.948L94.19,89.124L95.312,89.274L96.434,89.401L97.556,89.509L98.679,89.599L100.923,89.735L103.167,89.826L107.655,89.92L112.144,89.954L116.632,89.968L116.632,90L112.144,90L107.655,90L103.167,90L100.923,90L98.679,90L97.556,90L96.434,90L95.312,90L94.19,90L93.068,90L91.946,90L91.385,90L90.824,90L89.702,90L88.58,90L88.019,90L87.458,90L86.335,90L85.213,90L84.091,90L83.53,90L82.969,90L81.847,90L80.725,90L80.164,90L79.603,90L78.481,90L77.359,90L76.798,90L76.237,90L75.114,90L73.992,90L73.431,90L72.87,90L71.748,90L70.626,90L69.504,90L68.382,90L67.26,90L66.138,90L65.015,90L62.771,90L58.283,90L53.794,90L51.55,90L49.306,90L48.184,90L47.623,90L47.062,90L45.94,90L45.379,90L44.818,90L44.257,90L43.695,90L42.573,90L42.012,90L41.451,90L40.89,90L40.329,90L39.207,90L38.646,90L38.085,90L37.524,90L36.963,90L35.841,90L35.28,90L34.719,90L33.597,90L32.474,90L31.352,90L29.108,90L26.864,90L22.376,90L20.131,90L17.887,90L16.765,90L15.643,90L14.521,90L13.399,90L12.838,90L12.277,90L11.154,90L10.593,90L10.032,90L9.471,90L8.91,90L7.788,90L7.227,90L6.666,90L6.105,90L5.544,90L4.422,90Z" fill="#a373e3"/></g><g class="mark-symbol role-mark concat_2_layer_1_marks" role="graphics-object" aria-roledescription="symbol mark container"><path aria-label="x: 48.2467214436" role="graphics-symbol" aria-roledescription="point" transform="translate(22.708665331847506,90)" d="M2.739,0A2.739,2.739,0,1,1,-2.739,0A2.739,2.739,0,1,1,2.739,0" stroke="rgb(68, 58, 131)" stroke-width="2" opacity="1"/><path aria-label="x: 54.521202529" role="graphics-symbol" aria-roledescription="point" transform="translate(33.464918621092174,90)" d="M2.739,0A2.739,2.739,0,1,1,-2.739,0A2.739,2.739,0,1,1,2.739,0" stroke="rgb(49, 104, 142)" stroke-width="2" opacity="1"/><path aria-label="x: 59.4376700456" role="graphics-symbol" aria-roledescription="point" transform="translate(41.893148649576396,90)" d="M2.739,0A2.739,2.739,0,1,1,-2.739,0A2.739,2.739,0,1,1,2.739,0" stroke="rgb(33, 145, 141)" stroke-width="2" opacity="1"/><path aria-label="x: 64.5692730439" role="graphics-symbol" aria-roledescription="point" transform="translate(50.69018236104843,90)" d="M2.739,0A2.739,2.739,0,1,1,-2.739,0A2.739,2.739,0,1,1,2.739,0" stroke="rgb(53, 183, 121)" stroke-width="2" opacity="1"/><path aria-label="x: 73.830375664" role="graphics-symbol" aria-roledescription="point" transform="translate(66.56635828121951,90)" d="M2.739,0A2.739,2.739,0,1,1,-2.739,0A2.739,2.739,0,1,1,2.739,0" stroke="rgb(143, 215, 68)" stroke-width="2" opacity="1"/></g></g><path class="foreground" aria-hidden="true" d="" display="none"/></g></g></g><path class="foreground" aria-hidden="true" d="" display="none"/></g></g></g></svg>