<svg xmlns="http://www.w3.org/2000/svg" xmlns:xlink="http://www.w3.org/1999/xlink" version="1.1" class="marks" width="558" height="132" viewBox="0 0 558 132"><rect width="558" height="132" fill="white"/><g fill="none" stroke-miterlimit="10" transform="translate(57,6)"><g class="mark-group role-frame root" role="graphics-object" aria-roledescription="group mark container"><g transform="translate(0,0)"><path class="background" aria-hidden="true" d="M0,0h0v90h0Z"/><g><g class="mark-group role-scope concat_0_group" role="graphics-object" aria-roledescription="group mark container"><g transform="translate(0,0)"><path class="background" aria-hidden="true" d="M0.5,0.5h120v90h-120Z"/><g><g class="mark-group role-axis" role="graphics-symbol" aria-roledescription="axis" aria-label="X-axis titled 'Ribosome number' for a linear scale with values from 0 to 24,000"><g transform="translate(0.5,90.5)"><path class="background" aria-hidden="true" d="M0,0h0v0h0Z" pointer-events="none"/><g><g class="mark-rule role-axis-tick" pointer-events="none"><line transform="translate(0,0)" x2="0" y2="3" stroke="black" stroke-width="1" opacity="1"/><line transform="translate(50,0)" x2="0" y2="3" stroke="black" stroke-width="1" opacity="1"/><line transform="translate(100,0)" x2="0" y2="3" stroke="black" stroke-width="1" opacity="1"/></g><g class="mark-text role-axis-label" pointer-events="none"><text text-anchor="start" transform="translate(0,13)" font-family="Arial" font-size="10px" fill="#000" opacity="1">0</text><text text-anchor="middle" transform="translate(50,13)" font-family="Arial" font-size="10px" fill="#000" opacity="1">10,000</text><text text-anchor="middle" transform="translate(100,13)" font-family="Arial" font-size="10px" fill="#000" opacity="1">20,000</text></g><g class="mark-rule role-axis-domain" pointer-events="none"><line transform="translate(0,0)" x2="120" y2="0" stroke="black" stroke-width="1" opacity="1"/></g><g class="mark-text role-axis-title" pointer-events="none"><text text-anchor="middle" transform="translate(60,28)" font-family="Arial" font-size="11px" font-weight="normal" fill="#000" opacity="1">Ribosome number</text></g></g><path class="foreground" aria-hidden="true" d="" pointer-events="none" display="none"/></g></g><g class="mark-group role-axis" role="graphics-symbol" aria-roledescription="axis" aria-label="Y-axis titled 'Density' for a linear scale with values from 0.00000 to 0.00022"><g transform="translate(0.5,0.5)"><path class="background" aria-hidden="true" d="M0,0h0v0h0Z" pointer-events="none"/><g><g class="mark-rule role-axis-tick" pointer-events="none"><line transform="translate(0,90)" x2="-3" y2="0" stroke="black" stroke-width="1" opacity="1"/><line transform="translate(0,49)" x2="-3" y2="0" stroke="black" stroke-width="1" opacity="1"/><line transform="translate(0,8)" x2="-3" y2="0" stroke="black" stroke-width="1" opacity="1"/></g><g class="mark-text role-axis-label" pointer-events="none"><text text-anchor="end" transform="translate(-5,93)" font-family="Arial" font-size="10px" fill="#000" opacity="1">0.0000</text><text text-anchor="end" transform="translate(-5,52.090909090909086)" font-family="Arial" font-size="10px" fill="#000" opacity="1">0.0001</text><text text-anchor="end" transform="translate(-5,11.181818181818185)" font-family="Arial" font-size="10px" fill="#000" opacity="1">0.0002</text></g><g class="mark-rule role-axis-domain" pointer-events="none"><line transform="translate(0,90)" x2="0" y2="-90" stroke="black" stroke-width="1" opacity="1"/></g><g class="mark-text role-axis-title" pointer-events="none"><text text-anchor="middle" transform="translate(-39.5859375,45) rotate(-90) translate(0,-2)" font-family="Arial" font-size="11px" font-weight="normal" fill="#000" opacity="1">Density</text></g></g><path class="foreground" aria-hidden="true" d="" pointer-events="none" display="none"/></g></g><g class="mark-area role-mark concat_0_layer_0_marks" role="graphics-object" aria-roledescription="area mark container"><path aria-label="value: 1109.46476401; density: 0.00000298962313155" role="graphics-symbol" aria-roledescription="area mark" d="M5.547,88.777L6.113,88.134L6.679,87.236L7.244,86.024L7.81,84.436L8.376,82.421L8.942,79.938L10.073,73.527L14.598,36.817L16.861,18.74L17.993,11.039L19.124,5.085L19.69,2.964L20.255,1.468L21.387,0.238L21.953,0.351L22.518,0.816L23.084,1.539L23.65,2.464L24.781,4.892L25.347,6.457L25.912,8.306L26.478,10.452L27.044,12.88L28.175,18.389L30.438,29.989L31.569,34.929L32.701,39.155L37.226,56.507L38.358,60.443L39.489,63.733L41.752,69.267L42.883,71.954L43.449,73.237L44.015,74.427L44.58,75.494L45.146,76.426L45.712,77.232L46.278,77.934L46.843,78.563L47.409,79.147L48.54,80.245L49.106,80.764L49.672,81.255L50.237,81.71L50.803,82.121L51.369,82.488L51.935,82.817L53.066,83.422L53.632,83.738L54.197,84.082L55.329,84.857L55.894,85.259L56.46,85.64L57.026,85.982L57.592,86.274L58.157,86.52L58.723,86.731L59.854,87.12L62.117,87.974L62.683,88.17L63.249,88.344L63.814,88.497L64.38,88.63L64.946,88.748L65.511,88.85L66.077,88.935L66.643,88.998L67.208,89.039L67.774,89.058L68.34,89.059L68.905,89.05L69.471,89.042L70.037,89.042L71.168,89.083L71.734,89.125L72.3,89.177L73.431,89.294L74.562,89.403L75.694,89.492L76.825,89.558L77.957,89.603L82.482,89.781L87.008,89.911L91.533,89.888L93.796,89.96L94.928,89.978L96.059,89.976L100.585,89.925L102.847,89.919L105.11,89.965L109.636,90L114.161,89.997L118.687,89.959L118.687,90L114.161,90L109.636,90L105.11,90L102.847,90L100.585,90L96.059,90L94.928,90L93.796,90L91.533,90L87.008,90L82.482,90L77.957,90L76.825,90L75.694,90L74.562,90L73.431,90L72.3,90L71.734,90L71.168,90L70.037,90L69.471,90L68.905,90L68.34,90L67.774,90L67.208,90L66.643,90L66.077,90L65.511,90L64.946,90L64.38,90L63.814,90L63.249,90L62.683,90L62.117,90L59.854,90L58.723,90L58.157,90L57.592,90L57.026,90L56.46,90L55.894,90L55.329,90L54.197,90L53.632,90L53.066,90L51.935,90L51.369,90L50.803,90L50.237,90L49.672,90L49.106,90L48.54,90L47.409,90L46.843,90L46.278,90L45.712,90L45.146,90L44.58,90L44.015,90L43.449,90L42.883,90L41.752,90L39.489,90L38.358,90L37.226,90L32.701,90L31.569,90L30.438,90L28.175,90L27.044,90L26.478,90L25.912,90L25.347,90L24.781,90L23.65,90L23.084,90L22.518,90L21.953,90L21.387,90L20.255,90L19.69,90L19.124,90L17.993,90L16.861,90L14.598,90L10.073,90L8.942,90L8.376,90L7.81,90L7.244,90L6.679,90L6.113,90L5.547,90Z" fill="#1aa5d3"/></g><g class="mark-symbol role-mark concat_0_layer_1_marks" role="graphics-object" aria-roledescription="symbol mark container"><path aria-label="x: 2632.70531996" role="graphics-symbol" aria-roledescription="point" transform="translate(13.16352659977863,90)" d="M2.739,0A2.739,2.739,0,1,1,-2.739,0A2.739,2.739,0,1,1,2.739,0" stroke="rgb(68, 58, 131)" stroke-width="2" opacity="1"/><path aria-label="x: 3856.66152938" role="graphics-symbol" aria-roledescription="point" transform="translate(19.283307646902994,90)" d="M2.739,0A2.739,2.739,0,1,1,-2.739,0A2.739,2.739,0,1,1,2.739,0" stroke="rgb(49, 104, 142)" stroke-width="2" opacity="1"/><path aria-label="x: 4992.51451891" role="graphics-symbol" aria-roledescription="point" transform="translate(24.962572594559294,90)" d="M2.739,0A2.739,2.739,0,1,1,-2.739,0A2.739,2.739,0,1,1,2.739,0" stroke="rgb(33, 145, 141)" stroke-width="2" opacity="1"/><path aria-label="x: 6474.37833841" role="graphics-symbol" aria-roledescription="point" transform="translate(32.37189169205376,90)" d="M2.739,0A2.739,2.739,0,1,1,-2.739,0A2.739,2.739,0,1,1,2.739,0" stroke="rgb(53, 183, 121)" stroke-width="2" opacity="1"/><path aria-label="x: 9429.94973157" role="graphics-symbol" aria-roledescription="point" transform="translate(47.14974865786015,90)" d="M2.739,0A2.739,2.739,0,1,1,-2.739,0A2.739,2.739,0,1,1,2.739,0" stroke="rgb(143, 215, 68)" stroke-width="2" opacity="1"/></g></g><path class="foreground" aria-hidden="true" d="" display="none"/></g></g><g class="mark-group role-scope concat_1_group" role="graphics-object" aria-roledescription="group mark container"><g transform="translate(193,0)"><path class="background" aria-hidden="true" d="M0.5,0.5h120v90h-120Z"/><g><g class="mark-group role-axis" role="graphics-symbol" aria-roledescription="axis" aria-label="X-axis titled 'Amplitude' for a linear scale with values from 0 to 12,000"><g transform="translate(0.5,90.5)"><path class="background" aria-hidden="true" d="M0,0h0v0h0Z" pointer-events="none"/><g><g class="mark-rule role-axis-tick" pointer-events="none"><line transform="translate(0,0)" x2="0" y2="3" stroke="black" stroke-width="1" opacity="1"/><line transform="translate(50,0)" x2="0" y2="3" stroke="black" stroke-width="1" opacity="1"/><line transform="translate(100,0)" x2="0" y2="3" stroke="black" stroke-width="1" opacity="1"/></g><g class="mark-text role-axis-label" pointer-events="none"><text text-anchor="start" transform="translate(0,13)" font-family="Arial" font-size="10px" fill="#000" opacity="1">0</text><text text-anchor="middle" transform="translate(50,13)" font-family="Arial" font-size="10px" fill="#000" opacity="1">5,000</text><text text-anchor="middle" transform="translate(100,13)" font-family="Arial" font-size="10px" fill="#000" opacity="1">10,000</text></g><g class="mark-rule role-axis-domain" pointer-events="none"><line transform="translate(0,0)" x2="120" y2="0" stroke="black" stroke-width="1" opacity="1"/></g><g class="mark-text role-axis-title" pointer-events="none"><text text-anchor="middle" transform="translate(60,28)" font-family="Arial" font-size="11px" font-weight="normal" fill="#000" opacity="1">Amplitude</text></g></g><path class="foreground" aria-hidden="true" d="" pointer-events="none" display="none"/></g></g><g class="mark-group role-axis" role="graphics-symbol" aria-roledescription="axis" aria-label="Y-axis titled 'Density' for a linear scale with values from 0.0000 to 0.0005"><g transform="translate(0.5,0.5)"><path class="background" aria-hidden="true" d="M0,0h0v0h0Z" pointer-events="none"/><g><g class="mark-rule role-axis-tick" pointer-events="none"><line transform="translate(0,90)" x2="-3" y2="0" stroke="black" stroke-width="1" opacity="1"/><line transform="translate(0,54)" x2="-3" y2="0" stroke="black" stroke-width="1" opacity="1"/><line transform="translate(0,18)" x2="-3" y2="0" stroke="black" stroke-width="1" opacity="1"/></g><g class="mark-text role-axis-label" pointer-events="none"><text text-anchor="end" transform="translate(-5,93)" font-family="Arial" font-size="10px" fill="#000" opacity="1">0.0000</text><text text-anchor="end" transform="translate(-5,57)" font-family="Arial" font-size="10px" fill="#000" opacity="1">0.0002</text><text text-anchor="end" transform="translate(-5,20.999999999999996)" font-family="Arial" font-size="10px" fill="#000" opacity="1">0.0004</text></g><g class="mark-rule role-axis-domain" pointer-events="none"><line transform="translate(0,90)" x2="0" y2="-90" stroke="black" stroke-width="1" opacity="1"/></g><g class="mark-text role-axis-title" pointer-events="none"><text text-anchor="middle" transform="translate(-39.5859375,45) rotate(-90) translate(0,-2)" font-family="Arial" font-size="11px" font-weight="normal" fill="#000" opacity="1">Density</text></g></g><path class="foreground" aria-hidden="true" d="" pointer-events="none" display="none"/></g></g><g class="mark-area role-mark concat_1_layer_0_marks" role="graphics-object" aria-roledescription="area mark container"><path aria-label="value: 370.486910042; density: 0.00000335659266593" role="graphics-symbol" aria-roledescription="area mark" d="M3.705,89.396L4.796,88.414L5.342,87.561L5.888,86.379L6.434,84.8L6.979,82.759L7.525,80.202L8.071,77.105L12.437,41.975L14.62,24.559L15.711,16.714L16.803,10.446L17.348,8.234L17.894,6.747L18.986,5.877L20.077,6.978L21.168,8.709L22.26,10.666L23.351,13.663L24.443,18.198L25.534,23.704L27.717,35.405L28.809,39.952L29.9,43.37L30.446,45.024L30.992,46.83L32.083,51.026L34.266,59.957L35.358,63.657L36.449,66.466L37.541,68.772L38.632,71.245L39.724,73.964L40.269,75.264L40.815,76.416L41.906,78.124L42.452,78.725L42.998,79.244L45.181,81.289L46.272,82.259L46.818,82.683L47.364,83.049L48.455,83.594L49.547,84.018L50.093,84.284L50.638,84.626L51.73,85.493L52.275,85.935L52.821,86.321L53.913,86.833L54.458,86.978L55.004,87.095L56.096,87.398L58.279,88.32L58.824,88.487L59.37,88.616L60.462,88.827L61.553,89.038L62.099,89.124L62.645,89.179L63.736,89.179L64.827,89.108L65.919,89.086L66.465,89.108L67.01,89.151L69.193,89.401L71.376,89.568L71.922,89.604L72.468,89.629L73.559,89.649L77.925,89.817L82.291,89.941L82.837,89.944L83.383,89.934L84.474,89.888L85.565,89.857L86.111,89.866L86.657,89.889L87.748,89.949L88.84,89.985L89.931,89.993L91.023,89.982L95.389,89.932L96.48,89.91L97.026,89.907L97.572,89.913L99.755,89.98L104.121,90L108.486,89.999L112.852,89.952L112.852,90L108.486,90L104.121,90L99.755,90L97.572,90L97.026,90L96.48,90L95.389,90L91.023,90L89.931,90L88.84,90L87.748,90L86.657,90L86.111,90L85.565,90L84.474,90L83.383,90L82.837,90L82.291,90L77.925,90L73.559,90L72.468,90L71.922,90L71.376,90L69.193,90L67.01,90L66.465,90L65.919,90L64.827,90L63.736,90L62.645,90L62.099,90L61.553,90L60.462,90L59.37,90L58.824,90L58.279,90L56.096,90L55.004,90L54.458,90L53.913,90L52.821,90L52.275,90L51.73,90L50.638,90L50.093,90L49.547,90L48.455,90L47.364,90L46.818,90L46.272,90L45.181,90L42.998,90L42.452,90L41.906,90L40.815,90L40.269,90L39.724,90L38.632,90L37.541,90L36.449,90L35.358,90L34.266,90L32.083,90L30.992,90L30.446,90L29.9,90L28.809,90L27.717,90L25.534,90L24.443,90L23.351,90L22.26,90L21.168,90L20.077,90L18.986,90L17.894,90L17.348,90L16.803,90L15.711,90L14.62,90L12.437,90L8.071,90L7.525,90L6.979,90L6.434,90L5.888,90L5.342,90L4.796,90L3.705,90Z" fill="#1aa5d3"/></g><g class="mark-symbol role-mark concat_1_layer_1_marks" role="graphics-object" aria-roledescription="symbol mark container"><path aria-label="x: 1121.29317012" role="graphics-symbol" aria-roledescription="point" transform="translate(11.212931701151401,90)" d="M2.739,0A2.739,2.739,0,1,1,-2.739,0A2.739,2.739,0,1,1,2.739,0" stroke="rgb(68, 58, 131)" stroke-width="2" opacity="1"/><path aria-label="x: 1704.39051066" role="graphics-symbol" aria-roledescription="point" transform="translate(17.043905106612037,90)" d="M2.739,0A2.739,2.739,0,1,1,-2.739,0A2.739,2.739,0,1,1,2.739,0" stroke="rgb(49, 104, 142)" stroke-width="2" opacity="1"/><path aria-label="x: 2244.72771848" role="graphics-symbol" aria-roledescription="point" transform="translate(22.44727718481206,90)" d="M2.739,0A2.739,2.739,0,1,1,-2.739,0A2.739,2.739,0,1,1,2.739,0" stroke="rgb(33, 145, 141)" stroke-width="2" opacity="1"/><path aria-label="x: 2950.19520316" role="graphics-symbol" aria-roledescription="point" transform="translate(29.50195203156939,90)" d="M2.739,0A2.739,2.739,0,1,1,-2.739,0A2.739,2.739,0,1,1,2.739,0" stroke="rgb(53, 183, 121)" stroke-width="2" opacity="1"/><path aria-label="x: 4361.56870266" role="graphics-symbol" aria-roledescription="point" transform="translate(43.61568702664489,90)" d="M2.739,0A2.739,2.739,0,1,1,-2.739,0A2.739,2.739,0,1,1,2.739,0" stroke="rgb(143, 215, 68)" stroke-width="2" opacity="1"/></g></g><path class="foreground" aria-hidden="true" d="" display="none"/></g></g><g class="mark-group role-scope concat_2_group" role="graphics-object" aria-roledescription="group mark container"><g transform="translate(375,0)"><path class="background" aria-hidden="true" d="M0.5,0.5h120v90h-120Z"/><g><g class="mark-group role-axis" role="graphics-symbol" aria-roledescription="axis" aria-label="X-axis titled 'Period (mins)' for a linear scale with values from 48 to 74"><g transform="translate(0.5,90.5)"><path class="background" aria-hidden="true" d="M0,0h0v0h0Z" pointer-events="none"/><g><g class="mark-rule role-axis-tick" pointer-events="none"><line transform="translate(9,0)" x2="0" y2="3" stroke="black" stroke-width="1" opacity="1"/><line transform="translate(55,0)" x2="0" y2="3" stroke="black" stroke-width="1" opacity="1"/><line transform="translate(102,0)" x2="0" y2="3" stroke="black" stroke-width="1" opacity="1"/></g><g class="mark-text role-axis-label" pointer-events="none"><text text-anchor="middle" transform="translate(9.230769230769232,13)" font-family="Arial" font-size="10px" fill="#000" opacity="1">50</text><text text-anchor="middle" transform="translate(55.38461538461539,13)" font-family="Arial" font-size="10px" fill="#000" opacity="1">60</text><text text-anchor="middle" transform="translate(101.53846153846153,13)" font-family="Arial" font-size="10px" fill="#000" opacity="1">70</text></g><g class="mark-rule role-axis-domain" pointer-events="none"><line transform="translate(0,0)" x2="120" y2="0" stroke="black" stroke-width="1" opacity="1"/></g><g class="mark-text role-axis-title" pointer-events="none"><text text-anchor="middle" transform="translate(60,28)" font-family="Arial" font-size="11px" font-weight="normal" fill="#000" opacity="1">Period (mins)</text></g></g><path class="foreground" aria-hidden="true" d="" pointer-events="none" display="none"/></g></g><g class="mark-group role-axis" role="graphics-symbol" aria-roledescription="axis" aria-label="Y-axis titled 'Density' for a linear scale with values from 0.00 to 0.12"><g transform="translate(0.5,0.5)"><path class="background" aria-hidden="true" d="M0,0h0v0h0Z" pointer-events="none"/><g><g class="mark-rule role-axis-tick" pointer-events="none"><line transform="translate(0,90)" x2="-3" y2="0" stroke="black" stroke-width="1" opacity="1"/><line transform="translate(0,52)" x2="-3" y2="0" stroke="black" stroke-width="1" opacity="1"/><line transform="translate(0,15)" x2="-3" y2="0" stroke="black" stroke-width="1" opacity="1"/></g><g class="mark-text role-axis-label" pointer-events="none"><text text-anchor="end" transform="translate(-5,93)" font-family="Arial" font-size="10px" fill="#000" opacity="1">0.00</text><text text-anchor="end" transform="translate(-5,55.49999999999999)" font-family="Arial" font-size="10px" fill="#000" opacity="1">0.05</text><text text-anchor="end" transform="translate(-5,17.999999999999996)" font-family="Arial" font-size="10px" fill="#000" opacity="1">0.10</text></g><g class="mark-rule role-axis-domain" pointer-events="none"><line transform="translate(0,90)" x2="0" y2="-90" stroke="black" stroke-width="1" opacity="1"/></g><g class="mark-text role-axis-title" pointer-events="none"><text text-anchor="middle" transform="translate(-28.462890625,45) rotate(-90) translate(0,-2)" font-family="Arial" font-size="11px" font-weight="normal" fill="#000" opacity="1">Density</text></g></g><path class="foreground" aria-hidden="true" d="" pointer-events="none" display="none"/></g></g><g class="mark-area role-mark concat_2_layer_0_marks" role="graphics-object" aria-roledescription="area mark container"><path aria-label="value: 49.6534105508; density: 0.00247563041698" role="graphics-symbol" aria-roledescription="area mark" d="M7.631,88.143L8.171,87.944L8.711,87.726L9.251,87.49L9.791,87.234L10.871,86.655L11.411,86.331L11.951,85.981L12.491,85.605L13.031,85.201L13.571,84.767L14.111,84.304L14.651,83.809L15.191,83.281L15.731,82.718L16.271,82.121L17.351,80.816L17.891,80.106L18.431,79.357L18.971,78.568L19.512,77.738L20.052,76.867L20.592,75.953L21.672,73.997L22.752,71.87L23.832,69.57L24.912,67.101L27.072,61.678L29.232,55.674L33.552,42.46L37.872,28.978L40.032,22.767L41.112,19.913L42.192,17.271L43.272,14.871L43.812,13.771L44.352,12.742L44.892,11.787L45.432,10.908L45.972,10.109L46.512,9.391L47.052,8.757L47.592,8.208L48.132,7.745L48.672,7.371L49.752,6.888L50.293,6.781L50.833,6.762L51.373,6.833L51.913,6.992L52.453,7.239L52.993,7.572L54.073,8.49L54.613,9.071L55.153,9.732L55.693,10.469L56.233,11.28L56.773,12.162L57.313,13.112L57.853,14.128L58.393,15.205L59.473,17.532L60.553,20.065L61.633,22.774L63.793,28.604L68.113,41.078L72.433,53.243L74.593,58.806L76.753,63.884L77.833,66.223L78.913,68.424L79.993,70.485L81.074,72.407L82.154,74.191L83.234,75.84L83.774,76.615L84.314,77.358L84.854,78.069L85.394,78.75L85.934,79.4L86.474,80.021L87.014,80.613L87.554,81.177L88.094,81.715L88.634,82.226L89.174,82.711L89.714,83.172L90.794,84.022L91.334,84.414L91.874,84.784L92.414,85.133L92.954,85.463L93.494,85.774L94.034,86.066L94.574,86.342L95.114,86.6L95.654,86.843L96.194,87.071L96.734,87.285L97.274,87.484L97.814,87.671L98.354,87.846L99.434,88.161L99.974,88.302L100.514,88.434L101.054,88.556L101.594,88.67L102.674,88.874L103.754,89.048L104.834,89.198L105.914,89.325L106.994,89.434L109.154,89.603L111.314,89.724L115.635,89.868L115.635,90L111.314,90L109.154,90L106.994,90L105.914,90L104.834,90L103.754,90L102.674,90L101.594,90L101.054,90L100.514,90L99.974,90L99.434,90L98.354,90L97.814,90L97.274,90L96.734,90L96.194,90L95.654,90L95.114,90L94.574,90L94.034,90L93.494,90L92.954,90L92.414,90L91.874,90L91.334,90L90.794,90L89.714,90L89.174,90L88.634,90L88.094,90L87.554,90L87.014,90L86.474,90L85.934,90L85.394,90L84.854,90L84.314,90L83.774,90L83.234,90L82.154,90L81.074,90L79.993,90L78.913,90L77.833,90L76.753,90L74.593,90L72.433,90L68.113,90L63.793,90L61.633,90L60.553,90L59.473,90L58.393,90L57.853,90L57.313,90L56.773,90L56.233,90L55.693,90L55.153,90L54.613,90L54.073,90L52.993,90L52.453,90L51.913,90L51.373,90L50.833,90L50.293,90L49.752,90L48.672,90L48.132,90L47.592,90L47.052,90L46.512,90L45.972,90L45.432,90L44.892,90L44.352,90L43.812,90L43.272,90L42.192,90L41.112,90L40.032,90L37.872,90L33.552,90L29.232,90L27.072,90L24.912,90L23.832,90L22.752,90L21.672,90L20.592,90L20.052,90L19.512,90L18.971,90L18.431,90L17.891,90L17.351,90L16.271,90L15.731,90L15.191,90L14.651,90L14.111,90L13.571,90L13.031,90L12.491,90L11.951,90L11.411,90L10.871,90L9.791,90L9.251,90L8.711,90L8.171,90L7.631,90Z" fill="#1aa5d3"/></g><g class="mark-symbol role-mark concat_2_layer_1_marks" role="graphics-object" aria-roledescription="symbol mark container"><path aria-label="x: 54.4054332235" role="graphics-symbol" aria-roledescription="point" transform="translate(29.563537954747797,90)" d="M2.739,0A2.739,2.739,0,1,1,-2.739,0A2.739,2.739,0,1,1,2.739,0" stroke="rgb(68, 58, 131)" stroke-width="2" opacity="1"/><path aria-label="x: 56.9821900396" role="graphics-symbol" aria-roledescription="point" transform="translate(41.456261721037016,90)" d="M2.739,0A2.739,2.739,0,1,1,-2.739,0A2.739,2.739,0,1,1,2.739,0" stroke="rgb(49, 104, 142)" stroke-width="2" opacity="1"/><path aria-label="x: 58.9650004251" role="graphics-symbol" aria-roledescription="point" transform="translate(50.60769426971127,90)" d="M2.739,0A2.739,2.739,0,1,1,-2.739,0A2.739,2.739,0,1,1,2.739,0" stroke="rgb(33, 145, 141)" stroke-width="2" opacity="1"/><path aria-label="x: 61.0820673952" role="graphics-symbol" aria-roledescription="point" transform="translate(60.37877259330554,90)" d="M2.739,0A2.739,2.739,0,1,1,-2.739,0A2.739,2.739,0,1,1,2.739,0" stroke="rgb(53, 183, 121)" stroke-width="2" opacity="1"/><path aria-label="x: 64.32378754" role="graphics-symbol" aria-roledescription="point" transform="translate(75.34055787704591,90)" d="M2.739,0A2.739,2.739,0,1,1,-2.739,0A2.739,2.739,0,1,1,2.739,0" stroke="rgb(143, 215, 68)" stroke-width="2" opacity="1"/></g></g><path class="foreground" aria-hidden="true" d="" display="none"/></g></g></g><path class="foreground" aria-hidden="true" d="" display="none"/></g></g></g></svg>