<svg xmlns="http://www.w3.org/2000/svg" xmlns:xlink="http://www.w3.org/1999/xlink" version="1.1" class="marks" width="246" height="261" viewBox="0 0 246 261"><rect width="246" height="261" fill="white"/><g fill="none" stroke-miterlimit="10" transform="translate(52,8)"><g class="mark-group role-frame root" role="graphics-object" aria-roledescription="group mark container"><g transform="translate(0,0)"><path class="background" aria-hidden="true" d="M0,0h120v0h-120Z"/><g><g class="mark-group role-scope concat_0_group" role="graphics-object" aria-roledescription="group mark container"><g transform="translate(0,0)"><path class="background" aria-hidden="true" d="M0.5,0.5h120v90h-120Z"/><g><g class="mark-group role-axis" role="graphics-symbol" aria-roledescription="axis" aria-label="X-axis for a linear scale with values from 0 to 160"><g transform="translate(0.5,90.5)"><path class="background" aria-hidden="true" d="M0,0h0v0h0Z" pointer-events="none"/><g><g class="mark-rule role-axis-tick" pointer-events="none"><line transform="translate(0,0)" x2="0" y2="3" stroke="black" stroke-width="1" opacity="1"/><line transform="translate(38,0)" x2="0" y2="3" stroke="black" stroke-width="1" opacity="1"/><line transform="translate(75,0)" x2="0" y2="3" stroke="black" stroke-width="1" opacity="1"/><line transform="translate(113,0)" x2="0" y2="3" stroke="black" stroke-width="1" opacity="1"/></g><g class="mark-text role-axis-label" pointer-events="none"><text text-anchor="start" transform="translate(0,13)" font-family="Arial" font-size="10px" fill="#000" opacity="1">0</text><text text-anchor="middle" transform="translate(37.5,13)" font-family="Arial" font-size="10px" fill="#000" opacity="1">50</text><text text-anchor="middle" transform="translate(75,13)" font-family="Arial" font-size="10px" fill="#000" opacity="1">100</text><text text-anchor="middle" transform="translate(112.5,13)" font-family="Arial" font-size="10px" fill="#000" opacity="1">150</text></g><g class="mark-rule role-axis-domain" pointer-events="none"><line transform="translate(0,0)" x2="120" y2="0" stroke="black" stroke-width="1" opacity="1"/></g></g><path class="foreground" aria-hidden="true" d="" pointer-events="none" display="none"/></g></g><g class="mark-group role-axis" role="graphics-symbol" aria-roledescription="axis" aria-label="Y-axis titled 'mRNA' for a linear scale with values from 0 to 12"><g transform="translate(0.5,0.5)"><path class="background" aria-hidden="true" d="M0,0h0v0h0Z" pointer-events="none"/><g><g class="mark-rule role-axis-tick" pointer-events="none"><line transform="translate(0,90)" x2="-3" y2="0" stroke="black" stroke-width="1" opacity="1"/><line transform="translate(0,52)" x2="-3" y2="0" stroke="black" stroke-width="1" opacity="1"/><line transform="translate(0,15)" x2="-3" y2="0" stroke="black" stroke-width="1" opacity="1"/></g><g class="mark-text role-axis-label" pointer-events="none"><text text-anchor="end" transform="translate(-5,93)" font-family="Arial" font-size="10px" fill="#000" opacity="1">0</text><text text-anchor="end" transform="translate(-5,55.49999999999999)" font-family="Arial" font-size="10px" fill="#000" opacity="1">5</text><text text-anchor="end" transform="translate(-5,17.999999999999996)" font-family="Arial" font-size="10px" fill="#000" opacity="1">10</text></g><g class="mark-rule role-axis-domain" pointer-events="none"><line transform="translate(0,90)" x2="0" y2="-90" stroke="black" stroke-width="1" opacity="1"/></g><g class="mark-text role-axis-title" pointer-events="none"><text text-anchor="middle" transform="translate(-20.123046875,45) rotate(-90) translate(0,-2)" font-family="Arial" font-size="11px" font-weight="normal" fill="#000" opacity="1">mRNA</text></g></g><path class="foreground" aria-hidden="true" d="" pointer-events="none" display="none"/></g></g><g class="mark-group role-scope concat_0_layer_0_pathgroup" role="graphics-object" aria-roledescription="group mark container"><g transform="translate(0,0)"><path class="background" aria-hidden="true" d="M0,0h120v90h-120Z"/><g><g class="mark-line role-mark concat_0_layer_0_marks" role="graphics-object" aria-roledescription="line mark container"><path aria-label="t: 0; M: 0.000001; gene: Gene 1" role="graphics-symbol" aria-roledescription="line mark" d="M0,90L0.75,74.652L1.5,59.835L2.25,46.472L3,35.213L3.75,26.219L4.5,19.301L5.25,14.113L6,10.292L6.75,7.509L7.5,5.501L8.25,4.063L9,3.046L9.75,2.362L10.5,2.075L11.25,3.079L12,9.983L12.75,26.512L13.5,43.741L14.25,56.984L15,66.537L15.75,73.344L16.5,78.18L17.25,81.613L18,84.049L18.75,85.777L19.5,87.004L20.25,87.874L21,88.492L21.75,88.93L22.5,89.241L23.25,89.461L24,89.618L24.75,89.729L25.5,89.808L26.25,89.863L27,89.903L27.75,89.931L28.5,89.951L29.25,89.965L30,89.975L30.75,89.982L31.5,89.988L32.25,89.991L33,89.994L33.75,89.995L34.5,89.997L35.25,89.997L36,89.997L36.75,89.997L37.5,89.996L38.25,89.993L39,89.988L39.75,89.978L40.5,89.959L41.25,89.921L42,89.847L42.75,89.703L43.5,89.422L44.25,88.877L45,87.835L45.75,85.894L46.5,82.456L47.25,76.856L48,68.764L48.75,58.667L49.5,47.797L50.25,37.48L51,28.567L51.75,21.353L52.5,15.762L53.25,11.551L54,8.44L54.75,6.17L55.5,4.527L56.25,3.347L57,2.501L57.75,1.897L58.5,1.467L59.25,1.161L60,0.943L60.75,0.788L61.5,0.679L62.25,0.604L63,0.569L63.75,0.717L64.5,2.509L65.25,12.747L66,31.336L66.75,47.807L67.5,59.972L68.25,68.676L69,74.866L69.75,79.261L70.5,82.38L71.25,84.593L72,86.164L72.75,87.278L73.5,88.069L74.25,88.63L75,89.028L75.75,89.31L76.5,89.511L77.25,89.653L78,89.754L78.75,89.825L79.5,89.876L80.25,89.912L81,89.938L81.75,89.956L82.5,89.968L83.25,89.978L84,89.984L84.75,89.989L85.5,89.992L86.25,89.994L87,89.996L87.75,89.997L88.5,89.997L89.25,89.998L90,89.997L90.75,89.996L91.5,89.994L92.25,89.989L93,89.979L93.75,89.961L94.5,89.925L95.25,89.855L96,89.718L96.75,89.451L97.5,88.933L98.25,87.941L99,86.088L99.75,82.79L100.5,77.374L101.25,69.468L102,59.487L102.75,48.626L103.5,38.229L104.25,29.192L105,21.847L105.75,16.139L106.5,11.832L107.25,8.646L108,6.319L108.75,4.635L109.5,3.424L110.25,2.556L111,1.937L111.75,1.495L112.5,1.181" stroke="#1657a8" stroke-width="2"/></g></g><path class="foreground" aria-hidden="true" d="" display="none"/></g><g transform="translate(0,0)"><path class="background" aria-hidden="true" d="M0,0h120v90h-120Z"/><g><g class="mark-line role-mark concat_0_layer_0_marks" role="graphics-object" aria-roledescription="line mark container"><path aria-label="t: 0; M: 0.000001; gene: Gene 3" role="graphics-symbol" aria-roledescription="line mark" d="M0,90L0.75,89.996L1.5,89.992L2.25,89.987L3,89.981L3.75,89.972L4.5,89.957L5.25,89.931L6,89.884L6.75,89.799L7.5,89.644L8.25,89.356L9,88.82L9.75,87.829L10.5,86.029L11.25,82.887L12,77.769L12.75,70.27L13.5,60.668L14.25,50.016L15,39.62L15.75,30.437L16.5,22.88L17.25,16.955L18,12.455L18.75,9.111L19.5,6.661L20.25,4.884L21,3.604L21.75,2.686L22.5,2.029L23.25,1.561L24,1.228L24.75,0.991L25.5,0.823L26.25,0.705L27,0.626L27.75,0.615L28.5,1.027L29.25,4.884L30,19.392L30.75,37.958L31.5,52.79L32.25,63.549L33,71.222L33.75,76.674L34.5,80.544L35.25,83.291L36,85.24L36.75,86.622L37.5,87.604L38.25,88.3L39,88.794L39.75,89.144L40.5,89.393L41.25,89.569L42,89.694L42.75,89.783L43.5,89.846L44.25,89.891L45,89.922L45.75,89.945L46.5,89.961L47.25,89.972L48,89.98L48.75,89.986L49.5,89.99L50.25,89.993L51,89.995L51.75,89.996L52.5,89.997L53.25,89.998L54,89.998L54.75,89.997L55.5,89.995L56.25,89.992L57,89.986L57.75,89.974L58.5,89.95L59.25,89.903L60,89.813L60.75,89.636L61.5,89.291L62.25,88.624L63,87.357L63.75,85.026L64.5,80.988L65.25,74.623L66,65.818L66.75,55.331L67.5,44.505L68.25,34.558L69,26.16L69.75,19.466L70.5,14.33L71.25,10.487L72,7.661L72.75,5.605L73.5,4.121L74.25,3.055L75,2.293L75.75,1.749L76.5,1.361L77.25,1.085L78,0.89L78.75,0.751L79.5,0.653L80.25,0.588L81,0.577L81.75,0.923L82.5,4.319L83.25,18.175L84,36.86L84.75,51.979L85.5,62.969L86.25,70.809L87,76.381L87.75,80.336L88.5,83.143L89.25,85.135L90,86.548L90.75,87.551L91.5,88.262L92.25,88.767L93,89.125L93.75,89.379L94.5,89.56L95.25,89.688L96,89.778L96.75,89.843L97.5,89.888L98.25,89.921L99,89.944L99.75,89.96L100.5,89.972L101.25,89.98L102,89.986L102.75,89.99L103.5,89.993L104.25,89.995L105,89.996L105.75,89.997L106.5,89.998L107.25,89.998L108,89.997L108.75,89.996L109.5,89.993L110.25,89.987L111,89.975L111.75,89.952L112.5,89.908" stroke="#6626bb" stroke-width="2"/></g></g><path class="foreground" aria-hidden="true" d="" display="none"/></g><g transform="translate(0,0)"><path class="background" aria-hidden="true" d="M0,0h120v90h-120Z"/><g><g class="mark-line role-mark concat_0_layer_0_marks" role="graphics-object" aria-roledescription="line mark container"><path aria-label="t: 0; M: 0.000001; gene: Gene 2" role="graphics-symbol" aria-roledescription="line mark" d="M0,90L0.75,77.253L1.5,76.808L2.25,80.225L3,83.015L3.75,85.034L4.5,86.474L5.25,87.497L6,88.224L6.75,88.74L7.5,89.106L8.25,89.365L9,89.55L9.75,89.68L10.5,89.773L11.25,89.839L12,89.886L12.75,89.919L13.5,89.942L14.25,89.959L15,89.971L15.75,89.979L16.5,89.985L17.25,89.989L18,89.992L18.75,89.993L19.5,89.993L20.25,89.992L21,89.989L21.75,89.981L22.5,89.965L23.25,89.935L24,89.875L24.75,89.758L25.5,89.532L26.25,89.091L27,88.245L27.75,86.655L28.5,83.785L29.25,78.963L30,71.691L30.75,62.153L31.5,51.388L32.25,40.77L33,31.338L33.75,23.558L34.5,17.452L35.25,12.814L36,9.368L36.75,6.845L37.5,5.015L38.25,3.697L39,2.751L39.75,2.076L40.5,1.594L41.25,1.251L42,1.007L42.75,0.834L43.5,0.711L44.25,0.626L45,0.575L45.75,0.624L46.5,1.514L47.25,8.225L48,25.509L48.75,43.208L49.5,56.643L50.25,66.303L51,73.18L51.75,78.064L52.5,81.531L53.25,83.991L54,85.736L54.75,86.975L55.5,87.854L56.25,88.477L57,88.92L57.75,89.233L58.5,89.456L59.25,89.614L60,89.726L60.75,89.806L61.5,89.862L62.25,89.902L63,89.931L63.75,89.951L64.5,89.965L65.25,89.975L66,89.982L66.75,89.987L67.5,89.991L68.25,89.994L69,89.995L69.75,89.997L70.5,89.997L71.25,89.998L72,89.997L72.75,89.997L73.5,89.995L74.25,89.991L75,89.983L75.75,89.968L76.5,89.939L77.25,89.882L78,89.77L78.75,89.553L79.5,89.13L80.25,88.316L81,86.78L81.75,83.999L82.5,79.299L83.25,72.158L84,62.715L84.75,51.973L85.5,41.31L86.25,31.796L87,23.923L87.75,17.732L88.5,13.024L89.25,9.522L90,6.957L90.75,5.096L91.5,3.754L92.25,2.793L93,2.105L93.75,1.615L94.5,1.266L95.25,1.018L96,0.842L96.75,0.717L97.5,0.629L98.25,0.575L99,0.609L99.75,1.35L100.5,7.279L101.25,24.027L102,41.989L102.75,55.755L103.5,65.669L104.25,72.729L105,77.744L105.75,81.304L106.5,83.83L107.25,85.622L108,86.894L108.75,87.796L109.5,88.436L110.25,88.891L111,89.213L111.75,89.442L112.5,89.604" stroke="#048059" stroke-width="2"/></g></g><path class="foreground" aria-hidden="true" d="" display="none"/></g></g></g><path class="foreground" aria-hidden="true" d="" display="none"/></g></g><g class="mark-group role-scope concat_1_group" role="graphics-object" aria-roledescription="group mark container"><g transform="translate(0,127)"><path class="background" aria-hidden="true" d="M0.5,0.5h120v90h-120Z"/><g><g class="mark-group role-axis" role="graphics-symbol" aria-roledescription="axis" aria-label="X-axis titled 'Time (min)' for a linear scale with values from 0 to 160"><g transform="translate(0.5,90.5)"><path class="background" aria-hidden="true" d="M0,0h0v0h0Z" pointer-events="none"/><g><g class="mark-rule role-axis-tick" pointer-events="none"><line transform="translate(0,0)" x2="0" y2="3" stroke="black" stroke-width="1" opacity="1"/><line transform="translate(38,0)" x2="0" y2="3" stroke="black" stroke-width="1" opacity="1"/><line transform="translate(75,0)" x2="0" y2="3" stroke="black" stroke-width="1" opacity="1"/><line transform="translate(113,0)" x2="0" y2="3" stroke="black" stroke-width="1" opacity="1"/></g><g class="mark-text role-axis-label" pointer-events="none"><text text-anchor="start" transform="translate(0,13)" font-family="Arial" font-size="10px" fill="#000" opacity="1">0</text><text text-anchor="middle" transform="translate(37.5,13)" font-family="Arial" font-size="10px" fill="#000" opacity="1">50</text><text text-anchor="middle" transform="translate(75,13)" font-family="Arial" font-size="10px" fill="#000" opacity="1">100</text><text text-anchor="middle" transform="translate(112.5,13)" font-family="Arial" font-size="10px" fill="#000" opacity="1">150</text></g><g class="mark-rule role-axis-domain" pointer-events="none"><line transform="translate(0,0)" x2="120" y2="0" stroke="black" stroke-width="1" opacity="1"/></g><g class="mark-text role-axis-title" pointer-events="none"><text text-anchor="middle" transform="translate(60,28)" font-family="Arial" font-size="11px" font-weight="normal" fill="#000" opacity="1">Time (min)</text></g></g><path class="foreground" aria-hidden="true" d="" pointer-events="none" display="none"/></g></g><g class="mark-group role-axis" role="graphics-symbol" aria-roledescription="axis" aria-label="Y-axis titled 'Protein' for a linear scale with values from 0 to 3,500"><g transform="translate(0.5,0.5)"><path class="background" aria-hidden="true" d="M0,0h0v0h0Z" pointer-events="none"/><g><g class="mark-rule role-axis-tick" pointer-events="none"><line transform="translate(0,90)" x2="-3" y2="0" stroke="black" stroke-width="1" opacity="1"/><line transform="translate(0,64)" x2="-3" y2="0" stroke="black" stroke-width="1" opacity="1"/><line transform="translate(0,39)" x2="-3" y2="0" stroke="black" stroke-width="1" opacity="1"/><line transform="translate(0,13)" x2="-3" y2="0" stroke="black" stroke-width="1" opacity="1"/></g><g class="mark-text role-axis-label" pointer-events="none"><text text-anchor="end" transform="translate(-5,93)" font-family="Arial" font-size="10px" fill="#000" opacity="1">0</text><text text-anchor="end" transform="translate(-5,67.28571428571429)" font-family="Arial" font-size="10px" fill="#000" opacity="1">1,000</text><text text-anchor="end" transform="translate(-5,41.57142857142858)" font-family="Arial" font-size="10px" fill="#000" opacity="1">2,000</text><text text-anchor="end" transform="translate(-5,15.857142857142861)" font-family="Arial" font-size="10px" fill="#000" opacity="1">3,000</text></g><g class="mark-rule role-axis-domain" pointer-events="none"><line transform="translate(0,90)" x2="0" y2="-90" stroke="black" stroke-width="1" opacity="1"/></g><g class="mark-text role-axis-title" pointer-events="none"><text text-anchor="middle" transform="translate(-34.0244140625,45) rotate(-90) translate(0,-2)" font-family="Arial" font-size="11px" font-weight="normal" fill="#000" opacity="1">Protein</text></g></g><path class="foreground" aria-hidden="true" d="" pointer-events="none" display="none"/></g></g><g class="mark-group role-scope concat_1_layer_0_pathgroup" role="graphics-object" aria-roledescription="group mark container"><g transform="translate(0,0)"><path class="background" aria-hidden="true" d="M0,0h120v90h-120Z"/><g><g class="mark-line role-mark concat_1_layer_0_marks" role="graphics-object" aria-roledescription="line mark container"><path aria-label="t: 0; P: 100; gene: Gene 1" role="graphics-symbol" aria-roledescription="line mark" d="M0,87.429L0.75,87.043L1.5,84.474L2.25,80.087L3,74.436L3.75,68.062L4.5,61.426L5.25,54.875L6,48.642L6.75,42.872L7.5,37.636L8.25,32.958L9,28.827L9.75,25.218L10.5,22.1L11.25,19.484L12,17.647L12.75,17.607L13.5,20.149L14.25,24.735L15,30.46L15.75,36.623L16.5,42.767L17.25,48.617L18,54.021L18.75,58.908L19.5,63.262L20.25,67.095L21,70.44L21.75,73.341L22.5,75.841L23.25,77.987L24,79.823L24.75,81.388L25.5,82.72L26.25,83.852L27,84.811L27.75,85.623L28.5,86.309L29.25,86.89L30,87.38L30.75,87.793L31.5,88.142L32.25,88.436L33,88.683L33.75,88.892L34.5,89.068L35.25,89.215L36,89.34L36.75,89.444L37.5,89.532L38.25,89.606L39,89.668L39.75,89.718L40.5,89.759L41.25,89.79L42,89.808L42.75,89.81L43.5,89.784L44.25,89.709L45,89.543L45.75,89.209L46.5,88.572L47.25,87.423L48,85.492L48.75,82.532L49.5,78.444L50.25,73.351L51,67.542L51.75,61.367L52.5,55.144L53.25,49.121L54,43.464L54.75,38.273L55.5,33.591L56.25,29.425L57,25.759L57.75,22.558L58.5,19.783L59.25,17.39L60,15.336L60.75,13.579L61.5,12.08L62.25,10.807L63,9.73L63.75,8.829L64.5,8.15L65.25,8.166L66,10.176L66.75,14.606L67.5,20.653L68.25,27.453L69,34.399L69.75,41.114L70.5,47.38L71.25,53.089L72,58.202L72.75,62.722L73.5,66.68L74.25,70.119L75,73.089L75.75,75.643L76.5,77.831L77.25,79.698L78,81.289L78.75,82.64L79.5,83.786L80.25,84.758L81,85.579L81.75,86.274L82.5,86.861L83.25,87.356L84,87.773L84.75,88.125L85.5,88.422L86.25,88.672L87,88.882L87.75,89.06L88.5,89.209L89.25,89.334L90,89.44L90.75,89.528L91.5,89.603L92.25,89.665L93,89.716L93.75,89.757L94.5,89.789L95.25,89.808L96,89.811L96.75,89.788L97.5,89.718L98.25,89.561L99,89.244L99.75,88.636L100.5,87.536L101.25,85.675L102,82.8L102.75,78.797L103.5,73.772L104.25,68.006L105,61.847L105.75,55.617L106.5,49.572L107.25,43.883L108,38.653L108.75,33.931L109.5,29.727L110.25,26.023L111,22.788L111.75,19.982L112.5,17.561" stroke="#1657a8" stroke-width="2"/></g></g><path class="foreground" aria-hidden="true" d="" display="none"/></g><g transform="translate(0,0)"><path class="background" aria-hidden="true" d="M0,0h120v90h-120Z"/><g><g class="mark-line role-mark concat_1_layer_0_marks" role="graphics-object" aria-roledescription="line mark container"><path aria-label="t: 0; P: 100; gene: Gene 3" role="graphics-symbol" aria-roledescription="line mark" d="M0,87.429L0.75,87.838L1.5,88.181L2.25,88.469L3,88.71L3.75,88.912L4.5,89.08L5.25,89.219L6,89.331L6.75,89.416L7.5,89.472L8.25,89.491L9,89.452L9.75,89.32L10.5,89.026L11.25,88.45L12,87.405L12.75,85.64L13.5,82.907L14.25,79.074L15,74.214L15.75,68.58L16.5,62.506L17.25,56.317L18,50.273L18.75,44.558L19.5,39.285L20.25,34.509L21,30.246L21.75,26.484L22.5,23.193L23.25,20.335L24,17.868L24.75,15.747L25.5,13.931L26.25,12.382L27,11.065L27.75,9.952L28.5,9.033L29.25,8.436L30,8.974L30.75,11.874L31.5,16.968L32.25,23.341L33,30.217L33.75,37.083L34.5,43.626L35.25,49.673L36,55.146L36.75,60.022L37.5,64.317L38.25,68.067L39,71.318L39.75,74.121L40.5,76.527L41.25,78.585L42,80.341L42.75,81.835L43.5,83.103L44.25,84.179L45,85.09L45.75,85.86L46.5,86.511L47.25,87.061L48,87.524L48.75,87.916L49.5,88.245L50.25,88.523L51,88.757L51.75,88.954L52.5,89.12L53.25,89.259L54,89.377L54.75,89.476L55.5,89.559L56.25,89.628L57,89.686L57.75,89.733L58.5,89.771L59.25,89.798L60,89.812L60.75,89.806L61.5,89.768L62.25,89.671L63,89.463L63.75,89.053L64.5,88.284L65.25,86.924L66,84.699L66.75,81.391L67.5,76.97L68.25,71.621L69,65.662L69.75,59.441L70.5,53.257L71.25,47.332L72,41.811L72.75,36.774L73.5,32.252L74.25,28.243L75,24.724L75.75,21.659L76.5,19.007L77.25,16.723L78,14.764L78.75,13.091L79.5,11.665L80.25,10.455L81,9.433L81.75,8.589L82.5,8.031L83.25,8.514L84,11.307L84.75,16.338L85.5,22.697L86.25,29.594L87,36.5L87.75,43.095L88.5,49.198L89.25,54.725L90,59.654L90.75,63.997L91.5,67.79L92.25,71.079L93,73.917L93.75,76.353L94.5,78.437L95.25,80.215L96,81.728L96.75,83.013L97.5,84.102L98.25,85.025L99,85.805L99.75,86.465L100.5,87.022L101.25,87.492L102,87.888L102.75,88.222L103.5,88.503L104.25,88.74L105,88.94L105.75,89.108L106.5,89.25L107.25,89.369L108,89.469L108.75,89.553L109.5,89.623L110.25,89.682L111,89.73L111.75,89.768L112.5,89.796" stroke="#6626bb" stroke-width="2"/></g></g><path class="foreground" aria-hidden="true" d="" display="none"/></g><g transform="translate(0,0)"><path class="background" aria-hidden="true" d="M0,0h120v90h-120Z"/><g><g class="mark-line role-mark concat_1_layer_0_marks" role="graphics-object" aria-roledescription="line mark container"><path aria-label="t: 0; P: 1000; gene: Gene 2" role="graphics-symbol" aria-roledescription="line mark" d="M0,64.286L0.75,67.627L1.5,69.147L2.25,70.576L3,72.277L3.75,74.108L4.5,75.934L5.25,77.675L6,79.283L6.75,80.738L7.5,82.035L8.25,83.176L9,84.173L9.75,85.037L10.5,85.781L11.25,86.421L12,86.968L12.75,87.434L13.5,87.831L14.25,88.168L15,88.454L15.75,88.696L16.5,88.9L17.25,89.073L18,89.219L18.75,89.342L19.5,89.446L20.25,89.533L21,89.606L21.75,89.667L22.5,89.716L23.25,89.755L24,89.781L24.75,89.793L25.5,89.78L26.25,89.726L27,89.598L27.75,89.332L28.5,88.814L29.25,87.862L30,86.22L30.75,83.621L31.5,79.905L32.25,75.12L33,69.512L33.75,63.423L34.5,57.186L35.25,51.076L36,45.285L36.75,39.934L37.5,35.081L38.25,30.746L39,26.918L39.75,23.568L40.5,20.657L41.25,18.143L42,15.981L42.75,14.13L43.5,12.55L44.25,11.206L45,10.066L45.75,9.108L46.5,8.341L47.25,8.031L48,9.295L48.75,13.035L49.5,18.684L50.25,25.327L51,32.277L51.75,39.091L52.5,45.511L53.25,51.398L54,56.694L54.75,61.394L55.5,65.52L56.25,69.114L57,72.223L57.75,74.9L58.5,77.194L59.25,79.155L60,80.827L60.75,82.248L61.5,83.454L62.25,84.476L63,85.341L63.75,86.073L64.5,86.691L65.25,87.212L66,87.652L66.75,88.023L67.5,88.336L68.25,88.6L69,88.821L69.75,89.008L70.5,89.166L71.25,89.298L72,89.409L72.75,89.503L73.5,89.581L74.25,89.647L75,89.701L75.75,89.746L76.5,89.78L77.25,89.804L78,89.812L78.75,89.799L79.5,89.746L80.25,89.622L81,89.365L81.75,88.865L82.5,87.942L83.25,86.345L84,83.803L84.75,80.145L85.5,75.411L86.25,69.837L87,63.762L87.75,57.523L88.5,51.399L89.25,45.586L90,40.208L90.75,35.328L91.5,30.965L92.25,27.11L93,23.735L93.75,20.802L94.5,18.267L95.25,16.088L96,14.221L96.75,12.628L97.5,11.272L98.25,10.122L99,9.154L99.75,8.373L100.5,8.003L101.25,9.097L102,12.655L102.75,18.193L103.5,24.789L104.25,31.735L105,38.572L105.75,45.029L106.5,50.96L107.25,56.304L108,61.05L108.75,65.219L109.5,68.853L110.25,71.998L111,74.706L111.75,77.029L112.5,79.014" stroke="#048059" stroke-width="2"/></g></g><path class="foreground" aria-hidden="true" d="" display="none"/></g></g></g><path class="foreground" aria-hidden="true" d="" display="none"/></g></g><g class="mark-group role-legend" role="graphics-symbol" aria-roledescription="legend" aria-label="Symbol legend for stroke color with 3 values: Gene 1, Gene 2, Gene 3"><g transform="translate(140,0)"><path class="background" aria-hidden="true" d="M0,0h49v37h-49Z" pointer-events="none"/><g><g class="mark-group role-legend-entry"><g transform="translate(0,0)"><path class="background" aria-hidden="true" d="M0,0h0v0h0Z" pointer-events="none"/><g><g class="mark-group role-scope" role="graphics-object" aria-roledescription="group mark container"><g transform="translate(0,0)"><path class="background" aria-hidden="true" d="M0,0h48.802734375v11h-48.802734375Z" pointer-events="none" opacity="1"/><g><g class="mark-symbol role-legend-symbol" pointer-events="none"><path transform="translate(6,6)" d="M-5,0L5,0" stroke="#1657a8" stroke-width="1.5" opacity="1"/></g><g class="mark-text role-legend-label" pointer-events="none"><text text-anchor="start" transform="translate(16,9)" font-family="Arial" font-size="10px" fill="#000" opacity="1">Gene 1</text></g></g><path class="foreground" aria-hidden="true" d="" pointer-events="none" display="none"/></g><g transform="translate(0,13)"><path class="background" aria-hidden="true" d="M0,0h48.802734375v11h-48.802734375Z" pointer-events="none" opacity="1"/><g><g class="mark-symbol role-legend-symbol" pointer-events="none"><path transform="translate(6,6)" d="M-5,0L5,0" stroke="#048059" stroke-width="1.5" opacity="1"/></g><g class="mark-text role-legend-label" pointer-events="none"><text text-anchor="start" transform="translate(16,9)" font-family="Arial" font-size="10px" fill="#000" opacity="1">Gene 2</text></g></g><path class="foreground" aria-hidden="true" d="" pointer-events="none" display="none"/></g><g transform="translate(0,26)"><path class="background" aria-hidden="true" d="M0,0h48.802734375v11h-48.802734375Z" pointer-events="none" opacity="1"/><g><g class="mark-symbol role-legend-symbol" pointer-events="none"><path transform="translate(6,6)" d="M-5,0L5,0" stroke="#6626bb" stroke-width="1.5" opacity="1"/></g><g class="mark-text role-legend-label" pointer-events="none"><text text-anchor="start" transform="translate(16,9)" font-family="Arial" font-size="10px" fill="#000" opacity="1">Gene 3</text></g></g><path class="foreground" aria-hidden="true" d="" pointer-events="none" display="none"/></g></g></g><path class="foreground" aria-hidden="true" d="" pointer-events="none" display="none"/></g></g></g><path class="foreground" aria-hidden="true" d="" pointer-events="none" display="none"/></g></g></g><path class="foreground" aria-hidden="true" d="" display="none"/></g></g></g></svg>