<svg xmlns="http://www.w3.org/2000/svg" xmlns:xlink="http://www.w3.org/1999/xlink" version="1.1" class="marks" width="164" height="117" viewBox="0 0 164 117"><rect width="164" height="117" fill="white"/><g fill="none" stroke-miterlimit="10" transform="translate(37,7)"><g class="mark-group role-frame root" role="graphics-object" aria-roledescription="group mark container"><g transform="translate(0,0)"><path class="background" aria-hidden="true" d="M0.5,0.5h120v90h-120Z"/><g><g class="mark-group role-axis" role="graphics-symbol" aria-roledescription="axis" aria-label="X-axis for a linear scale with values from 0 to 200"><g transform="translate(0.5,90.5)"><path class="background" aria-hidden="true" d="M0,0h0v0h0Z" pointer-events="none"/><g><g class="mark-rule role-axis-tick" pointer-events="none"><line transform="translate(0,0)" x2="0" y2="3" stroke="black" stroke-width="1" opacity="1"/><line transform="translate(30,0)" x2="0" y2="3" stroke="black" stroke-width="1" opacity="1"/><line transform="translate(60,0)" x2="0" y2="3" stroke="black" stroke-width="1" opacity="1"/><line transform="translate(90,0)" x2="0" y2="3" stroke="black" stroke-width="1" opacity="1"/><line transform="translate(120,0)" x2="0" y2="3" stroke="black" stroke-width="1" opacity="1"/></g><g class="mark-text role-axis-label" pointer-events="none"><text text-anchor="start" transform="translate(0,13)" font-family="Arial" font-size="10px" fill="#000" opacity="1">0</text><text text-anchor="middle" transform="translate(30,13)" font-family="Arial" font-size="10px" fill="#000" opacity="1">50</text><text text-anchor="middle" transform="translate(60,13)" font-family="Arial" font-size="10px" fill="#000" opacity="1">100</text><text text-anchor="middle" transform="translate(90,13)" font-family="Arial" font-size="10px" fill="#000" opacity="1">150</text><text text-anchor="end" transform="translate(120,13)" font-family="Arial" font-size="10px" fill="#000" opacity="1">200</text></g><g class="mark-rule role-axis-domain" pointer-events="none"><line transform="translate(0,0)" x2="120" y2="0" stroke="black" stroke-width="1" opacity="1"/></g></g><path class="foreground" aria-hidden="true" d="" pointer-events="none" display="none"/></g></g><g class="mark-group role-axis" role="graphics-symbol" aria-roledescription="axis" aria-label="Y-axis titled 'mRNA' for a linear scale with values from 0 to 12"><g transform="translate(0.5,0.5)"><path class="background" aria-hidden="true" d="M0,0h0v0h0Z" pointer-events="none"/><g><g class="mark-rule role-axis-tick" pointer-events="none"><line transform="translate(0,90)" x2="-3" y2="0" stroke="black" stroke-width="1" opacity="1"/><line transform="translate(0,52)" x2="-3" y2="0" stroke="black" stroke-width="1" opacity="1"/><line transform="translate(0,15)" x2="-3" y2="0" stroke="black" stroke-width="1" opacity="1"/></g><g class="mark-text role-axis-label" pointer-events="none"><text text-anchor="end" transform="translate(-5,93)" font-family="Arial" font-size="10px" fill="#000" opacity="1">0</text><text text-anchor="end" transform="translate(-5,55.49999999999999)" font-family="Arial" font-size="10px" fill="#000" opacity="1">5</text><text text-anchor="end" transform="translate(-5,17.999999999999996)" font-family="Arial" font-size="10px" fill="#000" opacity="1">10</text></g><g class="mark-rule role-axis-domain" pointer-events="none"><line transform="translate(0,90)" x2="0" y2="-90" stroke="black" stroke-width="1" opacity="1"/></g><g class="mark-text role-axis-title" pointer-events="none"><text text-anchor="middle" transform="translate(-20.123046875,45) rotate(-90) translate(0,-2)" font-family="Arial" font-size="11px" font-weight="normal" fill="#000" opacity="1">mRNA</text></g></g><path class="foreground" aria-hidden="true" d="" pointer-events="none" display="none"/></g></g><g class="mark-group role-scope layer_0_pathgroup" role="graphics-object" aria-roledescription="group mark container"><g transform="translate(0,0)"><path class="background" aria-hidden="true" d="M0,0h120v90h-120Z"/><g><g class="mark-line role-mark layer_0_marks" role="graphics-object" aria-roledescription="line mark container"><path aria-label="t: 0; M: 0.000001; gene: 1" role="graphics-symbol" aria-roledescription="line mark" d="M0,90L0.6,77.392L1.2,74.822L1.8,76.716L2.4,79.15L3,81.256L3.6,82.902L4.2,84.128L4.8,85.009L5.4,85.621L6,86.032L6.6,86.3L7.2,86.475L7.8,86.6L8.4,86.706L9,86.817L9.6,86.947L10.2,87.1L10.8,87.275L11.4,87.466L12,87.666L12.6,87.87L13.2,88.072L13.8,88.266L14.4,88.451L15,88.623L15.6,88.781L16.2,88.926L16.8,89.057L17.4,89.174L18,89.278L18.6,89.37L19.2,89.45L19.8,89.52L20.4,89.58L21,89.631L21.6,89.676L22.2,89.713L22.8,89.745L23.4,89.772L24,89.795L24.6,89.814L25.2,89.831L25.8,89.844L26.4,89.856L27,89.866L27.6,89.874L28.2,89.881L28.8,89.887L29.4,89.892L30,89.896L30.6,89.9L31.2,89.903L31.8,89.905L32.4,89.907L33,89.909L33.6,89.911L34.2,89.912L34.8,89.913L35.4,89.914L36,89.915L36.6,89.916L37.2,89.917L37.8,89.917L38.4,89.918L39,89.918L39.6,89.918L40.2,89.919L40.8,89.919L41.4,89.919L42,89.919L42.6,89.919L43.2,89.919L43.8,89.92L44.4,89.92L45,89.92L45.6,89.92L46.2,89.92L46.8,89.92L47.4,89.92L48,89.92L48.6,89.92L49.2,89.92L49.8,89.92L50.4,89.92L51,89.92L51.6,89.92L52.2,89.92L52.8,89.92L53.4,89.92L54,89.92L54.6,89.92L55.2,89.92L55.8,89.92L56.4,89.92L57,89.92L57.6,89.92L58.2,89.92L58.8,89.92L59.4,89.92L60,89.92L60.6,89.92L61.2,89.92L61.8,89.92L62.4,89.92L63,89.92L63.6,89.92L64.2,89.92L64.8,89.92L65.4,89.92L66,89.92L66.6,89.92L67.2,89.92L67.8,89.92L68.4,89.92L69,89.92L69.6,89.92L70.2,89.92L70.8,89.92L71.4,89.92L72,89.92L72.6,89.92L73.2,89.92L73.8,89.92L74.4,89.92L75,89.92L75.6,89.92L76.2,89.92L76.8,89.92L77.4,89.92L78,89.92L78.6,89.92L79.2,89.92L79.8,89.92L80.4,89.92L81,89.92L81.6,89.92L82.2,89.92L82.8,89.92L83.4,89.92L84,89.92L84.6,89.92L85.2,89.92L85.8,89.92L86.4,89.92L87,89.92L87.6,89.92L88.2,89.92L88.8,89.92L89.4,89.92L90,89.92L90.6,89.92L91.2,89.92L91.8,89.92L92.4,89.92L93,89.92L93.6,89.92L94.2,89.92L94.8,89.92L95.4,89.92L96,89.92L96.6,89.92L97.2,89.92L97.8,89.92L98.4,89.92L99,89.92L99.6,89.92L100.2,89.92L100.8,89.92L101.4,89.92L102,89.92L102.6,89.92L103.2,89.92L103.8,89.92L104.4,89.92L105,89.92L105.6,89.92L106.2,89.92L106.8,89.92L107.4,89.92L108,89.92L108.6,89.92L109.2,89.92L109.8,89.92L110.4,89.92L111,89.92L111.6,89.92L112.2,89.92L112.8,89.92L113.4,89.92L114,89.92L114.6,89.92L115.2,89.92L115.8,89.92L116.4,89.92L117,89.92L117.6,89.92L118.2,89.92L118.8,89.92L119.4,89.92L120,89.92" stroke="#1657a8" stroke-width="2"/></g></g><path class="foreground" aria-hidden="true" d="" display="none"/></g><g transform="translate(0,0)"><path class="background" aria-hidden="true" d="M0,0h120v90h-120Z"/><g><g class="mark-line role-mark layer_0_marks" role="graphics-object" aria-roledescription="line mark container"><path aria-label="t: 0; M: 0.000001; gene: 2" role="graphics-symbol" aria-roledescription="line mark" d="M0,90L0.6,69.759L1.2,63.057L1.8,64.536L2.4,67.849L3,71.018L3.6,73.544L4.2,75.353L4.8,76.496L5.4,77.055L6,77.115L6.6,76.755L7.2,76.051L7.8,75.074L8.4,73.885L9,72.54L9.6,71.075L10.2,69.513L10.8,67.859L11.4,66.105L12,64.232L12.6,62.219L13.2,60.04L13.8,57.675L14.4,55.11L15,52.339L15.6,49.366L16.2,46.211L16.8,42.904L17.4,39.487L18,36.011L18.6,32.535L19.2,29.118L19.8,25.818L20.4,22.686L21,19.764L21.6,17.081L22.2,14.656L22.8,12.494L23.4,10.592L24,8.939L24.6,7.518L25.2,6.308L25.8,5.286L26.4,4.43L27,3.718L27.6,3.128L28.2,2.643L28.8,2.245L29.4,1.92L30,1.655L30.6,1.439L31.2,1.264L31.8,1.122L32.4,1.007L33,0.913L33.6,0.837L34.2,0.776L34.8,0.725L35.4,0.685L36,0.651L36.6,0.624L37.2,0.601L37.8,0.583L38.4,0.568L39,0.555L39.6,0.545L40.2,0.536L40.8,0.529L41.4,0.522L42,0.517L42.6,0.513L43.2,0.509L43.8,0.506L44.4,0.504L45,0.501L45.6,0.5L46.2,0.498L46.8,0.497L47.4,0.495L48,0.495L48.6,0.494L49.2,0.493L49.8,0.492L50.4,0.492L51,0.491L51.6,0.491L52.2,0.491L52.8,0.49L53.4,0.49L54,0.49L54.6,0.49L55.2,0.49L55.8,0.489L56.4,0.489L57,0.489L57.6,0.489L58.2,0.489L58.8,0.489L59.4,0.489L60,0.489L60.6,0.489L61.2,0.489L61.8,0.489L62.4,0.489L63,0.489L63.6,0.489L64.2,0.489L64.8,0.489L65.4,0.489L66,0.489L66.6,0.489L67.2,0.489L67.8,0.489L68.4,0.489L69,0.489L69.6,0.489L70.2,0.489L70.8,0.489L71.4,0.489L72,0.489L72.6,0.489L73.2,0.489L73.8,0.489L74.4,0.489L75,0.489L75.6,0.489L76.2,0.489L76.8,0.489L77.4,0.489L78,0.489L78.6,0.489L79.2,0.489L79.8,0.489L80.4,0.489L81,0.489L81.6,0.489L82.2,0.489L82.8,0.489L83.4,0.489L84,0.489L84.6,0.489L85.2,0.489L85.8,0.489L86.4,0.489L87,0.489L87.6,0.489L88.2,0.489L88.8,0.489L89.4,0.489L90,0.489L90.6,0.489L91.2,0.489L91.8,0.489L92.4,0.489L93,0.489L93.6,0.489L94.2,0.489L94.8,0.489L95.4,0.489L96,0.489L96.6,0.489L97.2,0.489L97.8,0.489L98.4,0.489L99,0.489L99.6,0.489L100.2,0.489L100.8,0.489L101.4,0.489L102,0.489L102.6,0.489L103.2,0.489L103.8,0.489L104.4,0.489L105,0.489L105.6,0.489L106.2,0.489L106.8,0.489L107.4,0.489L108,0.489L108.6,0.489L109.2,0.489L109.8,0.489L110.4,0.489L111,0.489L111.6,0.489L112.2,0.489L112.8,0.489L113.4,0.489L114,0.489L114.6,0.489L115.2,0.489L115.8,0.489L116.4,0.489L117,0.489L117.6,0.489L118.2,0.489L118.8,0.489L119.4,0.489L120,0.489" stroke="#048059" stroke-width="2"/></g></g><path class="foreground" aria-hidden="true" d="" display="none"/></g></g><g class="mark-group role-scope layer_1_pathgroup" role="graphics-object" aria-roledescription="group mark container"><g transform="translate(0,0)"><path class="background" aria-hidden="true" d="M0,0h120v90h-120Z"/><g><g class="mark-line role-mark layer_1_marks" role="graphics-object" aria-roledescription="line mark container"><path aria-label="t: 0; M: 0.000001; gene: 1" role="graphics-symbol" aria-roledescription="line mark" d="M0,90L0.6,77.683L1.2,75.084L1.8,76.87L2.4,79.243L3,81.317L3.6,82.946L4.2,84.164L4.8,85.043L5.4,85.657L6,86.071L6.6,86.344L7.2,86.526L7.8,86.656L8.4,86.767L9,86.882L9.6,87.015L10.2,87.169L10.8,87.343L11.4,87.533L12,87.732L12.6,87.933L13.2,88.131L13.8,88.322L14.4,88.503L15,88.671L15.6,88.826L16.2,88.967L16.8,89.093L17.4,89.207L18,89.307L18.6,89.395L19.2,89.472L19.8,89.539L20.4,89.596L21,89.645L21.6,89.687L22.2,89.723L22.8,89.754L23.4,89.779L24,89.801L24.6,89.819L25.2,89.835L25.8,89.848L26.4,89.859L27,89.868L27.6,89.876L28.2,89.883L28.8,89.888L29.4,89.893L30,89.897L30.6,89.901L31.2,89.903L31.8,89.906L32.4,89.908L33,89.91L33.6,89.911L34.2,89.913L34.8,89.914L35.4,89.915L36,89.915L36.6,89.916L37.2,89.917L37.8,89.917L38.4,89.918L39,89.918L39.6,89.918L40.2,89.919L40.8,89.919L41.4,89.919L42,89.919L42.6,89.919L43.2,89.919L43.8,89.92L44.4,89.92L45,89.92L45.6,89.92L46.2,89.92L46.8,89.92L47.4,89.92L48,89.92L48.6,89.92L49.2,89.92L49.8,89.92L50.4,89.92L51,89.92L51.6,89.92L52.2,89.92L52.8,89.92L53.4,89.92L54,89.92L54.6,89.92L55.2,89.92L55.8,89.92L56.4,89.92L57,89.92L57.6,89.92L58.2,89.92L58.8,89.92L59.4,89.92L60,89.92L60.6,89.92L61.2,89.92L61.8,89.92L62.4,89.92L63,89.92L63.6,89.92L64.2,89.92L64.8,89.92L65.4,89.92L66,89.92L66.6,89.92L67.2,89.92L67.8,89.92L68.4,89.92L69,89.92L69.6,89.92L70.2,89.92L70.8,89.92L71.4,89.92L72,89.92L72.6,89.92L73.2,89.92L73.8,89.92L74.4,89.92L75,89.92L75.6,89.92L76.2,89.92L76.8,89.92L77.4,89.92L78,89.92L78.6,89.92L79.2,89.92L79.8,89.92L80.4,89.92L81,89.92L81.6,89.92L82.2,89.92L82.8,89.92L83.4,89.92L84,89.92L84.6,89.92L85.2,89.92L85.8,89.92L86.4,89.92L87,89.92L87.6,89.92L88.2,89.92L88.8,89.92L89.4,89.92L90,89.92L90.6,89.92L91.2,89.92L91.8,89.92L92.4,89.92L93,89.92L93.6,89.92L94.2,89.92L94.8,89.92L95.4,89.92L96,89.92L96.6,89.92L97.2,89.92L97.8,89.92L98.4,89.92L99,89.92L99.6,89.92L100.2,89.92L100.8,89.92L101.4,89.92L102,89.92L102.6,89.92L103.2,89.92L103.8,89.92L104.4,89.92L105,89.92L105.6,89.92L106.2,89.92L106.8,89.92L107.4,89.92L108,89.92L108.6,89.92L109.2,89.92L109.8,89.92L110.4,89.92L111,89.92L111.6,89.92L112.2,89.92L112.8,89.92L113.4,89.92L114,89.92L114.6,89.92L115.2,89.92L115.8,89.92L116.4,89.92L117,89.92L117.6,89.92L118.2,89.92L118.8,89.92L119.4,89.92L120,89.92" stroke="#f462a3" stroke-width="2" stroke-dasharray="4,4"/></g></g><path class="foreground" aria-hidden="true" d="" display="none"/></g><g transform="translate(0,0)"><path class="background" aria-hidden="true" d="M0,0h120v90h-120Z"/><g><g class="mark-line role-mark layer_1_marks" role="graphics-object" aria-roledescription="line mark container"><path aria-label="t: 0; M: 0.000001; gene: 2" role="graphics-symbol" aria-roledescription="line mark" d="M0,90L0.6,70.004L1.2,63.197L1.8,64.466L2.4,67.68L3,70.81L3.6,73.325L4.2,75.134L4.8,76.28L5.4,76.841L6,76.899L6.6,76.535L7.2,75.82L7.8,74.826L8.4,73.615L9,72.24L9.6,70.738L10.2,69.131L10.8,67.427L11.4,65.617L12,63.683L12.6,61.605L13.2,59.359L13.8,56.926L14.4,54.294L15,51.458L15.6,48.428L16.2,45.225L16.8,41.882L17.4,38.443L18,34.963L18.6,31.501L19.2,28.115L19.8,24.862L20.4,21.79L21,18.938L21.6,16.331L22.2,13.984L22.8,11.901L23.4,10.075L24,8.493L24.6,7.137L25.2,5.985L25.8,5.016L26.4,4.205L27,3.531L27.6,2.974L28.2,2.517L28.8,2.142L29.4,1.835L30,1.586L30.6,1.383L31.2,1.219L31.8,1.085L32.4,0.977L33,0.889L33.6,0.818L34.2,0.76L34.8,0.712L35.4,0.674L36,0.642L36.6,0.617L37.2,0.596L37.8,0.578L38.4,0.564L39,0.552L39.6,0.542L40.2,0.534L40.8,0.527L41.4,0.521L42,0.516L42.6,0.512L43.2,0.508L43.8,0.505L44.4,0.503L45,0.501L45.6,0.499L46.2,0.498L46.8,0.496L47.4,0.495L48,0.494L48.6,0.493L49.2,0.493L49.8,0.492L50.4,0.492L51,0.491L51.6,0.491L52.2,0.491L52.8,0.49L53.4,0.49L54,0.49L54.6,0.49L55.2,0.489L55.8,0.489L56.4,0.489L57,0.489L57.6,0.489L58.2,0.489L58.8,0.489L59.4,0.489L60,0.489L60.6,0.489L61.2,0.489L61.8,0.489L62.4,0.489L63,0.489L63.6,0.489L64.2,0.489L64.8,0.489L65.4,0.489L66,0.489L66.6,0.489L67.2,0.489L67.8,0.489L68.4,0.489L69,0.489L69.6,0.489L70.2,0.489L70.8,0.489L71.4,0.489L72,0.489L72.6,0.489L73.2,0.489L73.8,0.489L74.4,0.489L75,0.489L75.6,0.489L76.2,0.489L76.8,0.489L77.4,0.489L78,0.489L78.6,0.489L79.2,0.489L79.8,0.489L80.4,0.489L81,0.489L81.6,0.489L82.2,0.489L82.8,0.489L83.4,0.489L84,0.489L84.6,0.489L85.2,0.489L85.8,0.489L86.4,0.489L87,0.489L87.6,0.489L88.2,0.489L88.8,0.489L89.4,0.489L90,0.489L90.6,0.489L91.2,0.489L91.8,0.489L92.4,0.489L93,0.489L93.6,0.489L94.2,0.489L94.8,0.489L95.4,0.489L96,0.489L96.6,0.489L97.2,0.489L97.8,0.489L98.4,0.489L99,0.489L99.6,0.489L100.2,0.489L100.8,0.489L101.4,0.489L102,0.489L102.6,0.489L103.2,0.489L103.8,0.489L104.4,0.489L105,0.489L105.6,0.489L106.2,0.489L106.8,0.489L107.4,0.489L108,0.489L108.6,0.489L109.2,0.489L109.8,0.489L110.4,0.489L111,0.489L111.6,0.489L112.2,0.489L112.8,0.489L113.4,0.489L114,0.489L114.6,0.489L115.2,0.489L115.8,0.489L116.4,0.489L117,0.489L117.6,0.489L118.2,0.489L118.8,0.489L119.4,0.489L120,0.489" stroke="#f462a3" stroke-width="2" stroke-dasharray="4,4"/></g></g><path class="foreground" aria-hidden="true" d="" display="none"/></g></g></g><path class="foreground" aria-hidden="true" d="" display="none"/></g></g></g></svg>