<svg xmlns="http://www.w3.org/2000/svg" xmlns:xlink="http://www.w3.org/1999/xlink" version="1.1" class="marks" width="220" height="261" viewBox="0 0 220 261"><rect width="220" height="261" fill="white"/><g fill="none" stroke-miterlimit="10" transform="translate(52,8)"><g class="mark-group role-frame root" role="graphics-object" aria-roledescription="group mark container"><g transform="translate(0,0)"><path class="background" aria-hidden="true" d="M0,0h120v0h-120Z"/><g><g class="mark-group role-scope concat_0_group" role="graphics-object" aria-roledescription="group mark container"><g transform="translate(0,0)"><path class="background" aria-hidden="true" d="M0.5,0.5h120v90h-120Z"/><g><g class="mark-group role-axis" role="graphics-symbol" aria-roledescription="axis" aria-label="X-axis for a linear scale with values from 0 to 200"><g transform="translate(0.5,90.5)"><path class="background" aria-hidden="true" d="M0,0h0v0h0Z" pointer-events="none"/><g><g class="mark-rule role-axis-tick" pointer-events="none"><line transform="translate(0,0)" x2="0" y2="3" stroke="black" stroke-width="1" opacity="1"/><line transform="translate(30,0)" x2="0" y2="3" stroke="black" stroke-width="1" opacity="1"/><line transform="translate(60,0)" x2="0" y2="3" stroke="black" stroke-width="1" opacity="1"/><line transform="translate(90,0)" x2="0" y2="3" stroke="black" stroke-width="1" opacity="1"/><line transform="translate(120,0)" x2="0" y2="3" stroke="black" stroke-width="1" opacity="1"/></g><g class="mark-text role-axis-label" pointer-events="none"><text text-anchor="start" transform="translate(0,13)" font-family="Arial" font-size="10px" fill="#000" opacity="1">0</text><text text-anchor="middle" transform="translate(30,13)" font-family="Arial" font-size="10px" fill="#000" opacity="1">50</text><text text-anchor="middle" transform="translate(60,13)" font-family="Arial" font-size="10px" fill="#000" opacity="1">100</text><text text-anchor="middle" transform="translate(90,13)" font-family="Arial" font-size="10px" fill="#000" opacity="1">150</text><text text-anchor="end" transform="translate(120,13)" font-family="Arial" font-size="10px" fill="#000" opacity="1">200</text></g><g class="mark-rule role-axis-domain" pointer-events="none"><line transform="translate(0,0)" x2="120" y2="0" stroke="black" stroke-width="1" opacity="1"/></g></g><path class="foreground" aria-hidden="true" d="" pointer-events="none" display="none"/></g></g><g class="mark-group role-axis" role="graphics-symbol" aria-roledescription="axis" aria-label="Y-axis titled 'mRNA' for a linear scale with values from 0 to 12"><g transform="translate(0.5,0.5)"><path class="background" aria-hidden="true" d="M0,0h0v0h0Z" pointer-events="none"/><g><g class="mark-rule role-axis-tick" pointer-events="none"><line transform="translate(0,90)" x2="-3" y2="0" stroke="black" stroke-width="1" opacity="1"/><line transform="translate(0,52)" x2="-3" y2="0" stroke="black" stroke-width="1" opacity="1"/><line transform="translate(0,15)" x2="-3" y2="0" stroke="black" stroke-width="1" opacity="1"/></g><g class="mark-text role-axis-label" pointer-events="none"><text text-anchor="end" transform="translate(-5,93)" font-family="Arial" font-size="10px" fill="#000" opacity="1">0</text><text text-anchor="end" transform="translate(-5,55.49999999999999)" font-family="Arial" font-size="10px" fill="#000" opacity="1">5</text><text text-anchor="end" transform="translate(-5,17.999999999999996)" font-family="Arial" font-size="10px" fill="#000" opacity="1">10</text></g><g class="mark-rule role-axis-domain" pointer-events="none"><line transform="translate(0,90)" x2="0" y2="-90" stroke="black" stroke-width="1" opacity="1"/></g><g class="mark-text role-axis-title" pointer-events="none"><text text-anchor="middle" transform="translate(-20.123046875,45) rotate(-90) translate(0,-2)" font-family="Arial" font-size="11px" font-weight="normal" fill="#000" opacity="1">mRNA</text></g></g><path class="foreground" aria-hidden="true" d="" pointer-events="none" display="none"/></g></g><g class="mark-group role-scope concat_0_layer_0_pathgroup" role="graphics-object" aria-roledescription="group mark container"><g transform="translate(0,0)"><path class="background" aria-hidden="true" d="M0,0h120v90h-120Z"/><g><g class="mark-line role-mark concat_0_layer_0_marks" role="graphics-object" aria-roledescription="line mark container"><path aria-label="t: 0; M: 0.000001; gene: 1; sim: 1" role="graphics-symbol" aria-roledescription="line mark" d="M0,90L0.6,78.845L1.2,80.146L1.8,82.807L2.4,84.835L3,86.3L3.6,87.347L4.2,88.092L4.8,88.62L5.4,88.994L6,89.262L6.6,89.456L7.2,89.6L7.8,89.708L8.4,89.788L9,89.847L9.6,89.89L10.2,89.922L10.8,89.944L11.4,89.96L12,89.971L12.6,89.98L13.2,89.985L13.8,89.99L14.4,89.993L15,89.995L15.6,89.996L16.2,89.997L16.8,89.998L17.4,89.999L18,89.999L18.6,89.999L19.2,89.999L19.8,90L20.4,90L21,90L21.6,90L22.2,90L22.8,90L23.4,90L24,90L24.6,90L25.2,90L25.8,90L26.4,90L27,90L27.6,90L28.2,90L28.8,90L29.4,90L30,90L30.6,90L31.2,90L31.8,90L32.4,90L33,90L33.6,90L34.2,90L34.8,90L35.4,90L36,90L36.6,90L37.2,90L37.8,90L38.4,90L39,90L39.6,90L40.2,90L40.8,90L41.4,90L42,90L42.6,90L43.2,90L43.8,90L44.4,90L45,90L45.6,90L46.2,90L46.8,90L47.4,90L48,90L48.6,90L49.2,90L49.8,90L50.4,90L51,90L51.6,90L52.2,90L52.8,90L53.4,90L54,90L54.6,90L55.2,90L55.8,90L56.4,90L57,90L57.6,90L58.2,90L58.8,90L59.4,90L60,90L60.6,90L61.2,90L61.8,90L62.4,90L63,90L63.6,90L64.2,90L64.8,90L65.4,90L66,90L66.6,90L67.2,90L67.8,90L68.4,90L69,90L69.6,90L70.2,90L70.8,90L71.4,90L72,90L72.6,90L73.2,90L73.8,90L74.4,90L75,90L75.6,90L76.2,90L76.8,90L77.4,90L78,90L78.6,90L79.2,90L79.8,90L80.4,90L81,90L81.6,90L82.2,90L82.8,90L83.4,90L84,90L84.6,90L85.2,90L85.8,90L86.4,90L87,90L87.6,90L88.2,90L88.8,90L89.4,90L90,90L90.6,90L91.2,90L91.8,90L92.4,90L93,90L93.6,90L94.2,90L94.8,90L95.4,90L96,90L96.6,90L97.2,90L97.8,90L98.4,90L99,90L99.6,90L100.2,90L100.8,90L101.4,90L102,90L102.6,90L103.2,90L103.8,90L104.4,90L105,90L105.6,90L106.2,90L106.8,90L107.4,90L108,90L108.6,90L109.2,90L109.8,90L110.4,90L111,90L111.6,90L112.2,90L112.8,90L113.4,90L114,90L114.6,90L115.2,90L115.8,90L116.4,90L117,90L117.6,90L118.2,90L118.8,90L119.4,90L120,90" stroke="#1657a8" stroke-width="2" stroke-dasharray="1,0"/></g></g><path class="foreground" aria-hidden="true" d="" display="none"/></g><g transform="translate(0,0)"><path class="background" aria-hidden="true" d="M0,0h120v90h-120Z"/><g><g class="mark-line role-mark concat_0_layer_0_marks" role="graphics-object" aria-roledescription="line mark container"><path aria-label="t: 0; M: 0.000001; gene: 2; sim: 1" role="graphics-symbol" aria-roledescription="line mark" d="M0,90L0.6,66.275L1.2,59.628L1.8,63.439L2.4,68.247L3,72.069L3.6,74.584L4.2,75.734L4.8,75.424L5.4,73.464L6,69.623L6.6,63.794L7.2,56.214L7.8,47.549L8.4,38.704L9,30.492L9.6,23.416L10.2,17.648L10.8,13.132L11.4,9.695L12,7.133L12.6,5.249L13.2,3.879L13.8,2.889L14.4,2.178L15,1.668L15.6,1.305L16.2,1.046L16.8,0.861L17.4,0.73L18,0.637L18.6,0.571L19.2,0.524L19.8,0.49L20.4,0.467L21,0.45L21.6,0.438L22.2,0.429L22.8,0.423L23.4,0.419L24,0.416L24.6,0.414L25.2,0.412L25.8,0.411L26.4,0.411L27,0.41L27.6,0.41L28.2,0.409L28.8,0.409L29.4,0.409L30,0.409L30.6,0.409L31.2,0.409L31.8,0.409L32.4,0.409L33,0.409L33.6,0.409L34.2,0.409L34.8,0.409L35.4,0.409L36,0.409L36.6,0.409L37.2,0.409L37.8,0.409L38.4,0.409L39,0.409L39.6,0.409L40.2,0.409L40.8,0.409L41.4,0.409L42,0.409L42.6,0.409L43.2,0.409L43.8,0.409L44.4,0.409L45,0.409L45.6,0.409L46.2,0.409L46.8,0.409L47.4,0.409L48,0.409L48.6,0.409L49.2,0.409L49.8,0.409L50.4,0.409L51,0.409L51.6,0.409L52.2,0.409L52.8,0.409L53.4,0.409L54,0.409L54.6,0.409L55.2,0.409L55.8,0.409L56.4,0.409L57,0.409L57.6,0.409L58.2,0.409L58.8,0.409L59.4,0.409L60,0.409L60.6,0.409L61.2,0.409L61.8,0.409L62.4,0.409L63,0.409L63.6,0.409L64.2,0.409L64.8,0.409L65.4,0.409L66,0.409L66.6,0.409L67.2,0.409L67.8,0.409L68.4,0.409L69,0.409L69.6,0.409L70.2,0.409L70.8,0.409L71.4,0.409L72,0.409L72.6,0.409L73.2,0.409L73.8,0.409L74.4,0.409L75,0.409L75.6,0.409L76.2,0.409L76.8,0.409L77.4,0.409L78,0.409L78.6,0.409L79.2,0.409L79.8,0.409L80.4,0.409L81,0.409L81.6,0.409L82.2,0.409L82.8,0.409L83.4,0.409L84,0.409L84.6,0.409L85.2,0.409L85.8,0.409L86.4,0.409L87,0.409L87.6,0.409L88.2,0.409L88.8,0.409L89.4,0.409L90,0.409L90.6,0.409L91.2,0.409L91.8,0.409L92.4,0.409L93,0.409L93.6,0.409L94.2,0.409L94.8,0.409L95.4,0.409L96,0.409L96.6,0.409L97.2,0.409L97.8,0.409L98.4,0.409L99,0.409L99.6,0.409L100.2,0.409L100.8,0.409L101.4,0.409L102,0.409L102.6,0.409L103.2,0.409L103.8,0.409L104.4,0.409L105,0.409L105.6,0.409L106.2,0.409L106.8,0.409L107.4,0.409L108,0.409L108.6,0.409L109.2,0.409L109.8,0.409L110.4,0.409L111,0.409L111.6,0.409L112.2,0.409L112.8,0.409L113.4,0.409L114,0.409L114.6,0.409L115.2,0.409L115.8,0.409L116.4,0.409L117,0.409L117.6,0.409L118.2,0.409L118.8,0.409L119.4,0.409L120,0.409" stroke="#048059" stroke-width="2" stroke-dasharray="1,0"/></g></g><path class="foreground" aria-hidden="true" d="" display="none"/></g><g transform="translate(0,0)"><path class="background" aria-hidden="true" d="M0,0h120v90h-120Z"/><g><g class="mark-line role-mark concat_0_layer_0_marks" role="graphics-object" aria-roledescription="line mark container"><path aria-label="t: 0; M: 0.000001; gene: 1; sim: 2" role="graphics-symbol" aria-roledescription="line mark" d="M0,90L0.6,74.985L1.2,62.586L1.8,53.456L2.4,46.266L3,39.852L3.6,33.701L4.2,27.786L4.8,22.308L5.4,17.482L6,13.431L6.6,10.167L7.2,7.62L7.8,5.682L8.4,4.234L9,3.167L9.6,2.389L10.2,1.825L10.8,1.42L11.4,1.129L12,0.922L12.6,0.773L13.2,0.668L13.8,0.593L14.4,0.539L15,0.501L15.6,0.475L16.2,0.455L16.8,0.442L17.4,0.432L18,0.425L18.6,0.421L19.2,0.417L19.8,0.415L20.4,0.413L21,0.412L21.6,0.411L22.2,0.41L22.8,0.41L23.4,0.409L24,0.409L24.6,0.409L25.2,0.409L25.8,0.409L26.4,0.409L27,0.409L27.6,0.409L28.2,0.409L28.8,0.409L29.4,0.409L30,0.409L30.6,0.409L31.2,0.409L31.8,0.409L32.4,0.409L33,0.409L33.6,0.409L34.2,0.409L34.8,0.409L35.4,0.409L36,0.409L36.6,0.409L37.2,0.409L37.8,0.409L38.4,0.409L39,0.409L39.6,0.409L40.2,0.409L40.8,0.409L41.4,0.409L42,0.409L42.6,0.409L43.2,0.409L43.8,0.409L44.4,0.409L45,0.409L45.6,0.409L46.2,0.409L46.8,0.409L47.4,0.409L48,0.409L48.6,0.409L49.2,0.409L49.8,0.409L50.4,0.409L51,0.409L51.6,0.409L52.2,0.409L52.8,0.409L53.4,0.409L54,0.409L54.6,0.409L55.2,0.409L55.8,0.409L56.4,0.409L57,0.409L57.6,0.409L58.2,0.409L58.8,0.409L59.4,0.409L60,0.409L60.6,0.409L61.2,0.409L61.8,0.409L62.4,0.409L63,0.409L63.6,0.409L64.2,0.409L64.8,0.409L65.4,0.409L66,0.409L66.6,0.409L67.2,0.409L67.8,0.409L68.4,0.409L69,0.409L69.6,0.409L70.2,0.409L70.8,0.409L71.4,0.409L72,0.409L72.6,0.409L73.2,0.409L73.8,0.409L74.4,0.409L75,0.409L75.6,0.409L76.2,0.409L76.8,0.409L77.4,0.409L78,0.409L78.6,0.409L79.2,0.409L79.8,0.409L80.4,0.409L81,0.409L81.6,0.409L82.2,0.409L82.8,0.409L83.4,0.409L84,0.409L84.6,0.409L85.2,0.409L85.8,0.409L86.4,0.409L87,0.409L87.6,0.409L88.2,0.409L88.8,0.409L89.4,0.409L90,0.409L90.6,0.409L91.2,0.409L91.8,0.409L92.4,0.409L93,0.409L93.6,0.409L94.2,0.409L94.8,0.409L95.4,0.409L96,0.409L96.6,0.409L97.2,0.409L97.8,0.409L98.4,0.409L99,0.409L99.6,0.409L100.2,0.409L100.8,0.409L101.4,0.409L102,0.409L102.6,0.409L103.2,0.409L103.8,0.409L104.4,0.409L105,0.409L105.6,0.409L106.2,0.409L106.8,0.409L107.4,0.409L108,0.409L108.6,0.409L109.2,0.409L109.8,0.409L110.4,0.409L111,0.409L111.6,0.409L112.2,0.409L112.8,0.409L113.4,0.409L114,0.409L114.6,0.409L115.2,0.409L115.8,0.409L116.4,0.409L117,0.409L117.6,0.409L118.2,0.409L118.8,0.409L119.4,0.409L120,0.409" stroke="#1657a8" stroke-width="2" stroke-dasharray="4,2"/></g></g><path class="foreground" aria-hidden="true" d="" display="none"/></g><g transform="translate(0,0)"><path class="background" aria-hidden="true" d="M0,0h120v90h-120Z"/><g><g class="mark-line role-mark concat_0_layer_0_marks" role="graphics-object" aria-roledescription="line mark container"><path aria-label="t: 0; M: 0.000001; gene: 2; sim: 2" role="graphics-symbol" aria-roledescription="line mark" d="M0,90L0.6,88.23L1.2,87.852L1.8,88.279L2.4,88.734L3,89.089L3.6,89.349L4.2,89.536L4.8,89.67L5.4,89.765L6,89.833L6.6,89.881L7.2,89.916L7.8,89.94L8.4,89.957L9,89.97L9.6,89.978L10.2,89.985L10.8,89.989L11.4,89.992L12,89.994L12.6,89.996L13.2,89.997L13.8,89.998L14.4,89.999L15,89.999L15.6,89.999L16.2,89.999L16.8,90L17.4,90L18,90L18.6,90L19.2,90L19.8,90L20.4,90L21,90L21.6,90L22.2,90L22.8,90L23.4,90L24,90L24.6,90L25.2,90L25.8,90L26.4,90L27,90L27.6,90L28.2,90L28.8,90L29.4,90L30,90L30.6,90L31.2,90L31.8,90L32.4,90L33,90L33.6,90L34.2,90L34.8,90L35.4,90L36,90L36.6,90L37.2,90L37.8,90L38.4,90L39,90L39.6,90L40.2,90L40.8,90L41.4,90L42,90L42.6,90L43.2,90L43.8,90L44.4,90L45,90L45.6,90L46.2,90L46.8,90L47.4,90L48,90L48.6,90L49.2,90L49.8,90L50.4,90L51,90L51.6,90L52.2,90L52.8,90L53.4,90L54,90L54.6,90L55.2,90L55.8,90L56.4,90L57,90L57.6,90L58.2,90L58.8,90L59.4,90L60,90L60.6,90L61.2,90L61.8,90L62.4,90L63,90L63.6,90L64.2,90L64.8,90L65.4,90L66,90L66.6,90L67.2,90L67.8,90L68.4,90L69,90L69.6,90L70.2,90L70.8,90L71.4,90L72,90L72.6,90L73.2,90L73.8,90L74.4,90L75,90L75.6,90L76.2,90L76.8,90L77.4,90L78,90L78.6,90L79.2,90L79.8,90L80.4,90L81,90L81.6,90L82.2,90L82.8,90L83.4,90L84,90L84.6,90L85.2,90L85.8,90L86.4,90L87,90L87.6,90L88.2,90L88.8,90L89.4,90L90,90L90.6,90L91.2,90L91.8,90L92.4,90L93,90L93.6,90L94.2,90L94.8,90L95.4,90L96,90L96.6,90L97.2,90L97.8,90L98.4,90L99,90L99.6,90L100.2,90L100.8,90L101.4,90L102,90L102.6,90L103.2,90L103.8,90L104.4,90L105,90L105.6,90L106.2,90L106.8,90L107.4,90L108,90L108.6,90L109.2,90L109.8,90L110.4,90L111,90L111.6,90L112.2,90L112.8,90L113.4,90L114,90L114.6,90L115.2,90L115.8,90L116.4,90L117,90L117.6,90L118.2,90L118.8,90L119.4,90L120,90" stroke="#048059" stroke-width="2" stroke-dasharray="4,2"/></g></g><path class="foreground" aria-hidden="true" d="" display="none"/></g></g></g><path class="foreground" aria-hidden="true" d="" display="none"/></g></g><g class="mark-group role-scope concat_1_group" role="graphics-object" aria-roledescription="group mark container"><g transform="translate(0,127)"><path class="background" aria-hidden="true" d="M0.5,0.5h120v90h-120Z"/><g><g class="mark-group role-axis" role="graphics-symbol" aria-roledescription="axis" aria-label="X-axis titled 'Time (min)' for a linear scale with values from 0 to 200"><g transform="translate(0.5,90.5)"><path class="background" aria-hidden="true" d="M0,0h0v0h0Z" pointer-events="none"/><g><g class="mark-rule role-axis-tick" pointer-events="none"><line transform="translate(0,0)" x2="0" y2="3" stroke="black" stroke-width="1" opacity="1"/><line transform="translate(30,0)" x2="0" y2="3" stroke="black" stroke-width="1" opacity="1"/><line transform="translate(60,0)" x2="0" y2="3" stroke="black" stroke-width="1" opacity="1"/><line transform="translate(90,0)" x2="0" y2="3" stroke="black" stroke-width="1" opacity="1"/><line transform="translate(120,0)" x2="0" y2="3" stroke="black" stroke-width="1" opacity="1"/></g><g class="mark-text role-axis-label" pointer-events="none"><text text-anchor="start" transform="translate(0,13)" font-family="Arial" font-size="10px" fill="#000" opacity="1">0</text><text text-anchor="middle" transform="translate(30,13)" font-family="Arial" font-size="10px" fill="#000" opacity="1">50</text><text text-anchor="middle" transform="translate(60,13)" font-family="Arial" font-size="10px" fill="#000" opacity="1">100</text><text text-anchor="middle" transform="translate(90,13)" font-family="Arial" font-size="10px" fill="#000" opacity="1">150</text><text text-anchor="end" transform="translate(120,13)" font-family="Arial" font-size="10px" fill="#000" opacity="1">200</text></g><g class="mark-rule role-axis-domain" pointer-events="none"><line transform="translate(0,0)" x2="120" y2="0" stroke="black" stroke-width="1" opacity="1"/></g><g class="mark-text role-axis-title" pointer-events="none"><text text-anchor="middle" transform="translate(60,28)" font-family="Arial" font-size="11px" font-weight="normal" fill="#000" opacity="1">Time (min)</text></g></g><path class="foreground" aria-hidden="true" d="" pointer-events="none" display="none"/></g></g><g class="mark-group role-axis" role="graphics-symbol" aria-roledescription="axis" aria-label="Y-axis titled 'Protein' for a linear scale with values from 0 to 3,500"><g transform="translate(0.5,0.5)"><path class="background" aria-hidden="true" d="M0,0h0v0h0Z" pointer-events="none"/><g><g class="mark-rule role-axis-tick" pointer-events="none"><line transform="translate(0,90)" x2="-3" y2="0" stroke="black" stroke-width="1" opacity="1"/><line transform="translate(0,64)" x2="-3" y2="0" stroke="black" stroke-width="1" opacity="1"/><line transform="translate(0,39)" x2="-3" y2="0" stroke="black" stroke-width="1" opacity="1"/><line transform="translate(0,13)" x2="-3" y2="0" stroke="black" stroke-width="1" opacity="1"/></g><g class="mark-text role-axis-label" pointer-events="none"><text text-anchor="end" transform="translate(-5,93)" font-family="Arial" font-size="10px" fill="#000" opacity="1">0</text><text text-anchor="end" transform="translate(-5,67.28571428571429)" font-family="Arial" font-size="10px" fill="#000" opacity="1">1,000</text><text text-anchor="end" transform="translate(-5,41.57142857142858)" font-family="Arial" font-size="10px" fill="#000" opacity="1">2,000</text><text text-anchor="end" transform="translate(-5,15.857142857142861)" font-family="Arial" font-size="10px" fill="#000" opacity="1">3,000</text></g><g class="mark-rule role-axis-domain" pointer-events="none"><line transform="translate(0,90)" x2="0" y2="-90" stroke="black" stroke-width="1" opacity="1"/></g><g class="mark-text role-axis-title" pointer-events="none"><text text-anchor="middle" transform="translate(-34.0244140625,45) rotate(-90) translate(0,-2)" font-family="Arial" font-size="11px" font-weight="normal" fill="#000" opacity="1">Protein</text></g></g><path class="foreground" aria-hidden="true" d="" pointer-events="none" display="none"/></g></g><g class="mark-group role-scope concat_1_layer_0_pathgroup" role="graphics-object" aria-roledescription="group mark container"><g transform="translate(0,0)"><path class="background" aria-hidden="true" d="M0,0h120v90h-120Z"/><g><g class="mark-line role-mark concat_1_layer_0_marks" role="graphics-object" aria-roledescription="line mark container"><path aria-label="t: 0; P: 50; gene: 1; sim: 1" role="graphics-symbol" aria-roledescription="line mark" d="M0,88.714L0.6,88.202L1.2,86.816L1.8,85.913L2.4,85.534L3,85.503L3.6,85.687L4.2,85.991L4.8,86.354L5.4,86.735L6,87.109L6.6,87.462L7.2,87.787L7.8,88.082L8.4,88.345L9,88.578L9.6,88.783L10.2,88.961L10.8,89.115L11.4,89.248L12,89.362L12.6,89.459L13.2,89.543L13.8,89.613L14.4,89.673L15,89.724L15.6,89.767L16.2,89.804L16.8,89.835L17.4,89.861L18,89.883L18.6,89.901L19.2,89.917L19.8,89.93L20.4,89.941L21,89.95L21.6,89.958L22.2,89.965L22.8,89.97L23.4,89.975L24,89.979L24.6,89.982L25.2,89.985L25.8,89.987L26.4,89.989L27,89.991L27.6,89.993L28.2,89.994L28.8,89.995L29.4,89.996L30,89.996L30.6,89.997L31.2,89.997L31.8,89.998L32.4,89.998L33,89.998L33.6,89.999L34.2,89.999L34.8,89.999L35.4,89.999L36,89.999L36.6,89.999L37.2,89.999L37.8,90L38.4,90L39,90L39.6,90L40.2,90L40.8,90L41.4,90L42,90L42.6,90L43.2,90L43.8,90L44.4,90L45,90L45.6,90L46.2,90L46.8,90L47.4,90L48,90L48.6,90L49.2,90L49.8,90L50.4,90L51,90L51.6,90L52.2,90L52.8,90L53.4,90L54,90L54.6,90L55.2,90L55.8,90L56.4,90L57,90L57.6,90L58.2,90L58.8,90L59.4,90L60,90L60.6,90L61.2,90L61.8,90L62.4,90L63,90L63.6,90L64.2,90L64.8,90L65.4,90L66,90L66.6,90L67.2,90L67.8,90L68.4,90L69,90L69.6,90L70.2,90L70.8,90L71.4,90L72,90L72.6,90L73.2,90L73.8,90L74.4,90L75,90L75.6,90L76.2,90L76.8,90L77.4,90L78,90L78.6,90L79.2,90L79.8,90L80.4,90L81,90L81.6,90L82.2,90L82.8,90L83.4,90L84,90L84.6,90L85.2,90L85.8,90L86.4,90L87,90L87.6,90L88.2,90L88.8,90L89.4,90L90,90L90.6,90L91.2,90L91.8,90L92.4,90L93,90L93.6,90L94.2,90L94.8,90L95.4,90L96,90L96.6,90L97.2,90L97.8,90L98.4,90L99,90L99.6,90L100.2,90L100.8,90L101.4,90L102,90L102.6,90L103.2,90L103.8,90L104.4,90L105,90L105.6,90L106.2,90L106.8,90L107.4,90L108,90L108.6,90L109.2,90L109.8,90L110.4,90L111,90L111.6,90L112.2,90L112.8,90L113.4,90L114,90L114.6,90L115.2,90L115.8,90L116.4,90L117,90L117.6,90L118.2,90L118.8,90L119.4,90L120,90" stroke="#1657a8" stroke-width="2" stroke-dasharray="1,0"/></g></g><path class="foreground" aria-hidden="true" d="" display="none"/></g><g transform="translate(0,0)"><path class="background" aria-hidden="true" d="M0,0h120v90h-120Z"/><g><g class="mark-line role-mark concat_1_layer_0_marks" role="graphics-object" aria-roledescription="line mark container"><path aria-label="t: 0; P: 100; gene: 2; sim: 1" role="graphics-symbol" aria-roledescription="line mark" d="M0,87.429L0.6,86.486L1.2,82.972L1.8,79.541L2.4,77.284L3,76.084L3.6,75.61L4.2,75.544L4.8,75.604L5.4,75.536L6,75.093L6.6,74.036L7.2,72.166L7.8,69.373L8.4,65.681L9,61.251L9.6,56.325L10.2,51.169L10.8,46.019L11.4,41.056L12,36.407L12.6,32.143L13.2,28.299L13.8,24.878L14.4,21.866L15,19.237L15.6,16.956L16.2,14.988L16.8,13.298L17.4,11.852L18,10.618L18.6,9.568L19.2,8.675L19.8,7.919L20.4,7.278L21,6.736L21.6,6.278L22.2,5.891L22.8,5.564L23.4,5.289L24,5.057L24.6,4.861L25.2,4.697L25.8,4.558L26.4,4.441L27,4.343L27.6,4.26L28.2,4.19L28.8,4.132L29.4,4.082L30,4.041L30.6,4.006L31.2,3.977L31.8,3.952L32.4,3.931L33,3.914L33.6,3.899L34.2,3.887L34.8,3.876L35.4,3.867L36,3.86L36.6,3.854L37.2,3.849L37.8,3.844L38.4,3.841L39,3.838L39.6,3.835L40.2,3.833L40.8,3.831L41.4,3.829L42,3.828L42.6,3.827L43.2,3.826L43.8,3.825L44.4,3.825L45,3.824L45.6,3.824L46.2,3.823L46.8,3.823L47.4,3.823L48,3.822L48.6,3.822L49.2,3.822L49.8,3.822L50.4,3.822L51,3.822L51.6,3.822L52.2,3.822L52.8,3.822L53.4,3.821L54,3.821L54.6,3.821L55.2,3.821L55.8,3.821L56.4,3.821L57,3.821L57.6,3.821L58.2,3.821L58.8,3.821L59.4,3.821L60,3.821L60.6,3.821L61.2,3.821L61.8,3.821L62.4,3.821L63,3.821L63.6,3.821L64.2,3.821L64.8,3.821L65.4,3.821L66,3.821L66.6,3.821L67.2,3.821L67.8,3.821L68.4,3.821L69,3.821L69.6,3.821L70.2,3.821L70.8,3.821L71.4,3.821L72,3.821L72.6,3.821L73.2,3.821L73.8,3.821L74.4,3.821L75,3.821L75.6,3.821L76.2,3.821L76.8,3.821L77.4,3.821L78,3.821L78.6,3.821L79.2,3.821L79.8,3.821L80.4,3.821L81,3.821L81.6,3.821L82.2,3.821L82.8,3.821L83.4,3.821L84,3.821L84.6,3.821L85.2,3.821L85.8,3.821L86.4,3.821L87,3.821L87.6,3.821L88.2,3.821L88.8,3.821L89.4,3.821L90,3.821L90.6,3.821L91.2,3.821L91.8,3.821L92.4,3.821L93,3.821L93.6,3.821L94.2,3.821L94.8,3.821L95.4,3.821L96,3.821L96.6,3.821L97.2,3.821L97.8,3.821L98.4,3.821L99,3.821L99.6,3.821L100.2,3.821L100.8,3.821L101.4,3.821L102,3.821L102.6,3.821L103.2,3.821L103.8,3.821L104.4,3.821L105,3.821L105.6,3.821L106.2,3.821L106.8,3.821L107.4,3.821L108,3.821L108.6,3.821L109.2,3.821L109.8,3.821L110.4,3.821L111,3.821L111.6,3.821L112.2,3.821L112.8,3.821L113.4,3.821L114,3.821L114.6,3.821L115.2,3.821L115.8,3.821L116.4,3.821L117,3.821L117.6,3.821L118.2,3.821L118.8,3.821L119.4,3.821L120,3.821" stroke="#048059" stroke-width="2" stroke-dasharray="1,0"/></g></g><path class="foreground" aria-hidden="true" d="" display="none"/></g><g transform="translate(0,0)"><path class="background" aria-hidden="true" d="M0,0h120v90h-120Z"/><g><g class="mark-line role-mark concat_1_layer_0_marks" role="graphics-object" aria-roledescription="line mark container"><path aria-label="t: 0; P: 200; gene: 1; sim: 2" role="graphics-symbol" aria-roledescription="line mark" d="M0,84.857L0.6,84.885L1.2,82.791L1.8,79.261L2.4,74.975L3,70.304L3.6,65.408L4.2,60.363L4.8,55.241L5.4,50.134L6,45.145L6.6,40.375L7.2,35.905L7.8,31.792L8.4,28.065L9,24.732L9.6,21.782L10.2,19.194L10.8,16.942L11.4,14.992L12,13.313L12.6,11.873L13.2,10.641L13.8,9.592L14.4,8.699L15,7.94L15.6,7.298L16.2,6.754L16.8,6.293L17.4,5.905L18,5.576L18.6,5.299L19.2,5.066L19.8,4.869L20.4,4.703L21,4.563L21.6,4.446L22.2,4.347L22.8,4.263L23.4,4.193L24,4.134L24.6,4.084L25.2,4.043L25.8,4.007L26.4,3.978L27,3.953L27.6,3.932L28.2,3.914L28.8,3.9L29.4,3.887L30,3.877L30.6,3.868L31.2,3.86L31.8,3.854L32.4,3.849L33,3.845L33.6,3.841L34.2,3.838L34.8,3.835L35.4,3.833L36,3.831L36.6,3.829L37.2,3.828L37.8,3.827L38.4,3.826L39,3.825L39.6,3.825L40.2,3.824L40.8,3.824L41.4,3.823L42,3.823L42.6,3.823L43.2,3.822L43.8,3.822L44.4,3.822L45,3.822L45.6,3.822L46.2,3.822L46.8,3.822L47.4,3.822L48,3.822L48.6,3.821L49.2,3.821L49.8,3.821L50.4,3.821L51,3.821L51.6,3.821L52.2,3.821L52.8,3.821L53.4,3.821L54,3.821L54.6,3.821L55.2,3.821L55.8,3.821L56.4,3.821L57,3.821L57.6,3.821L58.2,3.821L58.8,3.821L59.4,3.821L60,3.821L60.6,3.821L61.2,3.821L61.8,3.821L62.4,3.821L63,3.821L63.6,3.821L64.2,3.821L64.8,3.821L65.4,3.821L66,3.821L66.6,3.821L67.2,3.821L67.8,3.821L68.4,3.821L69,3.821L69.6,3.821L70.2,3.821L70.8,3.821L71.4,3.821L72,3.821L72.6,3.821L73.2,3.821L73.8,3.821L74.4,3.821L75,3.821L75.6,3.821L76.2,3.821L76.8,3.821L77.4,3.821L78,3.821L78.6,3.821L79.2,3.821L79.8,3.821L80.4,3.821L81,3.821L81.6,3.821L82.2,3.821L82.8,3.821L83.4,3.821L84,3.821L84.6,3.821L85.2,3.821L85.8,3.821L86.4,3.821L87,3.821L87.6,3.821L88.2,3.821L88.8,3.821L89.4,3.821L90,3.821L90.6,3.821L91.2,3.821L91.8,3.821L92.4,3.821L93,3.821L93.6,3.821L94.2,3.821L94.8,3.821L95.4,3.821L96,3.821L96.6,3.821L97.2,3.821L97.8,3.821L98.4,3.821L99,3.821L99.6,3.821L100.2,3.821L100.8,3.821L101.4,3.821L102,3.821L102.6,3.821L103.2,3.821L103.8,3.821L104.4,3.821L105,3.821L105.6,3.821L106.2,3.821L106.8,3.821L107.4,3.821L108,3.821L108.6,3.821L109.2,3.821L109.8,3.821L110.4,3.821L111,3.821L111.6,3.821L112.2,3.821L112.8,3.821L113.4,3.821L114,3.821L114.6,3.821L115.2,3.821L115.8,3.821L116.4,3.821L117,3.821L117.6,3.821L118.2,3.821L118.8,3.821L119.4,3.821L120,3.821" stroke="#1657a8" stroke-width="2" stroke-dasharray="4,2"/></g></g><path class="foreground" aria-hidden="true" d="" display="none"/></g><g transform="translate(0,0)"><path class="background" aria-hidden="true" d="M0,0h120v90h-120Z"/><g><g class="mark-line role-mark concat_1_layer_0_marks" role="graphics-object" aria-roledescription="line mark container"><path aria-label="t: 0; P: 100; gene: 2; sim: 2" role="graphics-symbol" aria-roledescription="line mark" d="M0,87.429L0.6,87.741L1.2,87.8L1.8,87.834L2.4,87.931L3,88.08L3.6,88.256L4.2,88.441L4.8,88.623L5.4,88.796L6,88.954L6.6,89.097L7.2,89.224L7.8,89.335L8.4,89.433L9,89.517L9.6,89.59L10.2,89.652L10.8,89.705L11.4,89.75L12,89.789L12.6,89.822L13.2,89.85L13.8,89.873L14.4,89.893L15,89.91L15.6,89.924L16.2,89.936L16.8,89.946L17.4,89.955L18,89.962L18.6,89.968L19.2,89.973L19.8,89.977L20.4,89.981L21,89.984L21.6,89.986L22.2,89.989L22.8,89.99L23.4,89.992L24,89.993L24.6,89.994L25.2,89.995L25.8,89.996L26.4,89.997L27,89.997L27.6,89.998L28.2,89.998L28.8,89.998L29.4,89.998L30,89.999L30.6,89.999L31.2,89.999L31.8,89.999L32.4,89.999L33,89.999L33.6,90L34.2,90L34.8,90L35.4,90L36,90L36.6,90L37.2,90L37.8,90L38.4,90L39,90L39.6,90L40.2,90L40.8,90L41.4,90L42,90L42.6,90L43.2,90L43.8,90L44.4,90L45,90L45.6,90L46.2,90L46.8,90L47.4,90L48,90L48.6,90L49.2,90L49.8,90L50.4,90L51,90L51.6,90L52.2,90L52.8,90L53.4,90L54,90L54.6,90L55.2,90L55.8,90L56.4,90L57,90L57.6,90L58.2,90L58.8,90L59.4,90L60,90L60.6,90L61.2,90L61.8,90L62.4,90L63,90L63.6,90L64.2,90L64.8,90L65.4,90L66,90L66.6,90L67.2,90L67.8,90L68.4,90L69,90L69.6,90L70.2,90L70.8,90L71.4,90L72,90L72.6,90L73.2,90L73.8,90L74.4,90L75,90L75.6,90L76.2,90L76.8,90L77.4,90L78,90L78.6,90L79.2,90L79.8,90L80.4,90L81,90L81.6,90L82.2,90L82.8,90L83.4,90L84,90L84.6,90L85.2,90L85.8,90L86.4,90L87,90L87.6,90L88.2,90L88.8,90L89.4,90L90,90L90.6,90L91.2,90L91.8,90L92.4,90L93,90L93.6,90L94.2,90L94.8,90L95.4,90L96,90L96.6,90L97.2,90L97.8,90L98.4,90L99,90L99.6,90L100.2,90L100.8,90L101.4,90L102,90L102.6,90L103.2,90L103.8,90L104.4,90L105,90L105.6,90L106.2,90L106.8,90L107.4,90L108,90L108.6,90L109.2,90L109.8,90L110.4,90L111,90L111.6,90L112.2,90L112.8,90L113.4,90L114,90L114.6,90L115.2,90L115.8,90L116.4,90L117,90L117.6,90L118.2,90L118.8,90L119.4,90L120,90" stroke="#048059" stroke-width="2" stroke-dasharray="4,2"/></g></g><path class="foreground" aria-hidden="true" d="" display="none"/></g></g></g><path class="foreground" aria-hidden="true" d="" display="none"/></g></g><g class="mark-group role-legend" role="graphics-symbol" aria-roledescription="legend" aria-label="Symbol legend for stroke color with 2 values: 1, 2"><g transform="translate(141,0)"><path class="background" aria-hidden="true" d="M0,0h22v24h-22Z" pointer-events="none"/><g><g class="mark-group role-legend-entry"><g transform="translate(0,0)"><path class="background" aria-hidden="true" d="M0,0h0v0h0Z" pointer-events="none"/><g><g class="mark-group role-scope" role="graphics-object" aria-roledescription="group mark container"><g transform="translate(0,0)"><path class="background" aria-hidden="true" d="M0,0h21.5615234375v11h-21.5615234375Z" pointer-events="none" opacity="1"/><g><g class="mark-symbol role-legend-symbol" pointer-events="none"><path transform="translate(6,6)" d="M-5,0L5,0" stroke="#1657a8" stroke-width="1.5" opacity="1"/></g><g class="mark-text role-legend-label" pointer-events="none"><text text-anchor="start" transform="translate(16,9)" font-family="Arial" font-size="10px" fill="#000" opacity="1">1</text></g></g><path class="foreground" aria-hidden="true" d="" pointer-events="none" display="none"/></g><g transform="translate(0,13)"><path class="background" aria-hidden="true" d="M0,0h21.5615234375v11h-21.5615234375Z" pointer-events="none" opacity="1"/><g><g class="mark-symbol role-legend-symbol" pointer-events="none"><path transform="translate(6,6)" d="M-5,0L5,0" stroke="#048059" stroke-width="1.5" opacity="1"/></g><g class="mark-text role-legend-label" pointer-events="none"><text text-anchor="start" transform="translate(16,9)" font-family="Arial" font-size="10px" fill="#000" opacity="1">2</text></g></g><path class="foreground" aria-hidden="true" d="" pointer-events="none" display="none"/></g></g></g><path class="foreground" aria-hidden="true" d="" pointer-events="none" display="none"/></g></g></g><path class="foreground" aria-hidden="true" d="" pointer-events="none" display="none"/></g></g><g class="mark-group role-legend" role="graphics-symbol" aria-roledescription="legend" aria-label="Symbol legend for strokeDash with 2 values: 1, 2"><g transform="translate(141,32)"><path class="background" aria-hidden="true" d="M0,0h22v24h-22Z" pointer-events="none"/><g><g class="mark-group role-legend-entry"><g transform="translate(0,0)"><path class="background" aria-hidden="true" d="M0,0h0v0h0Z" pointer-events="none"/><g><g class="mark-group role-scope" role="graphics-object" aria-roledescription="group mark container"><g transform="translate(0,0)"><path class="background" aria-hidden="true" d="M0,0h21.5615234375v11h-21.5615234375Z" pointer-events="none" opacity="1"/><g><g class="mark-symbol role-legend-symbol" pointer-events="none"><path transform="translate(6,6)" d="M-5,0L5,0" stroke="#888" stroke-width="1.5" stroke-dasharray="1,0" opacity="1"/></g><g class="mark-text role-legend-label" pointer-events="none"><text text-anchor="start" transform="translate(16,9)" font-family="Arial" font-size="10px" fill="#000" opacity="1">1</text></g></g><path class="foreground" aria-hidden="true" d="" pointer-events="none" display="none"/></g><g transform="translate(0,13)"><path class="background" aria-hidden="true" d="M0,0h21.5615234375v11h-21.5615234375Z" pointer-events="none" opacity="1"/><g><g class="mark-symbol role-legend-symbol" pointer-events="none"><path transform="translate(6,6)" d="M-5,0L5,0" stroke="#888" stroke-width="1.5" stroke-dasharray="4,2" opacity="1"/></g><g class="mark-text role-legend-label" pointer-events="none"><text text-anchor="start" transform="translate(16,9)" font-family="Arial" font-size="10px" fill="#000" opacity="1">2</text></g></g><path class="foreground" aria-hidden="true" d="" pointer-events="none" display="none"/></g></g></g><path class="foreground" aria-hidden="true" d="" pointer-events="none" display="none"/></g></g></g><path class="foreground" aria-hidden="true" d="" pointer-events="none" display="none"/></g></g></g><path class="foreground" aria-hidden="true" d="" display="none"/></g></g></g></svg>