<svg xmlns="http://www.w3.org/2000/svg" xmlns:xlink="http://www.w3.org/1999/xlink" version="1.1" class="marks" width="178" height="130" viewBox="0 0 178 130"><rect width="178" height="130" fill="white"/><g fill="none" stroke-miterlimit="10" transform="translate(51,5)"><g class="mark-group role-frame root" role="graphics-object" aria-roledescription="group mark container"><g transform="translate(0,0)"><path class="background" aria-hidden="true" d="M0.5,0.5h120v90h-120Z"/><g><g class="mark-group role-axis" role="graphics-symbol" aria-roledescription="axis" aria-label="X-axis titled 'Time (min)' for a linear scale with values from 0 to 200"><g transform="translate(0.5,90.5)"><path class="background" aria-hidden="true" d="M0,0h0v0h0Z" pointer-events="none"/><g><g class="mark-rule role-axis-tick" pointer-events="none"><line transform="translate(0,0)" x2="0" y2="3" stroke="black" stroke-width="1" opacity="1"/><line transform="translate(30,0)" x2="0" y2="3" stroke="black" stroke-width="1" opacity="1"/><line transform="translate(60,0)" x2="0" y2="3" stroke="black" stroke-width="1" opacity="1"/><line transform="translate(90,0)" x2="0" y2="3" stroke="black" stroke-width="1" opacity="1"/><line transform="translate(120,0)" x2="0" y2="3" stroke="black" stroke-width="1" opacity="1"/></g><g class="mark-text role-axis-label" pointer-events="none"><text text-anchor="start" transform="translate(0,13)" font-family="Arial" font-size="10px" fill="#000" opacity="1">0</text><text text-anchor="middle" transform="translate(30,13)" font-family="Arial" font-size="10px" fill="#000" opacity="1">50</text><text text-anchor="middle" transform="translate(60,13)" font-family="Arial" font-size="10px" fill="#000" opacity="1">100</text><text text-anchor="middle" transform="translate(90,13)" font-family="Arial" font-size="10px" fill="#000" opacity="1">150</text><text text-anchor="end" transform="translate(120,13)" font-family="Arial" font-size="10px" fill="#000" opacity="1">200</text></g><g class="mark-rule role-axis-domain" pointer-events="none"><line transform="translate(0,0)" x2="120" y2="0" stroke="black" stroke-width="1" opacity="1"/></g><g class="mark-text role-axis-title" pointer-events="none"><text text-anchor="middle" transform="translate(60,28)" font-family="Arial" font-size="11px" font-weight="normal" fill="#000" opacity="1">Time (min)</text></g></g><path class="foreground" aria-hidden="true" d="" pointer-events="none" display="none"/></g></g><g class="mark-group role-axis" role="graphics-symbol" aria-roledescription="axis" aria-label="Y-axis titled 'Protein' for a linear scale with values from 0 to 3,500"><g transform="translate(0.5,0.5)"><path class="background" aria-hidden="true" d="M0,0h0v0h0Z" pointer-events="none"/><g><g class="mark-rule role-axis-tick" pointer-events="none"><line transform="translate(0,90)" x2="-3" y2="0" stroke="black" stroke-width="1" opacity="1"/><line transform="translate(0,64)" x2="-3" y2="0" stroke="black" stroke-width="1" opacity="1"/><line transform="translate(0,39)" x2="-3" y2="0" stroke="black" stroke-width="1" opacity="1"/><line transform="translate(0,13)" x2="-3" y2="0" stroke="black" stroke-width="1" opacity="1"/></g><g class="mark-text role-axis-label" pointer-events="none"><text text-anchor="end" transform="translate(-5,93)" font-family="Arial" font-size="10px" fill="#000" opacity="1">0</text><text text-anchor="end" transform="translate(-5,67.28571428571429)" font-family="Arial" font-size="10px" fill="#000" opacity="1">1,000</text><text text-anchor="end" transform="translate(-5,41.57142857142858)" font-family="Arial" font-size="10px" fill="#000" opacity="1">2,000</text><text text-anchor="end" transform="translate(-5,15.857142857142861)" font-family="Arial" font-size="10px" fill="#000" opacity="1">3,000</text></g><g class="mark-rule role-axis-domain" pointer-events="none"><line transform="translate(0,90)" x2="0" y2="-90" stroke="black" stroke-width="1" opacity="1"/></g><g class="mark-text role-axis-title" pointer-events="none"><text text-anchor="middle" transform="translate(-34.0244140625,45) rotate(-90) translate(0,-2)" font-family="Arial" font-size="11px" font-weight="normal" fill="#000" opacity="1">Protein</text></g></g><path class="foreground" aria-hidden="true" d="" pointer-events="none" display="none"/></g></g><g class="mark-group role-scope layer_0_pathgroup" role="graphics-object" aria-roledescription="group mark container"><g transform="translate(0,0)"><path class="background" aria-hidden="true" d="M0,0h120v90h-120Z"/><g><g class="mark-line role-mark layer_0_marks" role="graphics-object" aria-roledescription="line mark container"><path aria-label="t: 0; P: 50; gene: 1" role="graphics-symbol" aria-roledescription="line mark" d="M0,88.714L0.6,88.232L1.2,86.368L1.8,84.657L2.4,83.547L3,82.978L3.6,82.806L4.2,82.898L4.8,83.15L5.4,83.488L6,83.858L6.6,84.226L7.2,84.574L7.8,84.891L8.4,85.177L9,85.434L9.6,85.668L10.2,85.886L10.8,86.095L11.4,86.299L12,86.501L12.6,86.702L13.2,86.904L13.8,87.104L14.4,87.303L15,87.499L15.6,87.689L16.2,87.874L16.8,88.052L17.4,88.221L18,88.38L18.6,88.53L19.2,88.67L19.8,88.8L20.4,88.92L21,89.029L21.6,89.129L22.2,89.219L22.8,89.301L23.4,89.374L24,89.44L24.6,89.498L25.2,89.55L25.8,89.596L26.4,89.637L27,89.673L27.6,89.705L28.2,89.733L28.8,89.758L29.4,89.779L30,89.798L30.6,89.814L31.2,89.829L31.8,89.841L32.4,89.852L33,89.861L33.6,89.87L34.2,89.877L34.8,89.883L35.4,89.888L36,89.893L36.6,89.897L37.2,89.901L37.8,89.904L38.4,89.906L39,89.909L39.6,89.911L40.2,89.912L40.8,89.914L41.4,89.915L42,89.916L42.6,89.917L43.2,89.918L43.8,89.919L44.4,89.919L45,89.92L45.6,89.92L46.2,89.921L46.8,89.921L47.4,89.921L48,89.922L48.6,89.922L49.2,89.922L49.8,89.922L50.4,89.922L51,89.922L51.6,89.923L52.2,89.923L52.8,89.923L53.4,89.923L54,89.923L54.6,89.923L55.2,89.923L55.8,89.923L56.4,89.923L57,89.923L57.6,89.923L58.2,89.923L58.8,89.923L59.4,89.923L60,89.923L60.6,89.923L61.2,89.923L61.8,89.923L62.4,89.923L63,89.923L63.6,89.923L64.2,89.923L64.8,89.923L65.4,89.923L66,89.923L66.6,89.923L67.2,89.923L67.8,89.923L68.4,89.923L69,89.923L69.6,89.923L70.2,89.923L70.8,89.923L71.4,89.923L72,89.923L72.6,89.923L73.2,89.923L73.8,89.923L74.4,89.923L75,89.923L75.6,89.923L76.2,89.923L76.8,89.923L77.4,89.923L78,89.923L78.6,89.923L79.2,89.923L79.8,89.923L80.4,89.923L81,89.923L81.6,89.923L82.2,89.923L82.8,89.923L83.4,89.923L84,89.923L84.6,89.923L85.2,89.923L85.8,89.923L86.4,89.923L87,89.923L87.6,89.923L88.2,89.923L88.8,89.923L89.4,89.923L90,89.923L90.6,89.923L91.2,89.923L91.8,89.923L92.4,89.923L93,89.923L93.6,89.923L94.2,89.923L94.8,89.923L95.4,89.923L96,89.923L96.6,89.923L97.2,89.923L97.8,89.923L98.4,89.923L99,89.923L99.6,89.923L100.2,89.923L100.8,89.923L101.4,89.923L102,89.923L102.6,89.923L103.2,89.923L103.8,89.923L104.4,89.923L105,89.923L105.6,89.923L106.2,89.923L106.8,89.923L107.4,89.923L108,89.923L108.6,89.923L109.2,89.923L109.8,89.923L110.4,89.923L111,89.923L111.6,89.923L112.2,89.923L112.8,89.923L113.4,89.923L114,89.923L114.6,89.923L115.2,89.923L115.8,89.923L116.4,89.923L117,89.923L117.6,89.923L118.2,89.923L118.8,89.923L119.4,89.923L120,89.923" stroke="#1657a8" stroke-width="2"/></g></g><path class="foreground" aria-hidden="true" d="" display="none"/></g><g transform="translate(0,0)"><path class="background" aria-hidden="true" d="M0,0h120v90h-120Z"/><g><g class="mark-line role-mark layer_0_marks" role="graphics-object" aria-roledescription="line mark container"><path aria-label="t: 0; P: 100; gene: 2" role="graphics-symbol" aria-roledescription="line mark" d="M0,87.429L0.6,86.759L1.2,83.718L1.8,80.563L2.4,78.244L3,76.804L3.6,76.057L4.2,75.789L4.8,75.814L5.4,75.987L6,76.197L6.6,76.364L7.2,76.432L7.8,76.367L8.4,76.151L9,75.777L9.6,75.247L10.2,74.57L10.8,73.754L11.4,72.807L12,71.733L12.6,70.535L13.2,69.208L13.8,67.748L14.4,66.148L15,64.397L15.6,62.49L16.2,60.423L16.8,58.194L17.4,55.808L18,53.278L18.6,50.621L19.2,47.86L19.8,45.025L20.4,42.148L21,39.265L21.6,36.409L22.2,33.615L22.8,30.913L23.4,28.327L24,25.877L24.6,23.58L25.2,21.445L25.8,19.477L26.4,17.677L27,16.041L27.6,14.565L28.2,13.24L28.8,12.057L29.4,11.007L30,10.077L30.6,9.259L31.2,8.54L31.8,7.91L32.4,7.361L33,6.883L33.6,6.468L34.2,6.109L34.8,5.798L35.4,5.529L36,5.297L36.6,5.098L37.2,4.926L37.8,4.778L38.4,4.652L39,4.543L39.6,4.45L40.2,4.37L40.8,4.302L41.4,4.243L42,4.193L42.6,4.15L43.2,4.114L43.8,4.082L44.4,4.055L45,4.033L45.6,4.013L46.2,3.996L46.8,3.982L47.4,3.97L48,3.959L48.6,3.95L49.2,3.943L49.8,3.936L50.4,3.931L51,3.926L51.6,3.922L52.2,3.919L52.8,3.916L53.4,3.913L54,3.911L54.6,3.909L55.2,3.907L55.8,3.906L56.4,3.905L57,3.904L57.6,3.903L58.2,3.902L58.8,3.902L59.4,3.901L60,3.901L60.6,3.9L61.2,3.9L61.8,3.9L62.4,3.899L63,3.899L63.6,3.899L64.2,3.899L64.8,3.899L65.4,3.899L66,3.899L66.6,3.899L67.2,3.898L67.8,3.898L68.4,3.898L69,3.898L69.6,3.898L70.2,3.898L70.8,3.898L71.4,3.898L72,3.898L72.6,3.898L73.2,3.898L73.8,3.898L74.4,3.898L75,3.898L75.6,3.898L76.2,3.898L76.8,3.898L77.4,3.898L78,3.898L78.6,3.898L79.2,3.898L79.8,3.898L80.4,3.898L81,3.898L81.6,3.898L82.2,3.898L82.8,3.898L83.4,3.898L84,3.898L84.6,3.898L85.2,3.898L85.8,3.898L86.4,3.898L87,3.898L87.6,3.898L88.2,3.898L88.8,3.898L89.4,3.898L90,3.898L90.6,3.898L91.2,3.898L91.8,3.898L92.4,3.898L93,3.898L93.6,3.898L94.2,3.898L94.8,3.898L95.4,3.898L96,3.898L96.6,3.898L97.2,3.898L97.8,3.898L98.4,3.898L99,3.898L99.6,3.898L100.2,3.898L100.8,3.898L101.4,3.898L102,3.898L102.6,3.898L103.2,3.898L103.8,3.898L104.4,3.898L105,3.898L105.6,3.898L106.2,3.898L106.8,3.898L107.4,3.898L108,3.898L108.6,3.898L109.2,3.898L109.8,3.898L110.4,3.898L111,3.898L111.6,3.898L112.2,3.898L112.8,3.898L113.4,3.898L114,3.898L114.6,3.898L115.2,3.898L115.8,3.898L116.4,3.898L117,3.898L117.6,3.898L118.2,3.898L118.8,3.898L119.4,3.898L120,3.898" stroke="#048059" stroke-width="2"/></g></g><path class="foreground" aria-hidden="true" d="" display="none"/></g></g><g class="mark-group role-scope layer_1_pathgroup" role="graphics-object" aria-roledescription="group mark container"><g transform="translate(0,0)"><path class="background" aria-hidden="true" d="M0,0h120v90h-120Z"/><g><g class="mark-line role-mark layer_1_marks" role="graphics-object" aria-roledescription="line mark container"><path aria-label="t: 0; P: 50; gene: 1" role="graphics-symbol" aria-roledescription="line mark" d="M0,88.714L0.6,88.195L1.2,86.422L1.8,84.753L2.4,83.651L3,83.077L3.6,82.896L4.2,82.979L4.8,83.223L5.4,83.553L6,83.917L6.6,84.282L7.2,84.628L7.8,84.944L8.4,85.23L9,85.488L9.6,85.724L10.2,85.945L10.8,86.155L11.4,86.36L12,86.563L12.6,86.765L13.2,86.966L13.8,87.166L14.4,87.363L15,87.557L15.6,87.746L16.2,87.928L16.8,88.103L17.4,88.269L18,88.426L18.6,88.573L19.2,88.71L19.8,88.837L20.4,88.953L21,89.06L21.6,89.156L22.2,89.244L22.8,89.323L23.4,89.394L24,89.458L24.6,89.514L25.2,89.564L25.8,89.609L26.4,89.648L27,89.683L27.6,89.714L28.2,89.741L28.8,89.764L29.4,89.785L30,89.803L30.6,89.819L31.2,89.832L31.8,89.844L32.4,89.855L33,89.864L33.6,89.872L34.2,89.879L34.8,89.885L35.4,89.89L36,89.894L36.6,89.898L37.2,89.902L37.8,89.905L38.4,89.907L39,89.909L39.6,89.911L40.2,89.913L40.8,89.914L41.4,89.915L42,89.917L42.6,89.917L43.2,89.918L43.8,89.919L44.4,89.92L45,89.92L45.6,89.92L46.2,89.921L46.8,89.921L47.4,89.921L48,89.922L48.6,89.922L49.2,89.922L49.8,89.922L50.4,89.922L51,89.922L51.6,89.923L52.2,89.923L52.8,89.923L53.4,89.923L54,89.923L54.6,89.923L55.2,89.923L55.8,89.923L56.4,89.923L57,89.923L57.6,89.923L58.2,89.923L58.8,89.923L59.4,89.923L60,89.923L60.6,89.923L61.2,89.923L61.8,89.923L62.4,89.923L63,89.923L63.6,89.923L64.2,89.923L64.8,89.923L65.4,89.923L66,89.923L66.6,89.923L67.2,89.923L67.8,89.923L68.4,89.923L69,89.923L69.6,89.923L70.2,89.923L70.8,89.923L71.4,89.923L72,89.923L72.6,89.923L73.2,89.923L73.8,89.923L74.4,89.923L75,89.923L75.6,89.923L76.2,89.923L76.8,89.923L77.4,89.923L78,89.923L78.6,89.923L79.2,89.923L79.8,89.923L80.4,89.923L81,89.923L81.6,89.923L82.2,89.923L82.8,89.923L83.4,89.923L84,89.923L84.6,89.923L85.2,89.923L85.8,89.923L86.4,89.923L87,89.923L87.6,89.923L88.2,89.923L88.8,89.923L89.4,89.923L90,89.923L90.6,89.923L91.2,89.923L91.8,89.923L92.4,89.923L93,89.923L93.6,89.923L94.2,89.923L94.8,89.923L95.4,89.923L96,89.923L96.6,89.923L97.2,89.923L97.8,89.923L98.4,89.923L99,89.923L99.6,89.923L100.2,89.923L100.8,89.923L101.4,89.923L102,89.923L102.6,89.923L103.2,89.923L103.8,89.923L104.4,89.923L105,89.923L105.6,89.923L106.2,89.923L106.8,89.923L107.4,89.923L108,89.923L108.6,89.923L109.2,89.923L109.8,89.923L110.4,89.923L111,89.923L111.6,89.923L112.2,89.923L112.8,89.923L113.4,89.923L114,89.923L114.6,89.923L115.2,89.923L115.8,89.923L116.4,89.923L117,89.923L117.6,89.923L118.2,89.923L118.8,89.923L119.4,89.923L120,89.923" stroke="#f462a3" stroke-width="2" stroke-dasharray="4,4"/></g></g><path class="foreground" aria-hidden="true" d="" display="none"/></g><g transform="translate(0,0)"><path class="background" aria-hidden="true" d="M0,0h120v90h-120Z"/><g><g class="mark-line role-mark layer_1_marks" role="graphics-object" aria-roledescription="line mark container"><path aria-label="t: 0; P: 100; gene: 2" role="graphics-symbol" aria-roledescription="line mark" d="M0,87.429L0.6,86.689L1.2,83.75L1.8,80.631L2.4,78.292L3,76.817L3.6,76.032L4.2,75.731L4.8,75.729L5.4,75.879L6,76.071L6.6,76.222L7.2,76.277L7.8,76.199L8.4,75.969L9,75.579L9.6,75.032L10.2,74.334L10.8,73.494L11.4,72.518L12,71.411L12.6,70.175L13.2,68.807L13.8,67.302L14.4,65.652L15,63.851L15.6,61.892L16.2,59.772L16.8,57.493L17.4,55.06L18,52.489L18.6,49.797L19.2,47.011L19.8,44.16L20.4,41.279L21,38.401L21.6,35.562L22.2,32.794L22.8,30.124L23.4,27.578L24,25.174L24.6,22.925L25.2,20.84L25.8,18.923L26.4,17.172L27,15.585L27.6,14.155L28.2,12.874L28.8,11.732L29.4,10.719L30,9.823L30.6,9.035L31.2,8.344L31.8,7.74L32.4,7.213L33,6.754L33.6,6.356L34.2,6.012L34.8,5.714L35.4,5.457L36,5.235L36.6,5.044L37.2,4.88L37.8,4.739L38.4,4.618L39,4.514L39.6,4.425L40.2,4.349L40.8,4.283L41.4,4.228L42,4.18L42.6,4.139L43.2,4.104L43.8,4.074L44.4,4.048L45,4.026L45.6,4.008L46.2,3.992L46.8,3.978L47.4,3.967L48,3.957L48.6,3.948L49.2,3.941L49.8,3.935L50.4,3.929L51,3.925L51.6,3.921L52.2,3.918L52.8,3.915L53.4,3.912L54,3.91L54.6,3.909L55.2,3.907L55.8,3.906L56.4,3.905L57,3.904L57.6,3.903L58.2,3.902L58.8,3.902L59.4,3.901L60,3.901L60.6,3.9L61.2,3.9L61.8,3.9L62.4,3.899L63,3.899L63.6,3.899L64.2,3.899L64.8,3.899L65.4,3.899L66,3.899L66.6,3.899L67.2,3.898L67.8,3.898L68.4,3.898L69,3.898L69.6,3.898L70.2,3.898L70.8,3.898L71.4,3.898L72,3.898L72.6,3.898L73.2,3.898L73.8,3.898L74.4,3.898L75,3.898L75.6,3.898L76.2,3.898L76.8,3.898L77.4,3.898L78,3.898L78.6,3.898L79.2,3.898L79.8,3.898L80.4,3.898L81,3.898L81.6,3.898L82.2,3.898L82.8,3.898L83.4,3.898L84,3.898L84.6,3.898L85.2,3.898L85.8,3.898L86.4,3.898L87,3.898L87.6,3.898L88.2,3.898L88.8,3.898L89.4,3.898L90,3.898L90.6,3.898L91.2,3.898L91.8,3.898L92.4,3.898L93,3.898L93.6,3.898L94.2,3.898L94.8,3.898L95.4,3.898L96,3.898L96.6,3.898L97.2,3.898L97.8,3.898L98.4,3.898L99,3.898L99.6,3.898L100.2,3.898L100.8,3.898L101.4,3.898L102,3.898L102.6,3.898L103.2,3.898L103.8,3.898L104.4,3.898L105,3.898L105.6,3.898L106.2,3.898L106.8,3.898L107.4,3.898L108,3.898L108.6,3.898L109.2,3.898L109.8,3.898L110.4,3.898L111,3.898L111.6,3.898L112.2,3.898L112.8,3.898L113.4,3.898L114,3.898L114.6,3.898L115.2,3.898L115.8,3.898L116.4,3.898L117,3.898L117.6,3.898L118.2,3.898L118.8,3.898L119.4,3.898L120,3.898" stroke="#f462a3" stroke-width="2" stroke-dasharray="4,4"/></g></g><path class="foreground" aria-hidden="true" d="" display="none"/></g></g></g><path class="foreground" aria-hidden="true" d="" display="none"/></g></g></g></svg>