<svg xmlns="http://www.w3.org/2000/svg" xmlns:xlink="http://www.w3.org/1999/xlink" version="1.1" class="marks" width="178" height="130" viewBox="0 0 178 130"><rect width="178" height="130" fill="white"/><g fill="none" stroke-miterlimit="10" transform="translate(51,5)"><g class="mark-group role-frame root" role="graphics-object" aria-roledescription="group mark container"><g transform="translate(0,0)"><path class="background" aria-hidden="true" d="M0.5,0.5h120v90h-120Z"/><g><g class="mark-group role-axis" role="graphics-symbol" aria-roledescription="axis" aria-label="X-axis titled 'Time (min)' for a linear scale with values from 0 to 200"><g transform="translate(0.5,90.5)"><path class="background" aria-hidden="true" d="M0,0h0v0h0Z" pointer-events="none"/><g><g class="mark-rule role-axis-tick" pointer-events="none"><line transform="translate(0,0)" x2="0" y2="3" stroke="black" stroke-width="1" opacity="1"/><line transform="translate(30,0)" x2="0" y2="3" stroke="black" stroke-width="1" opacity="1"/><line transform="translate(60,0)" x2="0" y2="3" stroke="black" stroke-width="1" opacity="1"/><line transform="translate(90,0)" x2="0" y2="3" stroke="black" stroke-width="1" opacity="1"/><line transform="translate(120,0)" x2="0" y2="3" stroke="black" stroke-width="1" opacity="1"/></g><g class="mark-text role-axis-label" pointer-events="none"><text text-anchor="start" transform="translate(0,13)" font-family="Arial" font-size="10px" fill="#000" opacity="1">0</text><text text-anchor="middle" transform="translate(30,13)" font-family="Arial" font-size="10px" fill="#000" opacity="1">50</text><text text-anchor="middle" transform="translate(60,13)" font-family="Arial" font-size="10px" fill="#000" opacity="1">100</text><text text-anchor="middle" transform="translate(90,13)" font-family="Arial" font-size="10px" fill="#000" opacity="1">150</text><text text-anchor="end" transform="translate(120,13)" font-family="Arial" font-size="10px" fill="#000" opacity="1">200</text></g><g class="mark-rule role-axis-domain" pointer-events="none"><line transform="translate(0,0)" x2="120" y2="0" stroke="black" stroke-width="1" opacity="1"/></g><g class="mark-text role-axis-title" pointer-events="none"><text text-anchor="middle" transform="translate(60,28)" font-family="Arial" font-size="11px" font-weight="normal" fill="#000" opacity="1">Time (min)</text></g></g><path class="foreground" aria-hidden="true" d="" pointer-events="none" display="none"/></g></g><g class="mark-group role-axis" role="graphics-symbol" aria-roledescription="axis" aria-label="Y-axis titled 'Protein' for a linear scale with values from 0 to 3,500"><g transform="translate(0.5,0.5)"><path class="background" aria-hidden="true" d="M0,0h0v0h0Z" pointer-events="none"/><g><g class="mark-rule role-axis-tick" pointer-events="none"><line transform="translate(0,90)" x2="-3" y2="0" stroke="black" stroke-width="1" opacity="1"/><line transform="translate(0,64)" x2="-3" y2="0" stroke="black" stroke-width="1" opacity="1"/><line transform="translate(0,39)" x2="-3" y2="0" stroke="black" stroke-width="1" opacity="1"/><line transform="translate(0,13)" x2="-3" y2="0" stroke="black" stroke-width="1" opacity="1"/></g><g class="mark-text role-axis-label" pointer-events="none"><text text-anchor="end" transform="translate(-5,93)" font-family="Arial" font-size="10px" fill="#000" opacity="1">0</text><text text-anchor="end" transform="translate(-5,67.28571428571429)" font-family="Arial" font-size="10px" fill="#000" opacity="1">1,000</text><text text-anchor="end" transform="translate(-5,41.57142857142858)" font-family="Arial" font-size="10px" fill="#000" opacity="1">2,000</text><text text-anchor="end" transform="translate(-5,15.857142857142861)" font-family="Arial" font-size="10px" fill="#000" opacity="1">3,000</text></g><g class="mark-rule role-axis-domain" pointer-events="none"><line transform="translate(0,90)" x2="0" y2="-90" stroke="black" stroke-width="1" opacity="1"/></g><g class="mark-text role-axis-title" pointer-events="none"><text text-anchor="middle" transform="translate(-34.0244140625,45) rotate(-90) translate(0,-2)" font-family="Arial" font-size="11px" font-weight="normal" fill="#000" opacity="1">Protein</text></g></g><path class="foreground" aria-hidden="true" d="" pointer-events="none" display="none"/></g></g><g class="mark-group role-scope layer_0_pathgroup" role="graphics-object" aria-roledescription="group mark container"><g transform="translate(0,0)"><path class="background" aria-hidden="true" d="M0,0h120v90h-120Z"/><g><g class="mark-line role-mark layer_0_marks" role="graphics-object" aria-roledescription="line mark container"><path aria-label="t: 0; P: 50; gene: 1" role="graphics-symbol" aria-roledescription="line mark" d="M0,88.714L0.6,88.22L1.2,86.685L1.8,85.723L2.4,85.32L3,85.286L3.6,85.477L4.2,85.795L4.8,86.174L5.4,86.572L6,86.962L6.6,87.331L7.2,87.67L7.8,87.977L8.4,88.253L9,88.497L9.6,88.712L10.2,88.899L10.8,89.062L11.4,89.202L12,89.323L12.6,89.426L13.2,89.514L13.8,89.589L14.4,89.653L15,89.707L15.6,89.753L16.2,89.791L16.8,89.824L17.4,89.852L18,89.875L18.6,89.895L19.2,89.911L19.8,89.925L20.4,89.937L21,89.947L21.6,89.956L22.2,89.963L22.8,89.969L23.4,89.974L24,89.978L24.6,89.981L25.2,89.984L25.8,89.987L26.4,89.989L27,89.991L27.6,89.992L28.2,89.993L28.8,89.994L29.4,89.995L30,89.996L30.6,89.997L31.2,89.997L31.8,89.998L32.4,89.998L33,89.998L33.6,89.999L34.2,89.999L34.8,89.999L35.4,89.999L36,89.999L36.6,89.999L37.2,89.999L37.8,90L38.4,90L39,90L39.6,90L40.2,90L40.8,90L41.4,90L42,90L42.6,90L43.2,90L43.8,90L44.4,90L45,90L45.6,90L46.2,90L46.8,90L47.4,90L48,90L48.6,90L49.2,90L49.8,90L50.4,90L51,90L51.6,90L52.2,90L52.8,90L53.4,90L54,90L54.6,90L55.2,90L55.8,90L56.4,90L57,90L57.6,90L58.2,90L58.8,90L59.4,90L60,90L60.6,90L61.2,90L61.8,90L62.4,90L63,90L63.6,90L64.2,90L64.8,90L65.4,90L66,90L66.6,90L67.2,90L67.8,90L68.4,90L69,90L69.6,90L70.2,90L70.8,90L71.4,90L72,90L72.6,90L73.2,90L73.8,90L74.4,90L75,90L75.6,90L76.2,90L76.8,90L77.4,90L78,90L78.6,90L79.2,90L79.8,90L80.4,90L81,90L81.6,90L82.2,90L82.8,90L83.4,90L84,90L84.6,90L85.2,90L85.8,90L86.4,90L87,90L87.6,90L88.2,90L88.8,90L89.4,90L90,90L90.6,90L91.2,90L91.8,90L92.4,90L93,90L93.6,90L94.2,90L94.8,90L95.4,90L96,90L96.6,90L97.2,90L97.8,90L98.4,90L99,90L99.6,90L100.2,90L100.8,90L101.4,90L102,90L102.6,90L103.2,90L103.8,90L104.4,90L105,90L105.6,90L106.2,90L106.8,90L107.4,90L108,90L108.6,90L109.2,90L109.8,90L110.4,90L111,90L111.6,90L112.2,90L112.8,90L113.4,90L114,90L114.6,90L115.2,90L115.8,90L116.4,90L117,90L117.6,90L118.2,90L118.8,90L119.4,90L120,90" stroke="#1657a8" stroke-width="2"/></g></g><path class="foreground" aria-hidden="true" d="" display="none"/></g><g transform="translate(0,0)"><path class="background" aria-hidden="true" d="M0,0h120v90h-120Z"/><g><g class="mark-line role-mark layer_0_marks" role="graphics-object" aria-roledescription="line mark container"><path aria-label="t: 0; P: 100; gene: 2" role="graphics-symbol" aria-roledescription="line mark" d="M0,87.429L0.6,86.574L1.2,82.962L1.8,79.595L2.4,77.487L3,76.439L3.6,76.104L4.2,76.169L4.8,76.368L5.4,76.462L6,76.221L6.6,75.413L7.2,73.826L7.8,71.32L8.4,67.873L9,63.607L9.6,58.751L10.2,53.571L10.8,48.323L11.4,43.211L12,38.381L12.6,33.922L13.2,29.882L13.8,26.272L14.4,23.084L15,20.292L15.6,17.867L16.2,15.77L16.8,13.968L17.4,12.423L18,11.104L18.6,9.981L19.2,9.026L19.8,8.216L20.4,7.529L21,6.948L21.6,6.457L22.2,6.042L22.8,5.692L23.4,5.397L24,5.148L24.6,4.938L25.2,4.761L25.8,4.612L26.4,4.487L27,4.381L27.6,4.292L28.2,4.217L28.8,4.154L29.4,4.101L30,4.057L30.6,4.019L31.2,3.988L31.8,3.961L32.4,3.939L33,3.92L33.6,3.905L34.2,3.891L34.8,3.88L35.4,3.871L36,3.863L36.6,3.856L37.2,3.851L37.8,3.846L38.4,3.842L39,3.839L39.6,3.836L40.2,3.834L40.8,3.832L41.4,3.83L42,3.829L42.6,3.827L43.2,3.826L43.8,3.826L44.4,3.825L45,3.824L45.6,3.824L46.2,3.823L46.8,3.823L47.4,3.823L48,3.823L48.6,3.822L49.2,3.822L49.8,3.822L50.4,3.822L51,3.822L51.6,3.822L52.2,3.822L52.8,3.822L53.4,3.822L54,3.821L54.6,3.821L55.2,3.821L55.8,3.821L56.4,3.821L57,3.821L57.6,3.821L58.2,3.821L58.8,3.821L59.4,3.821L60,3.821L60.6,3.821L61.2,3.821L61.8,3.821L62.4,3.821L63,3.821L63.6,3.821L64.2,3.821L64.8,3.821L65.4,3.821L66,3.821L66.6,3.821L67.2,3.821L67.8,3.821L68.4,3.821L69,3.821L69.6,3.821L70.2,3.821L70.8,3.821L71.4,3.821L72,3.821L72.6,3.821L73.2,3.821L73.8,3.821L74.4,3.821L75,3.821L75.6,3.821L76.2,3.821L76.8,3.821L77.4,3.821L78,3.821L78.6,3.821L79.2,3.821L79.8,3.821L80.4,3.821L81,3.821L81.6,3.821L82.2,3.821L82.8,3.821L83.4,3.821L84,3.821L84.6,3.821L85.2,3.821L85.8,3.821L86.4,3.821L87,3.821L87.6,3.821L88.2,3.821L88.8,3.821L89.4,3.821L90,3.821L90.6,3.821L91.2,3.821L91.8,3.821L92.4,3.821L93,3.821L93.6,3.821L94.2,3.821L94.8,3.821L95.4,3.821L96,3.821L96.6,3.821L97.2,3.821L97.8,3.821L98.4,3.821L99,3.821L99.6,3.821L100.2,3.821L100.8,3.821L101.4,3.821L102,3.821L102.6,3.821L103.2,3.821L103.8,3.821L104.4,3.821L105,3.821L105.6,3.821L106.2,3.821L106.8,3.821L107.4,3.821L108,3.821L108.6,3.821L109.2,3.821L109.8,3.821L110.4,3.821L111,3.821L111.6,3.821L112.2,3.821L112.8,3.821L113.4,3.821L114,3.821L114.6,3.821L115.2,3.821L115.8,3.821L116.4,3.821L117,3.821L117.6,3.821L118.2,3.821L118.8,3.821L119.4,3.821L120,3.821" stroke="#048059" stroke-width="2"/></g></g><path class="foreground" aria-hidden="true" d="" display="none"/></g></g><g class="mark-group role-scope layer_1_pathgroup" role="graphics-object" aria-roledescription="group mark container"><g transform="translate(0,0)"><path class="background" aria-hidden="true" d="M0,0h120v90h-120Z"/><g><g class="mark-line role-mark layer_1_marks" role="graphics-object" aria-roledescription="line mark container"><path aria-label="t: 0; P: 50; gene: 1" role="graphics-symbol" aria-roledescription="line mark" d="M0,88.714L0.6,88.202L1.2,86.816L1.8,85.913L2.4,85.534L3,85.503L3.6,85.687L4.2,85.991L4.8,86.354L5.4,86.735L6,87.109L6.6,87.462L7.2,87.787L7.8,88.082L8.4,88.345L9,88.578L9.6,88.783L10.2,88.961L10.8,89.115L11.4,89.248L12,89.362L12.6,89.459L13.2,89.543L13.8,89.613L14.4,89.673L15,89.724L15.6,89.767L16.2,89.804L16.8,89.835L17.4,89.861L18,89.883L18.6,89.901L19.2,89.917L19.8,89.93L20.4,89.941L21,89.95L21.6,89.958L22.2,89.965L22.8,89.97L23.4,89.975L24,89.979L24.6,89.982L25.2,89.985L25.8,89.987L26.4,89.989L27,89.991L27.6,89.993L28.2,89.994L28.8,89.995L29.4,89.996L30,89.996L30.6,89.997L31.2,89.997L31.8,89.998L32.4,89.998L33,89.998L33.6,89.999L34.2,89.999L34.8,89.999L35.4,89.999L36,89.999L36.6,89.999L37.2,89.999L37.8,90L38.4,90L39,90L39.6,90L40.2,90L40.8,90L41.4,90L42,90L42.6,90L43.2,90L43.8,90L44.4,90L45,90L45.6,90L46.2,90L46.8,90L47.4,90L48,90L48.6,90L49.2,90L49.8,90L50.4,90L51,90L51.6,90L52.2,90L52.8,90L53.4,90L54,90L54.6,90L55.2,90L55.8,90L56.4,90L57,90L57.6,90L58.2,90L58.8,90L59.4,90L60,90L60.6,90L61.2,90L61.8,90L62.4,90L63,90L63.6,90L64.2,90L64.8,90L65.4,90L66,90L66.6,90L67.2,90L67.8,90L68.4,90L69,90L69.6,90L70.2,90L70.8,90L71.4,90L72,90L72.6,90L73.2,90L73.8,90L74.4,90L75,90L75.6,90L76.2,90L76.8,90L77.4,90L78,90L78.6,90L79.2,90L79.8,90L80.4,90L81,90L81.6,90L82.2,90L82.8,90L83.4,90L84,90L84.6,90L85.2,90L85.8,90L86.4,90L87,90L87.6,90L88.2,90L88.8,90L89.4,90L90,90L90.6,90L91.2,90L91.8,90L92.4,90L93,90L93.6,90L94.2,90L94.8,90L95.4,90L96,90L96.6,90L97.2,90L97.8,90L98.4,90L99,90L99.6,90L100.2,90L100.8,90L101.4,90L102,90L102.6,90L103.2,90L103.8,90L104.4,90L105,90L105.6,90L106.2,90L106.8,90L107.4,90L108,90L108.6,90L109.2,90L109.8,90L110.4,90L111,90L111.6,90L112.2,90L112.8,90L113.4,90L114,90L114.6,90L115.2,90L115.8,90L116.4,90L117,90L117.6,90L118.2,90L118.8,90L119.4,90L120,90" stroke="#f462a3" stroke-width="2" stroke-dasharray="4,4"/></g></g><path class="foreground" aria-hidden="true" d="" display="none"/></g><g transform="translate(0,0)"><path class="background" aria-hidden="true" d="M0,0h120v90h-120Z"/><g><g class="mark-line role-mark layer_1_marks" role="graphics-object" aria-roledescription="line mark container"><path aria-label="t: 0; P: 100; gene: 2" role="graphics-symbol" aria-roledescription="line mark" d="M0,87.429L0.6,86.486L1.2,82.972L1.8,79.541L2.4,77.284L3,76.084L3.6,75.61L4.2,75.544L4.8,75.604L5.4,75.536L6,75.093L6.6,74.036L7.2,72.166L7.8,69.373L8.4,65.681L9,61.251L9.6,56.325L10.2,51.169L10.8,46.019L11.4,41.056L12,36.407L12.6,32.143L13.2,28.299L13.8,24.878L14.4,21.866L15,19.237L15.6,16.956L16.2,14.988L16.8,13.298L17.4,11.852L18,10.618L18.6,9.568L19.2,8.675L19.8,7.919L20.4,7.278L21,6.736L21.6,6.278L22.2,5.891L22.8,5.564L23.4,5.289L24,5.057L24.6,4.861L25.2,4.697L25.8,4.558L26.4,4.441L27,4.343L27.6,4.26L28.2,4.19L28.8,4.132L29.4,4.082L30,4.041L30.6,4.006L31.2,3.977L31.8,3.952L32.4,3.931L33,3.914L33.6,3.899L34.2,3.887L34.8,3.876L35.4,3.867L36,3.86L36.6,3.854L37.2,3.849L37.8,3.844L38.4,3.841L39,3.838L39.6,3.835L40.2,3.833L40.8,3.831L41.4,3.829L42,3.828L42.6,3.827L43.2,3.826L43.8,3.825L44.4,3.825L45,3.824L45.6,3.824L46.2,3.823L46.8,3.823L47.4,3.823L48,3.822L48.6,3.822L49.2,3.822L49.8,3.822L50.4,3.822L51,3.822L51.6,3.822L52.2,3.822L52.8,3.822L53.4,3.821L54,3.821L54.6,3.821L55.2,3.821L55.8,3.821L56.4,3.821L57,3.821L57.6,3.821L58.2,3.821L58.8,3.821L59.4,3.821L60,3.821L60.6,3.821L61.2,3.821L61.8,3.821L62.4,3.821L63,3.821L63.6,3.821L64.2,3.821L64.8,3.821L65.4,3.821L66,3.821L66.6,3.821L67.2,3.821L67.8,3.821L68.4,3.821L69,3.821L69.6,3.821L70.2,3.821L70.8,3.821L71.4,3.821L72,3.821L72.6,3.821L73.2,3.821L73.8,3.821L74.4,3.821L75,3.821L75.6,3.821L76.2,3.821L76.8,3.821L77.4,3.821L78,3.821L78.6,3.821L79.2,3.821L79.8,3.821L80.4,3.821L81,3.821L81.6,3.821L82.2,3.821L82.8,3.821L83.4,3.821L84,3.821L84.6,3.821L85.2,3.821L85.8,3.821L86.4,3.821L87,3.821L87.6,3.821L88.2,3.821L88.8,3.821L89.4,3.821L90,3.821L90.6,3.821L91.2,3.821L91.8,3.821L92.4,3.821L93,3.821L93.6,3.821L94.2,3.821L94.8,3.821L95.4,3.821L96,3.821L96.6,3.821L97.2,3.821L97.8,3.821L98.4,3.821L99,3.821L99.6,3.821L100.2,3.821L100.8,3.821L101.4,3.821L102,3.821L102.6,3.821L103.2,3.821L103.8,3.821L104.4,3.821L105,3.821L105.6,3.821L106.2,3.821L106.8,3.821L107.4,3.821L108,3.821L108.6,3.821L109.2,3.821L109.8,3.821L110.4,3.821L111,3.821L111.6,3.821L112.2,3.821L112.8,3.821L113.4,3.821L114,3.821L114.6,3.821L115.2,3.821L115.8,3.821L116.4,3.821L117,3.821L117.6,3.821L118.2,3.821L118.8,3.821L119.4,3.821L120,3.821" stroke="#f462a3" stroke-width="2" stroke-dasharray="4,4"/></g></g><path class="foreground" aria-hidden="true" d="" display="none"/></g></g></g><path class="foreground" aria-hidden="true" d="" display="none"/></g></g></g></svg>