<svg xmlns="http://www.w3.org/2000/svg" xmlns:xlink="http://www.w3.org/1999/xlink" version="1.1" class="marks" width="863" height="261" viewBox="0 0 863 261"><rect width="863" height="261" fill="white"/><g fill="none" stroke-miterlimit="10" transform="translate(54,23)"><g class="mark-group role-frame root" role="graphics-object" aria-roledescription="group mark container"><g transform="translate(0,0)"><path class="background" aria-hidden="true" d="M0,0h0v200h0Z"/><g><g class="mark-group role-scope concat_0_group" role="graphics-object" aria-roledescription="group mark container"><g transform="translate(0,0)"><path class="background" aria-hidden="true" d="M0.5,0.5h200v200h-200Z" stroke="#ddd"/><g><g class="mark-group role-axis" aria-hidden="true"><g transform="translate(0.5,200.5)"><path class="background" aria-hidden="true" d="M0,0h0v0h0Z" pointer-events="none"/><g><g class="mark-rule role-axis-grid" pointer-events="none"><line transform="translate(0,-200)" x2="0" y2="200" stroke="#ddd" stroke-width="1" opacity="1"/><line transform="translate(44,-200)" x2="0" y2="200" stroke="#ddd" stroke-width="1" opacity="1"/><line transform="translate(89,-200)" x2="0" y2="200" stroke="#ddd" stroke-width="1" opacity="1"/><line transform="translate(133,-200)" x2="0" y2="200" stroke="#ddd" stroke-width="1" opacity="1"/><line transform="translate(178,-200)" x2="0" y2="200" stroke="#ddd" stroke-width="1" opacity="1"/></g></g><path class="foreground" aria-hidden="true" d="" pointer-events="none" display="none"/></g></g><g class="mark-group role-axis" aria-hidden="true"><g transform="translate(0.5,0.5)"><path class="background" aria-hidden="true" d="M0,0h0v0h0Z" pointer-events="none"/><g><g class="mark-rule role-axis-grid" pointer-events="none"><line transform="translate(0,200)" x2="200" y2="0" stroke="#ddd" stroke-width="1" opacity="1"/><line transform="translate(0,156)" x2="200" y2="0" stroke="#ddd" stroke-width="1" opacity="1"/><line transform="translate(0,111)" x2="200" y2="0" stroke="#ddd" stroke-width="1" opacity="1"/><line transform="translate(0,67)" x2="200" y2="0" stroke="#ddd" stroke-width="1" opacity="1"/><line transform="translate(0,22)" x2="200" y2="0" stroke="#ddd" stroke-width="1" opacity="1"/></g></g><path class="foreground" aria-hidden="true" d="" pointer-events="none" display="none"/></g></g><g class="mark-group role-axis" role="graphics-symbol" aria-roledescription="axis" aria-label="X-axis titled 'P1' for a linear scale with values from 0 to 4,500"><g transform="translate(0.5,200.5)"><path class="background" aria-hidden="true" d="M0,0h0v0h0Z" pointer-events="none"/><g><g class="mark-rule role-axis-tick" pointer-events="none"><line transform="translate(0,0)" x2="0" y2="5" stroke="#888" stroke-width="1" opacity="1"/><line transform="translate(44,0)" x2="0" y2="5" stroke="#888" stroke-width="1" opacity="1"/><line transform="translate(89,0)" x2="0" y2="5" stroke="#888" stroke-width="1" opacity="1"/><line transform="translate(133,0)" x2="0" y2="5" stroke="#888" stroke-width="1" opacity="1"/><line transform="translate(178,0)" x2="0" y2="5" stroke="#888" stroke-width="1" opacity="1"/></g><g class="mark-text role-axis-label" pointer-events="none"><text text-anchor="start" transform="translate(0,15)" font-family="Arial" font-size="10px" fill="#000" opacity="1">0</text><text text-anchor="middle" transform="translate(44.44444444444444,15)" font-family="Arial" font-size="10px" fill="#000" opacity="1">1,000</text><text text-anchor="middle" transform="translate(88.88888888888889,15)" font-family="Arial" font-size="10px" fill="#000" opacity="1">2,000</text><text text-anchor="middle" transform="translate(133.33333333333331,15)" font-family="Arial" font-size="10px" fill="#000" opacity="1">3,000</text><text text-anchor="middle" transform="translate(177.77777777777777,15)" font-family="Arial" font-size="10px" fill="#000" opacity="1">4,000</text></g><g class="mark-rule role-axis-domain" pointer-events="none"><line transform="translate(0,0)" x2="200" y2="0" stroke="#888" stroke-width="1" opacity="1"/></g><g class="mark-text role-axis-title" pointer-events="none"><text text-anchor="middle" transform="translate(100,30)" font-family="Arial" font-size="11px" font-weight="bold" fill="#000" opacity="1">P1</text></g></g><path class="foreground" aria-hidden="true" d="" pointer-events="none" display="none"/></g></g><g class="mark-group role-axis" role="graphics-symbol" aria-roledescription="axis" aria-label="Y-axis titled 'P2' for a linear scale with values from 0 to 4,500"><g transform="translate(0.5,0.5)"><path class="background" aria-hidden="true" d="M0,0h0v0h0Z" pointer-events="none"/><g><g class="mark-rule role-axis-tick" pointer-events="none"><line transform="translate(0,200)" x2="-5" y2="0" stroke="#888" stroke-width="1" opacity="1"/><line transform="translate(0,156)" x2="-5" y2="0" stroke="#888" stroke-width="1" opacity="1"/><line transform="translate(0,111)" x2="-5" y2="0" stroke="#888" stroke-width="1" opacity="1"/><line transform="translate(0,67)" x2="-5" y2="0" stroke="#888" stroke-width="1" opacity="1"/><line transform="translate(0,22)" x2="-5" y2="0" stroke="#888" stroke-width="1" opacity="1"/></g><g class="mark-text role-axis-label" pointer-events="none"><text text-anchor="end" transform="translate(-7,203)" font-family="Arial" font-size="10px" fill="#000" opacity="1">0</text><text text-anchor="end" transform="translate(-7,158.55555555555557)" font-family="Arial" font-size="10px" fill="#000" opacity="1">1,000</text><text text-anchor="end" transform="translate(-7,114.11111111111111)" font-family="Arial" font-size="10px" fill="#000" opacity="1">2,000</text><text text-anchor="end" transform="translate(-7,69.66666666666667)" font-family="Arial" font-size="10px" fill="#000" opacity="1">3,000</text><text text-anchor="end" transform="translate(-7,25.222222222222232)" font-family="Arial" font-size="10px" fill="#000" opacity="1">4,000</text></g><g class="mark-rule role-axis-domain" pointer-events="none"><line transform="translate(0,200)" x2="0" y2="-200" stroke="#888" stroke-width="1" opacity="1"/></g><g class="mark-text role-axis-title" pointer-events="none"><text text-anchor="middle" transform="translate(-36.0244140625,100) rotate(-90) translate(0,-2)" font-family="Arial" font-size="11px" font-weight="bold" fill="#000" opacity="1">P2</text></g></g><path class="foreground" aria-hidden="true" d="" pointer-events="none" display="none"/></g></g><g class="mark-group role-scope concat_0_layer_0_pathgroup" role="graphics-object" aria-roledescription="group mark container"><g transform="translate(0,0)"><path class="background" aria-hidden="true" d="M0,0h200v200h-200Z"/><g><g class="mark-line role-mark concat_0_layer_0_marks" role="graphics-object" aria-roledescription="line mark container"><path aria-label="P1: 0.1; P2: 689.402000153; nullcline: P2" role="graphics-symbol" aria-roledescription="line mark" d="M0.004,169.36L0.005,169.36L0.006,169.36L0.006,169.36L0.007,169.36L0.008,169.36L0.008,169.36L0.009,169.36L0.01,169.36L0.012,169.36L0.013,169.36L0.014,169.36L0.016,169.36L0.018,169.36L0.02,169.36L0.022,169.361L0.025,169.361L0.027,169.361L0.031,169.361L0.034,169.362L0.038,169.362L0.042,169.363L0.047,169.363L0.052,169.364L0.058,169.365L0.065,169.366L0.072,169.368L0.08,169.37L0.089,169.372L0.099,169.375L0.11,169.379L0.123,169.383L0.137,169.389L0.152,169.396L0.169,169.404L0.188,169.415L0.21,169.428L0.233,169.444L0.26,169.464L0.289,169.489L0.322,169.519L0.358,169.557L0.398,169.604L0.443,169.662L0.493,169.733L0.549,169.821L0.611,169.928L0.68,170.061L0.757,170.224L0.843,170.423L0.938,170.666L1.044,170.961L1.162,171.319L1.293,171.75L1.439,172.267L1.601,172.881L1.782,173.605L1.984,174.45L2.208,175.425L2.457,176.533L2.735,177.776L3.044,179.143L3.388,180.62L3.771,182.183L4.196,183.801L4.671,185.44L5.198,187.061L5.786,188.629L6.439,190.113L7.167,191.489L7.976,192.741L8.877,193.859L9.88,194.843L10.997,195.698L12.239,196.43L13.622,197.052L15.16,197.575L16.873,198.012L18.779,198.375L20.901,198.674L23.262,198.921L25.89,199.123L28.815,199.288L32.071,199.423L35.694,199.532L39.727,199.621L44.215,199.694L49.21,199.752L54.769,199.8L60.957,199.838L67.844,199.869L75.508,199.894L84.039,199.915L93.533,199.931L104.1,199.944L115.861,199.955L128.95,199.964L143.518,199.971L159.732,199.976L177.778,199.981" stroke="#048059" stroke-width="2"/></g></g><path class="foreground" aria-hidden="true" d="" display="none"/></g><g transform="translate(0,0)"><path class="background" aria-hidden="true" d="M0,0h200v200h-200Z"/><g><g class="mark-line role-mark concat_0_layer_0_marks" role="graphics-object" aria-roledescription="line mark container"><path aria-label="P1: 0.430607551252; P2: 4000; nullcline: P1" role="graphics-symbol" aria-roledescription="line mark" d="M0.019,22.222L0.024,40.268L0.029,56.482L0.036,71.05L0.045,84.139L0.056,95.9L0.069,106.467L0.085,115.961L0.106,124.492L0.131,132.156L0.162,139.043L0.2,145.231L0.248,150.79L0.306,155.785L0.379,160.273L0.468,164.306L0.577,167.929L0.712,171.185L0.877,174.11L1.079,176.738L1.326,179.099L1.625,181.221L1.988,183.127L2.425,184.84L2.948,186.378L3.57,187.761L4.302,189.003L5.157,190.12L6.141,191.123L7.259,192.024L8.511,192.833L9.887,193.561L11.371,194.214L12.939,194.802L14.56,195.329L16.199,195.804L17.817,196.229L19.38,196.612L20.857,196.956L22.224,197.265L23.467,197.543L24.575,197.792L25.55,198.016L26.395,198.218L27.119,198.399L27.733,198.561L28.25,198.707L28.681,198.838L29.039,198.956L29.334,199.062L29.577,199.157L29.776,199.243L29.939,199.32L30.072,199.389L30.179,199.451L30.267,199.507L30.338,199.557L30.396,199.602L30.443,199.642L30.481,199.678L30.511,199.711L30.536,199.74L30.556,199.767L30.572,199.79L30.585,199.812L30.596,199.831L30.604,199.848L30.611,199.863L30.617,199.877L30.621,199.89L30.625,199.901L30.628,199.911L30.63,199.92L30.632,199.928L30.634,199.935L30.635,199.942L30.636,199.948L30.637,199.953L30.637,199.958L30.638,199.962L30.638,199.966L30.639,199.969L30.639,199.973L30.639,199.975L30.639,199.978L30.64,199.98L30.64,199.982L30.64,199.984L30.64,199.986L30.64,199.987L30.64,199.988L30.64,199.99L30.64,199.991L30.64,199.992L30.64,199.992L30.64,199.993L30.64,199.994L30.64,199.994L30.64,199.995L30.64,199.996" stroke="#1657a8" stroke-width="2"/></g></g><path class="foreground" aria-hidden="true" d="" display="none"/></g></g><g class="mark-symbol role-mark concat_0_layer_1_marks" role="graphics-object" aria-roledescription="symbol mark container"><path aria-label="P1: 14.8240689742; P2: 674.578620581" role="graphics-symbol" aria-roledescription="circle" transform="translate(0.6588475099637672,170.0187279741873)" d="M3.162,0A3.162,3.162,0,1,1,-3.162,0A3.162,3.162,0,1,1,3.162,0" fill="#6626bb" stroke="white" stroke-width="1" opacity="1"/><path aria-label="P1: 674.578620581; P2: 14.8240689742" role="graphics-symbol" aria-roledescription="circle" transform="translate(29.98127202581272,199.34115249003622)" d="M3.162,0A3.162,3.162,0,1,1,-3.162,0A3.162,3.162,0,1,1,3.162,0" fill="#6626bb" stroke="white" stroke-width="1" opacity="1"/></g><g class="mark-symbol role-mark concat_0_layer_2_marks" role="graphics-object" aria-roledescription="symbol mark container"><path aria-label="P1: 172.862708725; P2: 172.862708725" role="graphics-symbol" aria-roledescription="circle" transform="translate(7.682787054453293,192.31721294554671)" d="M3.162,0A3.162,3.162,0,1,1,-3.162,0A3.162,3.162,0,1,1,3.162,0" fill="#e03e0e" stroke="white" stroke-width="1" opacity="1"/></g><g class="mark-text role-mark concat_0_layer_3_marks" role="graphics-object" aria-roledescription="text mark container"><text aria-label="P1: 14.8240689742; P2: 674.578620581; text: (15,675)" role="graphics-symbol" aria-roledescription="text mark" text-anchor="start" transform="translate(4.658847509963767,164.0187279741873)" font-family="Arial" font-size="11px" fill="#6626bb">(15,675)</text><text aria-label="P1: 674.578620581; P2: 14.8240689742; text: (675,15)" role="graphics-symbol" aria-roledescription="text mark" text-anchor="start" transform="translate(33.98127202581272,193.34115249003622)" font-family="Arial" font-size="11px" fill="#6626bb">(675,15)</text></g><g class="mark-text role-mark concat_0_layer_4_marks" role="graphics-object" aria-roledescription="text mark container"><text aria-label="P1: 172.862708725; P2: 172.862708725; text: (173,173)" role="graphics-symbol" aria-roledescription="text mark" text-anchor="start" transform="translate(8.682787054453293,183.31721294554671)" font-family="Arial" font-size="11px" fill="#e03e0e">(173,173)</text></g><g class="mark-group role-title"><g transform="translate(100,-17)"><path class="background" aria-hidden="true" d="M0,0h0v0h0Z" pointer-events="none"/><g><g class="mark-text role-title-text" role="graphics-symbol" aria-roledescription="title" aria-label="Title text 'R = 1000'" pointer-events="none"><text text-anchor="middle" transform="translate(0,10)" font-family="Arial" font-size="13px" font-weight="bold" fill="#000" opacity="1">R = 1000</text></g></g><path class="foreground" aria-hidden="true" d="" pointer-events="none" display="none"/></g></g></g><path class="foreground" aria-hidden="true" d="" display="none"/></g></g><g class="mark-group role-scope concat_1_group" role="graphics-object" aria-roledescription="group mark container"><g transform="translate(270,0)"><path class="background" aria-hidden="true" d="M0.5,0.5h200v200h-200Z" stroke="#ddd"/><g><g class="mark-group role-axis" aria-hidden="true"><g transform="translate(0.5,200.5)"><path class="background" aria-hidden="true" d="M0,0h0v0h0Z" pointer-events="none"/><g><g class="mark-rule role-axis-grid" pointer-events="none"><line transform="translate(0,-200)" x2="0" y2="200" stroke="#ddd" stroke-width="1" opacity="1"/><line transform="translate(44,-200)" x2="0" y2="200" stroke="#ddd" stroke-width="1" opacity="1"/><line transform="translate(89,-200)" x2="0" y2="200" stroke="#ddd" stroke-width="1" opacity="1"/><line transform="translate(133,-200)" x2="0" y2="200" stroke="#ddd" stroke-width="1" opacity="1"/><line transform="translate(178,-200)" x2="0" y2="200" stroke="#ddd" stroke-width="1" opacity="1"/></g></g><path class="foreground" aria-hidden="true" d="" pointer-events="none" display="none"/></g></g><g class="mark-group role-axis" aria-hidden="true"><g transform="translate(0.5,0.5)"><path class="background" aria-hidden="true" d="M0,0h0v0h0Z" pointer-events="none"/><g><g class="mark-rule role-axis-grid" pointer-events="none"><line transform="translate(0,200)" x2="200" y2="0" stroke="#ddd" stroke-width="1" opacity="1"/><line transform="translate(0,156)" x2="200" y2="0" stroke="#ddd" stroke-width="1" opacity="1"/><line transform="translate(0,111)" x2="200" y2="0" stroke="#ddd" stroke-width="1" opacity="1"/><line transform="translate(0,67)" x2="200" y2="0" stroke="#ddd" stroke-width="1" opacity="1"/><line transform="translate(0,22)" x2="200" y2="0" stroke="#ddd" stroke-width="1" opacity="1"/></g></g><path class="foreground" aria-hidden="true" d="" pointer-events="none" display="none"/></g></g><g class="mark-group role-axis" role="graphics-symbol" aria-roledescription="axis" aria-label="X-axis titled 'P1' for a linear scale with values from 0 to 4,500"><g transform="translate(0.5,200.5)"><path class="background" aria-hidden="true" d="M0,0h0v0h0Z" pointer-events="none"/><g><g class="mark-rule role-axis-tick" pointer-events="none"><line transform="translate(0,0)" x2="0" y2="5" stroke="#888" stroke-width="1" opacity="1"/><line transform="translate(44,0)" x2="0" y2="5" stroke="#888" stroke-width="1" opacity="1"/><line transform="translate(89,0)" x2="0" y2="5" stroke="#888" stroke-width="1" opacity="1"/><line transform="translate(133,0)" x2="0" y2="5" stroke="#888" stroke-width="1" opacity="1"/><line transform="translate(178,0)" x2="0" y2="5" stroke="#888" stroke-width="1" opacity="1"/></g><g class="mark-text role-axis-label" pointer-events="none"><text text-anchor="start" transform="translate(0,15)" font-family="Arial" font-size="10px" fill="#000" opacity="1">0</text><text text-anchor="middle" transform="translate(44.44444444444444,15)" font-family="Arial" font-size="10px" fill="#000" opacity="1">1,000</text><text text-anchor="middle" transform="translate(88.88888888888889,15)" font-family="Arial" font-size="10px" fill="#000" opacity="1">2,000</text><text text-anchor="middle" transform="translate(133.33333333333331,15)" font-family="Arial" font-size="10px" fill="#000" opacity="1">3,000</text><text text-anchor="middle" transform="translate(177.77777777777777,15)" font-family="Arial" font-size="10px" fill="#000" opacity="1">4,000</text></g><g class="mark-rule role-axis-domain" pointer-events="none"><line transform="translate(0,0)" x2="200" y2="0" stroke="#888" stroke-width="1" opacity="1"/></g><g class="mark-text role-axis-title" pointer-events="none"><text text-anchor="middle" transform="translate(100,30)" font-family="Arial" font-size="11px" font-weight="bold" fill="#000" opacity="1">P1</text></g></g><path class="foreground" aria-hidden="true" d="" pointer-events="none" display="none"/></g></g><g class="mark-group role-axis" role="graphics-symbol" aria-roledescription="axis" aria-label="Y-axis titled 'P2' for a linear scale with values from 0 to 4,500"><g transform="translate(0.5,0.5)"><path class="background" aria-hidden="true" d="M0,0h0v0h0Z" pointer-events="none"/><g><g class="mark-rule role-axis-tick" pointer-events="none"><line transform="translate(0,200)" x2="-5" y2="0" stroke="#888" stroke-width="1" opacity="1"/><line transform="translate(0,156)" x2="-5" y2="0" stroke="#888" stroke-width="1" opacity="1"/><line transform="translate(0,111)" x2="-5" y2="0" stroke="#888" stroke-width="1" opacity="1"/><line transform="translate(0,67)" x2="-5" y2="0" stroke="#888" stroke-width="1" opacity="1"/><line transform="translate(0,22)" x2="-5" y2="0" stroke="#888" stroke-width="1" opacity="1"/></g><g class="mark-text role-axis-label" pointer-events="none"><text text-anchor="end" transform="translate(-7,203)" font-family="Arial" font-size="10px" fill="#000" opacity="1">0</text><text text-anchor="end" transform="translate(-7,158.55555555555557)" font-family="Arial" font-size="10px" fill="#000" opacity="1">1,000</text><text text-anchor="end" transform="translate(-7,114.11111111111111)" font-family="Arial" font-size="10px" fill="#000" opacity="1">2,000</text><text text-anchor="end" transform="translate(-7,69.66666666666667)" font-family="Arial" font-size="10px" fill="#000" opacity="1">3,000</text><text text-anchor="end" transform="translate(-7,25.222222222222232)" font-family="Arial" font-size="10px" fill="#000" opacity="1">4,000</text></g><g class="mark-rule role-axis-domain" pointer-events="none"><line transform="translate(0,200)" x2="0" y2="-200" stroke="#888" stroke-width="1" opacity="1"/></g><g class="mark-text role-axis-title" pointer-events="none"><text text-anchor="middle" transform="translate(-36.0244140625,100) rotate(-90) translate(0,-2)" font-family="Arial" font-size="11px" font-weight="bold" fill="#000" opacity="1">P2</text></g></g><path class="foreground" aria-hidden="true" d="" pointer-events="none" display="none"/></g></g><g class="mark-group role-scope concat_1_layer_0_pathgroup" role="graphics-object" aria-roledescription="group mark container"><g transform="translate(0,0)"><path class="background" aria-hidden="true" d="M0,0h200v200h-200Z"/><g><g class="mark-line role-mark concat_1_layer_0_marks" role="graphics-object" aria-roledescription="line mark container"><path aria-label="P1: 0.1; P2: 1378.80400031; nullcline: P2" role="graphics-symbol" aria-roledescription="line mark" d="M0.004,138.72L0.005,138.72L0.006,138.72L0.006,138.72L0.007,138.72L0.008,138.72L0.008,138.72L0.009,138.72L0.01,138.72L0.012,138.72L0.013,138.72L0.014,138.72L0.016,138.721L0.018,138.721L0.02,138.721L0.022,138.721L0.025,138.722L0.027,138.722L0.031,138.723L0.034,138.723L0.038,138.724L0.042,138.725L0.047,138.727L0.052,138.728L0.058,138.73L0.065,138.733L0.072,138.736L0.08,138.74L0.089,138.744L0.099,138.75L0.11,138.757L0.123,138.766L0.137,138.778L0.152,138.791L0.169,138.808L0.188,138.83L0.21,138.856L0.233,138.888L0.26,138.928L0.289,138.978L0.322,139.039L0.358,139.115L0.398,139.208L0.443,139.323L0.493,139.466L0.549,139.641L0.611,139.857L0.68,140.122L0.757,140.448L0.843,140.846L0.938,141.332L1.044,141.923L1.162,142.638L1.293,143.501L1.439,144.534L1.601,145.762L1.782,147.21L1.984,148.9L2.208,150.849L2.457,153.067L2.735,155.551L3.044,158.286L3.388,161.24L3.771,164.366L4.196,167.603L4.671,170.879L5.198,174.121L5.786,177.258L6.439,180.226L7.167,182.978L7.976,185.481L8.877,187.719L9.88,189.687L10.997,191.395L12.239,192.86L13.622,194.104L15.16,195.15L16.873,196.024L18.779,196.75L20.901,197.349L23.262,197.842L25.89,198.246L28.815,198.576L32.071,198.845L35.694,199.064L39.727,199.242L44.215,199.387L49.21,199.504L54.769,199.599L60.957,199.676L67.844,199.738L75.508,199.788L84.039,199.829L93.533,199.862L104.1,199.889L115.861,199.91L128.95,199.927L143.518,199.941L159.732,199.953L177.778,199.962" stroke="#048059" stroke-width="2"/></g></g><path class="foreground" aria-hidden="true" d="" display="none"/></g><g transform="translate(0,0)"><path class="background" aria-hidden="true" d="M0,0h200v200h-200Z"/><g><g class="mark-line role-mark concat_1_layer_0_marks" role="graphics-object" aria-roledescription="line mark container"><path aria-label="P1: 0.861215102505; P2: 4000; nullcline: P1" role="graphics-symbol" aria-roledescription="line mark" d="M0.038,22.222L0.047,40.268L0.059,56.482L0.073,71.05L0.09,84.139L0.111,95.9L0.138,106.467L0.171,115.961L0.212,124.492L0.262,132.156L0.324,139.043L0.401,145.231L0.496,150.79L0.613,155.785L0.758,160.273L0.936,164.306L1.155,167.929L1.424,171.185L1.754,174.11L2.158,176.738L2.651,179.099L3.25,181.221L3.976,183.127L4.85,184.84L5.896,186.378L7.14,187.761L8.605,189.003L10.313,190.12L12.281,191.123L14.519,192.024L17.022,192.833L19.774,193.561L22.742,194.214L25.879,194.802L29.121,195.329L32.397,195.804L35.634,196.229L38.76,196.612L41.714,196.956L44.449,197.265L46.933,197.543L49.151,197.792L51.1,198.016L52.79,198.218L54.238,198.399L55.466,198.561L56.499,198.707L57.362,198.838L58.077,198.956L58.668,199.062L59.154,199.157L59.552,199.243L59.878,199.32L60.143,199.389L60.359,199.451L60.534,199.507L60.677,199.557L60.792,199.602L60.885,199.642L60.961,199.678L61.022,199.711L61.072,199.74L61.112,199.767L61.144,199.79L61.17,199.812L61.192,199.831L61.209,199.848L61.222,199.863L61.234,199.877L61.243,199.89L61.25,199.901L61.256,199.911L61.26,199.92L61.264,199.928L61.267,199.935L61.27,199.942L61.272,199.948L61.273,199.953L61.275,199.958L61.276,199.962L61.277,199.966L61.277,199.969L61.278,199.973L61.278,199.975L61.279,199.978L61.279,199.98L61.279,199.982L61.279,199.984L61.28,199.986L61.28,199.987L61.28,199.988L61.28,199.99L61.28,199.991L61.28,199.992L61.28,199.992L61.28,199.993L61.28,199.994L61.28,199.994L61.28,199.995L61.28,199.996" stroke="#1657a8" stroke-width="2"/></g></g><path class="foreground" aria-hidden="true" d="" display="none"/></g></g><g class="mark-symbol role-mark concat_1_layer_1_marks" role="graphics-object" aria-roledescription="symbol mark container"><path aria-label="P1: 7.29121159435; P2: 1371.51416752" role="graphics-symbol" aria-roledescription="circle" transform="translate(0.32405384863761455,139.04381477708466)" d="M3.162,0A3.162,3.162,0,1,1,-3.162,0A3.162,3.162,0,1,1,3.162,0" fill="#6626bb" stroke="white" stroke-width="1" opacity="1"/><path aria-label="P1: 1371.51416752; P2: 7.29121159435" role="graphics-symbol" aria-roledescription="circle" transform="translate(60.95618522291534,199.67594615136238)" d="M3.162,0A3.162,3.162,0,1,1,-3.162,0A3.162,3.162,0,1,1,3.162,0" fill="#6626bb" stroke="white" stroke-width="1" opacity="1"/></g><g class="mark-symbol role-mark concat_1_layer_2_marks" role="graphics-object" aria-roledescription="symbol mark container"><path aria-label="P1: 225.907319627; P2: 225.907319627" role="graphics-symbol" aria-roledescription="circle" transform="translate(10.040325316765312,189.95967468323468)" d="M3.162,0A3.162,3.162,0,1,1,-3.162,0A3.162,3.162,0,1,1,3.162,0" fill="#e03e0e" stroke="white" stroke-width="1" opacity="1"/></g><g class="mark-text role-mark concat_1_layer_3_marks" role="graphics-object" aria-roledescription="text mark container"><text aria-label="P1: 7.29121159435; P2: 1371.51416752; text: (7,1372)" role="graphics-symbol" aria-roledescription="text mark" text-anchor="start" transform="translate(4.3240538486376145,133.04381477708466)" font-family="Arial" font-size="11px" fill="#6626bb">(7,1372)</text><text aria-label="P1: 1371.51416752; P2: 7.29121159435; text: (1372,7)" role="graphics-symbol" aria-roledescription="text mark" text-anchor="start" transform="translate(64.95618522291534,193.67594615136238)" font-family="Arial" font-size="11px" fill="#6626bb">(1372,7)</text></g><g class="mark-text role-mark concat_1_layer_4_marks" role="graphics-object" aria-roledescription="text mark container"><text aria-label="P1: 225.907319627; P2: 225.907319627; text: (226,226)" role="graphics-symbol" aria-roledescription="text mark" text-anchor="start" transform="translate(11.040325316765312,180.95967468323468)" font-family="Arial" font-size="11px" fill="#e03e0e">(226,226)</text></g><g class="mark-group role-title"><g transform="translate(100,-17)"><path class="background" aria-hidden="true" d="M0,0h0v0h0Z" pointer-events="none"/><g><g class="mark-text role-title-text" role="graphics-symbol" aria-roledescription="title" aria-label="Title text 'R = 2000'" pointer-events="none"><text text-anchor="middle" transform="translate(0,10)" font-family="Arial" font-size="13px" font-weight="bold" fill="#000" opacity="1">R = 2000</text></g></g><path class="foreground" aria-hidden="true" d="" pointer-events="none" display="none"/></g></g></g><path class="foreground" aria-hidden="true" d="" display="none"/></g></g><g class="mark-group role-scope concat_2_group" role="graphics-object" aria-roledescription="group mark container"><g transform="translate(540,0)"><path class="background" aria-hidden="true" d="M0.5,0.5h200v200h-200Z" stroke="#ddd"/><g><g class="mark-group role-axis" aria-hidden="true"><g transform="translate(0.5,200.5)"><path class="background" aria-hidden="true" d="M0,0h0v0h0Z" pointer-events="none"/><g><g class="mark-rule role-axis-grid" pointer-events="none"><line transform="translate(0,-200)" x2="0" y2="200" stroke="#ddd" stroke-width="1" opacity="1"/><line transform="translate(44,-200)" x2="0" y2="200" stroke="#ddd" stroke-width="1" opacity="1"/><line transform="translate(89,-200)" x2="0" y2="200" stroke="#ddd" stroke-width="1" opacity="1"/><line transform="translate(133,-200)" x2="0" y2="200" stroke="#ddd" stroke-width="1" opacity="1"/><line transform="translate(178,-200)" x2="0" y2="200" stroke="#ddd" stroke-width="1" opacity="1"/></g></g><path class="foreground" aria-hidden="true" d="" pointer-events="none" display="none"/></g></g><g class="mark-group role-axis" aria-hidden="true"><g transform="translate(0.5,0.5)"><path class="background" aria-hidden="true" d="M0,0h0v0h0Z" pointer-events="none"/><g><g class="mark-rule role-axis-grid" pointer-events="none"><line transform="translate(0,200)" x2="200" y2="0" stroke="#ddd" stroke-width="1" opacity="1"/><line transform="translate(0,156)" x2="200" y2="0" stroke="#ddd" stroke-width="1" opacity="1"/><line transform="translate(0,111)" x2="200" y2="0" stroke="#ddd" stroke-width="1" opacity="1"/><line transform="translate(0,67)" x2="200" y2="0" stroke="#ddd" stroke-width="1" opacity="1"/><line transform="translate(0,22)" x2="200" y2="0" stroke="#ddd" stroke-width="1" opacity="1"/></g></g><path class="foreground" aria-hidden="true" d="" pointer-events="none" display="none"/></g></g><g class="mark-group role-axis" role="graphics-symbol" aria-roledescription="axis" aria-label="X-axis titled 'P1' for a linear scale with values from 0 to 4,500"><g transform="translate(0.5,200.5)"><path class="background" aria-hidden="true" d="M0,0h0v0h0Z" pointer-events="none"/><g><g class="mark-rule role-axis-tick" pointer-events="none"><line transform="translate(0,0)" x2="0" y2="5" stroke="#888" stroke-width="1" opacity="1"/><line transform="translate(44,0)" x2="0" y2="5" stroke="#888" stroke-width="1" opacity="1"/><line transform="translate(89,0)" x2="0" y2="5" stroke="#888" stroke-width="1" opacity="1"/><line transform="translate(133,0)" x2="0" y2="5" stroke="#888" stroke-width="1" opacity="1"/><line transform="translate(178,0)" x2="0" y2="5" stroke="#888" stroke-width="1" opacity="1"/></g><g class="mark-text role-axis-label" pointer-events="none"><text text-anchor="start" transform="translate(0,15)" font-family="Arial" font-size="10px" fill="#000" opacity="1">0</text><text text-anchor="middle" transform="translate(44.44444444444444,15)" font-family="Arial" font-size="10px" fill="#000" opacity="1">1,000</text><text text-anchor="middle" transform="translate(88.88888888888889,15)" font-family="Arial" font-size="10px" fill="#000" opacity="1">2,000</text><text text-anchor="middle" transform="translate(133.33333333333331,15)" font-family="Arial" font-size="10px" fill="#000" opacity="1">3,000</text><text text-anchor="middle" transform="translate(177.77777777777777,15)" font-family="Arial" font-size="10px" fill="#000" opacity="1">4,000</text></g><g class="mark-rule role-axis-domain" pointer-events="none"><line transform="translate(0,0)" x2="200" y2="0" stroke="#888" stroke-width="1" opacity="1"/></g><g class="mark-text role-axis-title" pointer-events="none"><text text-anchor="middle" transform="translate(100,30)" font-family="Arial" font-size="11px" font-weight="bold" fill="#000" opacity="1">P1</text></g></g><path class="foreground" aria-hidden="true" d="" pointer-events="none" display="none"/></g></g><g class="mark-group role-axis" role="graphics-symbol" aria-roledescription="axis" aria-label="Y-axis titled 'P2' for a linear scale with values from 0 to 4,500"><g transform="translate(0.5,0.5)"><path class="background" aria-hidden="true" d="M0,0h0v0h0Z" pointer-events="none"/><g><g class="mark-rule role-axis-tick" pointer-events="none"><line transform="translate(0,200)" x2="-5" y2="0" stroke="#888" stroke-width="1" opacity="1"/><line transform="translate(0,156)" x2="-5" y2="0" stroke="#888" stroke-width="1" opacity="1"/><line transform="translate(0,111)" x2="-5" y2="0" stroke="#888" stroke-width="1" opacity="1"/><line transform="translate(0,67)" x2="-5" y2="0" stroke="#888" stroke-width="1" opacity="1"/><line transform="translate(0,22)" x2="-5" y2="0" stroke="#888" stroke-width="1" opacity="1"/></g><g class="mark-text role-axis-label" pointer-events="none"><text text-anchor="end" transform="translate(-7,203)" font-family="Arial" font-size="10px" fill="#000" opacity="1">0</text><text text-anchor="end" transform="translate(-7,158.55555555555557)" font-family="Arial" font-size="10px" fill="#000" opacity="1">1,000</text><text text-anchor="end" transform="translate(-7,114.11111111111111)" font-family="Arial" font-size="10px" fill="#000" opacity="1">2,000</text><text text-anchor="end" transform="translate(-7,69.66666666666667)" font-family="Arial" font-size="10px" fill="#000" opacity="1">3,000</text><text text-anchor="end" transform="translate(-7,25.222222222222232)" font-family="Arial" font-size="10px" fill="#000" opacity="1">4,000</text></g><g class="mark-rule role-axis-domain" pointer-events="none"><line transform="translate(0,200)" x2="0" y2="-200" stroke="#888" stroke-width="1" opacity="1"/></g><g class="mark-text role-axis-title" pointer-events="none"><text text-anchor="middle" transform="translate(-36.0244140625,100) rotate(-90) translate(0,-2)" font-family="Arial" font-size="11px" font-weight="bold" fill="#000" opacity="1">P2</text></g></g><path class="foreground" aria-hidden="true" d="" pointer-events="none" display="none"/></g></g><g class="mark-group role-scope concat_2_layer_0_pathgroup" role="graphics-object" aria-roledescription="group mark container"><g transform="translate(0,0)"><path class="background" aria-hidden="true" d="M0,0h200v200h-200Z"/><g><g class="mark-line role-mark concat_2_layer_0_marks" role="graphics-object" aria-roledescription="line mark container"><path aria-label="P1: 0.1; P2: 3447.01000076; nullcline: P2" role="graphics-symbol" aria-roledescription="line mark" d="M0.004,46.8L0.005,46.8L0.006,46.8L0.006,46.8L0.007,46.8L0.008,46.8L0.008,46.8L0.009,46.8L0.01,46.8L0.012,46.8L0.013,46.801L0.014,46.801L0.016,46.801L0.018,46.802L0.02,46.802L0.022,46.803L0.025,46.804L0.027,46.805L0.031,46.807L0.034,46.808L0.038,46.81L0.042,46.813L0.047,46.816L0.052,46.82L0.058,46.825L0.065,46.832L0.072,46.839L0.08,46.849L0.089,46.861L0.099,46.875L0.11,46.894L0.123,46.916L0.137,46.944L0.152,46.978L0.169,47.021L0.188,47.074L0.21,47.139L0.233,47.22L0.26,47.32L0.289,47.444L0.322,47.597L0.358,47.786L0.398,48.02L0.443,48.308L0.493,48.664L0.549,49.103L0.611,49.642L0.68,50.306L0.757,51.119L0.843,52.114L0.938,53.329L1.044,54.806L1.162,56.595L1.293,58.751L1.439,61.334L1.601,64.405L1.782,68.025L1.984,72.25L2.208,77.123L2.457,82.667L2.735,88.878L3.044,95.715L3.388,103.101L3.771,110.916L4.196,119.007L4.671,127.198L5.198,135.303L5.786,143.144L6.439,150.565L7.167,157.446L7.976,163.703L8.877,169.296L9.88,174.217L10.997,178.488L12.239,182.151L13.622,185.26L15.16,187.875L16.873,190.06L18.779,191.874L20.901,193.372L23.262,194.605L25.89,195.615L28.815,196.44L32.071,197.113L35.694,197.661L39.727,198.106L44.215,198.468L49.21,198.76L54.769,198.998L60.957,199.19L67.844,199.345L75.508,199.471L84.039,199.573L93.533,199.655L104.1,199.721L115.861,199.775L128.95,199.818L143.518,199.853L159.732,199.881L177.778,199.904" stroke="#048059" stroke-width="2"/></g></g><path class="foreground" aria-hidden="true" d="" display="none"/></g><g transform="translate(0,0)"><path class="background" aria-hidden="true" d="M0,0h200v200h-200Z"/><g><g class="mark-line role-mark concat_2_layer_0_marks" role="graphics-object" aria-roledescription="line mark container"><path aria-label="P1: 2.15303775626; P2: 4000; nullcline: P1" role="graphics-symbol" aria-roledescription="line mark" d="M0.096,22.222L0.119,40.268L0.147,56.482L0.182,71.05L0.225,84.139L0.279,95.9L0.345,106.467L0.427,115.961L0.529,124.492L0.655,132.156L0.81,139.043L1.002,145.231L1.24,150.79L1.532,155.785L1.894,160.273L2.339,164.306L2.887,167.929L3.56,171.185L4.385,174.11L5.395,176.738L6.628,179.099L8.126,181.221L9.94,183.127L12.125,184.84L14.74,186.378L17.849,187.761L21.512,189.003L25.783,190.12L30.704,191.123L36.297,192.024L42.554,192.833L49.435,193.561L56.856,194.214L64.697,194.802L72.802,195.329L80.993,195.804L89.084,196.229L96.899,196.612L104.285,196.956L111.122,197.265L117.333,197.543L122.877,197.792L127.75,198.016L131.975,198.218L135.595,198.399L138.666,198.561L141.249,198.707L143.405,198.838L145.194,198.956L146.671,199.062L147.886,199.157L148.881,199.243L149.694,199.32L150.358,199.389L150.897,199.451L151.336,199.507L151.692,199.557L151.98,199.602L152.214,199.642L152.403,199.678L152.556,199.711L152.68,199.74L152.78,199.767L152.861,199.79L152.926,199.812L152.979,199.831L153.022,199.848L153.056,199.863L153.084,199.877L153.106,199.89L153.125,199.901L153.139,199.911L153.151,199.92L153.161,199.928L153.168,199.935L153.175,199.942L153.18,199.948L153.184,199.953L153.187,199.958L153.19,199.962L153.192,199.966L153.193,199.969L153.195,199.973L153.196,199.975L153.197,199.978L153.198,199.98L153.198,199.982L153.199,199.984L153.199,199.986L153.199,199.987L153.2,199.988L153.2,199.99L153.2,199.991L153.2,199.992L153.2,199.992L153.2,199.993L153.2,199.994L153.2,199.994L153.2,199.995L153.2,199.996" stroke="#1657a8" stroke-width="2"/></g></g><path class="foreground" aria-hidden="true" d="" display="none"/></g></g><g class="mark-symbol role-mark concat_2_layer_1_marks" role="graphics-object" aria-roledescription="symbol mark container"><path aria-label="P1: 2.90350777827; P2: 3444.10994" role="graphics-symbol" aria-roledescription="circle" transform="translate(0.1290447901453702,46.92844711126294)" d="M3.162,0A3.162,3.162,0,1,1,-3.162,0A3.162,3.162,0,1,1,3.162,0" fill="#6626bb" stroke="white" stroke-width="1" opacity="1"/><path aria-label="P1: 3444.10994; P2: 2.90350777827" role="graphics-symbol" aria-roledescription="circle" transform="translate(153.07155288873707,199.87095520985463)" d="M3.162,0A3.162,3.162,0,1,1,-3.162,0A3.162,3.162,0,1,1,3.162,0" fill="#6626bb" stroke="white" stroke-width="1" opacity="1"/></g><g class="mark-symbol role-mark concat_2_layer_2_marks" role="graphics-object" aria-roledescription="symbol mark container"><path aria-label="P1: 315.208721216; P2: 315.208721216" role="graphics-symbol" aria-roledescription="circle" transform="translate(14.009276498492776,185.99072350150723)" d="M3.162,0A3.162,3.162,0,1,1,-3.162,0A3.162,3.162,0,1,1,3.162,0" fill="#e03e0e" stroke="white" stroke-width="1" opacity="1"/></g><g class="mark-text role-mark concat_2_layer_3_marks" role="graphics-object" aria-roledescription="text mark container"><text aria-label="P1: 2.90350777827; P2: 3444.10994; text: (3,3444)" role="graphics-symbol" aria-roledescription="text mark" text-anchor="start" transform="translate(4.12904479014537,40.92844711126294)" font-family="Arial" font-size="11px" fill="#6626bb">(3,3444)</text><text aria-label="P1: 3444.10994; P2: 2.90350777827; text: (3444,3)" role="graphics-symbol" aria-roledescription="text mark" text-anchor="start" transform="translate(157.07155288873707,193.87095520985463)" font-family="Arial" font-size="11px" fill="#6626bb">(3444,3)</text></g><g class="mark-text role-mark concat_2_layer_4_marks" role="graphics-object" aria-roledescription="text mark container"><text aria-label="P1: 315.208721216; P2: 315.208721216; text: (315,315)" role="graphics-symbol" aria-roledescription="text mark" text-anchor="start" transform="translate(15.009276498492776,176.99072350150723)" font-family="Arial" font-size="11px" fill="#e03e0e">(315,315)</text></g><g class="mark-group role-title"><g transform="translate(100,-17)"><path class="background" aria-hidden="true" d="M0,0h0v0h0Z" pointer-events="none"/><g><g class="mark-text role-title-text" role="graphics-symbol" aria-roledescription="title" aria-label="Title text 'R = 5000'" pointer-events="none"><text text-anchor="middle" transform="translate(0,10)" font-family="Arial" font-size="13px" font-weight="bold" fill="#000" opacity="1">R = 5000</text></g></g><path class="foreground" aria-hidden="true" d="" pointer-events="none" display="none"/></g></g></g><path class="foreground" aria-hidden="true" d="" display="none"/></g></g><g class="mark-group role-legend" role="graphics-symbol" aria-roledescription="legend" aria-label="Symbol legend titled 'nullcline' for stroke color with 2 values: P1, P2"><g transform="translate(759,0)"><path class="background" aria-hidden="true" d="M0,0h45v40h-45Z" pointer-events="none"/><g><g class="mark-group role-legend-entry"><g transform="translate(0,16)"><path class="background" aria-hidden="true" d="M0,0h0v0h0Z" pointer-events="none"/><g><g class="mark-group role-scope" role="graphics-object" aria-roledescription="group mark container"><g transform="translate(0,0)"><path class="background" aria-hidden="true" d="M0,0h28.2314453125v11h-28.2314453125Z" pointer-events="none" opacity="1"/><g><g class="mark-symbol role-legend-symbol" pointer-events="none"><path transform="translate(6,6)" d="M-5,0L5,0" stroke="#1657a8" stroke-width="1.5" opacity="1"/></g><g class="mark-text role-legend-label" pointer-events="none"><text text-anchor="start" transform="translate(16,9)" font-family="Arial" font-size="10px" fill="#000" opacity="1">P1</text></g></g><path class="foreground" aria-hidden="true" d="" pointer-events="none" display="none"/></g><g transform="translate(0,13)"><path class="background" aria-hidden="true" d="M0,0h28.2314453125v11h-28.2314453125Z" pointer-events="none" opacity="1"/><g><g class="mark-symbol role-legend-symbol" pointer-events="none"><path transform="translate(6,6)" d="M-5,0L5,0" stroke="#048059" stroke-width="1.5" opacity="1"/></g><g class="mark-text role-legend-label" pointer-events="none"><text text-anchor="start" transform="translate(16,9)" font-family="Arial" font-size="10px" fill="#000" opacity="1">P2</text></g></g><path class="foreground" aria-hidden="true" d="" pointer-events="none" display="none"/></g></g></g><path class="foreground" aria-hidden="true" d="" pointer-events="none" display="none"/></g></g><g class="mark-text role-legend-title" pointer-events="none"><text text-anchor="start" transform="translate(0,9)" font-family="Arial" font-size="11px" font-weight="bold" fill="#000" opacity="1">nullcline</text></g></g><path class="foreground" aria-hidden="true" d="" pointer-events="none" display="none"/></g></g></g><path class="foreground" aria-hidden="true" d="" display="none"/></g></g></g></svg>