<svg xmlns="http://www.w3.org/2000/svg" xmlns:xlink="http://www.w3.org/1999/xlink" version="1.1" class="marks" width="220" height="261" viewBox="0 0 220 261"><rect width="220" height="261" fill="white"/><g fill="none" stroke-miterlimit="10" transform="translate(52,8)"><g class="mark-group role-frame root" role="graphics-object" aria-roledescription="group mark container"><g transform="translate(0,0)"><path class="background" aria-hidden="true" d="M0,0h120v0h-120Z"/><g><g class="mark-group role-scope concat_0_group" role="graphics-object" aria-roledescription="group mark container"><g transform="translate(0,0)"><path class="background" aria-hidden="true" d="M0.5,0.5h120v90h-120Z"/><g><g class="mark-group role-axis" role="graphics-symbol" aria-roledescription="axis" aria-label="X-axis for a linear scale with values from 0 to 200"><g transform="translate(0.5,90.5)"><path class="background" aria-hidden="true" d="M0,0h0v0h0Z" pointer-events="none"/><g><g class="mark-rule role-axis-tick" pointer-events="none"><line transform="translate(0,0)" x2="0" y2="3" stroke="black" stroke-width="1" opacity="1"/><line transform="translate(30,0)" x2="0" y2="3" stroke="black" stroke-width="1" opacity="1"/><line transform="translate(60,0)" x2="0" y2="3" stroke="black" stroke-width="1" opacity="1"/><line transform="translate(90,0)" x2="0" y2="3" stroke="black" stroke-width="1" opacity="1"/><line transform="translate(120,0)" x2="0" y2="3" stroke="black" stroke-width="1" opacity="1"/></g><g class="mark-text role-axis-label" pointer-events="none"><text text-anchor="start" transform="translate(0,13)" font-family="Arial" font-size="10px" fill="#000" opacity="1">0</text><text text-anchor="middle" transform="translate(30,13)" font-family="Arial" font-size="10px" fill="#000" opacity="1">50</text><text text-anchor="middle" transform="translate(60,13)" font-family="Arial" font-size="10px" fill="#000" opacity="1">100</text><text text-anchor="middle" transform="translate(90,13)" font-family="Arial" font-size="10px" fill="#000" opacity="1">150</text><text text-anchor="end" transform="translate(120,13)" font-family="Arial" font-size="10px" fill="#000" opacity="1">200</text></g><g class="mark-rule role-axis-domain" pointer-events="none"><line transform="translate(0,0)" x2="120" y2="0" stroke="black" stroke-width="1" opacity="1"/></g></g><path class="foreground" aria-hidden="true" d="" pointer-events="none" display="none"/></g></g><g class="mark-group role-axis" role="graphics-symbol" aria-roledescription="axis" aria-label="Y-axis titled 'mRNA' for a linear scale with values from 0 to 12"><g transform="translate(0.5,0.5)"><path class="background" aria-hidden="true" d="M0,0h0v0h0Z" pointer-events="none"/><g><g class="mark-rule role-axis-tick" pointer-events="none"><line transform="translate(0,90)" x2="-3" y2="0" stroke="black" stroke-width="1" opacity="1"/><line transform="translate(0,52)" x2="-3" y2="0" stroke="black" stroke-width="1" opacity="1"/><line transform="translate(0,15)" x2="-3" y2="0" stroke="black" stroke-width="1" opacity="1"/></g><g class="mark-text role-axis-label" pointer-events="none"><text text-anchor="end" transform="translate(-5,93)" font-family="Arial" font-size="10px" fill="#000" opacity="1">0</text><text text-anchor="end" transform="translate(-5,55.49999999999999)" font-family="Arial" font-size="10px" fill="#000" opacity="1">5</text><text text-anchor="end" transform="translate(-5,17.999999999999996)" font-family="Arial" font-size="10px" fill="#000" opacity="1">10</text></g><g class="mark-rule role-axis-domain" pointer-events="none"><line transform="translate(0,90)" x2="0" y2="-90" stroke="black" stroke-width="1" opacity="1"/></g><g class="mark-text role-axis-title" pointer-events="none"><text text-anchor="middle" transform="translate(-20.123046875,45) rotate(-90) translate(0,-2)" font-family="Arial" font-size="11px" font-weight="normal" fill="#000" opacity="1">mRNA</text></g></g><path class="foreground" aria-hidden="true" d="" pointer-events="none" display="none"/></g></g><g class="mark-group role-scope concat_0_layer_0_pathgroup" role="graphics-object" aria-roledescription="group mark container"><g transform="translate(0,0)"><path class="background" aria-hidden="true" d="M0,0h120v90h-120Z"/><g><g class="mark-line role-mark concat_0_layer_0_marks" role="graphics-object" aria-roledescription="line mark container"><path aria-label="t: 0; M: 0.000001; gene: 1; sim: 1" role="graphics-symbol" aria-roledescription="line mark" d="M0,90L0.6,77.683L1.2,75.084L1.8,76.87L2.4,79.243L3,81.317L3.6,82.946L4.2,84.164L4.8,85.043L5.4,85.657L6,86.071L6.6,86.344L7.2,86.526L7.8,86.656L8.4,86.767L9,86.882L9.6,87.015L10.2,87.169L10.8,87.343L11.4,87.533L12,87.732L12.6,87.933L13.2,88.131L13.8,88.322L14.4,88.503L15,88.671L15.6,88.826L16.2,88.967L16.8,89.093L17.4,89.207L18,89.307L18.6,89.395L19.2,89.472L19.8,89.539L20.4,89.596L21,89.645L21.6,89.687L22.2,89.723L22.8,89.754L23.4,89.779L24,89.801L24.6,89.819L25.2,89.835L25.8,89.848L26.4,89.859L27,89.868L27.6,89.876L28.2,89.883L28.8,89.888L29.4,89.893L30,89.897L30.6,89.901L31.2,89.903L31.8,89.906L32.4,89.908L33,89.91L33.6,89.911L34.2,89.913L34.8,89.914L35.4,89.915L36,89.915L36.6,89.916L37.2,89.917L37.8,89.917L38.4,89.918L39,89.918L39.6,89.918L40.2,89.919L40.8,89.919L41.4,89.919L42,89.919L42.6,89.919L43.2,89.919L43.8,89.92L44.4,89.92L45,89.92L45.6,89.92L46.2,89.92L46.8,89.92L47.4,89.92L48,89.92L48.6,89.92L49.2,89.92L49.8,89.92L50.4,89.92L51,89.92L51.6,89.92L52.2,89.92L52.8,89.92L53.4,89.92L54,89.92L54.6,89.92L55.2,89.92L55.8,89.92L56.4,89.92L57,89.92L57.6,89.92L58.2,89.92L58.8,89.92L59.4,89.92L60,89.92L60.6,89.92L61.2,89.92L61.8,89.92L62.4,89.92L63,89.92L63.6,89.92L64.2,89.92L64.8,89.92L65.4,89.92L66,89.92L66.6,89.92L67.2,89.92L67.8,89.92L68.4,89.92L69,89.92L69.6,89.92L70.2,89.92L70.8,89.92L71.4,89.92L72,89.92L72.6,89.92L73.2,89.92L73.8,89.92L74.4,89.92L75,89.92L75.6,89.92L76.2,89.92L76.8,89.92L77.4,89.92L78,89.92L78.6,89.92L79.2,89.92L79.8,89.92L80.4,89.92L81,89.92L81.6,89.92L82.2,89.92L82.8,89.92L83.4,89.92L84,89.92L84.6,89.92L85.2,89.92L85.8,89.92L86.4,89.92L87,89.92L87.6,89.92L88.2,89.92L88.8,89.92L89.4,89.92L90,89.92L90.6,89.92L91.2,89.92L91.8,89.92L92.4,89.92L93,89.92L93.6,89.92L94.2,89.92L94.8,89.92L95.4,89.92L96,89.92L96.6,89.92L97.2,89.92L97.8,89.92L98.4,89.92L99,89.92L99.6,89.92L100.2,89.92L100.8,89.92L101.4,89.92L102,89.92L102.6,89.92L103.2,89.92L103.8,89.92L104.4,89.92L105,89.92L105.6,89.92L106.2,89.92L106.8,89.92L107.4,89.92L108,89.92L108.6,89.92L109.2,89.92L109.8,89.92L110.4,89.92L111,89.92L111.6,89.92L112.2,89.92L112.8,89.92L113.4,89.92L114,89.92L114.6,89.92L115.2,89.92L115.8,89.92L116.4,89.92L117,89.92L117.6,89.92L118.2,89.92L118.8,89.92L119.4,89.92L120,89.92" stroke="#1657a8" stroke-width="2" stroke-dasharray="1,0"/></g></g><path class="foreground" aria-hidden="true" d="" display="none"/></g><g transform="translate(0,0)"><path class="background" aria-hidden="true" d="M0,0h120v90h-120Z"/><g><g class="mark-line role-mark concat_0_layer_0_marks" role="graphics-object" aria-roledescription="line mark container"><path aria-label="t: 0; M: 0.000001; gene: 2; sim: 1" role="graphics-symbol" aria-roledescription="line mark" d="M0,90L0.6,70.004L1.2,63.197L1.8,64.466L2.4,67.68L3,70.81L3.6,73.325L4.2,75.134L4.8,76.28L5.4,76.841L6,76.899L6.6,76.535L7.2,75.82L7.8,74.826L8.4,73.615L9,72.24L9.6,70.738L10.2,69.131L10.8,67.427L11.4,65.617L12,63.683L12.6,61.605L13.2,59.359L13.8,56.926L14.4,54.294L15,51.458L15.6,48.428L16.2,45.225L16.8,41.882L17.4,38.443L18,34.963L18.6,31.501L19.2,28.115L19.8,24.862L20.4,21.79L21,18.938L21.6,16.331L22.2,13.984L22.8,11.901L23.4,10.075L24,8.493L24.6,7.137L25.2,5.985L25.8,5.016L26.4,4.205L27,3.531L27.6,2.974L28.2,2.517L28.8,2.142L29.4,1.835L30,1.586L30.6,1.383L31.2,1.219L31.8,1.085L32.4,0.977L33,0.889L33.6,0.818L34.2,0.76L34.8,0.712L35.4,0.674L36,0.642L36.6,0.617L37.2,0.596L37.8,0.578L38.4,0.564L39,0.552L39.6,0.542L40.2,0.534L40.8,0.527L41.4,0.521L42,0.516L42.6,0.512L43.2,0.508L43.8,0.505L44.4,0.503L45,0.501L45.6,0.499L46.2,0.498L46.8,0.496L47.4,0.495L48,0.494L48.6,0.493L49.2,0.493L49.8,0.492L50.4,0.492L51,0.491L51.6,0.491L52.2,0.491L52.8,0.49L53.4,0.49L54,0.49L54.6,0.49L55.2,0.489L55.8,0.489L56.4,0.489L57,0.489L57.6,0.489L58.2,0.489L58.8,0.489L59.4,0.489L60,0.489L60.6,0.489L61.2,0.489L61.8,0.489L62.4,0.489L63,0.489L63.6,0.489L64.2,0.489L64.8,0.489L65.4,0.489L66,0.489L66.6,0.489L67.2,0.489L67.8,0.489L68.4,0.489L69,0.489L69.6,0.489L70.2,0.489L70.8,0.489L71.4,0.489L72,0.489L72.6,0.489L73.2,0.489L73.8,0.489L74.4,0.489L75,0.489L75.6,0.489L76.2,0.489L76.8,0.489L77.4,0.489L78,0.489L78.6,0.489L79.2,0.489L79.8,0.489L80.4,0.489L81,0.489L81.6,0.489L82.2,0.489L82.8,0.489L83.4,0.489L84,0.489L84.6,0.489L85.2,0.489L85.8,0.489L86.4,0.489L87,0.489L87.6,0.489L88.2,0.489L88.8,0.489L89.4,0.489L90,0.489L90.6,0.489L91.2,0.489L91.8,0.489L92.4,0.489L93,0.489L93.6,0.489L94.2,0.489L94.8,0.489L95.4,0.489L96,0.489L96.6,0.489L97.2,0.489L97.8,0.489L98.4,0.489L99,0.489L99.6,0.489L100.2,0.489L100.8,0.489L101.4,0.489L102,0.489L102.6,0.489L103.2,0.489L103.8,0.489L104.4,0.489L105,0.489L105.6,0.489L106.2,0.489L106.8,0.489L107.4,0.489L108,0.489L108.6,0.489L109.2,0.489L109.8,0.489L110.4,0.489L111,0.489L111.6,0.489L112.2,0.489L112.8,0.489L113.4,0.489L114,0.489L114.6,0.489L115.2,0.489L115.8,0.489L116.4,0.489L117,0.489L117.6,0.489L118.2,0.489L118.8,0.489L119.4,0.489L120,0.489" stroke="#048059" stroke-width="2" stroke-dasharray="1,0"/></g></g><path class="foreground" aria-hidden="true" d="" display="none"/></g><g transform="translate(0,0)"><path class="background" aria-hidden="true" d="M0,0h120v90h-120Z"/><g><g class="mark-line role-mark concat_0_layer_0_marks" role="graphics-object" aria-roledescription="line mark container"><path aria-label="t: 0; M: 0.000001; gene: 1; sim: 2" role="graphics-symbol" aria-roledescription="line mark" d="M0,90L0.6,76.345L1.2,68.141L1.8,65.323L2.4,65.433L3,66.609L3.6,67.917L4.2,68.943L4.8,69.52L5.4,69.598L6,69.18L6.6,68.291L7.2,66.971L7.8,65.263L8.4,63.211L9,60.858L9.6,58.24L10.2,55.39L10.8,52.34L11.4,49.118L12,45.757L12.6,42.291L13.2,38.763L13.8,35.222L14.4,31.718L15,28.306L15.6,25.036L16.2,21.951L16.8,19.088L17.4,16.47L18,14.113L18.6,12.018L19.2,10.18L19.8,8.586L20.4,7.218L21,6.056L21.6,5.076L22.2,4.255L22.8,3.574L23.4,3.01L24,2.546L24.6,2.166L25.2,1.856L25.8,1.603L26.4,1.397L27,1.23L27.6,1.094L28.2,0.984L28.8,0.895L29.4,0.823L30,0.764L30.6,0.716L31.2,0.677L31.8,0.645L32.4,0.618L33,0.597L33.6,0.579L34.2,0.565L34.8,0.553L35.4,0.542L36,0.534L36.6,0.527L37.2,0.521L37.8,0.516L38.4,0.512L39,0.509L39.6,0.506L40.2,0.503L40.8,0.501L41.4,0.499L42,0.498L42.6,0.496L43.2,0.495L43.8,0.494L44.4,0.493L45,0.493L45.6,0.492L46.2,0.492L46.8,0.491L47.4,0.491L48,0.491L48.6,0.49L49.2,0.49L49.8,0.49L50.4,0.49L51,0.489L51.6,0.489L52.2,0.489L52.8,0.489L53.4,0.489L54,0.489L54.6,0.489L55.2,0.489L55.8,0.489L56.4,0.489L57,0.489L57.6,0.489L58.2,0.489L58.8,0.489L59.4,0.489L60,0.489L60.6,0.489L61.2,0.489L61.8,0.489L62.4,0.489L63,0.489L63.6,0.489L64.2,0.489L64.8,0.489L65.4,0.489L66,0.489L66.6,0.489L67.2,0.489L67.8,0.489L68.4,0.489L69,0.489L69.6,0.489L70.2,0.489L70.8,0.489L71.4,0.489L72,0.489L72.6,0.489L73.2,0.489L73.8,0.489L74.4,0.489L75,0.489L75.6,0.489L76.2,0.489L76.8,0.489L77.4,0.489L78,0.489L78.6,0.489L79.2,0.489L79.8,0.489L80.4,0.489L81,0.489L81.6,0.489L82.2,0.489L82.8,0.489L83.4,0.489L84,0.489L84.6,0.489L85.2,0.489L85.8,0.489L86.4,0.489L87,0.489L87.6,0.489L88.2,0.489L88.8,0.489L89.4,0.489L90,0.489L90.6,0.489L91.2,0.489L91.8,0.489L92.4,0.489L93,0.489L93.6,0.489L94.2,0.489L94.8,0.489L95.4,0.489L96,0.489L96.6,0.489L97.2,0.489L97.8,0.489L98.4,0.489L99,0.489L99.6,0.489L100.2,0.489L100.8,0.489L101.4,0.489L102,0.489L102.6,0.489L103.2,0.489L103.8,0.489L104.4,0.489L105,0.489L105.6,0.489L106.2,0.489L106.8,0.489L107.4,0.489L108,0.489L108.6,0.489L109.2,0.489L109.8,0.489L110.4,0.489L111,0.489L111.6,0.489L112.2,0.489L112.8,0.489L113.4,0.489L114,0.489L114.6,0.489L115.2,0.489L115.8,0.489L116.4,0.489L117,0.489L117.6,0.489L118.2,0.489L118.8,0.489L119.4,0.489L120,0.489" stroke="#1657a8" stroke-width="2" stroke-dasharray="4,2"/></g></g><path class="foreground" aria-hidden="true" d="" display="none"/></g><g transform="translate(0,0)"><path class="background" aria-hidden="true" d="M0,0h120v90h-120Z"/><g><g class="mark-line role-mark concat_0_layer_0_marks" role="graphics-object" aria-roledescription="line mark container"><path aria-label="t: 0; M: 0.000001; gene: 2; sim: 2" role="graphics-symbol" aria-roledescription="line mark" d="M0,90L0.6,84.45L1.2,81.813L1.8,81.749L2.4,82.667L3,83.765L3.6,84.765L4.2,85.592L4.8,86.248L5.4,86.756L6,87.148L6.6,87.453L7.2,87.698L7.8,87.902L8.4,88.082L9,88.248L9.6,88.405L10.2,88.556L10.8,88.702L11.4,88.84L12,88.97L12.6,89.09L13.2,89.2L13.8,89.299L14.4,89.387L15,89.464L15.6,89.532L16.2,89.59L16.8,89.64L17.4,89.683L18,89.72L18.6,89.751L19.2,89.777L19.8,89.799L20.4,89.818L21,89.834L21.6,89.847L22.2,89.858L22.8,89.868L23.4,89.876L24,89.882L24.6,89.888L25.2,89.893L25.8,89.897L26.4,89.9L27,89.903L27.6,89.906L28.2,89.908L28.8,89.91L29.4,89.911L30,89.913L30.6,89.914L31.2,89.915L31.8,89.915L32.4,89.916L33,89.917L33.6,89.917L34.2,89.918L34.8,89.918L35.4,89.918L36,89.919L36.6,89.919L37.2,89.919L37.8,89.919L38.4,89.919L39,89.919L39.6,89.92L40.2,89.92L40.8,89.92L41.4,89.92L42,89.92L42.6,89.92L43.2,89.92L43.8,89.92L44.4,89.92L45,89.92L45.6,89.92L46.2,89.92L46.8,89.92L47.4,89.92L48,89.92L48.6,89.92L49.2,89.92L49.8,89.92L50.4,89.92L51,89.92L51.6,89.92L52.2,89.92L52.8,89.92L53.4,89.92L54,89.92L54.6,89.92L55.2,89.92L55.8,89.92L56.4,89.92L57,89.92L57.6,89.92L58.2,89.92L58.8,89.92L59.4,89.92L60,89.92L60.6,89.92L61.2,89.92L61.8,89.92L62.4,89.92L63,89.92L63.6,89.92L64.2,89.92L64.8,89.92L65.4,89.92L66,89.92L66.6,89.92L67.2,89.92L67.8,89.92L68.4,89.92L69,89.92L69.6,89.92L70.2,89.92L70.8,89.92L71.4,89.92L72,89.92L72.6,89.92L73.2,89.92L73.8,89.92L74.4,89.92L75,89.92L75.6,89.92L76.2,89.92L76.8,89.92L77.4,89.92L78,89.92L78.6,89.92L79.2,89.92L79.8,89.92L80.4,89.92L81,89.92L81.6,89.92L82.2,89.92L82.8,89.92L83.4,89.92L84,89.92L84.6,89.92L85.2,89.92L85.8,89.92L86.4,89.92L87,89.92L87.6,89.92L88.2,89.92L88.8,89.92L89.4,89.92L90,89.92L90.6,89.92L91.2,89.92L91.8,89.92L92.4,89.92L93,89.92L93.6,89.92L94.2,89.92L94.8,89.92L95.4,89.92L96,89.92L96.6,89.92L97.2,89.92L97.8,89.92L98.4,89.92L99,89.92L99.6,89.92L100.2,89.92L100.8,89.92L101.4,89.92L102,89.92L102.6,89.92L103.2,89.92L103.8,89.92L104.4,89.92L105,89.92L105.6,89.92L106.2,89.92L106.8,89.92L107.4,89.92L108,89.92L108.6,89.92L109.2,89.92L109.8,89.92L110.4,89.92L111,89.92L111.6,89.92L112.2,89.92L112.8,89.92L113.4,89.92L114,89.92L114.6,89.92L115.2,89.92L115.8,89.92L116.4,89.92L117,89.92L117.6,89.92L118.2,89.92L118.8,89.92L119.4,89.92L120,89.92" stroke="#048059" stroke-width="2" stroke-dasharray="4,2"/></g></g><path class="foreground" aria-hidden="true" d="" display="none"/></g></g></g><path class="foreground" aria-hidden="true" d="" display="none"/></g></g><g class="mark-group role-scope concat_1_group" role="graphics-object" aria-roledescription="group mark container"><g transform="translate(0,127)"><path class="background" aria-hidden="true" d="M0.5,0.5h120v90h-120Z"/><g><g class="mark-group role-axis" role="graphics-symbol" aria-roledescription="axis" aria-label="X-axis titled 'Time (min)' for a linear scale with values from 0 to 200"><g transform="translate(0.5,90.5)"><path class="background" aria-hidden="true" d="M0,0h0v0h0Z" pointer-events="none"/><g><g class="mark-rule role-axis-tick" pointer-events="none"><line transform="translate(0,0)" x2="0" y2="3" stroke="black" stroke-width="1" opacity="1"/><line transform="translate(30,0)" x2="0" y2="3" stroke="black" stroke-width="1" opacity="1"/><line transform="translate(60,0)" x2="0" y2="3" stroke="black" stroke-width="1" opacity="1"/><line transform="translate(90,0)" x2="0" y2="3" stroke="black" stroke-width="1" opacity="1"/><line transform="translate(120,0)" x2="0" y2="3" stroke="black" stroke-width="1" opacity="1"/></g><g class="mark-text role-axis-label" pointer-events="none"><text text-anchor="start" transform="translate(0,13)" font-family="Arial" font-size="10px" fill="#000" opacity="1">0</text><text text-anchor="middle" transform="translate(30,13)" font-family="Arial" font-size="10px" fill="#000" opacity="1">50</text><text text-anchor="middle" transform="translate(60,13)" font-family="Arial" font-size="10px" fill="#000" opacity="1">100</text><text text-anchor="middle" transform="translate(90,13)" font-family="Arial" font-size="10px" fill="#000" opacity="1">150</text><text text-anchor="end" transform="translate(120,13)" font-family="Arial" font-size="10px" fill="#000" opacity="1">200</text></g><g class="mark-rule role-axis-domain" pointer-events="none"><line transform="translate(0,0)" x2="120" y2="0" stroke="black" stroke-width="1" opacity="1"/></g><g class="mark-text role-axis-title" pointer-events="none"><text text-anchor="middle" transform="translate(60,28)" font-family="Arial" font-size="11px" font-weight="normal" fill="#000" opacity="1">Time (min)</text></g></g><path class="foreground" aria-hidden="true" d="" pointer-events="none" display="none"/></g></g><g class="mark-group role-axis" role="graphics-symbol" aria-roledescription="axis" aria-label="Y-axis titled 'Protein' for a linear scale with values from 0 to 3,500"><g transform="translate(0.5,0.5)"><path class="background" aria-hidden="true" d="M0,0h0v0h0Z" pointer-events="none"/><g><g class="mark-rule role-axis-tick" pointer-events="none"><line transform="translate(0,90)" x2="-3" y2="0" stroke="black" stroke-width="1" opacity="1"/><line transform="translate(0,64)" x2="-3" y2="0" stroke="black" stroke-width="1" opacity="1"/><line transform="translate(0,39)" x2="-3" y2="0" stroke="black" stroke-width="1" opacity="1"/><line transform="translate(0,13)" x2="-3" y2="0" stroke="black" stroke-width="1" opacity="1"/></g><g class="mark-text role-axis-label" pointer-events="none"><text text-anchor="end" transform="translate(-5,93)" font-family="Arial" font-size="10px" fill="#000" opacity="1">0</text><text text-anchor="end" transform="translate(-5,67.28571428571429)" font-family="Arial" font-size="10px" fill="#000" opacity="1">1,000</text><text text-anchor="end" transform="translate(-5,41.57142857142858)" font-family="Arial" font-size="10px" fill="#000" opacity="1">2,000</text><text text-anchor="end" transform="translate(-5,15.857142857142861)" font-family="Arial" font-size="10px" fill="#000" opacity="1">3,000</text></g><g class="mark-rule role-axis-domain" pointer-events="none"><line transform="translate(0,90)" x2="0" y2="-90" stroke="black" stroke-width="1" opacity="1"/></g><g class="mark-text role-axis-title" pointer-events="none"><text text-anchor="middle" transform="translate(-34.0244140625,45) rotate(-90) translate(0,-2)" font-family="Arial" font-size="11px" font-weight="normal" fill="#000" opacity="1">Protein</text></g></g><path class="foreground" aria-hidden="true" d="" pointer-events="none" display="none"/></g></g><g class="mark-group role-scope concat_1_layer_0_pathgroup" role="graphics-object" aria-roledescription="group mark container"><g transform="translate(0,0)"><path class="background" aria-hidden="true" d="M0,0h120v90h-120Z"/><g><g class="mark-line role-mark concat_1_layer_0_marks" role="graphics-object" aria-roledescription="line mark container"><path aria-label="t: 0; P: 50; gene: 1; sim: 1" role="graphics-symbol" aria-roledescription="line mark" d="M0,88.714L0.6,88.195L1.2,86.422L1.8,84.753L2.4,83.651L3,83.077L3.6,82.896L4.2,82.979L4.8,83.223L5.4,83.553L6,83.917L6.6,84.282L7.2,84.628L7.8,84.944L8.4,85.23L9,85.488L9.6,85.724L10.2,85.945L10.8,86.155L11.4,86.36L12,86.563L12.6,86.765L13.2,86.966L13.8,87.166L14.4,87.363L15,87.557L15.6,87.746L16.2,87.928L16.8,88.103L17.4,88.269L18,88.426L18.6,88.573L19.2,88.71L19.8,88.837L20.4,88.953L21,89.06L21.6,89.156L22.2,89.244L22.8,89.323L23.4,89.394L24,89.458L24.6,89.514L25.2,89.564L25.8,89.609L26.4,89.648L27,89.683L27.6,89.714L28.2,89.741L28.8,89.764L29.4,89.785L30,89.803L30.6,89.819L31.2,89.832L31.8,89.844L32.4,89.855L33,89.864L33.6,89.872L34.2,89.879L34.8,89.885L35.4,89.89L36,89.894L36.6,89.898L37.2,89.902L37.8,89.905L38.4,89.907L39,89.909L39.6,89.911L40.2,89.913L40.8,89.914L41.4,89.915L42,89.917L42.6,89.917L43.2,89.918L43.8,89.919L44.4,89.92L45,89.92L45.6,89.92L46.2,89.921L46.8,89.921L47.4,89.921L48,89.922L48.6,89.922L49.2,89.922L49.8,89.922L50.4,89.922L51,89.922L51.6,89.923L52.2,89.923L52.8,89.923L53.4,89.923L54,89.923L54.6,89.923L55.2,89.923L55.8,89.923L56.4,89.923L57,89.923L57.6,89.923L58.2,89.923L58.8,89.923L59.4,89.923L60,89.923L60.6,89.923L61.2,89.923L61.8,89.923L62.4,89.923L63,89.923L63.6,89.923L64.2,89.923L64.8,89.923L65.4,89.923L66,89.923L66.6,89.923L67.2,89.923L67.8,89.923L68.4,89.923L69,89.923L69.6,89.923L70.2,89.923L70.8,89.923L71.4,89.923L72,89.923L72.6,89.923L73.2,89.923L73.8,89.923L74.4,89.923L75,89.923L75.6,89.923L76.2,89.923L76.8,89.923L77.4,89.923L78,89.923L78.6,89.923L79.2,89.923L79.8,89.923L80.4,89.923L81,89.923L81.6,89.923L82.2,89.923L82.8,89.923L83.4,89.923L84,89.923L84.6,89.923L85.2,89.923L85.8,89.923L86.4,89.923L87,89.923L87.6,89.923L88.2,89.923L88.8,89.923L89.4,89.923L90,89.923L90.6,89.923L91.2,89.923L91.8,89.923L92.4,89.923L93,89.923L93.6,89.923L94.2,89.923L94.8,89.923L95.4,89.923L96,89.923L96.6,89.923L97.2,89.923L97.8,89.923L98.4,89.923L99,89.923L99.6,89.923L100.2,89.923L100.8,89.923L101.4,89.923L102,89.923L102.6,89.923L103.2,89.923L103.8,89.923L104.4,89.923L105,89.923L105.6,89.923L106.2,89.923L106.8,89.923L107.4,89.923L108,89.923L108.6,89.923L109.2,89.923L109.8,89.923L110.4,89.923L111,89.923L111.6,89.923L112.2,89.923L112.8,89.923L113.4,89.923L114,89.923L114.6,89.923L115.2,89.923L115.8,89.923L116.4,89.923L117,89.923L117.6,89.923L118.2,89.923L118.8,89.923L119.4,89.923L120,89.923" stroke="#1657a8" stroke-width="2" stroke-dasharray="1,0"/></g></g><path class="foreground" aria-hidden="true" d="" display="none"/></g><g transform="translate(0,0)"><path class="background" aria-hidden="true" d="M0,0h120v90h-120Z"/><g><g class="mark-line role-mark concat_1_layer_0_marks" role="graphics-object" aria-roledescription="line mark container"><path aria-label="t: 0; P: 100; gene: 2; sim: 1" role="graphics-symbol" aria-roledescription="line mark" d="M0,87.429L0.6,86.689L1.2,83.75L1.8,80.631L2.4,78.292L3,76.817L3.6,76.032L4.2,75.731L4.8,75.729L5.4,75.879L6,76.071L6.6,76.222L7.2,76.277L7.8,76.199L8.4,75.969L9,75.579L9.6,75.032L10.2,74.334L10.8,73.494L11.4,72.518L12,71.411L12.6,70.175L13.2,68.807L13.8,67.302L14.4,65.652L15,63.851L15.6,61.892L16.2,59.772L16.8,57.493L17.4,55.06L18,52.489L18.6,49.797L19.2,47.011L19.8,44.16L20.4,41.279L21,38.401L21.6,35.562L22.2,32.794L22.8,30.124L23.4,27.578L24,25.174L24.6,22.925L25.2,20.84L25.8,18.923L26.4,17.172L27,15.585L27.6,14.155L28.2,12.874L28.8,11.732L29.4,10.719L30,9.823L30.6,9.035L31.2,8.344L31.8,7.74L32.4,7.213L33,6.754L33.6,6.356L34.2,6.012L34.8,5.714L35.4,5.457L36,5.235L36.6,5.044L37.2,4.88L37.8,4.739L38.4,4.618L39,4.514L39.6,4.425L40.2,4.349L40.8,4.283L41.4,4.228L42,4.18L42.6,4.139L43.2,4.104L43.8,4.074L44.4,4.048L45,4.026L45.6,4.008L46.2,3.992L46.8,3.978L47.4,3.967L48,3.957L48.6,3.948L49.2,3.941L49.8,3.935L50.4,3.929L51,3.925L51.6,3.921L52.2,3.918L52.8,3.915L53.4,3.912L54,3.91L54.6,3.909L55.2,3.907L55.8,3.906L56.4,3.905L57,3.904L57.6,3.903L58.2,3.902L58.8,3.902L59.4,3.901L60,3.901L60.6,3.9L61.2,3.9L61.8,3.9L62.4,3.899L63,3.899L63.6,3.899L64.2,3.899L64.8,3.899L65.4,3.899L66,3.899L66.6,3.899L67.2,3.898L67.8,3.898L68.4,3.898L69,3.898L69.6,3.898L70.2,3.898L70.8,3.898L71.4,3.898L72,3.898L72.6,3.898L73.2,3.898L73.8,3.898L74.4,3.898L75,3.898L75.6,3.898L76.2,3.898L76.8,3.898L77.4,3.898L78,3.898L78.6,3.898L79.2,3.898L79.8,3.898L80.4,3.898L81,3.898L81.6,3.898L82.2,3.898L82.8,3.898L83.4,3.898L84,3.898L84.6,3.898L85.2,3.898L85.8,3.898L86.4,3.898L87,3.898L87.6,3.898L88.2,3.898L88.8,3.898L89.4,3.898L90,3.898L90.6,3.898L91.2,3.898L91.8,3.898L92.4,3.898L93,3.898L93.6,3.898L94.2,3.898L94.8,3.898L95.4,3.898L96,3.898L96.6,3.898L97.2,3.898L97.8,3.898L98.4,3.898L99,3.898L99.6,3.898L100.2,3.898L100.8,3.898L101.4,3.898L102,3.898L102.6,3.898L103.2,3.898L103.8,3.898L104.4,3.898L105,3.898L105.6,3.898L106.2,3.898L106.8,3.898L107.4,3.898L108,3.898L108.6,3.898L109.2,3.898L109.8,3.898L110.4,3.898L111,3.898L111.6,3.898L112.2,3.898L112.8,3.898L113.4,3.898L114,3.898L114.6,3.898L115.2,3.898L115.8,3.898L116.4,3.898L117,3.898L117.6,3.898L118.2,3.898L118.8,3.898L119.4,3.898L120,3.898" stroke="#048059" stroke-width="2" stroke-dasharray="1,0"/></g></g><path class="foreground" aria-hidden="true" d="" display="none"/></g><g transform="translate(0,0)"><path class="background" aria-hidden="true" d="M0,0h120v90h-120Z"/><g><g class="mark-line role-mark concat_1_layer_0_marks" role="graphics-object" aria-roledescription="line mark container"><path aria-label="t: 0; P: 200; gene: 1; sim: 2" role="graphics-symbol" aria-roledescription="line mark" d="M0,84.857L0.6,84.926L1.2,83.209L1.8,80.745L2.4,78.374L3,76.446L3.6,75.013L4.2,73.998L4.8,73.284L5.4,72.75L6,72.292L6.6,71.82L7.2,71.267L7.8,70.58L8.4,69.722L9,68.67L9.6,67.41L10.2,65.936L10.8,64.249L11.4,62.353L12,60.259L12.6,57.978L13.2,55.527L13.8,52.927L14.4,50.203L15,47.384L15.6,44.502L16.2,41.592L16.8,38.689L17.4,35.826L18,33.036L18.6,30.347L19.2,27.782L19.8,25.361L20.4,23.096L21,20.995L21.6,19.063L22.2,17.299L22.8,15.699L23.4,14.257L24,12.965L24.6,11.812L25.2,10.79L25.8,9.886L26.4,9.09L27,8.392L27.6,7.782L28.2,7.249L28.8,6.786L29.4,6.384L30,6.036L30.6,5.735L31.2,5.475L31.8,5.25L32.4,5.057L33,4.891L33.6,4.749L34.2,4.626L34.8,4.521L35.4,4.431L36,4.354L36.6,4.288L37.2,4.231L37.8,4.183L38.4,4.142L39,4.106L39.6,4.076L40.2,4.05L40.8,4.028L41.4,4.009L42,3.993L42.6,3.979L43.2,3.967L43.8,3.957L44.4,3.949L45,3.941L45.6,3.935L46.2,3.93L46.8,3.925L47.4,3.921L48,3.918L48.6,3.915L49.2,3.913L49.8,3.91L50.4,3.909L51,3.907L51.6,3.906L52.2,3.905L52.8,3.904L53.4,3.903L54,3.902L54.6,3.902L55.2,3.901L55.8,3.901L56.4,3.9L57,3.9L57.6,3.9L58.2,3.899L58.8,3.899L59.4,3.899L60,3.899L60.6,3.899L61.2,3.899L61.8,3.899L62.4,3.899L63,3.898L63.6,3.898L64.2,3.898L64.8,3.898L65.4,3.898L66,3.898L66.6,3.898L67.2,3.898L67.8,3.898L68.4,3.898L69,3.898L69.6,3.898L70.2,3.898L70.8,3.898L71.4,3.898L72,3.898L72.6,3.898L73.2,3.898L73.8,3.898L74.4,3.898L75,3.898L75.6,3.898L76.2,3.898L76.8,3.898L77.4,3.898L78,3.898L78.6,3.898L79.2,3.898L79.8,3.898L80.4,3.898L81,3.898L81.6,3.898L82.2,3.898L82.8,3.898L83.4,3.898L84,3.898L84.6,3.898L85.2,3.898L85.8,3.898L86.4,3.898L87,3.898L87.6,3.898L88.2,3.898L88.8,3.898L89.4,3.898L90,3.898L90.6,3.898L91.2,3.898L91.8,3.898L92.4,3.898L93,3.898L93.6,3.898L94.2,3.898L94.8,3.898L95.4,3.898L96,3.898L96.6,3.898L97.2,3.898L97.8,3.898L98.4,3.898L99,3.898L99.6,3.898L100.2,3.898L100.8,3.898L101.4,3.898L102,3.898L102.6,3.898L103.2,3.898L103.8,3.898L104.4,3.898L105,3.898L105.6,3.898L106.2,3.898L106.8,3.898L107.4,3.898L108,3.898L108.6,3.898L109.2,3.898L109.8,3.898L110.4,3.898L111,3.898L111.6,3.898L112.2,3.898L112.8,3.898L113.4,3.898L114,3.898L114.6,3.898L115.2,3.898L115.8,3.898L116.4,3.898L117,3.898L117.6,3.898L118.2,3.898L118.8,3.898L119.4,3.898L120,3.898" stroke="#1657a8" stroke-width="2" stroke-dasharray="4,2"/></g></g><path class="foreground" aria-hidden="true" d="" display="none"/></g><g transform="translate(0,0)"><path class="background" aria-hidden="true" d="M0,0h120v90h-120Z"/><g><g class="mark-line role-mark concat_1_layer_0_marks" role="graphics-object" aria-roledescription="line mark container"><path aria-label="t: 0; P: 100; gene: 2; sim: 2" role="graphics-symbol" aria-roledescription="line mark" d="M0,87.429L0.6,87.532L1.2,86.925L1.8,86.131L2.4,85.5L3,85.122L3.6,84.97L4.2,84.99L4.8,85.128L5.4,85.339L6,85.591L6.6,85.861L7.2,86.132L7.8,86.397L8.4,86.651L9,86.892L9.6,87.12L10.2,87.336L10.8,87.542L11.4,87.737L12,87.922L12.6,88.098L13.2,88.265L13.8,88.421L14.4,88.568L15,88.704L15.6,88.831L16.2,88.947L16.8,89.054L17.4,89.151L18,89.239L18.6,89.318L19.2,89.389L19.8,89.453L20.4,89.51L21,89.561L21.6,89.606L22.2,89.646L22.8,89.681L23.4,89.712L24,89.739L24.6,89.762L25.2,89.783L25.8,89.802L26.4,89.817L27,89.831L27.6,89.844L28.2,89.854L28.8,89.863L29.4,89.871L30,89.878L30.6,89.884L31.2,89.889L31.8,89.894L32.4,89.898L33,89.901L33.6,89.904L34.2,89.907L34.8,89.909L35.4,89.911L36,89.913L36.6,89.914L37.2,89.915L37.8,89.916L38.4,89.917L39,89.918L39.6,89.919L40.2,89.919L40.8,89.92L41.4,89.92L42,89.921L42.6,89.921L43.2,89.921L43.8,89.922L44.4,89.922L45,89.922L45.6,89.922L46.2,89.922L46.8,89.922L47.4,89.923L48,89.923L48.6,89.923L49.2,89.923L49.8,89.923L50.4,89.923L51,89.923L51.6,89.923L52.2,89.923L52.8,89.923L53.4,89.923L54,89.923L54.6,89.923L55.2,89.923L55.8,89.923L56.4,89.923L57,89.923L57.6,89.923L58.2,89.923L58.8,89.923L59.4,89.923L60,89.923L60.6,89.923L61.2,89.923L61.8,89.923L62.4,89.923L63,89.923L63.6,89.923L64.2,89.923L64.8,89.923L65.4,89.923L66,89.923L66.6,89.923L67.2,89.923L67.8,89.923L68.4,89.923L69,89.923L69.6,89.923L70.2,89.923L70.8,89.923L71.4,89.923L72,89.923L72.6,89.923L73.2,89.923L73.8,89.923L74.4,89.923L75,89.923L75.6,89.923L76.2,89.923L76.8,89.923L77.4,89.923L78,89.923L78.6,89.923L79.2,89.923L79.8,89.923L80.4,89.923L81,89.923L81.6,89.923L82.2,89.923L82.8,89.923L83.4,89.923L84,89.923L84.6,89.923L85.2,89.923L85.8,89.923L86.4,89.923L87,89.923L87.6,89.923L88.2,89.923L88.8,89.923L89.4,89.923L90,89.923L90.6,89.923L91.2,89.923L91.8,89.923L92.4,89.923L93,89.923L93.6,89.923L94.2,89.923L94.8,89.923L95.4,89.923L96,89.923L96.6,89.923L97.2,89.923L97.8,89.923L98.4,89.923L99,89.923L99.6,89.923L100.2,89.923L100.8,89.923L101.4,89.923L102,89.923L102.6,89.923L103.2,89.923L103.8,89.923L104.4,89.923L105,89.923L105.6,89.923L106.2,89.923L106.8,89.923L107.4,89.923L108,89.923L108.6,89.923L109.2,89.923L109.8,89.923L110.4,89.923L111,89.923L111.6,89.923L112.2,89.923L112.8,89.923L113.4,89.923L114,89.923L114.6,89.923L115.2,89.923L115.8,89.923L116.4,89.923L117,89.923L117.6,89.923L118.2,89.923L118.8,89.923L119.4,89.923L120,89.923" stroke="#048059" stroke-width="2" stroke-dasharray="4,2"/></g></g><path class="foreground" aria-hidden="true" d="" display="none"/></g></g></g><path class="foreground" aria-hidden="true" d="" display="none"/></g></g><g class="mark-group role-legend" role="graphics-symbol" aria-roledescription="legend" aria-label="Symbol legend for stroke color with 2 values: 1, 2"><g transform="translate(141,0)"><path class="background" aria-hidden="true" d="M0,0h22v24h-22Z" pointer-events="none"/><g><g class="mark-group role-legend-entry"><g transform="translate(0,0)"><path class="background" aria-hidden="true" d="M0,0h0v0h0Z" pointer-events="none"/><g><g class="mark-group role-scope" role="graphics-object" aria-roledescription="group mark container"><g transform="translate(0,0)"><path class="background" aria-hidden="true" d="M0,0h21.5615234375v11h-21.5615234375Z" pointer-events="none" opacity="1"/><g><g class="mark-symbol role-legend-symbol" pointer-events="none"><path transform="translate(6,6)" d="M-5,0L5,0" stroke="#1657a8" stroke-width="1.5" opacity="1"/></g><g class="mark-text role-legend-label" pointer-events="none"><text text-anchor="start" transform="translate(16,9)" font-family="Arial" font-size="10px" fill="#000" opacity="1">1</text></g></g><path class="foreground" aria-hidden="true" d="" pointer-events="none" display="none"/></g><g transform="translate(0,13)"><path class="background" aria-hidden="true" d="M0,0h21.5615234375v11h-21.5615234375Z" pointer-events="none" opacity="1"/><g><g class="mark-symbol role-legend-symbol" pointer-events="none"><path transform="translate(6,6)" d="M-5,0L5,0" stroke="#048059" stroke-width="1.5" opacity="1"/></g><g class="mark-text role-legend-label" pointer-events="none"><text text-anchor="start" transform="translate(16,9)" font-family="Arial" font-size="10px" fill="#000" opacity="1">2</text></g></g><path class="foreground" aria-hidden="true" d="" pointer-events="none" display="none"/></g></g></g><path class="foreground" aria-hidden="true" d="" pointer-events="none" display="none"/></g></g></g><path class="foreground" aria-hidden="true" d="" pointer-events="none" display="none"/></g></g><g class="mark-group role-legend" role="graphics-symbol" aria-roledescription="legend" aria-label="Symbol legend for strokeDash with 2 values: 1, 2"><g transform="translate(141,32)"><path class="background" aria-hidden="true" d="M0,0h22v24h-22Z" pointer-events="none"/><g><g class="mark-group role-legend-entry"><g transform="translate(0,0)"><path class="background" aria-hidden="true" d="M0,0h0v0h0Z" pointer-events="none"/><g><g class="mark-group role-scope" role="graphics-object" aria-roledescription="group mark container"><g transform="translate(0,0)"><path class="background" aria-hidden="true" d="M0,0h21.5615234375v11h-21.5615234375Z" pointer-events="none" opacity="1"/><g><g class="mark-symbol role-legend-symbol" pointer-events="none"><path transform="translate(6,6)" d="M-5,0L5,0" stroke="#888" stroke-width="1.5" stroke-dasharray="1,0" opacity="1"/></g><g class="mark-text role-legend-label" pointer-events="none"><text text-anchor="start" transform="translate(16,9)" font-family="Arial" font-size="10px" fill="#000" opacity="1">1</text></g></g><path class="foreground" aria-hidden="true" d="" pointer-events="none" display="none"/></g><g transform="translate(0,13)"><path class="background" aria-hidden="true" d="M0,0h21.5615234375v11h-21.5615234375Z" pointer-events="none" opacity="1"/><g><g class="mark-symbol role-legend-symbol" pointer-events="none"><path transform="translate(6,6)" d="M-5,0L5,0" stroke="#888" stroke-width="1.5" stroke-dasharray="4,2" opacity="1"/></g><g class="mark-text role-legend-label" pointer-events="none"><text text-anchor="start" transform="translate(16,9)" font-family="Arial" font-size="10px" fill="#000" opacity="1">2</text></g></g><path class="foreground" aria-hidden="true" d="" pointer-events="none" display="none"/></g></g></g><path class="foreground" aria-hidden="true" d="" pointer-events="none" display="none"/></g></g></g><path class="foreground" aria-hidden="true" d="" pointer-events="none" display="none"/></g></g></g><path class="foreground" aria-hidden="true" d="" display="none"/></g></g></g></svg>