<svg xmlns="http://www.w3.org/2000/svg" xmlns:xlink="http://www.w3.org/1999/xlink" version="1.1" class="marks" width="164" height="117" viewBox="0 0 164 117"><rect width="164" height="117" fill="white"/><g fill="none" stroke-miterlimit="10" transform="translate(37,7)"><g class="mark-group role-frame root" role="graphics-object" aria-roledescription="group mark container"><g transform="translate(0,0)"><path class="background" aria-hidden="true" d="M0.5,0.5h120v90h-120Z"/><g><g class="mark-group role-axis" role="graphics-symbol" aria-roledescription="axis" aria-label="X-axis for a linear scale with values from 0 to 200"><g transform="translate(0.5,90.5)"><path class="background" aria-hidden="true" d="M0,0h0v0h0Z" pointer-events="none"/><g><g class="mark-rule role-axis-tick" pointer-events="none"><line transform="translate(0,0)" x2="0" y2="3" stroke="black" stroke-width="1" opacity="1"/><line transform="translate(30,0)" x2="0" y2="3" stroke="black" stroke-width="1" opacity="1"/><line transform="translate(60,0)" x2="0" y2="3" stroke="black" stroke-width="1" opacity="1"/><line transform="translate(90,0)" x2="0" y2="3" stroke="black" stroke-width="1" opacity="1"/><line transform="translate(120,0)" x2="0" y2="3" stroke="black" stroke-width="1" opacity="1"/></g><g class="mark-text role-axis-label" pointer-events="none"><text text-anchor="start" transform="translate(0,13)" font-family="Arial" font-size="10px" fill="#000" opacity="1">0</text><text text-anchor="middle" transform="translate(30,13)" font-family="Arial" font-size="10px" fill="#000" opacity="1">50</text><text text-anchor="middle" transform="translate(60,13)" font-family="Arial" font-size="10px" fill="#000" opacity="1">100</text><text text-anchor="middle" transform="translate(90,13)" font-family="Arial" font-size="10px" fill="#000" opacity="1">150</text><text text-anchor="end" transform="translate(120,13)" font-family="Arial" font-size="10px" fill="#000" opacity="1">200</text></g><g class="mark-rule role-axis-domain" pointer-events="none"><line transform="translate(0,0)" x2="120" y2="0" stroke="black" stroke-width="1" opacity="1"/></g></g><path class="foreground" aria-hidden="true" d="" pointer-events="none" display="none"/></g></g><g class="mark-group role-axis" role="graphics-symbol" aria-roledescription="axis" aria-label="Y-axis titled 'mRNA' for a linear scale with values from 0 to 12"><g transform="translate(0.5,0.5)"><path class="background" aria-hidden="true" d="M0,0h0v0h0Z" pointer-events="none"/><g><g class="mark-rule role-axis-tick" pointer-events="none"><line transform="translate(0,90)" x2="-3" y2="0" stroke="black" stroke-width="1" opacity="1"/><line transform="translate(0,52)" x2="-3" y2="0" stroke="black" stroke-width="1" opacity="1"/><line transform="translate(0,15)" x2="-3" y2="0" stroke="black" stroke-width="1" opacity="1"/></g><g class="mark-text role-axis-label" pointer-events="none"><text text-anchor="end" transform="translate(-5,93)" font-family="Arial" font-size="10px" fill="#000" opacity="1">0</text><text text-anchor="end" transform="translate(-5,55.49999999999999)" font-family="Arial" font-size="10px" fill="#000" opacity="1">5</text><text text-anchor="end" transform="translate(-5,17.999999999999996)" font-family="Arial" font-size="10px" fill="#000" opacity="1">10</text></g><g class="mark-rule role-axis-domain" pointer-events="none"><line transform="translate(0,90)" x2="0" y2="-90" stroke="black" stroke-width="1" opacity="1"/></g><g class="mark-text role-axis-title" pointer-events="none"><text text-anchor="middle" transform="translate(-20.123046875,45) rotate(-90) translate(0,-2)" font-family="Arial" font-size="11px" font-weight="normal" fill="#000" opacity="1">mRNA</text></g></g><path class="foreground" aria-hidden="true" d="" pointer-events="none" display="none"/></g></g><g class="mark-group role-scope layer_0_pathgroup" role="graphics-object" aria-roledescription="group mark container"><g transform="translate(0,0)"><path class="background" aria-hidden="true" d="M0,0h120v90h-120Z"/><g><g class="mark-line role-mark layer_0_marks" role="graphics-object" aria-roledescription="line mark container"><path aria-label="t: 0; M: 0.000001; gene: 1" role="graphics-symbol" aria-roledescription="line mark" d="M0,90L0.6,78.202L1.2,79.6L1.8,82.419L2.4,84.557L3,86.1L3.6,87.202L4.2,87.984L4.8,88.538L5.4,88.929L6,89.207L6.6,89.409L7.2,89.56L7.8,89.675L8.4,89.763L9,89.828L9.6,89.877L10.2,89.912L10.8,89.937L11.4,89.955L12,89.968L12.6,89.977L13.2,89.984L13.8,89.988L14.4,89.992L15,89.994L15.6,89.996L16.2,89.997L16.8,89.998L17.4,89.998L18,89.999L18.6,89.999L19.2,89.999L19.8,90L20.4,90L21,90L21.6,90L22.2,90L22.8,90L23.4,90L24,90L24.6,90L25.2,90L25.8,90L26.4,90L27,90L27.6,90L28.2,90L28.8,90L29.4,90L30,90L30.6,90L31.2,90L31.8,90L32.4,90L33,90L33.6,90L34.2,90L34.8,90L35.4,90L36,90L36.6,90L37.2,90L37.8,90L38.4,90L39,90L39.6,90L40.2,90L40.8,90L41.4,90L42,90L42.6,90L43.2,90L43.8,90L44.4,90L45,90L45.6,90L46.2,90L46.8,90L47.4,90L48,90L48.6,90L49.2,90L49.8,90L50.4,90L51,90L51.6,90L52.2,90L52.8,90L53.4,90L54,90L54.6,90L55.2,90L55.8,90L56.4,90L57,90L57.6,90L58.2,90L58.8,90L59.4,90L60,90L60.6,90L61.2,90L61.8,90L62.4,90L63,90L63.6,90L64.2,90L64.8,90L65.4,90L66,90L66.6,90L67.2,90L67.8,90L68.4,90L69,90L69.6,90L70.2,90L70.8,90L71.4,90L72,90L72.6,90L73.2,90L73.8,90L74.4,90L75,90L75.6,90L76.2,90L76.8,90L77.4,90L78,90L78.6,90L79.2,90L79.8,90L80.4,90L81,90L81.6,90L82.2,90L82.8,90L83.4,90L84,90L84.6,90L85.2,90L85.8,90L86.4,90L87,90L87.6,90L88.2,90L88.8,90L89.4,90L90,90L90.6,90L91.2,90L91.8,90L92.4,90L93,90L93.6,90L94.2,90L94.8,90L95.4,90L96,90L96.6,90L97.2,90L97.8,90L98.4,90L99,90L99.6,90L100.2,90L100.8,90L101.4,90L102,90L102.6,90L103.2,90L103.8,90L104.4,90L105,90L105.6,90L106.2,90L106.8,90L107.4,90L108,90L108.6,90L109.2,90L109.8,90L110.4,90L111,90L111.6,90L112.2,90L112.8,90L113.4,90L114,90L114.6,90L115.2,90L115.8,90L116.4,90L117,90L117.6,90L118.2,90L118.8,90L119.4,90L120,90" stroke="#1657a8" stroke-width="2"/></g></g><path class="foreground" aria-hidden="true" d="" display="none"/></g><g transform="translate(0,0)"><path class="background" aria-hidden="true" d="M0,0h120v90h-120Z"/><g><g class="mark-line role-mark layer_0_marks" role="graphics-object" aria-roledescription="line mark container"><path aria-label="t: 0; M: 0.000001; gene: 2" role="graphics-symbol" aria-roledescription="line mark" d="M0,90L0.6,66.084L1.2,60.083L1.8,64.423L2.4,69.389L3,73.272L3.6,75.862L4.2,77.156L4.8,77.098L5.4,75.518L6,72.17L6.6,66.864L7.2,59.693L7.8,51.179L8.4,42.179L9,33.574L9.6,25.988L10.2,19.697L10.8,14.711L11.4,10.884L12,8.012L12.6,5.892L13.2,4.345L13.8,3.225L14.4,2.418L15,1.841L15.6,1.428L16.2,1.133L16.8,0.923L17.4,0.774L18,0.668L18.6,0.593L19.2,0.539L19.8,0.501L20.4,0.475L21,0.455L21.6,0.442L22.2,0.432L22.8,0.425L23.4,0.421L24,0.417L24.6,0.415L25.2,0.413L25.8,0.412L26.4,0.411L27,0.41L27.6,0.41L28.2,0.409L28.8,0.409L29.4,0.409L30,0.409L30.6,0.409L31.2,0.409L31.8,0.409L32.4,0.409L33,0.409L33.6,0.409L34.2,0.409L34.8,0.409L35.4,0.409L36,0.409L36.6,0.409L37.2,0.409L37.8,0.409L38.4,0.409L39,0.409L39.6,0.409L40.2,0.409L40.8,0.409L41.4,0.409L42,0.409L42.6,0.409L43.2,0.409L43.8,0.409L44.4,0.409L45,0.409L45.6,0.409L46.2,0.409L46.8,0.409L47.4,0.409L48,0.409L48.6,0.409L49.2,0.409L49.8,0.409L50.4,0.409L51,0.409L51.6,0.409L52.2,0.409L52.8,0.409L53.4,0.409L54,0.409L54.6,0.409L55.2,0.409L55.8,0.409L56.4,0.409L57,0.409L57.6,0.409L58.2,0.409L58.8,0.409L59.4,0.409L60,0.409L60.6,0.409L61.2,0.409L61.8,0.409L62.4,0.409L63,0.409L63.6,0.409L64.2,0.409L64.8,0.409L65.4,0.409L66,0.409L66.6,0.409L67.2,0.409L67.8,0.409L68.4,0.409L69,0.409L69.6,0.409L70.2,0.409L70.8,0.409L71.4,0.409L72,0.409L72.6,0.409L73.2,0.409L73.8,0.409L74.4,0.409L75,0.409L75.6,0.409L76.2,0.409L76.8,0.409L77.4,0.409L78,0.409L78.6,0.409L79.2,0.409L79.8,0.409L80.4,0.409L81,0.409L81.6,0.409L82.2,0.409L82.8,0.409L83.4,0.409L84,0.409L84.6,0.409L85.2,0.409L85.8,0.409L86.4,0.409L87,0.409L87.6,0.409L88.2,0.409L88.8,0.409L89.4,0.409L90,0.409L90.6,0.409L91.2,0.409L91.8,0.409L92.4,0.409L93,0.409L93.6,0.409L94.2,0.409L94.8,0.409L95.4,0.409L96,0.409L96.6,0.409L97.2,0.409L97.8,0.409L98.4,0.409L99,0.409L99.6,0.409L100.2,0.409L100.8,0.409L101.4,0.409L102,0.409L102.6,0.409L103.2,0.409L103.8,0.409L104.4,0.409L105,0.409L105.6,0.409L106.2,0.409L106.8,0.409L107.4,0.409L108,0.409L108.6,0.409L109.2,0.409L109.8,0.409L110.4,0.409L111,0.409L111.6,0.409L112.2,0.409L112.8,0.409L113.4,0.409L114,0.409L114.6,0.409L115.2,0.409L115.8,0.409L116.4,0.409L117,0.409L117.6,0.409L118.2,0.409L118.8,0.409L119.4,0.409L120,0.409" stroke="#048059" stroke-width="2"/></g></g><path class="foreground" aria-hidden="true" d="" display="none"/></g></g><g class="mark-group role-scope layer_1_pathgroup" role="graphics-object" aria-roledescription="group mark container"><g transform="translate(0,0)"><path class="background" aria-hidden="true" d="M0,0h120v90h-120Z"/><g><g class="mark-line role-mark layer_1_marks" role="graphics-object" aria-roledescription="line mark container"><path aria-label="t: 0; M: 0.000001; gene: 1" role="graphics-symbol" aria-roledescription="line mark" d="M0,90L0.6,78.845L1.2,80.146L1.8,82.807L2.4,84.835L3,86.3L3.6,87.347L4.2,88.092L4.8,88.62L5.4,88.994L6,89.262L6.6,89.456L7.2,89.6L7.8,89.708L8.4,89.788L9,89.847L9.6,89.89L10.2,89.922L10.8,89.944L11.4,89.96L12,89.971L12.6,89.98L13.2,89.985L13.8,89.99L14.4,89.993L15,89.995L15.6,89.996L16.2,89.997L16.8,89.998L17.4,89.999L18,89.999L18.6,89.999L19.2,89.999L19.8,90L20.4,90L21,90L21.6,90L22.2,90L22.8,90L23.4,90L24,90L24.6,90L25.2,90L25.8,90L26.4,90L27,90L27.6,90L28.2,90L28.8,90L29.4,90L30,90L30.6,90L31.2,90L31.8,90L32.4,90L33,90L33.6,90L34.2,90L34.8,90L35.4,90L36,90L36.6,90L37.2,90L37.8,90L38.4,90L39,90L39.6,90L40.2,90L40.8,90L41.4,90L42,90L42.6,90L43.2,90L43.8,90L44.4,90L45,90L45.6,90L46.2,90L46.8,90L47.4,90L48,90L48.6,90L49.2,90L49.8,90L50.4,90L51,90L51.6,90L52.2,90L52.8,90L53.4,90L54,90L54.6,90L55.2,90L55.8,90L56.4,90L57,90L57.6,90L58.2,90L58.8,90L59.4,90L60,90L60.6,90L61.2,90L61.8,90L62.4,90L63,90L63.6,90L64.2,90L64.8,90L65.4,90L66,90L66.6,90L67.2,90L67.8,90L68.4,90L69,90L69.6,90L70.2,90L70.8,90L71.4,90L72,90L72.6,90L73.2,90L73.8,90L74.4,90L75,90L75.6,90L76.2,90L76.8,90L77.4,90L78,90L78.6,90L79.2,90L79.8,90L80.4,90L81,90L81.6,90L82.2,90L82.8,90L83.4,90L84,90L84.6,90L85.2,90L85.8,90L86.4,90L87,90L87.6,90L88.2,90L88.8,90L89.4,90L90,90L90.6,90L91.2,90L91.8,90L92.4,90L93,90L93.6,90L94.2,90L94.8,90L95.4,90L96,90L96.6,90L97.2,90L97.8,90L98.4,90L99,90L99.6,90L100.2,90L100.8,90L101.4,90L102,90L102.6,90L103.2,90L103.8,90L104.4,90L105,90L105.6,90L106.2,90L106.8,90L107.4,90L108,90L108.6,90L109.2,90L109.8,90L110.4,90L111,90L111.6,90L112.2,90L112.8,90L113.4,90L114,90L114.6,90L115.2,90L115.8,90L116.4,90L117,90L117.6,90L118.2,90L118.8,90L119.4,90L120,90" stroke="#f462a3" stroke-width="2" stroke-dasharray="4,4"/></g></g><path class="foreground" aria-hidden="true" d="" display="none"/></g><g transform="translate(0,0)"><path class="background" aria-hidden="true" d="M0,0h120v90h-120Z"/><g><g class="mark-line role-mark layer_1_marks" role="graphics-object" aria-roledescription="line mark container"><path aria-label="t: 0; M: 0.000001; gene: 2" role="graphics-symbol" aria-roledescription="line mark" d="M0,90L0.6,66.275L1.2,59.628L1.8,63.439L2.4,68.247L3,72.069L3.6,74.584L4.2,75.734L4.8,75.424L5.4,73.464L6,69.623L6.6,63.794L7.2,56.214L7.8,47.549L8.4,38.704L9,30.492L9.6,23.416L10.2,17.648L10.8,13.132L11.4,9.695L12,7.133L12.6,5.249L13.2,3.879L13.8,2.889L14.4,2.178L15,1.668L15.6,1.305L16.2,1.046L16.8,0.861L17.4,0.73L18,0.637L18.6,0.571L19.2,0.524L19.8,0.49L20.4,0.467L21,0.45L21.6,0.438L22.2,0.429L22.8,0.423L23.4,0.419L24,0.416L24.6,0.414L25.2,0.412L25.8,0.411L26.4,0.411L27,0.41L27.6,0.41L28.2,0.409L28.8,0.409L29.4,0.409L30,0.409L30.6,0.409L31.2,0.409L31.8,0.409L32.4,0.409L33,0.409L33.6,0.409L34.2,0.409L34.8,0.409L35.4,0.409L36,0.409L36.6,0.409L37.2,0.409L37.8,0.409L38.4,0.409L39,0.409L39.6,0.409L40.2,0.409L40.8,0.409L41.4,0.409L42,0.409L42.6,0.409L43.2,0.409L43.8,0.409L44.4,0.409L45,0.409L45.6,0.409L46.2,0.409L46.8,0.409L47.4,0.409L48,0.409L48.6,0.409L49.2,0.409L49.8,0.409L50.4,0.409L51,0.409L51.6,0.409L52.2,0.409L52.8,0.409L53.4,0.409L54,0.409L54.6,0.409L55.2,0.409L55.8,0.409L56.4,0.409L57,0.409L57.6,0.409L58.2,0.409L58.8,0.409L59.4,0.409L60,0.409L60.6,0.409L61.2,0.409L61.8,0.409L62.4,0.409L63,0.409L63.6,0.409L64.2,0.409L64.8,0.409L65.4,0.409L66,0.409L66.6,0.409L67.2,0.409L67.8,0.409L68.4,0.409L69,0.409L69.6,0.409L70.2,0.409L70.8,0.409L71.4,0.409L72,0.409L72.6,0.409L73.2,0.409L73.8,0.409L74.4,0.409L75,0.409L75.6,0.409L76.2,0.409L76.8,0.409L77.4,0.409L78,0.409L78.6,0.409L79.2,0.409L79.8,0.409L80.4,0.409L81,0.409L81.6,0.409L82.2,0.409L82.8,0.409L83.4,0.409L84,0.409L84.6,0.409L85.2,0.409L85.8,0.409L86.4,0.409L87,0.409L87.6,0.409L88.2,0.409L88.8,0.409L89.4,0.409L90,0.409L90.6,0.409L91.2,0.409L91.8,0.409L92.4,0.409L93,0.409L93.6,0.409L94.2,0.409L94.8,0.409L95.4,0.409L96,0.409L96.6,0.409L97.2,0.409L97.8,0.409L98.4,0.409L99,0.409L99.6,0.409L100.2,0.409L100.8,0.409L101.4,0.409L102,0.409L102.6,0.409L103.2,0.409L103.8,0.409L104.4,0.409L105,0.409L105.6,0.409L106.2,0.409L106.8,0.409L107.4,0.409L108,0.409L108.6,0.409L109.2,0.409L109.8,0.409L110.4,0.409L111,0.409L111.6,0.409L112.2,0.409L112.8,0.409L113.4,0.409L114,0.409L114.6,0.409L115.2,0.409L115.8,0.409L116.4,0.409L117,0.409L117.6,0.409L118.2,0.409L118.8,0.409L119.4,0.409L120,0.409" stroke="#f462a3" stroke-width="2" stroke-dasharray="4,4"/></g></g><path class="foreground" aria-hidden="true" d="" display="none"/></g></g></g><path class="foreground" aria-hidden="true" d="" display="none"/></g></g></g></svg>