<svg xmlns="http://www.w3.org/2000/svg" xmlns:xlink="http://www.w3.org/1999/xlink" version="1.1" class="marks" width="232" height="180" viewBox="0 0 232 180"><rect width="232" height="180" fill="white"/><g fill="none" stroke-miterlimit="10" transform="translate(45,10)"><g class="mark-group role-frame root" role="graphics-object" aria-roledescription="group mark container"><g transform="translate(0,0)"><path class="background" aria-hidden="true" d="M0.5,0.5h180v135h-180Z" stroke="black"/><g><g class="mark-group role-axis" role="graphics-symbol" aria-roledescription="axis" aria-label="X-axis titled 'Translation rate' for a linear scale with values from 0 to 12,000"><g transform="translate(0.5,135.5)"><path class="background" aria-hidden="true" d="M0,0h0v0h0Z" pointer-events="none"/><g><g class="mark-rule role-axis-tick" pointer-events="none"><line transform="translate(0,0)" x2="0" y2="3" stroke="black" stroke-width="1" opacity="1"/><line transform="translate(30,0)" x2="0" y2="3" stroke="black" stroke-width="1" opacity="1"/><line transform="translate(60,0)" x2="0" y2="3" stroke="black" stroke-width="1" opacity="1"/><line transform="translate(90,0)" x2="0" y2="3" stroke="black" stroke-width="1" opacity="1"/><line transform="translate(120,0)" x2="0" y2="3" stroke="black" stroke-width="1" opacity="1"/><line transform="translate(150,0)" x2="0" y2="3" stroke="black" stroke-width="1" opacity="1"/><line transform="translate(180,0)" x2="0" y2="3" stroke="black" stroke-width="1" opacity="1"/></g><g class="mark-text role-axis-label" pointer-events="none"><text text-anchor="start" transform="translate(0,13)" font-family="Arial" font-size="10px" fill="#000" opacity="1">0</text><text text-anchor="middle" transform="translate(30,13)" font-family="Arial" font-size="10px" fill="#000" opacity="0">2,000</text><text text-anchor="middle" transform="translate(60,13)" font-family="Arial" font-size="10px" fill="#000" opacity="1">4,000</text><text text-anchor="middle" transform="translate(90,13)" font-family="Arial" font-size="10px" fill="#000" opacity="0">6,000</text><text text-anchor="middle" transform="translate(120,13)" font-family="Arial" font-size="10px" fill="#000" opacity="1">8,000</text><text text-anchor="middle" transform="translate(150,13)" font-family="Arial" font-size="10px" fill="#000" opacity="0">10,000</text><text text-anchor="end" transform="translate(180,13)" font-family="Arial" font-size="10px" fill="#000" opacity="1">12,000</text></g><g class="mark-rule role-axis-domain" pointer-events="none"><line transform="translate(0,0)" x2="180" y2="0" stroke="black" stroke-width="1" opacity="1"/></g><g class="mark-text role-axis-title" pointer-events="none"><text text-anchor="middle" transform="translate(90,28)" font-family="Arial" font-size="11px" font-weight="normal" fill="#000" opacity="1">Translation rate</text></g></g><path class="foreground" aria-hidden="true" d="" pointer-events="none" display="none"/></g></g><g class="mark-group role-axis" role="graphics-symbol" aria-roledescription="axis" aria-label="Y-axis titled 'Efficiency' for a linear scale with values from 0.00 to 0.08"><g transform="translate(0.5,0.5)"><path class="background" aria-hidden="true" d="M0,0h0v0h0Z" pointer-events="none"/><g><g class="mark-rule role-axis-tick" pointer-events="none"><line transform="translate(0,135)" x2="-3" y2="0" stroke="black" stroke-width="1" opacity="1"/><line transform="translate(0,101)" x2="-3" y2="0" stroke="black" stroke-width="1" opacity="1"/><line transform="translate(0,68)" x2="-3" y2="0" stroke="black" stroke-width="1" opacity="1"/><line transform="translate(0,34)" x2="-3" y2="0" stroke="black" stroke-width="1" opacity="1"/><line transform="translate(0,0)" x2="-3" y2="0" stroke="black" stroke-width="1" opacity="1"/></g><g class="mark-text role-axis-label" pointer-events="none"><text text-anchor="end" transform="translate(-5,138)" font-family="Arial" font-size="10px" fill="#000" opacity="1">0.00</text><text text-anchor="end" transform="translate(-5,104.25)" font-family="Arial" font-size="10px" fill="#000" opacity="1">0.02</text><text text-anchor="end" transform="translate(-5,70.5)" font-family="Arial" font-size="10px" fill="#000" opacity="1">0.04</text><text text-anchor="end" transform="translate(-5,36.75)" font-family="Arial" font-size="10px" fill="#000" opacity="1">0.06</text><text text-anchor="end" transform="translate(-5,3)" font-family="Arial" font-size="10px" fill="#000" opacity="1">0.08</text></g><g class="mark-rule role-axis-domain" pointer-events="none"><line transform="translate(0,135)" x2="0" y2="-135" stroke="black" stroke-width="1" opacity="1"/></g><g class="mark-text role-axis-title" pointer-events="none"><text text-anchor="middle" transform="translate(-28.462890625,67.5) rotate(-90) translate(0,-2)" font-family="Arial" font-size="11px" font-weight="normal" fill="#000" opacity="1">Efficiency</text></g></g><path class="foreground" aria-hidden="true" d="" pointer-events="none" display="none"/></g></g><g class="mark-line role-mark marks" role="graphics-object" aria-roledescription="line mark container"><path aria-label="v: 792.164647714; efficiency: 0.0774223244477" role="graphics-symbol" aria-roledescription="line mark" d="M11.882,4.35L18.504,7.945L24.507,10.302L30.111,12.04L35.39,13.411L40.381,14.538L45.111,15.492L49.603,16.318L53.876,17.045L57.947,17.694L61.833,18.278L65.547,18.81L69.101,19.297L72.506,19.747L75.773,20.164L78.909,20.552L81.924,20.916L84.825,21.257L87.619,21.579L90.312,21.883L92.909,22.171L95.417,22.445L97.839,22.707L100.181,22.956L102.447,23.194L104.64,23.422L106.764,23.641L108.823,23.851L110.819,24.054L112.756,24.249L114.636,24.437L116.462,24.619L118.236,24.794L119.96,24.964L121.638,25.129L123.27,25.289L124.858,25.444L126.405,25.594L127.912,25.74L129.38,25.883L130.812,26.021L132.208,26.156L133.57,26.287L134.899,26.415L136.196,26.54L137.463,26.662L138.7,26.781L139.909,26.898L141.091,27.012L142.246,27.123L143.376,27.232L144.481,27.338L145.562,27.443L146.62,27.545L147.656,27.645L148.67,27.744L149.663,27.84L150.636,27.935L151.589,28.028L152.523,28.119L153.439,28.208L154.337,28.296L155.218,28.382L156.081,28.467L156.928,28.551L157.76,28.633L158.576,28.714L159.377,28.793L160.163,28.871L160.935,28.948L161.693,29.024L162.438,29.098L163.17,29.172L163.889,29.244L164.595,29.316L165.29,29.386L165.973,29.455L166.644,29.523L167.304,29.591L167.953,29.657L168.592,29.723L169.22,29.787L169.839,29.851L170.447,29.914L171.046,29.976L171.635,30.038L172.215,30.098L172.786,30.158L173.349,30.217L173.902,30.276L174.448,30.333L174.985,30.39L175.515,30.447L176.036,30.502L176.55,30.557L177.057,30.612L177.556,30.665L178.048,30.719L178.533,30.771L179.011,30.823L179.483,30.875" stroke="#1657a8" stroke-width="2"/></g></g><path class="foreground" aria-hidden="true" d="" display="none"/></g></g></g></svg>