<?xml version="1.0" encoding="utf-8"?>
<!DOCTYPE svg PUBLIC "-//W3C//DTD SVG 1.1//EN" "http://www.w3.org/Graphics/SVG/1.1/DTD/svg11.dtd">
<svg xmlns="http://www.w3.org/2000/svg" xmlns:xlink="http://www.w3.org/1999/xlink" version="1.1" class="marks" width="362" height="180" viewBox="0 0 362 180"><rect width="362" height="180" fill="white"/><g fill="none" stroke-miterlimit="10" transform="translate(46,10)"><g class="mark-group role-frame root" role="graphics-object" aria-roledescription="group mark container"><g transform="translate(0,0)"><path class="background" aria-hidden="true" d="M0.5,0.5h180v135h-180Z" stroke="black"/><g><g class="mark-group role-axis" role="graphics-symbol" aria-roledescription="axis" aria-label="X-axis titled 'kf*A/kr' for a linear scale with values from 0.0 to 3.0"><g transform="translate(0.5,135.5)"><path class="background" aria-hidden="true" d="M0,0h0v0h0Z" pointer-events="none"/><g><g class="mark-rule role-axis-tick" pointer-events="none"><line transform="translate(0,0)" x2="0" y2="3" stroke="black" stroke-width="1" opacity="1"/><line transform="translate(30,0)" x2="0" y2="3" stroke="black" stroke-width="1" opacity="1"/><line transform="translate(60,0)" x2="0" y2="3" stroke="black" stroke-width="1" opacity="1"/><line transform="translate(90,0)" x2="0" y2="3" stroke="black" stroke-width="1" opacity="1"/><line transform="translate(120,0)" x2="0" y2="3" stroke="black" stroke-width="1" opacity="1"/><line transform="translate(150,0)" x2="0" y2="3" stroke="black" stroke-width="1" opacity="1"/><line transform="translate(180,0)" x2="0" y2="3" stroke="black" stroke-width="1" opacity="1"/></g><g class="mark-text role-axis-label" pointer-events="none"><text text-anchor="start" transform="translate(0,13)" font-family="Arial" font-size="10px" fill="#000" opacity="1">0.0</text><text text-anchor="middle" transform="translate(30,13)" font-family="Arial" font-size="10px" fill="#000" opacity="1">0.5</text><text text-anchor="middle" transform="translate(60,13)" font-family="Arial" font-size="10px" fill="#000" opacity="1">1.0</text><text text-anchor="middle" transform="translate(90,13)" font-family="Arial" font-size="10px" fill="#000" opacity="1">1.5</text><text text-anchor="middle" transform="translate(120,13)" font-family="Arial" font-size="10px" fill="#000" opacity="1">2.0</text><text text-anchor="middle" transform="translate(150,13)" font-family="Arial" font-size="10px" fill="#000" opacity="1">2.5</text><text text-anchor="end" transform="translate(180,13)" font-family="Arial" font-size="10px" fill="#000" opacity="1">3.0</text></g><g class="mark-rule role-axis-domain" pointer-events="none"><line transform="translate(0,0)" x2="180" y2="0" stroke="black" stroke-width="1" opacity="1"/></g><g class="mark-text role-axis-title" pointer-events="none"><text text-anchor="middle" transform="translate(90,28)" font-family="Arial" font-size="11px" font-weight="normal" fill="#000" opacity="1">kf*A/kr</text></g></g><path class="foreground" aria-hidden="true" d="" pointer-events="none" display="none"/></g></g><g class="mark-group role-axis" role="graphics-symbol" aria-roledescription="axis" aria-label="Y-axis titled 'Translation rate' for a linear scale with values from −0.3 to 0.6"><g transform="translate(0.5,0.5)"><path class="background" aria-hidden="true" d="M0,0h0v0h0Z" pointer-events="none"/><g><g class="mark-rule role-axis-tick" pointer-events="none"><line transform="translate(0,120)" x2="-3" y2="0" stroke="black" stroke-width="1" opacity="1"/><line transform="translate(0,90)" x2="-3" y2="0" stroke="black" stroke-width="1" opacity="1"/><line transform="translate(0,60)" x2="-3" y2="0" stroke="black" stroke-width="1" opacity="1"/><line transform="translate(0,30)" x2="-3" y2="0" stroke="black" stroke-width="1" opacity="1"/><line transform="translate(0,0)" x2="-3" y2="0" stroke="black" stroke-width="1" opacity="1"/></g><g class="mark-text role-axis-label" pointer-events="none"><text text-anchor="end" transform="translate(-5,123.00000000000001)" font-family="Arial" font-size="10px" fill="#000" opacity="1">−0.2</text><text text-anchor="end" transform="translate(-5,93)" font-family="Arial" font-size="10px" fill="#000" opacity="1">0.0</text><text text-anchor="end" transform="translate(-5,63)" font-family="Arial" font-size="10px" fill="#000" opacity="1">0.2</text><text text-anchor="end" transform="translate(-5,33)" font-family="Arial" font-size="10px" fill="#000" opacity="1">0.4</text><text text-anchor="end" transform="translate(-5,3)" font-family="Arial" font-size="10px" fill="#000" opacity="1">0.6</text></g><g class="mark-rule role-axis-domain" pointer-events="none"><line transform="translate(0,135)" x2="0" y2="-135" stroke="black" stroke-width="1" opacity="1"/></g><g class="mark-text role-axis-title" pointer-events="none"><text text-anchor="middle" transform="translate(-30,67.5) rotate(-90) translate(0,-2)" font-family="Arial" font-size="11px" font-weight="normal" fill="#000" opacity="1">Translation rate</text></g></g><path class="foreground" aria-hidden="true" d="" pointer-events="none" display="none"/></g></g><g class="mark-group role-scope layer_0_pathgroup" role="graphics-object" aria-roledescription="group mark container"><g transform="translate(0,0)"><path class="background" aria-hidden="true" d="M0,0h180v135h-180Z"/><g><g class="mark-line role-mark layer_0_marks" role="graphics-object" aria-roledescription="line mark container"><path aria-label="A: 0.0333333333333; v: 4.91117546444e-16; model: Analytic" role="graphics-symbol" aria-roledescription="line mark" d="M2,89.99999999999991L4,89.99999999992717L6,89.99999999594999L8,89.99999993074486L10,89.99999937981855L12,89.99999631359961L14,89.99998349607826L16,89.99993999298104L18,89.99981399455164L20,89.9994919387617L22,89.99874807520392L24,89.99716854790071L26.000000000000004,89.99404526333525L28,89.98823771102599L30,89.97800586510263L32,89.96082436917659L34,89.9331969115861L36,89.89049877114236L38,89.82688278143387L40,89.73528651443343L42.00000000000001,89.60757333176768L44,89.43482519131673L46.00000000000001,89.20778129191436L48,88.91738775358495L50,88.55539661689278L52.00000000000001,88.1149356827204L54,87.59097030245566L56,86.98059554374248L58.00000000000001,86.28312777429225L60,85.5L62.00000000000001,84.63449584671892L64,83.69137612629065L66,82.67645723028699L68,81.59619415369922L70,80.45730726734757L72,79.26647594027135L74,78.03010756692814L76,76.75417958378074L78,75.44414521829778L80,74.10489051839919L82,72.74072970325511L84.00000000000001,71.35542703839451L86,69.95223542122112L88,68.53394406923306L90,67.10292977165015L92.00000000000001,65.66120791855428L94,64.21048090562097L96,62.7521825438879L97.99999999999999,61.28751783373186L100,59.81749795190394L102,58.342970609267795L104.00000000000001,56.86464611549483L106,55.383119575810895L108,53.89888967456067L110.00000000000001,52.412374493062146L112,50.9239247805072L114.00000000000001,49.43383505700761L116.00000000000001,47.94235288409969L118,46.44968659431164L120,44.95601173020526L121.99999999999999,43.461476405880255L124.00000000000001,41.966205770779936L126.00000000000001,40.470305726798685L128,38.973866024937045L130.00000000000003,37.47696284671353L132,35.97966095780231L134,34.482015506491194L136,32.98407352714017L138,31.485875198493126L140,29.987454898125517L142,28.488842087215044L144,26.990062053949366L146.00000000000003,25.491136539034695L148,23.992084262758766L150,22.492921369751805L152,20.993661804851534L154,19.494317631219516L156,17.994899299984393L158,16.495415879142204L160,14.995875248161632L162,13.49628426368061L164,11.996648900799574L166,10.49697437374421L168.00000000000003,8.997265239061703L170.00000000000003,7.49752548400893L172,5.997758602366413L174,4.49796765956053L176,2.9981553486819097L178,1.4983240387395025" stroke="#4c78a8" stroke-width="2" stroke-dasharray="1,0"/></g></g><path class="foreground" aria-hidden="true" d="" display="none"/></g><g transform="translate(0,0)"><path class="background" aria-hidden="true" d="M0,0h180v135h-180Z"/><g><g class="mark-line role-mark layer_0_marks" role="graphics-object" aria-roledescription="line mark container"><path aria-label="A: 0.0333333333333; v: −0.29; model: Linear approximation" role="graphics-symbol" aria-roledescription="line mark" d="M2,133.5L4,132L6,130.5L8,129L10,127.5L12,126L14,124.49999999999999L16,123L18,121.5L20,120L22,118.5L24,117L26.000000000000004,115.5L28,114L30,112.49999999999999L32,111L34,109.5L36,108L38,106.5L40,104.99999999999999L42.00000000000001,103.49999999999999L44,102L46.00000000000001,100.5L48,99.00000000000001L50,97.5L52.00000000000001,95.99999999999999L54,94.5L56,93L58.00000000000001,91.5L60,90L62.00000000000001,88.49999999999999L64,86.99999999999999L66,85.5L68,84L70,82.5L72,81L74,79.49999999999999L76,77.99999999999999L78,76.5L80,74.99999999999999L82,73.50000000000001L84.00000000000001,71.99999999999999L86,70.49999999999999L88,69L90,67.5L92.00000000000001,65.99999999999999L94,64.5L96,63L97.99999999999999,61.49999999999999L100,60L102,58.499999999999986L104.00000000000001,56.99999999999999L106,55.499999999999986L108,53.999999999999986L110.00000000000001,52.49999999999998L112,50.999999999999986L114.00000000000001,49.499999999999986L116.00000000000001,47.99999999999998L118,46.499999999999986L120,44.99999999999999L121.99999999999999,43.49999999999999L124.00000000000001,41.999999999999986L126.00000000000001,40.49999999999999L128,39.000000000000014L130.00000000000003,37.499999999999986L132,35.99999999999999L134,34.5L136,32.999999999999986L138,31.499999999999993L140,30L142,28.49999999999999L144,26.999999999999993L146.00000000000003,25.5L148,23.99999999999999L150,22.499999999999996L152,20.999999999999986L154,19.49999999999999L156,17.999999999999982L158,16.499999999999986L160,14.999999999999977L162,13.499999999999982L164,11.999999999999972L166,10.499999999999977L168.00000000000003,8.999999999999982L170.00000000000003,7.499999999999973L172,6.000000000000009L174,4.499999999999969L176,3.0000000000000044L178,1.4999999999999947" stroke="#f58518" stroke-width="2" stroke-dasharray="4,2"/></g></g><path class="foreground" aria-hidden="true" d="" display="none"/></g></g><g class="mark-group role-legend" role="graphics-symbol" aria-roledescription="legend" aria-label="Symbol legend titled 'model' for stroke color and strokeDash with 2 values: Analytic, Linear approximation"><g transform="translate(198,0)"><path class="background" aria-hidden="true" d="M0,0h113v40h-113Z" pointer-events="none"/><g><g class="mark-group role-legend-entry"><g transform="translate(0,16)"><path class="background" aria-hidden="true" d="M0,0h0v0h0Z" pointer-events="none"/><g><g class="mark-group role-scope" role="graphics-object" aria-roledescription="group mark container"><g transform="translate(0,0)"><path class="background" aria-hidden="true" d="M0,0h113v11h-113Z" pointer-events="none" opacity="1"/><g><g class="mark-symbol role-legend-symbol" pointer-events="none"><path transform="translate(6,6)" d="M-5,0L5,0" stroke="#4c78a8" stroke-width="1.5" stroke-dasharray="1,0" opacity="1"/></g><g class="mark-text role-legend-label" pointer-events="none"><text text-anchor="start" transform="translate(16,9)" font-family="Arial" font-size="10px" fill="#000" opacity="1">Analytic</text></g></g><path class="foreground" aria-hidden="true" d="" pointer-events="none" display="none"/></g><g transform="translate(0,13)"><path class="background" aria-hidden="true" d="M0,0h113v11h-113Z" pointer-events="none" opacity="1"/><g><g class="mark-symbol role-legend-symbol" pointer-events="none"><path transform="translate(6,6)" d="M-5,0L5,0" stroke="#f58518" stroke-width="1.5" stroke-dasharray="4,2" opacity="1"/></g><g class="mark-text role-legend-label" pointer-events="none"><text text-anchor="start" transform="translate(16,9)" font-family="Arial" font-size="10px" fill="#000" opacity="1">Linear approximation</text></g></g><path class="foreground" aria-hidden="true" d="" pointer-events="none" display="none"/></g></g></g><path class="foreground" aria-hidden="true" d="" pointer-events="none" display="none"/></g></g><g class="mark-text role-legend-title" pointer-events="none"><text text-anchor="start" transform="translate(0,9)" font-family="Arial" font-size="11px" font-weight="bold" fill="#000" opacity="1">model</text></g></g><path class="foreground" aria-hidden="true" d="" pointer-events="none" display="none"/></g></g></g><path class="foreground" aria-hidden="true" d="" display="none"/></g></g></g></svg>
