<?xml version="1.0" encoding="utf-8"?>
<!DOCTYPE svg PUBLIC "-//W3C//DTD SVG 1.1//EN" "http://www.w3.org/Graphics/SVG/1.1/DTD/svg11.dtd">
<svg xmlns="http://www.w3.org/2000/svg" xmlns:xlink="http://www.w3.org/1999/xlink" version="1.1" class="marks" width="370" height="180" viewBox="0 0 370 180"><rect width="370" height="180" fill="white"/><g fill="none" stroke-miterlimit="10" transform="translate(52,10)"><g class="mark-group role-frame root" role="graphics-object" aria-roledescription="group mark container"><g transform="translate(0,0)"><path class="background" aria-hidden="true" d="M0.5,0.5h180v135h-180Z" stroke="black"/><g><g class="mark-group role-axis" role="graphics-symbol" aria-roledescription="axis" aria-label="X-axis titled 'kf*A/kr' for a linear scale with values from 0.0000 to 0.0010"><g transform="translate(0.5,135.5)"><path class="background" aria-hidden="true" d="M0,0h0v0h0Z" pointer-events="none"/><g><g class="mark-rule role-axis-tick" pointer-events="none"><line transform="translate(0,0)" x2="0" y2="3" stroke="black" stroke-width="1" opacity="1"/><line transform="translate(36,0)" x2="0" y2="3" stroke="black" stroke-width="1" opacity="1"/><line transform="translate(72,0)" x2="0" y2="3" stroke="black" stroke-width="1" opacity="1"/><line transform="translate(108,0)" x2="0" y2="3" stroke="black" stroke-width="1" opacity="1"/><line transform="translate(144,0)" x2="0" y2="3" stroke="black" stroke-width="1" opacity="1"/><line transform="translate(180,0)" x2="0" y2="3" stroke="black" stroke-width="1" opacity="1"/></g><g class="mark-text role-axis-label" pointer-events="none"><text text-anchor="start" transform="translate(0,13)" font-family="Arial" font-size="10px" fill="#000" opacity="1">0.0000</text><text text-anchor="middle" transform="translate(36,13)" font-family="Arial" font-size="10px" fill="#000" opacity="0">0.0002</text><text text-anchor="middle" transform="translate(72,13)" font-family="Arial" font-size="10px" fill="#000" opacity="1">0.0004</text><text text-anchor="middle" transform="translate(108,13)" font-family="Arial" font-size="10px" fill="#000" opacity="0">0.0006</text><text text-anchor="middle" transform="translate(144,13)" font-family="Arial" font-size="10px" fill="#000" opacity="1">0.0008</text><text text-anchor="end" transform="translate(180,13)" font-family="Arial" font-size="10px" fill="#000" opacity="0">0.0010</text></g><g class="mark-rule role-axis-domain" pointer-events="none"><line transform="translate(0,0)" x2="180" y2="0" stroke="black" stroke-width="1" opacity="1"/></g><g class="mark-text role-axis-title" pointer-events="none"><text text-anchor="middle" transform="translate(90,28)" font-family="Arial" font-size="11px" font-weight="normal" fill="#000" opacity="1">kf*A/kr</text></g></g><path class="foreground" aria-hidden="true" d="" pointer-events="none" display="none"/></g></g><g class="mark-group role-axis" role="graphics-symbol" aria-roledescription="axis" aria-label="Y-axis titled 'Translation rate' for a linear scale with values from 0e+0 to 3e-31"><g transform="translate(0.5,0.5)"><path class="background" aria-hidden="true" d="M0,0h0v0h0Z" pointer-events="none"/><g><g class="mark-rule role-axis-tick" pointer-events="none"><line transform="translate(0,135)" x2="-3" y2="0" stroke="black" stroke-width="1" opacity="1"/><line transform="translate(0,90)" x2="-3" y2="0" stroke="black" stroke-width="1" opacity="1"/><line transform="translate(0,45)" x2="-3" y2="0" stroke="black" stroke-width="1" opacity="1"/><line transform="translate(0,0)" x2="-3" y2="0" stroke="black" stroke-width="1" opacity="1"/></g><g class="mark-text role-axis-label" pointer-events="none"><text text-anchor="end" transform="translate(-5,138)" font-family="Arial" font-size="10px" fill="#000" opacity="1">0e+0</text><text text-anchor="end" transform="translate(-5,93.00000000000001)" font-family="Arial" font-size="10px" fill="#000" opacity="1">1e-31</text><text text-anchor="end" transform="translate(-5,48.00000000000001)" font-family="Arial" font-size="10px" fill="#000" opacity="1">2e-31</text><text text-anchor="end" transform="translate(-5,3)" font-family="Arial" font-size="10px" fill="#000" opacity="1">3e-31</text></g><g class="mark-rule role-axis-domain" pointer-events="none"><line transform="translate(0,135)" x2="0" y2="-135" stroke="black" stroke-width="1" opacity="1"/></g><g class="mark-text role-axis-title" pointer-events="none"><text text-anchor="middle" transform="translate(-36,67.5) rotate(-90) translate(0,-2)" font-family="Arial" font-size="11px" font-weight="normal" fill="#000" opacity="1">Translation rate</text></g></g><path class="foreground" aria-hidden="true" d="" pointer-events="none" display="none"/></g></g><g class="mark-group role-scope layer_0_pathgroup" role="graphics-object" aria-roledescription="group mark container"><g transform="translate(0,0)"><path class="background" aria-hidden="true" d="M0,0h180v135h-180Z"/><g><g class="mark-line role-mark layer_0_marks" role="graphics-object" aria-roledescription="line mark container"><path aria-label="A: 0; v: 0e+0; model: Analytic" role="graphics-symbol" aria-roledescription="line mark" d="M0,135L1.8,135L3.6,135L5.3999999999999995,134.99999999999991L7.2,134.99999999999858L9,134.9999999999868L10.799999999999999,134.99999999991837L12.599999999999998,134.9999999996187L14.4,134.99999999855058L16.200000000000003,134.99999999529328L18,134.99999998650134L19.8,134.99999996498832L21.599999999999998,134.9999999164216L23.399999999999995,134.99999981391522L25.199999999999996,134.9999996095609L27,134.99999922163875L28.8,134.99999851589678L30.6,134.99999727887092L32.400000000000006,134.99999518073687L34.2,134.99999172463316L36,134.9999861787648L37.8,134.99997748688943L39.6,134.99996415199251L41.4,134.99994408707278L43.199999999999996,134.9999144259784L45,134.9998712861538L46.79999999999999,134.99980947397052L48.6,134.999722122019L50.39999999999999,134.99960024632733L52.199999999999996,134.99943220994194L54,134.99920307764845L55.8,134.99889384482702L57.6,134.99848052151452L59.400000000000006,134.99793305068835L61.2,134.99721403758141L62.99999999999999,134.99627726448637L64.80000000000001,134.99506596299892L66.6,134.99351081298514L68.4,134.9915276347279L70.19999999999999,134.9890147377088L72,134.9858498863104L73.8,134.98188683937323L75.6,134.97695141700808L77.4,134.97083704434255L79.2,134.96329971796553L80.99999999999999,134.95405233672045L82.8,134.94275833418243L84.6,134.92902454563102L86.39999999999999,134.9123932375937L88.2,134.89233322308237L90,134.86822998046875L91.8,134.83937468854154L93.59999999999998,134.80495208465314L95.39999999999999,134.7640270469916L97.2,134.7155297958989L99.00000000000001,134.65823960279704L100.79999999999998,134.59076688867L102.6,134.51153358718176L104.39999999999999,134.4187516403798L106.19999999999999,134.31039948753815L108,134.1841964000256L109.8,134.03757450714286L111.6,133.86764834964697L113.4,133.67118178917283L115.2,133.44455209296075L116.99999999999999,133.1837110042036L118.80000000000001,132.8841425989313L120.60000000000001,132.54081772064933L122.4,132.14814477393668L124.19999999999999,131.69991664788358L125.99999999999999,131.18925352960306L127.8,130.6085413570803L129.60000000000002,129.94936564932476L131.4,129.20244044015536L133.2,128.3575320299765L135,127.40337725758552L136.8,126.32759598138566L138.6,125.11659744635989L140.39999999999998,123.75548019978143L142.20000000000002,122.22792520489587L144,120.51608178769919L145.79999999999998,118.60044603745264L147.6,116.45973126671421L149.4,114.07073012142236L151.2,111.40816791593463L153,108.44454675190055L154.8,105.14997996342476L156.6,101.49201641415297L158.4,97.43545415468061L160.2,92.94214293104153L161.99999999999997,87.97077501697215L163.8,82.47666382416628L165.6,76.41150972582422L167.4,69.72315250946174L169.2,62.3553098551672L171,54.24730121527617L172.79999999999998,45.33375645077185L174.60000000000002,35.544308558601536L176.4,24.80326980253243L178.2,13.029290538136344L180,0.13499999999997014" stroke="#4c78a8" stroke-width="2" stroke-dasharray="1,0"/></g></g><path class="foreground" aria-hidden="true" d="" display="none"/></g><g transform="translate(0,0)"><path class="background" aria-hidden="true" d="M0,0h180v135h-180Z"/><g><g class="mark-line role-mark layer_0_marks" role="graphics-object" aria-roledescription="line mark container"><path aria-label="A: 0; v: 0e+0; model: Power approximation" role="graphics-symbol" aria-roledescription="line mark" d="M0,135L1.8,135L3.6,135L5.3999999999999995,134.99999999999991L7.2,134.99999999999858L9,134.9999999999868L10.799999999999999,134.99999999991837L12.599999999999998,134.9999999996187L14.4,134.99999999855058L16.200000000000003,134.99999999529328L18,134.99999998650134L19.8,134.99999996498832L21.599999999999998,134.9999999164216L23.399999999999995,134.99999981391522L25.199999999999996,134.9999996095609L27,134.99999922163875L28.8,134.99999851589678L30.6,134.99999727887092L32.400000000000006,134.99999518073687L34.2,134.99999172463316L36,134.9999861787648L37.8,134.99997748688943L39.6,134.99996415199251L41.4,134.99994408707278L43.199999999999996,134.9999144259784L45,134.9998712861538L46.79999999999999,134.99980947397052L48.6,134.999722122019L50.39999999999999,134.99960024632733L52.199999999999996,134.99943220994194L54,134.99920307764845L55.8,134.99889384482702L57.6,134.99848052151452L59.400000000000006,134.99793305068835L61.2,134.99721403758141L62.99999999999999,134.99627726448637L64.80000000000001,134.99506596299892L66.6,134.99351081298514L68.4,134.9915276347279L70.19999999999999,134.9890147377088L72,134.9858498863104L73.8,134.98188683937323L75.6,134.97695141700808L77.4,134.97083704434255L79.2,134.96329971796553L80.99999999999999,134.95405233672045L82.8,134.94275833418243L84.6,134.92902454563102L86.39999999999999,134.9123932375937L88.2,134.89233322308237L90,134.86822998046875L91.8,134.83937468854154L93.59999999999998,134.80495208465314L95.39999999999999,134.7640270469916L97.2,134.7155297958989L99.00000000000001,134.65823960279704L100.79999999999998,134.59076688867L102.6,134.51153358718176L104.39999999999999,134.4187516403798L106.19999999999999,134.31039948753815L108,134.1841964000256L109.8,134.03757450714286L111.6,133.86764834964697L113.4,133.67118178917283L115.2,133.44455209296075L116.99999999999999,133.1837110042036L118.80000000000001,132.8841425989313L120.60000000000001,132.54081772064933L122.4,132.14814477393668L124.19999999999999,131.69991664788358L125.99999999999999,131.18925352960306L127.8,130.6085413570803L129.60000000000002,129.94936564932476L131.4,129.20244044015536L133.2,128.3575320299765L135,127.40337725758552L136.8,126.32759598138566L138.6,125.11659744635989L140.39999999999998,123.75548019978143L142.20000000000002,122.22792520489587L144,120.51608178769919L145.79999999999998,118.60044603745264L147.6,116.45973126671421L149.4,114.07073012142236L151.2,111.40816791593463L153,108.44454675190055L154.8,105.14997996342476L156.6,101.49201641415297L158.4,97.43545415468061L160.2,92.94214293104153L161.99999999999997,87.97077501697215L163.8,82.47666382416628L165.6,76.41150972582422L167.4,69.72315250946174L169.2,62.3553098551672L171,54.24730121527617L172.79999999999998,45.33375645077185L174.60000000000002,35.544308558601536L176.4,24.80326980253243L178.2,13.029290538136344L180,0.13499999999997014" stroke="#f58518" stroke-width="2" stroke-dasharray="4,2"/></g></g><path class="foreground" aria-hidden="true" d="" display="none"/></g></g><g class="mark-group role-legend" role="graphics-symbol" aria-roledescription="legend" aria-label="Symbol legend titled 'model' for stroke color and strokeDash with 2 values: Analytic, Power approximation"><g transform="translate(200,0)"><path class="background" aria-hidden="true" d="M0,0h113v40h-113Z" pointer-events="none"/><g><g class="mark-group role-legend-entry"><g transform="translate(0,16)"><path class="background" aria-hidden="true" d="M0,0h0v0h0Z" pointer-events="none"/><g><g class="mark-group role-scope" role="graphics-object" aria-roledescription="group mark container"><g transform="translate(0,0)"><path class="background" aria-hidden="true" d="M0,0h113v11h-113Z" pointer-events="none" opacity="1"/><g><g class="mark-symbol role-legend-symbol" pointer-events="none"><path transform="translate(6,6)" d="M-5,0L5,0" stroke="#4c78a8" stroke-width="1.5" stroke-dasharray="1,0" opacity="1"/></g><g class="mark-text role-legend-label" pointer-events="none"><text text-anchor="start" transform="translate(16,9)" font-family="Arial" font-size="10px" fill="#000" opacity="1">Analytic</text></g></g><path class="foreground" aria-hidden="true" d="" pointer-events="none" display="none"/></g><g transform="translate(0,13)"><path class="background" aria-hidden="true" d="M0,0h113v11h-113Z" pointer-events="none" opacity="1"/><g><g class="mark-symbol role-legend-symbol" pointer-events="none"><path transform="translate(6,6)" d="M-5,0L5,0" stroke="#f58518" stroke-width="1.5" stroke-dasharray="4,2" opacity="1"/></g><g class="mark-text role-legend-label" pointer-events="none"><text text-anchor="start" transform="translate(16,9)" font-family="Arial" font-size="10px" fill="#000" opacity="1">Power approximation</text></g></g><path class="foreground" aria-hidden="true" d="" pointer-events="none" display="none"/></g></g></g><path class="foreground" aria-hidden="true" d="" pointer-events="none" display="none"/></g></g><g class="mark-text role-legend-title" pointer-events="none"><text text-anchor="start" transform="translate(0,9)" font-family="Arial" font-size="11px" font-weight="bold" fill="#000" opacity="1">model</text></g></g><path class="foreground" aria-hidden="true" d="" pointer-events="none" display="none"/></g></g></g><path class="foreground" aria-hidden="true" d="" display="none"/></g></g></g></svg>
