<svg xmlns="http://www.w3.org/2000/svg" xmlns:xlink="http://www.w3.org/1999/xlink" version="1.1" class="marks" width="301" height="175" viewBox="0 0 301 175"><rect width="301" height="175" fill="white"/><g fill="none" stroke-miterlimit="10" transform="translate(39,5)"><g class="mark-group role-frame root" role="graphics-object" aria-roledescription="group mark container"><g transform="translate(0,0)"><path class="background" aria-hidden="true" d="M0.5,0.5h180v135h-180Z" stroke="black"/><g><g class="mark-group role-axis" role="graphics-symbol" aria-roledescription="axis" aria-label="X-axis titled 'Â' for a linear scale with values from 0.0 to 2.0"><g transform="translate(0.5,135.5)"><path class="background" aria-hidden="true" d="M0,0h0v0h0Z" pointer-events="none"/><g><g class="mark-rule role-axis-tick" pointer-events="none"><line transform="translate(0,0)" x2="0" y2="3" stroke="black" stroke-width="1" opacity="1"/><line transform="translate(45,0)" x2="0" y2="3" stroke="black" stroke-width="1" opacity="1"/><line transform="translate(90,0)" x2="0" y2="3" stroke="black" stroke-width="1" opacity="1"/><line transform="translate(135,0)" x2="0" y2="3" stroke="black" stroke-width="1" opacity="1"/><line transform="translate(180,0)" x2="0" y2="3" stroke="black" stroke-width="1" opacity="1"/></g><g class="mark-text role-axis-label" pointer-events="none"><text text-anchor="start" transform="translate(0,13)" font-family="Arial" font-size="10px" fill="#000" opacity="1">0.0</text><text text-anchor="middle" transform="translate(45,13)" font-family="Arial" font-size="10px" fill="#000" opacity="1">0.5</text><text text-anchor="middle" transform="translate(90,13)" font-family="Arial" font-size="10px" fill="#000" opacity="1">1.0</text><text text-anchor="middle" transform="translate(135,13)" font-family="Arial" font-size="10px" fill="#000" opacity="1">1.5</text><text text-anchor="end" transform="translate(180,13)" font-family="Arial" font-size="10px" fill="#000" opacity="1">2.0</text></g><g class="mark-rule role-axis-domain" pointer-events="none"><line transform="translate(0,0)" x2="180" y2="0" stroke="black" stroke-width="1" opacity="1"/></g><g class="mark-text role-axis-title" pointer-events="none"><text text-anchor="middle" transform="translate(90,28)" font-family="Arial" font-size="11px" font-weight="normal" fill="#000" opacity="1">Â</text></g></g><path class="foreground" aria-hidden="true" d="" pointer-events="none" display="none"/></g></g><g class="mark-group role-axis" role="graphics-symbol" aria-roledescription="axis" aria-label="Y-axis titled 'Elongation rate' for a linear scale with values from −0.1 to 1.1"><g transform="translate(0.5,0.5)"><path class="background" aria-hidden="true" d="M0,0h0v0h0Z" pointer-events="none"/><g><g class="mark-rule role-axis-tick" pointer-events="none"><line transform="translate(0,124)" x2="-3" y2="0" stroke="black" stroke-width="1" opacity="1"/><line transform="translate(0,101)" x2="-3" y2="0" stroke="black" stroke-width="1" opacity="1"/><line transform="translate(0,79)" x2="-3" y2="0" stroke="black" stroke-width="1" opacity="1"/><line transform="translate(0,56)" x2="-3" y2="0" stroke="black" stroke-width="1" opacity="1"/><line transform="translate(0,34)" x2="-3" y2="0" stroke="black" stroke-width="1" opacity="1"/><line transform="translate(0,11)" x2="-3" y2="0" stroke="black" stroke-width="1" opacity="1"/></g><g class="mark-text role-axis-label" pointer-events="none"><text text-anchor="end" transform="translate(-5,126.75)" font-family="Arial" font-size="10px" fill="#000" opacity="1">0.0</text><text text-anchor="end" transform="translate(-5,104.25)" font-family="Arial" font-size="10px" fill="#000" opacity="1">0.2</text><text text-anchor="end" transform="translate(-5,81.75)" font-family="Arial" font-size="10px" fill="#000" opacity="1">0.4</text><text text-anchor="end" transform="translate(-5,59.25000000000001)" font-family="Arial" font-size="10px" fill="#000" opacity="1">0.6</text><text text-anchor="end" transform="translate(-5,36.750000000000014)" font-family="Arial" font-size="10px" fill="#000" opacity="1">0.8</text><text text-anchor="end" transform="translate(-5,14.250000000000005)" font-family="Arial" font-size="10px" fill="#000" opacity="1">1.0</text></g><g class="mark-rule role-axis-domain" pointer-events="none"><line transform="translate(0,135)" x2="0" y2="-135" stroke="black" stroke-width="1" opacity="1"/></g><g class="mark-text role-axis-title" pointer-events="none"><text text-anchor="middle" transform="translate(-22.9013671875,67.5) rotate(-90) translate(0,-2)" font-family="Arial" font-size="11px" font-weight="normal" fill="#000" opacity="1">Elongation rate</text></g></g><path class="foreground" aria-hidden="true" d="" pointer-events="none" display="none"/></g></g><g class="mark-group role-scope layer_0_pathgroup" role="graphics-object" aria-roledescription="group mark container"><g transform="translate(0,0)"><path class="background" aria-hidden="true" d="M0,0h180v135h-180Z"/><g><g class="mark-line role-mark layer_0_marks" role="graphics-object" aria-roledescription="line mark container"><path aria-label="A: 0.01; v: −0.0989999999109; model: Full" role="graphics-symbol" aria-roledescription="line mark" d="M0.9,134.887L1.8,134.775L2.7,134.662L3.6,134.55L4.5,134.437L5.4,134.325L6.3,134.212L7.2,134.1L8.1,133.987L9,133.874L9.9,133.761L10.8,133.648L11.7,133.534L12.6,133.42L13.5,133.306L14.4,133.191L15.3,133.076L16.2,132.959L17.1,132.842L18,132.724L18.9,132.605L19.8,132.484L20.7,132.362L21.6,132.239L22.5,132.113L23.4,131.986L24.3,131.856L25.2,131.724L26.1,131.59L27,131.452L27.9,131.312L28.8,131.168L29.7,131.021L30.6,130.87L31.5,130.715L32.4,130.556L33.3,130.392L34.2,130.224L35.1,130.05L36,129.871L36.9,129.687L37.8,129.497L38.7,129.301L39.6,129.099L40.5,128.891L41.4,128.675L42.3,128.453L43.2,128.223L44.1,127.986L45,127.742L45.9,127.49L46.8,127.229L47.7,126.961L48.6,126.684L49.5,126.398L50.4,126.103L51.3,125.8L52.2,125.488L53.1,125.166L54,124.835L54.9,124.495L55.8,124.145L56.7,123.785L57.6,123.415L58.5,123.036L59.4,122.647L60.3,122.247L61.2,121.838L62.1,121.418L63,120.989L63.9,120.549L64.8,120.098L65.7,119.638L66.6,119.168L67.5,118.687L68.4,118.196L69.3,117.695L70.2,117.183L71.1,116.662L72,116.13L72.9,115.589L73.8,115.037L74.7,114.476L75.6,113.905L76.5,113.324L77.4,112.733L78.3,112.133L79.2,111.523L80.1,110.904L81,110.275L81.9,109.638L82.8,108.991L83.7,108.335L84.6,107.67L85.5,106.996L86.4,106.314L87.3,105.623L88.2,104.924L89.1,104.216L90,103.5L90.9,102.776L91.8,102.044L92.7,101.304L93.6,100.557L94.5,99.801L95.4,99.039L96.3,98.269L97.2,97.491L98.1,96.707L99,95.916L99.9,95.117L100.8,94.312L101.7,93.501L102.6,92.683L103.5,91.858L104.4,91.027L105.3,90.19L106.2,89.347L107.1,88.499L108,87.644L108.9,86.784L109.8,85.918L110.7,85.047L111.6,84.17L112.5,83.288L113.4,82.401L114.3,81.509L115.2,80.612L116.1,79.71L117,78.804L117.9,77.892L118.8,76.977L119.7,76.057L120.6,75.132L121.5,74.204L122.4,73.271L123.3,72.334L124.2,71.393L125.1,70.448L126,69.5L126.9,68.547L127.8,67.592L128.7,66.632L129.6,65.669L130.5,64.703L131.4,63.733L132.3,62.76L133.2,61.784L134.1,60.805L135,59.822L135.9,58.837L136.8,57.849L137.7,56.858L138.6,55.864L139.5,54.867L140.4,53.868L141.3,52.866L142.2,51.862L143.1,50.855L144,49.846L144.9,48.834L145.8,47.82L146.7,46.804L147.6,45.785L148.5,44.764L149.4,43.742L150.3,42.717L151.2,41.69L152.1,40.661L153,39.63L153.9,38.597L154.8,37.563L155.7,36.526L156.6,35.488L157.5,34.448L158.4,33.407L159.3,32.363L160.2,31.318L161.1,30.272L162,29.224L162.9,28.174L163.8,27.123L164.7,26.071L165.6,25.017L166.5,23.961L167.4,22.905L168.3,21.847L169.2,20.787L170.1,19.727L171,18.665L171.9,17.602L172.8,16.538L173.7,15.472L174.6,14.406L175.5,13.338L176.4,12.269L177.3,11.199L178.2,10.129L179.1,9.057L180,7.984" stroke="#1657a8" stroke-width="2" stroke-dasharray="4,0"/></g></g><path class="foreground" aria-hidden="true" d="" display="none"/></g><g transform="translate(0,0)"><path class="background" aria-hidden="true" d="M0,0h180v135h-180Z"/><g><g class="mark-line role-mark layer_0_marks" role="graphics-object" aria-roledescription="line mark container"><path aria-label="A: 0.01; v: −0.0989999999109; model: Reduced" role="graphics-symbol" aria-roledescription="line mark" d="M0.9,134.887L1.8,134.775L2.7,134.662L3.6,134.55L4.5,134.437L5.4,134.325L6.3,134.212L7.2,134.1L8.1,133.987L9,133.874L9.9,133.761L10.8,133.648L11.7,133.534L12.6,133.42L13.5,133.306L14.4,133.191L15.3,133.076L16.2,132.959L17.1,132.842L18,132.724L18.9,132.605L19.8,132.484L20.7,132.362L21.6,132.239L22.5,132.113L23.4,131.986L24.3,131.856L25.2,131.724L26.1,131.59L27,131.452L27.9,131.312L28.8,131.168L29.7,131.021L30.6,130.87L31.5,130.715L32.4,130.556L33.3,130.392L34.2,130.224L35.1,130.05L36,129.871L36.9,129.687L37.8,129.497L38.7,129.301L39.6,129.099L40.5,128.891L41.4,128.675L42.3,128.453L43.2,128.223L44.1,127.986L45,127.742L45.9,127.49L46.8,127.229L47.7,126.961L48.6,126.684L49.5,126.398L50.4,126.103L51.3,125.8L52.2,125.488L53.1,125.166L54,124.835L54.9,124.495L55.8,124.145L56.7,123.785L57.6,123.415L58.5,123.036L59.4,122.647L60.3,122.247L61.2,121.838L62.1,121.418L63,120.989L63.9,120.549L64.8,120.098L65.7,119.638L66.6,119.168L67.5,118.687L68.4,118.196L69.3,117.695L70.2,117.183L71.1,116.662L72,116.13L72.9,115.589L73.8,115.037L74.7,114.476L75.6,113.905L76.5,113.324L77.4,112.733L78.3,112.133L79.2,111.523L80.1,110.904L81,110.275L81.9,109.638L82.8,108.991L83.7,108.335L84.6,107.67L85.5,106.996L86.4,106.314L87.3,105.623L88.2,104.924L89.1,104.216L90,103.5L90.9,102.776L91.8,102.044L92.7,101.304L93.6,100.557L94.5,99.801L95.4,99.039L96.3,98.269L97.2,97.491L98.1,96.707L99,95.916L99.9,95.117L100.8,94.312L101.7,93.501L102.6,92.683L103.5,91.858L104.4,91.027L105.3,90.19L106.2,89.347L107.1,88.499L108,87.644L108.9,86.784L109.8,85.918L110.7,85.047L111.6,84.17L112.5,83.288L113.4,82.401L114.3,81.509L115.2,80.612L116.1,79.71L117,78.804L117.9,77.892L118.8,76.977L119.7,76.057L120.6,75.132L121.5,74.204L122.4,73.271L123.3,72.334L124.2,71.393L125.1,70.448L126,69.5L126.9,68.547L127.8,67.592L128.7,66.632L129.6,65.669L130.5,64.703L131.4,63.733L132.3,62.76L133.2,61.784L134.1,60.805L135,59.822L135.9,58.837L136.8,57.849L137.7,56.858L138.6,55.864L139.5,54.867L140.4,53.868L141.3,52.866L142.2,51.862L143.1,50.855L144,49.846L144.9,48.834L145.8,47.82L146.7,46.804L147.6,45.785L148.5,44.764L149.4,43.742L150.3,42.717L151.2,41.69L152.1,40.661L153,39.63L153.9,38.597L154.8,37.563L155.7,36.526L156.6,35.488L157.5,34.448L158.4,33.407L159.3,32.363L160.2,31.318L161.1,30.272L162,29.224L162.9,28.174L163.8,27.123L164.7,26.071L165.6,25.017L166.5,23.961L167.4,22.905L168.3,21.847L169.2,20.787L170.1,19.727L171,18.665L171.9,17.602L172.8,16.538L173.7,15.472L174.6,14.406L175.5,13.338L176.4,12.269L177.3,11.199L178.2,10.129L179.1,9.057L180,7.984" stroke="#f462a3" stroke-width="2" stroke-dasharray="4,4"/></g></g><path class="foreground" aria-hidden="true" d="" display="none"/></g></g><g class="mark-group role-legend" role="graphics-symbol" aria-roledescription="legend" aria-label="Symbol legend for stroke color and strokeDash with 2 values: Full, Reduced"><g transform="translate(200,0)"><path class="background" aria-hidden="true" d="M0,0h57v24h-57Z" pointer-events="none"/><g><g class="mark-group role-legend-entry"><g transform="translate(0,0)"><path class="background" aria-hidden="true" d="M0,0h0v0h0Z" pointer-events="none"/><g><g class="mark-group role-scope" role="graphics-object" aria-roledescription="group mark container"><g transform="translate(0,0)"><path class="background" aria-hidden="true" d="M0,0h56.029296875v11h-56.029296875Z" pointer-events="none" opacity="1"/><g><g class="mark-symbol role-legend-symbol" pointer-events="none"><path transform="translate(6,6)" d="M-5,0L5,0" stroke="#1657a8" stroke-width="1.5" stroke-dasharray="4,0" opacity="1"/></g><g class="mark-text role-legend-label" pointer-events="none"><text text-anchor="start" transform="translate(16,9)" font-family="Arial" font-size="10px" fill="#000" opacity="1">Full</text></g></g><path class="foreground" aria-hidden="true" d="" pointer-events="none" display="none"/></g><g transform="translate(0,13)"><path class="background" aria-hidden="true" d="M0,0h56.029296875v11h-56.029296875Z" pointer-events="none" opacity="1"/><g><g class="mark-symbol role-legend-symbol" pointer-events="none"><path transform="translate(6,6)" d="M-5,0L5,0" stroke="#f462a3" stroke-width="1.5" stroke-dasharray="4,4" opacity="1"/></g><g class="mark-text role-legend-label" pointer-events="none"><text text-anchor="start" transform="translate(16,9)" font-family="Arial" font-size="10px" fill="#000" opacity="1">Reduced</text></g></g><path class="foreground" aria-hidden="true" d="" pointer-events="none" display="none"/></g></g></g><path class="foreground" aria-hidden="true" d="" pointer-events="none" display="none"/></g></g></g><path class="foreground" aria-hidden="true" d="" pointer-events="none" display="none"/></g></g></g><path class="foreground" aria-hidden="true" d="" display="none"/></g></g></g></svg>