<svg xmlns="http://www.w3.org/2000/svg" xmlns:xlink="http://www.w3.org/1999/xlink" version="1.1" class="marks" width="272" height="177" viewBox="0 0 272 177"><rect width="272" height="177" fill="white"/><g fill="none" stroke-miterlimit="10" transform="translate(39,7)"><g class="mark-group role-frame root" role="graphics-object" aria-roledescription="group mark container"><g transform="translate(0,0)"><path class="background" aria-hidden="true" d="M0.5,0.5h180v135h-180Z" stroke="black"/><g><g class="mark-group role-axis" role="graphics-symbol" aria-roledescription="axis" aria-label="X-axis titled 'Â' for a linear scale with values from 0.0 to 2.0"><g transform="translate(0.5,135.5)"><path class="background" aria-hidden="true" d="M0,0h0v0h0Z" pointer-events="none"/><g><g class="mark-rule role-axis-tick" pointer-events="none"><line transform="translate(0,0)" x2="0" y2="3" stroke="black" stroke-width="1" opacity="1"/><line transform="translate(45,0)" x2="0" y2="3" stroke="black" stroke-width="1" opacity="1"/><line transform="translate(90,0)" x2="0" y2="3" stroke="black" stroke-width="1" opacity="1"/><line transform="translate(135,0)" x2="0" y2="3" stroke="black" stroke-width="1" opacity="1"/><line transform="translate(180,0)" x2="0" y2="3" stroke="black" stroke-width="1" opacity="1"/></g><g class="mark-text role-axis-label" pointer-events="none"><text text-anchor="start" transform="translate(0,13)" font-family="Arial" font-size="10px" fill="#000" opacity="1">0.0</text><text text-anchor="middle" transform="translate(45,13)" font-family="Arial" font-size="10px" fill="#000" opacity="1">0.5</text><text text-anchor="middle" transform="translate(90,13)" font-family="Arial" font-size="10px" fill="#000" opacity="1">1.0</text><text text-anchor="middle" transform="translate(135,13)" font-family="Arial" font-size="10px" fill="#000" opacity="1">1.5</text><text text-anchor="end" transform="translate(180,13)" font-family="Arial" font-size="10px" fill="#000" opacity="1">2.0</text></g><g class="mark-rule role-axis-domain" pointer-events="none"><line transform="translate(0,0)" x2="180" y2="0" stroke="black" stroke-width="1" opacity="1"/></g><g class="mark-text role-axis-title" pointer-events="none"><text text-anchor="middle" transform="translate(90,28)" font-family="Arial" font-size="11px" font-weight="normal" fill="#000" opacity="1">Â</text></g></g><path class="foreground" aria-hidden="true" d="" pointer-events="none" display="none"/></g></g><g class="mark-group role-axis" role="graphics-symbol" aria-roledescription="axis" aria-label="Y-axis titled 'Elongation rate' for a linear scale with values from −0.1 to 1.3"><g transform="translate(0.5,0.5)"><path class="background" aria-hidden="true" d="M0,0h0v0h0Z" pointer-events="none"/><g><g class="mark-rule role-axis-tick" pointer-events="none"><line transform="translate(0,125)" x2="-3" y2="0" stroke="black" stroke-width="1" opacity="1"/><line transform="translate(0,77)" x2="-3" y2="0" stroke="black" stroke-width="1" opacity="1"/><line transform="translate(0,29)" x2="-3" y2="0" stroke="black" stroke-width="1" opacity="1"/></g><g class="mark-text role-axis-label" pointer-events="none"><text text-anchor="end" transform="translate(-5,128.35714285714286)" font-family="Arial" font-size="10px" fill="#000" opacity="1">0.0</text><text text-anchor="end" transform="translate(-5,80.14285714285715)" font-family="Arial" font-size="10px" fill="#000" opacity="1">0.5</text><text text-anchor="end" transform="translate(-5,31.92857142857143)" font-family="Arial" font-size="10px" fill="#000" opacity="1">1.0</text></g><g class="mark-rule role-axis-domain" pointer-events="none"><line transform="translate(0,135)" x2="0" y2="-135" stroke="black" stroke-width="1" opacity="1"/></g><g class="mark-text role-axis-title" pointer-events="none"><text text-anchor="middle" transform="translate(-22.9013671875,67.5) rotate(-90) translate(0,-2)" font-family="Arial" font-size="11px" font-weight="normal" fill="#000" opacity="1">Elongation rate</text></g></g><path class="foreground" aria-hidden="true" d="" pointer-events="none" display="none"/></g></g><g class="mark-group role-scope layer_0_pathgroup" role="graphics-object" aria-roledescription="group mark container"><g transform="translate(0,0)"><path class="background" aria-hidden="true" d="M0,0h180v135h-180Z"/><g><g class="mark-line role-mark layer_0_marks" role="graphics-object" aria-roledescription="line mark container"><path aria-label="A_norm: 0; v: −0.1; m: 2" role="graphics-symbol" aria-roledescription="line mark" d="M0,135L0.9,134.895L1.8,134.773L2.7,134.635L3.6,134.481L4.5,134.311L5.4,134.127L6.3,133.928L7.2,133.714L8.1,133.487L9,133.247L9.9,132.993L10.8,132.727L11.7,132.448L12.6,132.158L13.5,131.856L14.4,131.542L15.3,131.217L16.2,130.881L17.1,130.535L18,130.179L18.9,129.812L19.8,129.436L20.7,129.05L21.6,128.654L22.5,128.25L23.4,127.837L24.3,127.415L25.2,126.984L26.1,126.546L27,126.099L27.9,125.644L28.8,125.182L29.7,124.712L30.6,124.235L31.5,123.75L32.4,123.258L33.3,122.76L34.2,122.255L35.1,121.743L36,121.224L36.9,120.7L37.8,120.169L38.7,119.632L39.6,119.089L40.5,118.541L41.4,117.986L42.3,117.426L43.2,116.861L44.1,116.29L45,115.714L45.9,115.133L46.8,114.547L47.7,113.956L48.6,113.36L49.5,112.759L50.4,112.154L51.3,111.544L52.2,110.929L53.1,110.311L54,109.688L54.9,109.06L55.8,108.429L56.7,107.793L57.6,107.153L58.5,106.51L59.4,105.862L60.3,105.211L61.2,104.556L62.1,103.898L63,103.235L63.9,102.57L64.8,101.9L65.7,101.228L66.6,100.552L67.5,99.872L68.4,99.19L69.3,98.504L70.2,97.815L71.1,97.124L72,96.429L72.9,95.731L73.8,95.03L74.7,94.326L75.6,93.62L76.5,92.91L77.4,92.198L78.3,91.483L79.2,90.766L80.1,90.046L81,89.323L81.9,88.598L82.8,87.871L83.7,87.14L84.6,86.408L85.5,85.673L86.4,84.936L87.3,84.196L88.2,83.455L89.1,82.711L90,81.964L90.9,81.216L91.8,80.465L92.7,79.713L93.6,78.958L94.5,78.201L95.4,77.442L96.3,76.682L97.2,75.919L98.1,75.154L99,74.388L99.9,73.619L100.8,72.849L101.7,72.077L102.6,71.303L103.5,70.527L104.4,69.75L105.3,68.971L106.2,68.19L107.1,67.408L108,66.623L108.9,65.838L109.8,65.05L110.7,64.261L111.6,63.471L112.5,62.679L113.4,61.885L114.3,61.09L115.2,60.293L116.1,59.495L117,58.696L117.9,57.895L118.8,57.092L119.7,56.289L120.6,55.484L121.5,54.677L122.4,53.869L123.3,53.06L124.2,52.25L125.1,51.438L126,50.625L126.9,49.811L127.8,48.995L128.7,48.179L129.6,47.361L130.5,46.542L131.4,45.721L132.3,44.9L133.2,44.077L134.1,43.253L135,42.429L135.9,41.603L136.8,40.776L137.7,39.947L138.6,39.118L139.5,38.288L140.4,37.456L141.3,36.624L142.2,35.791L143.1,34.956L144,34.121L144.9,33.284L145.8,32.447L146.7,31.609L147.6,30.769L148.5,29.929L149.4,29.088L150.3,28.246L151.2,27.403L152.1,26.559L153,25.714L153.9,24.869L154.8,24.022L155.7,23.175L156.6,22.326L157.5,21.477L158.4,20.627L159.3,19.777L160.2,18.925L161.1,18.073L162,17.219L162.9,16.365L163.8,15.511L164.7,14.655L165.6,13.799L166.5,12.942L167.4,12.084L168.3,11.225L169.2,10.366L170.1,9.506L171,8.645L171.9,7.784L172.8,6.922L173.7,6.059L174.6,5.195L175.5,4.331L176.4,3.466L177.3,2.601L178.2,1.734L179.1,0.868L180,0" stroke="#aed0ff" stroke-width="2"/></g></g><path class="foreground" aria-hidden="true" d="" display="none"/></g><g transform="translate(0,0)"><path class="background" aria-hidden="true" d="M0,0h180v135h-180Z"/><g><g class="mark-line role-mark layer_0_marks" role="graphics-object" aria-roledescription="line mark container"><path aria-label="A_norm: 0; v: −0.1; m: 4" role="graphics-symbol" aria-roledescription="line mark" d="M0,135L0.9,134.904L1.8,134.807L2.7,134.711L3.6,134.614L4.5,134.517L5.4,134.42L6.3,134.323L7.2,134.225L8.1,134.127L9,134.028L9.9,133.928L10.8,133.827L11.7,133.725L12.6,133.621L13.5,133.516L14.4,133.409L15.3,133.301L16.2,133.19L17.1,133.076L18,132.96L18.9,132.841L19.8,132.72L20.7,132.595L21.6,132.466L22.5,132.334L23.4,132.198L24.3,132.058L25.2,131.914L26.1,131.765L27,131.611L27.9,131.453L28.8,131.289L29.7,131.12L30.6,130.946L31.5,130.766L32.4,130.58L33.3,130.388L34.2,130.19L35.1,129.986L36,129.775L36.9,129.557L37.8,129.333L38.7,129.102L39.6,128.865L40.5,128.62L41.4,128.368L42.3,128.108L43.2,127.842L44.1,127.567L45,127.286L45.9,126.996L46.8,126.7L47.7,126.395L48.6,126.083L49.5,125.763L50.4,125.435L51.3,125.099L52.2,124.756L53.1,124.405L54,124.045L54.9,123.678L55.8,123.304L56.7,122.921L57.6,122.53L58.5,122.132L59.4,121.726L60.3,121.312L61.2,120.89L62.1,120.461L63,120.024L63.9,119.579L64.8,119.127L65.7,118.667L66.6,118.2L67.5,117.726L68.4,117.244L69.3,116.754L70.2,116.258L71.1,115.755L72,115.244L72.9,114.726L73.8,114.202L74.7,113.67L75.6,113.132L76.5,112.587L77.4,112.035L78.3,111.477L79.2,110.913L80.1,110.342L81,109.764L81.9,109.181L82.8,108.591L83.7,107.995L84.6,107.393L85.5,106.785L86.4,106.172L87.3,105.552L88.2,104.927L89.1,104.297L90,103.661L90.9,103.019L91.8,102.372L92.7,101.72L93.6,101.063L94.5,100.4L95.4,99.733L96.3,99.061L97.2,98.383L98.1,97.701L99,97.014L99.9,96.323L100.8,95.627L101.7,94.927L102.6,94.222L103.5,93.513L104.4,92.799L105.3,92.082L106.2,91.36L107.1,90.634L108,89.904L108.9,89.17L109.8,88.433L110.7,87.692L111.6,86.946L112.5,86.198L113.4,85.445L114.3,84.69L115.2,83.93L116.1,83.168L117,82.401L117.9,81.632L118.8,80.86L119.7,80.084L120.6,79.305L121.5,78.523L122.4,77.738L123.3,76.95L124.2,76.159L125.1,75.366L126,74.569L126.9,73.77L127.8,72.968L128.7,72.164L129.6,71.357L130.5,70.547L131.4,69.735L132.3,68.92L133.2,68.103L134.1,67.283L135,66.462L135.9,65.637L136.8,64.811L137.7,63.983L138.6,63.152L139.5,62.319L140.4,61.484L141.3,60.647L142.2,59.808L143.1,58.967L144,58.124L144.9,57.279L145.8,56.432L146.7,55.584L147.6,54.733L148.5,53.881L149.4,53.027L150.3,52.171L151.2,51.314L152.1,50.455L153,49.594L153.9,48.732L154.8,47.868L155.7,47.003L156.6,46.136L157.5,45.267L158.4,44.398L159.3,43.526L160.2,42.654L161.1,41.78L162,40.904L162.9,40.027L163.8,39.149L164.7,38.27L165.6,37.389L166.5,36.507L167.4,35.624L168.3,34.74L169.2,33.854L170.1,32.968L171,32.08L171.9,31.191L172.8,30.301L173.7,29.41L174.6,28.518L175.5,27.624L176.4,26.73L177.3,25.835L178.2,24.938L179.1,24.041L180,23.143" stroke="#91afe5" stroke-width="2"/></g></g><path class="foreground" aria-hidden="true" d="" display="none"/></g><g transform="translate(0,0)"><path class="background" aria-hidden="true" d="M0,0h180v135h-180Z"/><g><g class="mark-line role-mark layer_0_marks" role="graphics-object" aria-roledescription="line mark container"><path aria-label="A_norm: 0; v: −0.1; m: 8" role="graphics-symbol" aria-roledescription="line mark" d="M0,135L0.9,134.904L1.8,134.807L2.7,134.711L3.6,134.614L4.5,134.518L5.4,134.421L6.3,134.325L7.2,134.229L8.1,134.132L9,134.036L9.9,133.939L10.8,133.843L11.7,133.746L12.6,133.65L13.5,133.554L14.4,133.457L15.3,133.361L16.2,133.264L17.1,133.168L18,133.071L18.9,132.975L19.8,132.878L20.7,132.782L21.6,132.685L22.5,132.588L23.4,132.492L24.3,132.395L25.2,132.298L26.1,132.2L27,132.103L27.9,132.006L28.8,131.908L29.7,131.81L30.6,131.711L31.5,131.612L32.4,131.513L33.3,131.413L34.2,131.312L35.1,131.211L36,131.109L36.9,131.006L37.8,130.901L38.7,130.796L39.6,130.689L40.5,130.58L41.4,130.47L42.3,130.358L43.2,130.244L44.1,130.127L45,130.008L45.9,129.887L46.8,129.762L47.7,129.634L48.6,129.502L49.5,129.367L50.4,129.227L51.3,129.083L52.2,128.934L53.1,128.78L54,128.621L54.9,128.456L55.8,128.285L56.7,128.108L57.6,127.924L58.5,127.732L59.4,127.534L60.3,127.327L61.2,127.112L62.1,126.889L63,126.657L63.9,126.416L64.8,126.166L65.7,125.905L66.6,125.635L67.5,125.354L68.4,125.063L69.3,124.761L70.2,124.447L71.1,124.123L72,123.787L72.9,123.439L73.8,123.079L74.7,122.708L75.6,122.324L76.5,121.928L77.4,121.519L78.3,121.099L79.2,120.666L80.1,120.22L81,119.762L81.9,119.291L82.8,118.809L83.7,118.313L84.6,117.806L85.5,117.286L86.4,116.754L87.3,116.211L88.2,115.655L89.1,115.088L90,114.509L90.9,113.919L91.8,113.317L92.7,112.705L93.6,112.081L94.5,111.447L95.4,110.803L96.3,110.148L97.2,109.484L98.1,108.809L99,108.125L99.9,107.432L100.8,106.73L101.7,106.019L102.6,105.299L103.5,104.571L104.4,103.834L105.3,103.09L106.2,102.338L107.1,101.578L108,100.811L108.9,100.038L109.8,99.257L110.7,98.47L111.6,97.676L112.5,96.876L113.4,96.07L114.3,95.259L115.2,94.441L116.1,93.619L117,92.791L117.9,91.958L118.8,91.12L119.7,90.278L120.6,89.431L121.5,88.579L122.4,87.724L123.3,86.864L124.2,86.001L125.1,85.133L126,84.262L126.9,83.388L127.8,82.51L128.7,81.629L129.6,80.745L130.5,79.858L131.4,78.968L132.3,78.075L133.2,77.18L134.1,76.282L135,75.381L135.9,74.478L136.8,73.573L137.7,72.665L138.6,71.756L139.5,70.844L140.4,69.931L141.3,69.015L142.2,68.098L143.1,67.179L144,66.259L144.9,65.336L145.8,64.413L146.7,63.487L147.6,62.561L148.5,61.633L149.4,60.703L150.3,59.773L151.2,58.841L152.1,57.908L153,56.974L153.9,56.038L154.8,55.102L155.7,54.165L156.6,53.226L157.5,52.287L158.4,51.347L159.3,50.406L160.2,49.464L161.1,48.522L162,47.578L162.9,46.634L163.8,45.69L164.7,44.744L165.6,43.798L166.5,42.851L167.4,41.904L168.3,40.956L169.2,40.007L170.1,39.058L171,38.109L171.9,37.159L172.8,36.208L173.7,35.257L174.6,34.306L175.5,33.354L176.4,32.401L177.3,31.449L178.2,30.496L179.1,29.542L180,28.588" stroke="#738fcc" stroke-width="2"/></g></g><path class="foreground" aria-hidden="true" d="" display="none"/></g><g transform="translate(0,0)"><path class="background" aria-hidden="true" d="M0,0h180v135h-180Z"/><g><g class="mark-line role-mark layer_0_marks" role="graphics-object" aria-roledescription="line mark container"><path aria-label="A_norm: 0; v: −0.1; m: 16" role="graphics-symbol" aria-roledescription="line mark" d="M0,135L0.9,134.904L1.8,134.807L2.7,134.711L3.6,134.614L4.5,134.518L5.4,134.421L6.3,134.325L7.2,134.229L8.1,134.132L9,134.036L9.9,133.939L10.8,133.843L11.7,133.746L12.6,133.65L13.5,133.554L14.4,133.457L15.3,133.361L16.2,133.264L17.1,133.168L18,133.071L18.9,132.975L19.8,132.879L20.7,132.782L21.6,132.686L22.5,132.589L23.4,132.493L24.3,132.396L25.2,132.3L26.1,132.204L27,132.107L27.9,132.011L28.8,131.914L29.7,131.818L30.6,131.721L31.5,131.625L32.4,131.529L33.3,131.432L34.2,131.336L35.1,131.239L36,131.143L36.9,131.046L37.8,130.95L38.7,130.854L39.6,130.757L40.5,130.661L41.4,130.564L42.3,130.468L43.2,130.371L44.1,130.275L45,130.178L45.9,130.081L46.8,129.985L47.7,129.888L48.6,129.791L49.5,129.694L50.4,129.596L51.3,129.499L52.2,129.401L53.1,129.303L54,129.204L54.9,129.105L55.8,129.006L56.7,128.905L57.6,128.804L58.5,128.701L59.4,128.597L60.3,128.492L61.2,128.385L62.1,128.275L63,128.163L63.9,128.048L64.8,127.93L65.7,127.807L66.6,127.68L67.5,127.548L68.4,127.41L69.3,127.265L70.2,127.113L71.1,126.953L72,126.783L72.9,126.603L73.8,126.412L74.7,126.208L75.6,125.991L76.5,125.759L77.4,125.512L78.3,125.249L79.2,124.967L80.1,124.667L81,124.347L81.9,124.007L82.8,123.646L83.7,123.263L84.6,122.857L85.5,122.428L86.4,121.976L87.3,121.501L88.2,121.002L89.1,120.479L90,119.933L90.9,119.364L91.8,118.773L92.7,118.159L93.6,117.523L94.5,116.867L95.4,116.191L96.3,115.495L97.2,114.781L98.1,114.049L99,113.3L99.9,112.536L100.8,111.756L101.7,110.962L102.6,110.155L103.5,109.335L104.4,108.504L105.3,107.662L106.2,106.81L107.1,105.949L108,105.079L108.9,104.201L109.8,103.316L110.7,102.424L111.6,101.526L112.5,100.622L113.4,99.712L114.3,98.798L115.2,97.88L116.1,96.957L117,96.031L117.9,95.102L118.8,94.169L119.7,93.234L120.6,92.296L121.5,91.356L122.4,90.413L123.3,89.469L124.2,88.523L125.1,87.575L126,86.626L126.9,85.675L127.8,84.723L128.7,83.77L129.6,82.817L130.5,81.862L131.4,80.906L132.3,79.95L133.2,78.993L134.1,78.035L135,77.077L135.9,76.118L136.8,75.159L137.7,74.199L138.6,73.239L139.5,72.278L140.4,71.318L141.3,70.357L142.2,69.395L143.1,68.434L144,67.472L144.9,66.51L145.8,65.548L146.7,64.585L147.6,63.623L148.5,62.66L149.4,61.697L150.3,60.734L151.2,59.771L152.1,58.808L153,57.845L153.9,56.881L154.8,55.918L155.7,54.954L156.6,53.991L157.5,53.027L158.4,52.064L159.3,51.1L160.2,50.136L161.1,49.172L162,48.209L162.9,47.245L163.8,46.281L164.7,45.317L165.6,44.353L166.5,43.389L167.4,42.425L168.3,41.461L169.2,40.497L170.1,39.533L171,38.569L171.9,37.605L172.8,36.641L173.7,35.676L174.6,34.712L175.5,33.748L176.4,32.784L177.3,31.82L178.2,30.856L179.1,29.891L180,28.927" stroke="#5570b3" stroke-width="2"/></g></g><path class="foreground" aria-hidden="true" d="" display="none"/></g><g transform="translate(0,0)"><path class="background" aria-hidden="true" d="M0,0h180v135h-180Z"/><g><g class="mark-line role-mark layer_0_marks" role="graphics-object" aria-roledescription="line mark container"><path aria-label="A_norm: 0; v: −0.1; m: 32" role="graphics-symbol" aria-roledescription="line mark" d="M0,135L0.9,134.904L1.8,134.807L2.7,134.711L3.6,134.614L4.5,134.518L5.4,134.421L6.3,134.325L7.2,134.229L8.1,134.132L9,134.036L9.9,133.939L10.8,133.843L11.7,133.746L12.6,133.65L13.5,133.554L14.4,133.457L15.3,133.361L16.2,133.264L17.1,133.168L18,133.071L18.9,132.975L19.8,132.879L20.7,132.782L21.6,132.686L22.5,132.589L23.4,132.493L24.3,132.396L25.2,132.3L26.1,132.204L27,132.107L27.9,132.011L28.8,131.914L29.7,131.818L30.6,131.721L31.5,131.625L32.4,131.529L33.3,131.432L34.2,131.336L35.1,131.239L36,131.143L36.9,131.046L37.8,130.95L38.7,130.854L39.6,130.757L40.5,130.661L41.4,130.564L42.3,130.468L43.2,130.371L44.1,130.275L45,130.179L45.9,130.082L46.8,129.986L47.7,129.889L48.6,129.793L49.5,129.696L50.4,129.6L51.3,129.504L52.2,129.407L53.1,129.311L54,129.214L54.9,129.118L55.8,129.021L56.7,128.925L57.6,128.829L58.5,128.732L59.4,128.636L60.3,128.539L61.2,128.443L62.1,128.346L63,128.25L63.9,128.153L64.8,128.056L65.7,127.96L66.6,127.863L67.5,127.766L68.4,127.668L69.3,127.57L70.2,127.472L71.1,127.372L72,127.272L72.9,127.17L73.8,127.066L74.7,126.958L75.6,126.847L76.5,126.731L77.4,126.609L78.3,126.478L79.2,126.337L80.1,126.183L81,126.013L81.9,125.823L82.8,125.611L83.7,125.372L84.6,125.102L85.5,124.797L86.4,124.454L87.3,124.069L88.2,123.64L89.1,123.166L90,122.645L90.9,122.078L91.8,121.466L92.7,120.811L93.6,120.116L94.5,119.383L95.4,118.617L96.3,117.82L97.2,116.996L98.1,116.15L99,115.283L99.9,114.399L100.8,113.501L101.7,112.591L102.6,111.671L103.5,110.742L104.4,109.807L105.3,108.867L106.2,107.921L107.1,106.972L108,106.021L108.9,105.066L109.8,104.11L110.7,103.152L111.6,102.193L112.5,101.233L113.4,100.272L114.3,99.31L115.2,98.348L116.1,97.386L117,96.423L117.9,95.46L118.8,94.496L119.7,93.533L120.6,92.569L121.5,91.605L122.4,90.641L123.3,89.677L124.2,88.713L125.1,87.749L126,86.785L126.9,85.821L127.8,84.857L128.7,83.892L129.6,82.928L130.5,81.964L131.4,81L132.3,80.036L133.2,79.071L134.1,78.107L135,77.143L135.9,76.178L136.8,75.214L137.7,74.25L138.6,73.286L139.5,72.321L140.4,71.357L141.3,70.393L142.2,69.429L143.1,68.464L144,67.5L144.9,66.536L145.8,65.571L146.7,64.607L147.6,63.643L148.5,62.679L149.4,61.714L150.3,60.75L151.2,59.786L152.1,58.821L153,57.857L153.9,56.893L154.8,55.929L155.7,54.964L156.6,54L157.5,53.036L158.4,52.071L159.3,51.107L160.2,50.143L161.1,49.179L162,48.214L162.9,47.25L163.8,46.286L164.7,45.321L165.6,44.357L166.5,43.393L167.4,42.429L168.3,41.464L169.2,40.5L170.1,39.536L171,38.571L171.9,37.607L172.8,36.643L173.7,35.679L174.6,34.714L175.5,33.75L176.4,32.786L177.3,31.821L178.2,30.857L179.1,29.893L180,28.929" stroke="#35539b" stroke-width="2"/></g></g><path class="foreground" aria-hidden="true" d="" display="none"/></g><g transform="translate(0,0)"><path class="background" aria-hidden="true" d="M0,0h180v135h-180Z"/><g><g class="mark-line role-mark layer_0_marks" role="graphics-object" aria-roledescription="line mark container"><path aria-label="A_norm: 0; v: −0.1; m: 64" role="graphics-symbol" aria-roledescription="line mark" d="M0,135L0.9,134.904L1.8,134.807L2.7,134.711L3.6,134.614L4.5,134.518L5.4,134.421L6.3,134.325L7.2,134.229L8.1,134.132L9,134.036L9.9,133.939L10.8,133.843L11.7,133.746L12.6,133.65L13.5,133.554L14.4,133.457L15.3,133.361L16.2,133.264L17.1,133.168L18,133.071L18.9,132.975L19.8,132.879L20.7,132.782L21.6,132.686L22.5,132.589L23.4,132.493L24.3,132.396L25.2,132.3L26.1,132.204L27,132.107L27.9,132.011L28.8,131.914L29.7,131.818L30.6,131.721L31.5,131.625L32.4,131.529L33.3,131.432L34.2,131.336L35.1,131.239L36,131.143L36.9,131.046L37.8,130.95L38.7,130.854L39.6,130.757L40.5,130.661L41.4,130.564L42.3,130.468L43.2,130.371L44.1,130.275L45,130.179L45.9,130.082L46.8,129.986L47.7,129.889L48.6,129.793L49.5,129.696L50.4,129.6L51.3,129.504L52.2,129.407L53.1,129.311L54,129.214L54.9,129.118L55.8,129.021L56.7,128.925L57.6,128.829L58.5,128.732L59.4,128.636L60.3,128.539L61.2,128.443L62.1,128.346L63,128.25L63.9,128.154L64.8,128.057L65.7,127.961L66.6,127.864L67.5,127.768L68.4,127.671L69.3,127.575L70.2,127.479L71.1,127.382L72,127.286L72.9,127.189L73.8,127.093L74.7,126.996L75.6,126.9L76.5,126.803L77.4,126.706L78.3,126.609L79.2,126.511L80.1,126.412L81,126.311L81.9,126.206L82.8,126.095L83.7,125.973L84.6,125.835L85.5,125.67L86.4,125.468L87.3,125.214L88.2,124.893L89.1,124.492L90,124.001L90.9,123.418L91.8,122.748L92.7,122.002L93.6,121.193L94.5,120.336L95.4,119.443L96.3,118.526L97.2,117.592L98.1,116.647L99,115.695L99.9,114.738L100.8,113.778L101.7,112.817L102.6,111.854L103.5,110.891L104.4,109.928L105.3,108.964L106.2,108L107.1,107.035L108,106.071L108.9,105.107L109.8,104.143L110.7,103.179L111.6,102.214L112.5,101.25L113.4,100.286L114.3,99.321L115.2,98.357L116.1,97.393L117,96.429L117.9,95.464L118.8,94.5L119.7,93.536L120.6,92.571L121.5,91.607L122.4,90.643L123.3,89.679L124.2,88.714L125.1,87.75L126,86.786L126.9,85.821L127.8,84.857L128.7,83.893L129.6,82.929L130.5,81.964L131.4,81L132.3,80.036L133.2,79.071L134.1,78.107L135,77.143L135.9,76.179L136.8,75.214L137.7,74.25L138.6,73.286L139.5,72.321L140.4,71.357L141.3,70.393L142.2,69.429L143.1,68.464L144,67.5L144.9,66.536L145.8,65.571L146.7,64.607L147.6,63.643L148.5,62.679L149.4,61.714L150.3,60.75L151.2,59.786L152.1,58.821L153,57.857L153.9,56.893L154.8,55.929L155.7,54.964L156.6,54L157.5,53.036L158.4,52.071L159.3,51.107L160.2,50.143L161.1,49.179L162,48.214L162.9,47.25L163.8,46.286L164.7,45.321L165.6,44.357L166.5,43.393L167.4,42.429L168.3,41.464L169.2,40.5L170.1,39.536L171,38.571L171.9,37.607L172.8,36.643L173.7,35.679L174.6,34.714L175.5,33.75L176.4,32.786L177.3,31.821L178.2,30.857L179.1,29.893L180,28.929" stroke="#023883" stroke-width="2"/></g></g><path class="foreground" aria-hidden="true" d="" display="none"/></g></g><g class="mark-group role-legend" role="graphics-symbol" aria-roledescription="legend" aria-label="Symbol legend for stroke color with 6 values: 2, 4, 8, 16, 32, 64"><g transform="translate(200,0)"><path class="background" aria-hidden="true" d="M0,0h28v76h-28Z" pointer-events="none"/><g><g class="mark-group role-legend-entry"><g transform="translate(0,0)"><path class="background" aria-hidden="true" d="M0,0h0v0h0Z" pointer-events="none"/><g><g class="mark-group role-scope" role="graphics-object" aria-roledescription="group mark container"><g transform="translate(0,0)"><path class="background" aria-hidden="true" d="M0,0h27.123046875v11h-27.123046875Z" pointer-events="none" opacity="1"/><g><g class="mark-symbol role-legend-symbol" pointer-events="none"><path transform="translate(6,6)" d="M-5,0L5,0" stroke="#aed0ff" stroke-width="1.5" opacity="1"/></g><g class="mark-text role-legend-label" pointer-events="none"><text text-anchor="start" transform="translate(16,9)" font-family="Arial" font-size="10px" fill="#000" opacity="1">2</text></g></g><path class="foreground" aria-hidden="true" d="" pointer-events="none" display="none"/></g><g transform="translate(0,13)"><path class="background" aria-hidden="true" d="M0,0h27.123046875v11h-27.123046875Z" pointer-events="none" opacity="1"/><g><g class="mark-symbol role-legend-symbol" pointer-events="none"><path transform="translate(6,6)" d="M-5,0L5,0" stroke="#91afe5" stroke-width="1.5" opacity="1"/></g><g class="mark-text role-legend-label" pointer-events="none"><text text-anchor="start" transform="translate(16,9)" font-family="Arial" font-size="10px" fill="#000" opacity="1">4</text></g></g><path class="foreground" aria-hidden="true" d="" pointer-events="none" display="none"/></g><g transform="translate(0,26)"><path class="background" aria-hidden="true" d="M0,0h27.123046875v11h-27.123046875Z" pointer-events="none" opacity="1"/><g><g class="mark-symbol role-legend-symbol" pointer-events="none"><path transform="translate(6,6)" d="M-5,0L5,0" stroke="#738fcc" stroke-width="1.5" opacity="1"/></g><g class="mark-text role-legend-label" pointer-events="none"><text text-anchor="start" transform="translate(16,9)" font-family="Arial" font-size="10px" fill="#000" opacity="1">8</text></g></g><path class="foreground" aria-hidden="true" d="" pointer-events="none" display="none"/></g><g transform="translate(0,39)"><path class="background" aria-hidden="true" d="M0,0h27.123046875v11h-27.123046875Z" pointer-events="none" opacity="1"/><g><g class="mark-symbol role-legend-symbol" pointer-events="none"><path transform="translate(6,6)" d="M-5,0L5,0" stroke="#5570b3" stroke-width="1.5" opacity="1"/></g><g class="mark-text role-legend-label" pointer-events="none"><text text-anchor="start" transform="translate(16,9)" font-family="Arial" font-size="10px" fill="#000" opacity="1">16</text></g></g><path class="foreground" aria-hidden="true" d="" pointer-events="none" display="none"/></g><g transform="translate(0,52)"><path class="background" aria-hidden="true" d="M0,0h27.123046875v11h-27.123046875Z" pointer-events="none" opacity="1"/><g><g class="mark-symbol role-legend-symbol" pointer-events="none"><path transform="translate(6,6)" d="M-5,0L5,0" stroke="#35539b" stroke-width="1.5" opacity="1"/></g><g class="mark-text role-legend-label" pointer-events="none"><text text-anchor="start" transform="translate(16,9)" font-family="Arial" font-size="10px" fill="#000" opacity="1">32</text></g></g><path class="foreground" aria-hidden="true" d="" pointer-events="none" display="none"/></g><g transform="translate(0,65)"><path class="background" aria-hidden="true" d="M0,0h27.123046875v11h-27.123046875Z" pointer-events="none" opacity="1"/><g><g class="mark-symbol role-legend-symbol" pointer-events="none"><path transform="translate(6,6)" d="M-5,0L5,0" stroke="#023883" stroke-width="1.5" opacity="1"/></g><g class="mark-text role-legend-label" pointer-events="none"><text text-anchor="start" transform="translate(16,9)" font-family="Arial" font-size="10px" fill="#000" opacity="1">64</text></g></g><path class="foreground" aria-hidden="true" d="" pointer-events="none" display="none"/></g></g></g><path class="foreground" aria-hidden="true" d="" pointer-events="none" display="none"/></g></g></g><path class="foreground" aria-hidden="true" d="" pointer-events="none" display="none"/></g></g></g><path class="foreground" aria-hidden="true" d="" display="none"/></g></g></g></svg>